<svg xmlns="http://www.w3.org/2000/svg" xmlns:xlink="http://www.w3.org/1999/xlink" width="2697.06" height="2592.605" viewBox="0 0 2697.06 2592.605"><defs><style>.a,.f{fill:#ddfafd;}.b{fill:#ebfdff;}.c,.d{fill:#b5e9eb;}.d,.f{fill-rule:evenodd;}.e{clip-path:url(#a);}</style><clipPath id="a"><rect class="a" width="1920" height="1568"/></clipPath></defs><g transform="translate(150 775.605)"><rect class="b" width="1920" height="1557" transform="translate(0 110)"/><g transform="translate(0 110)"><g transform="translate(78.887 32.395)"><g transform="translate(1493 383.69)"><path class="c" d="M295.151,124.732a2.266,2.266,0,1,1-2.266-2.268A2.267,2.267,0,0,1,295.151,124.732Z" transform="translate(-290.619 -122.464)"/><path class="c" d="M307.009,124.732a2.266,2.266,0,1,1-2.266-2.268A2.267,2.267,0,0,1,307.009,124.732Z" transform="translate(-272.118 -122.464)"/><circle class="c" cx="2.266" cy="2.266" r="2.266" transform="translate(60.72 0.001)"/><path class="c" d="M330.725,124.732a2.266,2.266,0,1,1-2.266-2.268A2.267,2.267,0,0,1,330.725,124.732Z" transform="translate(-235.114 -122.464)"/><path class="c" d="M295.151,136.316a2.266,2.266,0,1,1-2.266-2.266A2.265,2.265,0,0,1,295.151,136.316Z" transform="translate(-290.619 -104.387)"/><path class="c" d="M307.009,136.316a2.266,2.266,0,1,1-2.266-2.266A2.265,2.265,0,0,1,307.009,136.316Z" transform="translate(-272.118 -104.387)"/><path class="c" d="M318.868,136.316a2.266,2.266,0,1,1-2.266-2.266A2.265,2.265,0,0,1,318.868,136.316Z" transform="translate(-253.615 -104.387)"/><path class="c" d="M330.725,136.316a2.266,2.266,0,1,1-2.266-2.266A2.265,2.265,0,0,1,330.725,136.316Z" transform="translate(-235.114 -104.387)"/><path class="c" d="M295.151,147.9a2.266,2.266,0,1,1-2.266-2.266A2.265,2.265,0,0,1,295.151,147.9Z" transform="translate(-290.619 -86.311)"/><path class="c" d="M307.009,147.9a2.266,2.266,0,1,1-2.266-2.266A2.265,2.265,0,0,1,307.009,147.9Z" transform="translate(-272.118 -86.311)"/><circle class="c" cx="2.266" cy="2.266" r="2.266" transform="translate(60.72 59.326)"/><path class="c" d="M330.725,147.9a2.266,2.266,0,1,1-2.266-2.266A2.265,2.265,0,0,1,330.725,147.9Z" transform="translate(-235.114 -86.311)"/><path class="c" d="M295.151,159.808a2.266,2.266,0,1,1-2.266-2.266A2.267,2.267,0,0,1,295.151,159.808Z" transform="translate(-290.619 -67.735)"/><path class="c" d="M307.009,159.808a2.266,2.266,0,1,1-2.266-2.266A2.267,2.267,0,0,1,307.009,159.808Z" transform="translate(-272.118 -67.735)"/><circle class="c" cx="2.266" cy="2.266" r="2.266" transform="translate(60.72 89.806)"/><path class="c" d="M330.725,159.808a2.266,2.266,0,1,1-2.266-2.266A2.267,2.267,0,0,1,330.725,159.808Z" transform="translate(-235.114 -67.735)"/><path class="c" d="M295.151,171.393a2.266,2.266,0,1,1-2.266-2.266A2.267,2.267,0,0,1,295.151,171.393Z" transform="translate(-290.619 -49.66)"/><path class="c" d="M307.009,171.393a2.266,2.266,0,1,1-2.266-2.266A2.267,2.267,0,0,1,307.009,171.393Z" transform="translate(-272.118 -49.66)"/><circle class="c" cx="2.266" cy="2.266" r="2.266" transform="translate(60.72 119.468)"/><path class="c" d="M330.725,171.393a2.266,2.266,0,1,1-2.266-2.266A2.267,2.267,0,0,1,330.725,171.393Z" transform="translate(-235.114 -49.66)"/><path class="c" d="M295.151,182.979a2.266,2.266,0,1,1-2.266-2.266A2.265,2.265,0,0,1,295.151,182.979Z" transform="translate(-290.619 -31.583)"/><path class="c" d="M307.009,182.979a2.266,2.266,0,1,1-2.266-2.266A2.265,2.265,0,0,1,307.009,182.979Z" transform="translate(-272.118 -31.583)"/><circle class="c" cx="2.266" cy="2.266" r="2.266" transform="translate(60.72 149.13)"/><path class="c" d="M330.725,182.979a2.266,2.266,0,1,1-2.266-2.266A2.265,2.265,0,0,1,330.725,182.979Z" transform="translate(-235.114 -31.583)"/><circle class="c" cx="2.266" cy="2.266" r="2.266" transform="translate(122.96 0.001)"/><circle class="c" cx="2.266" cy="2.266" r="2.266" transform="translate(153.32 0.001)"/><path class="c" d="M366.895,124.732a2.266,2.266,0,1,1-2.266-2.268A2.267,2.267,0,0,1,366.895,124.732Z" transform="translate(-178.683 -122.464)"/><path class="c" d="M378.755,124.732a2.267,2.267,0,1,1-2.268-2.268A2.269,2.269,0,0,1,378.755,124.732Z" transform="translate(-160.182 -122.464)"/><path class="c" d="M343.177,136.316a2.266,2.266,0,1,1-2.266-2.266A2.265,2.265,0,0,1,343.177,136.316Z" transform="translate(-215.687 -104.387)"/><path class="c" d="M355.037,136.316a2.266,2.266,0,1,1-2.266-2.266A2.265,2.265,0,0,1,355.037,136.316Z" transform="translate(-197.184 -104.387)"/><path class="c" d="M366.895,136.316a2.266,2.266,0,1,1-2.266-2.266A2.265,2.265,0,0,1,366.895,136.316Z" transform="translate(-178.683 -104.387)"/><path class="c" d="M378.755,136.316a2.267,2.267,0,1,1-2.268-2.266A2.267,2.267,0,0,1,378.755,136.316Z" transform="translate(-160.182 -104.387)"/><circle class="c" cx="2.266" cy="2.266" r="2.266" transform="translate(122.96 59.326)"/><circle class="c" cx="2.266" cy="2.266" r="2.266" transform="translate(153.32 59.326)"/><path class="c" d="M366.895,147.9a2.266,2.266,0,1,1-2.266-2.266A2.265,2.265,0,0,1,366.895,147.9Z" transform="translate(-178.683 -86.311)"/><path class="c" d="M378.755,147.9a2.267,2.267,0,1,1-2.268-2.266A2.267,2.267,0,0,1,378.755,147.9Z" transform="translate(-160.182 -86.311)"/><circle class="c" cx="2.266" cy="2.266" r="2.266" transform="translate(122.96 89.806)"/><circle class="c" cx="2.266" cy="2.266" r="2.266" transform="translate(153.32 89.806)"/><path class="c" d="M366.895,159.808a2.266,2.266,0,1,1-2.266-2.266A2.267,2.267,0,0,1,366.895,159.808Z" transform="translate(-178.683 -67.735)"/><path class="c" d="M378.755,159.808a2.267,2.267,0,1,1-2.268-2.266A2.269,2.269,0,0,1,378.755,159.808Z" transform="translate(-160.182 -67.735)"/><circle class="c" cx="2.266" cy="2.266" r="2.266" transform="translate(122.96 119.468)"/><circle class="c" cx="2.266" cy="2.266" r="2.266" transform="translate(153.32 119.468)"/><path class="c" d="M366.895,171.393a2.266,2.266,0,1,1-2.266-2.266A2.267,2.267,0,0,1,366.895,171.393Z" transform="translate(-178.683 -49.66)"/><path class="c" d="M378.755,171.393a2.267,2.267,0,1,1-2.268-2.266A2.269,2.269,0,0,1,378.755,171.393Z" transform="translate(-160.182 -49.66)"/><circle class="c" cx="2.266" cy="2.266" r="2.266" transform="translate(122.96 149.13)"/><circle class="c" cx="2.266" cy="2.266" r="2.266" transform="translate(153.32 149.13)"/><path class="c" d="M366.895,182.979a2.266,2.266,0,1,1-2.266-2.266A2.265,2.265,0,0,1,366.895,182.979Z" transform="translate(-178.683 -31.583)"/><path class="c" d="M378.755,182.979a2.267,2.267,0,1,1-2.268-2.266A2.267,2.267,0,0,1,378.755,182.979Z" transform="translate(-160.182 -31.583)"/><path class="c" d="M391.205,124.732a2.266,2.266,0,1,1-2.266-2.268A2.267,2.267,0,0,1,391.205,124.732Z" transform="translate(-140.753 -122.464)"/><path class="c" d="M403.064,124.732a2.266,2.266,0,1,1-2.266-2.268A2.267,2.267,0,0,1,403.064,124.732Z" transform="translate(-122.252 -122.464)"/><circle class="c" cx="2.266" cy="2.266" r="2.266" transform="translate(306.64 0.001)"/><path class="c" d="M391.205,136.316a2.266,2.266,0,1,1-2.266-2.266A2.265,2.265,0,0,1,391.205,136.316Z" transform="translate(-140.753 -104.387)"/><path class="c" d="M403.064,136.316a2.266,2.266,0,1,1-2.266-2.266A2.265,2.265,0,0,1,403.064,136.316Z" transform="translate(-122.252 -104.387)"/><path class="c" d="M414.924,136.316a2.267,2.267,0,1,1-2.268-2.266A2.267,2.267,0,0,1,414.924,136.316Z" transform="translate(-103.751 -104.387)"/><path class="c" d="M391.205,147.9a2.266,2.266,0,1,1-2.266-2.266A2.265,2.265,0,0,1,391.205,147.9Z" transform="translate(-140.753 -86.311)"/><path class="c" d="M403.064,147.9a2.266,2.266,0,1,1-2.266-2.266A2.265,2.265,0,0,1,403.064,147.9Z" transform="translate(-122.252 -86.311)"/><circle class="c" cx="2.266" cy="2.266" r="2.266" transform="translate(306.64 59.326)"/><path class="c" d="M391.205,159.808a2.266,2.266,0,1,1-2.266-2.266A2.267,2.267,0,0,1,391.205,159.808Z" transform="translate(-140.753 -67.735)"/><path class="c" d="M403.064,159.808a2.266,2.266,0,1,1-2.266-2.266A2.267,2.267,0,0,1,403.064,159.808Z" transform="translate(-122.252 -67.735)"/><circle class="c" cx="2.266" cy="2.266" r="2.266" transform="translate(306.64 89.806)"/><path class="c" d="M391.205,171.393a2.266,2.266,0,1,1-2.266-2.266A2.267,2.267,0,0,1,391.205,171.393Z" transform="translate(-140.753 -49.66)"/><path class="c" d="M403.064,171.393a2.266,2.266,0,1,1-2.266-2.266A2.267,2.267,0,0,1,403.064,171.393Z" transform="translate(-122.252 -49.66)"/><circle class="c" cx="2.266" cy="2.266" r="2.266" transform="translate(306.64 119.468)"/><path class="c" d="M391.205,182.979a2.266,2.266,0,1,1-2.266-2.266A2.265,2.265,0,0,1,391.205,182.979Z" transform="translate(-140.753 -31.583)"/><path class="c" d="M403.064,182.979a2.266,2.266,0,1,1-2.266-2.266A2.265,2.265,0,0,1,403.064,182.979Z" transform="translate(-122.252 -31.583)"/><circle class="c" cx="2.266" cy="2.266" r="2.266" transform="translate(306.64 149.13)"/></g><g transform="translate(708 1183.703)"><path class="c" d="M296.219,125.267a2.8,2.8,0,1,1-2.8-2.8A2.8,2.8,0,0,1,296.219,125.267Z" transform="translate(-290.619 -122.464)"/><path class="c" d="M308.077,125.267a2.8,2.8,0,1,1-2.8-2.8A2.8,2.8,0,0,1,308.077,125.267Z" transform="translate(-264.958 -122.464)"/><circle class="c" cx="2.8" cy="2.8" r="2.8" transform="translate(75.04 0.001)"/><path class="c" d="M331.794,125.267a2.8,2.8,0,1,1-2.8-2.8A2.8,2.8,0,0,1,331.794,125.267Z" transform="translate(-213.634 -122.464)"/><path class="c" d="M296.219,136.85a2.8,2.8,0,1,1-2.8-2.8A2.8,2.8,0,0,1,296.219,136.85Z" transform="translate(-290.619 -97.392)"/><path class="c" d="M308.077,136.85a2.8,2.8,0,1,1-2.8-2.8A2.8,2.8,0,0,1,308.077,136.85Z" transform="translate(-264.958 -97.392)"/><path class="c" d="M319.936,136.85a2.8,2.8,0,1,1-2.8-2.8A2.8,2.8,0,0,1,319.936,136.85Z" transform="translate(-239.295 -97.392)"/><path class="c" d="M331.794,136.85a2.8,2.8,0,1,1-2.8-2.8A2.8,2.8,0,0,1,331.794,136.85Z" transform="translate(-213.634 -97.392)"/><path class="c" d="M296.219,148.436a2.8,2.8,0,1,1-2.8-2.8A2.8,2.8,0,0,1,296.219,148.436Z" transform="translate(-290.619 -72.319)"/><path class="c" d="M308.077,148.436a2.8,2.8,0,1,1-2.8-2.8A2.8,2.8,0,0,1,308.077,148.436Z" transform="translate(-264.958 -72.319)"/><circle class="c" cx="2.8" cy="2.8" r="2.8" transform="translate(75.04 73.317)"/><path class="c" d="M331.794,148.436a2.8,2.8,0,1,1-2.8-2.8A2.8,2.8,0,0,1,331.794,148.436Z" transform="translate(-213.634 -72.319)"/><path class="c" d="M296.219,160.342a2.8,2.8,0,1,1-2.8-2.8A2.8,2.8,0,0,1,296.219,160.342Z" transform="translate(-290.619 -46.555)"/><path class="c" d="M308.077,160.342a2.8,2.8,0,1,1-2.8-2.8A2.8,2.8,0,0,1,308.077,160.342Z" transform="translate(-264.958 -46.555)"/><circle class="c" cx="2.8" cy="2.8" r="2.8" transform="translate(75.04 110.986)"/><path class="c" d="M331.794,160.342a2.8,2.8,0,1,1-2.8-2.8A2.8,2.8,0,0,1,331.794,160.342Z" transform="translate(-213.634 -46.555)"/><path class="c" d="M296.219,171.927a2.8,2.8,0,1,1-2.8-2.8A2.8,2.8,0,0,1,296.219,171.927Z" transform="translate(-290.619 -21.485)"/><path class="c" d="M308.077,171.927a2.8,2.8,0,1,1-2.8-2.8A2.8,2.8,0,0,1,308.077,171.927Z" transform="translate(-264.958 -21.485)"/><circle class="c" cx="2.8" cy="2.8" r="2.8" transform="translate(75.04 147.643)"/><path class="c" d="M331.794,171.927a2.8,2.8,0,1,1-2.8-2.8A2.8,2.8,0,0,1,331.794,171.927Z" transform="translate(-213.634 -21.485)"/><path class="c" d="M296.219,183.513a2.8,2.8,0,1,1-2.8-2.8A2.8,2.8,0,0,1,296.219,183.513Z" transform="translate(-290.619 3.588)"/><path class="c" d="M308.077,183.513a2.8,2.8,0,1,1-2.8-2.8A2.8,2.8,0,0,1,308.077,183.513Z" transform="translate(-264.958 3.588)"/><circle class="c" cx="2.8" cy="2.8" r="2.8" transform="translate(75.04 184.301)"/><path class="c" d="M331.794,183.513a2.8,2.8,0,1,1-2.8-2.8A2.8,2.8,0,0,1,331.794,183.513Z" transform="translate(-213.634 3.588)"/><circle class="c" cx="2.8" cy="2.8" r="2.8" transform="translate(151.959 0.001)"/><circle class="c" cx="2.8" cy="2.8" r="2.8" transform="translate(189.479 0.001)"/><path class="c" d="M367.963,125.267a2.8,2.8,0,1,1-2.8-2.8A2.8,2.8,0,0,1,367.963,125.267Z" transform="translate(-135.364 -122.464)"/><path class="c" d="M379.824,125.267a2.8,2.8,0,1,1-2.8-2.8A2.8,2.8,0,0,1,379.824,125.267Z" transform="translate(-109.703 -122.464)"/><path class="c" d="M344.246,136.85a2.8,2.8,0,1,1-2.8-2.8A2.8,2.8,0,0,1,344.246,136.85Z" transform="translate(-186.688 -97.392)"/><path class="c" d="M356.105,136.85a2.8,2.8,0,1,1-2.8-2.8A2.8,2.8,0,0,1,356.105,136.85Z" transform="translate(-161.025 -97.392)"/><path class="c" d="M367.963,136.85a2.8,2.8,0,1,1-2.8-2.8A2.8,2.8,0,0,1,367.963,136.85Z" transform="translate(-135.364 -97.392)"/><path class="c" d="M379.824,136.85a2.8,2.8,0,1,1-2.8-2.8A2.8,2.8,0,0,1,379.824,136.85Z" transform="translate(-109.703 -97.392)"/><circle class="c" cx="2.8" cy="2.8" r="2.8" transform="translate(151.959 73.317)"/><circle class="c" cx="2.8" cy="2.8" r="2.8" transform="translate(189.479 73.317)"/><path class="c" d="M367.963,148.436a2.8,2.8,0,1,1-2.8-2.8A2.8,2.8,0,0,1,367.963,148.436Z" transform="translate(-135.364 -72.319)"/><path class="c" d="M379.824,148.436a2.8,2.8,0,1,1-2.8-2.8A2.8,2.8,0,0,1,379.824,148.436Z" transform="translate(-109.703 -72.319)"/><circle class="c" cx="2.8" cy="2.8" r="2.8" transform="translate(151.959 110.986)"/><circle class="c" cx="2.8" cy="2.8" r="2.8" transform="translate(189.479 110.986)"/><path class="c" d="M367.963,160.342a2.8,2.8,0,1,1-2.8-2.8A2.8,2.8,0,0,1,367.963,160.342Z" transform="translate(-135.364 -46.555)"/><path class="c" d="M379.824,160.342a2.8,2.8,0,1,1-2.8-2.8A2.8,2.8,0,0,1,379.824,160.342Z" transform="translate(-109.703 -46.555)"/><circle class="c" cx="2.8" cy="2.8" r="2.8" transform="translate(151.959 147.643)"/><circle class="c" cx="2.8" cy="2.8" r="2.8" transform="translate(189.479 147.643)"/><path class="c" d="M367.963,171.927a2.8,2.8,0,1,1-2.8-2.8A2.8,2.8,0,0,1,367.963,171.927Z" transform="translate(-135.364 -21.485)"/><path class="c" d="M379.824,171.927a2.8,2.8,0,1,1-2.8-2.8A2.8,2.8,0,0,1,379.824,171.927Z" transform="translate(-109.703 -21.485)"/><circle class="c" cx="2.8" cy="2.8" r="2.8" transform="translate(151.959 184.301)"/><circle class="c" cx="2.8" cy="2.8" r="2.8" transform="translate(189.479 184.301)"/><path class="c" d="M367.963,183.513a2.8,2.8,0,1,1-2.8-2.8A2.8,2.8,0,0,1,367.963,183.513Z" transform="translate(-135.364 3.588)"/><path class="c" d="M379.824,183.513a2.8,2.8,0,1,1-2.8-2.8A2.8,2.8,0,0,1,379.824,183.513Z" transform="translate(-109.703 3.588)"/><path class="c" d="M392.274,125.267a2.8,2.8,0,1,1-2.8-2.8A2.8,2.8,0,0,1,392.274,125.267Z" transform="translate(-82.755 -122.464)"/><path class="c" d="M404.132,125.267a2.8,2.8,0,1,1-2.8-2.8A2.8,2.8,0,0,1,404.132,125.267Z" transform="translate(-57.094 -122.464)"/><circle class="c" cx="2.8" cy="2.8" r="2.8" transform="translate(378.958 0.001)"/><path class="c" d="M392.274,136.85a2.8,2.8,0,1,1-2.8-2.8A2.8,2.8,0,0,1,392.274,136.85Z" transform="translate(-82.755 -97.392)"/><path class="c" d="M404.132,136.85a2.8,2.8,0,1,1-2.8-2.8A2.8,2.8,0,0,1,404.132,136.85Z" transform="translate(-57.094 -97.392)"/><path class="c" d="M415.994,136.85a2.8,2.8,0,1,1-2.8-2.8A2.8,2.8,0,0,1,415.994,136.85Z" transform="translate(-31.433 -97.392)"/><path class="c" d="M392.274,148.436a2.8,2.8,0,1,1-2.8-2.8A2.8,2.8,0,0,1,392.274,148.436Z" transform="translate(-82.755 -72.319)"/><path class="c" d="M404.132,148.436a2.8,2.8,0,1,1-2.8-2.8A2.8,2.8,0,0,1,404.132,148.436Z" transform="translate(-57.094 -72.319)"/><circle class="c" cx="2.8" cy="2.8" r="2.8" transform="translate(378.958 73.317)"/><path class="c" d="M392.274,160.342a2.8,2.8,0,1,1-2.8-2.8A2.8,2.8,0,0,1,392.274,160.342Z" transform="translate(-82.755 -46.555)"/><path class="c" d="M404.132,160.342a2.8,2.8,0,1,1-2.8-2.8A2.8,2.8,0,0,1,404.132,160.342Z" transform="translate(-57.094 -46.555)"/><circle class="c" cx="2.8" cy="2.8" r="2.8" transform="translate(378.958 110.986)"/><path class="c" d="M392.274,171.927a2.8,2.8,0,1,1-2.8-2.8A2.8,2.8,0,0,1,392.274,171.927Z" transform="translate(-82.755 -21.485)"/><path class="c" d="M404.132,171.927a2.8,2.8,0,1,1-2.8-2.8A2.8,2.8,0,0,1,404.132,171.927Z" transform="translate(-57.094 -21.485)"/><circle class="c" cx="2.8" cy="2.8" r="2.8" transform="translate(378.958 147.643)"/><path class="c" d="M392.274,183.513a2.8,2.8,0,1,1-2.8-2.8A2.8,2.8,0,0,1,392.274,183.513Z" transform="translate(-82.755 3.588)"/><path class="c" d="M404.132,183.513a2.8,2.8,0,1,1-2.8-2.8A2.8,2.8,0,0,1,404.132,183.513Z" transform="translate(-57.094 3.588)"/><circle class="c" cx="2.8" cy="2.8" r="2.8" transform="translate(378.958 184.301)"/></g><path class="d" d="M494.773,511.318a2.908,2.908,0,1,1,5.816,0V524.4a2.908,2.908,0,1,1-5.816,0V511.318ZM474.94,521.943a2.91,2.91,0,1,1,4.113-4.117l9.254,9.254a2.909,2.909,0,0,1-4.113,4.116l-9.254-9.253Zm-6.51,21.539a2.911,2.911,0,1,1,0-5.823h13.086a2.912,2.912,0,0,1,0,5.823Zm10.623,19.832a2.909,2.909,0,1,1-4.113-4.116l9.254-9.254a2.909,2.909,0,0,1,4.113,4.114l-9.254,9.256Zm21.536,6.508a2.908,2.908,0,0,1-5.816,0V556.731a2.908,2.908,0,1,1,5.816,0v13.091ZM520.422,559.2a2.91,2.91,0,1,1-4.116,4.116l-9.255-9.256a2.91,2.91,0,0,1,4.116-4.114l9.255,9.254Zm6.51-21.539a2.911,2.911,0,0,1,0,5.823H513.844a2.911,2.911,0,0,1,0-5.823Zm-10.626-19.833a2.911,2.911,0,0,1,4.116,4.117l-9.255,9.253a2.91,2.91,0,0,1-4.116-4.116Z" transform="translate(-268.61 -456.405)"/></g><g transform="translate(0 0)"><g class="e" transform="translate(0 0)"><path class="f" d="M606.435,1067.707h-159.9c-86.058,0-156.467-92.648-156.467-205.876h0c0-113.233,70.409-205.877,156.467-205.877H1798.57c139.353,0,253.365,150.015,253.365,333.369h0c0,183.358-114.012,333.374-253.362,333.374h0c-58.921,0-107.126,63.427-107.126,140.953h0c0,77.527,48.208,140.959,107.129,140.959H1927.5c61.259,0,111.38,65.948,111.38,146.547h0c0,80.6-50.121,146.552-111.38,146.552H1764.466c-23.846,0-43.362,25.678-43.362,57.055h0c0,31.376,19.516,57.05,43.362,57.05h28.741c16.458,0,29.923,17.722,29.923,39.378h0c0,21.656-13.465,39.378-29.923,39.378H1604.622c-39.717,0-44.138-61.737-144.463-61.737H1305.283c-21.478,0,64.648-23.133,64.648-51.383l-38.028,51.383c0-28.255-21.478-51.383,0-51.383l372.674-51.377c31.121,0-439.4-33.507-439.4-74.445v0c0-40.944-25.462-74.451-56.583-74.451h-56.436c-152.4,0-173.924-52.4-200.616-156.629s-165.32-112.634-165.32-112.634H596.675c-46.9,0-85.267-50.486-85.267-112.189v0c0-61.7,38.369-112.188,85.267-112.188h9.76c45.106,0,82.014-48.563,82.014-107.913h0c0-59.349-36.908-107.908-82.014-107.908Zm1270.753,944.108c-16.53,0-29.927,17.633-29.927,39.378s13.4,39.378,29.927,39.378,29.927-17.633,29.927-39.378S1893.714,2011.814,1877.187,2011.814Z" transform="translate(816.51 -678.884)"/><path class="f" d="M-434.771,1525.984H-581.65c-79.055,0-143.729,80.118-143.729,178.033h0c0,97.92,64.673,178.033,143.729,178.033H660.309c128.008,0,232.739-129.727,232.739-288.284h0c0-158.561-104.73-288.283-232.735-288.283h0c-54.124,0-98.4-54.853-98.4-121.9h0c0-67.042,44.284-121.9,98.407-121.9H778.744c56.272,0,102.309-57.029,102.309-126.728h0c0-69.7-46.037-126.732-102.309-126.732H628.983c-21.908,0-39.832-22.2-39.832-49.339h0c0-27.133,17.924-49.335,39.832-49.335h26.4c15.115,0,27.487-15.325,27.487-34.052h0c0-18.727-12.372-34.052-27.487-34.052H482.151c-36.484,0-40.548,53.388-132.7,53.388H83.921c-19.733,0-35.872,20-35.872,44.434h0c0,24.434,16.142,44.433,35.872,44.433h34.446c28.587,0,51.976,28.971,51.976,64.377h0c0,35.406-23.389,64.382-51.976,64.382H66.526c-139.993,0-159.767,45.316-184.284,135.447s-151.861,97.4-151.861,97.4H-443.736c-43.08,0-78.325,43.658-78.325,97.016v0c0,53.358,35.245,97.016,78.325,97.016h8.965c41.434,0,75.334,42,75.334,93.319h0c0,51.323-33.9,93.314-75.334,93.314Zm1167.3-816.425c-15.184,0-27.491-15.244-27.491-34.052s12.306-34.052,27.491-34.052,27.491,15.248,27.491,34.052S747.7,709.559,732.527,709.559Z" transform="translate(-249.832 -380.588)"/></g></g><g transform="translate(742.887 -937.605)"><g transform="translate(1493 383.69)"><path class="c" d="M295.151,124.732a2.266,2.266,0,1,1-2.266-2.268A2.267,2.267,0,0,1,295.151,124.732Z" transform="translate(-290.619 -122.464)"/><path class="c" d="M307.009,124.732a2.266,2.266,0,1,1-2.266-2.268A2.267,2.267,0,0,1,307.009,124.732Z" transform="translate(-272.118 -122.464)"/><circle class="c" cx="2.266" cy="2.266" r="2.266" transform="translate(60.72 0.001)"/><path class="c" d="M330.725,124.732a2.266,2.266,0,1,1-2.266-2.268A2.267,2.267,0,0,1,330.725,124.732Z" transform="translate(-235.114 -122.464)"/><path class="c" d="M295.151,136.316a2.266,2.266,0,1,1-2.266-2.266A2.265,2.265,0,0,1,295.151,136.316Z" transform="translate(-290.619 -104.387)"/><path class="c" d="M307.009,136.316a2.266,2.266,0,1,1-2.266-2.266A2.265,2.265,0,0,1,307.009,136.316Z" transform="translate(-272.118 -104.387)"/><path class="c" d="M318.868,136.316a2.266,2.266,0,1,1-2.266-2.266A2.265,2.265,0,0,1,318.868,136.316Z" transform="translate(-253.615 -104.387)"/><path class="c" d="M330.725,136.316a2.266,2.266,0,1,1-2.266-2.266A2.265,2.265,0,0,1,330.725,136.316Z" transform="translate(-235.114 -104.387)"/><path class="c" d="M295.151,147.9a2.266,2.266,0,1,1-2.266-2.266A2.265,2.265,0,0,1,295.151,147.9Z" transform="translate(-290.619 -86.311)"/><path class="c" d="M307.009,147.9a2.266,2.266,0,1,1-2.266-2.266A2.265,2.265,0,0,1,307.009,147.9Z" transform="translate(-272.118 -86.311)"/><circle class="c" cx="2.266" cy="2.266" r="2.266" transform="translate(60.72 59.326)"/><path class="c" d="M330.725,147.9a2.266,2.266,0,1,1-2.266-2.266A2.265,2.265,0,0,1,330.725,147.9Z" transform="translate(-235.114 -86.311)"/><path class="c" d="M295.151,159.808a2.266,2.266,0,1,1-2.266-2.266A2.267,2.267,0,0,1,295.151,159.808Z" transform="translate(-290.619 -67.735)"/><path class="c" d="M307.009,159.808a2.266,2.266,0,1,1-2.266-2.266A2.267,2.267,0,0,1,307.009,159.808Z" transform="translate(-272.118 -67.735)"/><circle class="c" cx="2.266" cy="2.266" r="2.266" transform="translate(60.72 89.806)"/><path class="c" d="M330.725,159.808a2.266,2.266,0,1,1-2.266-2.266A2.267,2.267,0,0,1,330.725,159.808Z" transform="translate(-235.114 -67.735)"/><path class="c" d="M295.151,171.393a2.266,2.266,0,1,1-2.266-2.266A2.267,2.267,0,0,1,295.151,171.393Z" transform="translate(-290.619 -49.66)"/><path class="c" d="M307.009,171.393a2.266,2.266,0,1,1-2.266-2.266A2.267,2.267,0,0,1,307.009,171.393Z" transform="translate(-272.118 -49.66)"/><circle class="c" cx="2.266" cy="2.266" r="2.266" transform="translate(60.72 119.468)"/><path class="c" d="M330.725,171.393a2.266,2.266,0,1,1-2.266-2.266A2.267,2.267,0,0,1,330.725,171.393Z" transform="translate(-235.114 -49.66)"/><path class="c" d="M295.151,182.979a2.266,2.266,0,1,1-2.266-2.266A2.265,2.265,0,0,1,295.151,182.979Z" transform="translate(-290.619 -31.583)"/><path class="c" d="M307.009,182.979a2.266,2.266,0,1,1-2.266-2.266A2.265,2.265,0,0,1,307.009,182.979Z" transform="translate(-272.118 -31.583)"/><circle class="c" cx="2.266" cy="2.266" r="2.266" transform="translate(60.72 149.13)"/><path class="c" d="M330.725,182.979a2.266,2.266,0,1,1-2.266-2.266A2.265,2.265,0,0,1,330.725,182.979Z" transform="translate(-235.114 -31.583)"/><circle class="c" cx="2.266" cy="2.266" r="2.266" transform="translate(122.96 0.001)"/><circle class="c" cx="2.266" cy="2.266" r="2.266" transform="translate(153.32 0.001)"/><path class="c" d="M366.895,124.732a2.266,2.266,0,1,1-2.266-2.268A2.267,2.267,0,0,1,366.895,124.732Z" transform="translate(-178.683 -122.464)"/><path class="c" d="M378.755,124.732a2.267,2.267,0,1,1-2.268-2.268A2.269,2.269,0,0,1,378.755,124.732Z" transform="translate(-160.182 -122.464)"/><path class="c" d="M343.177,136.316a2.266,2.266,0,1,1-2.266-2.266A2.265,2.265,0,0,1,343.177,136.316Z" transform="translate(-215.687 -104.387)"/><path class="c" d="M355.037,136.316a2.266,2.266,0,1,1-2.266-2.266A2.265,2.265,0,0,1,355.037,136.316Z" transform="translate(-197.184 -104.387)"/><path class="c" d="M366.895,136.316a2.266,2.266,0,1,1-2.266-2.266A2.265,2.265,0,0,1,366.895,136.316Z" transform="translate(-178.683 -104.387)"/><path class="c" d="M378.755,136.316a2.267,2.267,0,1,1-2.268-2.266A2.267,2.267,0,0,1,378.755,136.316Z" transform="translate(-160.182 -104.387)"/><circle class="c" cx="2.266" cy="2.266" r="2.266" transform="translate(122.96 59.326)"/><circle class="c" cx="2.266" cy="2.266" r="2.266" transform="translate(153.32 59.326)"/><path class="c" d="M366.895,147.9a2.266,2.266,0,1,1-2.266-2.266A2.265,2.265,0,0,1,366.895,147.9Z" transform="translate(-178.683 -86.311)"/><path class="c" d="M378.755,147.9a2.267,2.267,0,1,1-2.268-2.266A2.267,2.267,0,0,1,378.755,147.9Z" transform="translate(-160.182 -86.311)"/><circle class="c" cx="2.266" cy="2.266" r="2.266" transform="translate(122.96 89.806)"/><circle class="c" cx="2.266" cy="2.266" r="2.266" transform="translate(153.32 89.806)"/><path class="c" d="M366.895,159.808a2.266,2.266,0,1,1-2.266-2.266A2.267,2.267,0,0,1,366.895,159.808Z" transform="translate(-178.683 -67.735)"/><path class="c" d="M378.755,159.808a2.267,2.267,0,1,1-2.268-2.266A2.269,2.269,0,0,1,378.755,159.808Z" transform="translate(-160.182 -67.735)"/><circle class="c" cx="2.266" cy="2.266" r="2.266" transform="translate(122.96 119.468)"/><circle class="c" cx="2.266" cy="2.266" r="2.266" transform="translate(153.32 119.468)"/><path class="c" d="M366.895,171.393a2.266,2.266,0,1,1-2.266-2.266A2.267,2.267,0,0,1,366.895,171.393Z" transform="translate(-178.683 -49.66)"/><path class="c" d="M378.755,171.393a2.267,2.267,0,1,1-2.268-2.266A2.269,2.269,0,0,1,378.755,171.393Z" transform="translate(-160.182 -49.66)"/><circle class="c" cx="2.266" cy="2.266" r="2.266" transform="translate(122.96 149.13)"/><circle class="c" cx="2.266" cy="2.266" r="2.266" transform="translate(153.32 149.13)"/><path class="c" d="M366.895,182.979a2.266,2.266,0,1,1-2.266-2.266A2.265,2.265,0,0,1,366.895,182.979Z" transform="translate(-178.683 -31.583)"/><path class="c" d="M378.755,182.979a2.267,2.267,0,1,1-2.268-2.266A2.267,2.267,0,0,1,378.755,182.979Z" transform="translate(-160.182 -31.583)"/><path class="c" d="M391.205,124.732a2.266,2.266,0,1,1-2.266-2.268A2.267,2.267,0,0,1,391.205,124.732Z" transform="translate(-140.753 -122.464)"/><path class="c" d="M403.064,124.732a2.266,2.266,0,1,1-2.266-2.268A2.267,2.267,0,0,1,403.064,124.732Z" transform="translate(-122.252 -122.464)"/><circle class="c" cx="2.266" cy="2.266" r="2.266" transform="translate(306.64 0.001)"/><path class="c" d="M391.205,136.316a2.266,2.266,0,1,1-2.266-2.266A2.265,2.265,0,0,1,391.205,136.316Z" transform="translate(-140.753 -104.387)"/><path class="c" d="M403.064,136.316a2.266,2.266,0,1,1-2.266-2.266A2.265,2.265,0,0,1,403.064,136.316Z" transform="translate(-122.252 -104.387)"/><path class="c" d="M414.924,136.316a2.267,2.267,0,1,1-2.268-2.266A2.267,2.267,0,0,1,414.924,136.316Z" transform="translate(-103.751 -104.387)"/><path class="c" d="M391.205,147.9a2.266,2.266,0,1,1-2.266-2.266A2.265,2.265,0,0,1,391.205,147.9Z" transform="translate(-140.753 -86.311)"/><path class="c" d="M403.064,147.9a2.266,2.266,0,1,1-2.266-2.266A2.265,2.265,0,0,1,403.064,147.9Z" transform="translate(-122.252 -86.311)"/><circle class="c" cx="2.266" cy="2.266" r="2.266" transform="translate(306.64 59.326)"/><path class="c" d="M391.205,159.808a2.266,2.266,0,1,1-2.266-2.266A2.267,2.267,0,0,1,391.205,159.808Z" transform="translate(-140.753 -67.735)"/><path class="c" d="M403.064,159.808a2.266,2.266,0,1,1-2.266-2.266A2.267,2.267,0,0,1,403.064,159.808Z" transform="translate(-122.252 -67.735)"/><circle class="c" cx="2.266" cy="2.266" r="2.266" transform="translate(306.64 89.806)"/><path class="c" d="M391.205,171.393a2.266,2.266,0,1,1-2.266-2.266A2.267,2.267,0,0,1,391.205,171.393Z" transform="translate(-140.753 -49.66)"/><path class="c" d="M403.064,171.393a2.266,2.266,0,1,1-2.266-2.266A2.267,2.267,0,0,1,403.064,171.393Z" transform="translate(-122.252 -49.66)"/><circle class="c" cx="2.266" cy="2.266" r="2.266" transform="translate(306.64 119.468)"/><path class="c" d="M391.205,182.979a2.266,2.266,0,1,1-2.266-2.266A2.265,2.265,0,0,1,391.205,182.979Z" transform="translate(-140.753 -31.583)"/><path class="c" d="M403.064,182.979a2.266,2.266,0,1,1-2.266-2.266A2.265,2.265,0,0,1,403.064,182.979Z" transform="translate(-122.252 -31.583)"/><circle class="c" cx="2.266" cy="2.266" r="2.266" transform="translate(306.64 149.13)"/></g><g transform="translate(708 1183.703)"><path class="c" d="M296.219,125.267a2.8,2.8,0,1,1-2.8-2.8A2.8,2.8,0,0,1,296.219,125.267Z" transform="translate(-290.619 -122.464)"/><path class="c" d="M308.077,125.267a2.8,2.8,0,1,1-2.8-2.8A2.8,2.8,0,0,1,308.077,125.267Z" transform="translate(-264.958 -122.464)"/><circle class="c" cx="2.8" cy="2.8" r="2.8" transform="translate(75.04 0.001)"/><path class="c" d="M331.794,125.267a2.8,2.8,0,1,1-2.8-2.8A2.8,2.8,0,0,1,331.794,125.267Z" transform="translate(-213.634 -122.464)"/><path class="c" d="M296.219,136.85a2.8,2.8,0,1,1-2.8-2.8A2.8,2.8,0,0,1,296.219,136.85Z" transform="translate(-290.619 -97.392)"/><path class="c" d="M308.077,136.85a2.8,2.8,0,1,1-2.8-2.8A2.8,2.8,0,0,1,308.077,136.85Z" transform="translate(-264.958 -97.392)"/><path class="c" d="M319.936,136.85a2.8,2.8,0,1,1-2.8-2.8A2.8,2.8,0,0,1,319.936,136.85Z" transform="translate(-239.295 -97.392)"/><path class="c" d="M331.794,136.85a2.8,2.8,0,1,1-2.8-2.8A2.8,2.8,0,0,1,331.794,136.85Z" transform="translate(-213.634 -97.392)"/><path class="c" d="M296.219,148.436a2.8,2.8,0,1,1-2.8-2.8A2.8,2.8,0,0,1,296.219,148.436Z" transform="translate(-290.619 -72.319)"/><path class="c" d="M308.077,148.436a2.8,2.8,0,1,1-2.8-2.8A2.8,2.8,0,0,1,308.077,148.436Z" transform="translate(-264.958 -72.319)"/><circle class="c" cx="2.8" cy="2.8" r="2.8" transform="translate(75.04 73.317)"/><path class="c" d="M331.794,148.436a2.8,2.8,0,1,1-2.8-2.8A2.8,2.8,0,0,1,331.794,148.436Z" transform="translate(-213.634 -72.319)"/><path class="c" d="M296.219,160.342a2.8,2.8,0,1,1-2.8-2.8A2.8,2.8,0,0,1,296.219,160.342Z" transform="translate(-290.619 -46.555)"/><path class="c" d="M308.077,160.342a2.8,2.8,0,1,1-2.8-2.8A2.8,2.8,0,0,1,308.077,160.342Z" transform="translate(-264.958 -46.555)"/><circle class="c" cx="2.8" cy="2.8" r="2.8" transform="translate(75.04 110.986)"/><path class="c" d="M331.794,160.342a2.8,2.8,0,1,1-2.8-2.8A2.8,2.8,0,0,1,331.794,160.342Z" transform="translate(-213.634 -46.555)"/><path class="c" d="M296.219,171.927a2.8,2.8,0,1,1-2.8-2.8A2.8,2.8,0,0,1,296.219,171.927Z" transform="translate(-290.619 -21.485)"/><path class="c" d="M308.077,171.927a2.8,2.8,0,1,1-2.8-2.8A2.8,2.8,0,0,1,308.077,171.927Z" transform="translate(-264.958 -21.485)"/><circle class="c" cx="2.8" cy="2.8" r="2.8" transform="translate(75.04 147.643)"/><path class="c" d="M331.794,171.927a2.8,2.8,0,1,1-2.8-2.8A2.8,2.8,0,0,1,331.794,171.927Z" transform="translate(-213.634 -21.485)"/><path class="c" d="M296.219,183.513a2.8,2.8,0,1,1-2.8-2.8A2.8,2.8,0,0,1,296.219,183.513Z" transform="translate(-290.619 3.588)"/><path class="c" d="M308.077,183.513a2.8,2.8,0,1,1-2.8-2.8A2.8,2.8,0,0,1,308.077,183.513Z" transform="translate(-264.958 3.588)"/><circle class="c" cx="2.8" cy="2.8" r="2.8" transform="translate(75.04 184.301)"/><path class="c" d="M331.794,183.513a2.8,2.8,0,1,1-2.8-2.8A2.8,2.8,0,0,1,331.794,183.513Z" transform="translate(-213.634 3.588)"/><circle class="c" cx="2.8" cy="2.8" r="2.8" transform="translate(151.959 0.001)"/><circle class="c" cx="2.8" cy="2.8" r="2.8" transform="translate(189.479 0.001)"/><path class="c" d="M367.963,125.267a2.8,2.8,0,1,1-2.8-2.8A2.8,2.8,0,0,1,367.963,125.267Z" transform="translate(-135.364 -122.464)"/><path class="c" d="M379.824,125.267a2.8,2.8,0,1,1-2.8-2.8A2.8,2.8,0,0,1,379.824,125.267Z" transform="translate(-109.703 -122.464)"/><path class="c" d="M344.246,136.85a2.8,2.8,0,1,1-2.8-2.8A2.8,2.8,0,0,1,344.246,136.85Z" transform="translate(-186.688 -97.392)"/><path class="c" d="M356.105,136.85a2.8,2.8,0,1,1-2.8-2.8A2.8,2.8,0,0,1,356.105,136.85Z" transform="translate(-161.025 -97.392)"/><path class="c" d="M367.963,136.85a2.8,2.8,0,1,1-2.8-2.8A2.8,2.8,0,0,1,367.963,136.85Z" transform="translate(-135.364 -97.392)"/><path class="c" d="M379.824,136.85a2.8,2.8,0,1,1-2.8-2.8A2.8,2.8,0,0,1,379.824,136.85Z" transform="translate(-109.703 -97.392)"/><circle class="c" cx="2.8" cy="2.8" r="2.8" transform="translate(151.959 73.317)"/><circle class="c" cx="2.8" cy="2.8" r="2.8" transform="translate(189.479 73.317)"/><path class="c" d="M367.963,148.436a2.8,2.8,0,1,1-2.8-2.8A2.8,2.8,0,0,1,367.963,148.436Z" transform="translate(-135.364 -72.319)"/><path class="c" d="M379.824,148.436a2.8,2.8,0,1,1-2.8-2.8A2.8,2.8,0,0,1,379.824,148.436Z" transform="translate(-109.703 -72.319)"/><circle class="c" cx="2.8" cy="2.8" r="2.8" transform="translate(151.959 110.986)"/><circle class="c" cx="2.8" cy="2.8" r="2.8" transform="translate(189.479 110.986)"/><path class="c" d="M367.963,160.342a2.8,2.8,0,1,1-2.8-2.8A2.8,2.8,0,0,1,367.963,160.342Z" transform="translate(-135.364 -46.555)"/><path class="c" d="M379.824,160.342a2.8,2.8,0,1,1-2.8-2.8A2.8,2.8,0,0,1,379.824,160.342Z" transform="translate(-109.703 -46.555)"/><circle class="c" cx="2.8" cy="2.8" r="2.8" transform="translate(151.959 147.643)"/><circle class="c" cx="2.8" cy="2.8" r="2.8" transform="translate(189.479 147.643)"/><path class="c" d="M367.963,171.927a2.8,2.8,0,1,1-2.8-2.8A2.8,2.8,0,0,1,367.963,171.927Z" transform="translate(-135.364 -21.485)"/><path class="c" d="M379.824,171.927a2.8,2.8,0,1,1-2.8-2.8A2.8,2.8,0,0,1,379.824,171.927Z" transform="translate(-109.703 -21.485)"/><circle class="c" cx="2.8" cy="2.8" r="2.8" transform="translate(151.959 184.301)"/><circle class="c" cx="2.8" cy="2.8" r="2.8" transform="translate(189.479 184.301)"/><path class="c" d="M367.963,183.513a2.8,2.8,0,1,1-2.8-2.8A2.8,2.8,0,0,1,367.963,183.513Z" transform="translate(-135.364 3.588)"/><path class="c" d="M379.824,183.513a2.8,2.8,0,1,1-2.8-2.8A2.8,2.8,0,0,1,379.824,183.513Z" transform="translate(-109.703 3.588)"/><path class="c" d="M392.274,125.267a2.8,2.8,0,1,1-2.8-2.8A2.8,2.8,0,0,1,392.274,125.267Z" transform="translate(-82.755 -122.464)"/><path class="c" d="M404.132,125.267a2.8,2.8,0,1,1-2.8-2.8A2.8,2.8,0,0,1,404.132,125.267Z" transform="translate(-57.094 -122.464)"/><circle class="c" cx="2.8" cy="2.8" r="2.8" transform="translate(378.958 0.001)"/><path class="c" d="M392.274,136.85a2.8,2.8,0,1,1-2.8-2.8A2.8,2.8,0,0,1,392.274,136.85Z" transform="translate(-82.755 -97.392)"/><path class="c" d="M404.132,136.85a2.8,2.8,0,1,1-2.8-2.8A2.8,2.8,0,0,1,404.132,136.85Z" transform="translate(-57.094 -97.392)"/><path class="c" d="M415.994,136.85a2.8,2.8,0,1,1-2.8-2.8A2.8,2.8,0,0,1,415.994,136.85Z" transform="translate(-31.433 -97.392)"/><path class="c" d="M392.274,148.436a2.8,2.8,0,1,1-2.8-2.8A2.8,2.8,0,0,1,392.274,148.436Z" transform="translate(-82.755 -72.319)"/><path class="c" d="M404.132,148.436a2.8,2.8,0,1,1-2.8-2.8A2.8,2.8,0,0,1,404.132,148.436Z" transform="translate(-57.094 -72.319)"/><circle class="c" cx="2.8" cy="2.8" r="2.8" transform="translate(378.958 73.317)"/><path class="c" d="M392.274,160.342a2.8,2.8,0,1,1-2.8-2.8A2.8,2.8,0,0,1,392.274,160.342Z" transform="translate(-82.755 -46.555)"/><path class="c" d="M404.132,160.342a2.8,2.8,0,1,1-2.8-2.8A2.8,2.8,0,0,1,404.132,160.342Z" transform="translate(-57.094 -46.555)"/><circle class="c" cx="2.8" cy="2.8" r="2.8" transform="translate(378.958 110.986)"/><path class="c" d="M392.274,171.927a2.8,2.8,0,1,1-2.8-2.8A2.8,2.8,0,0,1,392.274,171.927Z" transform="translate(-82.755 -21.485)"/><path class="c" d="M404.132,171.927a2.8,2.8,0,1,1-2.8-2.8A2.8,2.8,0,0,1,404.132,171.927Z" transform="translate(-57.094 -21.485)"/><circle class="c" cx="2.8" cy="2.8" r="2.8" transform="translate(378.958 147.643)"/><path class="c" d="M392.274,183.513a2.8,2.8,0,1,1-2.8-2.8A2.8,2.8,0,0,1,392.274,183.513Z" transform="translate(-82.755 3.588)"/><path class="c" d="M404.132,183.513a2.8,2.8,0,1,1-2.8-2.8A2.8,2.8,0,0,1,404.132,183.513Z" transform="translate(-57.094 3.588)"/><circle class="c" cx="2.8" cy="2.8" r="2.8" transform="translate(378.958 184.301)"/></g><path class="d" d="M494.773,511.318a2.908,2.908,0,1,1,5.816,0V524.4a2.908,2.908,0,1,1-5.816,0V511.318ZM474.94,521.943a2.91,2.91,0,1,1,4.113-4.117l9.254,9.254a2.909,2.909,0,0,1-4.113,4.116l-9.254-9.253Zm-6.51,21.539a2.911,2.911,0,1,1,0-5.823h13.086a2.912,2.912,0,0,1,0,5.823Zm10.623,19.832a2.909,2.909,0,1,1-4.113-4.116l9.254-9.254a2.909,2.909,0,0,1,4.113,4.114l-9.254,9.256Zm21.536,6.508a2.908,2.908,0,0,1-5.816,0V556.731a2.908,2.908,0,1,1,5.816,0v13.091ZM520.422,559.2a2.91,2.91,0,1,1-4.116,4.116l-9.255-9.256a2.91,2.91,0,0,1,4.116-4.114l9.255,9.254Zm6.51-21.539a2.911,2.911,0,0,1,0,5.823H513.844a2.911,2.911,0,0,1,0-5.823Zm-10.626-19.833a2.911,2.911,0,0,1,4.116,4.117l-9.255,9.253a2.91,2.91,0,0,1-4.116-4.116Z" transform="translate(-268.61 -456.405)"/></g></g></g></svg>