<svg xmlns="http://www.w3.org/2000/svg" width="143.177" height="143.177" viewBox="0 0 143.177 143.177"><defs><style>.a{fill:#ff994d;}.b{fill:#ff6e4a;}.c{fill:#f3efef;}.d{fill:#2383c3;}.e{fill:#24669a;}.f{fill:#ffeb3a;}.g{fill:#dadada;}.h{fill:#fdd834;}</style></defs><path class="a" d="M98.737,23.246,84.6,13.149A15.45,15.45,0,0,0,69.341,0H15.427A15.444,15.444,0,0,0,0,15.426V69.343A15.444,15.444,0,0,0,15.427,84.769H62.6a4.2,4.2,0,0,0,2.967-7.161L77.607,65.57A4.194,4.194,0,0,0,84.768,62.6V40.05l13.969-9.978a4.194,4.194,0,0,0,0-6.826Z"/><path class="b" d="M208.69,23.246l-14.137-10.1A15.45,15.45,0,0,0,179.295,0H152.637V84.769h19.919a4.2,4.2,0,0,0,2.967-7.161L187.56,65.57a4.194,4.194,0,0,0,7.161-2.966V40.05l13.969-9.978a4.194,4.194,0,0,0,0-6.826Z" transform="translate(-109.953 0)"/><path class="c" d="M125.158,120.74a17.786,17.786,0,0,1-9.176-2.536A22.562,22.562,0,0,0,121.9,105.2h3.261a2.365,2.365,0,0,0,0-4.731H114.635V94.721a2.365,2.365,0,1,0-4.731,0v5.744H99.382a2.365,2.365,0,0,0,0,4.731h3.261a22.553,22.553,0,0,0,5.914,13.008,17.8,17.8,0,0,1-9.174,2.536,2.365,2.365,0,1,0,0,4.731,22.509,22.509,0,0,0,12.887-4.042,22.5,22.5,0,0,0,12.888,4.042,2.365,2.365,0,1,0,0-4.731ZM117.13,105.2a17.853,17.853,0,0,1-4.861,10.051,17.859,17.859,0,0,1-4.86-10.051Z" transform="translate(-69.886 -66.529)"/><path class="d" d="M237.7,208.867H183.789a15.443,15.443,0,0,0-15.426,15.426v29.293l-13.969,9.978a4.194,4.194,0,0,0,0,6.826l14.137,10.1a15.45,15.45,0,0,0,15.258,13.149H237.7a15.444,15.444,0,0,0,15.426-15.427V224.293A15.443,15.443,0,0,0,237.7,208.867Z" transform="translate(-109.953 -150.459)"/><path class="e" d="M387.392,208.867H360.434v84.769h26.958a15.444,15.444,0,0,0,15.426-15.427V224.293A15.443,15.443,0,0,0,387.392,208.867Z" transform="translate(-259.641 -150.459)"/><path class="f" d="M315.684,331.913a2.626,2.626,0,0,1,.091-.45l8.672-28.261c.4-1.348,2.065-1.978,3.728-1.978,1.708,0,3.371.63,3.775,1.978l8.671,28.261a1.986,1.986,0,0,1,.091.45c0,1.391-2.112,2.425-3.685,2.425-.989,0-1.752-.313-1.977-1.168l-1.707-5.976h-10.29l-1.707,5.976c-.224.854-.988,1.168-1.976,1.168C317.8,334.338,315.684,333.349,315.684,331.913Zm16.4-9.3-3.911-13.793-3.909,13.793Z" transform="translate(-227.405 -216.988)"/><g transform="translate(42.684 25.848)"><path class="g" d="M165.225,105.253a2.365,2.365,0,0,0,0-4.731H154.7V94.778a2.364,2.364,0,0,0-2.065-2.344v12.819h4.56a17.847,17.847,0,0,1-4.56,9.728v6.706a22.5,22.5,0,0,0,12.588,3.842,2.365,2.365,0,0,0,0-4.731,17.8,17.8,0,0,1-9.176-2.536,22.562,22.562,0,0,0,5.915-13.008Z" transform="translate(-152.637 -92.434)"/><path class="h" d="M372.857,331.465,364.186,303.2c-.4-1.343-2.053-1.973-3.752-1.977V308.9l3.886,13.713h-3.886V327.2h5.145l1.707,5.976c.225.854.989,1.168,1.977,1.168,1.573,0,3.685-1.032,3.685-2.425A1.941,1.941,0,0,0,372.857,331.465Z" transform="translate(-302.325 -242.84)"/></g></svg>