<svg xmlns="http://www.w3.org/2000/svg" width="142.678" height="142.678" viewBox="0 0 142.678 142.678"><defs><style>.a{fill:#dadada;}.b{fill:#2383c3;}.c{fill:#24669a;}.d{fill:#ffd8aa;}.e{fill:#ff994d;}.f{fill:#ffeb3a;}.g{fill:#ff6e4a;}.h{fill:#fdd834;}.i{fill:#f3efef;}</style></defs><path class="a" d="M230.653,81.63h18.113a4.18,4.18,0,0,0,0-8.36H230.653V43.36h18.113a4.18,4.18,0,0,0,0-8.36H226.473a4.18,4.18,0,0,0-4.18,4.18V92.405H204.18a4.18,4.18,0,0,0,0,8.36h18.113v53.225a4.18,4.18,0,0,0,4.18,4.18h22.293a4.18,4.18,0,0,0,0-8.36H230.653V119.9h18.113a4.18,4.18,0,0,0,0-8.36H230.653Z" transform="translate(-144.267 -25.247)"/><g transform="translate(0 30.653)"><path class="b" d="M43.193,222.024H36.227l-4.18-2.787-4.18,2.787H20.9a9.764,9.764,0,0,1-9.753-9.753V168.52H9.753A9.764,9.764,0,0,1,0,158.767V136.473A26.5,26.5,0,0,1,26.473,110H37.62a26.5,26.5,0,0,1,26.473,26.473v22.293a9.764,9.764,0,0,1-9.753,9.753H52.947v43.751A9.764,9.764,0,0,1,43.193,222.024Z" transform="translate(0 -110)"/></g><path class="c" d="M120.573,110H115V219.238l4.18,2.787h6.967a9.764,9.764,0,0,0,9.753-9.753V168.52h1.393a9.764,9.764,0,0,0,9.753-9.753V136.473A26.5,26.5,0,0,0,120.573,110Z" transform="translate(-82.953 -79.347)"/><g transform="translate(13.933)"><path class="d" d="M68.113,36.227A18.113,18.113,0,1,1,86.227,18.113,18.134,18.134,0,0,1,68.113,36.227Z" transform="translate(-50)"/></g><path class="c" d="M104.18,320a4.18,4.18,0,0,0-4.18,4.18V373.5h8.36V324.18A4.18,4.18,0,0,0,104.18,320Z" transform="translate(-72.133 -230.826)"/><path class="b" d="M119.18,373.5V324.18A4.18,4.18,0,0,0,115,320v53.5Z" transform="translate(-82.953 -230.826)"/><g transform="translate(100.32)"><path class="e" d="M398.177,27.867h-34a4.18,4.18,0,0,1-4.18-4.18V4.18A4.18,4.18,0,0,1,364.18,0h34a4.18,4.18,0,0,1,4.18,4.18V23.687A4.18,4.18,0,0,1,398.177,27.867Z" transform="translate(-360)"/></g><g transform="translate(100.32 38.27)"><path class="f" d="M398.177,165.2h-34a4.18,4.18,0,0,1-4.18-4.18V141.513a4.18,4.18,0,0,1,4.18-4.18h34a4.18,4.18,0,0,1,4.18,4.18V161.02A4.18,4.18,0,0,1,398.177,165.2Z" transform="translate(-360 -137.333)"/></g><g transform="translate(100.32 76.541)"><path class="g" d="M398.177,302.534h-34a4.18,4.18,0,0,1-4.18-4.18V278.847a4.18,4.18,0,0,1,4.18-4.18h34a4.18,4.18,0,0,1,4.18,4.18v19.507A4.18,4.18,0,0,1,398.177,302.534Z" transform="translate(-360 -274.667)"/></g><g transform="translate(100.32 114.811)"><path class="h" d="M398.177,439.867h-34a4.18,4.18,0,0,1-4.18-4.18V416.18a4.18,4.18,0,0,1,4.18-4.18h34a4.18,4.18,0,0,1,4.18,4.18v19.507A4.18,4.18,0,0,1,398.177,439.867Z" transform="translate(-360 -412)"/></g><g transform="translate(121.499)"><path class="g" d="M453,27.867H436V0h17a4.18,4.18,0,0,1,4.18,4.18V23.687A4.18,4.18,0,0,1,453,27.867Z" transform="translate(-436)"/></g><g transform="translate(121.499 38.27)"><path class="h" d="M453,165.2H436V137.333h17a4.18,4.18,0,0,1,4.18,4.18V161.02A4.18,4.18,0,0,1,453,165.2Z" transform="translate(-436 -137.333)"/></g><g transform="translate(121.499 76.541)"><path class="e" d="M453,302.534H436V274.667h17a4.18,4.18,0,0,1,4.18,4.18v19.507A4.18,4.18,0,0,1,453,302.534Z" transform="translate(-436 -274.667)"/></g><g transform="translate(121.499 114.811)"><path class="f" d="M453,439.867H436V412h17a4.18,4.18,0,0,1,4.18,4.18v19.507A4.18,4.18,0,0,1,453,439.867Z" transform="translate(-436 -412)"/></g><g transform="translate(13.933)"><path class="i" d="M68.113,36.227A18.113,18.113,0,1,1,86.227,18.113,18.134,18.134,0,0,1,68.113,36.227Z" transform="translate(-50)"/><path class="a" d="M115,0V36.227A18.113,18.113,0,0,0,115,0Z" transform="translate(-96.887)"/></g></svg>