<svg xmlns="http://www.w3.org/2000/svg" width="108.556" height="143" viewBox="0 0 108.556 143"><defs><style>.a{fill:#2383c3;}.b{fill:#24669a;}.c{fill:#dadada;}.d{fill:#ffeb3a;}.e{fill:#ff994d;}.f{fill:#ff6e4a;}.g{fill:#fdd834;}</style></defs><g transform="translate(-61.663)"><path class="a" d="M170.218,33.071v96.688A13.255,13.255,0,0,1,156.979,143H74.9a13.253,13.253,0,0,1-13.239-13.242V13.239A13.253,13.253,0,0,1,74.9,0h62.223a13.143,13.143,0,0,1,9.357,3.873L166.334,23.7A13.15,13.15,0,0,1,170.218,33.071Z" transform="translate(0)"/><path class="b" d="M310.274,33.071v96.688A13.255,13.255,0,0,1,297.035,143H256V0h21.186a13.143,13.143,0,0,1,9.357,3.873L306.39,23.7A13.15,13.15,0,0,1,310.274,33.071Z" transform="translate(-140.056)"/><path class="c" d="M363.805,33.071V33.6H334.46a4.187,4.187,0,0,1-4.189-4.189V0h.441a13.143,13.143,0,0,1,9.357,3.873L359.921,23.7A13.151,13.151,0,0,1,363.805,33.071Z" transform="translate(-193.587)"/><g transform="translate(82.344 94.128)"><path class="d" d="M135.709,362.287a2.041,2.041,0,0,1,.075-.413l6.983-22.9a2.419,2.419,0,0,1,1.37-1.445,6.218,6.218,0,0,1,4.918,0,2.421,2.421,0,0,1,1.37,1.445l7.021,22.9a2.084,2.084,0,0,1,.075.413,2.019,2.019,0,0,1-1.22,1.689,4.952,4.952,0,0,1-2.534.714q-1.615,0-1.915-1.089l-1.276-4.693h-7.922l-1.276,4.693q-.3,1.089-1.915,1.089a4.947,4.947,0,0,1-2.534-.714A2.018,2.018,0,0,1,135.709,362.287Zm8.147-7.885h5.481L146.6,344.34Z" transform="translate(-135.709 -337.019)"/><path class="d" d="M232.07,382.21a1.591,1.591,0,0,0-1.257-.676h-3.6v-3.778a1.7,1.7,0,0,0-.676-1.321,2.529,2.529,0,0,0-1.689-.57,2.623,2.623,0,0,0-1.689.57,1.668,1.668,0,0,0-.712,1.321v3.778H218.8a1.525,1.525,0,0,0-1.276.656,2.644,2.644,0,0,0-.489,1.614,2.543,2.543,0,0,0,.489,1.614,1.545,1.545,0,0,0,1.276.623h3.644v3.817a1.585,1.585,0,0,0,.693,1.34,2.806,2.806,0,0,0,1.709.511,2.705,2.705,0,0,0,1.709-.511,1.623,1.623,0,0,0,.656-1.34v-3.817h3.6a1.613,1.613,0,0,0,1.257-.64,2.373,2.373,0,0,0,.545-1.6A2.461,2.461,0,0,0,232.07,382.21Z" transform="translate(-194.319 -365.016)"/></g><g transform="translate(78.97 43.886)"><path class="e" d="M182.724,268.357a4.188,4.188,0,0,1-4.189,4.189H127.82a4.189,4.189,0,1,1,0-8.377h50.716A4.19,4.19,0,0,1,182.724,268.357Z" transform="translate(-123.631 -234.272)"/><path class="e" d="M197.572,215.2a4.19,4.19,0,0,1-4.189,4.189H127.82a4.189,4.189,0,1,1,0-8.377h65.563A4.188,4.188,0,0,1,197.572,215.2Z" transform="translate(-123.631 -195.961)"/><path class="e" d="M164.088,161.318a4.193,4.193,0,0,1-3.488,4.13,4.119,4.119,0,0,1-.7.059H127.82a4.189,4.189,0,1,1,0-8.377H159.9a4.119,4.119,0,0,1,.7.059A4.193,4.193,0,0,1,164.088,161.318Z" transform="translate(-123.631 -157.129)"/></g><g transform="translate(115.939 43.944)"><path class="f" d="M256,165.6v-8.26a4.189,4.189,0,0,1,0,8.26Z" transform="translate(-255.995 -157.339)"/><path class="f" d="M278.12,268.357a4.188,4.188,0,0,1-4.189,4.189H256v-8.377h17.936A4.19,4.19,0,0,1,278.12,268.357Z" transform="translate(-255.996 -234.331)"/><path class="f" d="M292.967,215.2a4.19,4.19,0,0,1-4.189,4.189H256v-8.377h32.783A4.188,4.188,0,0,1,292.967,215.2Z" transform="translate(-255.995 -196.019)"/></g><path class="g" d="M260.695,398.433a2.373,2.373,0,0,1-.545,1.6,1.613,1.613,0,0,1-1.257.64H256v-4.507h2.9a1.591,1.591,0,0,1,1.257.676A2.458,2.458,0,0,1,260.695,398.433Z" transform="translate(-140.056 -285.516)"/></g></svg>