<svg xmlns="http://www.w3.org/2000/svg" width="668.843" height="604.333" viewBox="0 0 668.843 604.333"><defs><style>.a{fill:#fff;}.b{fill:#ff994d;opacity:0.41;}.c{fill:#ff6e4a;}.d,.f{opacity:0.1;}.d,.e,.f,.h,.o{mix-blend-mode:multiply;isolation:isolate;}.e,.f,.j{fill:#222221;}.g,.h,.o{fill:#333;}.h{opacity:0.3;}.i{fill:#455a64;}.k{fill:#24669a;}.l{fill:#263238;}.m{fill:#2383c3;}.n{fill:#f1d1c5;}.o{opacity:0.2;}.p{fill:#d3766a;}.q{fill:#a6a6a6;}.r{fill:#ff9abb;}</style></defs><g transform="translate(20.07 -102.008)"><g transform="translate(-20.07 186.757)"><path class="a" d="M188.258,553.837l-7.488,84.882H381.917s-22.461-169.7-22.461-171.2,40.928-53.405,31.944-163.712c-11.182-137.3-107.311-184.674-204.141-184.674S22.549,208.58,13.066,272.417L-22.372,416.111,24.047,422.6S26.042,519.929,51,544.885,188.258,553.837,188.258,553.837Z" transform="translate(22.372 -119.135)"/><path class="b" d="M188.258,553.837l-7.488,84.882H381.917s-22.461-169.7-22.461-171.2,40.928-53.405,31.944-163.712c-11.182-137.3-107.311-184.674-204.141-184.674S22.549,208.58,13.066,272.417L-22.372,416.111,24.047,422.6S26.042,519.929,51,544.885,188.258,553.837,188.258,553.837Z" transform="translate(22.372 -119.135)"/><g transform="translate(57.173 5.949)"><path class="c" d="M339.711,298.862C336,315.909,313.4,324.211,313.4,324.211c-1.388,3.075,6.316,63.17,8.462,66.616s-10.563,12.286-12.249,10.316-16.531-41.087-47.447-48.132l-.008.015c-.392.509-13.091,16.77-37.545,17.367-24.848.61-42.948-17.17-42.948-17.17s-17.527,25.864-54.281,19.184-44.561-35.678-44.561-35.678S35.35,351.086,17.1,312.252c-13.958-29.7,1.359-51.344,9.26-59.82a42.474,42.474,0,0,1,4.1-3.926l.008-.007.007-.007s-3.917-36.028,18.347-54.906,51.657-16.618,51.657-16.618S112.3,140.5,146.346,133.4s54.644,12.628,54.644,12.628,28.867-15.084,64.21-.35,34.26,49.839,34.26,49.839,25.7,8.433,34.218,29.433-5.409,42.032-5.409,42.032S343.425,281.824,339.711,298.862Z" transform="translate(-11.445 -116.29)"/><g class="d" transform="translate(0 132.21)"><path class="e" d="M262.169,305.364l-.008.015c-.392.509-13.091,16.77-37.545,17.367-24.848.61-42.948-17.171-42.948-17.171s-17.527,25.864-54.281,19.184-44.561-35.678-44.561-35.678S35.35,303.438,17.1,264.605c-13.958-29.7,1.359-51.344,9.26-59.82l4.1-3.926.008-.007c-.218.6-13.216,36.826,9.85,59.5,23.262,22.855,56.345,7.894,56.345,7.894s4.266,35.834,32.828,44.039c31.739,9.116,52.325-15.018,52.325-15.018S218.93,337.7,262.169,305.364Z" transform="translate(-11.445 -200.853)"/></g><path class="f" d="M207.19,314.137c-1.687-1.978-16.531-41.087-47.447-48.132,0,0,25.3-14.886,37.044-4.463S207.19,314.137,207.19,314.137Z" transform="translate(90.982 -29.284)"/><g transform="translate(171.452)"><g transform="translate(22.357)"><g transform="translate(64.168)"><path class="g" d="M170.5,124.776c1.817-1.016,4.771-2.467,6.911-2.049,1.659.323,2.078,2.181,1.474,3.561-.889,2.042-3.26,3.911-5.187,4.932a10.624,10.624,0,0,1-3.606,1.041,10.549,10.549,0,0,1-4.23.671c-.091.024-.183.041-.272.066a.314.314,0,0,1-.419-.223c-.081-.029-.172-.041-.249-.074C161.453,131.126,169.178,125.513,170.5,124.776Z" transform="translate(-164.033 -122.653)"/><path class="h" d="M170.5,124.776c1.817-1.016,4.771-2.467,6.911-2.049,1.659.323,2.078,2.181,1.474,3.561-.889,2.042-3.26,3.911-5.187,4.932a10.624,10.624,0,0,1-3.606,1.041,10.549,10.549,0,0,1-4.23.671c-.091.024-.183.041-.272.066a.314.314,0,0,1-.419-.223c-.081-.029-.172-.041-.249-.074C161.453,131.126,169.178,125.513,170.5,124.776Z" transform="translate(-164.033 -122.653)"/></g><g transform="translate(32.256 3.893)"><path class="g" d="M146.491,130.228c-.842,2.265-2.2,6.174-.563,8.431a.832.832,0,0,0,.881.367,4.178,4.178,0,0,0,2.353-1.807,20.471,20.471,0,0,0,4.693-7.432c.712-1.939-.32-4.852-2.8-4.83C148.52,124.976,147.2,128.31,146.491,130.228Z" transform="translate(-145.157 -124.956)"/><path class="h" d="M146.491,130.228c-.842,2.265-2.2,6.174-.563,8.431a.832.832,0,0,0,.881.367,4.178,4.178,0,0,0,2.353-1.807,20.471,20.471,0,0,0,4.693-7.432c.712-1.939-.32-4.852-2.8-4.83C148.52,124.976,147.2,128.31,146.491,130.228Z" transform="translate(-145.157 -124.956)"/></g><g transform="translate(13.608 16.031)"><path class="g" d="M135.351,144.059c.6,1.892,2.653,4.193,3.926,1.341a.574.574,0,0,0,.014-.482c1.731-3.366,3.327-7.025,1.691-10.812-1.072-2.463-3.67-2.558-5.415-.617C133.083,136.231,134.362,140.952,135.351,144.059Z" transform="translate(-134.128 -132.135)"/><path class="h" d="M135.351,144.059c.6,1.892,2.653,4.193,3.926,1.341a.574.574,0,0,0,.014-.482c1.731-3.366,3.327-7.025,1.691-10.812-1.072-2.463-3.67-2.558-5.415-.617C133.083,136.231,134.362,140.952,135.351,144.059Z" transform="translate(-134.128 -132.135)"/></g><path class="i" d="M193.015,130.763c-2.918,2.073-8.783,3.3-10.687,3.654-.722.492-12.638,6.387-17.013,10.012a61.825,61.825,0,0,0-7.985,8.061,83.55,83.55,0,0,1,15.892-7.939c5.1-1.889,10.979-2.671,16.122-.445,0,.184-6.663,3.118-9.519,4.607-2.626,1.381-5.069,3.163-7.8,4.315-4.867,2.088-10.9,2.287-16.077,1.5a.4.4,0,0,1-.184-.093,54.4,54.4,0,0,0-8.2,14.572c-4.837,13.6-4.56,27.271-2.656,40.093-.154-.23-.338-.446-.522-.676a24.132,24.132,0,0,0-1.75-2,99.3,99.3,0,0,1-.954-12.024.843.843,0,0,0-.046-.184c-4.514-2.626-8.245-5.911-10.442-10.778-2.457-5.452-5.236-17.46-5.113-17.382a28.1,28.1,0,0,1,12.345,13.681,61.785,61.785,0,0,1,3.317,10.149c.076-1.9.2-3.807.414-5.7a125.579,125.579,0,0,1-.308-20.224,77.242,77.242,0,0,1,1.121-8.814c-.445-1.78-1.52-3.762-1.566-5.665a3.991,3.991,0,0,1,.384-1.966,2.858,2.858,0,0,1,3.5-1.75.61.61,0,0,1,.429.568,8.617,8.617,0,0,1,.03,1.09c-.076,2.472-1.212,5.236-1.689,7.569a80.619,80.619,0,0,0-1.336,11.671c-.169,4.146,0,8.261.215,12.376a61.845,61.845,0,0,1,2.58-9.2,62.219,62.219,0,0,1,5.589-17.152,98.391,98.391,0,0,1,5.6-9.612,34.208,34.208,0,0,1,1.7-6.849c.614-1.49,1.474-2.6,2.641-2.534,1.843.093,1.889,1.368,1.275,2.9l-.015.015a29.041,29.041,0,0,1-3.471,5.39c-3.469,5.206-6.895,10.7-9.136,16.569a51.686,51.686,0,0,0-1.657,5.373,59.693,59.693,0,0,1,18.056-21.512c5.037-3.731,10.7-6.327,16.261-9.121,2.519-1.858,4.883-3.838,7.356-5.865.768-.629,1.811-1.566,2.81-1.628a1.675,1.675,0,0,1,1.489.722C195.35,128.213,194.628,129.61,193.015,130.763Z" transform="translate(-126.079 -120.462)"/></g><g class="d" transform="translate(0 77.041)"><path class="j" d="M112.855,171.764a40.175,40.175,0,0,1,14.092-3.442,38.032,38.032,0,0,1,7.385.208,35.915,35.915,0,0,1,7.26,1.772,29.138,29.138,0,0,1,6.582,3.677,31.065,31.065,0,0,1,5.351,5.168,35.066,35.066,0,0,1,6.766,12.847,57.815,57.815,0,0,0-8.543-11.241,32.429,32.429,0,0,0-11.245-7.581,42.075,42.075,0,0,0-13.512-2.463A73.4,73.4,0,0,0,112.855,171.764Z" transform="translate(-112.855 -168.222)"/><path class="j" d="M171.728,182.1a41.492,41.492,0,0,0-8-3.566,32.694,32.694,0,0,0-8.3-1.564,16.767,16.767,0,0,0-2.1-.047,14.19,14.19,0,0,0-2.11.061l-2.12.152c-.7.139-1.4.25-2.112.353l-1.068.159-1.05.262-2.134.494c-1.425.357-2.81.869-4.32,1.2a33.707,33.707,0,0,1,3.755-2.6,25.6,25.6,0,0,1,4.225-1.839c.734-.242,1.478-.475,2.228-.68l2.308-.4a13.355,13.355,0,0,1,2.338-.2,18.532,18.532,0,0,1,2.353.015,22.926,22.926,0,0,1,9.013,2.421A19.238,19.238,0,0,1,171.728,182.1Z" transform="translate(-95.203 -164.327)"/></g></g><g transform="translate(220.957 40.165)"><g transform="translate(32.672)"><g transform="translate(14.773)"><g transform="translate(10.206 13.07)"><path class="k" d="M211.81,189.015a125.941,125.941,0,0,1-15.248,7.412c-2.142.867-4.977,2.382-7.7,2.991a7.293,7.293,0,0,1-4.425-.167,3.267,3.267,0,0,1-2.027-1.239.944.944,0,0,1-.211-.477c-2.215-2.007-2.883-5.211-3.562-8.188a88.031,88.031,0,0,1-2.281-18.084c-.046-2.222-.455-5.124.563-7.207.632-1.265,1.4-1.39,2.391-2.1,2.321-1.67,2.4-3.86,4.09-5.958.872-1.062,2.135-2.107,3.626-1.8,3.556.7,3.18,7.613,3.381,10.129a92.922,92.922,0,0,1,.01,15.686A79,79,0,0,1,188.266,194a89.678,89.678,0,0,1,17.147-19.169c2.367-2.009,6.152-5.309,9.564-4.108,1.381.485,1.226,1.538,2.125,2.281,1.905,1.566,3.958-.044,5.944.95C230.446,177.658,214.375,187.559,211.81,189.015Z" transform="translate(-176.235 -154.141)"/></g><g transform="translate(13.201)"><path class="l" d="M201.077,167.824c-5.305,10.716-11.257,21.083-16.386,31.89-.13.259-.588.061-.477-.21,3.992-9.9,9.377-19.123,14.246-28.594a62.98,62.98,0,0,0,5.841-14.731c.808-3.495,1.016-6.739,3.452-9.439a.873.873,0,0,1,1.5.223c1.43,3.454-2.609,8.3-4.752,11.519A48.531,48.531,0,0,1,201.077,167.824Z" transform="translate(-173.732 -146.41)"/><path class="l" d="M184.337,164.747c-3.838,9.84-4.7,20.545-5.951,30.929a.189.189,0,1,1-.379-.008c.1-13.828,3.425-29.195,10.692-41.077.636-1.053,4.9-7.581,6.621-5.412.918,1.167-1.1,3.043-1.762,3.711-2.13,2.221-4.749,3.768-6.67,6.223a.184.184,0,0,1-.081.035C185.848,161.054,185.032,162.984,184.337,164.747Z" transform="translate(-178.007 -144.801)"/><path class="l" d="M215.778,163.227c-.764,4.663-3.052,9.2-5.518,13.169-5.417,8.633-13.155,15.507-21.353,21.414-.191.139-.426-.193-.25-.328,7.828-6.294,15.549-12.878,20.946-21.475a45.759,45.759,0,0,0,3.643-7.015c.078-.171.162-.374.245-.577a.13.13,0,0,1-.051-.137,38.922,38.922,0,0,0,.14-8.68,5.147,5.147,0,0,1,.551-3.611.268.268,0,0,1,.272-.115C216.855,156.495,216.062,161.511,215.778,163.227Z" transform="translate(-170.694 -139.878)"/></g><g transform="translate(0 15.869)"><path class="m" d="M223.6,196.189c-10.415,5.784-22.877,7.7-33.885,12.176-2.509,1.013-4.976,2.152-7.422,3.331a22.752,22.752,0,0,1-2.309,1.107,2.968,2.968,0,0,1-1.566.152,1.918,1.918,0,0,1-.624-.216,2.545,2.545,0,0,1-1.248-1.97,15.866,15.866,0,0,1,.21-5.021c-.152-1.787-.456-3.589-.629-5.18-.245-2.32-.546-4.629-.908-6.942-.783-4.91-2.017-9.7-3.244-14.52a42.271,42.271,0,0,1-1.743-12.482c.1-2.24.4-6.43,2.4-7.907,1.792-1.315,3.079-.113,3.785,1.547.68,1.593.649,3.358,1.178,4.95.815,2.414,2.249,2.646,3.836,4.159,2.127,2.046,2.582,5.114,2.446,7.914-.122,2.274-.391,4.565-.69,6.846.673-2.058,1.442-4.076,2.218-6.066,1.4-3.562,2.8-8,5.454-10.864a8.183,8.183,0,0,1,3.094-2.174c2.744-1.106,4.665-1.7,6.71-3.978,1.841-2.027,4.2-5.693,7.429-5.211,3.246.492,2.888,3.74,3.092,6.157.385,4.5,4.066,6.93,3.236,11.823-.673,3.982-3.466,7.422-5.936,10.47a67.16,67.16,0,0,1-6.23,6.8,38.584,38.584,0,0,1,9.556-4.134,8.629,8.629,0,0,1,4.517-.435c2.174.575,2.3,1.965,5.075,1.659,2.054-.237,6.577-1.76,7.688,1.162C230.222,192.394,225.645,195.046,223.6,196.189Z" transform="translate(-170.199 -155.796)"/></g><path class="n" d="M173.436,169.465a.063.063,0,0,0,.024.123A.063.063,0,0,0,173.436,169.465Z" transform="translate(-167.996 -130.488)"/><g transform="translate(4.554 27.664)"><path class="a" d="M212.484,189c-10.274,6.56-28.131,5.305-35.033,16.462l-.024.541a2.968,2.968,0,0,1-1.566.152c-1.559-3.889-.81-8.229-.651-12.389a74.551,74.551,0,0,0-1.314-18.77c-.036-.172.208-.221.272-.056a52.965,52.965,0,0,1,2.183,14.66c.118,5.015-1.256,11.135.22,16.083.041-.172.078-.358.107-.512-.034-5.7,2.3-11.436,4.629-16.5,3-6.538,6.824-12.646,10.4-18.881.142-.252.492.005.364.254-3.116,6.13-6.337,12.251-9.251,18.488a67.509,67.509,0,0,0-4.55,11.8c5.767-13.15,21.179-20.762,25.93-34.524a.262.262,0,0,1,.5.167c-4.874,14.623-20.527,22.745-26.388,36.688a15.338,15.338,0,0,1,3.248-2.965,35.39,35.39,0,0,1,8.465-6.21c5.067-2.663,10.619-3.961,15.526-6.979.186-.112.363.179.211.315-3.774,3.236-8.7,4.453-13.155,6.457a41.162,41.162,0,0,0-7.557,4.431,41.976,41.976,0,0,1,4.425-1.787c7.579-2.693,15.438-3.936,22.778-7.37A.252.252,0,0,1,212.484,189Z" transform="translate(-172.201 -160.789)"/><path class="a" d="M173.076,164.826a9.651,9.651,0,0,0,.279,4.67.114.114,0,0,0,.223-.046,20.637,20.637,0,0,1-.069-4.536C173.519,164.674,173.135,164.57,173.076,164.826Z" transform="translate(-172.892 -161.458)"/><path class="a" d="M192.5,162.947c-.189.849-.159,1.741-.323,2.605-.051.276.358.32.455.091a4.325,4.325,0,0,0,.375-2.664C192.944,162.758,192.563,162.668,192.5,162.947Z" transform="translate(-159.575 -162.773)"/><path class="a" d="M199.631,177.592a9.852,9.852,0,0,0-1.256.786.2.2,0,0,0,.115.338,2.246,2.246,0,0,0,1.454-.666C200.172,177.846,199.908,177.42,199.631,177.592Z" transform="translate(-155.335 -152.565)"/></g></g><path class="g" d="M173.259,188.572c.345,3.954,1.271,8.2-.7,12.1-.169.336.159.644.4.382,1.96-2.095,14.773-7.109,14.195-9.273-.35-1.317-3.909.325-4.406-1.511-.21-.773.458-2.333.661-3.145a32.32,32.32,0,0,0,.681-3.184c.152-.987.139-2.252-.729-2.627-1.019-.446-2.1.844-2.791,1.692-.568.7-1.075,1.466-1.6,2.21-.583.82-1.4,2.36-2.135,1.023-.648-1.173-.867-2.6-1.86-3.468C172.709,180.773,173.157,187.377,173.259,188.572Z" transform="translate(-153.829 -122.369)"/><path class="g" d="M171.519,236.428c-.489-1.148-1.043-2.277-1.65-3.388a26.657,26.657,0,0,0-1.628-2.646c.052-.725.108-1.466.176-2.189.387-4.088.911-8.164,1.618-12.205.183-1.138.4-2.271.626-3.413q.748-3.938,1.721-7.829a45.5,45.5,0,0,1,4.02-11,27.163,27.163,0,0,1,2.166-3.432c.232-.3.45-.6.7-.894s.5-.6.764-.911c.2-.24.423-.462.642-.7.039-.039.061-.066.1-.1a.292.292,0,0,1,.44.385c-.21.255-.4.514-.614.784-.13.178-.262.37-.4.563-.22.316-.428.649-.649.965-.078.157-.169.3-.243.436a29.028,29.028,0,0,0-2.367,4.974c-2.306,6.223-2.911,13.26-3.714,19.646q-.6,4.742-.989,9.481a7.388,7.388,0,0,0-.068.8Q171.706,231.084,171.519,236.428Z" transform="translate(-156.778 -117.951)"/><path class="g" d="M175.331,219.661s.468-13.71-2.147-20.658S162.3,183.09,162.3,183.09A36.767,36.767,0,0,0,175.331,219.661Z" transform="translate(-161.461 -121.076)"/><path class="g" d="M170.384,221.86s4.972-12.785,10.114-18.138,16.276-10.335,16.276-10.335A36.768,36.768,0,0,1,170.384,221.86Z" transform="translate(-155.298 -113.965)"/></g><g class="d" transform="translate(0 96.092)"><path class="j" d="M142.136,204.461a44.83,44.83,0,0,1,17.187-.712,43.72,43.72,0,0,1,16.437,5.87,37.076,37.076,0,0,1,6.911,5.532,34.9,34.9,0,0,1,5.233,7.1,35.862,35.862,0,0,1,4.587,16.589,49.4,49.4,0,0,0-6.633-15.343,37.313,37.313,0,0,0-11.711-11.265c-1.16-.722-2.369-1.373-3.577-2.017-1.258-.549-2.473-1.194-3.774-1.652a53.912,53.912,0,0,0-7.911-2.465A69.518,69.518,0,0,0,142.136,204.461Z" transform="translate(-142.136 -203.247)"/><path class="j" d="M204.984,215.648a61,61,0,0,0-9.194-1.517,37.988,37.988,0,0,0-8.974.325,36.994,36.994,0,0,0-4.345.962,34.579,34.579,0,0,0-4.162,1.65,52.015,52.015,0,0,0-7.936,4.81,22.318,22.318,0,0,1,6.761-6.9,24.316,24.316,0,0,1,4.387-2.308,25.728,25.728,0,0,1,14.634-.9A23.8,23.8,0,0,1,204.984,215.648Z" transform="translate(-122.634 -197.815)"/></g></g><g transform="translate(9.129 15.576)"><path class="k" d="M29.474,174.746c6.457,5.268,14.694,7.383,22.516,9.733,2.184.653,4.342,1.354,6.487,2.12a9.021,9.021,0,0,0,4.732.739c2.8-.58,3.072-3.092,3.114-5.53a17.859,17.859,0,0,0,.051-2.333c.008-.179.029-.357.049-.524a.333.333,0,0,0-.093-.291c-.056-.942-.149-1.868-.221-2.754-.394-5.037-.85-10.068-1.288-15.106-.352-4.053-.5-8.225-1.547-12.178-.372-1.4-.774-3.29-2.189-4.009-.791-.407-1.718-.4-2.534-.725a5.512,5.512,0,0,1-1.924-1.386c-1.381-1.449-3.853-5.853-6.431-4.445-1.317.72-1.61,2.414-1.985,3.726-.543,1.9-1.888,2.969-3.052,4.474-1.948,2.526-1.452,5.792-.389,8.578a45.678,45.678,0,0,0,5.872,10.22c2.36,3.273,4.933,6.392,7.312,9.657a64.57,64.57,0,0,1,3.689,5.572c.548.942,1.063,1.9,1.537,2.879a9.844,9.844,0,0,1,.861,2.115A104.73,104.73,0,0,0,54.735,175.2c-3.392-3.449-6.379-7.381-10.244-10.333a16.807,16.807,0,0,0-10.017-3.741,18.291,18.291,0,0,1-6.08-.73,29.676,29.676,0,0,0-5.378-1.745c-4.069-.582-2.032,4.22-1.163,6.169A27.184,27.184,0,0,0,29.474,174.746Z" transform="translate(-14.272 -127.78)"/><path class="l" d="M52.045,185.271a56.744,56.744,0,0,0-.019-16.714c-1.564-10.675-5.862-20.827-11.072-30.229a23.617,23.617,0,0,0-3.988-5.682c-.708-.691-2.3-1.432-2.247.225.042,1.544,1.486,2.967,2.568,3.9A30.594,30.594,0,0,1,41.4,140.4c.889,1.662,1.753,3.342,2.568,5.043a98.064,98.064,0,0,1,5.263,13.2c2.68,8.577,3.949,17.75,2.7,26.611C51.918,185.332,52.04,185.349,52.045,185.271Z" transform="translate(-4.5 -131.867)"/><path class="l" d="M63.216,177.908a56.734,56.734,0,0,1-16-4.845c-9.769-4.582-18.246-11.628-25.742-19.333a23.679,23.679,0,0,1-4.288-5.459c-.456-.879-.707-2.616.864-2.086,1.466.487,2.413,2.279,2.991,3.584a30.506,30.506,0,0,0,2.287,4.986c1.334,1.332,2.693,2.644,4.085,3.917a98.478,98.478,0,0,0,11.12,8.852c7.437,5.043,15.853,8.908,24.7,10.271C63.311,177.8,63.292,177.927,63.216,177.908Z" transform="translate(-16.844 -122.046)"/><path class="l" d="M30.953,148.287q4.364,5.8,9.03,11.382a278.687,278.687,0,0,0,19.73,21.051c.063.058.142-.046.081-.1-6.771-6.751-13.182-13.987-19.306-21.33q-4.57-5.488-8.879-11.2-.88-1.177-1.743-2.369c-.97-2.534-1.667-4.864-2.849-7.309-.565-1.156-1.946-3.831-3.243-2.881C22.056,136.792,28.057,144.443,30.953,148.287Z" transform="translate(-12.268 -129.473)"/><g transform="translate(5.015 11.596)"><path class="m" d="M20.433,173.737a29.042,29.042,0,0,0,6.846,7.324c5.684,4.511,12.519,7.331,19.377,9.206,6.742,1.841,13.767,2.675,20.6,1.5l.238-.039a.143.143,0,0,0,.172-.032,2.592,2.592,0,0,0,.531-.154c.022-.012.654-.118.5-.2a11.817,11.817,0,0,1,.932-1.129,29.425,29.425,0,0,0,3.28-4.414,20.322,20.322,0,0,0,1.978-6.555c.756-5.219.064-10.558.639-15.8.5-4.551,2.225-8.913,2.063-13.561-.036-1.023-.157-2.67-1.577-2.4-1.821.357-2.061,2.867-3.246,3.919-.1.26-.3.348-.622.25-.407.2-.664.076-.781-.377a3.994,3.994,0,0,1-.406-.84c-.272-.614-.5-1.248-.707-1.883-.358-1.119-.649-2.262-.95-3.393-.492-1.817-.935-4.328-2.271-5.76a1.7,1.7,0,0,0-2.942.379c-.859,1.648-.671,4.007-.693,5.826-.019,1.376-.281,3.373-2.142,2.972-.764-.164-1.454-.607-2.225-.761a2.914,2.914,0,0,0-3.256,1.91c-.8,1.917-.128,4.374.292,6.34a60.7,60.7,0,0,0,2.149,7.436c1.635,4.634,5.405,13.388,7.327,17.911,1.047,2.472-10.721-23.169-15.285-28.348a6.163,6.163,0,0,0-4.063-1.719c-.989-.074-1.905.382-2.886.365a7.519,7.519,0,0,1-2.879-.84c-2.431-1.082-6.582-2.364-7.265,1.408-.314,1.738.477,3.4.506,5.135.03,1.691-.992,3.067-1.577,4.56-1.412,3.61,1.959,6.753,4.306,9.174a70.695,70.695,0,0,0,9.5,8.083c2.1,1.51,10.129,6.785,12.333,8.114-2.8-1.427-11.432-6.785-14.159-8.36-1.782-1.035-3.542-2.1-5.275-3.233-1.577-1.021-3.084-2.228-4.737-3.123a7.728,7.728,0,0,0-4.281-.771c-1.965.034-4-.774-5.943-1.1-1.047-.172-2.993-.833-3.752.227C19.5,171.8,19.968,172.97,20.433,173.737Z" transform="translate(-19.811 -138.725)"/><g transform="translate(13.788 12.008)"><path class="a" d="M28,173.533a67.364,67.364,0,0,0,33.063,9.858.148.148,0,0,0,.139-.074c.144.007.281.017.424.024l.238-.039a.143.143,0,0,0,.172-.032,2.589,2.589,0,0,0,.531-.154c.022-.012.654-.118.5-.2A11.806,11.806,0,0,1,64,181.789c1.993-4,3.5-8.565,3.282-13.066-.149-2.932-.795-5.841-1.057-8.771a59.912,59.912,0,0,1-.179-9c0-.03-.047-.036-.047-.005a74.357,74.357,0,0,0-.2,8.746c.12,2.785.582,5.537.793,8.315.384,5.187-1.572,9.513-3.366,14.093a39.951,39.951,0,0,0,.854-12.467c-.47-5.035-1.875-10.014-3.085-14.919a.1.1,0,1,0-.191.042c.926,4.927,2.24,9.865,2.754,14.851a41.109,41.109,0,0,1-.7,12.831c-4.054-4.915-7.31-10.4-10.844-15.686a125.1,125.1,0,0,0-11.329-14.545c-.066-.073-.172.032-.11.106A135.4,135.4,0,0,1,52.08,167.86c3.168,4.979,6.218,10.049,10.115,14.492a71.063,71.063,0,0,1-11.617-9.662c-3.616-3.965-7.111-8.078-10.552-12.2-.039-.041-.091.012-.061.056,3.413,4.374,6.8,8.807,10.523,12.92A57.191,57.191,0,0,0,62.5,183.023c-11.184-.406-21.485-6.492-30.88-12.4-.061-.039-.118.058-.057.1,7.349,4.681,14.868,9.519,23.174,11.6a68.964,68.964,0,0,1-11.263-2.176,68.576,68.576,0,0,1-15.409-6.731A.068.068,0,0,0,28,173.533Z" transform="translate(-27.966 -142.304)"/><path class="a" d="M47.476,145.937c.019-.152.255-.142.237.012-.367,2.986.017,5.916-.035,8.907a.164.164,0,0,1-.325.027C46.683,151.982,47.109,148.819,47.476,145.937Z" transform="translate(-14.819 -145.828)"/><path class="a" d="M32.022,152.989a17.462,17.462,0,0,1,2.179,2c.09.112-.029.3-.159.2a17.7,17.7,0,0,1-2.152-2.076C31.8,153.028,31.932,152.912,32.022,152.989Z" transform="translate(-25.276 -140.899)"/><path class="a" d="M28.152,161.413l1.19.8c.161.106,0,.363-.147.248l-1.134-.891C27.97,161.5,28.053,161.347,28.152,161.413Z" transform="translate(-27.927 -135.075)"/></g></g><path class="g" d="M47.241,176.592c3.535,1.3,7.659,2.164,9.754,5.628a.307.307,0,0,0,.563-.223c-.585-2.71,2.9-16.871.727-17.214-1.317-.208-2.074,3.826-3.919,3.542-.774-.118-1.687-1.39-2.247-1.915a23.9,23.9,0,0,0-2.269-1.949c-.741-.549-1.811-1.055-2.649-.391-.987.779-.555,2.333-.252,3.331.249.825.587,1.618.9,2.418.34.888,1.148,2.287-.423,2.438-1.375.129-2.7-.247-4.034.333C40.35,173.911,46.176,176.2,47.241,176.592Z" transform="translate(0.889 -109.843)"/><path class="g" d="M80.768,220.522a.465.465,0,0,0-.139-.03l-2.411-.353c-.445-.03-.891-.061-1.336-.061-.631-1.6-1.32-3.163-2.058-4.714q-.6-1.268-1.244-2.534c-1.412-2.764-2.964-5.451-4.59-8.046-5.314-8.475-10.934-16.538-15.586-25.213-1.474-2.734-2.856-5.544-4.1-8.43-.091-.2-.169-.4-.26-.6-.338-.83-.691-1.674-1.014-2.534a.184.184,0,0,1,.338-.139c.262.631.538,1.244.83,1.858.076.169.152.338.23.492a.079.079,0,0,0,.03.061,4.032,4.032,0,0,0,.215.446,73.653,73.653,0,0,0,4.039,7.294c4.022,6.494,8.844,12.56,13.421,18.763.336.462.675.921,1,1.383a114.011,114.011,0,0,1,8.092,12.452A75.966,75.966,0,0,1,80.768,220.522Z" transform="translate(4.687 -107.068)"/><path class="g" d="M79.508,201.5s-10.093-9.29-17.067-11.831-19.164-2.113-19.164-2.113A36.765,36.765,0,0,0,79.508,201.5Z" transform="translate(1.413 -93.423)"/><path class="g" d="M60.054,201.73s-2.377-13.51-.754-20.755S67.858,163.7,67.858,163.7A36.769,36.769,0,0,1,60.054,201.73Z" transform="translate(12.087 -109.88)"/><g transform="translate(66.524 6.326)"><g transform="translate(13.199)"><path class="g" d="M65.607,135.65c2.162-.526,3.6,4.017,3.985,5.425a16.343,16.343,0,0,1-1.275,11.1,2.806,2.806,0,0,1-.34.742c-.015.032-.029.064-.044.1s-.044.03-.063.052a1.557,1.557,0,0,1-.216.218.771.771,0,0,1-.754.164c-2.779-1.222-2.646-5.224-2.61-7.684C64.314,144.18,63.051,136.272,65.607,135.65Z" transform="translate(-63.999 -135.608)"/><path class="o" d="M65.607,135.65c2.162-.526,3.6,4.017,3.985,5.425a16.343,16.343,0,0,1-1.275,11.1,2.806,2.806,0,0,1-.34.742c-.015.032-.029.064-.044.1s-.044.03-.063.052a1.557,1.557,0,0,1-.216.218.771.771,0,0,1-.754.164c-2.779-1.222-2.646-5.224-2.61-7.684C64.314,144.18,63.051,136.272,65.607,135.65Z" transform="translate(-63.999 -135.608)"/></g><g transform="translate(0 22.34)"><path class="g" d="M56.566,150.67c-1.329,3.7,1.136,7.275,3.454,9.928.874,1,3.481,3.889,4.6,2.4a.343.343,0,0,0,.414-.243,6.855,6.855,0,0,0-.49-4.416c-.866-2.335-1.728-4.758-2.8-7.013C60.627,148.968,57.736,147.429,56.566,150.67Z" transform="translate(-56.192 -148.821)"/><path class="o" d="M56.566,150.67c-1.329,3.7,1.136,7.275,3.454,9.928.874,1,3.481,3.889,4.6,2.4a.343.343,0,0,0,.414-.243,6.855,6.855,0,0,0-.49-4.416c-.866-2.335-1.728-4.758-2.8-7.013C60.627,148.968,57.736,147.429,56.566,150.67Z" transform="translate(-56.192 -148.821)"/></g><path class="i" d="M98.669,193.638c-1.121,5.437-4.7,10.257-8.983,13.8A72.433,72.433,0,0,1,88.3,224.455a24.4,24.4,0,0,0-1.919,1.582c.308-1.459.568-2.9.783-4.377a.471.471,0,0,0-.03-.122c-9.152-4.822-13.252-14.143-16.675-23.555-.015-.015-.03-.03-.046-.03.26,0,14.464,5.941,17.089,21.159a79.8,79.8,0,0,0-.553-21.636c-3.853-11.255-13.588-19.286-22.893-26.7-1.552-1.244-3.332-2.517-4.208-4.345a.015.015,0,0,1-.015-.015c-.061-.123-.123-.247-.169-.369-.369-.891-.813-2.84.384-3.441,1.26-.659,2.166.969,2.749,1.8.091.123.184.26.26.384,1.674,2.335,3.194,4.791,4.683,7.233a89.393,89.393,0,0,1,9.982,8.675A45.728,45.728,0,0,1,85.8,191.719c-.154-.6-.276-1.212-.429-1.828A109.478,109.478,0,0,0,75.19,165.046a74.371,74.371,0,0,1-5.128-10.487,22.98,22.98,0,0,1-1.613-7.983,7.193,7.193,0,0,1,.338-1.951c.462-1.4,1.7-2.042,2.656-.644a4.134,4.134,0,0,1,.583,1.888v.015c.139,1.29-.015,2.749.032,3.716.137,2.487.26,4.991.352,7.478.8,1.643,1.689,3.239,2.6,4.822,4.883,8.506,9.167,17.1,11.777,26.625a84.326,84.326,0,0,1,2.38,12.315,60.993,60.993,0,0,1,1.873-9.689c1.305-4.714,6.849-12.929,6.895-12.959C98.086,178.068,100.388,185.27,98.669,193.638Z" transform="translate(-54.065 -130.364)"/></g><g class="d" transform="translate(32.162 94.106)"><path class="j" d="M45.161,225.37a30.223,30.223,0,0,1,8.927-16.3,37.218,37.218,0,0,1,7.622-5.73A38.319,38.319,0,0,1,66,201.261l2.2-.911,2.331-.691a27.142,27.142,0,0,1,9.655-.871l2.409.345c.8.122,1.569.389,2.353.578l1.167.311,1.128.428c.741.313,1.5.565,2.216.927a35.722,35.722,0,0,1,14.105,12.186,46.121,46.121,0,0,0-15.045-9.982,26.938,26.938,0,0,0-17.186-.959A41.94,41.94,0,0,0,55.7,210.835,36.675,36.675,0,0,0,45.161,225.37Z" transform="translate(-29.448 -179.819)"/><path class="j" d="M114.765,190.454a63.063,63.063,0,0,0-13.138-.519,42.177,42.177,0,0,0-12.479,2.712,35.224,35.224,0,0,0-10.753,6.7,55.462,55.462,0,0,0-8.349,10.093,30.879,30.879,0,0,1,11.836-16.369,34.034,34.034,0,0,1,6.142-3.275,35.989,35.989,0,0,1,26.74.663Z" transform="translate(-12.26 -187.528)"/><path class="j" d="M35.867,202.662a15.237,15.237,0,0,1,6.665-2.742,17.072,17.072,0,0,1,7.382.357,16.493,16.493,0,0,1,8.971,6.256A18.864,18.864,0,0,1,60.6,209.7c-1.03-.675-1.85-1.474-2.795-2.118a30.335,30.335,0,0,0-2.791-1.834,22.4,22.4,0,0,0-5.906-2.509,26.632,26.632,0,0,0-6.4-.938A49.928,49.928,0,0,0,35.867,202.662Z" transform="translate(-35.867 -179.139)"/></g></g><g transform="translate(140.536 101.583)"><g class="d" transform="translate(4.868 82.262)"><path class="j" d="M97.448,236.563a34.107,34.107,0,0,1,11.49-4.425A38.618,38.618,0,0,1,121.4,231.7a43.114,43.114,0,0,1,6.147,1.3,36.229,36.229,0,0,1,5.772,2.452A33.023,33.023,0,0,1,143,243.077a69.164,69.164,0,0,0-10.678-5.442,50.438,50.438,0,0,0-5.569-1.833,46.424,46.424,0,0,0-5.745-1.055,53.732,53.732,0,0,0-11.733-.245A73.5,73.5,0,0,0,97.448,236.563Z" transform="translate(-97.448 -231.394)"/><path class="j" d="M115.919,258.731A36.446,36.446,0,0,1,127.9,242.058a40.243,40.243,0,0,1,19.191-8.229,37.447,37.447,0,0,1,20.751,2.475,33,33,0,0,1,8.8,5.676,29.343,29.343,0,0,1,6.438,8.053,36.384,36.384,0,0,0-7.382-6.876,36,36,0,0,0-8.754-4.629,36.5,36.5,0,0,0-9.584-2.044,18.238,18.238,0,0,0-2.451-.113l-2.458-.024c-1.635.183-3.283.238-4.9.517l-2.431.429c-.4.076-.813.135-1.214.223l-1.185.333-2.375.663c-.779.255-1.532.587-2.306.857a40.669,40.669,0,0,0-4.5,2.007c-1.4.857-2.884,1.6-4.206,2.6A44.412,44.412,0,0,0,115.919,258.731Z" transform="translate(-84.69 -230.052)"/><path class="j" d="M183.085,250.032a36.526,36.526,0,0,0-25.72-13.544,18.956,18.956,0,0,0-2.457-.122l-2.457-.017c-1.628.184-3.285.232-4.9.507l-2.441.429c-.4.078-.815.139-1.214.232l-1.182.338-2.38.659c-.768.245-1.52.583-2.3.861a28.416,28.416,0,0,0-3.855,1.7c-.215.091-.429.2-.644.291-.507.308-1.014.6-1.535.891a28.433,28.433,0,0,0-2.673,1.7,44.542,44.542,0,0,0-13.4,14.756,36.266,36.266,0,0,1,11.977-16.66,31.846,31.846,0,0,1,3.086-2.257c.676-.429,1.368-.845,2.058-1.229a42.954,42.954,0,0,1,14.05-4.744,37.361,37.361,0,0,1,20.745,2.472,32.741,32.741,0,0,1,8.8,5.682A29.33,29.33,0,0,1,183.085,250.032Z" transform="translate(-84.688 -230.051)"/></g><g transform="translate(2.346 15.259)"><path class="k" d="M105.336,217.7a108.749,108.749,0,0,0,11.877,8.616,43.435,43.435,0,0,0,6.112,3.709,6.3,6.3,0,0,0,3.8.524,2.826,2.826,0,0,0,1.914-.751.8.8,0,0,0,.252-.374c2.189-1.376,3.243-4.005,4.271-6.441a76.186,76.186,0,0,0,4.67-15.067c.374-1.885,1.16-4.3.607-6.225-.348-1.173-.982-1.395-1.719-2.154-1.728-1.774-1.466-3.652-2.588-5.694a3.38,3.38,0,0,0-2.82-2.078c-3.136.064-3.858,6.01-4.408,8.122a80.536,80.536,0,0,0-2.374,13.366,68.307,68.307,0,0,0-.274,12.241,77.66,77.66,0,0,0-11.725-18.92c-1.713-2.069-4.441-5.451-7.53-4.942-1.249.206-1.276,1.126-2.154,1.623-1.861,1.047-3.366-.634-5.211-.086C91.166,205.214,103.37,216.073,105.336,217.7Z" transform="translate(-95.956 -191.763)"/></g><g transform="translate(4.775)"><path class="l" d="M108.3,202.115c2.9,9.929,6.414,19.663,9.157,29.644.071.242.492.14.438-.107-1.91-9.033-5.108-17.708-7.83-26.515a54.588,54.588,0,0,1-2.757-13.432c-.161-3.1.15-5.9-1.518-8.565a.755.755,0,0,0-1.312-.036c-1.74,2.727.97,7.464,2.313,10.531A42,42,0,0,0,108.3,202.115Z" transform="translate(-92.89 -182.738)"/><path class="l" d="M120.227,201.533c1.789,8.966.9,18.217.409,27.255a.164.164,0,1,0,.325.051c2-11.8,1.483-25.4-2.92-36.618-.382-.992-3.035-7.2-4.827-5.608-.957.855.482,2.759.943,3.427,1.479,2.215,3.479,3.929,4.744,6.31a.169.169,0,0,0,.064.042C119.5,198.16,119.9,199.927,120.227,201.533Z" transform="translate(-86.688 -180.24)"/><path class="l" d="M97.395,196.069a32.29,32.29,0,0,0,2.717,12.055c3.315,8.173,8.874,15.2,14.969,21.467.142.147.392-.1.264-.242-5.723-6.543-11.311-13.319-14.613-21.458a39.574,39.574,0,0,1-2.049-6.528c-.039-.157-.079-.341-.122-.527a.113.113,0,0,0,.064-.11,33.609,33.609,0,0,1,1.19-7.417c.291-1.131.691-3.091-.14-3.3C97.491,190.169,97.412,194.563,97.395,196.069Z" transform="translate(-97.393 -177.717)"/></g><g transform="translate(0 15.086)"><path class="m" d="M98.549,223.711c8,6.5,18.334,10.014,27.041,15.483,1.985,1.243,3.916,2.585,5.823,3.958a19.2,19.2,0,0,0,1.8,1.292,2.531,2.531,0,0,0,1.31.365,1.605,1.605,0,0,0,.565-.09,2.2,2.2,0,0,0,1.359-1.491,13.682,13.682,0,0,0,.578-4.31c.4-1.5.93-2.991,1.317-4.32q.837-2.911,1.821-5.779c1.407-4.066,3.182-7.961,4.952-11.884a36.558,36.558,0,0,0,3.37-10.374c.252-1.926.627-5.54-.854-7.1-1.327-1.391-2.6-.561-3.457.747-.82,1.254-1.058,2.764-1.75,4.041-1.06,1.934-2.316,1.917-3.9,2.967-2.12,1.422-2.971,3.968-3.278,6.374-.238,1.958-.355,3.949-.443,5.939-.264-1.856-.615-3.692-.977-5.5-.654-3.246-1.177-7.241-3.009-10.081a7.086,7.086,0,0,0-2.309-2.318c-2.171-1.356-3.718-2.154-5.118-4.4-1.265-2-2.724-5.485-5.545-5.561-2.84-.069-3.025,2.752-3.564,4.783-1.006,3.775-4.509,5.292-4.539,9.588-.027,3.493,1.834,6.847,3.481,9.816a58.158,58.158,0,0,0,4.282,6.736,33.445,33.445,0,0,0-7.518-4.964,7.494,7.494,0,0,0-3.785-1.052c-1.939.162-2.26,1.327-4.575.649-1.714-.511-5.339-2.49-6.726-.169C93.475,219.478,96.975,222.428,98.549,223.711Z" transform="translate(-94.569 -191.661)"/></g><path class="n" d="M122.668,206.183a.055.055,0,0,1-.041.1A.055.055,0,0,1,122.668,206.183Z" transform="translate(-75.212 -166.548)"/><g transform="translate(8.011 25.129)"><path class="a" d="M101.3,218.82c7.765,7.14,23.172,8.763,27.37,19.309-.02.156-.041.311-.059.465a2.532,2.532,0,0,0,1.31.365c1.914-3.079,1.931-6.889,2.423-10.459a64.468,64.468,0,0,1,3.949-15.8c.056-.142-.145-.22-.225-.088A45.867,45.867,0,0,0,132,224.778c-.857,4.255-.609,9.679-2.612,13.673-.008-.152-.012-.316-.014-.451.889-4.856-.233-10.092-1.459-14.756-1.572-6.026-3.907-11.806-6.01-17.659-.085-.237-.421-.069-.35.162,1.731,5.693,3.554,11.4,5.1,17.15a58.409,58.409,0,0,1,2.1,10.741c-2.933-12.075-14.92-20.885-16.893-33.33a.227.227,0,0,0-.448.069c1.949,13.2,14.063,22.478,16.956,35.242a13.238,13.238,0,0,0-2.32-3.016,30.645,30.645,0,0,0-6.277-6.568c-3.917-3.033-8.452-4.977-12.178-8.288-.142-.123-.338.1-.23.235,2.729,3.327,6.744,5.108,10.239,7.486a35.676,35.676,0,0,1,5.772,4.915,36.484,36.484,0,0,0-3.5-2.189c-6.053-3.437-12.562-5.681-18.3-9.715A.218.218,0,0,0,101.3,218.82Z" transform="translate(-97.98 -195.854)"/><path class="a" d="M124.161,202.3a8.34,8.34,0,0,1-.94,3.936.1.1,0,0,1-.184-.071,17.861,17.861,0,0,0,.742-3.856C123.808,202.107,124.149,202.077,124.161,202.3Z" transform="translate(-82.922 -194.462)"/><path class="a" d="M107.752,197.785c.032.752-.127,1.51-.118,2.269,0,.242-.353.22-.4.01a3.732,3.732,0,0,1,.083-2.326C107.4,197.557,107.74,197.538,107.752,197.785Z" transform="translate(-93.932 -197.601)"/><path class="a" d="M99.691,209.247a8.382,8.382,0,0,1,.952.859.169.169,0,0,1-.15.27,1.948,1.948,0,0,1-1.138-.786C99.192,209.381,99.48,209.058,99.691,209.247Z" transform="translate(-99.307 -189.597)"/></g><path class="g" d="M125.671,223c-.889,3.319-2.318,6.793-1.226,10.413.093.313-.232.524-.4.265-1.354-2.081-11.517-8.286-10.7-10.044.5-1.069,3.283.867,3.983-.622.294-.626-.039-2.058-.091-2.779-.073-.935-.118-1.883-.1-2.815.02-.866.221-1.941,1.018-2.13.935-.227,1.665,1.036,2.124,1.863.379.685.695,1.412,1.03,2.123.374.788.835,2.222,1.665,1.194.729-.9,1.131-2.08,2.108-2.673C127.315,216.44,125.939,222,125.671,223Z" transform="translate(-81.63 -160.273)"/><path class="i" d="M131.714,248.591c-.69.384-1.381.8-2.058,1.229-.03-.093-.076-.169-.107-.26-2.242-5.129-4.945-10.043-7.233-15.157a62.258,62.258,0,0,1-4.468-15.509.041.041,0,1,1,.076-.03c1.721,9.444,7.863,18.119,12.208,26.5C130.686,246.427,131.224,247.5,131.714,248.591Z" transform="translate(-78.491 -157.805)"/><path class="g" d="M124.281,251.321s-1.341-14.5,1-22.03,10.56-17.539,10.56-17.539A39.042,39.042,0,0,1,124.281,251.321Z" transform="translate(-74.31 -162.699)"/></g></g></g><g transform="translate(272.415 102.008)"><g transform="translate(162.671 175.59)"><g transform="translate(0 0.139)"><g transform="translate(0 245.546)"><path class="p" d="M248.2,406.541c3.1,1.03,91.608.773,94.979-1.368,1.273-.8,1.992-13.7,2.411-29.3q.142-5.059.216-10.387c.068-4.185.122-8.423.149-12.538.108-18.486-.149-34.762-.149-34.762H288.184l.027,34.762.013,12.538.3,10.387s-33.841,15.26-37.279,18.009S245.107,405.525,248.2,406.541Z" transform="translate(-246.843 -318.183)"/><path class="k" d="M345.674,350.294c-.034,1.15-.051,2.282-.085,3.4-.423,15.605-1.15,28.5-2.418,29.3-3.365,2.147-91.871,2.4-94.982,1.369-3.077-1.014-.372-9.924,3.043-12.663,1.843-1.471,12.393-6.526,21.793-10.9-2.857,2.57-6.729,6.475-5.681,7.861,2.84,3.753,60.154-4.108,75.692-16.6A14.481,14.481,0,0,1,345.674,350.294Z" transform="translate(-246.842 -296.005)"/></g><g transform="translate(35.479)"><path class="g" d="M350.528,172.948s-15.573,154.021-15.94,155.972c-.054.257-.162,3.222-.311,8.056-.839,26.515-2.911,109.186-2.911,109.186H267.828s4.144-97.919,6.528-120.763c3.033-29.141,22.155-152.45,22.155-152.45Z" transform="translate(-267.828 -172.948)"/><g transform="translate(3.883 5.387)"><path d="M304.409,332.148q2.942-50.056,8.839-99.878c2.23-18.714,4.915-37.362,7.583-56.017.024-.161.281-.156.255.007-4.916,33.2-8.4,66.662-11.4,100.086q-4.491,50.074-6.457,100.325c-.776,18.976-1.359,37.959-1.973,56.94a.351.351,0,0,1-.7-.017C301.45,399.767,302.424,365.933,304.409,332.148Z" transform="translate(-249.108 -176.134)"/><path class="l" d="M270.252,328.7c1.664-.218,21-.5,28.415-.5,6.349,0,26.249.5,28.424.487.164,0,.157.169-.007.194-2.6.4-13.916.708-26.075.708-7.414,0-29.8-.511-30.765-.634A.128.128,0,0,1,270.252,328.7Z" transform="translate(-270.125 -71.109)"/></g></g><path d="M335.619,172.948s-15.573,154.021-15.94,155.972c-.054.257-.162,3.222-.311,8.056L289.414,172.948Z" transform="translate(-217.44 -172.948)"/></g><g transform="translate(64.161)"><g transform="translate(55.566 224.742)"><path class="p" d="M320.022,415.68c3.261.186,88.673-23,91.373-25.952,1.03-1.1-1.63-13.747-5.268-28.919-.776-3.282-1.457-6.709-2.477-10.09-1.27-4.252-2.592-8.494-3.919-12.569-5.7-17.706-11.2-32.355-11.2-32.355l-54.076,14.511,9.639,32.147,3.946,13.189,2.972,9.95s-28.728,23.514-31.337,27.052S316.776,415.489,320.022,415.68Z" transform="translate(-317.659 -305.796)"/><path class="k" d="M411.395,364.785c-2.695,2.949-88.1,26.145-91.38,25.948-3.241-.191-2.927-9.495-.34-13.027,1.588-2.156,12.761-11.642,21.318-18.767-2.465,2.9-6.332,7.867-5,9.165,3.271,3.229,56.479-11.9,71.578-26.192C410.417,354.274,412.272,363.831,411.395,364.785Z" transform="translate(-317.659 -280.851)"/></g><path class="g" d="M284.793,173s4.186,22.249,19.707,33.565c0,0,21.864,120.2,24.611,133.785,5.341,26.425,27.859,101.857,27.859,101.857l64.8-19.825s-28-91.026-31.759-100.585c-2.047-5.2-17.723-104.768-17.4-107.159,3.816-28.456-9.686-41.777-9.686-41.777Z" transform="translate(-284.793 -172.866)"/><g transform="translate(8.062 2.853)"><path class="l" d="M315.391,175.94a21.237,21.237,0,0,0,7.777,11.165c4.112,3.128,9.047,4.433,14.115,4.837.859.069.927,1.361.029,1.368-10.361.059-20.827-6.562-22.346-17.3C314.931,175.762,315.33,175.706,315.391,175.94Z" transform="translate(-272.016 -173.699)"/><path class="l" d="M290.654,188.635a57.639,57.639,0,0,1,10.7,5.679c3.557,2.2,6.842,4.78,10.274,7.157.134.091.022.306-.123.223-3.6-2.073-7.349-3.87-10.913-6.01a67.918,67.918,0,0,1-10.1-6.768C290.378,188.811,290.5,188.58,290.654,188.635Z" transform="translate(-288.948 -164.833)"/><path class="l" d="M289.809,175.895c.554,2.374,1.243,4.715,1.868,7.07.585,2.21,1.047,4.472,1.738,6.651A11.445,11.445,0,0,0,296.8,195.1c.913.773,1.91,1.449,2.879,2.152.521.379,1.082.74,1.625,1.123-.083-.313-.152-.631-.225-.954-.2-.9-.4-1.8-.59-2.7q-.644-3-1.246-6.01c-.788-3.944-1.53-7.931-2.538-11.825a.128.128,0,0,1,.245-.073c1.167,3.85,2.435,7.654,3.476,11.544.511,1.909,2.452,11.353,2.549,12.022.1.693.191,1.388.247,2.085a8.319,8.319,0,0,1,.1,2.135c-.032.176-.244.157-.323.042l-.008.008a8.349,8.349,0,0,1-.7-2.041c-.206-.669-.391-1.353-.544-2.037-.056-.247-.1-.5-.149-.754-.962-.526-1.87-1.239-2.774-1.833-.975-.641-1.968-1.263-2.894-1.975a10.728,10.728,0,0,1-3.66-5.182,38.827,38.827,0,0,1-1.432-6.786c-.426-2.69-.771-5.4-1.271-8.073C289.534,175.81,289.77,175.732,289.809,175.895Z" transform="translate(-289.561 -173.689)"/><path class="l" d="M328.83,330.889c1.527-.693,19.943-6.6,27.036-8.758,6.073-1.85,25.255-7.172,27.332-7.816.157-.049.2.117.051.188-2.37,1.145-13.106,4.734-24.736,8.276-7.092,2.161-28.657,8.193-29.616,8.355A.127.127,0,0,1,328.83,330.889Z" transform="translate(-262.502 -78.029)"/><path d="M363.1,360.524c-2.568-7.469-5.177-14.925-7.691-22.413a181.485,181.485,0,0,1-6.005-22.464c-3.089-15.536-5.769-31.161-8.281-46.8q-1.91-11.889-3.593-23.811-.829-5.886-1.615-11.779c-.509-3.824-1.124-7.63-1.336-11.488-.78-14.229,4.3-29.281-1.9-42.876a23.943,23.943,0,0,0-2.524-4.288c-.095-.127-.3-.005-.215.132,8.249,12.9,3.723,28.574,3.488,42.786-.129,7.787,1.18,15.554,2.281,23.24q1.671,11.658,3.491,23.3,3.624,23.357,7.955,46.592a190.162,190.162,0,0,0,5.18,22.594c2.35,7.469,5.038,14.839,7.6,22.238,5.2,14.974,18.594,52.428,19.26,54.306.057.159.308.085.254-.078C374.389,394.625,368.276,375.578,363.1,360.524Z" transform="translate(-261.683 -174.553)"/></g></g></g><g transform="translate(0 17.716)"><path class="p" d="M348.051,138.767c-14.88,15.713-51,33.171-62.92,33.171-13.607,0-36.429-18.854-53.606-34.742-3.77-3.486,19.466-37.677,23.624-34.089,10.406,8.981,34.749,33.5,38.515,34.089,5.52.866,27.722-5.037,45.32-10.039C358.552,121.592,355.6,130.791,348.051,138.767Z" transform="translate(-95.037 -63.354)"/><g transform="translate(117.433)"><path class="p" d="M251.306,156.734c4.856-.007,17.262-29.457,14.812-33.8a19.589,19.589,0,0,0-3.354-3.7l.007-.014s-4.982-9.938-6.19-19.678c-1.028-8.18-1.616-20.442-6.036-20.053-6.445.548-7.564,16.143-7.66,25.134-4.233-2.445-8.107-4.152-10.729-4.318-8.7-.556-16.122,37.986-9.566,43.961C228.912,150.034,246.449,156.743,251.306,156.734Z" transform="translate(-220.086 -79.487)"/></g><g transform="translate(0 6.607)"><path d="M220.787,148.771s9.62,1.708,14.349-3.258C249.909,130.06,233.158,81.787,225,83.748s-16.05,32.508-16.05,32.508Zm.365-4.71-9.216-25.315s6.535-26.593,12.876-28.113,19.008,38.862,7.5,50.893C228.636,145.388,221.153,144.061,221.153,144.061Z" transform="translate(-110.343 -83.191)"/><path class="k" d="M172.411,107.968l2.952,14.99-12.814,7.455Z" transform="translate(-142.392 -66.422)"/><path class="g" d="M206.532,180.983l50.257-22.257L215.647,87.95l-32.12,14.561Z" transform="translate(-127.904 -80.249)"/><path class="k" d="M218.318,91.1l2.753-7.7-41.413,17.814,6.54,4.448Z" transform="translate(-130.575 -83.395)"/><path d="M205.592,123.292l5.4,18.429-42.723-21.689,2.478-5.234Z" transform="translate(-138.44 -61.705)"/><path class="m" d="M171.974,113.5c-4.722-4.563-14.93-4.954-14.971-.632-.022,2.382,3.642,3.072,8.107,1.378A13.822,13.822,0,0,1,171.974,113.5Z" transform="translate(-146.223 -65.129)"/><path class="m" d="M163.775,121.081c-3.794,1.628-6.5,7.454-4.005,8.528,1.376.592,2.666-1.366,2.769-4.365A8.691,8.691,0,0,1,163.775,121.081Z" transform="translate(-144.979 -57.365)"/><path class="m" d="M170.863,116.468a18.278,18.278,0,0,0-14.312,3.153c-5.327,3.86-8.376,11.754-3.408,13.826,1.971.822,4.736-.861,6.893-4C163.309,124.688,165.167,118.438,170.863,116.468Z" transform="translate(-150.627 -60.795)"/></g><g transform="translate(107.72 15.041)"><path class="p" d="M249.358,97.7c1.29,4.345-4.568,3.378-4.568,3.378s8.1,3.425,7.7,8.42c-.4,4.812-7.437,3.395-7.943,3.3.426.186,7.786,3.527,6.864,8.5-.962,5.172-7.781,2.536-8.222,2.364.348.3,4.886,4.36,3.326,7.982-2.683,6.222-14.569-3.838-20.013-3.153,0,0,.107,9.358.052,9.63,0,0-11.505-9.339-12.019-16.733a4.733,4.733,0,0,1,3.31-4.92s-4.042-2.6-3.441-6.543c.314-2.022,3.828-3.319,3.828-3.319s-3.15-2.217-2.4-5.689c.593-2.774,4.026-3.643,4.026-3.643s-2.036-3.532-.509-6.168C222.416,85.786,246.589,88.4,249.358,97.7Z" transform="translate(-214.341 -88.383)"/><g transform="translate(3.705 8.184)"><path class="l" d="M217.941,93.714a.064.064,0,0,1-.01-.128c8.159-1.079,17.454.235,24.74,4.169.24.13.134.575-.157.482A86.332,86.332,0,0,0,217.941,93.714Z" transform="translate(-215.605 -93.224)"/><path class="l" d="M216.6,99.319c-.095,0-.091-.159.008-.172,8.414-1.067,18.844.7,26.708,6.225.269.191.321.631-.005.436C237.8,102.53,224.459,99.493,216.6,99.319Z" transform="translate(-216.532 -89.337)"/><path class="l" d="M242.062,112.985c-7.743-5-16.313-7.025-25.414-7.833-.118-.012-.091-.178.01-.2,4.56-.817,10.306.3,14.7,1.554a24.314,24.314,0,0,1,10.876,6.2C242.358,112.834,242.228,113.093,242.062,112.985Z" transform="translate(-216.506 -85.313)"/></g><path class="l" d="M239.962,95.853c.286.157-.255.4.025.568,1.185.691,7.96,5.461,7.052,8.274-.734,2.252-4.269,2.828-5.713,2.517l-3.633-.781,3.141,2a15.259,15.259,0,0,1,3.7,3.249,5.433,5.433,0,0,1,1.408,4.218,3.1,3.1,0,0,1-2.776,2.752,9.4,9.4,0,0,1-4.639-.81l-4.068-1.684,3.28,2.91a14.375,14.375,0,0,1,2.4,2.744,5.886,5.886,0,0,1,1.124,3.206,2.8,2.8,0,0,1-1.552,2.507,6.187,6.187,0,0,1-3.461.107A48.847,48.847,0,0,1,229,125.252c-1.205-.453-2.418-.911-3.65-1.309a9.177,9.177,0,0,0-3.816-.609,9.908,9.908,0,0,1,3.694.943c1.187.487,2.352,1.03,3.52,1.574a41.523,41.523,0,0,0,7.283,2.815,7.252,7.252,0,0,0,4.156.005,3.971,3.971,0,0,0,2.431-3.613,7.2,7.2,0,0,0-1.288-4.015,15.663,15.663,0,0,0-2.629-3.1l-.788,1.226a10.777,10.777,0,0,0,5.469,1.011,4.5,4.5,0,0,0,2.744-1.329,5.1,5.1,0,0,0,1.292-2.72,6.861,6.861,0,0,0-1.784-5.339,16.445,16.445,0,0,0-4.127-3.512l-.492,1.216c1.85.333,5.872.12,7.449-3.231C249.864,100.6,241.538,96.5,239.962,95.853Z" transform="translate(-209.374 -83.224)"/><path class="l" d="M232.351,98.737a9.078,9.078,0,0,0,2.734-.507,2.107,2.107,0,0,0,1.42-1.593,4.292,4.292,0,0,0-.56-2.369c-.413-.815-.888-1.65-1.412-2.494a7.253,7.253,0,0,1,2.255,1.975,4.235,4.235,0,0,1,.967,3.1,3.019,3.019,0,0,1-.859,1.586,3.128,3.128,0,0,1-1.539.744A4.863,4.863,0,0,1,232.351,98.737Z" transform="translate(-201.902 -86.04)"/></g><g transform="translate(147.791 40.712)"><path class="g" d="M253.265,103.567,238.042,158.1s28.574,14.474,40.679,14.724,46.916-15.847,65.791-34.628c7.283-7.248,8.528-17.155-9.353-12.788s-42.338,9.358-44.211,8.984S253.265,103.567,253.265,103.567Z" transform="translate(-238.042 -103.567)"/><path class="q" d="M257.09,108.972c-1.368,3.814-2.359,7.816-3.456,11.716q-1.651,5.876-3.145,11.794c-2,7.885-3.8,15.828-5.518,23.779a.132.132,0,0,0,.255.064c2.308-7.8,4.541-15.637,6.57-23.517q1.522-5.911,2.9-11.857c.91-3.946,1.961-7.931,2.588-11.933A.1.1,0,0,0,257.09,108.972Z" transform="translate(-233.259 -99.883)"/></g></g><g transform="translate(222.976 78.292)"><path class="k" d="M287.6,179.364l-3.971,41.3s69.7-2.407,86.235-4.382c0,0-20.072-75.869-38.853-94.374-9.4-9.255-19.837-8.022-26.184-.923-1.608,1.8-20.472,29.419-22.1,39.7C281.3,169.759,287.6,179.364,287.6,179.364Z" transform="translate(-282.512 -115.316)"/></g><g transform="translate(231.182)"><g transform="translate(30.218)"><path class="l" d="M308.492,96.952c2.188,3.233,18.756,11.062,27.411-3.08,8.524-13.93-9.251-31.942-23.215-21.992C303.308,78.562,303.846,90.089,308.492,96.952Z" transform="translate(-305.239 -69.008)"/></g><g transform="translate(0 19.078)"><g transform="translate(15.12 38.938)"><path class="p" d="M313.356,127.618c-.455,1.375-7.985,9.874-14.374,8.989-2.08-.293-.992-11.716-.992-11.716l-.113-.862-1.567-12.063,14.7-7.645,2.113-1s.211,3.329.433,7.476c.012.193.022.385.032.592.019.233.039.455.046.675.041.619.081,1.251.107,1.882.022.48.046.947.049,1.451s.024,1,.042,1.5A78.353,78.353,0,0,1,313.356,127.618Z" transform="translate(-296.309 -103.323)"/><path class="l" d="M313.556,110.8a24.4,24.4,0,0,1-15.679,13.23l-1.567-12.063,14.7-7.645,2.113-1S313.334,106.652,313.556,110.8Z" transform="translate(-296.309 -103.323)"/></g><path class="p" d="M288.112,105.748c-3.858,21,8.283,25.68,12.812,26.506,4.112.751,18.205,2.785,24.212-17.7S322.6,85.634,313.288,83.419,291.97,84.75,288.112,105.748Z" transform="translate(-287.366 -78.529)"/><g transform="translate(2.281 21.773)"><path class="l" d="M290.358,95.321a13.768,13.768,0,0,0,1.467-.142,2.377,2.377,0,0,0,1.469-.429.757.757,0,0,0,.1-.921,1.882,1.882,0,0,0-1.8-.644,2.763,2.763,0,0,0-1.834.779A.809.809,0,0,0,290.358,95.321Z" transform="translate(-288.147 -93.168)"/><path class="l" d="M299.517,96.7a13.842,13.842,0,0,1-1.4-.463,2.384,2.384,0,0,1-1.337-.746.754.754,0,0,1,.1-.92,1.88,1.88,0,0,1,1.894-.232,2.77,2.77,0,0,1,1.616,1.167A.81.81,0,0,1,299.517,96.7Z" transform="translate(-283.222 -92.466)"/><g transform="translate(12.353 7.311)"><path class="l" d="M296.308,98.287c.019-.052.1.085.093.144-.242,1.434-.277,3.116.962,3.772.037.02.024.091-.024.079C295.781,101.841,295.848,99.607,296.308,98.287Z" transform="translate(-296.021 -96.956)"/><path class="l" d="M297.761,97.5c2.342.139,1.89,4.81-.277,4.681C295.35,102.052,295.8,97.38,297.761,97.5Z" transform="translate(-295.985 -97.495)"/><path class="l" d="M297.724,97.708c.382.3.737.81,1.224.9.563.112,1.042-.336,1.457-.769.044-.046.08,0,.074.061-.073.9-.505,1.78-1.478,1.823-.886.037-1.439-.817-1.576-1.738C297.4,97.818,297.57,97.586,297.724,97.708Z" transform="translate(-295.053 -97.371)"/></g><g transform="translate(0 5.321)"><g transform="translate(1.39 0.356)"><path class="l" d="M292.249,97.51c-.007-.056-.12.059-.123.118-.081,1.452-.421,3.1-1.774,3.466-.042.012-.044.085.005.083C291.975,101.093,292.4,98.9,292.249,97.51Z" transform="translate(-288.996 -95.861)"/><path class="l" d="M291.63,96.551c-2.313-.382-2.91,4.272-.766,4.627C292.972,101.527,293.569,96.872,291.63,96.551Z" transform="translate(-289.537 -96.529)"/></g><path class="l" d="M291.189,96.879c-.4.2-.82.6-1.263.573-.514-.032-.827-.583-1.09-1.107-.027-.054-.068-.02-.078.041-.139.888.037,1.851.871,2.132.759.255,1.429-.435,1.755-1.293C291.444,97.065,291.349,96.8,291.189,96.879Z" transform="translate(-288.715 -96.318)"/></g><path class="l" d="M296.908,104.945c-.365.323-.737.773-1.265.791a3.83,3.83,0,0,1-1.542-.445.051.051,0,0,0-.068.071,1.959,1.959,0,0,0,1.8.883,1.55,1.55,0,0,0,1.207-1.227C297.071,104.934,296.961,104.9,296.908,104.945Z" transform="translate(-285.046 -85.053)"/><g transform="translate(3.919)"><path class="l" d="M293.5,107.184s-.531,2.127-.642,3.145c-.009.1.232.167.575.225.017.007.025.015.041.007a4.868,4.868,0,0,0,4.9-1.3c.081-.091-.037-.21-.137-.157a7.325,7.325,0,0,1-4.556.788c-.041-.289,1.033-3.611.872-3.64a8.891,8.891,0,0,0-2.369.274c.981-4.462,2.666-8.729,3.576-13.186a.139.139,0,0,0-.259-.095c-2.085,4.348-3.324,9.456-4.455,14.038C290.894,107.851,293.072,107.314,293.5,107.184Z" transform="translate(-291.033 -93.171)"/></g><g transform="translate(6.484 15.861)"><path class="l" d="M292.55,103.3a5.97,5.97,0,0,0,1.919,2.33,2.68,2.68,0,0,0,1.565.456c1.217-.041,1.485-1.089,1.478-2.039a6.417,6.417,0,0,0-.2-1.5A7.72,7.72,0,0,1,292.55,103.3Z" transform="translate(-292.55 -102.552)"/><path class="r" d="M293.685,105.029a2.68,2.68,0,0,0,1.566.456c1.217-.041,1.484-1.089,1.478-2.039A2.77,2.77,0,0,0,293.685,105.029Z" transform="translate(-291.766 -101.951)"/></g></g><g transform="translate(2.281)"><path class="l" d="M324.008,116.488a8.7,8.7,0,0,1-4.627-7.248,22.721,22.721,0,0,1-9-7.762c.127.44,1.041,3.615,1.559,5.219-13.306-2.959-17.1-13.346-17.1-13.346a23.021,23.021,0,0,0-6.127,8.291s.249-8.164,4.592-13.574c14.614-18.209,30.7,1.275,30.7,1.275s5.392,3.064,6.129,8.529C331.567,108.513,324.008,116.488,324.008,116.488Z" transform="translate(-288.715 -80.292)"/><path class="l" d="M299.5,99.684a24.7,24.7,0,0,0,6.783,2.756c.02.005.025-.025.007-.03a21.013,21.013,0,0,1-9.627-6.277,19.937,19.937,0,0,1-2.752-4.137,13.777,13.777,0,0,1-1.6-5.165.1.1,0,0,0-.208.01,16.122,16.122,0,0,0,.883,5.314,14.711,14.711,0,0,0,2.823,4.533,16.931,16.931,0,0,0,3.7,3" transform="translate(-286.378 -75.843)"/></g><g transform="translate(32.416 30.562)"><path class="p" d="M308.26,102.995s5.272-6.191,8.124-4.249-1.554,11.224-5.212,12.2a3.61,3.61,0,0,1-4.632-2.391Z" transform="translate(-306.539 -98.369)"/><path class="l" d="M314.266,100.147a.049.049,0,0,1,.01.1c-2.575.768-4.1,2.94-5.239,5.236a1.994,1.994,0,0,1,3.021-.26c.059.052-.012.147-.081.127a2.219,2.219,0,0,0-2.506.539,10.687,10.687,0,0,0-1.353,1.856c-.137.211-.526.054-.418-.193l.025-.056C307.966,104.328,310.844,100.142,314.266,100.147Z" transform="translate(-305.75 -97.141)"/></g></g></g><g transform="translate(265.906 83.689)"><g transform="translate(26.474 107.667)"><path class="p" d="M343.227,229.8c2.115,6.168-.2,16.034,4.644,15.882,4.318-.137,5.261-7.13,5.261-7.13s1.484,8.22,6.088,6.751,4.069-9.341,4.069-9.341.928,6.9,5.417,5.1,5.253-8.568,5.253-8.568,1.62,1.79,4.22-.9c3.719-3.853,2.14-15.319-.107-21.111s-14.751-25.335-16.722-28.292l-37.3,14.1s-.759,12.142-.391,18.347,7.251,26.305,12.356,24.936,0-15.487-.494-19.213.284-4.479,1.814-2.971C338.344,218.377,342.292,227.068,343.227,229.8Z" transform="translate(-323.563 -182.191)"/><g transform="translate(23.967 26.176)"><path class="l" d="M343.218,224.714c.622-9.833-.808-14.242-5.457-22.757-.091-.166.135-.338.247-.172,5.312,7.921,7.9,13.194,5.686,22.985C343.585,225.249,343.189,225.183,343.218,224.714Z" transform="translate(-337.74 -194.88)"/><path class="l" d="M349.429,224.253c-.247-10.271-1.755-15.067-5.97-24.342-.061-.13.156-.245.227-.118,4.9,8.753,7.36,14.072,6.259,24.366C349.9,224.625,349.439,224.721,349.429,224.253Z" transform="translate(-333.796 -196.248)"/><path class="l" d="M356.452,221.7c-.957-9.926-2.384-15.257-7.632-23.735a.184.184,0,0,1,.3-.211c6.191,8.125,8.021,14.763,7.63,23.884C356.724,222.255,356.513,222.319,356.452,221.7Z" transform="translate(-330.107 -197.674)"/></g></g><path class="p" d="M318.913,125.95c22.114,30.02,51.182,93.393,54.986,103.52,2.58,6.874-36.63,20.819-37.685,15.889-1.349-6.311-22.062-85.464-27.592-114.8C305.573,114.387,313.45,118.536,318.913,125.95Z" transform="translate(-307.878 -117.886)"/><path class="g" d="M328.172,235l45.875-11.48s-42-81.7-53.611-96.949c-11.787-15.478-13.952-6.734-11.787,9.853C310.976,154.269,328.172,235,328.172,235Z" transform="translate(-307.904 -118.508)"/><g transform="translate(1.166 23.83)"><path d="M358.46,177.631c-3.124.382-6.239,1.2-9.314,1.87q-4.638,1.009-9.267,2.061c-6.166,1.408-12.337,2.864-18.418,4.6a.132.132,0,0,0,.063.257c6.233-1.094,12.425-2.477,18.589-3.9q4.522-1.042,9.032-2.139c3.124-.756,6.352-1.386,9.393-2.428A.165.165,0,0,0,358.46,177.631Z" transform="translate(-299.774 -101.505)"/><path d="M332.583,223.943c-.862.014-4.364.4-4.5.45.027-.443-2.286-15.044-2.893-18.078-1.185-5.922-2.447-11.83-3.689-17.74-2.511-11.951-5.182-23.869-7.794-35.8-1.469-6.71-2.982-13.419-4.636-20.087-.041-.159-.267-.081-.24.073.683,3.909,1.418,7.808,2.173,11.7-.72-1.667-1.479-3.314-2.146-5-.062-.157-.316-.083-.254.076.695,1.76,1.285,3.555,1.924,5.336.34.947.71,1.87,1.1,2.785,1.388,7.047,2.84,14.082,4.276,21.117,2.441,11.973,4.835,23.96,7.483,35.89.729,3.287,3.909,20.806,4.026,20.762.169-.059,4.47-.959,5.277-1.292C332.774,224.1,332.7,223.942,332.583,223.943Z" transform="translate(-308.594 -132.603)"/></g></g><g transform="translate(159.565 510.217)"><rect class="g" width="198.254" height="25.238" transform="translate(14.035 49.163)"/><path d="M0,0H171.138V25.238H0Z" transform="translate(5.051)"/><g transform="translate(0 25.231)"><path class="g" d="M259.544,454.6H245.006l15.009-68.879h29.547Z" transform="translate(-245.006 -385.712)"/><path d="M255.419,385.714h29.538l-7.5,17.23H251.666Z" transform="translate(-240.406 -385.714)"/></g><g transform="translate(136.678 25.231)"><path class="g" d="M355.87,454.6h14.538L355.4,385.718H325.851Z" transform="translate(-325.846 -385.712)"/><path d="M359.154,402.945h-25.8l-7.5-17.23H355.4Z" transform="translate(-325.848 -385.714)"/></g></g></g></g></svg>