<svg xmlns="http://www.w3.org/2000/svg" xmlns:xlink="http://www.w3.org/1999/xlink" width="3013.242" height="525.998" viewBox="0 0 3013.242 525.998"><defs><style>.a,.f{fill:#fdebeb;}.b,.c{fill:#f6d2df;}.c,.f{fill-rule:evenodd;}.d{clip-path:url(#a);}.e{clip-path:url(#b);}</style><clipPath id="a"><rect class="a" width="1920" height="525.998"/></clipPath><clipPath id="b"><rect class="a" width="899.955" height="145.135"/></clipPath></defs><g transform="translate(224)"><g transform="translate(0 0)"><g transform="translate(1131.069)"><g transform="translate(0 358)"><path class="b" d="M290.619,124.732a2.266,2.266,0,1,0,2.266-2.268A2.267,2.267,0,0,0,290.619,124.732Z" transform="translate(16.023 -122.464)"/><path class="b" d="M302.477,124.732a2.266,2.266,0,1,0,2.266-2.268A2.267,2.267,0,0,0,302.477,124.732Z" transform="translate(-26.194 -122.464)"/><ellipse class="b" cx="2.266" cy="2.266" rx="2.266" ry="2.266" transform="translate(245.922 0.001)"/><path class="b" d="M326.194,124.732a2.266,2.266,0,1,0,2.266-2.268A2.267,2.267,0,0,0,326.194,124.732Z" transform="translate(-110.632 -122.464)"/><path class="b" d="M290.619,136.316a2.266,2.266,0,1,0,2.266-2.266A2.265,2.265,0,0,0,290.619,136.316Z" transform="translate(16.023 -104.387)"/><path class="b" d="M302.477,136.316a2.266,2.266,0,1,0,2.266-2.266A2.265,2.265,0,0,0,302.477,136.316Z" transform="translate(-26.194 -104.387)"/><path class="b" d="M314.336,136.316a2.266,2.266,0,1,0,2.266-2.266A2.265,2.265,0,0,0,314.336,136.316Z" transform="translate(-68.415 -104.387)"/><path class="b" d="M326.194,136.316a2.266,2.266,0,1,0,2.266-2.266A2.265,2.265,0,0,0,326.194,136.316Z" transform="translate(-110.632 -104.387)"/><path class="b" d="M290.619,147.9a2.266,2.266,0,1,0,2.266-2.266A2.265,2.265,0,0,0,290.619,147.9Z" transform="translate(16.023 -86.311)"/><path class="b" d="M302.477,147.9a2.266,2.266,0,1,0,2.266-2.266A2.265,2.265,0,0,0,302.477,147.9Z" transform="translate(-26.194 -86.311)"/><ellipse class="b" cx="2.266" cy="2.266" rx="2.266" ry="2.266" transform="translate(245.922 59.326)"/><path class="b" d="M326.194,147.9a2.266,2.266,0,1,0,2.266-2.266A2.265,2.265,0,0,0,326.194,147.9Z" transform="translate(-110.632 -86.311)"/><path class="b" d="M290.619,159.808a2.266,2.266,0,1,0,2.266-2.266A2.267,2.267,0,0,0,290.619,159.808Z" transform="translate(16.023 -67.735)"/><path class="b" d="M302.477,159.808a2.266,2.266,0,1,0,2.266-2.266A2.267,2.267,0,0,0,302.477,159.808Z" transform="translate(-26.194 -67.735)"/><ellipse class="b" cx="2.266" cy="2.266" rx="2.266" ry="2.266" transform="translate(245.922 89.806)"/><path class="b" d="M326.194,159.808a2.266,2.266,0,1,0,2.266-2.266A2.267,2.267,0,0,0,326.194,159.808Z" transform="translate(-110.632 -67.735)"/><path class="b" d="M290.619,171.393a2.266,2.266,0,1,0,2.266-2.266A2.267,2.267,0,0,0,290.619,171.393Z" transform="translate(16.023 -49.66)"/><path class="b" d="M302.477,171.393a2.266,2.266,0,1,0,2.266-2.266A2.267,2.267,0,0,0,302.477,171.393Z" transform="translate(-26.194 -49.66)"/><ellipse class="b" cx="2.266" cy="2.266" rx="2.266" ry="2.266" transform="translate(245.922 119.468)"/><path class="b" d="M326.194,171.393a2.266,2.266,0,1,0,2.266-2.266A2.267,2.267,0,0,0,326.194,171.393Z" transform="translate(-110.632 -49.66)"/><path class="b" d="M290.619,182.979a2.266,2.266,0,1,0,2.266-2.266A2.265,2.265,0,0,0,290.619,182.979Z" transform="translate(16.023 -31.583)"/><path class="b" d="M302.477,182.979a2.266,2.266,0,1,0,2.266-2.266A2.265,2.265,0,0,0,302.477,182.979Z" transform="translate(-26.194 -31.583)"/><ellipse class="b" cx="2.266" cy="2.266" rx="2.266" ry="2.266" transform="translate(245.922 149.13)"/><path class="b" d="M326.194,182.979a2.266,2.266,0,1,0,2.266-2.266A2.265,2.265,0,0,0,326.194,182.979Z" transform="translate(-110.632 -31.583)"/><ellipse class="b" cx="2.266" cy="2.266" rx="2.266" ry="2.266" transform="translate(183.681 0.001)"/><ellipse class="b" cx="2.266" cy="2.266" rx="2.266" ry="2.266" transform="translate(153.321 0.001)"/><path class="b" d="M362.363,124.732a2.266,2.266,0,1,0,2.266-2.268A2.267,2.267,0,0,0,362.363,124.732Z" transform="translate(-239.401 -122.464)"/><path class="b" d="M374.221,124.732a2.267,2.267,0,1,0,2.268-2.268A2.269,2.269,0,0,0,374.221,124.732Z" transform="translate(-281.62 -122.464)"/><path class="b" d="M338.646,136.316a2.266,2.266,0,1,0,2.266-2.266A2.265,2.265,0,0,0,338.646,136.316Z" transform="translate(-154.963 -104.387)"/><path class="b" d="M350.505,136.316a2.266,2.266,0,1,0,2.266-2.266A2.265,2.265,0,0,0,350.505,136.316Z" transform="translate(-197.184 -104.387)"/><path class="b" d="M362.363,136.316a2.266,2.266,0,1,0,2.266-2.266A2.265,2.265,0,0,0,362.363,136.316Z" transform="translate(-239.401 -104.387)"/><path class="b" d="M374.221,136.316a2.267,2.267,0,1,0,2.268-2.266A2.267,2.267,0,0,0,374.221,136.316Z" transform="translate(-281.62 -104.387)"/><ellipse class="b" cx="2.266" cy="2.266" rx="2.266" ry="2.266" transform="translate(183.681 59.326)"/><ellipse class="b" cx="2.266" cy="2.266" rx="2.266" ry="2.266" transform="translate(153.321 59.326)"/><path class="b" d="M362.363,147.9a2.266,2.266,0,1,0,2.266-2.266A2.265,2.265,0,0,0,362.363,147.9Z" transform="translate(-239.401 -86.311)"/><path class="b" d="M374.221,147.9a2.267,2.267,0,1,0,2.268-2.266A2.267,2.267,0,0,0,374.221,147.9Z" transform="translate(-281.62 -86.311)"/><ellipse class="b" cx="2.266" cy="2.266" rx="2.266" ry="2.266" transform="translate(183.681 89.806)"/><ellipse class="b" cx="2.266" cy="2.266" rx="2.266" ry="2.266" transform="translate(153.321 89.806)"/><path class="b" d="M362.363,159.808a2.266,2.266,0,1,0,2.266-2.266A2.267,2.267,0,0,0,362.363,159.808Z" transform="translate(-239.401 -67.735)"/><path class="b" d="M374.221,159.808a2.267,2.267,0,1,0,2.268-2.266A2.269,2.269,0,0,0,374.221,159.808Z" transform="translate(-281.62 -67.735)"/><ellipse class="b" cx="2.266" cy="2.266" rx="2.266" ry="2.266" transform="translate(183.681 119.468)"/><ellipse class="b" cx="2.266" cy="2.266" rx="2.266" ry="2.266" transform="translate(153.321 119.468)"/><path class="b" d="M362.363,171.393a2.266,2.266,0,1,0,2.266-2.266A2.267,2.267,0,0,0,362.363,171.393Z" transform="translate(-239.401 -49.66)"/><path class="b" d="M374.221,171.393a2.267,2.267,0,1,0,2.268-2.266A2.269,2.269,0,0,0,374.221,171.393Z" transform="translate(-281.62 -49.66)"/><ellipse class="b" cx="2.266" cy="2.266" rx="2.266" ry="2.266" transform="translate(183.681 149.13)"/><ellipse class="b" cx="2.266" cy="2.266" rx="2.266" ry="2.266" transform="translate(153.321 149.13)"/><path class="b" d="M362.363,182.979a2.266,2.266,0,1,0,2.266-2.266A2.265,2.265,0,0,0,362.363,182.979Z" transform="translate(-239.401 -31.583)"/><path class="b" d="M374.221,182.979a2.267,2.267,0,1,0,2.268-2.266A2.267,2.267,0,0,0,374.221,182.979Z" transform="translate(-281.62 -31.583)"/><path class="b" d="M386.674,124.732a2.266,2.266,0,1,0,2.266-2.268A2.267,2.267,0,0,0,386.674,124.732Z" transform="translate(-325.953 -122.464)"/><path class="b" d="M398.532,124.732a2.266,2.266,0,1,0,2.266-2.268A2.267,2.267,0,0,0,398.532,124.732Z" transform="translate(-368.17 -122.464)"/><ellipse class="b" cx="2.266" cy="2.266" rx="2.266" ry="2.266" transform="translate(0.001 0.001)"/><path class="b" d="M386.674,136.316a2.266,2.266,0,1,0,2.266-2.266A2.265,2.265,0,0,0,386.674,136.316Z" transform="translate(-325.953 -104.387)"/><path class="b" d="M398.532,136.316a2.266,2.266,0,1,0,2.266-2.266A2.265,2.265,0,0,0,398.532,136.316Z" transform="translate(-368.17 -104.387)"/><path class="b" d="M410.39,136.316a2.267,2.267,0,1,0,2.268-2.266A2.267,2.267,0,0,0,410.39,136.316Z" transform="translate(-410.39 -104.387)"/><path class="b" d="M386.674,147.9a2.266,2.266,0,1,0,2.266-2.266A2.265,2.265,0,0,0,386.674,147.9Z" transform="translate(-325.953 -86.311)"/><path class="b" d="M398.532,147.9a2.266,2.266,0,1,0,2.266-2.266A2.265,2.265,0,0,0,398.532,147.9Z" transform="translate(-368.17 -86.311)"/><ellipse class="b" cx="2.266" cy="2.266" rx="2.266" ry="2.266" transform="translate(0.001 59.326)"/><path class="b" d="M386.674,159.808a2.266,2.266,0,1,0,2.266-2.266A2.267,2.267,0,0,0,386.674,159.808Z" transform="translate(-325.953 -67.735)"/><path class="b" d="M398.532,159.808a2.266,2.266,0,1,0,2.266-2.266A2.267,2.267,0,0,0,398.532,159.808Z" transform="translate(-368.17 -67.735)"/><ellipse class="b" cx="2.266" cy="2.266" rx="2.266" ry="2.266" transform="translate(0.001 89.806)"/><path class="b" d="M386.674,171.393a2.266,2.266,0,1,0,2.266-2.266A2.267,2.267,0,0,0,386.674,171.393Z" transform="translate(-325.953 -49.66)"/><path class="b" d="M398.532,171.393a2.266,2.266,0,1,0,2.266-2.266A2.267,2.267,0,0,0,398.532,171.393Z" transform="translate(-368.17 -49.66)"/><ellipse class="b" cx="2.266" cy="2.266" rx="2.266" ry="2.266" transform="translate(0.001 119.468)"/><path class="b" d="M386.674,182.979a2.266,2.266,0,1,0,2.266-2.266A2.265,2.265,0,0,0,386.674,182.979Z" transform="translate(-325.953 -31.583)"/><path class="b" d="M398.532,182.979a2.266,2.266,0,1,0,2.266-2.266A2.265,2.265,0,0,0,398.532,182.979Z" transform="translate(-368.17 -31.583)"/><ellipse class="b" cx="2.266" cy="2.266" rx="2.266" ry="2.266" transform="translate(0.001 149.13)"/></g><g transform="translate(1347)"><path class="b" d="M290.619,124.732a2.266,2.266,0,1,0,2.266-2.268A2.267,2.267,0,0,0,290.619,124.732Z" transform="translate(16.023 -122.464)"/><path class="b" d="M302.477,124.732a2.266,2.266,0,1,0,2.266-2.268A2.267,2.267,0,0,0,302.477,124.732Z" transform="translate(-26.194 -122.464)"/><ellipse class="b" cx="2.266" cy="2.266" rx="2.266" ry="2.266" transform="translate(245.922 0.001)"/><path class="b" d="M326.194,124.732a2.266,2.266,0,1,0,2.266-2.268A2.267,2.267,0,0,0,326.194,124.732Z" transform="translate(-110.632 -122.464)"/><path class="b" d="M290.619,136.316a2.266,2.266,0,1,0,2.266-2.266A2.265,2.265,0,0,0,290.619,136.316Z" transform="translate(16.023 -104.387)"/><path class="b" d="M302.477,136.316a2.266,2.266,0,1,0,2.266-2.266A2.265,2.265,0,0,0,302.477,136.316Z" transform="translate(-26.194 -104.387)"/><path class="b" d="M314.336,136.316a2.266,2.266,0,1,0,2.266-2.266A2.265,2.265,0,0,0,314.336,136.316Z" transform="translate(-68.415 -104.387)"/><path class="b" d="M326.194,136.316a2.266,2.266,0,1,0,2.266-2.266A2.265,2.265,0,0,0,326.194,136.316Z" transform="translate(-110.632 -104.387)"/><path class="b" d="M290.619,147.9a2.266,2.266,0,1,0,2.266-2.266A2.265,2.265,0,0,0,290.619,147.9Z" transform="translate(16.023 -86.311)"/><path class="b" d="M302.477,147.9a2.266,2.266,0,1,0,2.266-2.266A2.265,2.265,0,0,0,302.477,147.9Z" transform="translate(-26.194 -86.311)"/><ellipse class="b" cx="2.266" cy="2.266" rx="2.266" ry="2.266" transform="translate(245.922 59.326)"/><path class="b" d="M326.194,147.9a2.266,2.266,0,1,0,2.266-2.266A2.265,2.265,0,0,0,326.194,147.9Z" transform="translate(-110.632 -86.311)"/><path class="b" d="M290.619,159.808a2.266,2.266,0,1,0,2.266-2.266A2.267,2.267,0,0,0,290.619,159.808Z" transform="translate(16.023 -67.735)"/><path class="b" d="M302.477,159.808a2.266,2.266,0,1,0,2.266-2.266A2.267,2.267,0,0,0,302.477,159.808Z" transform="translate(-26.194 -67.735)"/><ellipse class="b" cx="2.266" cy="2.266" rx="2.266" ry="2.266" transform="translate(245.922 89.806)"/><path class="b" d="M326.194,159.808a2.266,2.266,0,1,0,2.266-2.266A2.267,2.267,0,0,0,326.194,159.808Z" transform="translate(-110.632 -67.735)"/><path class="b" d="M290.619,171.393a2.266,2.266,0,1,0,2.266-2.266A2.267,2.267,0,0,0,290.619,171.393Z" transform="translate(16.023 -49.66)"/><path class="b" d="M302.477,171.393a2.266,2.266,0,1,0,2.266-2.266A2.267,2.267,0,0,0,302.477,171.393Z" transform="translate(-26.194 -49.66)"/><ellipse class="b" cx="2.266" cy="2.266" rx="2.266" ry="2.266" transform="translate(245.922 119.468)"/><path class="b" d="M326.194,171.393a2.266,2.266,0,1,0,2.266-2.266A2.267,2.267,0,0,0,326.194,171.393Z" transform="translate(-110.632 -49.66)"/><path class="b" d="M290.619,182.979a2.266,2.266,0,1,0,2.266-2.266A2.265,2.265,0,0,0,290.619,182.979Z" transform="translate(16.023 -31.583)"/><path class="b" d="M302.477,182.979a2.266,2.266,0,1,0,2.266-2.266A2.265,2.265,0,0,0,302.477,182.979Z" transform="translate(-26.194 -31.583)"/><ellipse class="b" cx="2.266" cy="2.266" rx="2.266" ry="2.266" transform="translate(245.922 149.13)"/><path class="b" d="M326.194,182.979a2.266,2.266,0,1,0,2.266-2.266A2.265,2.265,0,0,0,326.194,182.979Z" transform="translate(-110.632 -31.583)"/><ellipse class="b" cx="2.266" cy="2.266" rx="2.266" ry="2.266" transform="translate(183.681 0.001)"/><ellipse class="b" cx="2.266" cy="2.266" rx="2.266" ry="2.266" transform="translate(153.321 0.001)"/><path class="b" d="M362.363,124.732a2.266,2.266,0,1,0,2.266-2.268A2.267,2.267,0,0,0,362.363,124.732Z" transform="translate(-239.401 -122.464)"/><path class="b" d="M374.221,124.732a2.267,2.267,0,1,0,2.268-2.268A2.269,2.269,0,0,0,374.221,124.732Z" transform="translate(-281.62 -122.464)"/><path class="b" d="M338.646,136.316a2.266,2.266,0,1,0,2.266-2.266A2.265,2.265,0,0,0,338.646,136.316Z" transform="translate(-154.963 -104.387)"/><path class="b" d="M350.505,136.316a2.266,2.266,0,1,0,2.266-2.266A2.265,2.265,0,0,0,350.505,136.316Z" transform="translate(-197.184 -104.387)"/><path class="b" d="M362.363,136.316a2.266,2.266,0,1,0,2.266-2.266A2.265,2.265,0,0,0,362.363,136.316Z" transform="translate(-239.401 -104.387)"/><path class="b" d="M374.221,136.316a2.267,2.267,0,1,0,2.268-2.266A2.267,2.267,0,0,0,374.221,136.316Z" transform="translate(-281.62 -104.387)"/><ellipse class="b" cx="2.266" cy="2.266" rx="2.266" ry="2.266" transform="translate(183.681 59.326)"/><ellipse class="b" cx="2.266" cy="2.266" rx="2.266" ry="2.266" transform="translate(153.321 59.326)"/><path class="b" d="M362.363,147.9a2.266,2.266,0,1,0,2.266-2.266A2.265,2.265,0,0,0,362.363,147.9Z" transform="translate(-239.401 -86.311)"/><path class="b" d="M374.221,147.9a2.267,2.267,0,1,0,2.268-2.266A2.267,2.267,0,0,0,374.221,147.9Z" transform="translate(-281.62 -86.311)"/><ellipse class="b" cx="2.266" cy="2.266" rx="2.266" ry="2.266" transform="translate(183.681 89.806)"/><ellipse class="b" cx="2.266" cy="2.266" rx="2.266" ry="2.266" transform="translate(153.321 89.806)"/><path class="b" d="M362.363,159.808a2.266,2.266,0,1,0,2.266-2.266A2.267,2.267,0,0,0,362.363,159.808Z" transform="translate(-239.401 -67.735)"/><path class="b" d="M374.221,159.808a2.267,2.267,0,1,0,2.268-2.266A2.269,2.269,0,0,0,374.221,159.808Z" transform="translate(-281.62 -67.735)"/><ellipse class="b" cx="2.266" cy="2.266" rx="2.266" ry="2.266" transform="translate(183.681 119.468)"/><ellipse class="b" cx="2.266" cy="2.266" rx="2.266" ry="2.266" transform="translate(153.321 119.468)"/><path class="b" d="M362.363,171.393a2.266,2.266,0,1,0,2.266-2.266A2.267,2.267,0,0,0,362.363,171.393Z" transform="translate(-239.401 -49.66)"/><path class="b" d="M374.221,171.393a2.267,2.267,0,1,0,2.268-2.266A2.269,2.269,0,0,0,374.221,171.393Z" transform="translate(-281.62 -49.66)"/><ellipse class="b" cx="2.266" cy="2.266" rx="2.266" ry="2.266" transform="translate(183.681 149.13)"/><ellipse class="b" cx="2.266" cy="2.266" rx="2.266" ry="2.266" transform="translate(153.321 149.13)"/><path class="b" d="M362.363,182.979a2.266,2.266,0,1,0,2.266-2.266A2.265,2.265,0,0,0,362.363,182.979Z" transform="translate(-239.401 -31.583)"/><path class="b" d="M374.221,182.979a2.267,2.267,0,1,0,2.268-2.266A2.267,2.267,0,0,0,374.221,182.979Z" transform="translate(-281.62 -31.583)"/><path class="b" d="M386.674,124.732a2.266,2.266,0,1,0,2.266-2.268A2.267,2.267,0,0,0,386.674,124.732Z" transform="translate(-325.953 -122.464)"/><path class="b" d="M398.532,124.732a2.266,2.266,0,1,0,2.266-2.268A2.267,2.267,0,0,0,398.532,124.732Z" transform="translate(-368.17 -122.464)"/><ellipse class="b" cx="2.266" cy="2.266" rx="2.266" ry="2.266" transform="translate(0.001 0.001)"/><path class="b" d="M386.674,136.316a2.266,2.266,0,1,0,2.266-2.266A2.265,2.265,0,0,0,386.674,136.316Z" transform="translate(-325.953 -104.387)"/><path class="b" d="M398.532,136.316a2.266,2.266,0,1,0,2.266-2.266A2.265,2.265,0,0,0,398.532,136.316Z" transform="translate(-368.17 -104.387)"/><path class="b" d="M410.39,136.316a2.267,2.267,0,1,0,2.268-2.266A2.267,2.267,0,0,0,410.39,136.316Z" transform="translate(-410.39 -104.387)"/><path class="b" d="M386.674,147.9a2.266,2.266,0,1,0,2.266-2.266A2.265,2.265,0,0,0,386.674,147.9Z" transform="translate(-325.953 -86.311)"/><path class="b" d="M398.532,147.9a2.266,2.266,0,1,0,2.266-2.266A2.265,2.265,0,0,0,398.532,147.9Z" transform="translate(-368.17 -86.311)"/><ellipse class="b" cx="2.266" cy="2.266" rx="2.266" ry="2.266" transform="translate(0.001 59.326)"/><path class="b" d="M386.674,159.808a2.266,2.266,0,1,0,2.266-2.266A2.267,2.267,0,0,0,386.674,159.808Z" transform="translate(-325.953 -67.735)"/><path class="b" d="M398.532,159.808a2.266,2.266,0,1,0,2.266-2.266A2.267,2.267,0,0,0,398.532,159.808Z" transform="translate(-368.17 -67.735)"/><ellipse class="b" cx="2.266" cy="2.266" rx="2.266" ry="2.266" transform="translate(0.001 89.806)"/><path class="b" d="M386.674,171.393a2.266,2.266,0,1,0,2.266-2.266A2.267,2.267,0,0,0,386.674,171.393Z" transform="translate(-325.953 -49.66)"/><path class="b" d="M398.532,171.393a2.266,2.266,0,1,0,2.266-2.266A2.267,2.267,0,0,0,398.532,171.393Z" transform="translate(-368.17 -49.66)"/><ellipse class="b" cx="2.266" cy="2.266" rx="2.266" ry="2.266" transform="translate(0.001 119.468)"/><path class="b" d="M386.674,182.979a2.266,2.266,0,1,0,2.266-2.266A2.265,2.265,0,0,0,386.674,182.979Z" transform="translate(-325.953 -31.583)"/><path class="b" d="M398.532,182.979a2.266,2.266,0,1,0,2.266-2.266A2.265,2.265,0,0,0,398.532,182.979Z" transform="translate(-368.17 -31.583)"/><ellipse class="b" cx="2.266" cy="2.266" rx="2.266" ry="2.266" transform="translate(0.001 149.13)"/></g><path class="c" d="M1663.311,705.96a2.908,2.908,0,0,0-5.816,0v13.082a2.908,2.908,0,1,0,5.816,0V705.96Zm19.833,10.624a2.909,2.909,0,0,0-4.113-4.116l-9.255,9.253a2.91,2.91,0,0,0,4.113,4.117l9.255-9.254Zm6.51,21.537a2.911,2.911,0,1,0,0-5.823h-13.086a2.912,2.912,0,0,0,0,5.823Zm-10.623,19.835a2.909,2.909,0,0,0,4.113-4.116l-9.255-9.254a2.909,2.909,0,0,0-4.113,4.116l9.255,9.254Zm-21.536,6.508a2.908,2.908,0,0,0,5.816,0V751.372a2.908,2.908,0,0,0-5.816,0v13.092Zm-19.833-10.624a2.91,2.91,0,0,0,4.116,4.116l9.255-9.254a2.91,2.91,0,0,0-4.116-4.116l-9.255,9.254Zm-6.509-21.542a2.911,2.911,0,1,0,0,5.823h13.086a2.911,2.911,0,0,0,0-5.823Zm10.625-19.83a2.91,2.91,0,0,0-4.116,4.116l9.255,9.254a2.911,2.911,0,0,0,4.116-4.117Z" transform="translate(-72.024 -354.044)"/></g><g class="d" transform="translate(526.556 0)"><path class="a" d="M507.591,23.594c10.717,19.8,79.6,46.993,142.862,51.029,285.346,18.2,267.135,92.946,413.18,168.717,122.35,56.183,281.311,35.44,344.215-31.29C1856.3-150.662,391.344-267.6,507.591,23.594Z" transform="translate(879.497 -49.945)"/><path class="a" d="M363.073,483.62c23.393-30.153,86.005-53.379,146.111-73.174s151.147-28.752,213.494-10.163c25,7.452,42.9,18.545,69.21,25.188,51.545,13.016,117.394,5.565,177.766,3.936,69.016-1.863,141.086,5.131,194.74,23.063s85.737,47.609,72.439,75.494c-12.435,26.078-61.8,47.309-119.513,59.3S994.07,603.225,929.571,605.224C682.091,612.889,289.815,578.05,363.073,483.62Z" transform="translate(818.317 89.522)"/><g transform="translate(487 664.491)"><g class="e" transform="translate(0 0)"><path class="f" d="M374.089,750.631H331.624c-22.855,0-41.554,8.576-41.554,19.056h0c0,10.481,18.7,19.056,41.554,19.056H690.692c37.009,0,67.288-13.885,67.288-30.857h0c0-16.972-30.279-30.857-67.287-30.857h0c-15.648,0-28.45-5.871-28.45-13.047h0c0-7.176,12.8-13.047,28.451-13.047h34.24c16.269,0,29.58-6.1,29.58-13.565h0c0-7.461-13.311-13.565-29.58-13.565h-43.3c-6.333,0-11.516-2.377-11.516-5.281h0c0-2.9,5.183-5.281,11.516-5.281h7.633c4.371,0,7.947-1.64,7.947-3.645h0c0-2-3.576-3.645-7.947-3.645H639.184c-10.548,0-11.722,5.714-38.366,5.714H524.05c-5.7,0-10.371,2.141-10.371,4.755h0c0,2.615,4.667,4.755,10.371,4.755h9.959c8.265,0,15.027,3.1,15.027,6.891h0c0,3.79-6.762,6.891-15.027,6.891H519.021c-40.474,0-46.19,4.85-53.279,14.5s-43.9,10.425-43.9,10.425H371.5c-12.455,0-22.645,4.673-22.645,10.384h0c0,5.711,10.19,10.384,22.645,10.384h2.592c11.979,0,21.781,4.5,21.781,9.988h0c0,5.493-9.8,9.988-21.781,9.988Zm337.482-87.387c-4.39,0-7.948-1.632-7.948-3.645s3.558-3.645,7.948-3.645,7.948,1.632,7.948,3.645S715.96,663.244,711.571,663.244Z" transform="translate(354.517 -644.261)"/><path class="f" d="M-641.36,736.131h-42.465c-22.856,0-41.554,8.576-41.554,19.056h0c0,10.481,18.7,19.056,41.554,19.056h359.068c37.009,0,67.288-13.885,67.288-30.857h0c0-16.972-30.279-30.857-67.287-30.857h0c-15.648,0-28.45-5.871-28.45-13.047h0c0-7.176,12.8-13.047,28.451-13.047h34.24c16.269,0,29.579-6.1,29.579-13.565h0c0-7.461-13.31-13.565-29.579-13.565h-43.3c-6.334,0-11.516-2.376-11.516-5.281h0c0-2.9,5.182-5.281,11.516-5.281h7.633c4.37,0,7.947-1.64,7.947-3.645h0c0-2-3.577-3.645-7.947-3.645h-50.084c-10.548,0-11.723,5.714-38.366,5.714H-491.4c-5.705,0-10.371,2.141-10.371,4.756h0c0,2.615,4.667,4.756,10.371,4.756h9.959c8.265,0,15.027,3.1,15.027,6.891h0c0,3.79-6.762,6.891-15.027,6.891h-14.988c-40.474,0-46.191,4.85-53.279,14.5s-43.905,10.426-43.905,10.426h-50.34c-12.455,0-22.645,4.673-22.645,10.384h0c0,5.711,10.19,10.384,22.645,10.384h2.592c11.979,0,21.78,4.5,21.78,9.988h0c0,5.493-9.8,9.988-21.78,9.988Zm337.482-87.387c-4.39,0-7.948-1.632-7.948-3.645s3.558-3.645,7.948-3.645,7.948,1.632,7.948,3.645S-299.49,648.744-303.878,648.744Z" transform="translate(354.517 -636.41)"/><path class="f" d="M-99.207,434.94l-41.365-.645-1.075-.017c-22.843-.356-40.9-9.218-40.12-19.692h0c.776-10.475,20.1-18.754,42.941-18.4l121.243,1.889L3.3,398.4l216.737,3.377c36.988.576,66.222,14.925,64.965,31.887h0c-1.256,16.962-32.546,30.368-69.533,29.792h0c-15.639-.244-28.868,5.425-29.4,12.6h0c-.531,7.172,11.829,13.239,27.468,13.483l34.221.533c16.259.254,29.11,6.561,28.558,14.018h0c-.553,7.456-14.307,13.349-30.567,13.1l-43.273-.674c-6.33-.1-11.685,2.2-11.9,5.1h0c-.215,2.9,4.788,5.359,11.118,5.457l7.629.119c4.368.068,7.821,1.763,7.672,3.766h0c-.148,2-3.844,3.587-8.212,3.519l-28.59-.446-21.465-.334c-10.542-.164-11.293-5.894-37.921-6.308l-76.723-1.2c-5.7-.089-10.207-2.3-10.013-4.914h0c.193-2.614,5.016-4.68,10.717-4.591l9.953.155c8.26.129,15.247-2.866,15.528-6.653h0c.281-3.787-6.248-6.992-14.508-7.121l-14.979-.234c-40.45-.63-45.8-5.567-52.175-15.319s-43.108-11.1-43.108-11.1l-50.311-.784c-12.447-.194-22.286-5.023-21.863-10.731h0c.423-5.708,10.953-10.22,23.4-10.026l2.59.04c11.973.187,22.1-4.153,22.508-9.643h0c.407-5.491-9.056-10.135-21.029-10.321Zm330.818,92.591c-4.387-.068-8.065,1.507-8.214,3.519s3.287,3.7,7.674,3.767,8.064-1.507,8.213-3.519S236,527.6,231.611,527.532Z" transform="translate(354.517 -503.614)"/></g></g></g><path class="f" d="M213.421,375.03H105.553C47.5,375.03,0,409,0,450.514H0C0,492.031,47.5,526,105.553,526h912.089c94.009,0,170.922-55,170.922-122.229h0c0-67.228-76.913-122.231-170.919-122.231h0c-39.748,0-72.267-23.255-72.267-51.68h0c0-28.425,32.522-51.682,72.27-51.682h86.975c41.326,0,75.138-24.18,75.138-53.731h0c0-29.553-33.812-53.733-75.138-53.733H994.636c-16.087,0-29.252-9.415-29.252-20.919h0c0-11.5,13.166-20.917,29.252-20.917h19.389c11.1,0,20.187-6.5,20.187-14.438h0c0-7.94-9.084-14.438-20.187-14.438H886.8c-26.794,0-29.776,22.636-97.456,22.636h-195c-14.489,0-26.344,8.48-26.344,18.837v0c0,10.36,11.855,18.837,26.344,18.837h25.3c20.994,0,38.171,12.285,38.171,27.3v0c0,15.012-17.177,27.3-38.171,27.3H581.571c-102.81,0-117.33,19.213-135.337,57.428s-111.525,41.3-111.525,41.3H206.837c-31.638,0-57.522,18.511-57.522,41.134v0c0,22.623,25.884,41.133,57.522,41.133h6.584c30.428,0,55.327,17.806,55.327,39.566h0c0,21.76-24.9,39.564-55.327,39.564ZM1070.678,28.876c-11.151,0-20.189-6.465-20.189-14.438S1059.526,0,1070.678,0s20.189,6.465,20.189,14.438S1081.827,28.876,1070.678,28.876Z" transform="translate(-224)"/></g><g transform="translate(1801.992 358.464)"><path class="b" d="M10.919,35.112a2.4,2.4,0,1,0,2.4-2.4A2.395,2.395,0,0,0,10.919,35.112Z" transform="translate(313.232 -32.716)"/><path class="b" d="M54.322,35.112a2.4,2.4,0,1,0,2.4-2.4A2.395,2.395,0,0,0,54.322,35.112Z" transform="translate(237.735 -32.716)"/><circle class="b" cx="2.395" cy="2.395" r="2.395" transform="translate(259.963 0)"/><path class="b" d="M141.126,35.112a2.4,2.4,0,1,0,2.4-2.4A2.395,2.395,0,0,0,141.126,35.112Z" transform="translate(86.744 -32.716)"/><path class="b" d="M10.919,77.516a2.4,2.4,0,1,0,2.4-2.4A2.4,2.4,0,0,0,10.919,77.516Z" transform="translate(313.232 -43.765)"/><path class="b" d="M54.322,77.516a2.4,2.4,0,1,0,2.4-2.4A2.4,2.4,0,0,0,54.322,77.516Z" transform="translate(237.735 -43.765)"/><path class="b" d="M97.724,77.516a2.4,2.4,0,1,0,2.4-2.4A2.4,2.4,0,0,0,97.724,77.516Z" transform="translate(162.239 -43.765)"/><path class="b" d="M141.126,77.516a2.4,2.4,0,1,0,2.4-2.4A2.4,2.4,0,0,0,141.126,77.516Z" transform="translate(86.744 -43.765)"/><path class="b" d="M10.919,119.921a2.4,2.4,0,1,0,2.4-2.4A2.4,2.4,0,0,0,10.919,119.921Z" transform="translate(313.232 -54.814)"/><path class="b" d="M54.322,119.921a2.4,2.4,0,1,0,2.4-2.4A2.4,2.4,0,0,0,54.322,119.921Z" transform="translate(237.735 -54.814)"/><circle class="b" cx="2.395" cy="2.395" r="2.395" transform="translate(259.963 62.712)"/><path class="b" d="M141.126,119.921a2.4,2.4,0,1,0,2.4-2.4A2.4,2.4,0,0,0,141.126,119.921Z" transform="translate(86.744 -54.814)"/><path class="b" d="M10.919,163.5a2.4,2.4,0,1,0,2.4-2.4A2.395,2.395,0,0,0,10.919,163.5Z" transform="translate(313.232 -66.167)"/><path class="b" d="M54.322,163.5a2.4,2.4,0,1,0,2.4-2.4A2.395,2.395,0,0,0,54.322,163.5Z" transform="translate(237.735 -66.167)"/><circle class="b" cx="2.395" cy="2.395" r="2.395" transform="translate(259.963 94.933)"/><path class="b" d="M141.126,163.5a2.4,2.4,0,1,0,2.4-2.4A2.395,2.395,0,0,0,141.126,163.5Z" transform="translate(86.744 -66.167)"/><path class="b" d="M10.919,205.9a2.4,2.4,0,1,0,2.4-2.4A2.395,2.395,0,0,0,10.919,205.9Z" transform="translate(313.232 -77.216)"/><path class="b" d="M54.322,205.9a2.4,2.4,0,1,0,2.4-2.4A2.395,2.395,0,0,0,54.322,205.9Z" transform="translate(237.735 -77.216)"/><circle class="b" cx="2.395" cy="2.395" r="2.395" transform="translate(259.963 126.289)"/><path class="b" d="M141.126,205.9a2.4,2.4,0,1,0,2.4-2.4A2.395,2.395,0,0,0,141.126,205.9Z" transform="translate(86.744 -77.216)"/><path class="b" d="M10.919,248.306a2.4,2.4,0,1,0,2.4-2.4A2.395,2.395,0,0,0,10.919,248.306Z" transform="translate(313.232 -88.265)"/><path class="b" d="M54.322,248.306a2.4,2.4,0,1,0,2.4-2.4A2.395,2.395,0,0,0,54.322,248.306Z" transform="translate(237.735 -88.265)"/><circle class="b" cx="2.395" cy="2.395" r="2.395" transform="translate(259.963 157.645)"/><path class="b" d="M141.126,248.306a2.4,2.4,0,1,0,2.4-2.4A2.395,2.395,0,0,0,141.126,248.306Z" transform="translate(86.744 -88.265)"/><circle class="b" cx="2.395" cy="2.395" r="2.395" transform="translate(194.169 0)"/><circle class="b" cx="2.395" cy="2.395" r="2.395" transform="translate(162.075 0)"/><path class="b" d="M273.507,35.112a2.4,2.4,0,1,0,2.4-2.4A2.4,2.4,0,0,0,273.507,35.112Z" transform="translate(-143.525 -32.716)"/><path class="b" d="M316.909,35.112a2.4,2.4,0,1,0,2.4-2.4A2.4,2.4,0,0,0,316.909,35.112Z" transform="translate(-219.021 -32.716)"/><path class="b" d="M186.7,77.516a2.4,2.4,0,1,0,2.4-2.4A2.4,2.4,0,0,0,186.7,77.516Z" transform="translate(7.467 -43.765)"/><path class="b" d="M230.1,77.516a2.4,2.4,0,1,0,2.4-2.4A2.4,2.4,0,0,0,230.1,77.516Z" transform="translate(-68.028 -43.765)"/><path class="b" d="M273.507,77.516a2.4,2.4,0,1,0,2.4-2.4A2.4,2.4,0,0,0,273.507,77.516Z" transform="translate(-143.525 -43.765)"/><path class="b" d="M316.909,77.516a2.4,2.4,0,1,0,2.4-2.4A2.4,2.4,0,0,0,316.909,77.516Z" transform="translate(-219.021 -43.765)"/><circle class="b" cx="2.395" cy="2.395" r="2.395" transform="translate(194.169 62.712)"/><circle class="b" cx="2.395" cy="2.395" r="2.395" transform="translate(162.075 62.712)"/><path class="b" d="M273.507,119.921a2.4,2.4,0,1,0,2.4-2.4A2.4,2.4,0,0,0,273.507,119.921Z" transform="translate(-143.525 -54.814)"/><path class="b" d="M316.909,119.921a2.4,2.4,0,1,0,2.4-2.4A2.4,2.4,0,0,0,316.909,119.921Z" transform="translate(-219.021 -54.814)"/><circle class="b" cx="2.395" cy="2.395" r="2.395" transform="translate(194.169 94.933)"/><circle class="b" cx="2.395" cy="2.395" r="2.395" transform="translate(162.075 94.933)"/><path class="b" d="M273.507,163.5a2.4,2.4,0,1,0,2.4-2.4A2.4,2.4,0,0,0,273.507,163.5Z" transform="translate(-143.525 -66.167)"/><path class="b" d="M316.909,163.5a2.4,2.4,0,1,0,2.4-2.4A2.4,2.4,0,0,0,316.909,163.5Z" transform="translate(-219.021 -66.167)"/><circle class="b" cx="2.395" cy="2.395" r="2.395" transform="translate(194.169 126.289)"/><circle class="b" cx="2.395" cy="2.395" r="2.395" transform="translate(162.075 126.289)"/><path class="b" d="M273.507,205.9a2.4,2.4,0,1,0,2.4-2.4A2.4,2.4,0,0,0,273.507,205.9Z" transform="translate(-143.525 -77.216)"/><path class="b" d="M316.909,205.9a2.4,2.4,0,1,0,2.4-2.4A2.4,2.4,0,0,0,316.909,205.9Z" transform="translate(-219.021 -77.216)"/><circle class="b" cx="2.395" cy="2.395" r="2.395" transform="translate(194.169 157.645)"/><circle class="b" cx="2.395" cy="2.395" r="2.395" transform="translate(162.075 157.645)"/><path class="b" d="M273.507,248.306a2.4,2.4,0,1,0,2.4-2.4A2.4,2.4,0,0,0,273.507,248.306Z" transform="translate(-143.525 -88.265)"/><path class="b" d="M316.909,248.306a2.4,2.4,0,1,0,2.4-2.4A2.4,2.4,0,0,0,316.909,248.306Z" transform="translate(-219.021 -88.265)"/><path class="b" d="M362.485,35.112a2.4,2.4,0,1,0,2.4-2.4A2.4,2.4,0,0,0,362.485,35.112Z" transform="translate(-298.298 -32.716)"/><path class="b" d="M405.887,35.112a2.4,2.4,0,1,0,2.4-2.4A2.395,2.395,0,0,0,405.887,35.112Z" transform="translate(-373.793 -32.716)"/><circle class="b" cx="2.395" cy="2.395" r="2.395" transform="translate(0 0)"/><path class="b" d="M362.485,77.516a2.4,2.4,0,1,0,2.4-2.4A2.4,2.4,0,0,0,362.485,77.516Z" transform="translate(-298.298 -43.765)"/><path class="b" d="M405.887,77.516a2.4,2.4,0,1,0,2.4-2.4A2.4,2.4,0,0,0,405.887,77.516Z" transform="translate(-373.793 -43.765)"/><path class="b" d="M449.29,77.516a2.4,2.4,0,1,0,2.4-2.4A2.4,2.4,0,0,0,449.29,77.516Z" transform="translate(-449.29 -43.765)"/><path class="b" d="M362.485,119.921a2.4,2.4,0,1,0,2.4-2.4A2.4,2.4,0,0,0,362.485,119.921Z" transform="translate(-298.298 -54.814)"/><path class="b" d="M405.887,119.921a2.4,2.4,0,1,0,2.4-2.4A2.4,2.4,0,0,0,405.887,119.921Z" transform="translate(-373.793 -54.814)"/><circle class="b" cx="2.395" cy="2.395" r="2.395" transform="translate(0 62.712)"/><path class="b" d="M362.485,163.5a2.4,2.4,0,1,0,2.4-2.4A2.4,2.4,0,0,0,362.485,163.5Z" transform="translate(-298.298 -66.167)"/><path class="b" d="M405.887,163.5a2.4,2.4,0,1,0,2.4-2.4A2.395,2.395,0,0,0,405.887,163.5Z" transform="translate(-373.793 -66.167)"/><circle class="b" cx="2.395" cy="2.395" r="2.395" transform="translate(0 94.933)"/><path class="b" d="M362.485,205.9a2.4,2.4,0,1,0,2.4-2.4A2.4,2.4,0,0,0,362.485,205.9Z" transform="translate(-298.298 -77.216)"/><path class="b" d="M405.887,205.9a2.4,2.4,0,1,0,2.4-2.4A2.395,2.395,0,0,0,405.887,205.9Z" transform="translate(-373.793 -77.216)"/><circle class="b" cx="2.395" cy="2.395" r="2.395" transform="translate(0 126.289)"/><path class="b" d="M362.485,248.306a2.4,2.4,0,1,0,2.4-2.4A2.4,2.4,0,0,0,362.485,248.306Z" transform="translate(-298.298 -88.265)"/><path class="b" d="M405.887,248.306a2.4,2.4,0,1,0,2.4-2.4A2.395,2.395,0,0,0,405.887,248.306Z" transform="translate(-373.793 -88.265)"/><circle class="b" cx="2.395" cy="2.395" r="2.395" transform="translate(0 157.645)"/></g></g></svg>