<svg xmlns="http://www.w3.org/2000/svg" width="850.53" height="693.348" viewBox="0 0 850.53 693.348"><defs><style>.a{fill:#d3766a;}.b{fill:#263238;}.c{fill:#ff6e4a;}.d,.o{fill:#fff;}.e{fill:#dd6a57;}.f{fill:#455a64;}.g{fill:#333;}.h{fill:none;stroke:#f4a69d;stroke-linecap:round;stroke-linejoin:round;stroke-width:0;}.i{fill:#eb9481;}.j{fill:#ebebeb;}.k{fill:#ac6359;}.l{fill:#24669a;}.m{fill:#ff9bbc;}.n{fill:#ffc727;}.o{stroke:#263238;stroke-miterlimit:10;}</style></defs><g transform="translate(-25.317 -78.1)"><g transform="translate(300.61 78.1)"><g transform="translate(165.592 169.37)"><g transform="translate(38.643 142.493)"><path class="a" d="M301.23,298.558c2.491,7.265-.239,18.889,5.47,18.709,5.088-.161,6.2-8.4,6.2-8.4s1.749,9.686,7.173,7.953,4.793-11,4.793-11,1.095,8.128,6.382,6.012,6.189-10.093,6.189-10.093,1.909,2.11,4.971-1.062c4.383-4.538,2.521-18.045-.125-24.867s-17.377-29.848-19.7-33.331l-23.7,8.96-20.235,7.649s-.894,14.3-.461,21.612,8.545,30.99,14.556,29.375,0-18.242-.581-22.634.336-5.274,2.138-3.5C295.477,285.1,300.128,295.342,301.23,298.558Z" transform="translate(-278.064 -242.475)"/><g transform="translate(28.235 30.836)"><path class="b" d="M299.4,290.067c.732-11.587-.951-16.781-6.43-26.808-.108-.2.161-.4.29-.2,6.259,9.331,9.312,15.542,6.7,27.078C299.833,290.695,299.366,290.617,299.4,290.067Z" transform="translate(-292.946 -254.918)"/><path class="b" d="M305.985,289.775c-.292-12.1-2.068-17.749-7.033-28.675-.07-.154.184-.29.268-.139,5.768,10.31,8.671,16.576,7.373,28.7C306.533,290.213,306,290.327,305.985,289.775Z" transform="translate(-287.568 -256.784)"/><path class="b" d="M313.572,287.027c-1.127-11.693-2.808-17.973-8.989-27.962a.216.216,0,0,1,.353-.249c7.295,9.572,9.45,17.392,8.989,28.138C313.893,287.688,313.645,287.762,313.572,287.027Z" transform="translate(-282.537 -258.728)"/></g></g><path class="a" d="M266.976,171.936c29.626,36.657,69.7,126.483,74.5,139.286,3.263,8.69-42.264,26.947-43.6,20.716-1.706-7.978-31.483-107.211-38.473-144.289C255.559,167.2,260.856,164.362,266.976,171.936Z" transform="translate(-257.331 -166.717)"/><path class="c" d="M259.374,197.715c4.872,33.864,33.972,127.811,33.972,127.811l34.517-13.131,17.413-6.635s-49.291-93.814-70.068-124.908c-1.611-2.391-3.079-4.451-4.447-6.179C257.665,158.016,255.62,171.612,259.374,197.715Z" transform="translate(-257.694 -167.37)"/><g transform="translate(7.209 2.9)"><path class="d" d="M295.015,238.681a13.305,13.305,0,0,1-.474-3.667,13.023,13.023,0,0,1,.474-3.667,13.013,13.013,0,0,1,.474,3.667A13.153,13.153,0,0,1,295.015,238.681Z" transform="translate(-231.846 -112.867)"/><path class="d" d="M261.97,176.234a13.221,13.221,0,0,1-.474-3.667,13.018,13.018,0,0,1,.474-3.667,14.416,14.416,0,0,1,0,7.335Z" transform="translate(-261.496 -168.899)"/><path class="d" d="M282.1,225.557a13.232,13.232,0,0,1,3.667-.474,13.02,13.02,0,0,1,3.667.474,13.018,13.018,0,0,1-3.667.474A13.157,13.157,0,0,1,282.1,225.557Z" transform="translate(-243.011 -118.487)"/><path class="d" d="M272.663,200.858a13.222,13.222,0,0,1,3.667-.474,13.02,13.02,0,0,1,3.667.474,13.019,13.019,0,0,1-3.667.474A13.151,13.151,0,0,1,272.663,200.858Z" transform="translate(-251.476 -140.649)"/><path class="d" d="M289.783,217.255A13.245,13.245,0,0,1,286.854,215a13,13,0,0,1-2.258-2.929,13.049,13.049,0,0,1,2.929,2.258A13.243,13.243,0,0,1,289.783,217.255Z" transform="translate(-240.769 -130.165)"/><path class="d" d="M270.633,186.923a13.246,13.246,0,0,1-2.929-2.258,13.047,13.047,0,0,1-2.258-2.929,13.042,13.042,0,0,1,2.929,2.258A13.246,13.246,0,0,1,270.633,186.923Z" transform="translate(-257.952 -157.381)"/><path class="d" d="M276.369,236.833a13.235,13.235,0,0,1-2.927-2.258,13.054,13.054,0,0,1-2.26-2.929,13,13,0,0,1,2.929,2.258A13.189,13.189,0,0,1,276.369,236.833Z" transform="translate(-252.805 -112.598)"/><path class="d" d="M277.049,214.044a13.185,13.185,0,0,1-2.26,2.927,13,13,0,0,1-2.927,2.26,13,13,0,0,1,2.258-2.929A13.187,13.187,0,0,1,277.049,214.044Z" transform="translate(-252.195 -128.392)"/><path class="d" d="M289.076,241a13.141,13.141,0,0,1-2.26,2.927,12.989,12.989,0,0,1-2.927,2.26,13,13,0,0,1,2.258-2.929A13.147,13.147,0,0,1,289.076,241Z" transform="translate(-241.404 -104.203)"/><path class="d" d="M269.266,191.32a13.244,13.244,0,0,1-2.258,2.929,13.044,13.044,0,0,1-2.929,2.258,13.047,13.047,0,0,1,2.258-2.929A13.243,13.243,0,0,1,269.266,191.32Z" transform="translate(-259.178 -148.781)"/></g><path class="b" d="M275.536,253.993c20.477-9.648,43.453-16.673,47.371-18.183.184-.072.277.235.087.3-3.922,1.281-29.313,12.167-47.363,18.214C275.422,254.391,275.339,254.085,275.536,253.993Z" transform="translate(-241.79 -105.972)"/><path class="b" d="M324.506,313.6l-31.153,11.858s-29.1-93.953-33.98-127.819c-2.466-17.113-2.428-28.838,1.575-30.186Z" transform="translate(-257.696 -167.299)"/></g><g transform="translate(0 272.96)"><g transform="translate(136.443 0.064)"><g transform="translate(6.125 302.089)"><path class="e" d="M245.563,381.227s.013,70,.011,70.047c-.068,13.387.11,25.124.77,31.187a.2.2,0,0,0,.011.1c.247,2.286.562,3.747.968,4.14.03.032.046.066.078.083,3.971,2.719,110.931,6.382,114.7,5.254,3.789-1.112.856-11.972-3.182-15.425-4.07-3.455-44.379-23.171-44.379-23.171l-.677-69.969Z" transform="translate(-245.561 -381.227)"/><path class="f" d="M245.573,410.573s0,14.322,0,14.37c-.068,13.387.11,25.124.77,31.187a.2.2,0,0,0,.011.1,18.159,18.159,0,0,0,.968,4.14c.03.032.046.066.078.083,3.971,2.719,110.931,6.382,114.7,5.254,3.789-1.112.856-11.972-3.182-15.425-4.07-3.455-44.379-23.171-44.379-23.171l.2-14.584Z" transform="translate(-245.561 -354.896)"/><g transform="translate(0.007 69.457)"><path class="c" d="M362.1,459.191c-3.777,1.131-110.73-2.529-114.709-5.257-1.531-1.009-1.907-16.626-1.818-35.505l.008-.592,69.026,1.592-.066,1.169s40.311,19.713,44.375,23.173C362.949,447.217,365.882,458.075,362.1,459.191Z" transform="translate(-245.565 -417.836)"/><g transform="translate(6.704 2.441)"><path class="b" d="M357.864,439c-18.013-1.059-90.769-3.633-108.656-3.313-.144,0-.148.1,0,.114,17.831,1.44,90.6,3.425,108.649,3.495C358.236,439.3,358.244,439.027,357.864,439Z" transform="translate(-249.098 -404.28)"/><path class="g" d="M295.112,419.848c-7.048-1.565-15.764-.774-21.357,4.1-.216.188.055.493.286.429a99.844,99.844,0,0,1,21.012-3.629A.454.454,0,0,0,295.112,419.848Z" transform="translate(-227.046 -419.122)"/><path class="g" d="M297.755,421.569c-7.048-1.569-15.763-.776-21.358,4.092-.216.19.055.5.288.431a99.832,99.832,0,0,1,21.01-3.629A.453.453,0,0,0,297.755,421.569Z" transform="translate(-224.674 -417.58)"/><path class="g" d="M300.4,423.286c-7.05-1.565-15.764-.774-21.357,4.1-.218.188.053.493.287.429a99.849,99.849,0,0,1,21.012-3.63A.454.454,0,0,0,300.4,423.286Z" transform="translate(-222.303 -416.038)"/></g></g></g><path class="g" d="M242.332,264.558,245,473.772,246.575,597.1l74.869-1.5L306.8,260.381,306.051,222H242.836Z" transform="translate(-242.332 -222.004)"/><g transform="translate(7.22 55.353)"><g transform="translate(0 305.537)"><path d="M314.891,412.431c-11.689-.1-8.333-.237-20.022-.207-5.72.013-43.313.142-48.644,1.091a.125.125,0,0,0,0,.239c5.356.82,42.937.036,48.657-.087,11.685-.254,8.327-.309,20.01-.694A.171.171,0,0,0,314.891,412.431Z" transform="translate(-246.138 -412.22)"/></g><path d="M264.882,251.3a.127.127,0,0,1,.254.006c.032,19.578.613,39.15,1.089,58.718s1.043,39.137,1.575,58.705c1.059,39.116,2.635,78.213,4.079,117.316q1.218,32.89,3.036,65.771c.009.146-.218.138-.228-.008-2.84-39.063-5.559-78.141-7.109-117.277-1.548-39.1-2.675-78.22-2.857-117.357C264.62,295.215,264.918,273.256,264.882,251.3Z" transform="translate(-229.482 -251.179)"/></g><path d="M242.332,264.558,245,473.772,295.176,222h-52.34Z" transform="translate(-242.332 -222.004)"/></g><g transform="translate(0 302.481)"><path class="e" d="M298.086,383.168s-8.963,66.719-8.963,66.769c-.085,13.387-.4,25.12-1.129,31.176a.2.2,0,0,1-.013.1c-.273,2.284-.6,3.741-1.015,4.128-.03.032-.046.066-.078.083-4,2.673-111,5.1-114.756,3.931-3.776-1.154-.717-11.979,3.36-15.387,4.11-3.408,44.641-22.659,44.641-22.659L231.367,381.4Z" transform="translate(-170.417 -381.4)"/><path class="f" d="M290.288,409.972c-.693,8.363-1.165,14.279-1.165,14.328-.085,13.387-.4,25.12-1.129,31.176a.2.2,0,0,1-.013.1,18.094,18.094,0,0,1-1.015,4.128c-.03.032-.046.066-.078.084-4,2.673-111,5.1-114.756,3.931-3.776-1.154-.717-11.979,3.36-15.387,4.11-3.407,44.641-22.659,44.641-22.659l1.336-14.757Z" transform="translate(-170.417 -355.763)"/><g transform="translate(0.004 67.947)"><path class="c" d="M172.129,457.224c3.764,1.174,110.751-1.256,114.762-3.937,1.542-.994,2.1-16.6,2.225-35.483,0-.2,0-.395,0-.592l-69.04.8.053,1.171s-40.535,19.246-44.637,22.661C171.421,445.241,168.361,456.065,172.129,457.224Z" transform="translate(-170.419 -417.213)"/><g transform="translate(2.544 0.515)"><path class="b" d="M172.041,437.123c18.024-.854,90.805-2.59,108.687-2.062.146,0,.148.1,0,.112-17.846,1.237-90.638,2.383-108.683,2.245C171.667,437.415,171.662,437.14,172.041,437.123Z" transform="translate(-171.759 -401.802)"/><path class="b" d="M192.714,418.136c7.067-1.486,15.772-.592,21.31,4.341.214.192-.061.493-.292.425a99.872,99.872,0,0,0-20.969-3.869A.455.455,0,0,1,192.714,418.136Z" transform="translate(-153.281 -417.484)"/><path class="b" d="M190.051,419.825c7.067-1.486,15.772-.594,21.308,4.339.216.192-.059.493-.29.427a99.754,99.754,0,0,0-20.969-3.87A.454.454,0,0,1,190.051,419.825Z" transform="translate(-155.67 -415.969)"/><path class="b" d="M187.388,421.515c7.067-1.487,15.772-.594,21.308,4.339.216.192-.059.493-.29.425a99.77,99.77,0,0,0-20.969-3.869A.454.454,0,0,1,187.388,421.515Z" transform="translate(-158.059 -414.454)"/></g></g></g><g transform="translate(45.398)"><path class="g" d="M342.685,221.97a.253.253,0,0,1-.017.064c-.275,1.3-4.7,21.813-9.281,39.433-3.332,12.875-6.762,24.188-8.727,25.357-2.227,1.317-13.085,6.128-16.726,7.64L291.32,453.353,269.052,596.3l-74.707-3.9L254.264,221.97Z" transform="translate(-194.345 -221.97)"/><g transform="translate(5.629 37.34)"><path d="M266.014,413.55c-11.664-.761-8.306-.708-19.98-1.338-5.713-.307-43.25-2.3-48.627-1.652a.124.124,0,0,0-.011.237c5.3,1.121,42.867,2.459,48.583,2.658,11.683.4,8.333.161,20.02.434A.17.17,0,0,0,266.014,413.55Z" transform="translate(-197.312 -90.21)"/><path d="M213.391,512.95q2.735-15.319,5.531-30.631,5.641-30.628,11.408-61.232,11.514-61.278,22.7-122.615c4.195-23.1,4.085-20.929,7.756-44.115.027-.161.281-.138.254.023-3.516,20.608-1.852,16.089-5.17,36.731q-4.929,30.659-10.452,61.225c-7.342,40.943-15.043,81.827-22.839,122.687q-3.278,17.181-6.642,34.344c-2.286,11.672-4.891,23.274-7.289,34.921-.053.258-.463.233-.417-.036C210,533.825,211.532,523.362,213.391,512.95Z" transform="translate(-187.517 -230.35)"/><path d="M221.71,267.173c1.954-.5,4.047-.662,6.041-.977,1.611-.256,3.216-.539,4.81-.89a21.021,21.021,0,0,0,8.486-3.573c2.762-2.151,4.168-5.415,5.5-8.549q1.19-2.795,2.44-5.559.6-1.343,1.222-2.677a30.124,30.124,0,0,0,1.508-3.212c.051-.159.307-.074.243.072a21.5,21.5,0,0,0-.679,2.315c-.271.9-.527,1.8-.8,2.694-.5,1.6-.979,3.2-1.506,4.791a38.137,38.137,0,0,1-3.4,8.411c-2.948,4.694-8.221,6.585-13.491,7.251-1.51.192-3.034.3-4.555.385a32.8,32.8,0,0,1-5.758.044A.268.268,0,0,1,221.71,267.173Z" transform="translate(-175.597 -241.651)"/></g></g><g transform="translate(158.969 10.108)"><path class="b" d="M276.727,254.652a142.006,142.006,0,0,0-22.384,10.424.253.253,0,0,0,.209.461c7.54-3.239,15.229-6.337,22.581-9.985A.494.494,0,0,0,276.727,254.652Z" transform="translate(-254.205 -202.782)"/><path class="b" d="M274.546,227.52c-.021-.26-.478-.319-.476-.036a251.88,251.88,0,0,1-1.264,25.192c-.351,3.886-3.476,25.349-10.209,23.784-1.129-.262-1.7-1.372-1.88-3.072-.213-2.043.556-4.552.894-6.583.747-4.493,1.347-9,1.734-13.539a123.2,123.2,0,0,0-.275-25.393.218.218,0,0,0-.434.025c.011,11.729-.3,23.437-2.049,35.054-.844,5.582-3.656,13.987,2.184,14.846,5.948.875,9.794-13.2,10.52-17.055C275.314,250,275.4,238.394,274.546,227.52Z" transform="translate(-249.754 -227.297)"/><path class="b" d="M262.094,253.736a36.061,36.061,0,0,0-1.514,4.451,10.042,10.042,0,0,0-.63,3.656c.025.237.34.26.467.1a12.834,12.834,0,0,0,1.563-3.557c.512-1.376,1.055-2.743,1.527-4.132A.753.753,0,0,0,262.094,253.736Z" transform="translate(-249.073 -203.997)"/></g></g><g transform="translate(94.781 89.524)"><g transform="translate(0 72.45)"><path class="c" d="M220.513,310.055c.269.283,112.663-3.263,113.648-4.451,1.374-1.675-22.684-113.3-41.782-136.933-4.775-5.908-20.86-7.509-27.178-.947-18.3,19.011-21.616,32.593-25.991,45.236-3.239,9.367-6.935,25.255-10.162,41.516C223.7,281.269,219.551,309.03,220.513,310.055Z" transform="translate(-220.374 -163.472)"/><g transform="translate(5.362 22.596)"><path class="d" d="M262.308,230.194a13.238,13.238,0,0,1-.472-3.669,13.1,13.1,0,0,1,.472-3.667,13.031,13.031,0,0,1,.474,3.667A13.174,13.174,0,0,1,262.308,230.194Z" transform="translate(-188.533 -132.784)"/><path class="d" d="M255.426,203.07a13.16,13.16,0,0,1-.474-3.667,13.019,13.019,0,0,1,.474-3.667,13.087,13.087,0,0,1,.472,3.667A13.229,13.229,0,0,1,255.426,203.07Z" transform="translate(-194.71 -157.12)"/><path class="d" d="M236.833,192.34a13.242,13.242,0,0,1-.474-3.669,13.028,13.028,0,0,1,.474-3.667,13.028,13.028,0,0,1,.474,3.667A13.172,13.172,0,0,1,236.833,192.34Z" transform="translate(-211.393 -166.749)"/><path class="d" d="M237.083,224.922a13.161,13.161,0,0,1-.474-3.667,13.021,13.021,0,0,1,.474-3.667,13.019,13.019,0,0,1,.474,3.667A13.158,13.158,0,0,1,237.083,224.922Z" transform="translate(-211.169 -137.513)"/><path class="d" d="M247.746,216.432a13.173,13.173,0,0,1,3.669-.474,13.029,13.029,0,0,1,3.667.474,13.1,13.1,0,0,1-3.667.472A13.24,13.24,0,0,1,247.746,216.432Z" transform="translate(-201.176 -138.975)"/><path class="d" d="M234.032,200.4a13.158,13.158,0,0,1,3.667-.474,13.01,13.01,0,0,1,3.667.474,13.078,13.078,0,0,1-3.667.472A13.228,13.228,0,0,1,234.032,200.4Z" transform="translate(-213.481 -153.357)"/><path class="d" d="M253.268,182.21a13.173,13.173,0,0,1,3.669-.474,13.028,13.028,0,0,1,3.667.474,13.028,13.028,0,0,1-3.667.474A13.171,13.171,0,0,1,253.268,182.21Z" transform="translate(-196.221 -169.681)"/><path class="d" d="M232.533,233.753a13.149,13.149,0,0,1,3.667-.474,13.017,13.017,0,0,1,3.667.474,13.021,13.021,0,0,1-3.667.474A13.152,13.152,0,0,1,232.533,233.753Z" transform="translate(-214.826 -123.433)"/><path class="d" d="M259.123,236.876a13.169,13.169,0,0,1,3.667-.474,13.032,13.032,0,0,1,3.669.474,13.032,13.032,0,0,1-3.669.474A13.237,13.237,0,0,1,259.123,236.876Z" transform="translate(-190.968 -120.631)"/><path class="d" d="M253.5,235.982a13.235,13.235,0,0,1-2.927-2.258,12.99,12.99,0,0,1-2.258-2.929,13.035,13.035,0,0,1,2.927,2.258A13.188,13.188,0,0,1,253.5,235.982Z" transform="translate(-200.668 -125.662)"/><path class="d" d="M233.362,214.426a14.441,14.441,0,0,1-5.187-5.187A13.035,13.035,0,0,1,231.1,211.5,13.25,13.25,0,0,1,233.362,214.426Z" transform="translate(-218.736 -145.003)"/><path class="d" d="M265.566,212.12a13.143,13.143,0,0,1-2.927-2.26,12.947,12.947,0,0,1-2.26-2.928,13,13,0,0,1,2.929,2.258A13.187,13.187,0,0,1,265.566,212.12Z" transform="translate(-189.841 -147.072)"/><path class="d" d="M250.2,192.722a13.19,13.19,0,0,1-2.927-2.258,13,13,0,0,1-2.26-2.929,12.955,12.955,0,0,1,2.929,2.26A13.133,13.133,0,0,1,250.2,192.722Z" transform="translate(-203.629 -164.478)"/><path class="d" d="M276.369,236.833a13.235,13.235,0,0,1-2.927-2.258,13.054,13.054,0,0,1-2.26-2.929,13,13,0,0,1,2.929,2.258A13.189,13.189,0,0,1,276.369,236.833Z" transform="translate(-180.147 -124.898)"/><path class="d" d="M277.049,214.044a13.185,13.185,0,0,1-2.26,2.927,13,13,0,0,1-2.927,2.26,13,13,0,0,1,2.258-2.929A13.187,13.187,0,0,1,277.049,214.044Z" transform="translate(-179.537 -140.692)"/><path class="d" d="M248.454,206.158a13.244,13.244,0,0,1-2.258,2.929,13.045,13.045,0,0,1-2.929,2.258,13.044,13.044,0,0,1,2.258-2.929A13.242,13.242,0,0,1,248.454,206.158Z" transform="translate(-205.195 -147.768)"/><path class="d" d="M228.385,224.941a13.176,13.176,0,0,1-2.258,2.927,13.043,13.043,0,0,1-2.927,2.26,12.949,12.949,0,0,1,2.258-2.929A13.178,13.178,0,0,1,228.385,224.941Z" transform="translate(-223.2 -130.914)"/><path class="d" d="M269.266,191.32a13.244,13.244,0,0,1-2.258,2.929,13.044,13.044,0,0,1-2.929,2.258,13.047,13.047,0,0,1,2.258-2.929A13.243,13.243,0,0,1,269.266,191.32Z" transform="translate(-186.521 -161.081)"/><path class="d" d="M247.087,175.382a13.234,13.234,0,0,1-2.258,2.927,12.99,12.99,0,0,1-2.929,2.258,13.036,13.036,0,0,1,2.258-2.927A13.185,13.185,0,0,1,247.087,175.382Z" transform="translate(-206.421 -175.382)"/></g></g><g transform="translate(32.364)"><g transform="translate(12.314 53.498)"><path class="a" d="M265.8,191.776c-4.658.914-15.719-6.384-20.629-13.2-.334-.469-.222-5.847-.395-12.391-.121-3.971-.349-8.39-.846-12.406-.108-.823,2.888.343,2.888.343l5.354.609,17.709,2.04s-1.431,8.727-.518,15.725a9.029,9.029,0,0,0,.378,1.626c.017.076.051.165.07.269C270.705,177.457,273.086,190.345,265.8,191.776Z" transform="translate(-243.923 -153.483)"/><path class="b" d="M269.025,173.53c.017.076.051.165.07.269a16.238,16.238,0,0,1-2.573.459c-17.009,1.728-21.807-19.576-21.807-19.576l6.741-.543,17.709,2.04s-1.431,8.727-.518,15.725A9.025,9.025,0,0,0,269.025,173.53Z" transform="translate(-243.211 -152.893)"/></g><path class="h" d="M248.106,160.764l0-.01" transform="translate(-227.856 -93.461)"/><g transform="translate(6.859 5.18)"><path class="a" d="M241.825,142.642c-2.725,9.006,2.095,35,8.511,40.778,9.3,8.38,24.5,9.145,31.612-2.028,6.895-10.831.013-44.591-7.151-49.841C264.245,123.817,245.847,129.335,241.825,142.642Z" transform="translate(-241.047 -128.016)"/></g><g transform="translate(24.106 23.488)"><g transform="translate(2.867 8.853)"><path class="b" d="M254,143.117c-.028-.063-.116.114-.1.184.448,1.725.67,3.776-.772,4.707-.044.028-.019.114.036.093C255.019,147.4,254.7,144.681,254,143.117Z" transform="translate(-250.344 -141.639)"/><path class="b" d="M253.342,142.347c-2.84.419-1.795,6.071.837,5.682C256.77,147.648,255.723,142,253.342,142.347Z" transform="translate(-251.649 -142.332)"/></g><g transform="translate(16.806 5.875)"><path class="b" d="M259,141.922c0-.068.154.059.163.129.269,1.763.873,3.734,2.565,4.022.051.008.063.1,0,.1C259.744,146.259,258.97,143.634,259,141.922Z" transform="translate(-258.996 -139.739)"/><path class="b" d="M260.222,140.828c2.776-.734,4.041,4.872,1.47,5.553C259.159,147.051,257.894,141.445,260.222,140.828Z" transform="translate(-258.996 -140.762)"/></g><path class="b" d="M251.99,143.326a22.036,22.036,0,0,0,2.045-1.176,3.814,3.814,0,0,0,1.857-1.6,1.216,1.216,0,0,0-.459-1.412,3.011,3.011,0,0,0-3.043.249,4.423,4.423,0,0,0-2.161,2.347A1.3,1.3,0,0,0,251.99,143.326Z" transform="translate(-250.138 -136.628)"/><path class="b" d="M262.868,141.042a22.718,22.718,0,0,1-2.354-.167,3.813,3.813,0,0,1-2.368-.628,1.22,1.22,0,0,1-.2-1.472,3.013,3.013,0,0,1,2.848-1.1,4.425,4.425,0,0,1,2.967,1.173A1.3,1.3,0,0,1,262.868,141.042Z" transform="translate(-243.276 -137.666)"/><path class="b" d="M254.383,151.855c.5.332,1.019.82,1.664.755a4.7,4.7,0,0,0,1.8-.789.063.063,0,0,1,.093.076,2.4,2.4,0,0,1-2.045,1.362,1.9,1.9,0,0,1-1.664-1.294C254.184,151.868,254.311,151.805,254.383,151.855Z" transform="translate(-246.475 -124.974)"/><g transform="translate(8.723 0.885)"><path class="b" d="M254.792,158.546a6.057,6.057,0,0,0,4.468,1.914,7.562,7.562,0,0,0,2.163-.3,2.009,2.009,0,0,0,.4-.123c.125-.038.239-.074.374-.129a.446.446,0,0,0,.279-.457l0-.013a.877.877,0,0,0-.049-.176l0-.011-.032-.154c-.212-1.355-.723-3.381-.723-3.381.539.156,3.259.822,3.089.123-1.427-5.764-3.013-12.177-5.65-17.612a.166.166,0,0,0-.313.1c1.154,5.6,3.28,10.951,4.529,16.552a10.588,10.588,0,0,0-2.973-.332c-.18.089,1.057,3.9,1.1,4.514a.22.22,0,0,1,0,.064c-2.212.71-4.045.342-6.525-.772C254.777,158.283,254.661,158.425,254.792,158.546Z" transform="translate(-254.735 -138.132)"/></g><g transform="translate(8.462 21.25)"><path class="b" d="M260.624,150a7.18,7.18,0,0,1-2.425,2.717,3.226,3.226,0,0,1-1.911.478c-1.467-.108-1.738-1.385-1.685-2.529a7.8,7.8,0,0,1,.315-1.8A9.322,9.322,0,0,0,260.624,150Z" transform="translate(-254.598 -148.866)"/><path class="i" d="M258.2,151.87a3.225,3.225,0,0,1-1.911.478c-1.467-.108-1.738-1.385-1.685-2.529C256.131,149.7,257.8,150.438,258.2,151.87Z" transform="translate(-254.598 -148.023)"/></g></g><path class="b" d="M247.993,164.749c5.993-.952,5.466-12.019,5.466-12.019s10.035-3.284,10.329-11.268c0,0,10.74,4.722,17.992.742s4.288-12.42,3.149-14.148-4.865,2.389-4.865,2.389-1.25-4.844-2.643-5.14-2.356,2.9-2.356,2.9-10.414-1.783-19.358-.133-11.985,11.395-11.985,11.395-4.644,1.764-5.679,5.371S244.172,165.356,247.993,164.749Z" transform="translate(-236.974 -125.286)"/><path class="b" d="M244.928,146.7c8.128-.18,12.588-6.291,12.56-14.1a.076.076,0,0,1,.152-.011c.875,7.141-4.533,16.093-12.733,14.474A.184.184,0,0,1,244.928,146.7Z" transform="translate(-230.854 -118.798)"/><path class="b" d="M244.374,132.67a.086.086,0,0,1,.078.15c-2.068,1.377-4.5,2.55-5.753,4.825-1.512,2.745-.605,5.9.535,8.581,1.764,4.151,4.863,9.418,9.12,11.359.245.112.065.471-.182.374-5.058-2.013-8.883-8.877-10.312-13.865C236.259,138.508,239.3,134.715,244.374,132.67Z" transform="translate(-237.432 -118.666)"/><path class="b" d="M256.548,141.089A11.884,11.884,0,0,0,268.667,139c3.73-3.578,2.093-8.268-.345-12.01-.119-.184.133-.442.3-.269,3.03,3.155,4.068,8.5,1.114,12.076-3.053,3.694-9.217,4.546-13.446,2.823C255.933,141.48,256.195,140.945,256.548,141.089Z" transform="translate(-220.665 -124.046)"/><g transform="translate(2.037 34.525)"><path class="a" d="M249.715,149.94s-6.067-8.272-9.835-6.09.93,14.267,5.445,15.835a4.555,4.555,0,0,0,6.047-2.588Z" transform="translate(-238.506 -143.483)"/><path class="b" d="M240.014,145.484a.063.063,0,0,0-.021.121c3.168,1.2,4.887,4.075,6.115,7.067-.96-1.14-2.246-1.749-3.777-.6-.082.059,0,.186.087.165a2.8,2.8,0,0,1,3.106.907,13.594,13.594,0,0,1,1.533,2.461c.154.279.656.116.543-.2l-.027-.072C247.561,151.322,244.323,145.79,240.014,145.484Z" transform="translate(-237.208 -141.687)"/></g></g><g transform="translate(40.473 74.168)"><path class="j" d="M271.947,165.892l-4.561,15.753-20.737-17.267-4.715,6.682s21.462,28.586,21.439,27.2l4.929-13.677,9.921,8.175L275.2,170.036Z" transform="translate(-241.502 -164.378)"/><path class="b" d="M277.568,178.73c-.624-3.736-1.15-7.513-1.947-11.215-.028-.133-.243-.171-.26-.009-.387,3.705,2.077,17.975,2.408,21.422l-.044-.036c-.415-.355-9.152-7.151-9.219-7.022-1.144,2.208-4.77,12.173-5,13.068-3.4-4.542-17.664-22.359-21.568-26.584a.131.131,0,0,0-.212.154c3.085,4.846,21.572,28.393,21.792,28.3a147.965,147.965,0,0,0,5.138-14.453c1.516,1.52,10.424,9.283,10.4,8.722A118.994,118.994,0,0,0,277.568,178.73Z" transform="translate(-241.706 -161.666)"/></g></g><g transform="translate(90.638)"><path class="k" d="M248.447,239.106c-9.16-9.4-29.99-44.734-29.537-65.467.355-16.187,8.608-60.836,13.639-72.242,2.284-5.178,36.684,17.191,36.947,23.238s-13.285,43.855-14.878,53.271c-.755,4.46,2.113,27.389,8.872,48.253C269.581,244.957,259.656,250.607,248.447,239.106Z" transform="translate(-217.549 -57.888)"/><g transform="translate(12.487)"><path class="a" d="M224.771,130.933c1.013-4.942,7.652-27.184,10.885-32.959s13.738-21.724,18.413-19.7,1.971,6.94,1.971,6.94,5.5-6.031,10.023-3.563.063,9.976.063,9.976,6.1-5.781,10.435-3-1.411,9.583-1.411,9.583,5.333-5.546,7.936-1.751c3.132,4.567-7.855,13.683-10.945,20.327-.7,1.508-12.044,31.593-12.044,31.593Z" transform="translate(-224.771 -78.1)"/><g transform="translate(17.915 7.181)"><path class="b" d="M258.164,88.627c-8.063,6.722-10.429,11.059-13.609,20.893-.063.192-.362.142-.315-.065,2.237-9.913,4.421-15.78,13.62-21.236C258.31,87.954,258.55,88.306,258.164,88.627Z" transform="translate(-225.221 -76.285)"/><path class="b" d="M253.876,85.173c-7.766,7.714-10.372,12.395-14.461,22.448-.059.142-.305.059-.26-.089,3.187-10.2,5.5-16,14.271-22.689C253.822,84.54,254.23,84.82,253.876,85.173Z" transform="translate(-229.785 -79.347)"/><path class="b" d="M247.376,82.339c-6.98,8.012-10.059,13.021-12.776,23.291a.2.2,0,0,1-.383-.078c1.751-10.742,5.548-17.02,12.894-23.4C247.611,81.718,247.814,81.836,247.376,82.339Z" transform="translate(-234.213 -81.885)"/></g><g transform="translate(17.891 33.929)"><path class="a" d="M253.365,139.776s9.961-9.128,12.93-14.247,7.02-28.267,2.07-29.427c-6.392-1.5-11.361,11.408-12.97,18.047,0,0-14.782-3.474-20.352,5.014S253.365,139.776,253.365,139.776Z" transform="translate(-234.201 -95.983)"/><path class="b" d="M266.244,96.165c-6.811,2.84-8.361,11.691-10.4,18.013a.607.607,0,0,1-.941.334c-6.293-1.042-15.472-.679-20.172,4.142a.154.154,0,0,1-.237-.2c4.337-5.855,13.326-6.948,20.147-5.364,1.992-6.517,3.935-15.324,11.581-17A.035.035,0,0,1,266.244,96.165Z" transform="translate(-233.971 -95.88)"/></g></g><path class="c" d="M224.753,109.438l43.886,22.786s-11.338,31.709-12.33,37.609,9.727,47.688,11.205,56.55-20.805,39.945-22.625,24.277c-1.833-15.787-25.385-62.289-26.573-78.167S224.753,109.438,224.753,109.438Z" transform="translate(-218.19 -49.981)"/><g transform="translate(13.855 79.795)"><path class="d" d="M236.189,154.268a13.16,13.16,0,0,1-.474-3.667,13.011,13.011,0,0,1,.474-3.667,13.01,13.01,0,0,1,.474,3.667A13.159,13.159,0,0,1,236.189,154.268Z" transform="translate(-216.319 -96.134)"/><path class="d" d="M229.766,127.495a13.167,13.167,0,0,1-.474-3.667,13.03,13.03,0,0,1,.474-3.669,12.962,12.962,0,0,1,.472,3.669A13.237,13.237,0,0,1,229.766,127.495Z" transform="translate(-222.082 -120.158)"/><path class="d" d="M238.216,160.053a13.239,13.239,0,0,1,3.667-.474,13.035,13.035,0,0,1,3.669.474,13.032,13.032,0,0,1-3.669.474A13.167,13.167,0,0,1,238.216,160.053Z" transform="translate(-214.075 -84.787)"/><path class="d" d="M232.485,135.005a14.415,14.415,0,0,1,7.335,0,14.416,14.416,0,0,1-7.335,0Z" transform="translate(-219.217 -107.262)"/><path class="d" d="M239.021,173.285a13.145,13.145,0,0,1-2.929-2.258,13,13,0,0,1-2.258-2.929,12.945,12.945,0,0,1,2.927,2.26A13.14,13.14,0,0,1,239.021,173.285Z" transform="translate(-218.007 -77.143)"/><path class="d" d="M230.679,148.242a13.191,13.191,0,0,1-2.927-2.258,13,13,0,0,1-2.26-2.929,13,13,0,0,1,2.929,2.26A13.131,13.131,0,0,1,230.679,148.242Z" transform="translate(-225.492 -99.613)"/><path class="d" d="M247.087,175.382a13.234,13.234,0,0,1-2.258,2.927,12.99,12.99,0,0,1-2.929,2.258,13.036,13.036,0,0,1,2.258-2.927A13.185,13.185,0,0,1,247.087,175.382Z" transform="translate(-210.77 -70.607)"/><path class="d" d="M232.046,157.357a13.245,13.245,0,0,1-2.258,2.929,13.046,13.046,0,0,1-2.929,2.258,13,13,0,0,1,2.26-2.929A13.189,13.189,0,0,1,232.046,157.357Z" transform="translate(-224.265 -86.781)"/><path class="d" d="M245.525,123.559a13.176,13.176,0,0,1-2.258,2.927,13.035,13.035,0,0,1-2.927,2.258,13.034,13.034,0,0,1,2.258-2.927A13.177,13.177,0,0,1,245.525,123.559Z" transform="translate(-212.169 -117.106)"/></g><path class="b" d="M260.007,133.206c-16.125-9.152-34.462-16.326-37.568-17.8-.148-.07-.243.175-.091.237,3.123,1.29,23.188,11.761,37.56,17.827C260.074,133.538,260.163,133.293,260.007,133.206Z" transform="translate(-214.527 -44.639)"/></g></g><g transform="translate(457.305 103.793)"><g transform="translate(64.943 261.124)"><g transform="translate(0 5.381)"><g transform="translate(0 293.475)"><path class="a" d="M289.024,492.4c3.707,1.23,109.489.922,113.519-1.635,1.522-.954,2.379-16.379,2.882-35.024q.171-6.045.258-12.414c.082-5,.146-10.067.178-14.986.129-22.092-.178-41.546-.178-41.546H336.818l.032,41.546.015,14.986.357,12.414s-40.446,18.24-44.557,21.526C288.571,480.535,285.334,491.184,289.024,492.4Z" transform="translate(-287.083 -386.793)"/><path class="d" d="M289.024,472.75c3.707,1.229,109.489.922,113.519-1.635,1.522-.954,2.379-16.379,2.882-35.024q.171-6.045.258-12.414c.082-5,.146-10.067.178-14.986H336.85l.015,14.986.357,12.414s-40.446,18.24-44.557,21.526C288.571,460.887,285.334,471.536,289.024,472.75Z" transform="translate(-287.083 -367.145)"/><g transform="translate(0 46.518)"><path class="l" d="M288.86,465.877c2.411.793,47.47.954,80.275.275,7.591-.163,14.535-.374,20.136-.615,7.718-.357,12.9-.778,13.74-1.311,1.861-1.2,2.751-23.824,3.172-47.7H336.976l.357,12.478s-40.672,18.337-44.815,21.638C288.406,453.949,285.152,464.63,288.86,465.877Z" transform="translate(-287.237 -406.63)"/><g transform="translate(2.855)"><g transform="translate(0 17.898)"><path class="b" d="M289.023,440.516c17.83-.489,89.792-.782,107.453.089.144.008.144.106,0,.112-17.662.873-89.623.581-107.453.091C288.648,440.8,288.648,440.525,289.023,440.516Z" transform="translate(-288.741 -403.426)"/><path class="b" d="M312.48,421.272c7.014-1.33,15.6-.277,20.974,4.707.209.193-.068.486-.3.414a98.822,98.822,0,0,0-20.648-4.235A.448.448,0,0,1,312.48,421.272Z" transform="translate(-267.77 -420.745)"/><path class="b" d="M309.815,422.889c7.014-1.33,15.6-.277,20.974,4.705.209.194-.068.488-.3.415a98.693,98.693,0,0,0-20.648-4.235A.449.449,0,0,1,309.815,422.889Z" transform="translate(-270.161 -419.294)"/><path class="b" d="M307.15,424.505c7.014-1.33,15.6-.277,20.974,4.707.209.193-.068.486-.3.415a98.575,98.575,0,0,0-20.648-4.235A.45.45,0,0,1,307.15,424.505Z" transform="translate(-272.552 -417.844)"/><path class="b" d="M304.484,426.122c7.014-1.33,15.6-.277,20.974,4.705.209.193-.068.488-.3.415a98.7,98.7,0,0,0-20.646-4.235A.449.449,0,0,1,304.484,426.122Z" transform="translate(-274.943 -416.394)"/></g><g transform="translate(30.687)"><path class="b" d="M309.105,423.533c4.975,3.846,11.439,5.4,17.239,7.53a.87.87,0,0,0,1.1-.878.189.189,0,0,0,.165-.254,37.443,37.443,0,0,0-10.852-16.041c-2.937-2.453-8.077-4.147-10.824-.342C303.334,417.147,306.2,421.287,309.105,423.533Zm-1.8-5.641c-1.258-7.7,7.018-3.677,9.111-1.783a40.061,40.061,0,0,1,3.73,4.007,111.947,111.947,0,0,1,6.546,9.23c-2.785-1.222-5.65-2.191-8.479-3.309C314.841,424.707,308,422.135,307.3,417.892Z" transform="translate(-304.916 -411.311)"/><path class="b" d="M341.085,417.112c-1.709-4.371-7.109-4.015-10.566-2.372A37.453,37.453,0,0,0,316,427.566a.188.188,0,0,0,.1.286.871.871,0,0,0,.844,1.125c6.147-.613,12.8-.508,18.572-2.99C338.891,424.54,342.7,421.247,341.085,417.112Zm-15.009,9.029c-3.017.376-6.033.6-9.035,1.087a111.825,111.825,0,0,1,8.642-7.3,40.182,40.182,0,0,1,4.612-2.948c2.5-1.313,11.516-3.138,8.376,4C336.941,424.91,329.671,425.694,326.075,426.142Z" transform="translate(-294.997 -409.253)"/></g></g></g></g><g transform="translate(42.731)"><path class="g" d="M408.6,232.11S389.987,416.2,389.55,418.526c-.064.307-.2,3.852-.372,9.631-1,31.69-3.481,130.5-3.481,130.5H309.759s4.952-117.033,7.8-144.336c3.626-34.83,26.478-182.208,26.478-182.208Z" transform="translate(-309.759 -232.11)"/><g transform="translate(4.64 6.438)"><path class="b" d="M349.221,421.97q3.515-59.826,10.564-119.374c2.666-22.367,5.874-44.654,9.063-66.951.029-.194.334-.186.305.008-5.876,39.681-10.042,79.674-13.626,119.621q-5.37,59.852-7.718,119.909c-.926,22.68-1.624,45.369-2.356,68.055a.421.421,0,0,1-.84-.021C345.685,502.786,346.848,462.349,349.221,421.97Z" transform="translate(-283.126 -235.503)"/><path class="b" d="M312.357,398.181c1.988-.262,4.149-.18,6.168-.249,2.279-.078,4.563-.1,6.841-.184q6.6-.253,13.2-.351c8.864-.144,17.751-.093,26.609.186,2.44.076,4.878.171,7.316.26,2.6.095,5.2.334,7.8.321.2,0,.19.233-.008.233-4.462-.017-8.982.385-13.446.546-4.4.159-8.794.239-13.2.3-8.86.123-17.753.045-26.605-.281-2.438-.091-4.878-.125-7.318-.2-1.3-.04-2.6-.116-3.9-.165-1.163-.044-2.318.034-3.47-.114A.152.152,0,0,1,312.357,398.181Z" transform="translate(-312.205 -90.312)"/></g></g><path d="M387.971,232.11S369.359,416.2,368.922,418.526c-.064.307-.2,3.852-.372,9.631l-35.8-196.046Z" transform="translate(-246.4 -232.11)"/></g><g transform="translate(76.079)"><g transform="translate(153.88 190.525)"><path class="a" d="M462.909,483.907c3.256-2.155,68.393-85.5,68.865-90.255.2-1.793-11.4-11.991-25.746-23.9-3.091-2.586-6.2-5.377-9.593-7.883-4.261-3.161-8.564-6.274-12.75-9.224-18.138-12.862-33.88-22.946-33.88-22.946l-41.364,52.6,32.238,23.864,13.218,9.8,9.97,7.394s-10.659,43.072-10.623,48.325S459.664,486.049,462.909,483.907Z" transform="translate(-408.442 -329.695)"/><path class="d" d="M447.662,473.055c3.256-2.155,68.393-85.5,68.865-90.255.2-1.793-11.4-11.991-25.746-23.9-3.091-2.586-6.2-5.377-9.593-7.883-4.261-3.161-8.564-6.274-12.75-9.224-12.82,16.148-31.411,39.2-43.005,53.522l13.218,9.8,9.97,7.394S437.964,455.574,438,460.827,444.418,475.2,447.662,473.055Z" transform="translate(-393.196 -318.844)"/><g transform="translate(29.697 31.832)"><path class="l" d="M441.7,469.194c3.267-2.163,68.776-85.973,69.254-90.748.222-2.2-17.02-16.882-35.534-31.973l-42.772,54.4,10.027,7.435s-10.727,43.307-10.689,48.6C432.037,462.183,438.433,471.357,441.7,469.194Z" transform="translate(-417.014 -346.473)"/><g transform="translate(0 29.39)"><g transform="translate(18.797 5.038)"><path class="b" d="M435.879,449.089c10.636-14.319,54.886-71.068,66.488-84.413.095-.108.173-.049.089.068-10.232,14.423-54.941,70.812-66.347,84.525C435.867,449.56,435.655,449.391,435.879,449.089Z" transform="translate(-432.403 -364.619)"/><path class="b" d="M435.184,385.245c3.29-6.335,9.424-12.433,16.664-13.579.281-.046.342.355.144.489A98.752,98.752,0,0,0,435.9,385.769.449.449,0,0,1,435.184,385.245Z" transform="translate(-432.989 -358.298)"/><path class="b" d="M434.808,388.339c3.29-6.335,9.424-12.433,16.664-13.579.281-.046.34.355.144.489a98.68,98.68,0,0,0-16.093,13.613A.448.448,0,0,1,434.808,388.339Z" transform="translate(-433.326 -355.522)"/><path class="b" d="M434.432,391.434C437.72,385.1,443.854,379,451.1,377.855c.281-.046.34.355.142.49a98.75,98.75,0,0,0-16.091,13.613A.448.448,0,0,1,434.432,391.434Z" transform="translate(-433.664 -352.746)"/><path class="b" d="M434.055,394.527c3.29-6.335,9.424-12.433,16.664-13.579.281-.044.34.355.144.49a98.668,98.668,0,0,0-16.091,13.613A.449.449,0,0,1,434.055,394.527Z" transform="translate(-434.002 -349.97)"/></g><path class="b" d="M434.132,386.86c6.1-1.533,11.317-5.654,16.576-8.9a.872.872,0,0,0-.013-1.408.188.188,0,0,0-.1-.286,37.451,37.451,0,0,0-19.32-1.383c-3.743.791-8.251,3.785-6.957,8.3C425.545,387.45,430.573,387.754,434.132,386.86Zm-5.548-2.07c-6.828-3.768,1.448-7.79,4.229-8.264a40.054,40.054,0,0,1,5.455-.455,112.342,112.342,0,0,1,11.3.56c-2.681,1.436-5.216,3.087-7.841,4.62C438.6,383.077,432.348,386.866,428.584,384.79Z" transform="translate(-424.095 -350.98)"/><path class="b" d="M445.568,362.213c-4.493-1.358-7.549,3.108-8.4,6.838a37.464,37.464,0,0,0,1.112,19.337.188.188,0,0,0,.285.1.871.871,0,0,0,1.406.032c3.318-5.212,7.511-10.374,9.132-16.449C450.051,368.527,449.817,363.5,445.568,362.213Zm-2.178,17.379c-1.571,2.6-3.258,5.113-4.73,7.773a111.84,111.84,0,0,1-.4-11.308,40,40,0,0,1,.531-5.447c.514-2.776,4.654-10.993,8.323-4.113C449.138,370.289,445.26,376.488,443.389,379.592Z" transform="translate(-413.063 -361.964)"/></g></g></g><path class="g" d="M327.336,233.638s5.935,27.609,24.486,41.135c0,0,47.735,125.3,57.764,138.491,16.616,21.856,97.028,78.1,97.028,78.1l47.507-60.454s-77.744-50.08-84.005-57.944c-4.161-5.221-37.277-85.69-36.894-88.545,4.561-34.012-11.666-55.148-11.666-55.148Z" transform="translate(-327.336 -229.274)"/><g transform="translate(10.567 5.215)"><path d="M374.128,232.1a80.737,80.737,0,0,1,8,20.914,67.7,67.7,0,0,1,1.523,11.215c.22,4.056-.057,8.107-.027,12.165a44.4,44.4,0,0,0,1.821,12.234c1.131,3.859,2.512,7.65,3.851,11.439q4.107,11.634,8.638,23.112,9.027,22.864,19.667,45.045c1.637,3.4,3.373,6.845,6.043,9.566,2.751,2.8,6.2,4.87,9.429,7.067q10.484,7.132,20.967,14.262l42.138,28.664.027.091c.467.317.042,1.095-.431.774-14.125-9.581-23.033-15.687-37.156-25.268l-21.386-14.508c-3.375-2.288-6.8-4.516-10.116-6.893a26.989,26.989,0,0,1-7.329-7.5,93.17,93.17,0,0,1-5.17-10.12q-2.667-5.629-5.229-11.3-5.009-11.1-9.617-22.365-4.664-11.421-8.894-23.014-2.137-5.848-4.168-11.736a87.93,87.93,0,0,1-3.4-11.439c-1.578-7.963-.171-16.153-.933-24.2a73.611,73.611,0,0,0-5.737-22.591c-.82-1.869-1.77-3.677-2.77-5.455C373.771,232.084,374.033,231.925,374.128,232.1Z" transform="translate(-296.17 -232.022)"/><path d="M360.473,233.279a25.377,25.377,0,0,0,9.295,13.345c4.914,3.738,10.813,5.3,16.87,5.781,1.026.082,1.108,1.628.034,1.634-12.382.072-24.892-7.841-26.708-20.68C359.922,233.067,360.4,233,360.473,233.279Z" transform="translate(-308.629 -231.054)"/><path d="M334.1,248.82c4.553,1.622,8.7,4.256,12.791,6.786,4.25,2.63,8.177,5.713,12.281,8.553.158.11.025.366-.15.268-4.3-2.478-8.784-4.626-13.042-7.183-4.136-2.485-8.428-4.891-12.067-8.09C333.767,249.029,333.908,248.752,334.1,248.82Z" transform="translate(-332.057 -216.96)"/><path d="M333.2,235.26c.662,2.836,1.486,5.637,2.231,8.452.7,2.641,1.252,5.343,2.078,7.948a13.679,13.679,0,0,0,4.045,6.557c1.091.924,2.284,1.732,3.44,2.573.624.453,1.3.884,1.943,1.343-.1-.374-.182-.755-.268-1.142q-.361-1.614-.706-3.229-.771-3.586-1.489-7.185c-.941-4.713-1.829-9.479-3.034-14.133a.153.153,0,0,1,.292-.087c1.4,4.6,2.912,9.149,4.155,13.8.611,2.28,2.931,13.567,3.047,14.368.121.829.228,1.658.3,2.491a9.966,9.966,0,0,1,.12,2.554c-.04.209-.292.188-.385.051l-.011.009a10.037,10.037,0,0,1-.837-2.438c-.245-.8-.467-1.618-.651-2.436-.066-.3-.121-.6-.176-.9-1.152-.63-2.235-1.482-3.316-2.191-1.167-.767-2.353-1.51-3.461-2.36a12.814,12.814,0,0,1-4.373-6.193A46.48,46.48,0,0,1,334.428,245c-.508-3.216-.922-6.451-1.52-9.649C332.874,235.159,333.157,235.066,333.2,235.26Z" transform="translate(-332.905 -229.214)"/><path class="b" d="M417.846,386.875c1.028-1.721,2.434-3.366,3.631-4.99,1.355-1.837,2.757-3.639,4.1-5.481q3.9-5.33,7.915-10.564,8.08-10.561,16.658-20.75c1.573-1.865,3.161-3.719,4.743-5.576,1.687-1.977,3.493-3.874,5.094-5.919.121-.154.3,0,.178.152-2.781,3.489-5.271,7.282-7.915,10.883-2.6,3.546-5.271,7.043-7.953,10.534-5.4,7.024-10.983,13.949-16.732,20.686-1.584,1.857-3.125,3.749-4.7,5.616-.839,1-1.7,1.967-2.55,2.958-.755.882-1.411,1.838-2.243,2.649C417.934,387.213,417.746,387.042,417.846,386.875Z" transform="translate(-256.716 -140.943)"/></g></g></g><g transform="translate(96.089 77.269)"><path class="b" d="M305.963,230.613a.891.891,0,0,0,.8.859c.985-.061,2.167-.15,3.493-.247,2.04-9.1,4.54-16.463,3.992-13.651a48.179,48.179,0,0,0-.562,13.393c1.539-.123,5.1-.442,6.883-.6.82-15.641,2.886-27.444,3.1-23.921.861,14.207,2.193,18.624,3.7,23.333,16.6-1.5,38.353-3.73,54.044-5.7.774-8.691,1.235-18.045,1.588-17.445,2.721,4.468,4.149,11.3,4.849,16.618,4.992-.664,8.968-1.3,11.376-1.81,0,0,.294-7.257.175-9.613a52.121,52.121,0,0,0-3.927-17.525c-2.383-5.679-5.889-10.5-9.264-15.468a.518.518,0,0,0-.082-.108c0-.017-.013-.021-.027-.042a51.612,51.612,0,0,1-5.515-10.418.282.282,0,0,1-.038-.08,51.706,51.706,0,0,1-2.326-8.27c-2-10.317-8.579-18.559-18.043-20.026-19.375-14.99-35.748-5.238-39.325,8.853-.343,1.372-.647,2.933-.922,4.629l-.006.051c-1.028,6.269-1.651,14.305-2.372,20.549a.028.028,0,0,1,0,.036c.013.021.011.038-.009.07l0,.017a61.5,61.5,0,0,1-1.193,7.263C313.32,192.843,304.124,200.415,305.963,230.613Z" transform="translate(-301.797 -132.369)"/><path class="b" d="M336.973,137.566c6.4,2.508,10.674,6.885,12.535,14.36,1.085,4.356,1.892,8.642,3.99,12.6,2.167,4.087,5.195,7.265,8.293,10.429,4.923,5.026,8.562,10.207,10.135,17.576,1.6,7.487,2.354,16.478.839,23.883a.031.031,0,1,1-.061-.013c1.053-7.439-.114-17.373-2.225-24.718-2.32-8.065-7.312-12.645-12.535-18.292a35.357,35.357,0,0,1-8.612-15.918c-.909-3.7-1.336-7.614-3.18-10.957-2.2-3.99-5.887-6.208-9.507-8.126C336.151,138.134,336.487,137.377,336.973,137.566Z" transform="translate(-274.268 -127.732)"/><path class="b" d="M309.589,184.527c3.5-6.5,7.285-12.152,8.862-19.828,1.436-6.993,1.861-14.233,3.339-21.225a.081.081,0,1,1,.159.03c-2.085,12.34-1.305,24.387-7.215,35.348-3.21,5.956-6.468,11.515-8.228,18.364a62.514,62.514,0,0,0-1.387,21.982c.027.264-.288.292-.342.046A51.35,51.35,0,0,1,309.589,184.527Z" transform="translate(-303.653 -122.471)"/></g><path class="e" d="M395.532,239.609c-19.534,3.451-85.487-17.392-97.844-30.933-18.375-20.136-32.341-56.1-36.31-69.618-1.728-5.893,37.12-23.655,39.879-17.7,5.908,12.763,22.851,52.351,26.046,56.077s36.128,26.423,55.11,36.5C407.878,227.448,405.411,237.864,395.532,239.609Z" transform="translate(-245.546 -66.057)"/><g transform="translate(0.939)"><path class="a" d="M311.126,155.2c-.313-2.935-9.338-24.8-14.358-31.806a83.809,83.809,0,0,0-18.737-19.642C266.5,95.14,257.7,90.261,255.416,91.987c-4.21,3.189-1.711,8.356,9.837,17.221,11.5,8.832,10.008,17.451,8.447,23.445a90.644,90.644,0,0,0-.252,44.872S312.331,166.487,311.126,155.2Z" transform="translate(-253.502 -91.642)"/></g><path class="a" d="M274.767,121.239c-1.4,6.238-9.15-17-16.151-19.014s-6.436,5.422-3.749,11.818c9.323,22.206,5.219,36.281,16.167,49.037S274.767,121.239,274.767,121.239Z" transform="translate(-253.007 -82.447)"/><g transform="translate(18.764 63.831)"><path class="l" d="M262.9,151.146c.842-.689,44.271-25.86,44.271-25.86s16.123,41.127,19.428,46.041,50.767,35.206,67.182,44.8c17.55,10.251,12.315,25.384-18.6,19.265s-66.194-18-77.919-28.2C285.9,197.3,262.9,151.146,262.9,151.146Z" transform="translate(-262.897 -125.286)"/><path class="b" d="M266.439,151.805C284.3,143.446,301.8,131.951,305,130.163c.152-.083,0-.319-.15-.224-3.041,1.916-24.469,12.882-38.573,21.619C266.111,151.659,266.269,151.887,266.439,151.805Z" transform="translate(-259.928 -121.13)"/></g><path class="l" d="M326.39,255.735l3.218,53.586S414.637,293,435.374,287.154c0,0-37.321-93.683-65.042-113.561-13.863-9.942-26.962-6.269-33.65,4.077-1.692,2.618-20.255,41.709-20.272,55.178C316.421,244.726,326.39,255.735,326.39,255.735Z" transform="translate(-196.117 -23.351)"/><g transform="translate(115.625 76.218)"><g transform="translate(22.413 45.787)"><path class="e" d="M347.764,185.168c-.419,1.7-8.678,12.642-16.451,12.18-2.531-.154-2.3-14.007-2.3-14.007l-.218-1.026-3.028-14.372,16.969-10.594,2.451-1.4s.569,3.988,1.228,8.959c.032.23.064.461.095.708.044.279.089.544.12.806.108.742.214,1.5.305,2.256.072.577.144,1.136.2,1.742.068.609.123,1.2.192,1.808A94.632,94.632,0,0,1,347.764,185.168Z" transform="translate(-325.763 -155.948)"/><path class="b" d="M346.411,164.907a29.473,29.473,0,0,1-17.62,17.407l-3.028-14.372,16.969-10.594,2.451-1.4S345.753,159.936,346.411,164.907Z" transform="translate(-325.763 -155.948)"/></g><path class="a" d="M314.727,167.7c.96,25.759,16.5,28.091,22.052,27.878,5.041-.193,22.185-1.5,23.89-27.214s-10.575-33.417-22.13-33.584S313.765,141.944,314.727,167.7Z" transform="translate(-313.296 -129.154)"/><g transform="translate(2.761 28.034)"><path class="b" d="M317.108,149.666a16.755,16.755,0,0,0,1.727-.431,2.868,2.868,0,0,0,1.679-.776.918.918,0,0,0-.044-1.117,2.273,2.273,0,0,0-2.26-.45,3.333,3.333,0,0,0-2.051,1.258A.977.977,0,0,0,317.108,149.666Z" transform="translate(-314.899 -146.412)"/><path class="b" d="M327.236,149.325a17.137,17.137,0,0,1-1.755-.3,2.878,2.878,0,0,1-1.73-.651.917.917,0,0,1-.038-1.119,2.273,2.273,0,0,1,2.22-.613,3.339,3.339,0,0,1,2.138,1.1A.978.978,0,0,1,327.236,149.325Z" transform="translate(-308.105 -146.591)"/><g transform="translate(15.832 7.399)"><g transform="translate(0 0.099)"><path class="b" d="M323.854,151.532c.011-.068.138.08.137.152-.032,1.757.226,3.772,1.821,4.333.049.019.046.106-.013.1C323.858,155.869,323.542,153.189,323.854,151.532Z" transform="translate(-323.75 -149.671)"/><path class="b" d="M325.38,150.551c2.819-.252,3.115,5.405.5,5.639C323.312,156.419,323.016,150.761,325.38,150.551Z" transform="translate(-323.733 -150.543)"/></g><path class="b" d="M325.363,150.839c.51.294,1.025.833,1.622.861.694.032,1.184-.588,1.6-1.182.044-.061.095-.013.1.061.074,1.083-.286,2.218-1.44,2.44-1.053.2-1.863-.717-2.191-1.793C325,151.027,325.156,150.719,325.363,150.839Z" transform="translate(-322.588 -150.49)"/></g><g transform="translate(0 7.815)"><g transform="translate(2.075)"><path class="b" d="M319.266,151.633c-.017-.066-.133.091-.125.163.161,1.747.051,3.777-1.5,4.455-.049.021-.038.108.019.1C319.579,155.958,319.7,153.262,319.266,151.633Z" transform="translate(-315.501 -149.896)"/><path class="b" d="M318.59,150.71c-2.833-.046-2.713,5.62-.091,5.661C321.081,156.411,320.962,150.748,318.59,150.71Z" transform="translate(-316.499 -150.71)"/></g><path class="b" d="M318.4,151.034c-.44.311-.873.865-1.406.913-.618.053-1.091-.55-1.5-1.129-.042-.061-.085-.011-.087.063-.006,1.083.376,2.2,1.419,2.389.954.171,1.632-.772,1.867-1.857C318.735,151.211,318.575,150.911,318.4,151.034Z" transform="translate(-315.405 -150.637)"/></g><path class="b" d="M325.863,158.891c-.378.452-.74,1.055-1.368,1.171a4.656,4.656,0,0,1-1.922-.256.061.061,0,0,0-.066.1,2.367,2.367,0,0,0,2.311.732,1.871,1.871,0,0,0,1.222-1.679C326.057,158.851,325.918,158.826,325.863,158.891Z" transform="translate(-309.046 -135.586)"/><g transform="translate(6.309 0.151)"><path class="b" d="M321.65,163.783s-.254,2.633-.2,3.87c.006.116.305.158.727.165.021.006.032.013.047,0a5.88,5.88,0,0,0,5.616-2.425c.08-.125-.082-.247-.192-.165a8.834,8.834,0,0,1-5.3,1.755c-.1-.34.588-4.5.391-4.5a10.886,10.886,0,0,0-2.78.749c.374-5.5,1.626-10.9,1.916-16.383a.169.169,0,0,0-.326-.066c-1.713,5.565-2.28,11.886-2.814,17.557C318.66,165.045,321.164,164.013,321.65,163.783Z" transform="translate(-318.73 -146.67)"/></g><g transform="translate(9.739 18.687)"><path class="b" d="M320.538,158.214a7.16,7.16,0,0,0,2.711,2.41,3.221,3.221,0,0,0,1.943.252c1.438-.275,1.56-1.569,1.376-2.7a7.686,7.686,0,0,0-.518-1.74A9.276,9.276,0,0,1,320.538,158.214Z" transform="translate(-320.538 -156.44)"/><path class="m" d="M321.967,159.8a3.221,3.221,0,0,0,1.943.252c1.438-.275,1.56-1.569,1.376-2.7A3.327,3.327,0,0,0,321.967,159.8Z" transform="translate(-319.256 -155.617)"/></g></g><path class="b" d="M360.274,170.239c-6.233.343-6.637-9.492-6.637-9.492s-7.1-.315-8.149-11.708c0,0-3.085,7.048-12.609,8.894-2.015.391,4.546-5.183,4.546-5.183s-7.813,7.754-23.071,5.65c-1.078-.15-.774-17.7,10.843-23.693s23.7-1.9,31.39,5.244c0,0,8.883,3.609,10.238,11.8S362.7,170.1,360.274,170.239Z" transform="translate(-313.95 -131.815)"/><g transform="translate(42.786 34.021)"><path class="e" d="M337.068,157.069s4.59-8.678,8.46-7.139,1.114,13.636-2.943,15.749a4.358,4.358,0,0,1-6.085-1.6Z" transform="translate(-336.501 -149.747)"/><path class="b" d="M343.568,151.661a.06.06,0,0,1,.036.112c-2.831,1.579-4.056,4.54-4.8,7.544.749-1.214,1.882-1.969,3.493-1.1.083.046.025.176-.061.169a2.682,2.682,0,0,0-2.814,1.292,13.145,13.145,0,0,0-1.108,2.544c-.106.285-.605.2-.541-.118l.015-.072C337.241,158.24,339.533,152.552,343.568,151.661Z" transform="translate(-335.417 -148.03)"/></g></g><g transform="translate(95.971 146.898)"><g transform="translate(0 1.128)"><path class="a" d="M365.582,181.9c32.722,34.477,59.606,106.165,43.863,112.893-14.387,6.149-59.971.472-78.716-4-5.508-1.315,5.584-43.971,11.473-42.573,7.117,1.689,25.311,4.307,26.046,4.256,1.569-.112-15.222-47.823-20.564-66.137C340.242,160.825,353.293,168.951,365.582,181.9Z" transform="translate(-280.578 -169.663)"/><g transform="translate(0 63.439)"><path class="a" d="M308.49,208.414c-2.54,3.943.565,7.676.565,7.676a10.016,10.016,0,0,0-4.793,4.829c-1.558,3.815,3.743,7.931,3.743,7.931a12.342,12.342,0,0,0-4.244,5.9c-1.123,3.8,3.633,8.714,3.633,8.714a10.821,10.821,0,0,0-.465,7.538c2.284,6.561,12.628,8.913,19.189,10.475s26.634-.152,30.493-.091L367,219.361s-27.427-15.375-35.4-16.117C324.881,202.618,311.34,203.988,308.49,208.414Z" transform="translate(-303.591 -203.1)"/><g transform="translate(3.878 11.969)"><path class="b" d="M306.781,209.827c7.3-1.049,14.516.118,21.784.873a.127.127,0,0,1-.028.252c-7.219-.837-14.51-.228-21.748-.774A.178.178,0,0,1,306.781,209.827Z" transform="translate(-304.737 -209.409)"/><path class="b" d="M306.159,216.425a19.135,19.135,0,0,1,5.011.425q2.644.407,5.269.907,5.262.99,10.467,2.245c.154.038.135.283-.028.252-3.5-.653-7-1.254-10.522-1.759q-2.644-.381-5.291-.717a22.887,22.887,0,0,1-4.957-.869A.254.254,0,0,1,306.159,216.425Z" transform="translate(-305.351 -203.16)"/><path class="b" d="M305.709,224.411a13.34,13.34,0,0,1,4.491.624q2.388.5,4.779.977c3.189.634,6.379,1.265,9.589,1.787.159.027.133.277-.028.25-3.263-.514-6.534-.983-9.794-1.525q-2.4-.4-4.8-.825a12.55,12.55,0,0,1-4.278-1.129A.089.089,0,0,1,305.709,224.411Z" transform="translate(-305.634 -195.994)"/></g></g></g><g transform="translate(58.843)"><path class="l" d="M361.749,251.633c2.246-1.914-15.616-46.83-20.494-67.283s4.567-19.327,19.546-2.853c16.045,17.648,42.723,56.666,48.8,96.874,1.9,12.558,4.451,21.523-24.59,21.014-29.806-.524-50.4-4.4-50.4-4.4l6.333-45.921S361.1,252.187,361.749,251.633Z" transform="translate(-334.605 -169.068)"/><g transform="translate(0.203 39.162)"><path class="b" d="M340.14,254.8c3.715-18.166,4.865-37.822,5.309-41.233.021-.161-.241-.176-.254-.013-.26,3.37-4.011,25.691-5.335,41.233C339.844,254.962,340.1,254.972,340.14,254.8Z" transform="translate(-330.094 -168.421)"/><path class="b" d="M380.887,236.692a38.21,38.21,0,0,0-5.477-1.129c-1.708-.3-3.407-.628-5.115-.93-.738-.131-1.476-.256-2.214-.385.07-.009.14-.013.211-.023q1.483-.2,2.965-.423c.987-.15,1.969-.368,2.964-.448.165-.011.154-.273-.006-.252-.985.131-1.979.123-2.971.186-1.028.063-2.057.139-3.085.216-.9.068-1.8.184-2.7.287q-2.473-.418-4.956-.774c-.719-3.258-1.865-6.483-2.861-9.663-1.045-3.328-2.121-6.644-3.26-9.944q-1.673-4.855-3.542-9.646c-.624-1.6-3.971-11.41-5.064-13.968-.068-.161-.275-.085-.23.1.639,2.588,4.053,12.66,4.552,14.294.364,1.191.74,2.377,1.108,3.565-.046-.059-.095-.12-.14-.178q-1-1.323-1.988-2.654c-1.334-1.8-2.658-3.62-3.812-5.54-.1-.163-.343-.011-.252.156,1.093,2,2.138,4.02,3.3,5.98.581.975,1.188,1.939,1.831,2.874a15.663,15.663,0,0,0,2.043,2.652c.013.011.027.006.04.017.305.975.6,1.952.909,2.926,1.03,3.265,2.068,6.525,3.087,9.79.932,2.988,1.736,6.071,2.8,9.021-3.387-.457-6.779-.852-10.169-1.267-1.73-.212-3.462-.41-5.195-.609-1.852-.214-3.8-.209-5.625-.535-.161-.028-.218.228-.061.245,1.823.209,3.669.767,5.487,1.089,1.706.3,3.413.609,5.123.9,3.618.615,7.229,1.256,10.856,1.818,3.576.552,7.17.954,10.763,1.37,1.8.209,3.6.393,5.4.6a36.274,36.274,0,0,0,5.257.452A.089.089,0,0,0,380.887,236.692Z" transform="translate(-331.865 -189.71)"/><path class="b" d="M391.744,239.861c-15.666-.548-43.832-2.679-56.88-4.428a.126.126,0,1,0-.028.249,225.021,225.021,0,0,0,56.922,4.785A.3.3,0,0,0,391.744,239.861Z" transform="translate(-334.712 -148.685)"/><path class="b" d="M371.089,212.433c-.859-1.922-1.766-3.821-2.647-5.734-1.007-2.2-1.106-1.8-.18.586.888,2.29,1.734,4.6,2.613,6.895,1.751,4.574,10.8,32.254,9.79,42.045-.013.133.211.157.233.027C383.233,243.115,374.257,219.515,371.089,212.433Z" transform="translate(-305.182 -175.762)"/></g></g></g></g><g transform="translate(25.317 109.8)"><g transform="translate(152.732 64.315)"><path class="b" d="M220.785,145.59c21.5,20.9,25.9,74.574-.639,110.705-22.464,30.588-74.621,36.407-97.034,18.166-23.782-19.354-20.286-50.739-2.914-66.006,17.927-15.755,39.45-11.53,50.312-25.562,5.2-6.714,7.136-20.952,14.385-31.206C192.984,140.248,209.766,134.879,220.785,145.59Z" transform="translate(-105.456 -118.757)"/><path class="b" d="M165.859,151.567c2.383-.89,4.645-14.2-4.1-20.536-8.617-6.244-19.955.9-15.254,11.807C149.472,149.731,160.82,153.445,165.859,151.567Z" transform="translate(-70.303 -128.707)"/><path class="b" d="M180.117,151.108a91,91,0,0,1-5.906,14.137c-2.478,4.468-5.487,8.828-9.773,11.957a23.519,23.519,0,0,1-7.094,3.335c-2.455.791-4.921,1.459-7.375,2.142a148.9,148.9,0,0,0-14.47,4.6,58.5,58.5,0,0,0-13.326,6.9,36.456,36.456,0,0,0-15.15,24.926,64.316,64.316,0,0,0-.44,15.18,59.11,59.11,0,0,1-.469-15.307,38.114,38.114,0,0,1,4.662-14.692,36.5,36.5,0,0,1,10.386-11.5,60.269,60.269,0,0,1,13.658-7.274,144.173,144.173,0,0,1,14.7-4.508c2.461-.656,4.923-1.294,7.327-2.04a24.812,24.812,0,0,0,6.747-2.986c4.1-2.764,7.21-6.895,9.8-11.207A105.068,105.068,0,0,0,180.117,151.108Z" transform="translate(-105.818 -108.607)"/><path class="b" d="M175.91,145.306a107.116,107.116,0,0,1,14.279,29.516,87.944,87.944,0,0,1,3.857,32.684,67.926,67.926,0,0,1-3.368,16.216,39.008,39.008,0,0,1-1.432,3.891,40.451,40.451,0,0,1-1.647,3.8c-.619,1.237-1.2,2.491-1.848,3.711l-2.144,3.544a85.159,85.159,0,0,1-22.792,23.522c2.036-1.831,4.178-3.527,6.147-5.415,1.935-1.92,3.95-3.757,5.692-5.851a77.425,77.425,0,0,0,9.708-13.017,69.963,69.963,0,0,0,9.8-30.569,89.578,89.578,0,0,0-3.364-32.111,117.127,117.127,0,0,0-5.457-15.358A114.338,114.338,0,0,0,175.91,145.306Z" transform="translate(-56.471 -113.813)"/><path class="b" d="M150.837,129.518a14.883,14.883,0,0,0-5.045,8.437,8.981,8.981,0,0,0,2.654,8.574,18.142,18.142,0,0,0,8.691,4.252,27.793,27.793,0,0,0,4.994.613,13.759,13.759,0,0,0,5.039-.554,12.077,12.077,0,0,1-5,1.484,22.505,22.505,0,0,1-5.286-.083,17.505,17.505,0,0,1-9.748-4.339,10.46,10.46,0,0,1-2.882-4.774,10.575,10.575,0,0,1,.1-5.512A13.145,13.145,0,0,1,150.837,129.518Z" transform="translate(-71.615 -127.979)"/></g><g transform="translate(133.725 151.769)"><g transform="translate(0 1.668)"><path class="a" d="M198.755,179.568c-6.728,44.256-45.777,134.376-51.676,145.949-4,7.855-45.971-12.378-42.455-17.3,4.5-6.307,49.617-85.487,71.142-114.139C187.635,178.276,200.145,170.426,198.755,179.568Z" transform="translate(-88.07 -175.681)"/><g transform="translate(0 131.295)"><path class="a" d="M113.259,244.883c-4.9,6.447-12.569,24.864-14.324,31.013s-5.529,24.207-.956,26.03,6.1-3.375,6.1-3.375-.385,7.877,4.385,9.293,6.879-6.75,6.879-6.75.194,8.12,5.052,9.192,5.6-7.5,5.6-7.5-.169,7.434,4.206,6.631c5.261-.964,4.022-14.7,6.47-21.342.556-1.508,13.444-29.772,13.444-29.772Z" transform="translate(-95.8 -244.883)"/><g transform="translate(7.284 27.789)"><path class="b" d="M111.957,286.789c-.886-10.1.474-14.677,5.045-23.555.089-.173-.148-.345-.258-.173-5.267,8.285-7.8,13.776-5.272,23.8C111.594,287.347,112,287.269,111.957,286.789Z" transform="translate(-89.908 -256.424)"/><path class="b" d="M106.167,286.674c0-10.573,1.429-15.548,5.532-25.2.057-.137-.167-.249-.237-.116-4.819,9.13-7.221,14.666-5.828,25.23C105.7,287.069,106.169,287.158,106.167,286.674Z" transform="translate(-94.612 -257.94)"/><path class="b" d="M100.07,284.436c.736-10.238,2.07-15.759,7.257-24.615a.189.189,0,0,0-.315-.209c-6.166,8.515-7.883,15.393-7.249,24.769C99.8,285.02,100.024,285.081,100.07,284.436Z" transform="translate(-99.639 -259.53)"/></g><g transform="translate(33.226 6.446)"><path class="a" d="M141.529,251.723s-.577,12.7-2.06,18.218S124.882,294,120.716,291.4c-5.377-3.36.078-15.554,3.531-21.177,0,0-12.448-7.762-10.425-17.36S141.529,251.723,141.529,251.723Z" transform="translate(-113.055 -248.28)"/><path class="a" d="M119.8,287.8c-2.694-6.6,2.315-13.691,5.255-19.4a.588.588,0,0,0-.412-.873c-5-3.6-11-10.137-10.9-16.641a.149.149,0,0,0-.3-.028c-1.059,6.959,4.316,13.861,10.044,17.457-3.108,5.8-7.817,13.133-3.755,19.51A.034.034,0,0,0,119.8,287.8Z" transform="translate(-113.312 -246.084)"/></g></g></g><g transform="translate(59.563)"><path class="n" d="M127.194,229.855s6.375,3.286,13.77,7.185c9.676,5.081,21.117,11.182,22.331,12.234,0,0,12.38-39.953,15.131-57.8s.211-21.344-12.8-10.583c-6.278,5.212-15.47,16.814-23.27,27.414C133.99,219.646,127.194,229.855,127.194,229.855Z" transform="translate(-127.194 -174.802)"/><path class="n" d="M127.194,229.855s6.375,3.286,13.77,7.185c9.676,5.081,21.117,11.182,22.331,12.234,0,0,12.38-39.953,15.131-57.8s.211-21.344-12.8-10.583c-6.278,5.212-15.47,16.814-23.27,27.414C133.99,219.646,127.194,229.855,127.194,229.855Z" transform="translate(-127.194 -174.802)"/></g><g transform="translate(59.556 0.002)"><path class="l" d="M178.435,191.474c-2.751,17.853-15.14,57.791-15.14,57.791-1.214-1.044-12.655-7.153-22.331-12.218-1.878-.987-3.7-1.954-5.35-2.808-4.876-2.561-8.424-4.383-8.424-4.383S134,219.649,142.368,208.3c7.8-10.606,16.981-22.2,23.26-27.416.474-.4.93-.759,1.366-1.1C178.815,170.4,181.091,174.266,178.435,191.474Z" transform="translate(-127.19 -174.803)"/><path class="l" d="M178.435,191.474c-2.751,17.853-15.14,57.791-15.14,57.791-1.214-1.044-12.655-7.153-22.331-12.218-1.878-.987-3.7-1.954-5.35-2.808-4.876-2.561-8.424-4.383-8.424-4.383S134,219.649,142.368,208.3c7.8-10.606,16.981-22.2,23.26-27.416.474-.4.93-.759,1.366-1.1C178.815,170.4,181.091,174.266,178.435,191.474Z" transform="translate(-127.19 -174.803)"/><path class="b" d="M174.451,191.474c-2.751,17.853-15.14,57.791-15.14,57.791-1.214-1.044-12.655-7.153-22.331-12.218-1.878-.987-3.7-1.954-5.35-2.808,7.684-13.528,22.084-38.4,31.381-54.452C174.831,170.4,177.107,174.266,174.451,191.474Z" transform="translate(-123.206 -174.803)"/><path class="b" d="M162.591,217.174c-14-8.439-29.977-15.165-32.678-16.537-.129-.065-.216.152-.083.211,2.719,1.2,20.158,10.892,32.671,16.557C162.644,217.47,162.726,217.256,162.591,217.174Z" transform="translate(-124.881 -151.633)"/></g></g><g transform="translate(235.033 78.751)"><g transform="translate(10.483 40.714)"><path class="a" d="M154.737,186.594c.29,1.717,7.686,13.19,15.436,13.3,2.525.032,3.318-13.738,3.318-13.738l.29-1,4.062-14.045-16.068-11.765-2.33-1.569s-.859,3.916-1.878,8.8c-.047.226-.1.453-.146.7-.065.275-.129.533-.176.793-.163.727-.324,1.472-.471,2.216-.112.567-.226,1.117-.323,1.715-.114.6-.211,1.182-.324,1.78A94.155,94.155,0,0,0,154.737,186.594Z" transform="translate(-154.722 -157.775)"/><path class="a" d="M156.222,166.578a29.327,29.327,0,0,0,16.214,18.576l4.062-14.045L160.43,159.344l-2.33-1.569S157.241,161.691,156.222,166.578Z" transform="translate(-153.376 -157.775)"/></g><path class="a" d="M198.96,164.282c5.959,24.96-8.2,31.584-13.7,32.627-4.935.935-21.676,4.493-30.182-19.718s1.218-34.872,12.254-38.118S193,139.321,198.96,164.282Z" transform="translate(-146.824 -134.758)"/><g transform="translate(31.959 21.937)"><path class="b" d="M177.168,150.365a16.694,16.694,0,0,1-1.77-.076,2.881,2.881,0,0,1-1.791-.423.913.913,0,0,1-.18-1.1,2.269,2.269,0,0,1,2.115-.888,3.331,3.331,0,0,1,2.25.82A.973.973,0,0,1,177.168,150.365Z" transform="translate(-159.512 -147.878)"/><path class="b" d="M167.4,152.562a17.123,17.123,0,0,0,1.652-.645,2.867,2.867,0,0,0,1.558-.979.911.911,0,0,0-.184-1.1,2.262,2.262,0,0,0-2.288-.157,3.338,3.338,0,0,0-1.867,1.5A.974.974,0,0,0,167.4,152.562Z" transform="translate(-165.946 -146.467)"/><g transform="translate(0 10.195)"><g transform="translate(2.604)"><path class="b" d="M169.815,154.055c-.027-.064-.12.106-.1.176.381,1.706.529,3.724-.915,4.589-.046.027-.025.112.032.093C170.672,158.286,170.448,155.609,169.815,154.055Z" transform="translate(-166.195 -152.543)"/><path class="b" d="M169.158,153.26c-2.8.315-1.964,5.893.63,5.6C172.342,158.575,171.505,153,169.158,153.26Z" transform="translate(-167.413 -153.251)"/></g><path class="b" d="M169.338,153.52c-.44.389-.833,1.017-1.412,1.163-.67.169-1.271-.338-1.8-.833-.055-.051-.1,0-.085.078.144,1.072.719,2.108,1.888,2.095,1.068-.011,1.677-1.07,1.782-2.184C169.733,153.632,169.515,153.364,169.338,153.52Z" transform="translate(-166.041 -153.052)"/></g><g transform="translate(15.356 6.656)"><g transform="translate(0 0.624)"><path class="b" d="M174.145,152.816c0-.068.146.063.154.133.192,1.738.7,3.7,2.349,4.049.051.011.059.1,0,.1C174.7,157.1,174.046,154.493,174.145,152.816Z" transform="translate(-174.135 -150.744)"/><path class="b" d="M175.431,151.761c2.753-.605,3.762,4.944,1.212,5.506C174.133,157.819,173.124,152.269,175.431,151.761Z" transform="translate(-174.133 -151.715)"/></g><path class="b" d="M175.578,152.21c.491.216,1.023.67,1.552.609.615-.07.954-.751,1.237-1.4.03-.066.082-.028.1.046.222,1.055.072,2.224-.911,2.613-.9.355-1.744-.431-2.188-1.442C175.284,152.45,175.379,152.124,175.578,152.21Z" transform="translate(-173.056 -151.386)"/></g><path class="b" d="M170.437,161.091c.459.364.932.882,1.569.869a4.618,4.618,0,0,0,1.821-.63.061.061,0,0,1,.085.08,2.354,2.354,0,0,1-2.108,1.173,1.86,1.86,0,0,1-1.527-1.394C170.242,161.089,170.371,161.038,170.437,161.091Z" transform="translate(-162.245 -136.041)"/><g transform="translate(8.645 0.961)"><path class="b" d="M176.347,165.072s.772,2.518.969,3.734c.019.114-.268.214-.675.305-.019.009-.028.019-.047.009a5.853,5.853,0,0,1-5.959-1.25c-.1-.1.03-.254.154-.2a8.817,8.817,0,0,0,5.519.658c.032-.351-1.467-4.269-1.277-4.314a10.708,10.708,0,0,1,2.861.178c-1.459-5.293-3.753-10.31-5.126-15.6a.168.168,0,0,1,.305-.129c2.778,5.087,4.588,11.141,6.234,16.567C179.515,165.708,176.867,165.2,176.347,165.072Z" transform="translate(-170.598 -148.384)"/></g><g transform="translate(8.525 20.172)"><path class="b" d="M176.447,159.11a7.161,7.161,0,0,1-2.155,2.916,3.235,3.235,0,0,1-1.85.649c-1.463.027-1.85-1.214-1.9-2.354a7.729,7.729,0,0,1,.148-1.81A9.269,9.269,0,0,0,176.447,159.11Z" transform="translate(-170.534 -158.51)"/><path class="m" d="M174.289,161.2a3.235,3.235,0,0,1-1.85.649c-1.463.027-1.85-1.214-1.9-2.354A3.326,3.326,0,0,1,174.289,161.2Z" transform="translate(-170.531 -157.683)"/></g></g><path class="b" d="M157.879,177.91c2.753-.556,8.9-9.217,7.23-22.657,0,0,.668,12.173.011,14.064s3.436-4.87,2.237-15.728c0,0,6.6,3.476,11.909,4.185s8.426.22,8.739-.2-7.536-1.727-9.9-3.783c0,0,14.476,4.4,20.805,3.99.732-.047-.508-15.064-11.08-20.018s-24.943,4.039-28.5,8.6c0,0-4.745,1.374-8.995,9.278S154.914,178.512,157.879,177.91Z" transform="translate(-149.196 -136.316)"/><g transform="translate(2.007 37.678)"><path class="a" d="M161.239,161.3s-6.72-7.1-10.021-4.588,2.575,13.376,7.029,14.319a4.34,4.34,0,0,0,5.407-3.165Z" transform="translate(-150.254 -156.175)"/><path class="b" d="M151.716,158.082a.059.059,0,0,0-.006.116c3.138.757,5.1,3.269,6.618,5.954-1.042-.966-2.33-1.387-3.641-.121-.068.066.023.176.1.146a2.668,2.668,0,0,1,3.041.49,12.824,12.824,0,0,1,1.742,2.144c.178.243.636.03.49-.26l-.036-.065C159.542,162.7,155.823,157.858,151.716,158.082Z" transform="translate(-148.989 -154.471)"/></g></g><g transform="translate(0 250.994)"><path class="g" d="M96.028,521.893c.744-.359,104.754-51.621,121.958-83.88,30.757-57.667,41.452-131.4,45.324-148.723,0,0,12.435-29.5,16.113-62.16.006-.059-83.827-.011-83.827-.011s-21.987,42.059-10.651,71.775c1.04,2.724-18.644,96.1-28.269,107.15-10.7,12.283-92.752,53.469-94.137,54.176Z" transform="translate(8.082 -227.1)"/><path d="M230.669,232.795c-4.121,21.17-8.837,42.25-13.579,63.289q-7.064,31.347-14.988,62.483-3.979,15.692-8.2,31.322c-2.55,9.445-5.058,19.2-11.513,26.835-6.24,7.388-14.694,12.9-22.581,18.364-8.346,5.777-16.92,11.213-25.643,16.4C116.56,461.964,98.4,471.467,80.161,480.777q-3.341,1.7-6.686,3.4c-.5.256-.042.994.459.746,18.479-9.2,36.906-18.553,54.789-28.874q13.39-7.727,26.321-16.214,6.355-4.186,12.549-8.616a126.761,126.761,0,0,0,11.211-8.724,44.722,44.722,0,0,0,8.919-10.72,61.971,61.971,0,0,0,5.4-13.19c3.049-10.078,5.58-20.339,8.225-30.529q8.191-31.575,15.282-63.429c4.726-21.238,9.1-42.554,12.922-63.974.463-2.6.926-5.193,1.408-7.786C230.991,232.679,230.7,232.607,230.669,232.795Z" transform="translate(17.699 -222.09)"/><path d="M213.171,227.135c-3.681,32.652-16.108,62.154-16.108,62.154-.4,1.745-.854,4.06-1.385,6.887-.133.683-.266,1.385-.417,2.106-.171.949-.36,1.954-.569,2.979-.171.93-.36,1.916-.55,2.922-.133.664-.266,1.347-.4,2.03-.247,1.347-.531,2.77-.816,4.231-.114.588-.228,1.2-.36,1.783-.209,1.119-.455,2.277-.683,3.453-.968,4.743-2.049,9.923-3.263,15.444-.531,2.334-1.081,4.762-1.67,7.229q-.854,3.7-1.821,7.57c-.266,1.1-.55,2.2-.835,3.3-1.442,5.768-3.055,11.744-4.819,17.834-.379,1.347-.778,2.694-1.176,4.06q-2.7,9.021-5.844,18.29c-.531,1.537-1.081,3.074-1.613,4.629q-1.651,4.61-3.434,9.259L136.37,227.116C156.538,227.1,213.19,227.1,213.171,227.135Z" transform="translate(74.328 -227.098)"/><g transform="translate(0 222.017)"><g transform="translate(0.994)"><path class="d" d="M66.61,370.168c-3.73,1.983-7.394,3.952-10.928,5.889-2.2,1.2-4.341,2.389-6.407,3.538-13.3,7.4-23.295,13.444-23.431,14.987-.438,4.751,47.517,99.022,50.285,101.767,2.778,2.723,10.763-5.007,11.82-10.148.636-3.125.072-20.728-.478-34.045a.245.245,0,0,1,.006-.059c-.366-8.559-.7-15.351-.7-15.351l11.2-5.356,51.057-24.306L116.776,344.12S90.808,357.243,66.61,370.168Z" transform="translate(-25.84 -344.12)"/></g><path class="l" d="M137.82,415.353c-1.3-1.751-35.17-68.645-35.17-68.645S27.294,385.8,25.369,391.77,75.64,496.237,77.817,497.239s10.856-5.722,13.4-15.886c1.852-7.4-.514-44.077-.514-44.077Z" transform="translate(-25.317 -341.798)"/><g transform="translate(60.648 68.144)"><g transform="translate(0 10.553)"><path class="g" d="M66.618,405.046c-.175-7.094-2.994-15.22-8.963-19.4-.231-.161-.457.169-.342.376A98.068,98.068,0,0,1,65.749,405.2.447.447,0,0,0,66.618,405.046Z" transform="translate(-57.283 -385.599)"/></g><g transform="translate(5.149 7.915)"><path class="g" d="M69.332,403.656c-.175-7.1-2.994-15.22-8.963-19.4-.231-.163-.457.169-.342.376a97.975,97.975,0,0,1,8.435,19.183A.447.447,0,0,0,69.332,403.656Z" transform="translate(-59.997 -384.209)"/></g><g transform="translate(10.3 5.277)"><path class="g" d="M72.045,402.265c-.175-7.1-2.992-15.22-8.961-19.4-.231-.161-.459.169-.342.376a98.25,98.25,0,0,1,8.435,19.183A.446.446,0,0,0,72.045,402.265Z" transform="translate(-62.711 -382.818)"/></g><g transform="translate(15.449 2.639)"><path class="g" d="M74.761,400.873c-.175-7.094-2.994-15.22-8.963-19.4-.231-.163-.459.167-.341.374a98.068,98.068,0,0,1,8.435,19.183A.447.447,0,0,0,74.761,400.873Z" transform="translate(-65.425 -381.428)"/></g><g transform="translate(20.599)"><path class="g" d="M77.475,399.484c-.175-7.1-2.994-15.22-8.963-19.4-.231-.163-.457.169-.341.376a97.971,97.971,0,0,1,8.435,19.183A.447.447,0,0,0,77.475,399.484Z" transform="translate(-68.14 -380.037)"/></g></g></g><g transform="translate(203.557 0.029)"><path class="g" d="M166.592,302.119c.017.049,7.17,68,10.518,102.223.842,8.528,1.425,14.967,1.618,17.736.082,1.083.129,18.851.161,42.089.032,20.373.049,44.939.049,66.087V545.5c.015,19.517.015,33.4.015,33.4h69.131s.015-.649.032-1.861c.015-.647.032-1.44.032-2.4.032-.969.049-2.087.064-3.366.017-.744.032-1.552.049-2.394.08-5.825.211-13.884.355-23.285.064-4.806.131-9.953.2-15.341.533-41.863.97-98.079-.228-114.633-.144-1.926-.275-3.9-.4-5.923-3.123-46.88-4.838-115.136-27.833-182.581H132.606s.763,39.628,18.787,68.286C151.393,295.4,161.365,299.18,166.592,302.119Z" transform="translate(-132.606 -227.116)"/><path d="M197.873,433.047c-.343-21.858-1.233-43.7-2.935-65.5-1.685-21.576-4.335-43.032-7.83-64.389-3.508-21.424-7.828-42.848-13.935-63.695-.768-2.616-1.537-5.233-2.345-7.84a.282.282,0,0,0-.539.163c5.589,20.944,10.418,42.064,14.07,63.435,3.669,21.477,6.067,43.148,7.889,64.856,1.825,21.765,2.853,43.6,3.4,65.437.543,21.807.6,43.63.385,65.44-.218,21.792-1.055,43.586-1.114,65.376-.01,2.73-.03,5.456-.1,8.187-.006.19.288.182.3-.008.385-10.938,1.043-21.868,1.4-32.808q.538-16.438.937-32.878C197.958,476.906,198.216,454.976,197.873,433.047Z" transform="translate(-98.805 -223.24)"/><path class="b" d="M169.529,275.219c-4.314-2.353-8.731-4.472-13.252-6.4-4.54-1.937-9.156-3.688-13.664-5.7-.173-.076-.315.171-.144.26,4.426,2.286,8.777,4.739,13.266,6.9a105.9,105.9,0,0,0,13.6,5.436C169.626,275.806,169.791,275.362,169.529,275.219Z" transform="translate(-123.826 -194.828)"/><g transform="translate(43.867 303.143)"><g transform="translate(2.258)"><path class="d" d="M157.253,443.418c.065,4.223.144,8.382.258,12.412.065,2.508.146,4.952.226,7.314.518,15.21,1.343,26.861,2.654,27.687,4.03,2.557,109.795,2.865,113.5,1.651,3.688-1.229.452-11.86-3.643-15.146-2.491-1.99-18.415-9.515-30.518-15.1a.153.153,0,0,1-.049-.032c-7.784-3.576-13.981-6.375-13.981-6.375l.34-12.412,1.651-56.523H156.944S156.782,415.99,157.253,443.418Z" transform="translate(-156.917 -386.895)"/></g><path class="l" d="M232.858,394.921c-2.153.359-77.131,0-77.131,0s.427,84.889,4.866,89.329,115.9,2.892,117.78,1.412-.142-12.27-8.027-19.17c-5.739-5.022-39.461-19.642-39.461-19.642Z" transform="translate(-155.727 -379.694)"/><g transform="translate(58.153 38.21)"><g transform="translate(0 23.145)"><path class="g" d="M207.851,422.162c-6.4-3.079-14.911-4.276-21.356-.871-.25.131-.059.484.178.474a97.963,97.963,0,0,1,20.919,1.241A.447.447,0,0,0,207.851,422.162Z" transform="translate(-186.378 -419.234)"/></g><g transform="translate(0 17.359)"><path class="g" d="M207.851,419.112c-6.4-3.079-14.911-4.276-21.356-.871-.25.131-.059.484.178.474a98.209,98.209,0,0,1,20.919,1.241A.447.447,0,0,0,207.851,419.112Z" transform="translate(-186.378 -416.184)"/></g><g transform="translate(0 11.573)"><path class="g" d="M207.851,416.061c-6.4-3.079-14.911-4.275-21.356-.871-.25.133-.059.486.178.476a98.084,98.084,0,0,1,20.919,1.239A.447.447,0,0,0,207.851,416.061Z" transform="translate(-186.378 -413.134)"/></g><g transform="translate(0 5.786)"><path class="g" d="M207.851,413.013c-6.4-3.081-14.911-4.276-21.356-.873-.25.133-.059.486.178.476a98.084,98.084,0,0,1,20.919,1.239A.446.446,0,0,0,207.851,413.013Z" transform="translate(-186.378 -410.084)"/></g><path class="g" d="M207.851,409.963c-6.4-3.081-14.911-4.276-21.356-.871-.25.131-.059.484.178.474a98.09,98.09,0,0,1,20.919,1.239A.446.446,0,0,0,207.851,409.963Z" transform="translate(-186.378 -407.035)"/></g></g></g></g><g transform="translate(188.045)"><path class="l" d="M229.709,253.092l7.726,53.124s-91.515,1.277-113-.239c0,0,22.471-99.309,45.578-124.4,11.558-12.55,25.129-11.611,33.777-2.838,2.189,2.22,28.3,36.731,31.053,49.915C237.236,240.287,229.709,253.092,229.709,253.092Z" transform="translate(-124.43 -25.415)"/><g transform="translate(56.472)"><path class="a" d="M159.893,236.582c12.979,1.954,89.016-2.6,102.479-18.381,16.309-19.111,36.116-56.613,41.025-68.637,3.265-8-34.492-28.412-36.6-20.881-3.328,11.881-32.7,56.747-34.982,60.654s-36.12,15.578-55.723,25.414C158.428,223.613,150.75,235.205,159.893,236.582Z" transform="translate(-152.562 -65.884)"/><g transform="translate(113.762)"><path class="a" d="M214.156,159.321s4.292-15.78,7.583-25.966c1.837-5.684,5.853-15.148,9.113-18.705,4.874-5.324,28.66-24.471,33.428-18.8,4.314,5.13-18.21,18.986-18.21,18.986s21.492-15.99,25.552-8.858-23.471,19.4-23.471,19.4,22.45-15.933,25.475-7.915c2.284,6.058-22.025,18.576-22.025,18.576s19.392-13.562,22.01-7.432c2.893,6.773-18.821,19.735-18.821,19.735,4.032,16.7-.88,26.3-5.189,32.715C248.559,182.608,214.156,159.321,214.156,159.321Z" transform="translate(-214.156 -94.808)"/><g transform="translate(24.101 9.675)"><path class="b" d="M226.884,115.31c2.457-1.969,4.931-3.98,7.553-5.726s5.31-3.4,8.084-4.891a53.823,53.823,0,0,1,11.346-4.779c-6.864,2.563-16.351,8.663-18.976,10.408s-5.324,3.351-7.944,5.088C226.882,115.456,226.825,115.356,226.884,115.31Z" transform="translate(-226.859 -99.908)"/><path class="b" d="M230.112,119.316c3.244-2.379,6.38-4.861,9.733-7.1,3.334-2.225,6.694-4.045,10.173-6.035.269-.154.264.042,0,.207-3.4,2.127-6.375,4.356-9.746,6.523s-6.832,4.2-10.111,6.485C230.11,119.434,230.063,119.352,230.112,119.316Z" transform="translate(-223.959 -94.327)"/><path class="b" d="M232.11,122.527a90.052,90.052,0,0,1,15.711-9.714c.271-.138.237.11-.032.269-5.284,3.13-9.452,5.549-15.544,9.612C232.15,122.757,232.01,122.609,232.11,122.527Z" transform="translate(-222.178 -88.364)"/></g></g><g transform="translate(0 127.716)"><path class="l" d="M214.4,162.124,232.876,202.1s-45.753,12.245-67.691,9.3c-15.84-2.123-15.313-14.725,6.53-27.719C188.96,173.428,214.4,162.124,214.4,162.124Z" transform="translate(-154.195 -162.124)"/><path class="b" d="M199.08,200.56C193,183.9,184.071,167.309,182.722,164.307c-.064-.142-.286-.023-.214.118,1.478,2.874,9.619,22.94,16.339,36.264C198.923,200.845,199.139,200.721,199.08,200.56Z" transform="translate(-128.804 -160.222)"/><path class="b" d="M185.063,187.428c-7.181,1.053-14.021,3.73-20.876,6.007a.149.149,0,0,0,.087.285c2.652-.774,5.341-1.457,8.025-2.157-1.218.755-2.415,1.544-3.656,2.256-.165.095-.009.347.156.252,1.871-1.072,3.842-1.975,5.692-3.087a90.88,90.88,0,0,0,10.6-3.4C185.167,187.557,185.162,187.415,185.063,187.428Z" transform="translate(-145.319 -139.42)"/></g></g></g></g><g transform="translate(620.214 130.726)"><path class="o" d="M344.163,147.754a23.027,23.027,0,0,1-3.941-12.725c0-16.121,17.7-29.191,39.526-29.191s39.511,13.07,39.511,29.191-17.686,29.191-39.511,29.191c-10.581,0-20.174-3.066-27.262-8.077L338.872,159.6Z" transform="translate(-338.872 -105.838)"/><g transform="translate(18.46 25.091)"><path class="b" d="M367.908,123.161a4.1,4.1,0,1,0,4.1-4.1A4.1,4.1,0,0,0,367.908,123.161Z" transform="translate(-331.279 -119.063)"/><path class="b" d="M358.255,123.161a4.1,4.1,0,1,0,4.1-4.1A4.1,4.1,0,0,0,358.255,123.161Z" transform="translate(-339.941 -119.063)"/><path class="b" d="M348.6,123.161a4.1,4.1,0,1,0,4.1-4.1A4.1,4.1,0,0,0,348.6,123.161Z" transform="translate(-348.602 -119.063)"/></g></g></g></svg>