<svg xmlns="http://www.w3.org/2000/svg" xmlns:xlink="http://www.w3.org/1999/xlink" width="1920" height="633" viewBox="0 0 1920 633"><defs><style>.a,.e{fill:#ddfafd;}.b,.c{fill:#b5e9eb;}.c,.e{fill-rule:evenodd;}.d{clip-path:url(#a);}</style><clipPath id="a"><rect class="a" width="1920" height="633"/></clipPath></defs><g transform="translate(0)"><g transform="translate(78.887 32.395)"><g transform="translate(1493 124.011)"><path class="b" d="M295.151,124.732a2.266,2.266,0,1,1-2.266-2.268A2.267,2.267,0,0,1,295.151,124.732Z" transform="translate(-290.619 -122.464)"/><path class="b" d="M307.009,124.732a2.266,2.266,0,1,1-2.266-2.268A2.267,2.267,0,0,1,307.009,124.732Z" transform="translate(-272.118 -122.464)"/><circle class="b" cx="2.266" cy="2.266" r="2.266" transform="translate(60.72 0.001)"/><path class="b" d="M330.725,124.732a2.266,2.266,0,1,1-2.266-2.268A2.267,2.267,0,0,1,330.725,124.732Z" transform="translate(-235.114 -122.464)"/><path class="b" d="M295.151,136.316a2.266,2.266,0,1,1-2.266-2.266A2.265,2.265,0,0,1,295.151,136.316Z" transform="translate(-290.619 -104.387)"/><path class="b" d="M307.009,136.316a2.266,2.266,0,1,1-2.266-2.266A2.265,2.265,0,0,1,307.009,136.316Z" transform="translate(-272.118 -104.387)"/><path class="b" d="M318.868,136.316a2.266,2.266,0,1,1-2.266-2.266A2.265,2.265,0,0,1,318.868,136.316Z" transform="translate(-253.615 -104.387)"/><path class="b" d="M330.725,136.316a2.266,2.266,0,1,1-2.266-2.266A2.265,2.265,0,0,1,330.725,136.316Z" transform="translate(-235.114 -104.387)"/><path class="b" d="M295.151,147.9a2.266,2.266,0,1,1-2.266-2.266A2.265,2.265,0,0,1,295.151,147.9Z" transform="translate(-290.619 -86.311)"/><path class="b" d="M307.009,147.9a2.266,2.266,0,1,1-2.266-2.266A2.265,2.265,0,0,1,307.009,147.9Z" transform="translate(-272.118 -86.311)"/><circle class="b" cx="2.266" cy="2.266" r="2.266" transform="translate(60.72 59.326)"/><path class="b" d="M330.725,147.9a2.266,2.266,0,1,1-2.266-2.266A2.265,2.265,0,0,1,330.725,147.9Z" transform="translate(-235.114 -86.311)"/><path class="b" d="M295.151,159.808a2.266,2.266,0,1,1-2.266-2.266A2.267,2.267,0,0,1,295.151,159.808Z" transform="translate(-290.619 -67.735)"/><path class="b" d="M307.009,159.808a2.266,2.266,0,1,1-2.266-2.266A2.267,2.267,0,0,1,307.009,159.808Z" transform="translate(-272.118 -67.735)"/><circle class="b" cx="2.266" cy="2.266" r="2.266" transform="translate(60.72 89.806)"/><path class="b" d="M330.725,159.808a2.266,2.266,0,1,1-2.266-2.266A2.267,2.267,0,0,1,330.725,159.808Z" transform="translate(-235.114 -67.735)"/><path class="b" d="M295.151,171.393a2.266,2.266,0,1,1-2.266-2.266A2.267,2.267,0,0,1,295.151,171.393Z" transform="translate(-290.619 -49.66)"/><path class="b" d="M307.009,171.393a2.266,2.266,0,1,1-2.266-2.266A2.267,2.267,0,0,1,307.009,171.393Z" transform="translate(-272.118 -49.66)"/><circle class="b" cx="2.266" cy="2.266" r="2.266" transform="translate(60.72 119.468)"/><path class="b" d="M330.725,171.393a2.266,2.266,0,1,1-2.266-2.266A2.267,2.267,0,0,1,330.725,171.393Z" transform="translate(-235.114 -49.66)"/><path class="b" d="M295.151,182.979a2.266,2.266,0,1,1-2.266-2.266A2.265,2.265,0,0,1,295.151,182.979Z" transform="translate(-290.619 -31.583)"/><path class="b" d="M307.009,182.979a2.266,2.266,0,1,1-2.266-2.266A2.265,2.265,0,0,1,307.009,182.979Z" transform="translate(-272.118 -31.583)"/><circle class="b" cx="2.266" cy="2.266" r="2.266" transform="translate(60.72 149.13)"/><path class="b" d="M330.725,182.979a2.266,2.266,0,1,1-2.266-2.266A2.265,2.265,0,0,1,330.725,182.979Z" transform="translate(-235.114 -31.583)"/><circle class="b" cx="2.266" cy="2.266" r="2.266" transform="translate(122.96 0.001)"/><circle class="b" cx="2.266" cy="2.266" r="2.266" transform="translate(153.32 0.001)"/><path class="b" d="M366.895,124.732a2.266,2.266,0,1,1-2.266-2.268A2.267,2.267,0,0,1,366.895,124.732Z" transform="translate(-178.683 -122.464)"/><path class="b" d="M378.755,124.732a2.267,2.267,0,1,1-2.268-2.268A2.269,2.269,0,0,1,378.755,124.732Z" transform="translate(-160.182 -122.464)"/><path class="b" d="M343.177,136.316a2.266,2.266,0,1,1-2.266-2.266A2.265,2.265,0,0,1,343.177,136.316Z" transform="translate(-215.687 -104.387)"/><path class="b" d="M355.037,136.316a2.266,2.266,0,1,1-2.266-2.266A2.265,2.265,0,0,1,355.037,136.316Z" transform="translate(-197.184 -104.387)"/><path class="b" d="M366.895,136.316a2.266,2.266,0,1,1-2.266-2.266A2.265,2.265,0,0,1,366.895,136.316Z" transform="translate(-178.683 -104.387)"/><path class="b" d="M378.755,136.316a2.267,2.267,0,1,1-2.268-2.266A2.267,2.267,0,0,1,378.755,136.316Z" transform="translate(-160.182 -104.387)"/><circle class="b" cx="2.266" cy="2.266" r="2.266" transform="translate(122.96 59.326)"/><circle class="b" cx="2.266" cy="2.266" r="2.266" transform="translate(153.32 59.326)"/><path class="b" d="M366.895,147.9a2.266,2.266,0,1,1-2.266-2.266A2.265,2.265,0,0,1,366.895,147.9Z" transform="translate(-178.683 -86.311)"/><path class="b" d="M378.755,147.9a2.267,2.267,0,1,1-2.268-2.266A2.267,2.267,0,0,1,378.755,147.9Z" transform="translate(-160.182 -86.311)"/><circle class="b" cx="2.266" cy="2.266" r="2.266" transform="translate(122.96 89.806)"/><circle class="b" cx="2.266" cy="2.266" r="2.266" transform="translate(153.32 89.806)"/><path class="b" d="M366.895,159.808a2.266,2.266,0,1,1-2.266-2.266A2.267,2.267,0,0,1,366.895,159.808Z" transform="translate(-178.683 -67.735)"/><path class="b" d="M378.755,159.808a2.267,2.267,0,1,1-2.268-2.266A2.269,2.269,0,0,1,378.755,159.808Z" transform="translate(-160.182 -67.735)"/><circle class="b" cx="2.266" cy="2.266" r="2.266" transform="translate(122.96 119.468)"/><circle class="b" cx="2.266" cy="2.266" r="2.266" transform="translate(153.32 119.468)"/><path class="b" d="M366.895,171.393a2.266,2.266,0,1,1-2.266-2.266A2.267,2.267,0,0,1,366.895,171.393Z" transform="translate(-178.683 -49.66)"/><path class="b" d="M378.755,171.393a2.267,2.267,0,1,1-2.268-2.266A2.269,2.269,0,0,1,378.755,171.393Z" transform="translate(-160.182 -49.66)"/><circle class="b" cx="2.266" cy="2.266" r="2.266" transform="translate(122.96 149.13)"/><circle class="b" cx="2.266" cy="2.266" r="2.266" transform="translate(153.32 149.13)"/><path class="b" d="M366.895,182.979a2.266,2.266,0,1,1-2.266-2.266A2.265,2.265,0,0,1,366.895,182.979Z" transform="translate(-178.683 -31.583)"/><path class="b" d="M378.755,182.979a2.267,2.267,0,1,1-2.268-2.266A2.267,2.267,0,0,1,378.755,182.979Z" transform="translate(-160.182 -31.583)"/><path class="b" d="M391.205,124.732a2.266,2.266,0,1,1-2.266-2.268A2.267,2.267,0,0,1,391.205,124.732Z" transform="translate(-140.753 -122.464)"/><path class="b" d="M403.064,124.732a2.266,2.266,0,1,1-2.266-2.268A2.267,2.267,0,0,1,403.064,124.732Z" transform="translate(-122.252 -122.464)"/><circle class="b" cx="2.266" cy="2.266" r="2.266" transform="translate(306.64 0.001)"/><path class="b" d="M391.205,136.316a2.266,2.266,0,1,1-2.266-2.266A2.265,2.265,0,0,1,391.205,136.316Z" transform="translate(-140.753 -104.387)"/><path class="b" d="M403.064,136.316a2.266,2.266,0,1,1-2.266-2.266A2.265,2.265,0,0,1,403.064,136.316Z" transform="translate(-122.252 -104.387)"/><path class="b" d="M414.924,136.316a2.267,2.267,0,1,1-2.268-2.266A2.267,2.267,0,0,1,414.924,136.316Z" transform="translate(-103.751 -104.387)"/><path class="b" d="M391.205,147.9a2.266,2.266,0,1,1-2.266-2.266A2.265,2.265,0,0,1,391.205,147.9Z" transform="translate(-140.753 -86.311)"/><path class="b" d="M403.064,147.9a2.266,2.266,0,1,1-2.266-2.266A2.265,2.265,0,0,1,403.064,147.9Z" transform="translate(-122.252 -86.311)"/><circle class="b" cx="2.266" cy="2.266" r="2.266" transform="translate(306.64 59.326)"/><path class="b" d="M391.205,159.808a2.266,2.266,0,1,1-2.266-2.266A2.267,2.267,0,0,1,391.205,159.808Z" transform="translate(-140.753 -67.735)"/><path class="b" d="M403.064,159.808a2.266,2.266,0,1,1-2.266-2.266A2.267,2.267,0,0,1,403.064,159.808Z" transform="translate(-122.252 -67.735)"/><circle class="b" cx="2.266" cy="2.266" r="2.266" transform="translate(306.64 89.806)"/><path class="b" d="M391.205,171.393a2.266,2.266,0,1,1-2.266-2.266A2.267,2.267,0,0,1,391.205,171.393Z" transform="translate(-140.753 -49.66)"/><path class="b" d="M403.064,171.393a2.266,2.266,0,1,1-2.266-2.266A2.267,2.267,0,0,1,403.064,171.393Z" transform="translate(-122.252 -49.66)"/><circle class="b" cx="2.266" cy="2.266" r="2.266" transform="translate(306.64 119.468)"/><path class="b" d="M391.205,182.979a2.266,2.266,0,1,1-2.266-2.266A2.265,2.265,0,0,1,391.205,182.979Z" transform="translate(-140.753 -31.583)"/><path class="b" d="M403.064,182.979a2.266,2.266,0,1,1-2.266-2.266A2.265,2.265,0,0,1,403.064,182.979Z" transform="translate(-122.252 -31.583)"/><circle class="b" cx="2.266" cy="2.266" r="2.266" transform="translate(306.64 149.13)"/></g><g transform="translate(0 446.653)"><path class="b" d="M295.151,124.732a2.266,2.266,0,1,1-2.266-2.268A2.267,2.267,0,0,1,295.151,124.732Z" transform="translate(-290.619 -122.464)"/><path class="b" d="M307.009,124.732a2.266,2.266,0,1,1-2.266-2.268A2.267,2.267,0,0,1,307.009,124.732Z" transform="translate(-272.118 -122.464)"/><circle class="b" cx="2.266" cy="2.266" r="2.266" transform="translate(60.72 0.001)"/><path class="b" d="M330.725,124.732a2.266,2.266,0,1,1-2.266-2.268A2.267,2.267,0,0,1,330.725,124.732Z" transform="translate(-235.114 -122.464)"/><path class="b" d="M295.151,136.316a2.266,2.266,0,1,1-2.266-2.266A2.265,2.265,0,0,1,295.151,136.316Z" transform="translate(-290.619 -104.387)"/><path class="b" d="M307.009,136.316a2.266,2.266,0,1,1-2.266-2.266A2.265,2.265,0,0,1,307.009,136.316Z" transform="translate(-272.118 -104.387)"/><path class="b" d="M318.868,136.316a2.266,2.266,0,1,1-2.266-2.266A2.265,2.265,0,0,1,318.868,136.316Z" transform="translate(-253.615 -104.387)"/><path class="b" d="M330.725,136.316a2.266,2.266,0,1,1-2.266-2.266A2.265,2.265,0,0,1,330.725,136.316Z" transform="translate(-235.114 -104.387)"/><path class="b" d="M295.151,147.9a2.266,2.266,0,1,1-2.266-2.266A2.265,2.265,0,0,1,295.151,147.9Z" transform="translate(-290.619 -86.311)"/><path class="b" d="M307.009,147.9a2.266,2.266,0,1,1-2.266-2.266A2.265,2.265,0,0,1,307.009,147.9Z" transform="translate(-272.118 -86.311)"/><circle class="b" cx="2.266" cy="2.266" r="2.266" transform="translate(60.72 59.326)"/><path class="b" d="M330.725,147.9a2.266,2.266,0,1,1-2.266-2.266A2.265,2.265,0,0,1,330.725,147.9Z" transform="translate(-235.114 -86.311)"/><path class="b" d="M295.151,159.808a2.266,2.266,0,1,1-2.266-2.266A2.267,2.267,0,0,1,295.151,159.808Z" transform="translate(-290.619 -67.735)"/><path class="b" d="M307.009,159.808a2.266,2.266,0,1,1-2.266-2.266A2.267,2.267,0,0,1,307.009,159.808Z" transform="translate(-272.118 -67.735)"/><circle class="b" cx="2.266" cy="2.266" r="2.266" transform="translate(60.72 89.806)"/><path class="b" d="M330.725,159.808a2.266,2.266,0,1,1-2.266-2.266A2.267,2.267,0,0,1,330.725,159.808Z" transform="translate(-235.114 -67.735)"/><path class="b" d="M295.151,171.393a2.266,2.266,0,1,1-2.266-2.266A2.267,2.267,0,0,1,295.151,171.393Z" transform="translate(-290.619 -49.66)"/><path class="b" d="M307.009,171.393a2.266,2.266,0,1,1-2.266-2.266A2.267,2.267,0,0,1,307.009,171.393Z" transform="translate(-272.118 -49.66)"/><circle class="b" cx="2.266" cy="2.266" r="2.266" transform="translate(60.72 119.468)"/><path class="b" d="M330.725,171.393a2.266,2.266,0,1,1-2.266-2.266A2.267,2.267,0,0,1,330.725,171.393Z" transform="translate(-235.114 -49.66)"/><path class="b" d="M295.151,182.979a2.266,2.266,0,1,1-2.266-2.266A2.265,2.265,0,0,1,295.151,182.979Z" transform="translate(-290.619 -31.583)"/><path class="b" d="M307.009,182.979a2.266,2.266,0,1,1-2.266-2.266A2.265,2.265,0,0,1,307.009,182.979Z" transform="translate(-272.118 -31.583)"/><circle class="b" cx="2.266" cy="2.266" r="2.266" transform="translate(60.72 149.13)"/><path class="b" d="M330.725,182.979a2.266,2.266,0,1,1-2.266-2.266A2.265,2.265,0,0,1,330.725,182.979Z" transform="translate(-235.114 -31.583)"/><circle class="b" cx="2.266" cy="2.266" r="2.266" transform="translate(122.96 0.001)"/><circle class="b" cx="2.266" cy="2.266" r="2.266" transform="translate(153.32 0.001)"/><path class="b" d="M366.895,124.732a2.266,2.266,0,1,1-2.266-2.268A2.267,2.267,0,0,1,366.895,124.732Z" transform="translate(-178.683 -122.464)"/><path class="b" d="M378.755,124.732a2.267,2.267,0,1,1-2.268-2.268A2.269,2.269,0,0,1,378.755,124.732Z" transform="translate(-160.182 -122.464)"/><path class="b" d="M343.177,136.316a2.266,2.266,0,1,1-2.266-2.266A2.265,2.265,0,0,1,343.177,136.316Z" transform="translate(-215.687 -104.387)"/><path class="b" d="M355.037,136.316a2.266,2.266,0,1,1-2.266-2.266A2.265,2.265,0,0,1,355.037,136.316Z" transform="translate(-197.184 -104.387)"/><path class="b" d="M366.895,136.316a2.266,2.266,0,1,1-2.266-2.266A2.265,2.265,0,0,1,366.895,136.316Z" transform="translate(-178.683 -104.387)"/><path class="b" d="M378.755,136.316a2.267,2.267,0,1,1-2.268-2.266A2.267,2.267,0,0,1,378.755,136.316Z" transform="translate(-160.182 -104.387)"/><circle class="b" cx="2.266" cy="2.266" r="2.266" transform="translate(122.96 59.326)"/><circle class="b" cx="2.266" cy="2.266" r="2.266" transform="translate(153.32 59.326)"/><path class="b" d="M366.895,147.9a2.266,2.266,0,1,1-2.266-2.266A2.265,2.265,0,0,1,366.895,147.9Z" transform="translate(-178.683 -86.311)"/><path class="b" d="M378.755,147.9a2.267,2.267,0,1,1-2.268-2.266A2.267,2.267,0,0,1,378.755,147.9Z" transform="translate(-160.182 -86.311)"/><circle class="b" cx="2.266" cy="2.266" r="2.266" transform="translate(122.96 89.806)"/><circle class="b" cx="2.266" cy="2.266" r="2.266" transform="translate(153.32 89.806)"/><path class="b" d="M366.895,159.808a2.266,2.266,0,1,1-2.266-2.266A2.267,2.267,0,0,1,366.895,159.808Z" transform="translate(-178.683 -67.735)"/><path class="b" d="M378.755,159.808a2.267,2.267,0,1,1-2.268-2.266A2.269,2.269,0,0,1,378.755,159.808Z" transform="translate(-160.182 -67.735)"/><circle class="b" cx="2.266" cy="2.266" r="2.266" transform="translate(122.96 119.468)"/><circle class="b" cx="2.266" cy="2.266" r="2.266" transform="translate(153.32 119.468)"/><path class="b" d="M366.895,171.393a2.266,2.266,0,1,1-2.266-2.266A2.267,2.267,0,0,1,366.895,171.393Z" transform="translate(-178.683 -49.66)"/><path class="b" d="M378.755,171.393a2.267,2.267,0,1,1-2.268-2.266A2.269,2.269,0,0,1,378.755,171.393Z" transform="translate(-160.182 -49.66)"/><circle class="b" cx="2.266" cy="2.266" r="2.266" transform="translate(122.96 149.13)"/><circle class="b" cx="2.266" cy="2.266" r="2.266" transform="translate(153.32 149.13)"/><path class="b" d="M366.895,182.979a2.266,2.266,0,1,1-2.266-2.266A2.265,2.265,0,0,1,366.895,182.979Z" transform="translate(-178.683 -31.583)"/><path class="b" d="M378.755,182.979a2.267,2.267,0,1,1-2.268-2.266A2.267,2.267,0,0,1,378.755,182.979Z" transform="translate(-160.182 -31.583)"/><path class="b" d="M391.205,124.732a2.266,2.266,0,1,1-2.266-2.268A2.267,2.267,0,0,1,391.205,124.732Z" transform="translate(-140.753 -122.464)"/><path class="b" d="M403.064,124.732a2.266,2.266,0,1,1-2.266-2.268A2.267,2.267,0,0,1,403.064,124.732Z" transform="translate(-122.252 -122.464)"/><circle class="b" cx="2.266" cy="2.266" r="2.266" transform="translate(306.64 0.001)"/><path class="b" d="M391.205,136.316a2.266,2.266,0,1,1-2.266-2.266A2.265,2.265,0,0,1,391.205,136.316Z" transform="translate(-140.753 -104.387)"/><path class="b" d="M403.064,136.316a2.266,2.266,0,1,1-2.266-2.266A2.265,2.265,0,0,1,403.064,136.316Z" transform="translate(-122.252 -104.387)"/><path class="b" d="M414.924,136.316a2.267,2.267,0,1,1-2.268-2.266A2.267,2.267,0,0,1,414.924,136.316Z" transform="translate(-103.751 -104.387)"/><path class="b" d="M391.205,147.9a2.266,2.266,0,1,1-2.266-2.266A2.265,2.265,0,0,1,391.205,147.9Z" transform="translate(-140.753 -86.311)"/><path class="b" d="M403.064,147.9a2.266,2.266,0,1,1-2.266-2.266A2.265,2.265,0,0,1,403.064,147.9Z" transform="translate(-122.252 -86.311)"/><circle class="b" cx="2.266" cy="2.266" r="2.266" transform="translate(306.64 59.326)"/><path class="b" d="M391.205,159.808a2.266,2.266,0,1,1-2.266-2.266A2.267,2.267,0,0,1,391.205,159.808Z" transform="translate(-140.753 -67.735)"/><path class="b" d="M403.064,159.808a2.266,2.266,0,1,1-2.266-2.266A2.267,2.267,0,0,1,403.064,159.808Z" transform="translate(-122.252 -67.735)"/><circle class="b" cx="2.266" cy="2.266" r="2.266" transform="translate(306.64 89.806)"/><path class="b" d="M391.205,171.393a2.266,2.266,0,1,1-2.266-2.266A2.267,2.267,0,0,1,391.205,171.393Z" transform="translate(-140.753 -49.66)"/><path class="b" d="M403.064,171.393a2.266,2.266,0,1,1-2.266-2.266A2.267,2.267,0,0,1,403.064,171.393Z" transform="translate(-122.252 -49.66)"/><circle class="b" cx="2.266" cy="2.266" r="2.266" transform="translate(306.64 119.468)"/><path class="b" d="M391.205,182.979a2.266,2.266,0,1,1-2.266-2.266A2.265,2.265,0,0,1,391.205,182.979Z" transform="translate(-140.753 -31.583)"/><path class="b" d="M403.064,182.979a2.266,2.266,0,1,1-2.266-2.266A2.265,2.265,0,0,1,403.064,182.979Z" transform="translate(-122.252 -31.583)"/><circle class="b" cx="2.266" cy="2.266" r="2.266" transform="translate(306.64 149.13)"/></g><path class="c" d="M494.773,511.318a2.908,2.908,0,1,1,5.816,0V524.4a2.908,2.908,0,1,1-5.816,0V511.318ZM474.94,521.943a2.91,2.91,0,1,1,4.113-4.117l9.254,9.254a2.909,2.909,0,0,1-4.113,4.116l-9.254-9.253Zm-6.51,21.539a2.911,2.911,0,1,1,0-5.823h13.086a2.912,2.912,0,0,1,0,5.823Zm10.623,19.832a2.909,2.909,0,1,1-4.113-4.116l9.254-9.254a2.909,2.909,0,0,1,4.113,4.114l-9.254,9.256Zm21.536,6.508a2.908,2.908,0,0,1-5.816,0V556.731a2.908,2.908,0,1,1,5.816,0v13.091ZM520.422,559.2a2.91,2.91,0,1,1-4.116,4.116l-9.255-9.256a2.91,2.91,0,0,1,4.116-4.114l9.255,9.254Zm6.51-21.539a2.911,2.911,0,0,1,0,5.823H513.844a2.911,2.911,0,0,1,0-5.823Zm-10.626-19.833a2.911,2.911,0,0,1,4.116,4.117l-9.255,9.253a2.91,2.91,0,0,1-4.116-4.116Z" transform="translate(-154.61 -508.405)"/></g><g transform="translate(0 0)"><g class="d" transform="translate(0 0)"><path class="e" d="M517.744,1180.195H402.672c-61.932,0-112.6,47.484-112.6,105.516h0c0,58.035,50.67,105.516,112.6,105.516h973c100.286,0,182.336-76.886,182.336-170.859h0c0-93.975-82.05-170.862-182.333-170.862h0c-42.4,0-77.094-32.508-77.094-72.242h0c0-39.734,34.693-72.245,77.1-72.245h92.783c44.086,0,80.156-33.8,80.156-75.109h0c0-41.311-36.07-75.111-80.156-75.111H1351.127c-17.161,0-31.206-13.161-31.206-29.242h0c0-16.081,14.045-29.239,31.206-29.239h20.684c11.844,0,21.535-9.083,21.535-20.182h0c0-11.1-9.69-20.182-21.535-20.182H1236.094c-28.583,0-31.764,31.642-103.964,31.642l103.964,8.722c-61.981,0-82.508,14.761-82.508,29.239-27.367-11.853,66.182-26.372,154.441,14.705,22.4,0-316.215,17.173-316.215,38.155v0c0,20.985-18.324,38.158-40.72,38.158H910.478c-109.676,0-125.165,26.858-144.375,80.276S647.13,954.581,647.13,954.581H510.72c-33.75,0-61.363,25.875-61.363,57.5v0c0,31.624,27.613,57.5,61.363,57.5h7.024c32.46,0,59.022,24.89,59.022,55.308h0c0,30.418-26.561,55.305-59.022,55.305Zm914.5-483.877c-11.9,0-21.537-9.037-21.537-20.182s9.641-20.182,21.537-20.182,21.537,9.037,21.537,20.182S1444.141,696.318,1432.248,696.318Z" transform="translate(815.44 -761.364)"/><path class="e" d="M-546.13,1054.194h-90.6c-48.762,0-88.653,37.385-88.653,83.074h0c0,45.692,39.891,83.074,88.653,83.074h766.05c78.956,0,143.555-60.533,143.555-134.519h0c0-73.988-64.6-134.519-143.553-134.519h0c-33.384,0-60.7-25.6-60.7-56.879h0c0-31.283,27.314-56.879,60.7-56.879h73.049c34.709,0,63.1-26.611,63.1-59.134h0c0-32.525-28.4-59.136-63.1-59.136H110c-13.513,0-24.569-10.36-24.569-23.023h0c0-12.661,11.055-23.021,24.569-23.021h16.285c9.323,0,16.954-7.151,16.954-15.889h0c0-8.738-7.631-15.89-16.954-15.89H19.435c-22.5,0-25.01,24.912-81.852,24.912H-226.2c-12.171,0-22.126,9.332-22.126,20.734h0c0,11.4,9.957,20.733,22.126,20.733h21.247c17.633,0,32.059,13.519,32.059,30.04h0c0,16.521-14.426,30.042-32.059,30.042h-31.976c-86.349,0-98.546,21.145-113.667,63.2s-93.669,45.449-93.669,45.449h-107.4c-26.572,0-48.312,20.372-48.312,45.269v0c0,24.9,21.74,45.269,48.312,45.269h5.53c25.557,0,46.466,19.6,46.466,43.544h0c0,23.948-20.91,43.542-46.466,43.542Zm720-380.961c-9.366,0-16.957-7.113-16.957-15.889s7.591-15.89,16.957-15.89,16.957,7.115,16.957,15.89S183.23,673.233,173.868,673.233Z" transform="translate(-65.832 -619.466)"/></g></g></g></svg>