<svg xmlns="http://www.w3.org/2000/svg" width="671.357" height="493.241" viewBox="0 0 671.357 493.241"><defs><style>.a{fill:#dbdbdb;}.b{fill:#a6a6a6;}.c{fill:#263238;}.d{fill:#f7a9a0;}.e{fill:#24669a;}.f{fill:#333;}.g,.s{opacity:0.1;}.h{fill:#1f74a3;}.i,.t{fill:#fff;}.j{fill:#ff9bbc;}.k{fill:#ffc727;}.l{fill:#ad6359;}.m{fill:#d3766a;}.n{fill:#ff6e4a;}.o{fill:#37474f;}.p{fill:none;stroke:#f6a89f;stroke-linecap:round;stroke-linejoin:round;stroke-width:0;}.q{fill:#ff99ba;}.r{fill:#455a64;}.t{stroke:#333;}</style></defs><g transform="translate(-119.03 -150.591)"><g transform="translate(405.045 156.513)"><g transform="translate(172.424 120.592)"><g transform="translate(3.782 160.6)"><path class="a" d="M420.436,314.986l-4.145,24.855L388.214,491.468h-4.526L404.1,339.841l3.017-24.855Z" transform="translate(-383.688 -314.986)"/><path class="b" d="M398.4,314.986h13.313l-4.145,24.855H395.378Z" transform="translate(-374.961 -314.986)"/></g><g transform="translate(91.953 160.6)"><path class="a" d="M470.92,491.468h-4.526L438.318,339.841l-4.145-24.855h13.314l3.017,24.855Z" transform="translate(-434.173 -314.986)"/><path class="b" d="M447.486,314.986l3.017,24.855H438.318l-4.145-24.855Z" transform="translate(-434.173 -314.986)"/></g><g transform="translate(176.17 160.6)"><path class="a" d="M519.141,491.468h-4.526L486.538,339.841l-4.145-24.855h13.313l3.017,24.855Z" transform="translate(-482.393 -314.986)"/><path class="b" d="M498.724,339.841H486.538l-4.145-24.855h13.313Z" transform="translate(-482.393 -314.986)"/></g><path class="a" d="M587.262,395.308H381.522V373.629h77.019l25.884-150.6h94.992Z" transform="translate(-381.522 -223.03)"/><path class="b" d="M507.242,395.308H496.027l-7.31-172.278H499.4Z" transform="translate(-301.503 -223.03)"/></g><g transform="translate(199.951 0.461)"><path class="c" d="M484.85,156.842c26.517,12.522,43.094,63.9,29.732,105.668-14.44,45.134-60.656,53.755-87.225,44.113-28.193-10.233-36.734-41.4-23.916-60.039,12.381-18,32.736-23.335,38.259-39.79,2.641-7.875,2.283-22.432,5.683-34.236C451.176,159.386,468.828,149.274,484.85,156.842Z" transform="translate(-397.029 -154.246)"/><path class="c" d="M467.006,159.834a112.8,112.8,0,0,1,23.667,38.672,90.709,90.709,0,0,1,4.984,22.311,88.813,88.813,0,0,1,.243,11.469,105.467,105.467,0,0,1-1.238,11.394c-2.553,15.008-8.685,29.778-19.271,40.959a64.859,64.859,0,0,1-18.333,13.577,65.992,65.992,0,0,1-21.819,6.314A66.341,66.341,0,0,0,474.483,283.8c10.18-11.136,16.193-25.57,18.588-40.384a104.777,104.777,0,0,0,1.287-11.205,87.5,87.5,0,0,0-.164-11.261,95.509,95.509,0,0,0-4.695-22.034,112.742,112.742,0,0,0-9.394-20.567A116.743,116.743,0,0,0,467.006,159.834Z" transform="translate(-368.95 -150.074)"/><path class="c" d="M444.911,173.34a70.633,70.633,0,0,1-1.78,12.507,40.6,40.6,0,0,1-4.969,11.7,34,34,0,0,1-8.82,9.249c-3.453,2.433-6.857,4.834-10.133,7.423-6.572,5.1-12.582,11.066-16.653,18.3a37.44,37.44,0,0,0-4.382,24.11,36.538,36.538,0,0,1-.594-12.6,32.543,32.543,0,0,1,1.429-6.207,36.9,36.9,0,0,1,2.475-5.884c3.945-7.613,10.165-13.713,16.733-18.983,3.311-2.628,6.827-5,10.261-7.375a34.526,34.526,0,0,0,8.619-8.745C441.846,190.014,443.743,181.617,444.911,173.34Z" transform="translate(-397.284 -139.992)"/></g><g transform="translate(0 177.987)"><g transform="translate(138.87 0.017)"><g transform="translate(48.102 145.791)"><path class="d" d="M395.161,492.021c3.982-.54,104.18-50.538,106.721-54.747.313-.487-4-9.637-10.138-22.084-13.853-28.174-41.57-75.81-41.57-75.81l-60.322,33.9,33.213,62.9s-11.148,13.492-20.193,24.945c-.009.021-.023.028-.016.044-5.57,7.045-10.35,13.317-11.23,15.191C389.34,481.261,391.186,492.575,395.161,492.021Z" transform="translate(-389.852 -339.38)"/><path class="e" d="M501.552,404.858c-2.55,4.209-102.746,54.211-106.728,54.752-3.965.559-5.816-10.758-3.528-15.666.873-1.869,5.659-8.139,11.23-15.194,0-.017,0-.017.017-.035,4.785-6.043,10.147-12.662,14.129-17.57-2.934,4.384-7.789,12.383-4.943,13.937,5.239,2.864,50.159-20.451,79.692-42.282C497.552,395.218,501.866,404.369,501.552,404.858Z" transform="translate(-389.518 -306.968)"/></g><path class="f" d="M431.7,492.917l69.887-36.882s-53.318-104.491-51.916-106.309c4.89-6.308,63.932-3.437,89.432-28.787,27-26.835,6.375-65.036,6.375-65.036H474.941s.648,19.142-2.389,21.644c-2,1.67-105.724,11.675-109.782,39.041C355.74,363.97,431.7,492.917,431.7,492.917Z" transform="translate(-362.31 -255.903)"/><g transform="translate(58.851 6.148)"><path d="M399.588,399.163c8.406-5.082,17.02-9.756,25.665-14.417s17.339-9.2,26.131-13.558c4.958-2.454,10.025-4.681,14.99-7.12a.136.136,0,0,1,.131.239c-4.354,2.339-8.582,4.9-12.922,7.262q-6.418,3.489-12.866,6.916c-8.67,4.6-17.393,9.09-26.089,13.638-4.9,2.564-9.866,4.984-14.861,7.363A.185.185,0,0,1,399.588,399.163Z" transform="translate(-393.402 -181.319)"/><path d="M396.737,335.495c1.733-3.58,6.338-4.109,9.768-4.967q14.068-3.513,28.139-7.009c16.62-4.116,33.749-8,48.643-16.8,7.113-4.206,14.019-9.524,17.573-17.2,3.481-7.512,3.547-15.853,3.6-23.96.014-2.005-.107-4.006-.236-6.006-.012-.175.26-.168.272.007.519,7.981,1.334,15.97-.454,23.869a32.353,32.353,0,0,1-4.471,10.764,37.037,37.037,0,0,1-8.112,8.523c-13.172,10.33-29.694,15.277-45.665,19.356-9.031,2.307-18.092,4.5-27.144,6.715l-13.977,3.423c-1.963.48-4.185.871-5.739,2.267a6.031,6.031,0,0,0-1.727,5.065,19.555,19.555,0,0,0,1.42,5.559c.835,2.192,1.722,4.366,2.6,6.541q2.58,6.369,5.3,12.676,5.483,12.719,11.389,25.249c7.843,16.649,16.223,33.047,24.772,49.347,1.064,2.029,2.1,4.076,3.142,6.116a.109.109,0,0,1-.19.106c-9.152-16.115-17.706-32.6-25.846-49.244-8.079-16.522-15.771-33.309-22.311-50.508C396.337,342.346,395.233,338.607,396.737,335.495Z" transform="translate(-396.007 -259.423)"/></g></g><g transform="translate(0 193.048)"><path class="d" d="M284.483,475.547c3.818,1.256,115.792.068,119.917-2.606.494-.3.531-24.3.531-24.3,18.378-41.746,35.028-82.121,35.028-82.121l-78.276-.1-27.7,71.087s-15.924,7.264-29.065,13.612c-.016.016-.033.016-.033.033-8.088,3.9-15.128,7.454-16.738,8.757C283.951,463.325,280.665,474.308,284.483,475.547Z" transform="translate(-282.796 -366.428)"/><path class="e" d="M405.318,414.172c-.122.3-.262.576-.384.873,0,0-.035,24-.541,24.294-4.122,2.69-116.089,3.877-119.914,2.62-3.807-1.24-.524-12.225,3.668-15.631,1.607-1.31,8.645-4.855,16.731-8.767.017-.017.017-.017.035-.017,4.209-2.043,8.715-4.174,12.889-6.113-4.349,2.847-9.5,6.881-7.877,9.047C313.68,425.507,369.27,422.573,405.318,414.172Z" transform="translate(-282.795 -332.835)"/></g><g transform="translate(56.955)"><path class="f" d="M315.407,505.01l84.528-.62s42.517-109.5,49.377-116.838c3.47-3.722,26.735-7.861,54.522-13.953l.15-.033c10.264-2.253,21.145-4.773,31.859-7.66,27.886-7.443,54.705-17.222,66.922-30.74,25.551-28.239,0-79.273,0-79.273h-71.98s-1.785,22.214,3.722,35.815c0,0-52.953,7.777-97.545,22.245-25.266,8.195-47.847,18.558-56.591,30.874C363.3,368.927,315.407,505.01,315.407,505.01Z" transform="translate(-315.407 -255.893)"/><g transform="translate(9.37 5.498)"><path d="M320.945,391.9c9.8-.716,19.59-.975,29.411-1.207s19.627-.337,29.439-.23c5.531.059,11.057.375,16.588.452a.136.136,0,0,1,.009.272c-4.941.11-9.873.477-14.812.609q-7.3.2-14.6.33c-9.812.162-19.625.211-29.437.32-5.533.063-11.053-.031-16.585-.178A.184.184,0,0,1,320.945,391.9Z" transform="translate(-320.772 -160.964)"/><path d="M459.192,261.994a5.3,5.3,0,0,0,.4.962.126.126,0,0,1-.042.166c.948,2.945,1.34,6.081,2.255,9.035a14.179,14.179,0,0,0,5.468,7.805c5.578,3.872,12.3,5.631,18.787,7.241.21.052.141.355-.058.362a35.8,35.8,0,0,1-11.085-1.7,29.069,29.069,0,0,1-9.34-4.478,14.6,14.6,0,0,1-5.357-8.071,47.529,47.529,0,0,1-.934-5.191,39.906,39.906,0,0,1-.651-6.071A.282.282,0,0,1,459.192,261.994Z" transform="translate(-217.858 -256.99)"/><path d="M433.437,282.967c4.44,1.074,8.757,3.138,12.94,4.943l.2.091a3.651,3.651,0,0,1-.194-.784q-.076-.466-.15-.934c-.052-.323-.075-.653-.107-.98l-.049-.5-.007-.058a3.86,3.86,0,0,1-2.779-1.423,10.309,10.309,0,0,1-1.731-4.073q-.731-2.761-1.336-5.554c-.449-2.068-.826-4.151-1.158-6.244a40.456,40.456,0,0,1-.709-6.2.3.3,0,0,1,.578-.063c.484,1.9.7,3.879,1.064,5.809s.779,3.87,1.219,5.793.924,3.841,1.451,5.742c.468,1.685.948,4.146,2.908,4.7,4.04,1.147,2.227-7.922,2.049-9.695-.412-4.108-.664-8.3-1.383-12.365a.137.137,0,0,1,.265-.066c.875,3.741,1.881,7.414,2.546,11.205.325,1.855.561,3.732.76,5.6.169,1.582.379,3.344-.369,4.82a3.54,3.54,0,0,1-2.67,1.974l.128.424c.091.3.192.6.265.9s.145.611.217.915a2.3,2.3,0,0,1,.131,1.119.469.469,0,0,1-.2.245c1.727.747,3.453,1.495,5.161,2.286a45.173,45.173,0,0,1,6.207,3.018c.231.107.045.43-.173.382a45.538,45.538,0,0,1-6.506-2.352c-2.16-.828-4.3-1.71-6.432-2.594-4.122-1.708-8.523-3.348-12.306-5.732A.205.205,0,0,1,433.437,282.967Z" transform="translate(-236.865 -257.593)"/><path d="M372.846,449.1q6.688-16.546,14.148-32.764,7.506-16.237,15.764-32.107c2.394-4.592,4.583-9.244,9.393-11.722a34.629,34.629,0,0,1,6.906-2.461c2.8-.756,5.618-1.474,8.434-2.185,22.921-5.791,46.1-10.57,68.867-16.953,11.387-3.193,22.669-6.789,33.688-11.1,8.935-3.493,17.867-7.552,25.3-13.724a40.74,40.74,0,0,0,9.078-10.337c2.824-4.729,9.421-17.582-.351-56.5-.044-.169.19-.3.239-.131,7.789,27.722,6.144,42.813,4.721,48.317a35.23,35.23,0,0,1-6.39,12.9c-5.763,7.36-13.892,12.465-22.229,16.45-9.9,4.731-20.406,8.291-30.86,11.563-22.7,7.1-45.974,12.093-69.1,17.571-5.735,1.359-11.462,2.749-17.171,4.213-5.1,1.308-11.067,2.34-14.726,6.493a34.113,34.113,0,0,0-4.267,7.047q-2.059,3.971-4.075,7.962-4.126,8.174-8.083,16.431-15.593,32.595-28.386,66.44c-1.051,2.793-2.1,5.587-3.17,8.371-.082.21-.412.117-.341-.1C363.981,471.4,368.359,460.2,372.846,449.1Z" transform="translate(-291.317 -259.041)"/><path d="M381.823,376.087c1.409-5.163,9.576-25.385,11.995-30.151,2.242-4.419,4.766-9.681,9.67-11.569a70.281,70.281,0,0,1,8.016-2.2q4.254-1.079,8.521-2.092,8.54-2.03,17.131-3.827c6.366-1.329,12.8-2.6,19.272-3.289.159-.017.171.229.03.269-5.475,1.595-11.059,2.794-16.6,4.134-5.407,1.306-10.826,2.566-16.23,3.886q-8.315,2.033-16.6,4.193a13.573,13.573,0,0,0-6.48,3.432c-2.475,2.431-16.892,35.455-18.27,38.129C381.872,377.788,381.6,376.9,381.823,376.087Z" transform="translate(-275.258 -211.33)"/><path d="M362.567,314.373a171.99,171.99,0,0,1,30.688-14.681c8.041-2.866,16.331-5.056,24.57-7.3q25.417-6.927,51.406-11.572,7.385-1.326,14.8-2.506a131.174,131.174,0,0,1,14.553-1.79.151.151,0,0,1,.033.3c-4.279,1.053-8.678,1.712-13.024,2.454q-6.439,1.1-12.856,2.323-12.834,2.46-25.577,5.355c-16.817,3.818-33.56,8.317-50.1,13.188-13.761,4.054-26.758,11.546-34.144,14.856A.356.356,0,0,1,362.567,314.373Z" transform="translate(-289.706 -245.991)"/></g></g></g><g transform="translate(106.967)"><g transform="translate(0 76.604)"><g transform="translate(0 1.762)"><path class="d" d="M493.068,213.354c-8.68,34.554-15.965,61.342-25.67,68.024-7.828,5.393-57.622,17.21-67.376,18.235-3.841.405-7.04.674-9.31.886-5.617.482-15.635-36.46-11.75-41.076.9-1.055,4.584-1.937,9.768-2.709,17.458-2.578,53.952-3.781,55.964-5.786,2.087-2.1,12.872-17.039,27.519-36.7,10.107-13.586,16.5-17.76,20.069-14.126C494.281,202.165,494.737,206.688,493.068,213.354Z" transform="translate(-318.629 -198.853)"/><g transform="translate(0 57.361)"><path class="d" d="M425.434,275.1c-.749.365-11.371,5.257-17.922,7.049-4.887,1.336-19.056,4.808-21.063-.426-1.373-3.568,6.72-6.589,12.395-8.855,2.99-1.193,6.7-4.247,5.851-6.17-1.481-3.364-9.18-.124-14.253,2.721-9.81,5.5-22.921,15.481-28.787,10.458-2.215-1.9.444-5.257,4.309-8.53-6.249,3.788-12.9,6.872-15.444,4.861-1.46-1.146-1.505-2.69-.657-4.44-1.919.592-3.608.445-4.766-.817-1.981-2.136-.952-5.229,1.3-8.381a2.406,2.406,0,0,1-1.811-1.23c-4.162-6.56,17.446-24.891,24.847-26.526,21.779-4.831,44.834-2.6,44.834-2.6C422.684,239.15,425.452,275.084,425.434,275.1Z" transform="translate(-344.043 -231.696)"/><g transform="translate(2.174 5.277)"><path class="c" d="M384.753,244.688a35.4,35.4,0,0,0-14.557,5.353c-5.117,3.4-9.213,8.091-13.949,11.953-.127.1.045.306.168.194,2.23-2,4.679-3.783,6.989-5.7,2.255-1.865,4.469-3.816,6.852-5.519a35.05,35.05,0,0,1,14.517-6.2C384.828,244.767,384.811,244.681,384.753,244.688Z" transform="translate(-337.14 -227.275)"/><path class="c" d="M387.372,239.382c-5.727,1.474-11.595,2.962-16.929,5.58-5.837,2.864-10.444,7.608-14.971,12.173q-4.076,4.11-7.971,8.4c-.108.12.052.314.169.194q6.892-7.073,14.2-13.726a46.408,46.408,0,0,1,15.5-9.448c3.283-1.193,6.651-2.134,10.013-3.072C387.454,239.466,387.436,239.366,387.372,239.382Z" transform="translate(-343.662 -231.237)"/><path class="c" d="M383.026,234.718c-5.557,1.055-10.407,1.954-15.359,4.85-6.555,3.832-12.926,10.362-15.161,12.676-2.47,2.557-4.85,5.194-7.192,7.868-.1.108.091.278.19.169A184.248,184.248,0,0,1,362.66,243.8a36.623,36.623,0,0,1,9.545-6,65.766,65.766,0,0,1,10.828-3.037C383.058,234.751,383.051,234.713,383.026,234.718Z" transform="translate(-345.288 -234.718)"/></g></g></g><g transform="translate(74.623)"><path class="e" d="M390.128,256.037,397.371,301s51.766-7.44,64.119-18.251,21.045-54.494,24.461-71.042-5.707-19.035-19.03-3.338-30.935,41.776-32.273,42.763S390.128,256.037,390.128,256.037Z" transform="translate(-384.265 -197.844)"/><g class="g" transform="translate(5.867 3.417)"><path d="M450.654,200.394H437.8c.262-.21.507-.4.751-.594h11.928A4.8,4.8,0,0,1,450.654,200.394Z" transform="translate(-354.545 -199.8)"/><path d="M453.584,203.28a3.217,3.217,0,0,1-.052.576H434.32c.175-.192.332-.384.506-.576Z" transform="translate(-357.143 -197.202)"/><path d="M454.741,206.75c-.035.192-.07.4-.122.594H431.46a7.034,7.034,0,0,1,.472-.594Z" transform="translate(-359.278 -194.612)"/><path d="M455.514,210.23c-.035.192-.087.384-.122.576H428.74c.157-.192.314-.384.454-.576Z" transform="translate(-361.308 -192.014)"/><path d="M456.177,213.7c-.052.192-.1.4-.14.594H426.12c.14-.192.3-.384.437-.594Z" transform="translate(-363.264 -189.424)"/><path d="M456.708,217.18c-.052.192-.1.384-.14.576H423.56l.419-.576Z" transform="translate(-365.175 -186.826)"/><path d="M457.13,220.65c-.052.192-.1.4-.14.594H421.03c.157-.192.3-.4.454-.594Z" transform="translate(-367.064 -184.236)"/><path d="M457.417,224.13c-.052.192-.1.384-.14.576H418.54l.419-.576Z" transform="translate(-368.922 -181.638)"/><path d="M457.651,227.6c-.07.192-.122.4-.175.594h-41.5c.14-.175.3-.367.472-.594Z" transform="translate(-370.833 -179.048)"/><path d="M475.079,231.08c-.052.192-.122.384-.175.576H390.2l-.07-.437s.524-.052,1.432-.14Z" transform="translate(-390.13 -176.45)"/><path d="M472.608,234.55c-.07.192-.14.384-.21.594H390.767l-.087-.594Z" transform="translate(-389.719 -173.86)"/><path d="M469.8,238.03c-.07.192-.157.384-.245.576H391.327l-.087-.576Z" transform="translate(-389.301 -171.262)"/><path d="M466.532,241.5a6.494,6.494,0,0,1-.332.594H391.887l-.087-.594Z" transform="translate(-388.883 -168.672)"/><path d="M462.254,244.98c-.157.192-.314.384-.489.576H392.447l-.087-.576Z" transform="translate(-388.465 -166.074)"/><path d="M453.96,248.45c-.4.192-.821.4-1.24.594H393.007l-.087-.594Z" transform="translate(-388.047 -163.483)"/><path d="M436.828,251.93c-.681.192-1.38.384-2.078.576H393.567l-.087-.576Z" transform="translate(-387.629 -160.886)"/><path d="M409.985,255.4c-1.135.21-2.218.419-3.249.594h-12.61l-.087-.594Z" transform="translate(-387.211 -158.295)"/></g><path class="h" d="M395.128,282.368l12.614-2.276-8.755-51.339-12.216,1.411Z" transform="translate(-386.771 -174.77)"/><path class="c" d="M398.647,252.478q-1.038-5.3-2.132-10.6c-.728-3.507-1.331-7.1-2.319-10.544-.045-.157-.311-.136-.3.038.314,3.456,1.022,6.913,1.591,10.336q.909,5.446,1.879,10.886c1.271,7.175,2.828,14.267,4.5,21.351.042.175.288.1.264-.072C401.143,266.712,400.037,259.583,398.647,252.478Z" transform="translate(-381.449 -172.92)"/></g></g><g transform="translate(136.127 71.013)"><path class="e" d="M428.841,279.491l-4.448,44.2s87.738,8,109.7,5.477c0,0-22.463-101.01-47.288-125.684-12.416-12.342-26.285-10.765-34.753-1.38-2.143,2.375-27.348,38.933-29.572,52.573C420.546,266.705,428.841,279.491,428.841,279.491Z" transform="translate(-421.837 -194.643)"/><path class="c" d="M440.851,208.7a.082.082,0,0,0-.143-.079c-1.774,2.63-3.416,5.339-5.035,8.064.5-1.3,1.015-2.6,1.579-3.879.07-.159-.166-.292-.239-.131-.887,1.963-1.825,3.9-2.663,5.886-.138.325-.246.66-.375.988-.325.55-.648,1.1-.975,1.649a135.969,135.969,0,0,0-6.844,12.617c-4.511,9.808-5.211,14.466-2.819,23.122,1.153,4.165,2.938,8.745,5.582,12.133-.383.751-1.291,9.782-1.168,10.657.017.122.389,0,.424-.093a87.105,87.105,0,0,0,1.561-10.427c-.021-.136-6.8-14.353-6.205-22.1.615-8.039,5.121-15.446,8.788-22.484a.1.1,0,0,0,.134-.044c.162-.393.33-.782.494-1.172.136-.264.276-.529.412-.793C435.755,217.919,438.394,213.357,440.851,208.7Z" transform="translate(-421.986 -184.239)"/><g class="g" transform="translate(0.338 2.947)"><path d="M465.353,196.906H441.88c.3-.192.611-.384.908-.576H464.34C464.672,196.5,465,196.7,465.353,196.906Z" transform="translate(-407.474 -196.33)"/><path d="M475.49,200.394H438.36c.157-.21.3-.419.437-.594h36.117C475.106,199.992,475.3,200.184,475.49,200.394Z" transform="translate(-410.102 -193.74)"/><path d="M482.11,203.856H435.95c.14-.192.262-.384.4-.576h45.356C481.848,203.472,481.987,203.664,482.11,203.856Z" transform="translate(-411.901 -191.142)"/><path d="M487.651,207.344h-54c.122-.192.262-.4.384-.594H487.3A6.626,6.626,0,0,1,487.651,207.344Z" transform="translate(-413.618 -188.552)"/><path d="M492.584,210.806H431.44l.367-.576h60.481C492.392,210.422,492.48,210.614,492.584,210.806Z" transform="translate(-415.268 -185.954)"/><path d="M497.094,214.294H429.33c.122-.192.227-.4.367-.594h67.135C496.919,213.892,497.006,214.1,497.094,214.294Z" transform="translate(-416.843 -183.364)"/><path d="M501.294,217.756H427.33l.314-.576h73.4C501.119,217.372,501.206,217.564,501.294,217.756Z" transform="translate(-418.336 -180.766)"/><path d="M505.18,221.244H425.47c.1-.192.192-.384.314-.594h79.151C505.022,220.842,505.11,221.052,505.18,221.244Z" transform="translate(-419.724 -178.175)"/><path d="M508.744,224.706H423.83l.262-.576h84.443Z" transform="translate(-420.948 -175.578)"/><path d="M511.905,228.194H422.59a2.825,2.825,0,0,1,.175-.594H511.7C511.766,227.81,511.835,228,511.905,228.194Z" transform="translate(-421.874 -172.987)"/><path d="M514.342,231.656H422.18v-.576h91.97C514.2,231.272,514.272,231.464,514.342,231.656Z" transform="translate(-422.18 -170.39)"/><path d="M516.124,235.144H422.652c-.035-.192-.087-.4-.122-.594h93.385C515.984,234.742,516.054,234.952,516.124,235.144Z" transform="translate(-421.919 -167.799)"/><path d="M517.331,238.606H423.72l-.21-.576h93.647C517.209,238.222,517.279,238.414,517.331,238.606Z" transform="translate(-421.187 -165.202)"/><path d="M518.083,242.094H425.327c-.087-.192-.192-.384-.3-.594h92.878C517.961,241.692,518.03,241.9,518.083,242.094Z" transform="translate(-420.052 -162.611)"/><path d="M519.349,245.556H425.79l.052-.576h93.332C519.227,245.172,519.279,245.364,519.349,245.556Z" transform="translate(-419.485 -160.013)"/><path d="M521.357,249.044H425.44l.052-.594h95.69C521.252,248.642,521.3,248.852,521.357,249.044Z" transform="translate(-419.746 -157.423)"/><path d="M523.33,252.506H425.09l.052-.576h98.03Z" transform="translate(-420.008 -154.825)"/><path d="M525.25,255.994H424.74l.052-.594h100.3C525.146,255.592,525.2,255.8,525.25,255.994Z" transform="translate(-420.269 -152.235)"/><path d="M527.118,259.456H424.39l.052-.576H526.961Z" transform="translate(-420.53 -149.637)"/><path d="M528.934,262.944H424.04l.052-.594H528.777C528.829,262.56,528.882,262.752,528.934,262.944Z" transform="translate(-420.791 -147.047)"/><path d="M530.7,266.406H423.69l.052-.576H530.557C530.592,266.022,530.645,266.214,530.7,266.406Z" transform="translate(-421.053 -144.449)"/><path d="M525.615,269.894H439.793c-2.62-.21-5.082-.4-7.353-.594h93.035C525.528,269.51,525.58,269.7,525.615,269.894Z" transform="translate(-414.521 -141.859)"/></g></g><g transform="translate(143.246)"><path class="i" d="M455.09,195.214c-9.751,3.2-20.458,18.694-18.782,21s9.377-2.925,9.377-2.925-.026,6.8,4.167,7.374,11.63-7.7,13.726-14C466.71,197.242,463.383,192.489,455.09,195.214Z" transform="translate(-418.544 -123.772)"/><g transform="translate(22.559 45.568)"><path class="d" d="M461.13,210.109c-.472,1.731-9.209,12.758-17.171,12.1-2.593-.22-2.024-14.426-2.024-14.426l-.2-1.058-2.756-14.815,17.664-10.456,2.548-1.376s.487,4.1,1.043,9.218c.026.238.054.475.079.73.04.288.08.559.1.83.094.763.185,1.544.26,2.323.059.592.119,1.167.159,1.792.056.625.1,1.233.154,1.858A97.326,97.326,0,0,1,461.13,210.109Z" transform="translate(-438.979 -180.073)"/><path class="c" d="M460.234,189.291a30.235,30.235,0,0,1-18.5,17.43l-2.756-14.815,17.664-10.456,2.548-1.376S459.678,184.175,460.234,189.291Z" transform="translate(-438.979 -180.073)"/></g><path class="d" d="M426.924,189.455c.362,26.447,16.242,29.217,21.946,29.133,5.177-.077,22.793-1,25.167-27.338S464,156.715,452.15,156.264,426.562,163.008,426.924,189.455Z" transform="translate(-425.424 -152.293)"/><g transform="translate(2.924 26.788)"><path class="c" d="M429.591,172.286a17.278,17.278,0,0,0,1.781-.4,2.942,2.942,0,0,0,1.74-.756.936.936,0,0,0-.016-1.147,2.332,2.332,0,0,0-2.307-.515,3.428,3.428,0,0,0-2.136,1.24A1,1,0,0,0,429.591,172.286Z" transform="translate(-427.208 -169.274)"/><path class="c" d="M440.651,172.193a17.287,17.287,0,0,1-1.792-.355,2.954,2.954,0,0,1-1.759-.709.941.941,0,0,1-.014-1.147,2.335,2.335,0,0,1,2.293-.576,3.444,3.444,0,0,1,2.167,1.184A1,1,0,0,1,440.651,172.193Z" transform="translate(-420.898 -169.305)"/><g transform="translate(16.179 7.737)"><path class="c" d="M437.137,174.828c.016-.068.142.087.138.161-.077,1.8.14,3.874,1.762,4.488.051.019.045.11-.016.1C437.036,179.278,436.778,176.521,437.137,174.828Z" transform="translate(-437.001 -172.958)"/><path class="c" d="M438.745,173.755c2.9-.189,3.065,5.622.381,5.8C436.483,179.726,436.316,173.916,438.745,173.755Z" transform="translate(-436.98 -173.75)"/><path class="c" d="M438.813,174.03c.517.314,1.03.88,1.643.922.711.051,1.228-.573,1.673-1.172.047-.061.1-.012.1.065.049,1.113-.346,2.267-1.535,2.468-1.084.183-1.895-.781-2.206-1.893C438.434,174.213,438.6,173.9,438.813,174.03Z" transform="translate(-435.897 -173.749)"/></g><g transform="translate(0 7.737)"><g transform="translate(2.067)"><path class="c" d="M431.92,174.8c-.016-.066-.136.091-.133.164.124,1.8-.038,3.877-1.645,4.536-.051.019-.042.11.019.1C432.137,179.246,432.325,176.483,431.92,174.8Z" transform="translate(-428.033 -172.978)"/><path class="c" d="M431.133,173.752c-2.9-.115-2.918,5.7-.229,5.805C433.55,179.662,433.566,173.848,431.133,173.752Z" transform="translate(-428.92 -173.75)"/></g><path class="c" d="M430.8,174.106c-.459.307-.915.865-1.465.9-.636.04-1.1-.589-1.509-1.193-.042-.063-.087-.014-.089.063-.035,1.111.33,2.269,1.4,2.485.973.2,1.691-.754,1.958-1.86C431.145,174.294,430.987,173.982,430.8,174.106Z" transform="translate(-427.737 -173.725)"/></g><path class="c" d="M438.891,183.04c-.4.452-.784,1.064-1.432,1.167a4.763,4.763,0,0,1-1.963-.309.063.063,0,0,0-.072.1,2.428,2.428,0,0,0,2.353.807,1.919,1.919,0,0,0,1.294-1.694C439.09,183,438.95,182.974,438.891,183.04Z" transform="translate(-422.009 -159.105)"/><g transform="translate(6.235)"><path class="c" d="M434.316,186.874s-.327,2.695-.306,3.965c0,.119.311.169.742.187.021.007.031.014.049,0a6.034,6.034,0,0,0,5.819-2.353c.086-.124-.077-.253-.192-.171a9.082,9.082,0,0,1-5.479,1.67c-.1-.349.713-4.6.51-4.609a11.1,11.1,0,0,0-2.87.7c.517-5.634,1.933-11.141,2.363-16.759a.173.173,0,0,0-.332-.077c-1.893,5.667-2.63,12.138-3.313,17.943C431.216,188.095,433.813,187.1,434.316,186.874Z" transform="translate(-431.307 -169.32)"/></g><g transform="translate(9.69 19.159)"><path class="c" d="M433.285,181.977a7.35,7.35,0,0,0,2.723,2.536,3.3,3.3,0,0,0,1.988.307c1.481-.248,1.638-1.572,1.476-2.733a7.911,7.911,0,0,0-.489-1.8A9.523,9.523,0,0,1,433.285,181.977Z" transform="translate(-433.285 -180.29)"/><path class="j" d="M434.844,183.745a3.3,3.3,0,0,0,1.987.307c1.481-.248,1.638-1.572,1.476-2.733C436.742,181.338,435.113,182.25,434.844,183.745Z" transform="translate(-432.121 -179.522)"/></g></g><path class="c" d="M473.456,194.256c-6.81.279-10.376-20.441-10.786-22.989.175,1.617,1.069,10.194.438,10.585a6.578,6.578,0,0,1-2.162-.239l-.017,0a20.261,20.261,0,0,0-.48-3.055c-.091-.472-.1,1.048-.218,2.924-.393-.075-.819-.173-1.28-.253a24.841,24.841,0,0,0-1.147-6.483c-.26-.795-.2,2.873-.732,6.123-4.782-.906-11.673-2.05-18.015-1.776-1.7.066-3.158.2-4.447.36-.2-2.536-.119-5.262-.258-4.665a24.46,24.46,0,0,0-.7,4.794c-.7.094-1.343.192-1.919.293-.449-3.57.819-9.419.311-8.5a25.342,25.342,0,0,0-2.786,9.087c-2.408.66-3.046,1.191-3.163.561-.2-1.135.428-11.268,7.676-19.215,7.877-8.64,24.652-11.942,35.138-.36,0,0,8.25,4.53,10.121,12.7C480.9,182.3,477.389,194.09,473.456,194.256Z" transform="translate(-426.062 -153.982)"/><g transform="translate(43.684 33.716)"><path class="d" d="M451.829,180.617s4.916-8.792,8.851-7.119.81,14.016-3.4,16.085a4.475,4.475,0,0,1-6.205-1.794Z" transform="translate(-451.075 -173.287)"/><path class="c" d="M458.678,175.422c.07-.014.093.084.035.115-2.943,1.551-4.272,4.558-5.107,7.622.8-1.226,1.977-1.974,3.608-1.041.086.049.021.182-.066.173a2.749,2.749,0,0,0-2.917,1.257,13.188,13.188,0,0,0-1.2,2.581c-.117.29-.627.192-.554-.134l.017-.073C452.027,182.018,454.516,176.237,458.678,175.422Z" transform="translate(-450.056 -171.694)"/></g></g><g transform="translate(41.809 55.861)"><path class="d" d="M514.034,224.154c-13.156,29.294-37.768,62-46.629,62.028-19.138.068-65.988-23.476-79.074-35.01-4.317-3.806,17.026-37.293,23.12-38.147S461.4,239.5,464.916,238.148c3.1-1.191,24.206-18.474,34.514-27.312C519.942,193.253,517.887,215.577,514.034,224.154Z" transform="translate(-353.219 -172.307)"/><path class="d" d="M412.172,271.164c-14.463-10.147-33.084-21.9-41.339-40.042a9.861,9.861,0,0,1-.767-6.418c-3.846-8.065-1.191-12.3-1.191-12.3-1.28-8.61,2.031-12.571,2.031-12.571s-4.41-9.518.9-13.139c5.945-4.078,10.975,10.088,18.506,16.186,17.253,13.974,45.688,29.011,51.064,32.546Z" transform="translate(-367.982 -185.966)"/><path class="c" d="M396.885,224.316c-4.995-4.214-10.013-8.222-14.412-13.09-4.827-5.342-8.575-11.291-12.543-17.252a.173.173,0,0,0-.3.169c5.474,11.928,16,23.4,27.071,30.4C396.966,224.716,397.137,224.527,396.885,224.316Z" transform="translate(-366.767 -180.052)"/><path class="c" d="M390.769,230.628c-4.633-4.37-12.728-12.1-22.119-29.571-.031-.058-.138-.023-.112.044a67.736,67.736,0,0,0,22.023,29.746C390.874,231.1,391.076,230.918,390.769,230.628Z" transform="translate(-367.57 -174.724)"/><path class="c" d="M386.477,231.5c-7.6-7.73-11.408-13.565-17.219-23.335-.033-.056-.138-.014-.108.051,5.439,11.8,8.748,15.462,17.1,23.583C386.535,232.08,386.772,231.8,386.477,231.5Z" transform="translate(-367.113 -169.413)"/><path class="d" d="M399.448,217.849c2.967.929,3.476-.622.351-5.18-3.152-4.621-19.368-19.957-13.518-25.169,5.859-5.241,28.45,16.84,33.073,24.832,4.644,7.983,9.3,22.542,9.3,22.542C423.4,231.462,409.852,224.407,399.448,217.849Z" transform="translate(-355.263 -185.415)"/><g transform="translate(47.757 31.588)"><path class="k" d="M421.793,221.446,399.92,265.381s45.9,27.49,60.8,22.07,41.322-51.691,45.388-64.709,3.049-26.473-14.906-13.261-33.927,27.684-35.476,27.829S421.793,221.446,421.793,221.446Z" transform="translate(-391.897 -204.053)"/><path class="e" d="M421.793,221.446,399.92,265.381s45.9,27.49,60.8,22.07,41.322-51.691,45.388-64.709,3.049-26.473-14.906-13.261-33.927,27.684-35.476,27.829S421.793,221.446,421.793,221.446Z" transform="translate(-391.897 -204.053)"/><g class="g" transform="translate(8.722 4.71)"><path d="M468.837,207.344H452.28c.279-.21.541-.4.8-.594h15.649C468.767,206.942,468.8,207.134,468.837,207.344Z" transform="translate(-361.533 -206.75)"/><path d="M472.218,210.23a3.279,3.279,0,0,1-.087.576H447.68c.245-.192.489-.367.734-.576Z" transform="translate(-364.966 -204.152)"/><path d="M412.447,214.01a.913.913,0,0,1,.087.052h-.1Z" transform="translate(-391.28 -201.331)"/><path d="M474.28,213.7c-.052.192-.1.4-.175.594H443.28c.245-.192.489-.384.734-.594Z" transform="translate(-368.251 -201.562)"/><path d="M425.056,217.18c.384.192.786.384,1.17.576H410.7l.279-.576Z" transform="translate(-392.571 -198.964)"/><path d="M475.329,217.18l-.262.576H439.02c.227-.192.472-.384.7-.576Z" transform="translate(-371.431 -198.964)"/><path d="M438.992,220.65c.437.192.873.4,1.292.594H408.97l.3-.594Z" transform="translate(-393.863 -196.374)"/><path d="M475.683,220.65c-.087.192-.192.4-.3.594H434.78c.245-.192.471-.384.734-.594Z" transform="translate(-374.596 -196.374)"/><path d="M493.115,224.13c-.1.192-.192.384-.3.576H407.24l.28-.576Z" transform="translate(-395.154 -193.776)"/><path d="M491.07,227.6c-.122.192-.227.384-.349.594H405.51l.3-.594Z" transform="translate(-396.446 -191.186)"/><path d="M488.764,231.08c-.1.192-.227.384-.332.576H403.78l.3-.576Z" transform="translate(-397.737 -188.588)"/><path d="M486.283,234.55a6.908,6.908,0,0,1-.384.594H402.05l.3-.594Z" transform="translate(-399.029 -185.998)"/><path d="M483.54,238.03c-.14.192-.279.384-.4.576H400.32l.3-.576Z" transform="translate(-400.32 -183.4)"/><path d="M476.429,241.5c-.157.21-.3.4-.454.594h-70.89c-.367-.21-.716-.4-1.065-.594Z" transform="translate(-397.558 -180.81)"/><path d="M466.66,244.98c-.157.192-.314.384-.489.576H411.838c-.4-.192-.8-.384-1.188-.576Z" transform="translate(-392.609 -178.212)"/><path d="M455.433,248.45c-.21.192-.419.4-.629.594H419.63c-.472-.192-.961-.4-1.45-.594Z" transform="translate(-386.988 -175.622)"/><path d="M438.182,251.93a21.331,21.331,0,0,1-9.082,0Z" transform="translate(-378.836 -173.024)"/></g><path class="h" d="M395.594,258.481l11.509,5.643,23.027-47.746-10.331-4.9Z" transform="translate(-395.126 -198.509)"/><path class="c" d="M413.833,236.33q2.337-4.87,4.625-9.768c1.512-3.247,3.179-6.488,4.445-9.84.056-.152-.168-.3-.26-.147-1.815,2.96-3.313,6.153-4.9,9.237q-2.531,4.909-5,9.852c-3.271,6.509-6.263,13.127-9.155,19.805-.072.166.173.251.255.1C407.323,249.233,410.7,242.857,413.833,236.33Z" transform="translate(-389.173 -194.752)"/><path class="c" d="M470.595,211.314c-1.958,1.268-24.531,19.622-25.465,20.161-1.141.66-2.3-.253-3.357-.755-4.239-2.015-8.455-4.081-12.667-6.153-4.729-2.326-9.221-4.242-13.953-6.563-.157-.077-.288.155-.133.239,4.319,2.323,8.189,4.656,12.545,6.907s8.748,4.443,13.167,6.576c1.631.788,3.332,1.963,5.04.788,2.012-1.383,23.139-18.846,25.06-20.905A.192.192,0,0,0,470.595,211.314Z" transform="translate(-380.677 -198.656)"/><path class="c" d="M504.989,222.2c-3.021,4.576-5.879,9.26-8.942,13.811-3.114,4.626-6.3,9.2-9.618,13.687-3.17,4.286-6.406,8.54-9.84,12.618a75.983,75.983,0,0,1-5.58,5.987,21.138,21.138,0,0,1-6.476,4.6,18.03,18.03,0,0,1-8.317.952c-1.38-.117-2.753-.3-4.115-.545-2.836-.651-5.631-1.5-8.394-2.38a143.307,143.307,0,0,1-22.757-9.876c-2.061-1.076-4.1-2.2-6.155-3.283-2.1-1.113-4.527-2.389-6.694-3.334a15.037,15.037,0,0,0-.812,1.46c-.863-.566-11.02-5.329-11.225-5.4a21.319,21.319,0,0,0,1.13-2.663c.038-.161-.061-.269-.176-.127-.021.026-1.87,3.11-1.68,3.24.019.014,11.923,5.688,12.051,5.622,0,0,.875-1.8.884-1.8,1.909,1.06,3.8,2.178,5.657,3.327s3.772,2.243,5.683,3.315c3.816,2.143,7.685,4.192,11.656,6.032,7.564,3.505,15.753,6.846,24.1,7.812a20.862,20.862,0,0,0,7.033-.377c5.363-.94,9.082-5.161,12.526-9.057a240.96,240.96,0,0,0,20.273-27q.974-1.48,1.945-2.973a71.361,71.361,0,0,1,6.838-7.34c.131-.115-.068-.307-.2-.189-1.588,1.464-3.2,2.938-4.7,4.509,2.178-3.425,4.288-6.9,6.176-10.475A.157.157,0,0,0,504.989,222.2Z" transform="translate(-395.326 -190.565)"/></g></g></g></g><g transform="translate(119.03 150.591)"><g transform="translate(0 127.05)"><g transform="translate(172.388 160.376)"><path class="a" d="M217.736,315.165l4.145,24.82L249.957,491.4h4.526L234.066,339.986l-3.017-24.82Z" transform="translate(-217.736 -315.165)"/><path class="b" d="M231.049,315.165H217.736l4.145,24.82h12.186Z" transform="translate(-217.736 -315.165)"/></g><g transform="translate(84.216 160.376)"><path class="a" d="M167.251,491.4h4.526l28.077-151.416L204,315.165H190.685l-3.017,24.82Z" transform="translate(-167.251 -315.165)"/><path class="b" d="M181.958,315.165l-3.017,24.82h12.186l4.145-24.82Z" transform="translate(-158.524 -315.165)"/></g><g transform="translate(0 160.376)"><path class="a" d="M119.03,491.4h4.526l28.077-151.416,4.145-24.82H142.464l-3.017,24.82Z" transform="translate(-119.03 -315.165)"/><path class="b" d="M130.72,339.986h12.186l4.145-24.82H133.738Z" transform="translate(-110.304 -315.165)"/></g><path class="a" d="M123.14,395.376H328.879V373.727H251.861l-25.884-150.39H130.984Z" transform="translate(-115.962 -223.337)"/><path class="b" d="M123.14,395.376h11.215l7.31-172.039H130.984Z" transform="translate(-115.962 -223.337)"/></g><g transform="translate(26.451)"><g transform="translate(0.438 182.795)"><g transform="translate(10.79 1.192)"><g transform="translate(46.538 172.911)"><path class="l" d="M281.135,479.9c-3.881.486-109.809-24.227-113.249-27.561-.419-.368,3.311-20.858,3.311-20.858,1.663-8.373,30.529-76.538,30.529-76.538l69.25,17.084-29.344,63.322s13.2,8.935,24.549,17.454c.012.017.028.021.024.037,7.007,5.231,13.053,9.936,14.353,11.48C283.921,468.353,285.009,479.445,281.135,479.9Z" transform="translate(-166.801 -354.943)"/><g transform="translate(0 58.046)"><path class="e" d="M281.889,453.836c-4.013.419-110.8-23.515-114.276-27.006-1.347-1.3,1.238-17.044,4.909-35.974.04-.2.08-.395.121-.592l69.063,14.672-.288,1.161s36.769,27.418,40.2,31.66C285.01,441.981,285.9,453.433,281.889,453.836Z" transform="translate(-167.251 -386.623)"/><g transform="translate(5.675)"><path class="c" d="M279.184,434.361c-17.9-4.475-90.526-20.841-108.562-23.908-.147-.024-.168.073-.024.114,17.645,4.824,90.4,20.6,108.52,24.089C279.5,434.73,279.561,434.457,279.184,434.361Z" transform="translate(-170.5 -371.554)"/><path class="c" d="M223.8,400.831c-6.785-2.908-15.694-3.764-22.238.063-.253.148-.038.507.206.486a102.153,102.153,0,0,1,21.8.339A.463.463,0,0,0,223.8,400.831Z" transform="translate(-147.398 -380.603)"/><path class="c" d="M226.333,403.249c-6.787-2.908-15.694-3.764-22.24.063-.253.148-.038.507.208.486a102.153,102.153,0,0,1,21.8.339A.464.464,0,0,0,226.333,403.249Z" transform="translate(-145.508 -378.798)"/><path class="c" d="M228.864,405.667c-6.785-2.908-15.694-3.764-22.238.063-.255.148-.038.507.206.486a102.147,102.147,0,0,1,21.8.339A.463.463,0,0,0,228.864,405.667Z" transform="translate(-143.619 -376.993)"/><g transform="translate(41.353)"><path class="c" d="M232.445,393.574c-1.923-4.454-7.492-3.893-11.008-2.075a38.739,38.739,0,0,0-14.55,13.759.193.193,0,0,0,.11.292.9.9,0,0,0,.912,1.133c6.335-.852,13.214-.98,19.1-3.748C230.442,401.319,234.263,397.784,232.445,393.574Zm-15.2,9.855c-3.105.494-6.217.835-9.3,1.443a116.559,116.559,0,0,1,8.675-7.849,41.75,41.75,0,0,1,4.665-3.208c2.536-1.443,11.8-3.647,8.8,3.834C228.439,401.773,220.95,402.839,217.249,403.429Z" transform="translate(-184.716 -386.708)"/><path class="c" d="M198.76,400.846c5.28,3.793,12.019,5.171,18.094,7.164.629.206,1.1-.4,1.1-.947a.194.194,0,0,0,.161-.269,38.7,38.7,0,0,0-11.792-16.178c-3.123-2.429-8.5-3.994-11.2.033C192.566,394.459,195.678,398.632,198.76,400.846Zm-2.064-5.76c-1.575-7.9,7.126-4.047,9.358-2.164a41.816,41.816,0,0,1,4,4,116.005,116.005,0,0,1,7.094,9.3c-2.924-1.161-5.921-2.063-8.883-3.114C204.733,401.856,197.564,399.442,196.7,395.086Z" transform="translate(-194.178 -388.179)"/></g></g></g></g><path class="f" d="M264.725,510.951l-73.51-17.332s63.218-144.64,57.826-151.789c-2.695-3.575-71.136-4.626-92.9-23.068-28.274-23.955-9.305-60.558-9.305-60.558l76.435-2.267s-.922,15.965,2.059,18.371c1.967,1.605,93.042,9.258,103.044,39.951C340.634,351.893,264.725,510.951,264.725,510.951Z" transform="translate(-140.604 -255.938)"/><g transform="translate(57.956 226.554)"><path class="c" d="M239.929,402.749c-1.926-.913-20.96-6.49-25.233-7.583-8.6-2.2-17.22-4.359-25.879-6.333-4.513-1.029-14.187-3.278-14.781-3.172-.286.051-.337.531-.08.616,8.39,2.768,16.9,5.107,25.4,7.471s37.8,9.421,40.367,9.588C239.971,403.353,240.2,402.878,239.929,402.749Z" transform="translate(-173.789 -385.658)"/></g><path d="M258.15,332.345c-1.537-1.313-3.844-1.472-5.769-1.8q-16.549-2.764-33.1-5.549c-10.325-1.725-20.7-3.271-30.981-5.252-8.509-1.64-17.163-3.854-24.524-8.465a35.542,35.542,0,0,1-15.03-19.657c-2.569-8.1-2.752-16.806-1.944-25.19.2-2.052.575-4.1.959-6.125.028-.155-.218-.206-.246-.052-2.8,15.652-3.049,33.821,8.692,46.3,5.721,6.081,13.584,9.655,21.606,11.97,9.052,2.611,18.509,3.848,27.8,5.4q16.551,2.766,33.1,5.522c5.309.882,10.7,1.574,15.965,2.674a5.415,5.415,0,0,1,2.876,1.271c1,1.053.727,2.548.466,3.823-.533,2.6-1.231,5.168-1.979,7.716-6.024,20.549-52.353,129.437-53.545,131.694-.126.237.248.423.379.189C213,458.787,248.137,372.228,254.823,352.788a122.944,122.944,0,0,0,4.338-15.128C259.542,335.807,259.763,333.723,258.15,332.345Z" transform="translate(-136.638 -252.781)"/></g><g transform="translate(160.945 196.07)"><path class="l" d="M346.632,475.139c-3.706,1.249-109.725-.246-113.761-2.828-4.417-4.206-6.291-104.227-6.291-104.227l68.2-.564,4.253,71.814s14.721,6.13,27.539,12.224c.014.016.03.016.031.031,7.908,3.732,14.772,7.143,16.352,8.4C347.06,463.27,350.338,473.924,346.632,475.139Z" transform="translate(-226.58 -367.521)"/><g transform="translate(1.874 50.684)"><path class="e" d="M348.005,445.925c-3.83,1.268-113.267.742-117.418-1.923-1.594-.985-2.447-16.915-2.924-36.191,0-.2-.007-.4-.01-.6l70.609-.447-.033,1.2s41.8,18.911,46.057,22.322C348.508,433.677,351.835,444.673,348.005,445.925Z" transform="translate(-227.653 -388.913)"/><g transform="translate(7.853)"><path class="c" d="M343.43,427.015c-18.445-.541-92.894-.985-111.169-.121-.148.009-.148.108,0,.117,18.27.934,92.721.775,111.169.306C343.817,427.306,343.819,427.027,343.43,427.015Z" transform="translate(-232.149 -374.247)"/><path class="c" d="M281.893,407.135c-7.253-1.388-16.136-.318-21.709,4.82-.217.2.07.5.306.43a102.279,102.279,0,0,1,21.37-4.335A.463.463,0,0,0,281.893,407.135Z" transform="translate(-211.279 -389.049)"/><path class="c" d="M284.885,408.955c-7.253-1.388-16.138-.318-21.709,4.82-.217.2.07.5.306.43a102.14,102.14,0,0,1,21.37-4.335A.463.463,0,0,0,284.885,408.955Z" transform="translate(-209.046 -387.69)"/><path class="c" d="M287.875,410.775c-7.253-1.388-16.136-.318-21.709,4.82-.215.2.072.5.307.43a102.246,102.246,0,0,1,21.368-4.335A.463.463,0,0,0,287.875,410.775Z" transform="translate(-206.813 -386.331)"/><g transform="translate(33.09)"><path class="c" d="M287.634,398.86c-2.834-3.937-8.154-2.2-11.2.33a38.686,38.686,0,0,0-11.26,16.553.193.193,0,0,0,.169.262.9.9,0,0,0,1.133.912c6.006-2.188,12.7-3.785,17.851-7.747C287.341,406.855,290.315,402.585,287.634,398.86Zm-12.728,12.88c-2.927,1.147-5.893,2.145-8.778,3.4a115.835,115.835,0,0,1,6.79-9.524,41.593,41.593,0,0,1,3.867-4.132c2.169-1.953,10.739-6.086,9.422,1.86C285.481,407.727,278.4,410.371,274.906,411.74Z" transform="translate(-240.594 -396.541)"/><path class="c" d="M257.237,411.868c5.971,2.576,12.851,2.48,19.21,3.126a.9.9,0,0,0,.875-1.161.193.193,0,0,0,.1-.3,38.726,38.726,0,0,0-14.99-13.28c-3.572-1.7-9.157-2.082-10.935,2.429C249.816,406.956,253.751,410.365,257.237,411.868Zm-3.252-5.184c-3.235-7.381,6.092-5.477,8.675-4.117a41.8,41.8,0,0,1,4.766,3.055,115.976,115.976,0,0,1,8.924,7.564c-3.1-.51-6.224-.748-9.346-1.141C263.287,411.577,255.768,410.752,253.985,406.685Z" transform="translate(-251.096 -394.649)"/></g></g></g><path class="l" d="M228.1,414.639" transform="translate(-225.442 -332.348)"/></g><path class="f" d="M371.619,524.042l-76.924.023s.975-142.284-5.054-149.985c-8.037-10.262-120.5-10.028-144.625-43.5-21.665-30.064-3.378-72.614-3.378-72.614l85.169-2.527a175.161,175.161,0,0,1-7.894,26.786s102.6,18.909,131.339,50.337C369.651,353.768,371.619,524.042,371.619,524.042Z" transform="translate(-134.426 -255.123)"/><g transform="translate(9.28)"><path class="c" d="M203.325,267.435a40.892,40.892,0,0,0-7.216,2.312c-2.445.931-4.854,1.987-7.2,3.133a142.646,142.646,0,0,0-13.474,7.613c-.136.084,0,.274.134.2,4.6-2.391,9.365-4.541,14.133-6.593q3.44-1.483,6.879-2.96a73.607,73.607,0,0,0,6.96-3.072C203.825,267.908,203.666,267.376,203.325,267.435Z" transform="translate(-113.14 -246.167)"/><path class="c" d="M193.513,255.53c-.975,3.882-1.83,7.795-2.943,11.642-.51,1.766-1.013,3.561-1.682,5.274-.562,1.444-1.418,3.095-3.091,3.418-1.932.372-2.484-1.278-2.326-2.871.176-1.776.63-3.558.982-5.306.405-2.015.816-4.031,1.181-6.053.183-1.013.376-2.022.547-3.037.044-.255.234-2.192.372-2.747.016.047.045.091.107.084l.066-.01a.129.129,0,0,0,.119-.1c.021-.154.019-.185-.1-.292a.152.152,0,0,0-.178-.014c-.368.2-.395.709-.513,1.081-.314.982-.634,1.963-.922,2.953-.536,1.853-1.062,3.713-1.533,5.584s-.931,3.741-1.392,5.613a8.772,8.772,0,0,0-.376,4.314,3.3,3.3,0,0,0,3.053,2.482c-.066.127-.147.248-.2.379-.169.381-.293.789-.438,1.182s-.281.8-.4,1.214a3.894,3.894,0,0,0-.112.6c-.024.225.021.445-.007.671a.324.324,0,0,0,.6.217c.1-.2.25-.353.363-.543a3.552,3.552,0,0,0,.278-.65c.133-.389.245-.775.344-1.174s.218-.788.292-1.184a7.049,7.049,0,0,0,.072-.716,4.461,4.461,0,0,0,2.243-.852,7.509,7.509,0,0,0,2.323-3.547c.585-1.616,1.041-3.29,1.495-4.946a72.746,72.746,0,0,0,2.478-12.51A.36.36,0,0,0,193.513,255.53Z" transform="translate(-108.431 -255.256)"/><path class="c" d="M171.429,260.916c-.351,1.926-.576,3.874-1.02,5.783-.435,1.869-.943,3.737-1.56,5.556a19.74,19.74,0,0,1-2.37,5,18.675,18.675,0,0,1-3.774,3.839,32.3,32.3,0,0,1-9.129,5.079,42.787,42.787,0,0,1-5.074,1.483q-1.344.3-2.712.475a5.715,5.715,0,0,0-2.183.5.442.442,0,0,0,.04.756c1.161.569,2.8.255,4.038.127a29.635,29.635,0,0,0,4.316-.758,31.262,31.262,0,0,0,8.153-3.432,25.667,25.667,0,0,0,6.817-5.57,19.31,19.31,0,0,0,3.645-7.98,39.383,39.383,0,0,0,1.188-10.837A.19.19,0,0,0,171.429,260.916Z" transform="translate(-136.998 -251.138)"/><path d="M301.8,421.272q-1.137-18.113-3.013-36.171c-.307-2.969-.608-5.94-.975-8.9a27.829,27.829,0,0,0-1.5-6.766c-1.771-4.527-5.543-6.811-10.1-7.962-5.381-1.359-10.949-2.169-16.422-3.056-5.6-.906-11.209-1.717-16.824-2.5-11.373-1.582-22.764-3.046-34.088-4.95a272.2,272.2,0,0,1-33.445-7.52c-10.06-3.034-20.38-6.785-28.433-13.757-17.332-15.006-17.966-40.15-15.848-61.19.3-2.971.664-5.933,1.023-8.9.017-.155-.222-.208-.239-.052-1.373,11.846-2.967,23.768-1.788,35.7.964,9.754,3.823,19.55,9.478,27.656,5.865,8.408,14.559,13.839,23.939,17.624a188.26,188.26,0,0,0,31.9,9.183c22.479,4.7,45.409,6.693,68.029,10.561q4.184.715,8.352,1.523a34.506,34.506,0,0,1,7.534,2.015c5.138,2.295,6.551,7.29,7.189,12.451,1.476,11.981,2.478,24.042,3.346,36.081,1.75,24.267,2.681,48.664,2.635,73-.007,3-.026,16.6-.054,19.6,0,.267.405.241.414-.023C303.651,480.553,303.327,445.606,301.8,421.272Z" transform="translate(-139.74 -252.119)"/><g transform="translate(156.074 256.33)"><path class="c" d="M297.349,403.223a45.7,45.7,0,0,0-6.38-.538c-2.237-.126-4.478-.257-6.717-.344-4.41-.175-8.816-.288-13.228-.3-8.881-.031-17.763-.016-26.644.187-4.628.107-14.559.29-15.109.538-.264.12-.2.6.075.618,8.811.632,17.633.821,26.461,1.034,8.813.213,17.633.393,26.447.176,2.44-.061,4.878-.189,7.318-.278a53.64,53.64,0,0,0,7.723-.47C297.538,403.8,297.645,403.281,297.349,403.223Z" transform="translate(-229.104 -402.025)"/></g></g><path class="c" d="M183.333,270.9a286.967,286.967,0,0,1,46.463,9.522,325.151,325.151,0,0,1,44.832,16.211c8.147,3.659,16.034,7.747,23.859,12.046.155.086.01.313-.143.232a363.688,363.688,0,0,0-43.6-19.01,351.15,351.15,0,0,0-45.4-13.167c-8.678-1.885-17.418-3.352-26.175-4.806C182.589,271.826,182.746,270.831,183.333,270.9Z" transform="translate(-98.313 -243.583)"/><path d="M245.714,358.508c-.552-8.364-1.42-16.7-2.784-24.975-.55-3.341-.707-7.658-4.2-9.319-1.635-.775-34.226-6.436-38.9-6.349a.219.219,0,0,0-.1.407c.424.192,31.4,6.053,35.335,6.981,1.619.383,3.432.714,4.352,2.26.91,1.53,1.027,3.643,1.322,5.36,2.791,16.2,3.872,32.656,4.319,49.075.124,4.546.194,9.092.234,13.64.04,4.67-.162,9.4.192,14.057a.383.383,0,0,0,.765-.019c.358-4.234.225-8.54.253-12.788q.045-6.4.017-12.795C246.47,375.527,246.277,367.006,245.714,358.508Z" transform="translate(-85.763 -208.519)"/></g><g transform="translate(89.64 78.995)"><g transform="translate(0.513 0.661)"><path class="m" d="M187.1,219.148c7.241,33.791,8.841,58.191,18.284,64.648,7.618,5.211,18.384,8.97,29.477,11.67a278.244,278.244,0,0,0,36.009,5.842c3.732.382,6.841.636,9.045.835,5.458.452,15.091-35.4,11.307-39.87-.872-1.02-4.457-1.867-9.494-2.6-16.964-2.456-50.433-3.592-52.393-5.531C227.3,252.111,213.8,228.948,202,207.225,190.7,186.44,182.5,197.677,187.1,219.148Z" transform="translate(-185.795 -196.201)"/><g transform="translate(83.231 63.068)"><path class="m" d="M233.452,271.342c.674.325,10.238,4.691,16.132,6.286,4.4,1.188,17.147,4.27,18.937-.433,1.226-3.208-6.059-5.9-11.165-7.922-2.691-1.064-6.032-3.8-5.276-5.526,1.324-3.023,8.254-.133,12.823,2.41,8.834,4.918,20.645,13.846,25.909,9.321,1.986-1.712-.412-4.719-3.895-7.648,5.627,3.385,11.614,6.139,13.9,4.326,1.31-1.032,1.347-2.419.578-3.987,1.729.527,3.247.391,4.284-.746,1.776-1.923.845-4.7-1.186-7.524a2.156,2.156,0,0,0,1.624-1.107c3.727-5.9-15.745-22.308-22.4-23.757-19.594-4.286-40.319-2.228-40.319-2.228C235.839,239.057,233.436,271.328,233.452,271.342Z" transform="translate(-233.452 -232.312)"/><g transform="translate(28.32 4.697)"><path class="c" d="M249.714,243.968a31.857,31.857,0,0,1,13.1,4.771c4.609,3.041,8.3,7.243,12.571,10.7.115.094-.04.274-.152.175-2.01-1.792-4.214-3.386-6.3-5.1-2.031-1.67-4.027-3.416-6.172-4.939a31.555,31.555,0,0,0-13.069-5.529A.041.041,0,0,1,249.714,243.968Z" transform="translate(-249.667 -228.309)"/><path class="c" d="M251.715,239.2c5.152,1.308,10.432,2.63,15.235,4.969,5.255,2.557,9.408,6.806,13.49,10.893q3.675,3.683,7.187,7.526c.1.107-.045.281-.15.175q-6.214-6.337-12.805-12.292a41.738,41.738,0,0,0-13.963-8.446c-2.955-1.064-5.985-1.9-9.01-2.735C251.639,239.272,251.657,239.183,251.715,239.2Z" transform="translate(-248.178 -231.87)"/><path class="c" d="M254.764,235c5,.934,9.361,1.731,13.82,4.317,5.9,3.427,11.647,9.274,13.663,11.347,2.227,2.29,4.375,4.651,6.486,7.047.086.1-.082.25-.169.152a165.731,165.731,0,0,0-15.467-14.76,32.948,32.948,0,0,0-8.6-5.369,59.4,59.4,0,0,0-9.744-2.7A.018.018,0,0,1,254.764,235Z" transform="translate(-245.878 -235.002)"/></g></g></g><path class="h" d="M262.2,302.8l16.63-44.19s-45.566-2.782-48.458-4.73S212.928,224,201.859,205.213c-8.7-14.76-19.84-13.916-15.313,15.547,4.771,31.067,8.787,55.524,16.413,62.784C215.836,295.8,262.2,302.8,262.2,302.8Z" transform="translate(-185.501 -195.822)"/><path class="c" d="M232.944,252.962q1.988-5.2,3.86-10.435c1.284-3.6,2.288-7.33,3.676-10.893.058-.148-.185-.213-.241-.063-1.334,3.565-3.06,7-4.5,10.524q-2.1,5.14-4.075,10.329c-2.655,6.972-5.367,13.988-7.536,21.122-.065.213.271.358.367.15C227.628,266.94,230.283,259.916,232.944,252.962Z" transform="translate(-156.671 -169.201)"/><path class="c" d="M226.021,294.6c-9.534-2.943-18.446-6.673-23.062-11.055-7.63-7.265-11.639-31.716-16.413-62.79-3.626-23.583,2.8-28.824,9.971-22.414Z" transform="translate(-185.502 -195.821)"/></g><g transform="translate(0 71.141)"><path class="e" d="M241.016,317.641c-2.639,2.08-106.37,2.2-106.806,1.457-1.172-2,27.923-96.334,72.439-125.288,7.845-5.1,19.672-1.4,24.779,2.676,2.552,2.038,9.887,17.444,10.793,29.968C243.112,238.96,242.679,316.314,241.016,317.641Z" transform="translate(-134.175 -191.325)"/></g><g transform="translate(64.959 54.067)"><g transform="translate(114.206)"><path class="n" d="M274.322,184.368s7.988-6.113,11.721-.335-5.138,10.524-5.138,10.524Z" transform="translate(-208.723 -181.549)"/><g transform="translate(0 2.601)"><path class="n" d="M249.813,231.547l-.007,0-9.808.892-3.235.314,1.595-2.84,4.866-8.56,0-.009.016,0L302.7,183.038l6.583,10.193-59.468,38.307Z" transform="translate(-236.76 -183.038)"/><path class="o" d="M240,212.41l-3.235.307,1.6-2.84Z" transform="translate(-236.761 -163.003)"/></g><path class="o" d="M280.713,195.853l-7.686-11.9,2.364-1.523,7.686,11.9Z" transform="translate(-209.69 -180.889)"/><path class="o" d="M279.217,196.816l-7.686-11.9,2.364-1.523,7.686,11.9Z" transform="translate(-210.807 -180.169)"/><path class="o" d="M280.606,184.269l2.48,3.838-22.879,11.744-.832-1.467Z" transform="translate(-219.882 -179.518)"/></g><g transform="translate(0.601 21.716)"><path class="m" d="M172.926,212.942c8.725,28.038,27.549,56.979,44.067,60.407,16.38,3.4,60.063-13.254,73.415-18.918,5.145-2.183-9.965-46.165-15.446-43.786-9.305,4.038-49.813,25.043-52.962,24.049-1.977-.625-18.874-14.564-32.984-28.983C170.675,186.97,170.217,204.232,172.926,212.942Z" transform="translate(-171.714 -191.494)"/><g transform="translate(98.397)"><path class="m" d="M299.433,199.269c1.327,5.412-12.315,7.552-12.315,7.552A10.3,10.3,0,0,1,292.5,211.3c1.968,3.751-3.06,8.479-3.06,8.479a12.688,12.688,0,0,1,4.925,5.622c1.523,3.781-2.871,9.274-2.871,9.274a11.112,11.112,0,0,1,1.214,7.669c-1.7,6.935-12.072,10.353-18.642,12.592s-27.31,2.445-31.259,2.883l-14.754-41.991s26.606-18.413,34.706-19.95C269.584,194.578,297.4,191,299.433,199.269Z" transform="translate(-228.054 -193.983)"/><g transform="translate(36.198 12.655)"><path class="c" d="M271.5,201.285c-7.587-.362-15.245,1.092-22.619,2.574a.13.13,0,0,0,.054.253c7.316-1.56,15.228-1.2,22.591-2.468A.183.183,0,0,0,271.5,201.285Z" transform="translate(-248.78 -201.229)"/><path class="c" d="M271.995,208.465a19.716,19.716,0,0,0-5.094.924q-2.667.676-5.311,1.443-5.294,1.527-10.505,3.318c-.155.054-.112.3.052.255,3.519-1.009,7.054-1.967,10.612-2.826q2.67-.647,5.351-1.25a23.6,23.6,0,0,0,5-1.373A.261.261,0,0,0,271.995,208.465Z" transform="translate(-247.132 -195.829)"/><path class="c" d="M272.455,217.305c-1.493-.086-3.133.639-4.543,1.078q-2.4.747-4.8,1.465c-3.207.961-6.413,1.919-9.651,2.766-.161.042-.108.3.054.255,3.294-.845,6.6-1.645,9.887-2.518q2.421-.642,4.836-1.313a12.912,12.912,0,0,0,4.274-1.574A.092.092,0,0,0,272.455,217.305Z" transform="translate(-245.36 -189.234)"/></g></g></g><g transform="translate(0 26.966)"><path class="h" d="M262.28,214.829l17.638,48.011s-49.979,17.166-64.987,12.028-34.662-36.594-40.712-55.079-3.64-33.808,18.735-12.328,30.034,25.916,30.034,25.916Z" transform="translate(-171.369 -196.989)"/><g transform="translate(7.255 21.53)"><path class="c" d="M276.293,246.888c-7.541,2.421-15.084,4.749-22.776,6.658s-27.326,5.957-35.323,5.912a19.984,19.984,0,0,1-10.4-3.472,42.369,42.369,0,0,1-8.373-7.368c-2.6-2.826-5.049-5.786-7.477-8.759-2.766-3.39-5.421-6.86-8.067-10.343-2.775-3.655-5.587-7.328-8.116-11.158-.087-.134-.3-.014-.217.12,2.2,3.413,4.3,6.881,6.576,10.245.936,1.385,1.9,2.747,2.878,4.1-.531-.424-1.05-.861-1.595-1.27-2.022-1.518-4.1-2.978-6.036-4.607a.124.124,0,1,0-.154.194c1.972,1.523,3.793,3.248,5.632,4.929.9.823,1.8,1.629,2.747,2.4.442.362.882.728,1.327,1.086.059.045.119.1.178.147.672.91,1.338,1.823,2.019,2.726,2.424,3.208,4.908,6.38,7.485,9.468a50.625,50.625,0,0,0,8.03,7.962c2.92,2.227,6.247,4.22,9.9,4.792,7.431,1.167,27.738-2.948,35.675-4.862a204.051,204.051,0,0,0,26.309-8.048C277.03,247.543,276.849,246.71,276.293,246.888Z" transform="translate(-175.523 -202.612)"/><path class="c" d="M215.82,220.928c-1.123.468-5.1,2.686-6.425,2.735a5.013,5.013,0,0,1-3.374-1.53c-1.034-.871-2.045-1.769-3.081-2.639-1.284-1.078-2.581-2.139-3.875-3.2-.061-.1-.122-.192-.183-.286-.187-.292-.376-.583-.576-.866q-.6-.851-1.224-1.689c-.812-1.092-1.675-2.146-2.511-3.221-.1-.128-.274.047-.178.173.844,1.109,1.6,2.272,2.368,3.437.25.382.493.768.735,1.154-.206-.169-.41-.344-.618-.513-1.022-.828-4.249-3.388-6.233-5.126a.124.124,0,1,0-.154.194c1.809,1.53,5.8,5.315,6.9,6.335,2.153,2,4.333,3.977,6.551,5.9,1.678,1.46,3.47,3.353,5.912,2.854,1.181-.241,5.115-2.578,6.195-3.4C216.239,221.09,216,220.851,215.82,220.928Z" transform="translate(-164.393 -209.316)"/><path class="c" d="M227.6,231.807q-1.836-5.253-3.8-10.46c-1.348-3.58-2.988-7.073-4.23-10.69-.051-.15-.279-.044-.225.108,1.285,3.582,2.185,7.316,3.365,10.936q1.721,5.279,3.563,10.516c2.477,7.038,4.939,14.145,7.892,20.993.087.2.437.1.377-.122C232.579,245.912,230.066,238.835,227.6,231.807Z" transform="translate(-142.81 -208.37)"/></g></g></g><g transform="translate(71.251)"><g transform="translate(4.601 51.327)"><path class="m" d="M197.316,220.147c-5.964,1.233-15.881-8.093-19.692-15.533-.257-.512,2.4-20.547,2.51-24.571.019-.826,25.106,6.841,25.106,6.841s-2.723,8.367-2.876,15.385C202.356,202.855,203.079,218.953,197.316,220.147Z" transform="translate(-177.607 -179.98)"/><path class="c" d="M201.081,203.9c0,.079.021.175.024.271l-.129,0a14.242,14.242,0,0,1-2.475.072c-13.74-.7-17.9-17.7-19-24.227,4.256.707,24.327,6.844,24.327,6.844s-2.732,8.366-2.878,15.38c-.009.192,0,.384,0,.559A6,6,0,0,0,201.081,203.9Z" transform="translate(-176.192 -179.954)"/></g><g transform="translate(5.667 8.767)"><path class="m" d="M179.949,168.095c-3.586,8.65-1.361,34.851,4.433,41.2,8.4,9.209,23.387,11.459,31.536,1.093,7.9-10.046,4.394-44.141-2.192-50.042C204.025,151.66,185.245,155.317,179.949,168.095Z" transform="translate(-178.217 -155.611)"/></g><path class="p" d="M181.4,186.177v-.01" transform="translate(-170.178 -124.035)"/><g transform="translate(25.731 30.583)"><g transform="translate(1.982 7.006)"><path class="c" d="M193.683,173.1c-.019-.066-.133.094-.124.166.2,1.762.126,3.813-1.427,4.525-.049.023-.035.11.023.1C194.084,177.464,194.151,174.741,193.683,173.1Z" transform="translate(-189.899 -171.386)"/><path class="c" d="M192.9,172.114c-2.861.012-2.628,5.725.023,5.714C195.527,177.818,195.3,172.105,192.9,172.114Z" transform="translate(-190.84 -172.114)"/></g><g transform="translate(15.488 6.665)"><path class="c" d="M198.65,173.03c.01-.068.141.079.141.152.017,1.771.334,3.8,1.96,4.321.052.016.051.1-.009.1C198.774,177.406,198.379,174.711,198.65,173.03Z" transform="translate(-198.573 -171.103)"/><path class="c" d="M200.145,171.933c2.84-.332,3.3,5.369.664,5.676C198.219,177.911,197.763,172.211,200.145,171.933Z" transform="translate(-198.562 -171.919)"/></g><path class="c" d="M191.38,172.44a22.222,22.222,0,0,0,2.185-.87,3.8,3.8,0,0,0,2.057-1.31,1.209,1.209,0,0,0-.253-1.455,3.009,3.009,0,0,0-3.037-.185,4.409,4.409,0,0,0-2.461,2.007A1.289,1.289,0,0,0,191.38,172.44Z" transform="translate(-189.705 -167.954)"/><path class="c" d="M202.727,171.816a22.3,22.3,0,0,1-2.3-.5,3.8,3.8,0,0,1-2.248-.952,1.211,1.211,0,0,1,.01-1.478,3.01,3.01,0,0,1,2.964-.685,4.411,4.411,0,0,1,2.759,1.574A1.29,1.29,0,0,1,202.727,171.816Z" transform="translate(-183.561 -168.103)"/><path class="c" d="M192.255,182.549c.442.4.889.95,1.533.978a4.65,4.65,0,0,0,1.886-.522.062.062,0,0,1,.08.087,2.386,2.386,0,0,1-2.209,1.053,1.89,1.89,0,0,1-1.458-1.509C192.056,182.535,192.19,182.491,192.255,182.549Z" transform="translate(-187.931 -157.338)"/><g transform="translate(5.929 0.32)"><path class="c" d="M193.142,187.8a6.033,6.033,0,0,0,4.137,2.517,7.557,7.557,0,0,0,2.174.012,2.2,2.2,0,0,0,.412-.065c.129-.021.245-.04.386-.075a.44.44,0,0,0,.339-.41v-.014a.911.911,0,0,0-.024-.18v-.014l-.01-.154c-.017-1.364-.236-3.432-.236-3.432.51.231,3.1,1.268,3.028.557-.592-5.879-1.25-12.416-3.084-18.141a.164.164,0,0,0-.321.059c.346,5.673,1.687,11.246,2.125,16.937a10.573,10.573,0,0,0-2.883-.747c-.19.063.491,3.987.451,4.6a.216.216,0,0,1-.009.065c-2.281.386-4.038-.234-6.326-1.682C193.164,187.541,193.03,187.667,193.142,187.8Z" transform="translate(-193.1 -168.286)"/></g><g transform="translate(5.33 19.79)"><path class="c" d="M198.877,181.352a7.176,7.176,0,0,1-2.777,2.335,3.233,3.233,0,0,1-1.951.2c-1.43-.314-1.518-1.608-1.3-2.73a7.751,7.751,0,0,1,.566-1.724A9.283,9.283,0,0,0,198.877,181.352Z" transform="translate(-192.757 -179.434)"/><path class="q" d="M196.1,182.95a3.233,3.233,0,0,1-1.951.2c-1.43-.314-1.518-1.608-1.3-2.73A3.329,3.329,0,0,1,196.1,182.95Z" transform="translate(-192.757 -178.697)"/></g></g><path class="c" d="M219.408,174.6c-9.026,6.172-21.365-3.179-21.365-3.179a9.813,9.813,0,0,1-9.958,6.2s-1.785,15.25-5.807,15.219c-6.135-.042-8.018-20.841-6.083-24.926s7.143-5.129,7.143-5.129.384-3.17,4.176-6.062c4.192-3.2,18.649,1.121,18.649,1.121a13.416,13.416,0,0,1,3.706-4.99,3.792,3.792,0,0,1,5.459.5,9.055,9.055,0,0,0-1.474,3.76c-.727,4.464,2.927,4.461,2.9.412a6.3,6.3,0,0,0-1.422-4.172c1.8-2.646,4.747-3.507,6.534-2.087C225.1,153.844,226.914,169.474,219.408,174.6Z" transform="translate(-174.604 -150.591)"/><g transform="translate(0 35.53)"><path class="m" d="M185.854,178.171s-5.2-8.787-9.152-6.995-.482,14.215,3.842,16.209a4.538,4.538,0,0,0,6.247-1.968Z" transform="translate(-174.973 -170.935)"/><path class="c" d="M176.612,173.1a.062.062,0,0,0-.033.117c3.023,1.5,4.445,4.513,5.365,7.6-.838-1.224-2.054-1.953-3.685-.968-.086.052-.017.185.072.173a2.793,2.793,0,0,1,2.99,1.2,13.552,13.552,0,0,1,1.278,2.587c.124.29.639.178.557-.15l-.019-.073C183.52,179.618,180.851,173.823,176.612,173.1Z" transform="translate(-173.8 -169.321)"/></g></g></g></g><g transform="translate(200.919 340.159)"><g transform="translate(16.066 20.148)"><path class="r" d="M226.828,270.67,183.632,554.2h-8.514L201.78,270.67Z" transform="translate(-175.117 -270.67)"/><path class="c" d="M216.516,270.67l-4.122,27.088H188.922l2.55-27.088Z" transform="translate(-164.812 -270.67)"/></g><g transform="translate(447.033 20.148)"><path class="r" d="M545.274,270.67l43.2,283.526h8.514L570.322,270.67Z" transform="translate(-545.274 -270.67)"/><path class="c" d="M545.278,270.67l4.122,27.088h23.473l-2.55-27.088Z" transform="translate(-545.272 -270.67)"/></g><rect class="r" width="514.81" height="14.254"/><g transform="translate(8.061 14.254)"><rect class="c" width="498.687" height="5.894"/></g></g><g transform="translate(380.26 165.767)"><g transform="translate(23.87 4.831)"><path class="c" d="M285.416,319.548l-3.144-.412,16.18-123.089,58.74-32.237,1.525,2.778-57.332,31.465Z" transform="translate(-282.272 -160.73)"/><path d="M289.817,184.753a4.47,4.47,0,1,0,4.469-4.469A4.47,4.47,0,0,0,289.817,184.753Z" transform="translate(-276.64 -148.433)"/><path class="n" d="M322.689,166.516a4.47,4.47,0,1,0,4.469-4.469A4.469,4.469,0,0,0,322.689,166.516Z" transform="translate(-252.102 -162.047)"/></g><g transform="translate(92.363)"><path class="n" d="M358.1,172.672l-21.01,23.455-9.7-11.977-5.906-7.3,15.753-17.566,7.9,5.074Z" transform="translate(-321.49 -159.281)"/><path class="s" d="M355.579,170.5l-21.01,23.455-9.7-11.977,17.749-19.8Z" transform="translate(-318.966 -157.112)"/><path class="n" d="M385.955,182.464l-36.638,40.889-24.332-31.04,27.457-30.643Z" transform="translate(-318.881 -157.497)"/></g><path class="n" d="M322.816,266.41H268.6l3.327-17.03h47.557Z" transform="translate(-268.605 -92.023)"/></g><g transform="translate(564.441 152.274)"><path class="t" d="M440.686,188.741a20.44,20.44,0,0,0,3.495-11.289c0-14.3-15.706-25.9-35.066-25.9s-35.052,11.595-35.052,25.9,15.69,25.9,35.052,25.9a42.094,42.094,0,0,0,24.185-7.166l12.079,3.072Z" transform="translate(-374.063 -151.555)"/><g transform="translate(15.172 22.259)"><path class="n" d="M390.021,167.936a3.635,3.635,0,1,1-3.634-3.636A3.636,3.636,0,0,1,390.021,167.936Z" transform="translate(-382.75 -164.3)"/><circle class="n" cx="3.636" cy="3.636" r="3.636" transform="translate(16.248 0.001)"/><circle class="n" cx="3.636" cy="3.636" r="3.636" transform="translate(32.496 0.001)"/></g></g></g></svg>