<svg xmlns="http://www.w3.org/2000/svg" width="2923.584" height="1451.663" viewBox="0 0 2923.584 1451.663"><defs><style>.a{fill:#eeebfd;}.a,.c{fill-rule:evenodd;}.b,.c{fill:#d3cdec;}</style></defs><g transform="translate(328.786 -3122.617)"><g transform="translate(-282 3122.617)"><path class="a" d="M1123.675,1152.083h92.211c49.629,0,90.233,44.938,90.233,99.858h0c0,54.923-40.6,99.858-90.233,99.858h-779.7c-80.364,0-146.113-72.763-146.113-161.7h0c0-88.936,65.75-161.7,146.111-161.7h0c33.979,0,61.778-30.764,61.778-68.368h0c0-37.6-27.8-68.371-61.78-68.371H361.83c-35.328,0-64.232-31.988-64.232-71.081h0c0-39.1,28.9-71.084,64.232-71.084h94.02c13.752,0,25.006-12.455,25.006-27.674h0c0-15.219-11.255-27.672-25.006-27.672H439.275c-9.491,0-17.257-8.6-17.257-19.1h0c0-10.5,7.765-19.1,17.257-19.1H548.031c22.9,0,25.454,29.945,83.31,29.945h166.7c12.386,0,22.52,11.218,22.52,24.92v0c0,13.705-10.134,24.92-22.52,24.92H776.415c-17.947,0-32.631,16.252-32.631,36.109v0c0,19.859,14.683,36.112,32.631,36.112h32.546c87.888,0,100.3,25.418,115.693,75.972s95.338,54.632,95.338,54.632H1129.3c27.045,0,49.173,24.487,49.173,54.416v0c0,29.928-22.127,54.415-49.173,54.415h-5.629c-26.012,0-47.3,23.556-47.3,52.342h0c0,28.786,21.285,52.339,47.3,52.339ZM390.845,694.154c9.533,0,17.259-8.552,17.259-19.1s-7.726-19.1-17.259-19.1-17.259,8.553-17.259,19.1S381.315,694.154,390.845,694.154Z" transform="translate(-290.07 -655.954)"/><path class="a" d="M850.33,232.821h94.061c50.624,0,92.043,41.421,92.043,92.043h0c0,50.625-41.419,92.043-92.043,92.043H149.045C67.069,416.907,0,349.838,0,267.864H0c0-81.976,67.069-149.045,149.043-149.045h0A63.2,63.2,0,0,0,212.062,55.8l20.03-54.684C383.4-4.063,766.4,10.444,766.4,10.444l89.671,25.571A50.306,50.306,0,0,1,906.23,86.172v0a50.306,50.306,0,0,1-50.159,50.157H850.33a48.389,48.389,0,0,0-48.245,48.245h0a48.387,48.387,0,0,0,48.245,48.244Z" transform="matrix(-1, 0.017, -0.017, -1, 1500, 1433.574)"/></g><g transform="translate(-421.458 3166.551)"><g transform="translate(1383 161.983)"><g transform="translate(1322.084)"><path class="b" d="M558.818,377.364a2.266,2.266,0,1,0-2.266,2.266A2.268,2.268,0,0,0,558.818,377.364Z" transform="translate(-554.286 -225.968)"/><circle class="b" cx="2.266" cy="2.266" r="2.266" transform="translate(30.358 149.13)"/><circle class="b" cx="2.266" cy="2.266" r="2.266" transform="translate(60.718 149.13)"/><circle class="b" cx="2.266" cy="2.266" r="2.266" transform="translate(91.079 149.13)"/><path class="b" d="M558.818,388.951a2.266,2.266,0,1,0-2.266,2.266A2.269,2.269,0,0,0,558.818,388.951Z" transform="translate(-554.286 -267.216)"/><circle class="b" cx="2.266" cy="2.266" r="2.266" transform="translate(30.358 119.468)"/><circle class="b" cx="2.266" cy="2.266" r="2.266" transform="translate(60.718 119.468)"/><circle class="b" cx="2.266" cy="2.266" r="2.266" transform="translate(91.079 119.468)"/><path class="b" d="M558.818,400.537a2.266,2.266,0,1,0-2.266,2.266A2.269,2.269,0,0,0,558.818,400.537Z" transform="translate(-554.286 -308.464)"/><circle class="b" cx="2.266" cy="2.266" r="2.266" transform="translate(30.358 89.806)"/><circle class="b" cx="2.266" cy="2.266" r="2.266" transform="translate(60.718 89.806)"/><circle class="b" cx="2.266" cy="2.266" r="2.266" transform="translate(91.079 89.806)"/><path class="b" d="M558.818,412.441a2.266,2.266,0,1,0-2.266,2.266A2.267,2.267,0,0,0,558.818,412.441Z" transform="translate(-554.286 -350.85)"/><circle class="b" cx="2.266" cy="2.266" r="2.266" transform="translate(30.358 59.325)"/><circle class="b" cx="2.266" cy="2.266" r="2.266" transform="translate(60.718 59.325)"/><circle class="b" cx="2.266" cy="2.266" r="2.266" transform="translate(91.079 59.325)"/><path class="b" d="M558.818,424.027a2.266,2.266,0,1,0-2.266,2.266A2.268,2.268,0,0,0,558.818,424.027Z" transform="translate(-554.286 -392.098)"/><circle class="b" cx="2.266" cy="2.266" r="2.266" transform="translate(30.358 29.663)"/><circle class="b" cx="2.266" cy="2.266" r="2.266" transform="translate(60.718 29.663)"/><circle class="b" cx="2.266" cy="2.266" r="2.266" transform="translate(91.079 29.663)"/><path class="b" d="M558.818,435.614a2.266,2.266,0,1,0-2.266,2.266A2.269,2.269,0,0,0,558.818,435.614Z" transform="translate(-554.286 -433.346)"/><circle class="b" cx="2.266" cy="2.266" r="2.266" transform="translate(30.358 0.001)"/><circle class="b" cx="2.266" cy="2.266" r="2.266" transform="translate(60.718 0.001)"/><circle class="b" cx="2.266" cy="2.266" r="2.266" transform="translate(91.079 0.001)"/><circle class="b" cx="2.266" cy="2.266" r="2.266" transform="translate(122.959 149.13)"/><path class="b" d="M618.7,377.364a2.266,2.266,0,1,0-2.266,2.266A2.267,2.267,0,0,0,618.7,377.364Z" transform="translate(-460.853 -225.968)"/><circle class="b" cx="2.266" cy="2.266" r="2.266" transform="translate(183.679 149.13)"/><circle class="b" cx="2.266" cy="2.266" r="2.266" transform="translate(214.039 149.13)"/><circle class="b" cx="2.266" cy="2.266" r="2.266" transform="translate(122.959 119.468)"/><path class="b" d="M618.7,388.951a2.266,2.266,0,1,0-2.266,2.266A2.267,2.267,0,0,0,618.7,388.951Z" transform="translate(-460.853 -267.216)"/><circle class="b" cx="2.266" cy="2.266" r="2.266" transform="translate(183.679 119.468)"/><circle class="b" cx="2.266" cy="2.266" r="2.266" transform="translate(214.039 119.468)"/><circle class="b" cx="2.266" cy="2.266" r="2.266" transform="translate(122.959 89.806)"/><path class="b" d="M618.7,400.537a2.266,2.266,0,1,0-2.266,2.266A2.267,2.267,0,0,0,618.7,400.537Z" transform="translate(-460.853 -308.464)"/><circle class="b" cx="2.266" cy="2.266" r="2.266" transform="translate(183.679 89.806)"/><circle class="b" cx="2.266" cy="2.266" r="2.266" transform="translate(214.039 89.806)"/><circle class="b" cx="2.266" cy="2.266" r="2.266" transform="translate(122.959 59.325)"/><path class="b" d="M618.7,412.441a2.266,2.266,0,1,0-2.266,2.266A2.265,2.265,0,0,0,618.7,412.441Z" transform="translate(-460.853 -350.85)"/><circle class="b" cx="2.266" cy="2.266" r="2.266" transform="translate(183.679 59.325)"/><circle class="b" cx="2.266" cy="2.266" r="2.266" transform="translate(214.039 59.325)"/><circle class="b" cx="2.266" cy="2.266" r="2.266" transform="translate(122.959 29.663)"/><path class="b" d="M618.7,424.027a2.266,2.266,0,1,0-2.266,2.266A2.267,2.267,0,0,0,618.7,424.027Z" transform="translate(-460.853 -392.098)"/><circle class="b" cx="2.266" cy="2.266" r="2.266" transform="translate(183.679 29.663)"/><circle class="b" cx="2.266" cy="2.266" r="2.266" transform="translate(214.039 29.663)"/><circle class="b" cx="2.266" cy="2.266" r="2.266" transform="translate(122.959 0.001)"/><path class="b" d="M618.7,435.614a2.266,2.266,0,1,0-2.266,2.266A2.267,2.267,0,0,0,618.7,435.614Z" transform="translate(-460.853 -433.346)"/><circle class="b" cx="2.266" cy="2.266" r="2.266" transform="translate(183.679 0.001)"/><circle class="b" cx="2.266" cy="2.266" r="2.266" transform="translate(214.039 0.001)"/><circle class="b" cx="2.266" cy="2.266" r="2.266" transform="translate(245.919 149.13)"/><circle class="b" cx="2.266" cy="2.266" r="2.266" transform="translate(276.279 149.13)"/><circle class="b" cx="2.266" cy="2.266" r="2.266" transform="translate(306.639 149.13)"/><circle class="b" cx="2.266" cy="2.266" r="2.266" transform="translate(245.919 119.468)"/><circle class="b" cx="2.266" cy="2.266" r="2.266" transform="translate(276.279 119.468)"/><circle class="b" cx="2.266" cy="2.266" r="2.266" transform="translate(306.639 119.468)"/><circle class="b" cx="2.266" cy="2.266" r="2.266" transform="translate(245.919 89.806)"/><circle class="b" cx="2.266" cy="2.266" r="2.266" transform="translate(276.279 89.806)"/><circle class="b" cx="2.266" cy="2.266" r="2.266" transform="translate(306.639 89.806)"/><circle class="b" cx="2.266" cy="2.266" r="2.266" transform="translate(245.919 59.325)"/><circle class="b" cx="2.266" cy="2.266" r="2.266" transform="translate(276.279 59.325)"/><circle class="b" cx="2.266" cy="2.266" r="2.266" transform="translate(306.639 59.325)"/><circle class="b" cx="2.266" cy="2.266" r="2.266" transform="translate(245.919 29.663)"/><circle class="b" cx="2.266" cy="2.266" r="2.266" transform="translate(276.279 29.663)"/><circle class="b" cx="2.266" cy="2.266" r="2.266" transform="translate(306.639 29.663)"/><circle class="b" cx="2.266" cy="2.266" r="2.266" transform="translate(245.919 0.001)"/><circle class="b" cx="2.266" cy="2.266" r="2.266" transform="translate(276.279 0.001)"/><circle class="b" cx="2.266" cy="2.266" r="2.266" transform="translate(306.639 0.001)"/></g><g transform="translate(0 47.169)"><path class="b" d="M42.422,358.94a2.266,2.266,0,1,0-2.266,2.266A2.265,2.265,0,0,0,42.422,358.94Z" transform="translate(-37.889 -207.544)"/><path class="b" d="M54.28,358.94a2.266,2.266,0,1,0-2.266,2.266A2.265,2.265,0,0,0,54.28,358.94Z" transform="translate(-19.388 -207.544)"/><path class="b" d="M66.139,358.94a2.266,2.266,0,1,0-2.266,2.266A2.267,2.267,0,0,0,66.139,358.94Z" transform="translate(-0.886 -207.544)"/><path class="b" d="M78,358.94a2.266,2.266,0,1,0-2.266,2.266A2.265,2.265,0,0,0,78,358.94Z" transform="translate(17.615 -207.544)"/><circle class="b" cx="2.266" cy="2.266" r="2.266" transform="translate(0 119.467)"/><path class="b" d="M54.28,370.526a2.266,2.266,0,1,0-2.266,2.266A2.265,2.265,0,0,0,54.28,370.526Z" transform="translate(-19.388 -248.793)"/><path class="b" d="M66.139,370.526a2.266,2.266,0,1,0-2.266,2.266A2.267,2.267,0,0,0,66.139,370.526Z" transform="translate(-0.886 -248.793)"/><circle class="b" cx="2.266" cy="2.266" r="2.266" transform="translate(91.08 119.467)"/><path class="b" d="M42.422,382.112a2.266,2.266,0,1,0-2.266,2.266A2.265,2.265,0,0,0,42.422,382.112Z" transform="translate(-37.889 -290.042)"/><path class="b" d="M54.28,382.112a2.266,2.266,0,1,0-2.266,2.266A2.265,2.265,0,0,0,54.28,382.112Z" transform="translate(-19.388 -290.042)"/><path class="b" d="M66.139,382.112a2.266,2.266,0,1,0-2.266,2.266A2.267,2.267,0,0,0,66.139,382.112Z" transform="translate(-0.886 -290.042)"/><path class="b" d="M78,382.112a2.266,2.266,0,1,0-2.266,2.266A2.265,2.265,0,0,0,78,382.112Z" transform="translate(17.615 -290.042)"/><path class="b" d="M42.422,394.017a2.266,2.266,0,1,0-2.266,2.266A2.265,2.265,0,0,0,42.422,394.017Z" transform="translate(-37.889 -332.426)"/><path class="b" d="M54.28,394.017a2.266,2.266,0,1,0-2.266,2.266A2.265,2.265,0,0,0,54.28,394.017Z" transform="translate(-19.388 -332.426)"/><path class="b" d="M66.139,394.017a2.266,2.266,0,1,0-2.266,2.266A2.267,2.267,0,0,0,66.139,394.017Z" transform="translate(-0.886 -332.426)"/><path class="b" d="M78,394.017a2.266,2.266,0,1,0-2.266,2.266A2.265,2.265,0,0,0,78,394.017Z" transform="translate(17.615 -332.426)"/><circle class="b" cx="2.266" cy="2.266" r="2.266" transform="translate(0 29.662)"/><path class="b" d="M54.28,405.6a2.266,2.266,0,1,0-2.266,2.266A2.265,2.265,0,0,0,54.28,405.6Z" transform="translate(-19.388 -373.674)"/><path class="b" d="M66.139,405.6a2.266,2.266,0,1,0-2.266,2.266A2.267,2.267,0,0,0,66.139,405.6Z" transform="translate(-0.886 -373.674)"/><circle class="b" cx="2.266" cy="2.266" r="2.266" transform="translate(91.08 29.662)"/><path class="b" d="M42.422,417.189a2.266,2.266,0,1,0-2.266,2.266A2.265,2.265,0,0,0,42.422,417.189Z" transform="translate(-37.889 -414.923)"/><path class="b" d="M54.28,417.189a2.266,2.266,0,1,0-2.266,2.266A2.265,2.265,0,0,0,54.28,417.189Z" transform="translate(-19.388 -414.923)"/><path class="b" d="M66.139,417.189a2.266,2.266,0,1,0-2.266,2.266A2.267,2.267,0,0,0,66.139,417.189Z" transform="translate(-0.886 -414.923)"/><path class="b" d="M78,417.189a2.266,2.266,0,1,0-2.266,2.266A2.265,2.265,0,0,0,78,417.189Z" transform="translate(17.615 -414.923)"/><path class="b" d="M90.449,358.94a2.266,2.266,0,1,0-2.266,2.266A2.265,2.265,0,0,0,90.449,358.94Z" transform="translate(37.043 -207.544)"/><path class="b" d="M102.309,358.94a2.267,2.267,0,1,0-2.266,2.266A2.267,2.267,0,0,0,102.309,358.94Z" transform="translate(55.544 -207.544)"/><path class="b" d="M114.166,358.94a2.266,2.266,0,1,0-2.266,2.266A2.265,2.265,0,0,0,114.166,358.94Z" transform="translate(74.046 -207.544)"/><path class="b" d="M126.024,358.94a2.266,2.266,0,1,0-2.266,2.266A2.265,2.265,0,0,0,126.024,358.94Z" transform="translate(92.547 -207.544)"/><path class="b" d="M90.449,370.526a2.266,2.266,0,1,0-2.266,2.266A2.265,2.265,0,0,0,90.449,370.526Z" transform="translate(37.043 -248.793)"/><circle class="b" cx="2.266" cy="2.266" r="2.266" transform="translate(153.32 119.467)"/><circle class="b" cx="2.266" cy="2.266" r="2.266" transform="translate(183.68 119.467)"/><path class="b" d="M126.024,370.526a2.266,2.266,0,1,0-2.266,2.266A2.265,2.265,0,0,0,126.024,370.526Z" transform="translate(92.547 -248.793)"/><path class="b" d="M90.449,382.112a2.266,2.266,0,1,0-2.266,2.266A2.265,2.265,0,0,0,90.449,382.112Z" transform="translate(37.043 -290.042)"/><path class="b" d="M102.309,382.112a2.267,2.267,0,1,0-2.266,2.266A2.267,2.267,0,0,0,102.309,382.112Z" transform="translate(55.544 -290.042)"/><path class="b" d="M114.166,382.112a2.266,2.266,0,1,0-2.266,2.266A2.265,2.265,0,0,0,114.166,382.112Z" transform="translate(74.046 -290.042)"/><path class="b" d="M126.024,382.112a2.266,2.266,0,1,0-2.266,2.266A2.265,2.265,0,0,0,126.024,382.112Z" transform="translate(92.547 -290.042)"/><path class="b" d="M90.449,394.017a2.266,2.266,0,1,0-2.266,2.266A2.265,2.265,0,0,0,90.449,394.017Z" transform="translate(37.043 -332.426)"/><path class="b" d="M102.309,394.017a2.267,2.267,0,1,0-2.266,2.266A2.267,2.267,0,0,0,102.309,394.017Z" transform="translate(55.544 -332.426)"/><path class="b" d="M114.166,394.017a2.266,2.266,0,1,0-2.266,2.266A2.265,2.265,0,0,0,114.166,394.017Z" transform="translate(74.046 -332.426)"/><path class="b" d="M126.024,394.017a2.266,2.266,0,1,0-2.266,2.266A2.265,2.265,0,0,0,126.024,394.017Z" transform="translate(92.547 -332.426)"/><path class="b" d="M90.449,405.6a2.266,2.266,0,1,0-2.266,2.266A2.265,2.265,0,0,0,90.449,405.6Z" transform="translate(37.043 -373.674)"/><circle class="b" cx="2.266" cy="2.266" r="2.266" transform="translate(153.32 29.662)"/><circle class="b" cx="2.266" cy="2.266" r="2.266" transform="translate(183.68 29.662)"/><path class="b" d="M126.024,405.6a2.266,2.266,0,1,0-2.266,2.266A2.265,2.265,0,0,0,126.024,405.6Z" transform="translate(92.547 -373.674)"/><path class="b" d="M90.449,417.189a2.266,2.266,0,1,0-2.266,2.266A2.265,2.265,0,0,0,90.449,417.189Z" transform="translate(37.043 -414.923)"/><path class="b" d="M102.309,417.189a2.267,2.267,0,1,0-2.266,2.266A2.267,2.267,0,0,0,102.309,417.189Z" transform="translate(55.544 -414.923)"/><path class="b" d="M114.166,417.189a2.266,2.266,0,1,0-2.266,2.266A2.265,2.265,0,0,0,114.166,417.189Z" transform="translate(74.046 -414.923)"/><path class="b" d="M126.024,417.189a2.266,2.266,0,1,0-2.266,2.266A2.265,2.265,0,0,0,126.024,417.189Z" transform="translate(92.547 -414.923)"/><path class="b" d="M138.478,358.94a2.267,2.267,0,1,0-2.266,2.266A2.267,2.267,0,0,0,138.478,358.94Z" transform="translate(111.975 -207.544)"/><path class="b" d="M150.335,358.94a2.266,2.266,0,1,0-2.266,2.266A2.265,2.265,0,0,0,150.335,358.94Z" transform="translate(130.478 -207.544)"/><path class="b" d="M162.193,358.94a2.266,2.266,0,1,0-2.266,2.266A2.265,2.265,0,0,0,162.193,358.94Z" transform="translate(148.979 -207.544)"/><path class="b" d="M138.478,370.526a2.267,2.267,0,1,0-2.266,2.266A2.267,2.267,0,0,0,138.478,370.526Z" transform="translate(111.975 -248.793)"/><path class="b" d="M150.335,370.526a2.266,2.266,0,1,0-2.266,2.266A2.265,2.265,0,0,0,150.335,370.526Z" transform="translate(130.478 -248.793)"/><path class="b" d="M162.193,370.526a2.266,2.266,0,1,0-2.266,2.266A2.265,2.265,0,0,0,162.193,370.526Z" transform="translate(148.979 -248.793)"/><path class="b" d="M138.478,382.112a2.267,2.267,0,1,0-2.266,2.266A2.267,2.267,0,0,0,138.478,382.112Z" transform="translate(111.975 -290.042)"/><path class="b" d="M150.335,382.112a2.266,2.266,0,1,0-2.266,2.266A2.265,2.265,0,0,0,150.335,382.112Z" transform="translate(130.478 -290.042)"/><path class="b" d="M162.193,382.112a2.266,2.266,0,1,0-2.266,2.266A2.265,2.265,0,0,0,162.193,382.112Z" transform="translate(148.979 -290.042)"/><path class="b" d="M138.478,394.017a2.267,2.267,0,1,0-2.266,2.266A2.267,2.267,0,0,0,138.478,394.017Z" transform="translate(111.975 -332.426)"/><path class="b" d="M150.335,394.017a2.266,2.266,0,1,0-2.266,2.266A2.265,2.265,0,0,0,150.335,394.017Z" transform="translate(130.478 -332.426)"/><path class="b" d="M162.193,394.017a2.266,2.266,0,1,0-2.266,2.266A2.265,2.265,0,0,0,162.193,394.017Z" transform="translate(148.979 -332.426)"/><path class="b" d="M138.478,405.6a2.267,2.267,0,1,0-2.266,2.266A2.267,2.267,0,0,0,138.478,405.6Z" transform="translate(111.975 -373.674)"/><path class="b" d="M150.335,405.6a2.266,2.266,0,1,0-2.266,2.266A2.265,2.265,0,0,0,150.335,405.6Z" transform="translate(130.478 -373.674)"/><path class="b" d="M162.193,405.6a2.266,2.266,0,1,0-2.266,2.266A2.265,2.265,0,0,0,162.193,405.6Z" transform="translate(148.979 -373.674)"/><path class="b" d="M138.478,417.189a2.267,2.267,0,1,0-2.266,2.266A2.267,2.267,0,0,0,138.478,417.189Z" transform="translate(111.975 -414.923)"/><path class="b" d="M150.335,417.189a2.266,2.266,0,1,0-2.266,2.266A2.265,2.265,0,0,0,150.335,417.189Z" transform="translate(130.478 -414.923)"/><path class="b" d="M162.193,417.189a2.266,2.266,0,1,0-2.266,2.266A2.265,2.265,0,0,0,162.193,417.189Z" transform="translate(148.979 -414.923)"/></g></g><path class="c" d="M1657.5,705.96a2.908,2.908,0,0,1,5.816,0v13.082a2.908,2.908,0,1,1-5.816,0V705.96Zm-19.833,10.624a2.909,2.909,0,1,1,4.113-4.116l9.255,9.253a2.91,2.91,0,0,1-4.113,4.117l-9.255-9.254Zm-6.51,21.537a2.911,2.911,0,1,1,0-5.823h13.086a2.912,2.912,0,0,1,0,5.823Zm10.623,19.835a2.909,2.909,0,0,1-4.113-4.116l9.255-9.254a2.909,2.909,0,0,1,4.113,4.116l-9.255,9.254Zm21.536,6.508a2.908,2.908,0,0,1-5.816,0V751.372a2.908,2.908,0,0,1,5.816,0v13.092Zm19.833-10.624a2.91,2.91,0,0,1-4.116,4.116l-9.255-9.254a2.91,2.91,0,0,1,4.116-4.116l9.255,9.254Zm6.509-21.542a2.911,2.911,0,1,1,0,5.823h-13.086a2.911,2.911,0,0,1,0-5.823Zm-10.625-19.83a2.91,2.91,0,0,1,4.116,4.116l-9.255,9.254a2.911,2.911,0,0,1-4.116-4.117Z" transform="translate(-1535.569 -703.053)"/><path class="c" d="M1657.5,705.96a2.908,2.908,0,0,1,5.816,0v13.082a2.908,2.908,0,1,1-5.816,0V705.96Zm-19.833,10.624a2.909,2.909,0,1,1,4.113-4.116l9.255,9.253a2.91,2.91,0,0,1-4.113,4.117l-9.255-9.254Zm-6.51,21.537a2.911,2.911,0,1,1,0-5.823h13.086a2.912,2.912,0,0,1,0,5.823Zm10.623,19.835a2.909,2.909,0,0,1-4.113-4.116l9.255-9.254a2.909,2.909,0,0,1,4.113,4.116l-9.255,9.254Zm21.536,6.508a2.908,2.908,0,0,1-5.816,0V751.372a2.908,2.908,0,0,1,5.816,0v13.092Zm19.833-10.624a2.91,2.91,0,0,1-4.116,4.116l-9.255-9.254a2.91,2.91,0,0,1,4.116-4.116l9.255,9.254Zm6.509-21.542a2.911,2.911,0,1,1,0,5.823h-13.086a2.911,2.911,0,0,1,0-5.823Zm-10.625-19.83a2.91,2.91,0,0,1,4.116,4.116l-9.255,9.254a2.911,2.911,0,0,1-4.116-4.117Z" transform="translate(-843.569 -597.053)"/></g></g></svg>