<svg xmlns="http://www.w3.org/2000/svg" width="1920.289" height="1688.888" viewBox="0 0 1920.289 1688.888"><defs><style>.a,.b{fill:#f1caef;}.b,.c{fill-rule:evenodd;}.c{fill:#f9ebfd;}</style></defs><g transform="translate(144.446 -3490.384)"><g transform="translate(183.518 3994.097)"><g transform="translate(1272.678)"><path class="a" d="M15.041,34.776a2.061,2.061,0,1,0-2.06,2.061A2.06,2.06,0,0,0,15.041,34.776Z" transform="translate(-10.919 102.904)"/><path class="a" d="M58.443,34.776a2.06,2.06,0,1,0-2.06,2.061A2.06,2.06,0,0,0,58.443,34.776Z" transform="translate(-26.712 102.904)"/><circle class="a" cx="2.061" cy="2.061" r="2.061" transform="translate(55.22 135.62)"/><path class="a" d="M145.248,34.776a2.061,2.061,0,1,0-2.06,2.061A2.06,2.06,0,0,0,145.248,34.776Z" transform="translate(-58.297 102.904)"/><path class="a" d="M15.041,77.182a2.061,2.061,0,1,0-2.06,2.06A2.06,2.06,0,0,0,15.041,77.182Z" transform="translate(-10.919 33.524)"/><path class="a" d="M58.443,77.182a2.06,2.06,0,1,0-2.06,2.06A2.06,2.06,0,0,0,58.443,77.182Z" transform="translate(-26.712 33.524)"/><path class="a" d="M101.846,77.182a2.061,2.061,0,1,0-2.061,2.06A2.061,2.061,0,0,0,101.846,77.182Z" transform="translate(-42.504 33.524)"/><path class="a" d="M145.248,77.182a2.061,2.061,0,1,0-2.06,2.06A2.06,2.06,0,0,0,145.248,77.182Z" transform="translate(-58.297 33.524)"/><path class="a" d="M15.041,119.587a2.061,2.061,0,1,0-2.06,2.06A2.061,2.061,0,0,0,15.041,119.587Z" transform="translate(-10.919 -35.856)"/><path class="a" d="M58.443,119.587a2.06,2.06,0,1,0-2.06,2.06A2.061,2.061,0,0,0,58.443,119.587Z" transform="translate(-26.712 -35.856)"/><circle class="a" cx="2.061" cy="2.061" r="2.061" transform="translate(55.22 81.67)"/><path class="a" d="M145.248,119.587a2.061,2.061,0,1,0-2.06,2.06A2.061,2.061,0,0,0,145.248,119.587Z" transform="translate(-58.297 -35.856)"/><path class="a" d="M15.041,163.16a2.061,2.061,0,1,0-2.06,2.061A2.06,2.06,0,0,0,15.041,163.16Z" transform="translate(-10.919 -107.149)"/><path class="a" d="M58.443,163.16a2.06,2.06,0,1,0-2.06,2.061A2.06,2.06,0,0,0,58.443,163.16Z" transform="translate(-26.712 -107.149)"/><circle class="a" cx="2.061" cy="2.061" r="2.061" transform="translate(55.22 53.951)"/><path class="a" d="M145.248,163.16a2.061,2.061,0,1,0-2.06,2.061A2.06,2.06,0,0,0,145.248,163.16Z" transform="translate(-58.297 -107.149)"/><path class="a" d="M15.041,205.565a2.061,2.061,0,1,0-2.06,2.061A2.06,2.06,0,0,0,15.041,205.565Z" transform="translate(-10.919 -176.53)"/><path class="a" d="M58.443,205.565a2.06,2.06,0,1,0-2.06,2.061A2.06,2.06,0,0,0,58.443,205.565Z" transform="translate(-26.712 -176.53)"/><circle class="a" cx="2.061" cy="2.061" r="2.061" transform="translate(55.22 26.975)"/><path class="a" d="M145.248,205.565a2.061,2.061,0,1,0-2.06,2.061A2.06,2.06,0,0,0,145.248,205.565Z" transform="translate(-58.297 -176.53)"/><path class="a" d="M15.041,247.97a2.061,2.061,0,1,0-2.06,2.061A2.06,2.06,0,0,0,15.041,247.97Z" transform="translate(-10.919 -245.91)"/><path class="a" d="M58.443,247.97a2.06,2.06,0,1,0-2.06,2.061A2.06,2.06,0,0,0,58.443,247.97Z" transform="translate(-26.712 -245.91)"/><circle class="a" cx="2.061" cy="2.061" r="2.061" transform="translate(55.22)"/><path class="a" d="M145.248,247.97a2.061,2.061,0,1,0-2.06,2.061A2.06,2.06,0,0,0,145.248,247.97Z" transform="translate(-58.297 -245.91)"/><circle class="a" cx="2.061" cy="2.061" r="2.061" transform="translate(111.822 135.62)"/><circle class="a" cx="2.061" cy="2.061" r="2.061" transform="translate(139.432 135.62)"/><path class="a" d="M277.629,34.776a2.061,2.061,0,1,0-2.061,2.061A2.061,2.061,0,0,0,277.629,34.776Z" transform="translate(-106.465 102.904)"/><path class="a" d="M321.031,34.776a2.061,2.061,0,1,0-2.061,2.061A2.06,2.06,0,0,0,321.031,34.776Z" transform="translate(-122.258 102.904)"/><path class="a" d="M190.824,77.182a2.061,2.061,0,1,0-2.061,2.06A2.061,2.061,0,0,0,190.824,77.182Z" transform="translate(-74.88 33.524)"/><path class="a" d="M234.226,77.182a2.061,2.061,0,1,0-2.06,2.06A2.06,2.06,0,0,0,234.226,77.182Z" transform="translate(-90.673 33.524)"/><path class="a" d="M277.629,77.182a2.061,2.061,0,1,0-2.061,2.06A2.061,2.061,0,0,0,277.629,77.182Z" transform="translate(-106.465 33.524)"/><path class="a" d="M321.031,77.182a2.061,2.061,0,1,0-2.061,2.06A2.061,2.061,0,0,0,321.031,77.182Z" transform="translate(-122.258 33.524)"/><circle class="a" cx="2.061" cy="2.061" r="2.061" transform="translate(111.822 81.67)"/><circle class="a" cx="2.061" cy="2.061" r="2.061" transform="translate(139.432 81.67)"/><path class="a" d="M277.629,119.587a2.061,2.061,0,1,0-2.061,2.06A2.061,2.061,0,0,0,277.629,119.587Z" transform="translate(-106.465 -35.856)"/><path class="a" d="M321.031,119.587a2.061,2.061,0,1,0-2.061,2.06A2.061,2.061,0,0,0,321.031,119.587Z" transform="translate(-122.258 -35.856)"/><circle class="a" cx="2.061" cy="2.061" r="2.061" transform="translate(111.822 53.951)"/><circle class="a" cx="2.061" cy="2.061" r="2.061" transform="translate(139.432 53.951)"/><path class="a" d="M277.629,163.16a2.061,2.061,0,1,0-2.061,2.061A2.061,2.061,0,0,0,277.629,163.16Z" transform="translate(-106.465 -107.149)"/><path class="a" d="M321.031,163.16a2.061,2.061,0,1,0-2.061,2.061A2.06,2.06,0,0,0,321.031,163.16Z" transform="translate(-122.258 -107.149)"/><circle class="a" cx="2.061" cy="2.061" r="2.061" transform="translate(111.822 26.975)"/><circle class="a" cx="2.061" cy="2.061" r="2.061" transform="translate(139.432 26.975)"/><path class="a" d="M277.629,205.565a2.061,2.061,0,1,0-2.061,2.061A2.061,2.061,0,0,0,277.629,205.565Z" transform="translate(-106.465 -176.53)"/><path class="a" d="M321.031,205.565a2.061,2.061,0,1,0-2.061,2.061A2.06,2.06,0,0,0,321.031,205.565Z" transform="translate(-122.258 -176.53)"/><circle class="a" cx="2.061" cy="2.061" r="2.061" transform="translate(111.822)"/><circle class="a" cx="2.061" cy="2.061" r="2.061" transform="translate(139.432)"/><path class="a" d="M277.629,247.97a2.061,2.061,0,1,0-2.061,2.061A2.061,2.061,0,0,0,277.629,247.97Z" transform="translate(-106.465 -245.91)"/><path class="a" d="M321.031,247.97a2.061,2.061,0,1,0-2.061,2.061A2.06,2.06,0,0,0,321.031,247.97Z" transform="translate(-122.258 -245.91)"/><path class="a" d="M366.607,34.776a2.061,2.061,0,1,0-2.061,2.061A2.06,2.06,0,0,0,366.607,34.776Z" transform="translate(-138.841 102.904)"/><path class="a" d="M410.009,34.776a2.061,2.061,0,1,0-2.06,2.061A2.06,2.06,0,0,0,410.009,34.776Z" transform="translate(-154.634 102.904)"/><circle class="a" cx="2.061" cy="2.061" r="2.061" transform="translate(278.863 135.62)"/><path class="a" d="M366.607,77.182a2.061,2.061,0,1,0-2.061,2.06A2.061,2.061,0,0,0,366.607,77.182Z" transform="translate(-138.841 33.524)"/><path class="a" d="M410.009,77.182a2.061,2.061,0,1,0-2.06,2.06A2.06,2.06,0,0,0,410.009,77.182Z" transform="translate(-154.634 33.524)"/><path class="a" d="M453.411,77.182a2.061,2.061,0,1,0-2.061,2.06A2.061,2.061,0,0,0,453.411,77.182Z" transform="translate(-170.427 33.524)"/><path class="a" d="M366.607,119.587a2.061,2.061,0,1,0-2.061,2.06A2.061,2.061,0,0,0,366.607,119.587Z" transform="translate(-138.841 -35.856)"/><path class="a" d="M410.009,119.587a2.061,2.061,0,1,0-2.06,2.06A2.061,2.061,0,0,0,410.009,119.587Z" transform="translate(-154.634 -35.856)"/><circle class="a" cx="2.061" cy="2.061" r="2.061" transform="translate(278.863 81.67)"/><path class="a" d="M366.607,163.16a2.061,2.061,0,1,0-2.061,2.061A2.06,2.06,0,0,0,366.607,163.16Z" transform="translate(-138.841 -107.149)"/><path class="a" d="M410.009,163.16a2.061,2.061,0,1,0-2.06,2.061A2.06,2.06,0,0,0,410.009,163.16Z" transform="translate(-154.634 -107.149)"/><circle class="a" cx="2.061" cy="2.061" r="2.061" transform="translate(278.863 53.951)"/><path class="a" d="M366.607,205.565a2.061,2.061,0,1,0-2.061,2.061A2.06,2.06,0,0,0,366.607,205.565Z" transform="translate(-138.841 -176.53)"/><path class="a" d="M410.009,205.565a2.061,2.061,0,1,0-2.06,2.061A2.06,2.06,0,0,0,410.009,205.565Z" transform="translate(-154.634 -176.53)"/><circle class="a" cx="2.061" cy="2.061" r="2.061" transform="translate(278.863 26.975)"/><path class="a" d="M366.607,247.97a2.061,2.061,0,1,0-2.061,2.061A2.06,2.06,0,0,0,366.607,247.97Z" transform="translate(-138.841 -245.91)"/><path class="a" d="M410.009,247.97a2.061,2.061,0,1,0-2.06,2.061A2.06,2.06,0,0,0,410.009,247.97Z" transform="translate(-154.634 -245.91)"/><circle class="a" cx="2.061" cy="2.061" r="2.061" transform="translate(278.863)"/></g><g transform="translate(-78 526.453)"><g transform="translate(594.369 450.183)"><path class="a" d="M295.151,124.73A2.266,2.266,0,1,0,292.885,127,2.267,2.267,0,0,0,295.151,124.73Z" transform="translate(-290.619 26.664)"/><path class="a" d="M307.009,124.73A2.266,2.266,0,1,0,304.743,127,2.267,2.267,0,0,0,307.009,124.73Z" transform="translate(-272.118 26.664)"/><circle class="a" cx="2.266" cy="2.266" r="2.266" transform="translate(60.72 149.129)"/><path class="a" d="M330.725,124.73A2.266,2.266,0,1,0,328.46,127,2.267,2.267,0,0,0,330.725,124.73Z" transform="translate(-235.114 26.664)"/><path class="a" d="M295.151,136.316a2.266,2.266,0,1,0-2.266,2.266A2.265,2.265,0,0,0,295.151,136.316Z" transform="translate(-290.619 -14.582)"/><path class="a" d="M307.009,136.316a2.266,2.266,0,1,0-2.266,2.266A2.265,2.265,0,0,0,307.009,136.316Z" transform="translate(-272.118 -14.582)"/><path class="a" d="M318.868,136.316a2.266,2.266,0,1,0-2.266,2.266A2.265,2.265,0,0,0,318.868,136.316Z" transform="translate(-253.615 -14.582)"/><path class="a" d="M330.725,136.316a2.266,2.266,0,1,0-2.266,2.266A2.265,2.265,0,0,0,330.725,136.316Z" transform="translate(-235.114 -14.582)"/><path class="a" d="M295.151,147.9a2.266,2.266,0,1,0-2.266,2.266A2.265,2.265,0,0,0,295.151,147.9Z" transform="translate(-290.619 -55.83)"/><path class="a" d="M307.009,147.9a2.266,2.266,0,1,0-2.266,2.266A2.265,2.265,0,0,0,307.009,147.9Z" transform="translate(-272.118 -55.83)"/><circle class="a" cx="2.266" cy="2.266" r="2.266" transform="translate(60.72 89.805)"/><path class="a" d="M330.725,147.9a2.266,2.266,0,1,0-2.266,2.266A2.265,2.265,0,0,0,330.725,147.9Z" transform="translate(-235.114 -55.83)"/><path class="a" d="M295.151,159.808a2.266,2.266,0,1,0-2.266,2.266A2.267,2.267,0,0,0,295.151,159.808Z" transform="translate(-290.619 -98.218)"/><path class="a" d="M307.009,159.808a2.266,2.266,0,1,0-2.266,2.266A2.267,2.267,0,0,0,307.009,159.808Z" transform="translate(-272.118 -98.218)"/><circle class="a" cx="2.266" cy="2.266" r="2.266" transform="translate(60.72 59.324)"/><path class="a" d="M330.725,159.808a2.266,2.266,0,1,0-2.266,2.266A2.267,2.267,0,0,0,330.725,159.808Z" transform="translate(-235.114 -98.218)"/><path class="a" d="M295.151,171.4a2.266,2.266,0,1,0-2.266,2.266A2.267,2.267,0,0,0,295.151,171.4Z" transform="translate(-290.619 -139.466)"/><path class="a" d="M307.009,171.4a2.266,2.266,0,1,0-2.266,2.266A2.267,2.267,0,0,0,307.009,171.4Z" transform="translate(-272.118 -139.466)"/><circle class="a" cx="2.266" cy="2.266" r="2.266" transform="translate(60.72 29.662)"/><path class="a" d="M330.725,171.4a2.266,2.266,0,1,0-2.266,2.266A2.267,2.267,0,0,0,330.725,171.4Z" transform="translate(-235.114 -139.466)"/><path class="a" d="M295.151,182.979a2.266,2.266,0,1,0-2.266,2.266A2.265,2.265,0,0,0,295.151,182.979Z" transform="translate(-290.619 -180.712)"/><path class="a" d="M307.009,182.979a2.266,2.266,0,1,0-2.266,2.266A2.265,2.265,0,0,0,307.009,182.979Z" transform="translate(-272.118 -180.712)"/><circle class="a" cx="2.266" cy="2.266" r="2.266" transform="translate(60.72)"/><path class="a" d="M330.725,182.979a2.266,2.266,0,1,0-2.266,2.266A2.265,2.265,0,0,0,330.725,182.979Z" transform="translate(-235.114 -180.712)"/><circle class="a" cx="2.266" cy="2.266" r="2.266" transform="translate(122.96 149.129)"/><circle class="a" cx="2.266" cy="2.266" r="2.266" transform="translate(153.32 149.129)"/><path class="a" d="M366.895,124.73A2.266,2.266,0,1,0,364.629,127,2.267,2.267,0,0,0,366.895,124.73Z" transform="translate(-178.683 26.664)"/><path class="a" d="M378.755,124.73A2.267,2.267,0,1,0,376.487,127,2.269,2.269,0,0,0,378.755,124.73Z" transform="translate(-160.182 26.664)"/><path class="a" d="M343.177,136.316a2.266,2.266,0,1,0-2.266,2.266A2.265,2.265,0,0,0,343.177,136.316Z" transform="translate(-215.687 -14.582)"/><path class="a" d="M355.037,136.316a2.266,2.266,0,1,0-2.266,2.266A2.265,2.265,0,0,0,355.037,136.316Z" transform="translate(-197.184 -14.582)"/><path class="a" d="M366.895,136.316a2.266,2.266,0,1,0-2.266,2.266A2.265,2.265,0,0,0,366.895,136.316Z" transform="translate(-178.683 -14.582)"/><path class="a" d="M378.755,136.316a2.267,2.267,0,1,0-2.268,2.266A2.267,2.267,0,0,0,378.755,136.316Z" transform="translate(-160.182 -14.582)"/><circle class="a" cx="2.266" cy="2.266" r="2.266" transform="translate(122.96 89.805)"/><circle class="a" cx="2.266" cy="2.266" r="2.266" transform="translate(153.32 89.805)"/><path class="a" d="M366.895,147.9a2.266,2.266,0,1,0-2.266,2.266A2.265,2.265,0,0,0,366.895,147.9Z" transform="translate(-178.683 -55.83)"/><path class="a" d="M378.755,147.9a2.267,2.267,0,1,0-2.268,2.266A2.267,2.267,0,0,0,378.755,147.9Z" transform="translate(-160.182 -55.83)"/><circle class="a" cx="2.266" cy="2.266" r="2.266" transform="translate(122.96 59.324)"/><circle class="a" cx="2.266" cy="2.266" r="2.266" transform="translate(153.32 59.324)"/><path class="a" d="M366.895,159.808a2.266,2.266,0,1,0-2.266,2.266A2.267,2.267,0,0,0,366.895,159.808Z" transform="translate(-178.683 -98.218)"/><path class="a" d="M378.755,159.808a2.267,2.267,0,1,0-2.268,2.266A2.269,2.269,0,0,0,378.755,159.808Z" transform="translate(-160.182 -98.218)"/><circle class="a" cx="2.266" cy="2.266" r="2.266" transform="translate(122.96 29.662)"/><circle class="a" cx="2.266" cy="2.266" r="2.266" transform="translate(153.32 29.662)"/><path class="a" d="M366.895,171.4a2.266,2.266,0,1,0-2.266,2.266A2.267,2.267,0,0,0,366.895,171.4Z" transform="translate(-178.683 -139.466)"/><path class="a" d="M378.755,171.4a2.267,2.267,0,1,0-2.268,2.266A2.269,2.269,0,0,0,378.755,171.4Z" transform="translate(-160.182 -139.466)"/><circle class="a" cx="2.266" cy="2.266" r="2.266" transform="translate(122.96)"/><circle class="a" cx="2.266" cy="2.266" r="2.266" transform="translate(153.32)"/><path class="a" d="M366.895,182.979a2.266,2.266,0,1,0-2.266,2.266A2.265,2.265,0,0,0,366.895,182.979Z" transform="translate(-178.683 -180.712)"/><path class="a" d="M378.755,182.979a2.267,2.267,0,1,0-2.268,2.266A2.267,2.267,0,0,0,378.755,182.979Z" transform="translate(-160.182 -180.712)"/><path class="a" d="M391.205,124.73A2.266,2.266,0,1,0,388.94,127,2.267,2.267,0,0,0,391.205,124.73Z" transform="translate(-140.753 26.664)"/><path class="a" d="M403.064,124.73A2.266,2.266,0,1,0,400.8,127,2.267,2.267,0,0,0,403.064,124.73Z" transform="translate(-122.252 26.664)"/><circle class="a" cx="2.266" cy="2.266" r="2.266" transform="translate(306.64 149.129)"/><path class="a" d="M391.205,136.316a2.266,2.266,0,1,0-2.266,2.266A2.265,2.265,0,0,0,391.205,136.316Z" transform="translate(-140.753 -14.582)"/><path class="a" d="M403.064,136.316a2.266,2.266,0,1,0-2.266,2.266A2.265,2.265,0,0,0,403.064,136.316Z" transform="translate(-122.252 -14.582)"/><path class="a" d="M414.924,136.316a2.267,2.267,0,1,0-2.268,2.266A2.267,2.267,0,0,0,414.924,136.316Z" transform="translate(-103.751 -14.582)"/><path class="a" d="M391.205,147.9a2.266,2.266,0,1,0-2.266,2.266A2.265,2.265,0,0,0,391.205,147.9Z" transform="translate(-140.753 -55.83)"/><path class="a" d="M403.064,147.9a2.266,2.266,0,1,0-2.266,2.266A2.265,2.265,0,0,0,403.064,147.9Z" transform="translate(-122.252 -55.83)"/><circle class="a" cx="2.266" cy="2.266" r="2.266" transform="translate(306.64 89.805)"/><path class="a" d="M391.205,159.808a2.266,2.266,0,1,0-2.266,2.266A2.267,2.267,0,0,0,391.205,159.808Z" transform="translate(-140.753 -98.218)"/><path class="a" d="M403.064,159.808a2.266,2.266,0,1,0-2.266,2.266A2.267,2.267,0,0,0,403.064,159.808Z" transform="translate(-122.252 -98.218)"/><circle class="a" cx="2.266" cy="2.266" r="2.266" transform="translate(306.64 59.324)"/><path class="a" d="M391.205,171.4a2.266,2.266,0,1,0-2.266,2.266A2.267,2.267,0,0,0,391.205,171.4Z" transform="translate(-140.753 -139.466)"/><path class="a" d="M403.064,171.4a2.266,2.266,0,1,0-2.266,2.266A2.267,2.267,0,0,0,403.064,171.4Z" transform="translate(-122.252 -139.466)"/><circle class="a" cx="2.266" cy="2.266" r="2.266" transform="translate(306.64 29.662)"/><path class="a" d="M391.205,182.979a2.266,2.266,0,1,0-2.266,2.266A2.265,2.265,0,0,0,391.205,182.979Z" transform="translate(-140.753 -180.712)"/><path class="a" d="M403.064,182.979a2.266,2.266,0,1,0-2.266,2.266A2.265,2.265,0,0,0,403.064,182.979Z" transform="translate(-122.252 -180.712)"/><circle class="a" cx="2.266" cy="2.266" r="2.266" transform="translate(306.64)"/></g><path class="b" d="M1657.5,705.96a2.908,2.908,0,0,1,5.816,0v13.082a2.908,2.908,0,1,1-5.816,0V705.96Zm-19.833,10.624a2.909,2.909,0,1,1,4.113-4.116l9.255,9.253a2.91,2.91,0,0,1-4.113,4.117l-9.255-9.254Zm-6.51,21.537a2.911,2.911,0,1,1,0-5.823h13.086a2.912,2.912,0,0,1,0,5.823Zm10.623,19.835a2.909,2.909,0,0,1-4.113-4.116l9.255-9.254a2.909,2.909,0,0,1,4.113,4.116l-9.255,9.254Zm21.536,6.508a2.908,2.908,0,0,1-5.816,0V751.372a2.908,2.908,0,0,1,5.816,0v13.092Zm19.833-10.624a2.91,2.91,0,0,1-4.116,4.116l-9.255-9.254a2.91,2.91,0,0,1,4.116-4.116l9.255,9.254Zm6.509-21.542a2.911,2.911,0,1,1,0,5.823h-13.086a2.911,2.911,0,0,1,0-5.823Zm-10.625-19.83a2.91,2.91,0,0,1,4.116,4.116l-9.255,9.254a2.911,2.911,0,0,1-4.116-4.117Z" transform="translate(-22.241 -108.649)"/><path class="b" d="M1657.5,705.96a2.908,2.908,0,0,1,5.816,0v13.082a2.908,2.908,0,1,1-5.816,0V705.96Zm-19.833,10.624a2.909,2.909,0,1,1,4.113-4.116l9.255,9.253a2.91,2.91,0,0,1-4.113,4.117l-9.255-9.254Zm-6.51,21.537a2.911,2.911,0,1,1,0-5.823h13.086a2.912,2.912,0,0,1,0,5.823Zm10.623,19.835a2.909,2.909,0,0,1-4.113-4.116l9.255-9.254a2.909,2.909,0,0,1,4.113,4.116l-9.255,9.254Zm21.536,6.508a2.908,2.908,0,0,1-5.816,0V751.372a2.908,2.908,0,0,1,5.816,0v13.092Zm19.833-10.624a2.91,2.91,0,0,1-4.116,4.116l-9.255-9.254a2.91,2.91,0,0,1,4.116-4.116l9.255,9.254Zm6.509-21.542a2.911,2.911,0,1,1,0,5.823h-13.086a2.911,2.911,0,0,1,0-5.823Zm-10.625-19.83a2.91,2.91,0,0,1,4.116,4.116l-9.255,9.254a2.911,2.911,0,0,1-4.116-4.117Z" transform="translate(-1628.241 -703.053)"/></g></g><g transform="translate(0 3907)"><path class="c" d="M1109.078,1244.666h90.6c48.76,0,88.653,53.324,88.653,118.493h0c0,65.172-39.893,118.493-88.653,118.493H433.625c-78.956,0-143.555-86.342-143.555-191.871h0c0-105.533,64.6-191.875,143.553-191.875h0c33.384,0,60.7-36.505,60.7-81.126h0c0-44.621-27.314-81.129-60.7-81.129H360.574c-34.709,0-63.107-37.957-63.107-84.346h0c0-46.392,28.4-84.349,63.107-84.349h92.374c13.511,0,24.569-14.779,24.569-32.838h0c0-18.059-11.058-32.835-24.569-32.835H436.663c-9.325,0-16.954-10.2-16.954-22.664h0c0-12.464,7.629-22.664,16.954-22.664H543.514c22.5,0,25.008,35.533,81.852,35.533h87.751c12.169,0-36.629,13.314-36.629,29.573l21.546-29.573c0,16.262,12.169,29.573,0,29.573L486.88,750.631c-17.633,0,248.959,19.285,248.959,42.847v0c0,23.565,14.426,42.85,32.059,42.85h31.976c86.349,0,98.544,30.161,113.668,90.148s93.669,64.827,93.669,64.827h107.4c26.572,0,48.312,29.057,48.312,64.57v0c0,35.513-21.74,64.57-48.312,64.57h-5.53c-25.556,0-46.468,27.951-46.468,62.11h0c0,34.158,20.912,62.106,46.468,62.106Zm-720-543.384c9.366,0,16.957-10.149,16.957-22.664s-7.591-22.664-16.957-22.664-16.957,10.149-16.957,22.664S379.717,701.282,389.081,701.282Z" transform="translate(326.484 -608.57)"/></g><g transform="translate(-761 3443)"><g transform="translate(616.554 47.384)"><path class="c" d="M683.066,938.443h43.472c23.4,0,42.539,25.587,42.539,56.858h0c0,31.272-19.143,56.858-42.539,56.858H358.954c-37.887,0-68.884-41.43-68.884-92.068h0c0-50.639,31-92.07,68.883-92.07h0c16.019,0,29.125-17.517,29.125-38.928h0c0-21.411-13.107-38.929-29.126-38.929H323.9c-16.655,0-30.282-18.213-30.282-40.473h0c0-22.261,13.627-40.474,30.282-40.474h44.325c6.483,0,11.789-7.092,11.789-15.757h0c0-8.665-5.306-15.756-11.789-15.756h-7.814c-4.475,0-8.135-4.894-8.135-10.875h0c0-5.981,3.661-10.875,8.135-10.875h51.272c10.8,0,12,17.05,39.276,17.05h42.107c5.839,0-17.576,6.389-17.576,14.191L485.829,673c0,7.8,5.839,14.191,0,14.191L384.508,701.384c-8.461,0,119.461,9.254,119.461,20.56h0c0,11.308,6.922,20.561,15.383,20.561H534.7c41.434,0,47.285,14.472,54.543,43.257s44.946,31.107,44.946,31.107h51.534c12.75,0,23.182,13.943,23.182,30.984h0c0,17.041-10.432,30.984-23.182,30.984h-2.653c-12.263,0-22.3,13.412-22.3,29.8h0c0,16.391,10.035,29.8,22.3,29.8ZM337.58,677.7c4.494,0,8.136-4.87,8.136-10.875s-3.642-10.875-8.136-10.875-8.137,4.87-8.137,10.875S333.087,677.7,337.58,677.7Z" transform="translate(-290.07 -655.954)"/></g></g></g></svg>