<svg xmlns="http://www.w3.org/2000/svg" xmlns:xlink="http://www.w3.org/1999/xlink" width="2553.546" height="1526.78" viewBox="0 0 2553.546 1526.78"><defs><style>.a,.b{fill:#e4f3ff;}.b,.f{fill-rule:evenodd;}.c{clip-path:url(#a);}.d{clip-path:url(#b);}.e,.f{fill:#c8e2f6;}.f{opacity:0.35;}</style><clipPath id="a"><rect class="a" width="1920" height="1155" transform="translate(0 -0.2)"/></clipPath><clipPath id="b"><rect class="a" width="899.955" height="318.636"/></clipPath></defs><g transform="translate(569.427 -1864)"><g transform="translate(1 0.2)"><path class="b" d="M435.063,421.966c-18.774,0-34.138,17.818-34.138,39.593h0c0,39.734-28.027,72.246-62.283,72.246H-80.109c-44.5,0-80.911-42.234-80.911-93.851h0c0-51.618,36.411-93.849,80.911-93.849h2.127c8.932,0,16.237-8.479,16.237-18.836h0c0-10.357-7.3-18.835-16.237-18.835h-8.931c-21.709,0-39.472-20.6-39.472-45.784h0c0-25.153,17.722-45.739,39.4-45.784h38.515c18.774,0,34.137-17.819,34.137-39.6h0c0-39.735,28.028-72.246,62.283-72.246H366.227c44.5,0,80.909,42.234,80.909,93.851h0c0,51.616-36.409,93.85-80.909,93.85h0c-8.933,0-16.24,8.479-16.24,18.836h0c0,10.357,7.307,18.831,16.24,18.831h68.836C486.711,330.394,486.714,421.966,435.063,421.966Z" transform="translate(1077.7 2856.775)"/><g transform="translate(-570.427 1864)"><g class="c" transform="translate(570.427)"><path class="a" d="M507.59,219.779c10.717,43.474,79.6,103.171,142.862,112.032,285.346,39.962,267.135,204.058,413.18,370.408,122.35,123.347,281.311,77.806,344.216-68.7C1856.3-162.79,391.344-419.523,507.59,219.779Z" transform="translate(868.498 -296.471)"/><g transform="translate(510 1458.854)"><g class="d" transform="translate(0 0)"><path class="b" d="M374.089,863.812H331.624a41.819,41.819,0,0,0-41.554,41.837h0a41.818,41.818,0,0,0,41.554,41.837H690.692c37.009,0,67.288-30.485,67.288-67.745h0c0-37.261-30.279-67.746-67.287-67.746h0a28.63,28.63,0,0,1-28.45-28.643h0a28.632,28.632,0,0,1,28.451-28.644h34.24a29.768,29.768,0,0,0,29.58-29.78h0a29.768,29.768,0,0,0-29.58-29.781h-43.3a11.59,11.59,0,0,1-11.516-11.594h0a11.589,11.589,0,0,1,11.516-11.593h7.633a8,8,0,0,0,7.947-8h0a8,8,0,0,0-7.947-8H639.184c-10.548,0-11.722,12.546-38.366,12.546H524.05a10.438,10.438,0,0,0-10.371,10.44h0a10.437,10.437,0,0,0,10.371,10.44h9.959a15.123,15.123,0,0,1,15.027,15.128h0a15.123,15.123,0,0,1-15.027,15.129H519.021c-40.474,0-46.19,10.649-53.279,31.829s-43.9,22.889-43.9,22.889H371.5a22.789,22.789,0,0,0-22.645,22.8h0a22.789,22.789,0,0,0,22.645,22.8h2.592a21.92,21.92,0,0,1,21.781,21.929h0a21.92,21.92,0,0,1-21.781,21.928ZM711.571,671.958a8,8,0,1,1,7.948-8A7.975,7.975,0,0,1,711.571,671.958Z" transform="translate(354.517 -630.282)"/><path class="b" d="M-641.36,849.312h-42.465a41.818,41.818,0,0,0-41.554,41.837h0a41.818,41.818,0,0,0,41.554,41.837h359.068c37.009,0,67.288-30.485,67.288-67.745h0c0-37.261-30.279-67.745-67.287-67.745h0a28.632,28.632,0,0,1-28.45-28.644h0a28.632,28.632,0,0,1,28.451-28.645h34.24a29.767,29.767,0,0,0,29.579-29.78h0a29.768,29.768,0,0,0-29.579-29.781h-43.3a11.589,11.589,0,0,1-11.516-11.594h0a11.589,11.589,0,0,1,11.516-11.593h7.633a8,8,0,0,0,7.947-8h0a8,8,0,0,0-7.947-8h-50.084c-10.548,0-11.723,12.546-38.366,12.546H-491.4a10.437,10.437,0,0,0-10.371,10.442h0A10.438,10.438,0,0,0-491.4,674.883h9.959a15.122,15.122,0,0,1,15.027,15.128h0A15.123,15.123,0,0,1-481.44,705.14h-14.988c-40.474,0-46.191,10.649-53.279,31.829s-43.905,22.889-43.905,22.889h-50.34a22.789,22.789,0,0,0-22.645,22.8h0a22.789,22.789,0,0,0,22.645,22.8h2.592a21.92,21.92,0,0,1,21.78,21.929h0a21.919,21.919,0,0,1-21.78,21.928Zm337.482-191.854a7.975,7.975,0,0,1-7.948-8,7.975,7.975,0,0,1,7.948-8,7.977,7.977,0,0,1,7.948,8A7.976,7.976,0,0,1-303.878,657.458Z" transform="translate(354.517 -630.381)"/><path class="b" d="M-99.207,481.279l-41.365-1.416-1.075-.036a41.842,41.842,0,0,1-40.12-43.233h0A41.8,41.8,0,0,1-138.826,396.2l121.243,4.147,20.881.714,216.737,7.413c36.988,1.266,66.222,32.767,64.965,70.006h0c-1.256,37.239-32.546,66.67-69.533,65.406h0a28.614,28.614,0,0,0-29.4,27.655h0a28.649,28.649,0,0,0,27.468,29.6l34.221,1.17a29.785,29.785,0,0,1,28.558,30.775h0a29.752,29.752,0,0,1-30.567,28.752l-43.273-1.48a11.583,11.583,0,0,0-11.9,11.194h0a11.6,11.6,0,0,0,11.118,11.981l7.629.261a8,8,0,0,1,7.672,8.269h0a7.994,7.994,0,0,1-8.212,7.726l-28.59-.979-21.465-.734c-10.542-.36-11.293-12.939-37.921-13.849L44.082,681.6a10.442,10.442,0,0,1-10.013-10.789h0a10.431,10.431,0,0,1,10.717-10.08l9.953.34a15.114,15.114,0,0,0,15.528-14.606h0a15.131,15.131,0,0,0-14.508-15.633l-14.979-.513C.33,628.938-5.025,618.1-11.4,596.689S-54.5,572.314-54.5,572.314l-50.311-1.721a22.8,22.8,0,0,1-21.863-23.56h0a22.777,22.777,0,0,1,23.4-22.012l2.59.089a21.907,21.907,0,0,0,22.508-21.171h0a21.93,21.93,0,0,0-21.029-22.66ZM231.611,684.558a8,8,0,1,0,7.673,8.269A7.972,7.972,0,0,0,231.611,684.558Z" transform="translate(354.517 -632.049)"/></g></g></g><path class="b" d="M850.33,457.3h94.061c50.624,0,92.043,41.421,92.043,92.043h0c0,50.625-41.419,92.043-92.043,92.043H149.045C67.069,641.388,0,574.319,0,492.346H0C0,410.37,67.069,343.3,149.043,343.3h0a63.2,63.2,0,0,0,63.018-63.017h0a63.205,63.205,0,0,0-63.02-63.02H73.2A65.712,65.712,0,0,1,7.68,151.745h0A65.713,65.713,0,0,1,73.2,86.224h95.906a25.585,25.585,0,0,0,25.508-25.508h0A25.584,25.584,0,0,0,169.106,35.21H152.2a17.656,17.656,0,0,1-17.6-17.6h0A17.656,17.656,0,0,1,152.2,0H263.137C286.5,0,289.1,27.6,348.118,27.6H518.162a23.041,23.041,0,0,1,22.972,22.97v0a23.039,23.039,0,0,1-22.972,22.97H496.1a33.384,33.384,0,0,0-33.285,33.283v0A33.384,33.384,0,0,0,496.1,140.114h33.2c89.651,0,102.312,23.428,118.015,70.026S744.566,260.5,744.566,260.5h111.5a50.306,50.306,0,0,1,50.159,50.157v0a50.306,50.306,0,0,1-50.159,50.157H850.33a48.389,48.389,0,0,0-48.245,48.245h0A48.387,48.387,0,0,0,850.33,457.3ZM102.8,35.21a17.605,17.605,0,1,0-17.605-17.6A17.605,17.605,0,0,0,102.8,35.21Z" transform="translate(0 154.355)"/></g></g><g transform="translate(-18 18)"><g transform="translate(66.887 1955.534)"><path class="e" d="M295.151,124.732a2.266,2.266,0,1,1-2.266-2.268A2.267,2.267,0,0,1,295.151,124.732Z" transform="translate(-290.619 -122.464)"/><path class="e" d="M307.009,124.732a2.266,2.266,0,1,1-2.266-2.268A2.267,2.267,0,0,1,307.009,124.732Z" transform="translate(-272.118 -122.464)"/><circle class="e" cx="2.266" cy="2.266" r="2.266" transform="translate(60.72 0.001)"/><path class="e" d="M330.725,124.732a2.266,2.266,0,1,1-2.266-2.268A2.267,2.267,0,0,1,330.725,124.732Z" transform="translate(-235.114 -122.464)"/><path class="e" d="M295.151,136.316a2.266,2.266,0,1,1-2.266-2.266A2.265,2.265,0,0,1,295.151,136.316Z" transform="translate(-290.619 -104.387)"/><path class="e" d="M307.009,136.316a2.266,2.266,0,1,1-2.266-2.266A2.265,2.265,0,0,1,307.009,136.316Z" transform="translate(-272.118 -104.387)"/><path class="e" d="M318.868,136.316a2.266,2.266,0,1,1-2.266-2.266A2.265,2.265,0,0,1,318.868,136.316Z" transform="translate(-253.615 -104.387)"/><path class="e" d="M330.725,136.316a2.266,2.266,0,1,1-2.266-2.266A2.265,2.265,0,0,1,330.725,136.316Z" transform="translate(-235.114 -104.387)"/><path class="e" d="M295.151,147.9a2.266,2.266,0,1,1-2.266-2.266A2.265,2.265,0,0,1,295.151,147.9Z" transform="translate(-290.619 -86.311)"/><path class="e" d="M307.009,147.9a2.266,2.266,0,1,1-2.266-2.266A2.265,2.265,0,0,1,307.009,147.9Z" transform="translate(-272.118 -86.311)"/><circle class="e" cx="2.266" cy="2.266" r="2.266" transform="translate(60.72 59.326)"/><path class="e" d="M330.725,147.9a2.266,2.266,0,1,1-2.266-2.266A2.265,2.265,0,0,1,330.725,147.9Z" transform="translate(-235.114 -86.311)"/><path class="e" d="M295.151,159.808a2.266,2.266,0,1,1-2.266-2.266A2.267,2.267,0,0,1,295.151,159.808Z" transform="translate(-290.619 -67.735)"/><path class="e" d="M307.009,159.808a2.266,2.266,0,1,1-2.266-2.266A2.267,2.267,0,0,1,307.009,159.808Z" transform="translate(-272.118 -67.735)"/><circle class="e" cx="2.266" cy="2.266" r="2.266" transform="translate(60.72 89.806)"/><path class="e" d="M330.725,159.808a2.266,2.266,0,1,1-2.266-2.266A2.267,2.267,0,0,1,330.725,159.808Z" transform="translate(-235.114 -67.735)"/><path class="e" d="M295.151,171.393a2.266,2.266,0,1,1-2.266-2.266A2.267,2.267,0,0,1,295.151,171.393Z" transform="translate(-290.619 -49.66)"/><path class="e" d="M307.009,171.393a2.266,2.266,0,1,1-2.266-2.266A2.267,2.267,0,0,1,307.009,171.393Z" transform="translate(-272.118 -49.66)"/><circle class="e" cx="2.266" cy="2.266" r="2.266" transform="translate(60.72 119.468)"/><path class="e" d="M330.725,171.393a2.266,2.266,0,1,1-2.266-2.266A2.267,2.267,0,0,1,330.725,171.393Z" transform="translate(-235.114 -49.66)"/><path class="e" d="M295.151,182.979a2.266,2.266,0,1,1-2.266-2.266A2.265,2.265,0,0,1,295.151,182.979Z" transform="translate(-290.619 -31.583)"/><path class="e" d="M307.009,182.979a2.266,2.266,0,1,1-2.266-2.266A2.265,2.265,0,0,1,307.009,182.979Z" transform="translate(-272.118 -31.583)"/><circle class="e" cx="2.266" cy="2.266" r="2.266" transform="translate(60.72 149.13)"/><path class="e" d="M330.725,182.979a2.266,2.266,0,1,1-2.266-2.266A2.265,2.265,0,0,1,330.725,182.979Z" transform="translate(-235.114 -31.583)"/><circle class="e" cx="2.266" cy="2.266" r="2.266" transform="translate(122.96 0.001)"/><circle class="e" cx="2.266" cy="2.266" r="2.266" transform="translate(153.32 0.001)"/><path class="e" d="M366.895,124.732a2.266,2.266,0,1,1-2.266-2.268A2.267,2.267,0,0,1,366.895,124.732Z" transform="translate(-178.683 -122.464)"/><path class="e" d="M378.755,124.732a2.267,2.267,0,1,1-2.268-2.268A2.269,2.269,0,0,1,378.755,124.732Z" transform="translate(-160.182 -122.464)"/><path class="e" d="M343.177,136.316a2.266,2.266,0,1,1-2.266-2.266A2.265,2.265,0,0,1,343.177,136.316Z" transform="translate(-215.687 -104.387)"/><path class="e" d="M355.037,136.316a2.266,2.266,0,1,1-2.266-2.266A2.265,2.265,0,0,1,355.037,136.316Z" transform="translate(-197.184 -104.387)"/><path class="e" d="M366.895,136.316a2.266,2.266,0,1,1-2.266-2.266A2.265,2.265,0,0,1,366.895,136.316Z" transform="translate(-178.683 -104.387)"/><path class="e" d="M378.755,136.316a2.267,2.267,0,1,1-2.268-2.266A2.267,2.267,0,0,1,378.755,136.316Z" transform="translate(-160.182 -104.387)"/><circle class="e" cx="2.266" cy="2.266" r="2.266" transform="translate(122.96 59.326)"/><circle class="e" cx="2.266" cy="2.266" r="2.266" transform="translate(153.32 59.326)"/><path class="e" d="M366.895,147.9a2.266,2.266,0,1,1-2.266-2.266A2.265,2.265,0,0,1,366.895,147.9Z" transform="translate(-178.683 -86.311)"/><path class="e" d="M378.755,147.9a2.267,2.267,0,1,1-2.268-2.266A2.267,2.267,0,0,1,378.755,147.9Z" transform="translate(-160.182 -86.311)"/><circle class="e" cx="2.266" cy="2.266" r="2.266" transform="translate(122.96 89.806)"/><circle class="e" cx="2.266" cy="2.266" r="2.266" transform="translate(153.32 89.806)"/><path class="e" d="M366.895,159.808a2.266,2.266,0,1,1-2.266-2.266A2.267,2.267,0,0,1,366.895,159.808Z" transform="translate(-178.683 -67.735)"/><path class="e" d="M378.755,159.808a2.267,2.267,0,1,1-2.268-2.266A2.269,2.269,0,0,1,378.755,159.808Z" transform="translate(-160.182 -67.735)"/><circle class="e" cx="2.266" cy="2.266" r="2.266" transform="translate(122.96 119.468)"/><circle class="e" cx="2.266" cy="2.266" r="2.266" transform="translate(153.32 119.468)"/><path class="e" d="M366.895,171.393a2.266,2.266,0,1,1-2.266-2.266A2.267,2.267,0,0,1,366.895,171.393Z" transform="translate(-178.683 -49.66)"/><path class="e" d="M378.755,171.393a2.267,2.267,0,1,1-2.268-2.266A2.269,2.269,0,0,1,378.755,171.393Z" transform="translate(-160.182 -49.66)"/><circle class="e" cx="2.266" cy="2.266" r="2.266" transform="translate(122.96 149.13)"/><circle class="e" cx="2.266" cy="2.266" r="2.266" transform="translate(153.32 149.13)"/><path class="e" d="M366.895,182.979a2.266,2.266,0,1,1-2.266-2.266A2.265,2.265,0,0,1,366.895,182.979Z" transform="translate(-178.683 -31.583)"/><path class="e" d="M378.755,182.979a2.267,2.267,0,1,1-2.268-2.266A2.267,2.267,0,0,1,378.755,182.979Z" transform="translate(-160.182 -31.583)"/><path class="e" d="M391.205,124.732a2.266,2.266,0,1,1-2.266-2.268A2.267,2.267,0,0,1,391.205,124.732Z" transform="translate(-140.753 -122.464)"/><path class="e" d="M403.064,124.732a2.266,2.266,0,1,1-2.266-2.268A2.267,2.267,0,0,1,403.064,124.732Z" transform="translate(-122.252 -122.464)"/><circle class="e" cx="2.266" cy="2.266" r="2.266" transform="translate(306.64 0.001)"/><path class="e" d="M391.205,136.316a2.266,2.266,0,1,1-2.266-2.266A2.265,2.265,0,0,1,391.205,136.316Z" transform="translate(-140.753 -104.387)"/><path class="e" d="M403.064,136.316a2.266,2.266,0,1,1-2.266-2.266A2.265,2.265,0,0,1,403.064,136.316Z" transform="translate(-122.252 -104.387)"/><path class="e" d="M414.924,136.316a2.267,2.267,0,1,1-2.268-2.266A2.267,2.267,0,0,1,414.924,136.316Z" transform="translate(-103.751 -104.387)"/><path class="e" d="M391.205,147.9a2.266,2.266,0,1,1-2.266-2.266A2.265,2.265,0,0,1,391.205,147.9Z" transform="translate(-140.753 -86.311)"/><path class="e" d="M403.064,147.9a2.266,2.266,0,1,1-2.266-2.266A2.265,2.265,0,0,1,403.064,147.9Z" transform="translate(-122.252 -86.311)"/><circle class="e" cx="2.266" cy="2.266" r="2.266" transform="translate(306.64 59.326)"/><path class="e" d="M391.205,159.808a2.266,2.266,0,1,1-2.266-2.266A2.267,2.267,0,0,1,391.205,159.808Z" transform="translate(-140.753 -67.735)"/><path class="e" d="M403.064,159.808a2.266,2.266,0,1,1-2.266-2.266A2.267,2.267,0,0,1,403.064,159.808Z" transform="translate(-122.252 -67.735)"/><circle class="e" cx="2.266" cy="2.266" r="2.266" transform="translate(306.64 89.806)"/><path class="e" d="M391.205,171.393a2.266,2.266,0,1,1-2.266-2.266A2.267,2.267,0,0,1,391.205,171.393Z" transform="translate(-140.753 -49.66)"/><path class="e" d="M403.064,171.393a2.266,2.266,0,1,1-2.266-2.266A2.267,2.267,0,0,1,403.064,171.393Z" transform="translate(-122.252 -49.66)"/><circle class="e" cx="2.266" cy="2.266" r="2.266" transform="translate(306.64 119.468)"/><path class="e" d="M391.205,182.979a2.266,2.266,0,1,1-2.266-2.266A2.265,2.265,0,0,1,391.205,182.979Z" transform="translate(-140.753 -31.583)"/><path class="e" d="M403.064,182.979a2.266,2.266,0,1,1-2.266-2.266A2.265,2.265,0,0,1,403.064,182.979Z" transform="translate(-122.252 -31.583)"/><circle class="e" cx="2.266" cy="2.266" r="2.266" transform="translate(306.64 149.13)"/></g><g transform="translate(1556.93 2454.33)"><path class="e" d="M558.818,377.364a2.266,2.266,0,1,1-2.266-2.266A2.268,2.268,0,0,1,558.818,377.364Z" transform="translate(-554.286 -375.097)"/><circle class="e" cx="2.266" cy="2.266" r="2.266" transform="translate(30.358)"/><circle class="e" cx="2.266" cy="2.266" r="2.266" transform="translate(60.718)"/><circle class="e" cx="2.266" cy="2.266" r="2.266" transform="translate(91.079)"/><path class="e" d="M558.818,388.949a2.266,2.266,0,1,1-2.266-2.266A2.269,2.269,0,0,1,558.818,388.949Z" transform="translate(-554.286 -357.022)"/><circle class="e" cx="2.266" cy="2.266" r="2.266" transform="translate(30.358 29.662)"/><circle class="e" cx="2.266" cy="2.266" r="2.266" transform="translate(60.718 29.662)"/><circle class="e" cx="2.266" cy="2.266" r="2.266" transform="translate(91.079 29.662)"/><path class="e" d="M558.818,400.535a2.266,2.266,0,1,1-2.266-2.266A2.269,2.269,0,0,1,558.818,400.535Z" transform="translate(-554.286 -338.945)"/><circle class="e" cx="2.266" cy="2.266" r="2.266" transform="translate(30.358 59.324)"/><circle class="e" cx="2.266" cy="2.266" r="2.266" transform="translate(60.718 59.324)"/><circle class="e" cx="2.266" cy="2.266" r="2.266" transform="translate(91.079 59.324)"/><path class="e" d="M558.818,412.441a2.266,2.266,0,1,1-2.266-2.266A2.267,2.267,0,0,1,558.818,412.441Z" transform="translate(-554.286 -320.369)"/><circle class="e" cx="2.266" cy="2.266" r="2.266" transform="translate(30.358 89.805)"/><circle class="e" cx="2.266" cy="2.266" r="2.266" transform="translate(60.718 89.805)"/><circle class="e" cx="2.266" cy="2.266" r="2.266" transform="translate(91.079 89.805)"/><path class="e" d="M558.818,424.027a2.266,2.266,0,1,1-2.266-2.266A2.268,2.268,0,0,1,558.818,424.027Z" transform="translate(-554.286 -302.293)"/><circle class="e" cx="2.266" cy="2.266" r="2.266" transform="translate(30.358 119.467)"/><circle class="e" cx="2.266" cy="2.266" r="2.266" transform="translate(60.718 119.467)"/><circle class="e" cx="2.266" cy="2.266" r="2.266" transform="translate(91.079 119.467)"/><path class="e" d="M558.818,435.612a2.266,2.266,0,1,1-2.266-2.266A2.269,2.269,0,0,1,558.818,435.612Z" transform="translate(-554.286 -284.218)"/><circle class="e" cx="2.266" cy="2.266" r="2.266" transform="translate(30.358 149.129)"/><circle class="e" cx="2.266" cy="2.266" r="2.266" transform="translate(60.718 149.129)"/><circle class="e" cx="2.266" cy="2.266" r="2.266" transform="translate(91.079 149.129)"/><circle class="e" cx="2.266" cy="2.266" r="2.266" transform="translate(122.959)"/><path class="e" d="M618.7,377.364a2.266,2.266,0,1,1-2.266-2.266A2.267,2.267,0,0,1,618.7,377.364Z" transform="translate(-460.853 -375.097)"/><circle class="e" cx="2.266" cy="2.266" r="2.266" transform="translate(183.679)"/><circle class="e" cx="2.266" cy="2.266" r="2.266" transform="translate(214.039)"/><circle class="e" cx="2.266" cy="2.266" r="2.266" transform="translate(122.959 29.662)"/><path class="e" d="M618.7,388.949a2.266,2.266,0,1,1-2.266-2.266A2.267,2.267,0,0,1,618.7,388.949Z" transform="translate(-460.853 -357.022)"/><circle class="e" cx="2.266" cy="2.266" r="2.266" transform="translate(183.679 29.662)"/><circle class="e" cx="2.266" cy="2.266" r="2.266" transform="translate(214.039 29.662)"/><circle class="e" cx="2.266" cy="2.266" r="2.266" transform="translate(122.959 59.324)"/><path class="e" d="M618.7,400.535a2.266,2.266,0,1,1-2.266-2.266A2.267,2.267,0,0,1,618.7,400.535Z" transform="translate(-460.853 -338.945)"/><circle class="e" cx="2.266" cy="2.266" r="2.266" transform="translate(183.679 59.324)"/><circle class="e" cx="2.266" cy="2.266" r="2.266" transform="translate(214.039 59.324)"/><circle class="e" cx="2.266" cy="2.266" r="2.266" transform="translate(122.959 89.805)"/><path class="e" d="M618.7,412.441a2.266,2.266,0,1,1-2.266-2.266A2.265,2.265,0,0,1,618.7,412.441Z" transform="translate(-460.853 -320.369)"/><circle class="e" cx="2.266" cy="2.266" r="2.266" transform="translate(183.679 89.805)"/><circle class="e" cx="2.266" cy="2.266" r="2.266" transform="translate(214.039 89.805)"/><circle class="e" cx="2.266" cy="2.266" r="2.266" transform="translate(122.959 119.467)"/><path class="e" d="M618.7,424.027a2.266,2.266,0,1,1-2.266-2.266A2.267,2.267,0,0,1,618.7,424.027Z" transform="translate(-460.853 -302.293)"/><circle class="e" cx="2.266" cy="2.266" r="2.266" transform="translate(183.679 119.467)"/><circle class="e" cx="2.266" cy="2.266" r="2.266" transform="translate(214.039 119.467)"/><circle class="e" cx="2.266" cy="2.266" r="2.266" transform="translate(122.959 149.129)"/><path class="e" d="M618.7,435.612a2.266,2.266,0,1,1-2.266-2.266A2.267,2.267,0,0,1,618.7,435.612Z" transform="translate(-460.853 -284.218)"/><circle class="e" cx="2.266" cy="2.266" r="2.266" transform="translate(183.679 149.129)"/><circle class="e" cx="2.266" cy="2.266" r="2.266" transform="translate(214.039 149.129)"/><circle class="e" cx="2.266" cy="2.266" r="2.266" transform="translate(245.919)"/><circle class="e" cx="2.266" cy="2.266" r="2.266" transform="translate(276.279)"/><circle class="e" cx="2.266" cy="2.266" r="2.266" transform="translate(306.639)"/><circle class="e" cx="2.266" cy="2.266" r="2.266" transform="translate(245.919 29.662)"/><circle class="e" cx="2.266" cy="2.266" r="2.266" transform="translate(276.279 29.662)"/><circle class="e" cx="2.266" cy="2.266" r="2.266" transform="translate(306.639 29.662)"/><circle class="e" cx="2.266" cy="2.266" r="2.266" transform="translate(245.919 59.324)"/><circle class="e" cx="2.266" cy="2.266" r="2.266" transform="translate(276.279 59.324)"/><circle class="e" cx="2.266" cy="2.266" r="2.266" transform="translate(306.639 59.324)"/><circle class="e" cx="2.266" cy="2.266" r="2.266" transform="translate(245.919 89.805)"/><circle class="e" cx="2.266" cy="2.266" r="2.266" transform="translate(276.279 89.805)"/><circle class="e" cx="2.266" cy="2.266" r="2.266" transform="translate(306.639 89.805)"/><circle class="e" cx="2.266" cy="2.266" r="2.266" transform="translate(245.919 119.467)"/><circle class="e" cx="2.266" cy="2.266" r="2.266" transform="translate(276.279 119.467)"/><circle class="e" cx="2.266" cy="2.266" r="2.266" transform="translate(306.639 119.467)"/><circle class="e" cx="2.266" cy="2.266" r="2.266" transform="translate(245.919 149.129)"/><circle class="e" cx="2.266" cy="2.266" r="2.266" transform="translate(276.279 149.129)"/><circle class="e" cx="2.266" cy="2.266" r="2.266" transform="translate(306.639 149.129)"/></g><g transform="translate(40.87 2682.905)"><path class="e" d="M559.066,377.488a2.39,2.39,0,1,1-2.39-2.39A2.393,2.393,0,0,1,559.066,377.488Z" transform="translate(-554.286 -375.097)"/><circle class="e" cx="2.39" cy="2.39" r="2.39" transform="translate(32.023)"/><circle class="e" cx="2.39" cy="2.39" r="2.39" transform="translate(64.047)"/><circle class="e" cx="2.39" cy="2.39" r="2.39" transform="translate(96.072)"/><path class="e" d="M559.066,389.073a2.39,2.39,0,1,1-2.39-2.39A2.393,2.393,0,0,1,559.066,389.073Z" transform="translate(-554.286 -355.396)"/><circle class="e" cx="2.39" cy="2.39" r="2.39" transform="translate(32.023 31.288)"/><circle class="e" cx="2.39" cy="2.39" r="2.39" transform="translate(64.047 31.288)"/><circle class="e" cx="2.39" cy="2.39" r="2.39" transform="translate(96.072 31.288)"/><path class="e" d="M559.066,400.659a2.39,2.39,0,1,1-2.39-2.39A2.393,2.393,0,0,1,559.066,400.659Z" transform="translate(-554.286 -335.693)"/><circle class="e" cx="2.39" cy="2.39" r="2.39" transform="translate(32.023 62.577)"/><circle class="e" cx="2.39" cy="2.39" r="2.39" transform="translate(64.047 62.577)"/><circle class="e" cx="2.39" cy="2.39" r="2.39" transform="translate(96.072 62.577)"/><path class="e" d="M559.066,412.565a2.39,2.39,0,1,1-2.39-2.39A2.391,2.391,0,0,1,559.066,412.565Z" transform="translate(-554.286 -315.446)"/><circle class="e" cx="2.39" cy="2.39" r="2.39" transform="translate(32.023 94.728)"/><circle class="e" cx="2.39" cy="2.39" r="2.39" transform="translate(64.047 94.728)"/><circle class="e" cx="2.39" cy="2.39" r="2.39" transform="translate(96.072 94.728)"/><path class="e" d="M559.066,424.151a2.39,2.39,0,1,1-2.39-2.39A2.393,2.393,0,0,1,559.066,424.151Z" transform="translate(-554.286 -295.743)"/><circle class="e" cx="2.39" cy="2.39" r="2.39" transform="translate(32.023 126.017)"/><circle class="e" cx="2.39" cy="2.39" r="2.39" transform="translate(64.047 126.017)"/><circle class="e" cx="2.39" cy="2.39" r="2.39" transform="translate(96.072 126.017)"/><path class="e" d="M559.066,435.736a2.39,2.39,0,1,1-2.39-2.39A2.393,2.393,0,0,1,559.066,435.736Z" transform="translate(-554.286 -276.042)"/><circle class="e" cx="2.39" cy="2.39" r="2.39" transform="translate(32.023 157.305)"/><circle class="e" cx="2.39" cy="2.39" r="2.39" transform="translate(64.047 157.305)"/><circle class="e" cx="2.39" cy="2.39" r="2.39" transform="translate(96.072 157.305)"/><circle class="e" cx="2.39" cy="2.39" r="2.39" transform="translate(129.7)"/><path class="e" d="M618.951,377.488a2.39,2.39,0,1,1-2.39-2.39A2.391,2.391,0,0,1,618.951,377.488Z" transform="translate(-452.447 -375.097)"/><circle class="e" cx="2.39" cy="2.39" r="2.39" transform="translate(193.749)"/><circle class="e" cx="2.39" cy="2.39" r="2.39" transform="translate(225.773)"/><circle class="e" cx="2.39" cy="2.39" r="2.39" transform="translate(129.7 31.288)"/><path class="e" d="M618.951,389.073a2.39,2.39,0,1,1-2.39-2.39A2.391,2.391,0,0,1,618.951,389.073Z" transform="translate(-452.447 -355.396)"/><circle class="e" cx="2.39" cy="2.39" r="2.39" transform="translate(193.749 31.288)"/><circle class="e" cx="2.39" cy="2.39" r="2.39" transform="translate(225.773 31.288)"/><circle class="e" cx="2.39" cy="2.39" r="2.39" transform="translate(129.7 62.577)"/><path class="e" d="M618.951,400.659a2.39,2.39,0,1,1-2.39-2.39A2.391,2.391,0,0,1,618.951,400.659Z" transform="translate(-452.447 -335.693)"/><circle class="e" cx="2.39" cy="2.39" r="2.39" transform="translate(193.749 62.577)"/><circle class="e" cx="2.39" cy="2.39" r="2.39" transform="translate(225.773 62.577)"/><circle class="e" cx="2.39" cy="2.39" r="2.39" transform="translate(129.7 94.728)"/><path class="e" d="M618.951,412.565a2.39,2.39,0,1,1-2.39-2.39A2.389,2.389,0,0,1,618.951,412.565Z" transform="translate(-452.447 -315.446)"/><circle class="e" cx="2.39" cy="2.39" r="2.39" transform="translate(193.749 94.728)"/><circle class="e" cx="2.39" cy="2.39" r="2.39" transform="translate(225.773 94.728)"/><circle class="e" cx="2.39" cy="2.39" r="2.39" transform="translate(129.7 126.017)"/><path class="e" d="M618.951,424.151a2.39,2.39,0,1,1-2.39-2.39A2.391,2.391,0,0,1,618.951,424.151Z" transform="translate(-452.447 -295.743)"/><circle class="e" cx="2.39" cy="2.39" r="2.39" transform="translate(193.749 126.017)"/><circle class="e" cx="2.39" cy="2.39" r="2.39" transform="translate(225.773 126.017)"/><circle class="e" cx="2.39" cy="2.39" r="2.39" transform="translate(129.7 157.305)"/><path class="e" d="M618.951,435.736a2.39,2.39,0,1,1-2.39-2.39A2.391,2.391,0,0,1,618.951,435.736Z" transform="translate(-452.447 -276.042)"/><circle class="e" cx="2.39" cy="2.39" r="2.39" transform="translate(193.749 157.305)"/><circle class="e" cx="2.39" cy="2.39" r="2.39" transform="translate(225.773 157.305)"/><circle class="e" cx="2.39" cy="2.39" r="2.39" transform="translate(259.401)"/><circle class="e" cx="2.39" cy="2.39" r="2.39" transform="translate(291.426)"/><circle class="e" cx="2.39" cy="2.39" r="2.39" transform="translate(323.451)"/><circle class="e" cx="2.39" cy="2.39" r="2.39" transform="translate(259.401 31.288)"/><circle class="e" cx="2.39" cy="2.39" r="2.39" transform="translate(291.426 31.288)"/><circle class="e" cx="2.39" cy="2.39" r="2.39" transform="translate(323.451 31.288)"/><circle class="e" cx="2.39" cy="2.39" r="2.39" transform="translate(259.401 62.577)"/><circle class="e" cx="2.39" cy="2.39" r="2.39" transform="translate(291.426 62.577)"/><circle class="e" cx="2.39" cy="2.39" r="2.39" transform="translate(323.451 62.577)"/><circle class="e" cx="2.39" cy="2.39" r="2.39" transform="translate(259.401 94.728)"/><circle class="e" cx="2.39" cy="2.39" r="2.39" transform="translate(291.426 94.728)"/><circle class="e" cx="2.39" cy="2.39" r="2.39" transform="translate(323.451 94.728)"/><circle class="e" cx="2.39" cy="2.39" r="2.39" transform="translate(259.401 126.017)"/><circle class="e" cx="2.39" cy="2.39" r="2.39" transform="translate(291.426 126.017)"/><circle class="e" cx="2.39" cy="2.39" r="2.39" transform="translate(323.451 126.017)"/><circle class="e" cx="2.39" cy="2.39" r="2.39" transform="translate(259.401 157.305)"/><circle class="e" cx="2.39" cy="2.39" r="2.39" transform="translate(291.426 157.305)"/><circle class="e" cx="2.39" cy="2.39" r="2.39" transform="translate(323.451 157.305)"/></g><path class="f" d="M494.773,511.318a2.908,2.908,0,1,1,5.816,0V524.4a2.908,2.908,0,1,1-5.816,0V511.318ZM474.94,521.943a2.91,2.91,0,1,1,4.113-4.117l9.254,9.254a2.909,2.909,0,0,1-4.113,4.116l-9.254-9.253Zm-6.51,21.539a2.911,2.911,0,1,1,0-5.823h13.086a2.912,2.912,0,0,1,0,5.823Zm10.623,19.832a2.909,2.909,0,1,1-4.113-4.116l9.254-9.254a2.909,2.909,0,0,1,4.113,4.114l-9.254,9.256Zm21.536,6.508a2.908,2.908,0,0,1-5.816,0V556.731a2.908,2.908,0,1,1,5.816,0v13.091ZM520.422,559.2a2.91,2.91,0,1,1-4.116,4.116l-9.255-9.256a2.91,2.91,0,0,1,4.116-4.114l9.255,9.254Zm6.51-21.539a2.911,2.911,0,0,1,0,5.823H513.844a2.911,2.911,0,0,1,0-5.823Zm-10.626-19.833a2.911,2.911,0,0,1,4.116,4.117l-9.255,9.253a2.91,2.91,0,0,1-4.116-4.116Z" transform="translate(1077.277 1473.498)"/><path class="f" d="M494.773,511.318a2.908,2.908,0,1,1,5.816,0V524.4a2.908,2.908,0,1,1-5.816,0V511.318ZM474.94,521.943a2.91,2.91,0,1,1,4.113-4.117l9.254,9.254a2.909,2.909,0,0,1-4.113,4.116l-9.254-9.253Zm-6.51,21.539a2.911,2.911,0,1,1,0-5.823h13.086a2.912,2.912,0,0,1,0,5.823Zm10.623,19.832a2.909,2.909,0,1,1-4.113-4.116l9.254-9.254a2.909,2.909,0,0,1,4.113,4.114l-9.254,9.256Zm21.536,6.508a2.908,2.908,0,0,1-5.816,0V556.731a2.908,2.908,0,1,1,5.816,0v13.091ZM520.422,559.2a2.91,2.91,0,1,1-4.116,4.116l-9.255-9.256a2.91,2.91,0,0,1,4.116-4.114l9.255,9.254Zm6.51-21.539a2.911,2.911,0,0,1,0,5.823H513.844a2.911,2.911,0,0,1,0-5.823Zm-10.626-19.833a2.911,2.911,0,0,1,4.116,4.117l-9.255,9.253a2.91,2.91,0,0,1-4.116-4.116Z" transform="translate(241.277 1958.498)"/><path class="f" d="M494.773,511.318a2.908,2.908,0,1,1,5.816,0V524.4a2.908,2.908,0,1,1-5.816,0V511.318ZM474.94,521.943a2.91,2.91,0,1,1,4.113-4.117l9.254,9.254a2.909,2.909,0,0,1-4.113,4.116l-9.254-9.253Zm-6.51,21.539a2.911,2.911,0,1,1,0-5.823h13.086a2.912,2.912,0,0,1,0,5.823Zm10.623,19.832a2.909,2.909,0,1,1-4.113-4.116l9.254-9.254a2.909,2.909,0,0,1,4.113,4.114l-9.254,9.256Zm21.536,6.508a2.908,2.908,0,0,1-5.816,0V556.731a2.908,2.908,0,1,1,5.816,0v13.091ZM520.422,559.2a2.91,2.91,0,1,1-4.116,4.116l-9.255-9.256a2.91,2.91,0,0,1,4.116-4.114l9.255,9.254Zm6.51-21.539a2.911,2.911,0,0,1,0,5.823H513.844a2.911,2.911,0,0,1,0-5.823Zm-10.626-19.833a2.911,2.911,0,0,1,4.116,4.117l-9.255,9.253a2.91,2.91,0,0,1-4.116-4.116Z" transform="translate(-274.723 2400.498)"/><path class="f" d="M494.773,511.318a2.908,2.908,0,1,1,5.816,0V524.4a2.908,2.908,0,1,1-5.816,0V511.318ZM474.94,521.943a2.91,2.91,0,1,1,4.113-4.117l9.254,9.254a2.909,2.909,0,0,1-4.113,4.116l-9.254-9.253Zm-6.51,21.539a2.911,2.911,0,1,1,0-5.823h13.086a2.912,2.912,0,0,1,0,5.823Zm10.623,19.832a2.909,2.909,0,1,1-4.113-4.116l9.254-9.254a2.909,2.909,0,0,1,4.113,4.114l-9.254,9.256Zm21.536,6.508a2.908,2.908,0,0,1-5.816,0V556.731a2.908,2.908,0,1,1,5.816,0v13.091ZM520.422,559.2a2.91,2.91,0,1,1-4.116,4.116l-9.255-9.256a2.91,2.91,0,0,1,4.116-4.114l9.255,9.254Zm6.51-21.539a2.911,2.911,0,0,1,0,5.823H513.844a2.911,2.911,0,0,1,0-5.823Zm-10.626-19.833a2.911,2.911,0,0,1,4.116,4.117l-9.255,9.253a2.91,2.91,0,0,1-4.116-4.116Z" transform="translate(1472.277 1864.498)"/></g></g></svg>