<svg xmlns="http://www.w3.org/2000/svg" width="418.574" height="429.336" viewBox="0 0 418.574 429.336"><defs><style>.a{fill:#a7a4b4;}.a,.b,.c,.d,.e,.f,.g,.h{fill-rule:evenodd;}.b{fill:#95919e;}.c{fill:#fff;}.d{fill:#efedef;}.e{fill:#d1cdd6;}.f,.i{fill:#333;}.g{fill:#0376bc;}</style></defs><g transform="translate(-1394.467 -557.388)"><g transform="translate(1394.467 831.4)"><path class="a" d="M1764.842,1077.837H1533.489a7.928,7.928,0,0,1-7.787-7.348h0a6.858,6.858,0,0,1,6.906-7.346h231.354a7.927,7.927,0,0,1,7.787,7.346h0A6.86,6.86,0,0,1,1764.842,1077.837Z" transform="translate(-1525.689 -924.058)"/><path class="b" d="M1764.735,1077.226H1533.382a7.889,7.889,0,0,1-6.437-3.464,6.861,6.861,0,0,1,6.022-3.463h231.352a7.894,7.894,0,0,1,6.436,3.463A6.855,6.855,0,0,1,1764.735,1077.226Z" transform="translate(-1525.582 -923.448)"/><path class="b" d="M1765.746,1074.083H1580.7a8.94,8.94,0,0,1-9-9.613l7.575-119.858a10.415,10.415,0,0,1,10.22-9.612h185.043a8.939,8.939,0,0,1,9,9.612l-7.574,119.858A10.416,10.416,0,0,1,1765.746,1074.083Z" transform="translate(-1521.762 -935)"/><path class="c" d="M1765.318,1074.083H1585.732a8.941,8.941,0,0,1-9-9.613l7.575-119.858a10.415,10.415,0,0,1,10.22-9.612h179.586a8.939,8.939,0,0,1,9,9.612l-7.574,119.858A10.416,10.416,0,0,1,1765.318,1074.083Z" transform="translate(-1521.333 -935)"/><path class="d" d="M1754.969,1074.083h-18.48L1583.3,951.641l.444-7.029a10.118,10.118,0,0,1,2.194-5.632l169.036,135.1ZM1606.683,935,1773.8,1068.565a9.993,9.993,0,0,0,1.18-4.1l1.178-18.638L1637.483,935Z" transform="translate(-1520.77 -935)"/><path class="c" d="M1575.534,1077.837H1533.49a7.929,7.929,0,0,1-7.788-7.348h0a6.858,6.858,0,0,1,6.906-7.346h42.047a7.927,7.927,0,0,1,7.787,7.346h0A6.861,6.861,0,0,1,1575.534,1077.837Z" transform="translate(-1525.689 -924.058)"/><path class="e" d="M1764.255,1067.1H1571.742a3.964,3.964,0,0,1-3.893-3.673h0a3.43,3.43,0,0,1,3.453-3.675h192.515a3.964,3.964,0,0,1,3.893,3.675h0A3.43,3.43,0,0,1,1764.255,1067.1Z" transform="translate(-1522.089 -924.348)"/></g><g transform="matrix(0.891, 0.454, -0.454, 0.891, 1629.762, 548.84)"><g transform="translate(18.829 0)"><path class="f" d="M1.675,25.556C14.375-22.05,58.737,4.129,77.723,44.887s62.488,199.742,100.1,240.906c14.577,15.957,10.118,17.3-3.282,9.527C107.694,256.571-15.8,91.087,1.675,25.556Z"/><path class="g" d="M160.771,279.784c.459,2.14-1.554,2.24-5.365.664C54.065,194.741.25,3.141.076,2.529A1.984,1.984,0,0,1,3.892,1.44C4.066,2.057,58.617,196.27,160.771,279.784Z" transform="translate(26.033 18.404)"/></g><g transform="translate(124.156 36.07)"><path class="g" d="M8.649,14.874c22.142-34.711,50.865-2.649,55.685,34.612s-.7,174.89,18.852,217.181c7.577,16.393,3.689,16.335-5.022,6.758C34.713,225.67-21.835,62.653,8.649,14.874Z"/><path class="f" d="M58.075,263.056c-.175,1.823-1.8,1.391-4.439-.83C-5.425,168.35.127,2.145.147,1.611a1.657,1.657,0,1,1,3.313.1C3.444,2.244-2.188,170.721,58.075,263.056Z" transform="translate(29.132 15.755)"/></g><g transform="translate(0 168.875)"><path class="g" d="M23.019.189c-38.272,3.99-23.487,41.4,5.638,61.019s146.458,72.554,173.629,106.583c10.531,13.191,12.107,9.914,7.748-1.371C188.293,110.134,75.7-5.3,23.019.189Z"/><path class="f" d="M196.48,157.9c1.6.614,1.916-.927,1.164-4.057C143.887,65.224,2.653.355,2.2.143A1.55,1.55,0,0,0,.9,2.955C1.35,3.165,144.511,68.922,196.48,157.9Z" transform="translate(14.271 18.329)"/></g></g><g transform="translate(1591.912 885.632)"><path class="f" d="M95.765,470.7H21.588L2.222,488.179l15.823,60.935H99.308l15.823-60.935Z" transform="translate(3.919 -448.021)"/><path class="h" d="M89.867,470.7H21.588L2.222,488.179l5.93,22.84,105.642-17.687,1.337-5.153-18.6-16.78Z" transform="translate(3.919 -448.021)"/><path class="i" d="M2.209,0h120.77a2.209,2.209,0,0,1,2.209,2.209V37.951a2.207,2.207,0,0,1-2.207,2.207H2.208A2.208,2.208,0,0,1,0,37.95V2.209A2.209,2.209,0,0,1,2.209,0Z" transform="translate(0 0)"/></g></g></svg>