<svg xmlns="http://www.w3.org/2000/svg" xmlns:xlink="http://www.w3.org/1999/xlink" width="1920" height="675" viewBox="0 0 1920 675"><defs><style>.a,.e{fill:#f9ebfd;}.b,.c{fill:#f1caef;}.c,.e{fill-rule:evenodd;}.d{clip-path:url(#a);}</style><clipPath id="a"><rect class="a" width="1920" height="675"/></clipPath></defs><g transform="translate(0 -3907)"><g transform="translate(0 218)"><g transform="translate(1456.195 3776.097)"><path class="b" d="M15.041,34.776a2.061,2.061,0,1,0-2.06,2.061A2.06,2.06,0,0,0,15.041,34.776Z" transform="translate(-10.919 102.904)"/><path class="b" d="M58.443,34.776a2.06,2.06,0,1,0-2.06,2.061A2.06,2.06,0,0,0,58.443,34.776Z" transform="translate(-26.712 102.904)"/><circle class="b" cx="2.061" cy="2.061" r="2.061" transform="translate(55.22 135.62)"/><path class="b" d="M145.248,34.776a2.061,2.061,0,1,0-2.06,2.061A2.06,2.06,0,0,0,145.248,34.776Z" transform="translate(-58.297 102.904)"/><path class="b" d="M15.041,77.182a2.061,2.061,0,1,0-2.06,2.06A2.06,2.06,0,0,0,15.041,77.182Z" transform="translate(-10.919 33.524)"/><path class="b" d="M58.443,77.182a2.06,2.06,0,1,0-2.06,2.06A2.06,2.06,0,0,0,58.443,77.182Z" transform="translate(-26.712 33.524)"/><path class="b" d="M101.846,77.182a2.061,2.061,0,1,0-2.061,2.06A2.061,2.061,0,0,0,101.846,77.182Z" transform="translate(-42.504 33.524)"/><path class="b" d="M145.248,77.182a2.061,2.061,0,1,0-2.06,2.06A2.06,2.06,0,0,0,145.248,77.182Z" transform="translate(-58.297 33.524)"/><path class="b" d="M15.041,119.587a2.061,2.061,0,1,0-2.06,2.06A2.061,2.061,0,0,0,15.041,119.587Z" transform="translate(-10.919 -35.856)"/><path class="b" d="M58.443,119.587a2.06,2.06,0,1,0-2.06,2.06A2.061,2.061,0,0,0,58.443,119.587Z" transform="translate(-26.712 -35.856)"/><circle class="b" cx="2.061" cy="2.061" r="2.061" transform="translate(55.22 81.67)"/><path class="b" d="M145.248,119.587a2.061,2.061,0,1,0-2.06,2.06A2.061,2.061,0,0,0,145.248,119.587Z" transform="translate(-58.297 -35.856)"/><path class="b" d="M15.041,163.16a2.061,2.061,0,1,0-2.06,2.061A2.06,2.06,0,0,0,15.041,163.16Z" transform="translate(-10.919 -107.149)"/><path class="b" d="M58.443,163.16a2.06,2.06,0,1,0-2.06,2.061A2.06,2.06,0,0,0,58.443,163.16Z" transform="translate(-26.712 -107.149)"/><circle class="b" cx="2.061" cy="2.061" r="2.061" transform="translate(55.22 53.951)"/><path class="b" d="M145.248,163.16a2.061,2.061,0,1,0-2.06,2.061A2.06,2.06,0,0,0,145.248,163.16Z" transform="translate(-58.297 -107.149)"/><path class="b" d="M15.041,205.565a2.061,2.061,0,1,0-2.06,2.061A2.06,2.06,0,0,0,15.041,205.565Z" transform="translate(-10.919 -176.53)"/><path class="b" d="M58.443,205.565a2.06,2.06,0,1,0-2.06,2.061A2.06,2.06,0,0,0,58.443,205.565Z" transform="translate(-26.712 -176.53)"/><circle class="b" cx="2.061" cy="2.061" r="2.061" transform="translate(55.22 26.975)"/><path class="b" d="M145.248,205.565a2.061,2.061,0,1,0-2.06,2.061A2.06,2.06,0,0,0,145.248,205.565Z" transform="translate(-58.297 -176.53)"/><path class="b" d="M15.041,247.97a2.061,2.061,0,1,0-2.06,2.061A2.06,2.06,0,0,0,15.041,247.97Z" transform="translate(-10.919 -245.91)"/><path class="b" d="M58.443,247.97a2.06,2.06,0,1,0-2.06,2.061A2.06,2.06,0,0,0,58.443,247.97Z" transform="translate(-26.712 -245.91)"/><circle class="b" cx="2.061" cy="2.061" r="2.061" transform="translate(55.22 0)"/><path class="b" d="M145.248,247.97a2.061,2.061,0,1,0-2.06,2.061A2.06,2.06,0,0,0,145.248,247.97Z" transform="translate(-58.297 -245.91)"/><circle class="b" cx="2.061" cy="2.061" r="2.061" transform="translate(111.822 135.62)"/><circle class="b" cx="2.061" cy="2.061" r="2.061" transform="translate(139.432 135.62)"/><path class="b" d="M277.629,34.776a2.061,2.061,0,1,0-2.061,2.061A2.061,2.061,0,0,0,277.629,34.776Z" transform="translate(-106.465 102.904)"/><path class="b" d="M321.031,34.776a2.061,2.061,0,1,0-2.061,2.061A2.06,2.06,0,0,0,321.031,34.776Z" transform="translate(-122.258 102.904)"/><path class="b" d="M190.824,77.182a2.061,2.061,0,1,0-2.061,2.06A2.061,2.061,0,0,0,190.824,77.182Z" transform="translate(-74.88 33.524)"/><path class="b" d="M234.226,77.182a2.061,2.061,0,1,0-2.06,2.06A2.06,2.06,0,0,0,234.226,77.182Z" transform="translate(-90.673 33.524)"/><path class="b" d="M277.629,77.182a2.061,2.061,0,1,0-2.061,2.06A2.061,2.061,0,0,0,277.629,77.182Z" transform="translate(-106.465 33.524)"/><path class="b" d="M321.031,77.182a2.061,2.061,0,1,0-2.061,2.06A2.061,2.061,0,0,0,321.031,77.182Z" transform="translate(-122.258 33.524)"/><circle class="b" cx="2.061" cy="2.061" r="2.061" transform="translate(111.822 81.67)"/><circle class="b" cx="2.061" cy="2.061" r="2.061" transform="translate(139.432 81.67)"/><path class="b" d="M277.629,119.587a2.061,2.061,0,1,0-2.061,2.06A2.061,2.061,0,0,0,277.629,119.587Z" transform="translate(-106.465 -35.856)"/><path class="b" d="M321.031,119.587a2.061,2.061,0,1,0-2.061,2.06A2.061,2.061,0,0,0,321.031,119.587Z" transform="translate(-122.258 -35.856)"/><circle class="b" cx="2.061" cy="2.061" r="2.061" transform="translate(111.822 53.951)"/><circle class="b" cx="2.061" cy="2.061" r="2.061" transform="translate(139.432 53.951)"/><path class="b" d="M277.629,163.16a2.061,2.061,0,1,0-2.061,2.061A2.061,2.061,0,0,0,277.629,163.16Z" transform="translate(-106.465 -107.149)"/><path class="b" d="M321.031,163.16a2.061,2.061,0,1,0-2.061,2.061A2.06,2.06,0,0,0,321.031,163.16Z" transform="translate(-122.258 -107.149)"/><circle class="b" cx="2.061" cy="2.061" r="2.061" transform="translate(111.822 26.975)"/><circle class="b" cx="2.061" cy="2.061" r="2.061" transform="translate(139.432 26.975)"/><path class="b" d="M277.629,205.565a2.061,2.061,0,1,0-2.061,2.061A2.061,2.061,0,0,0,277.629,205.565Z" transform="translate(-106.465 -176.53)"/><path class="b" d="M321.031,205.565a2.061,2.061,0,1,0-2.061,2.061A2.06,2.06,0,0,0,321.031,205.565Z" transform="translate(-122.258 -176.53)"/><circle class="b" cx="2.061" cy="2.061" r="2.061" transform="translate(111.822 0)"/><circle class="b" cx="2.061" cy="2.061" r="2.061" transform="translate(139.432 0)"/><path class="b" d="M277.629,247.97a2.061,2.061,0,1,0-2.061,2.061A2.061,2.061,0,0,0,277.629,247.97Z" transform="translate(-106.465 -245.91)"/><path class="b" d="M321.031,247.97a2.061,2.061,0,1,0-2.061,2.061A2.06,2.06,0,0,0,321.031,247.97Z" transform="translate(-122.258 -245.91)"/><path class="b" d="M366.607,34.776a2.061,2.061,0,1,0-2.061,2.061A2.06,2.06,0,0,0,366.607,34.776Z" transform="translate(-138.841 102.904)"/><path class="b" d="M410.009,34.776a2.061,2.061,0,1,0-2.06,2.061A2.06,2.06,0,0,0,410.009,34.776Z" transform="translate(-154.634 102.904)"/><circle class="b" cx="2.061" cy="2.061" r="2.061" transform="translate(278.863 135.62)"/><path class="b" d="M366.607,77.182a2.061,2.061,0,1,0-2.061,2.06A2.061,2.061,0,0,0,366.607,77.182Z" transform="translate(-138.841 33.524)"/><path class="b" d="M410.009,77.182a2.061,2.061,0,1,0-2.06,2.06A2.06,2.06,0,0,0,410.009,77.182Z" transform="translate(-154.634 33.524)"/><path class="b" d="M453.411,77.182a2.061,2.061,0,1,0-2.061,2.06A2.061,2.061,0,0,0,453.411,77.182Z" transform="translate(-170.427 33.524)"/><path class="b" d="M366.607,119.587a2.061,2.061,0,1,0-2.061,2.06A2.061,2.061,0,0,0,366.607,119.587Z" transform="translate(-138.841 -35.856)"/><path class="b" d="M410.009,119.587a2.061,2.061,0,1,0-2.06,2.06A2.061,2.061,0,0,0,410.009,119.587Z" transform="translate(-154.634 -35.856)"/><circle class="b" cx="2.061" cy="2.061" r="2.061" transform="translate(278.863 81.67)"/><path class="b" d="M366.607,163.16a2.061,2.061,0,1,0-2.061,2.061A2.06,2.06,0,0,0,366.607,163.16Z" transform="translate(-138.841 -107.149)"/><path class="b" d="M410.009,163.16a2.061,2.061,0,1,0-2.06,2.061A2.06,2.06,0,0,0,410.009,163.16Z" transform="translate(-154.634 -107.149)"/><circle class="b" cx="2.061" cy="2.061" r="2.061" transform="translate(278.863 53.951)"/><path class="b" d="M366.607,205.565a2.061,2.061,0,1,0-2.061,2.061A2.06,2.06,0,0,0,366.607,205.565Z" transform="translate(-138.841 -176.53)"/><path class="b" d="M410.009,205.565a2.061,2.061,0,1,0-2.06,2.061A2.06,2.06,0,0,0,410.009,205.565Z" transform="translate(-154.634 -176.53)"/><circle class="b" cx="2.061" cy="2.061" r="2.061" transform="translate(278.863 26.975)"/><path class="b" d="M366.607,247.97a2.061,2.061,0,1,0-2.061,2.061A2.06,2.06,0,0,0,366.607,247.97Z" transform="translate(-138.841 -245.91)"/><path class="b" d="M410.009,247.97a2.061,2.061,0,1,0-2.06,2.061A2.06,2.06,0,0,0,410.009,247.97Z" transform="translate(-154.634 -245.91)"/><circle class="b" cx="2.061" cy="2.061" r="2.061" transform="translate(278.863 0)"/></g><g transform="translate(13 324)"><g transform="translate(764.887 3745.33)"><path class="b" d="M295.151,124.73A2.266,2.266,0,1,0,292.885,127,2.267,2.267,0,0,0,295.151,124.73Z" transform="translate(-290.619 26.664)"/><path class="b" d="M307.009,124.73A2.266,2.266,0,1,0,304.743,127,2.267,2.267,0,0,0,307.009,124.73Z" transform="translate(-272.118 26.664)"/><circle class="b" cx="2.266" cy="2.266" r="2.266" transform="translate(60.72 149.129)"/><path class="b" d="M330.725,124.73A2.266,2.266,0,1,0,328.46,127,2.267,2.267,0,0,0,330.725,124.73Z" transform="translate(-235.114 26.664)"/><path class="b" d="M295.151,136.316a2.266,2.266,0,1,0-2.266,2.266A2.265,2.265,0,0,0,295.151,136.316Z" transform="translate(-290.619 -14.582)"/><path class="b" d="M307.009,136.316a2.266,2.266,0,1,0-2.266,2.266A2.265,2.265,0,0,0,307.009,136.316Z" transform="translate(-272.118 -14.582)"/><path class="b" d="M318.868,136.316a2.266,2.266,0,1,0-2.266,2.266A2.265,2.265,0,0,0,318.868,136.316Z" transform="translate(-253.615 -14.582)"/><path class="b" d="M330.725,136.316a2.266,2.266,0,1,0-2.266,2.266A2.265,2.265,0,0,0,330.725,136.316Z" transform="translate(-235.114 -14.582)"/><path class="b" d="M295.151,147.9a2.266,2.266,0,1,0-2.266,2.266A2.265,2.265,0,0,0,295.151,147.9Z" transform="translate(-290.619 -55.83)"/><path class="b" d="M307.009,147.9a2.266,2.266,0,1,0-2.266,2.266A2.265,2.265,0,0,0,307.009,147.9Z" transform="translate(-272.118 -55.83)"/><circle class="b" cx="2.266" cy="2.266" r="2.266" transform="translate(60.72 89.805)"/><path class="b" d="M330.725,147.9a2.266,2.266,0,1,0-2.266,2.266A2.265,2.265,0,0,0,330.725,147.9Z" transform="translate(-235.114 -55.83)"/><path class="b" d="M295.151,159.808a2.266,2.266,0,1,0-2.266,2.266A2.267,2.267,0,0,0,295.151,159.808Z" transform="translate(-290.619 -98.218)"/><path class="b" d="M307.009,159.808a2.266,2.266,0,1,0-2.266,2.266A2.267,2.267,0,0,0,307.009,159.808Z" transform="translate(-272.118 -98.218)"/><circle class="b" cx="2.266" cy="2.266" r="2.266" transform="translate(60.72 59.324)"/><path class="b" d="M330.725,159.808a2.266,2.266,0,1,0-2.266,2.266A2.267,2.267,0,0,0,330.725,159.808Z" transform="translate(-235.114 -98.218)"/><path class="b" d="M295.151,171.4a2.266,2.266,0,1,0-2.266,2.266A2.267,2.267,0,0,0,295.151,171.4Z" transform="translate(-290.619 -139.466)"/><path class="b" d="M307.009,171.4a2.266,2.266,0,1,0-2.266,2.266A2.267,2.267,0,0,0,307.009,171.4Z" transform="translate(-272.118 -139.466)"/><circle class="b" cx="2.266" cy="2.266" r="2.266" transform="translate(60.72 29.662)"/><path class="b" d="M330.725,171.4a2.266,2.266,0,1,0-2.266,2.266A2.267,2.267,0,0,0,330.725,171.4Z" transform="translate(-235.114 -139.466)"/><path class="b" d="M295.151,182.979a2.266,2.266,0,1,0-2.266,2.266A2.265,2.265,0,0,0,295.151,182.979Z" transform="translate(-290.619 -180.712)"/><path class="b" d="M307.009,182.979a2.266,2.266,0,1,0-2.266,2.266A2.265,2.265,0,0,0,307.009,182.979Z" transform="translate(-272.118 -180.712)"/><circle class="b" cx="2.266" cy="2.266" r="2.266" transform="translate(60.72 0)"/><path class="b" d="M330.725,182.979a2.266,2.266,0,1,0-2.266,2.266A2.265,2.265,0,0,0,330.725,182.979Z" transform="translate(-235.114 -180.712)"/><circle class="b" cx="2.266" cy="2.266" r="2.266" transform="translate(122.96 149.129)"/><circle class="b" cx="2.266" cy="2.266" r="2.266" transform="translate(153.32 149.129)"/><path class="b" d="M366.895,124.73A2.266,2.266,0,1,0,364.629,127,2.267,2.267,0,0,0,366.895,124.73Z" transform="translate(-178.683 26.664)"/><path class="b" d="M378.755,124.73A2.267,2.267,0,1,0,376.487,127,2.269,2.269,0,0,0,378.755,124.73Z" transform="translate(-160.182 26.664)"/><path class="b" d="M343.177,136.316a2.266,2.266,0,1,0-2.266,2.266A2.265,2.265,0,0,0,343.177,136.316Z" transform="translate(-215.687 -14.582)"/><path class="b" d="M355.037,136.316a2.266,2.266,0,1,0-2.266,2.266A2.265,2.265,0,0,0,355.037,136.316Z" transform="translate(-197.184 -14.582)"/><path class="b" d="M366.895,136.316a2.266,2.266,0,1,0-2.266,2.266A2.265,2.265,0,0,0,366.895,136.316Z" transform="translate(-178.683 -14.582)"/><path class="b" d="M378.755,136.316a2.267,2.267,0,1,0-2.268,2.266A2.267,2.267,0,0,0,378.755,136.316Z" transform="translate(-160.182 -14.582)"/><circle class="b" cx="2.266" cy="2.266" r="2.266" transform="translate(122.96 89.805)"/><circle class="b" cx="2.266" cy="2.266" r="2.266" transform="translate(153.32 89.805)"/><path class="b" d="M366.895,147.9a2.266,2.266,0,1,0-2.266,2.266A2.265,2.265,0,0,0,366.895,147.9Z" transform="translate(-178.683 -55.83)"/><path class="b" d="M378.755,147.9a2.267,2.267,0,1,0-2.268,2.266A2.267,2.267,0,0,0,378.755,147.9Z" transform="translate(-160.182 -55.83)"/><circle class="b" cx="2.266" cy="2.266" r="2.266" transform="translate(122.96 59.324)"/><circle class="b" cx="2.266" cy="2.266" r="2.266" transform="translate(153.32 59.324)"/><path class="b" d="M366.895,159.808a2.266,2.266,0,1,0-2.266,2.266A2.267,2.267,0,0,0,366.895,159.808Z" transform="translate(-178.683 -98.218)"/><path class="b" d="M378.755,159.808a2.267,2.267,0,1,0-2.268,2.266A2.269,2.269,0,0,0,378.755,159.808Z" transform="translate(-160.182 -98.218)"/><circle class="b" cx="2.266" cy="2.266" r="2.266" transform="translate(122.96 29.662)"/><circle class="b" cx="2.266" cy="2.266" r="2.266" transform="translate(153.32 29.662)"/><path class="b" d="M366.895,171.4a2.266,2.266,0,1,0-2.266,2.266A2.267,2.267,0,0,0,366.895,171.4Z" transform="translate(-178.683 -139.466)"/><path class="b" d="M378.755,171.4a2.267,2.267,0,1,0-2.268,2.266A2.269,2.269,0,0,0,378.755,171.4Z" transform="translate(-160.182 -139.466)"/><circle class="b" cx="2.266" cy="2.266" r="2.266" transform="translate(122.96 0)"/><circle class="b" cx="2.266" cy="2.266" r="2.266" transform="translate(153.32 0)"/><path class="b" d="M366.895,182.979a2.266,2.266,0,1,0-2.266,2.266A2.265,2.265,0,0,0,366.895,182.979Z" transform="translate(-178.683 -180.712)"/><path class="b" d="M378.755,182.979a2.267,2.267,0,1,0-2.268,2.266A2.267,2.267,0,0,0,378.755,182.979Z" transform="translate(-160.182 -180.712)"/><path class="b" d="M391.205,124.73A2.266,2.266,0,1,0,388.94,127,2.267,2.267,0,0,0,391.205,124.73Z" transform="translate(-140.753 26.664)"/><path class="b" d="M403.064,124.73A2.266,2.266,0,1,0,400.8,127,2.267,2.267,0,0,0,403.064,124.73Z" transform="translate(-122.252 26.664)"/><circle class="b" cx="2.266" cy="2.266" r="2.266" transform="translate(306.64 149.129)"/><path class="b" d="M391.205,136.316a2.266,2.266,0,1,0-2.266,2.266A2.265,2.265,0,0,0,391.205,136.316Z" transform="translate(-140.753 -14.582)"/><path class="b" d="M403.064,136.316a2.266,2.266,0,1,0-2.266,2.266A2.265,2.265,0,0,0,403.064,136.316Z" transform="translate(-122.252 -14.582)"/><path class="b" d="M414.924,136.316a2.267,2.267,0,1,0-2.268,2.266A2.267,2.267,0,0,0,414.924,136.316Z" transform="translate(-103.751 -14.582)"/><path class="b" d="M391.205,147.9a2.266,2.266,0,1,0-2.266,2.266A2.265,2.265,0,0,0,391.205,147.9Z" transform="translate(-140.753 -55.83)"/><path class="b" d="M403.064,147.9a2.266,2.266,0,1,0-2.266,2.266A2.265,2.265,0,0,0,403.064,147.9Z" transform="translate(-122.252 -55.83)"/><circle class="b" cx="2.266" cy="2.266" r="2.266" transform="translate(306.64 89.805)"/><path class="b" d="M391.205,159.808a2.266,2.266,0,1,0-2.266,2.266A2.267,2.267,0,0,0,391.205,159.808Z" transform="translate(-140.753 -98.218)"/><path class="b" d="M403.064,159.808a2.266,2.266,0,1,0-2.266,2.266A2.267,2.267,0,0,0,403.064,159.808Z" transform="translate(-122.252 -98.218)"/><circle class="b" cx="2.266" cy="2.266" r="2.266" transform="translate(306.64 59.324)"/><path class="b" d="M391.205,171.4a2.266,2.266,0,1,0-2.266,2.266A2.267,2.267,0,0,0,391.205,171.4Z" transform="translate(-140.753 -139.466)"/><path class="b" d="M403.064,171.4a2.266,2.266,0,1,0-2.266,2.266A2.267,2.267,0,0,0,403.064,171.4Z" transform="translate(-122.252 -139.466)"/><circle class="b" cx="2.266" cy="2.266" r="2.266" transform="translate(306.64 29.662)"/><path class="b" d="M391.205,182.979a2.266,2.266,0,1,0-2.266,2.266A2.265,2.265,0,0,0,391.205,182.979Z" transform="translate(-140.753 -180.712)"/><path class="b" d="M403.064,182.979a2.266,2.266,0,1,0-2.266,2.266A2.265,2.265,0,0,0,403.064,182.979Z" transform="translate(-122.252 -180.712)"/><circle class="b" cx="2.266" cy="2.266" r="2.266" transform="translate(306.64 0)"/></g><path class="c" d="M1657.5,705.96a2.908,2.908,0,0,1,5.816,0v13.082a2.908,2.908,0,1,1-5.816,0V705.96Zm-19.833,10.624a2.909,2.909,0,1,1,4.113-4.116l9.255,9.253a2.91,2.91,0,0,1-4.113,4.117l-9.255-9.254Zm-6.51,21.537a2.911,2.911,0,1,1,0-5.823h13.086a2.912,2.912,0,0,1,0,5.823Zm10.623,19.835a2.909,2.909,0,0,1-4.113-4.116l9.255-9.254a2.909,2.909,0,0,1,4.113,4.116l-9.255,9.254Zm21.536,6.508a2.908,2.908,0,0,1-5.816,0V751.372a2.908,2.908,0,0,1,5.816,0v13.092Zm19.833-10.624a2.91,2.91,0,0,1-4.116,4.116l-9.255-9.254a2.91,2.91,0,0,1,4.116-4.116l9.255,9.254Zm6.509-21.542a2.911,2.911,0,1,1,0,5.823h-13.086a2.911,2.911,0,0,1,0-5.823Zm-10.625-19.83a2.91,2.91,0,0,1,4.116,4.116l-9.255,9.254a2.911,2.911,0,0,1-4.116-4.117Z" transform="translate(148.277 3186.498)"/><path class="c" d="M1657.5,705.96a2.908,2.908,0,0,1,5.816,0v13.082a2.908,2.908,0,1,1-5.816,0V705.96Zm-19.833,10.624a2.909,2.909,0,1,1,4.113-4.116l9.255,9.253a2.91,2.91,0,0,1-4.113,4.117l-9.255-9.254Zm-6.51,21.537a2.911,2.911,0,1,1,0-5.823h13.086a2.912,2.912,0,0,1,0,5.823Zm10.623,19.835a2.909,2.909,0,0,1-4.113-4.116l9.255-9.254a2.909,2.909,0,0,1,4.113,4.116l-9.255,9.254Zm21.536,6.508a2.908,2.908,0,0,1-5.816,0V751.372a2.908,2.908,0,0,1,5.816,0v13.092Zm19.833-10.624a2.91,2.91,0,0,1-4.116,4.116l-9.255-9.254a2.91,2.91,0,0,1,4.116-4.116l9.255,9.254Zm6.509-21.542a2.911,2.911,0,1,1,0,5.823h-13.086a2.911,2.911,0,0,1,0-5.823Zm-10.625-19.83a2.91,2.91,0,0,1,4.116,4.116l-9.255,9.254a2.911,2.911,0,0,1-4.116-4.117Z" transform="translate(-1457.723 2819.498)"/></g></g><g transform="translate(0 3907)"><g class="d"><path class="e" d="M1109.078,1096.281h90.6c48.76,0,88.653,39.883,88.653,88.627h0c0,48.745-39.893,88.627-88.653,88.627H433.625c-78.956,0-143.555-64.579-143.555-143.51h0c0-78.933,64.6-143.513,143.553-143.513h0a60.864,60.864,0,0,0,60.7-60.678h0a60.868,60.868,0,0,0-60.7-60.681H360.574a63.283,63.283,0,0,1-63.107-63.086h0a63.283,63.283,0,0,1,63.107-63.089h92.374a24.639,24.639,0,0,0,24.569-24.561h0a24.638,24.638,0,0,0-24.569-24.559H436.663a17,17,0,0,1-16.954-16.952h0a17,17,0,0,1,16.954-16.952H543.514c22.5,0,25.008,26.577,81.852,26.577h87.751c12.169,0-36.629,9.958-36.629,22.119l21.546-22.119c0,12.163,12.169,22.119,0,22.119L486.88,726.768c-17.633,0,248.959,14.424,248.959,32.048v0a32.15,32.15,0,0,0,32.059,32.05h31.976c86.349,0,98.544,22.559,113.668,67.426s93.669,48.487,93.669,48.487h107.4a48.445,48.445,0,0,1,48.312,48.3v0a48.445,48.445,0,0,1-48.312,48.3h-5.53a46.6,46.6,0,0,0-46.468,46.455h0a46.6,46.6,0,0,0,46.468,46.453Zm-720-406.424a16.952,16.952,0,1,0-16.957-16.952A16.954,16.954,0,0,0,389.081,689.857Z" transform="translate(-743.516 -599.57)"/><path class="e" d="M-14.337,981.458H64.316c42.334,0,76.966,30.8,76.966,68.434h0c0,37.639-34.632,68.434-76.966,68.434H-600.749c-68.548,0-124.631-49.866-124.631-110.813h0c0-60.949,56.083-110.813,124.629-110.813h0c28.983,0,52.7-21.085,52.7-46.855h0c0-25.77-23.714-46.855-52.7-46.855H-664.17c-30.133,0-54.786-21.921-54.786-48.713h0c0-26.793,24.653-48.714,54.786-48.714h80.2c11.732,0,21.33-8.534,21.33-18.965h0c0-10.43-9.6-18.964-21.33-18.964h-14.138c-8.094,0-14.719-5.891-14.719-13.089h0c0-7.2,6.625-13.089,14.719-13.089h92.766c19.537,0,21.713,20.522,71.061,20.522h142.189c10.567,0,19.209,7.688,19.209,17.08h0c0,9.392-8.644,17.08-19.209,17.08h-18.446c-15.308,0-27.833,11.136-27.833,24.746h0c0,13.61,12.525,24.748,27.833,24.748h27.761c74.966,0,85.555,17.419,98.683,52.064s81.321,37.44,81.321,37.44h93.24c23.069,0,41.943,16.782,41.943,37.292v0c0,20.51-18.874,37.292-41.943,37.292h-4.8c-22.187,0-40.341,16.143-40.341,35.871h0c0,19.728,18.153,35.869,40.341,35.869ZM-639.421,667.633c8.131,0,14.721-5.859,14.721-13.089s-6.59-13.089-14.721-13.089-14.721,5.861-14.721,13.089S-647.548,667.633-639.421,667.633Z" transform="translate(1901.054 -476.287)"/></g></g></g></svg>