<svg xmlns="http://www.w3.org/2000/svg" xmlns:xlink="http://www.w3.org/1999/xlink" width="2423.556" height="735.532" viewBox="0 0 2423.556 735.532"><defs><style>.a,.f{fill:#fdebeb;}.b,.c{fill:#f6d2df;}.c,.f{fill-rule:evenodd;}.d{clip-path:url(#a);}.e{clip-path:url(#b);}</style><clipPath id="a"><rect class="a" width="1920" height="699.534"/></clipPath><clipPath id="b"><rect class="a" width="899.955" height="193.018"/></clipPath></defs><g transform="translate(0.427 -4546.002)"><g transform="translate(4 504)"><g transform="translate(1479.887 4553.542)"><path class="b" d="M295.151,124.732a2.266,2.266,0,1,1-2.266-2.268A2.267,2.267,0,0,1,295.151,124.732Z" transform="translate(-290.619 -122.464)"/><path class="b" d="M307.009,124.732a2.266,2.266,0,1,1-2.266-2.268A2.267,2.267,0,0,1,307.009,124.732Z" transform="translate(-272.118 -122.464)"/><ellipse class="b" cx="2.266" cy="2.266" rx="2.266" ry="2.266" transform="translate(60.72 0.001)"/><path class="b" d="M330.725,124.732a2.266,2.266,0,1,1-2.266-2.268A2.267,2.267,0,0,1,330.725,124.732Z" transform="translate(-235.114 -122.464)"/><path class="b" d="M295.151,136.316a2.266,2.266,0,1,1-2.266-2.266A2.265,2.265,0,0,1,295.151,136.316Z" transform="translate(-290.619 -104.387)"/><path class="b" d="M307.009,136.316a2.266,2.266,0,1,1-2.266-2.266A2.265,2.265,0,0,1,307.009,136.316Z" transform="translate(-272.118 -104.387)"/><path class="b" d="M318.868,136.316a2.266,2.266,0,1,1-2.266-2.266A2.265,2.265,0,0,1,318.868,136.316Z" transform="translate(-253.615 -104.387)"/><path class="b" d="M330.725,136.316a2.266,2.266,0,1,1-2.266-2.266A2.265,2.265,0,0,1,330.725,136.316Z" transform="translate(-235.114 -104.387)"/><path class="b" d="M295.151,147.9a2.266,2.266,0,1,1-2.266-2.266A2.265,2.265,0,0,1,295.151,147.9Z" transform="translate(-290.619 -86.311)"/><path class="b" d="M307.009,147.9a2.266,2.266,0,1,1-2.266-2.266A2.265,2.265,0,0,1,307.009,147.9Z" transform="translate(-272.118 -86.311)"/><ellipse class="b" cx="2.266" cy="2.266" rx="2.266" ry="2.266" transform="translate(60.72 59.326)"/><path class="b" d="M330.725,147.9a2.266,2.266,0,1,1-2.266-2.266A2.265,2.265,0,0,1,330.725,147.9Z" transform="translate(-235.114 -86.311)"/><path class="b" d="M295.151,159.808a2.266,2.266,0,1,1-2.266-2.266A2.267,2.267,0,0,1,295.151,159.808Z" transform="translate(-290.619 -67.735)"/><path class="b" d="M307.009,159.808a2.266,2.266,0,1,1-2.266-2.266A2.267,2.267,0,0,1,307.009,159.808Z" transform="translate(-272.118 -67.735)"/><ellipse class="b" cx="2.266" cy="2.266" rx="2.266" ry="2.266" transform="translate(60.72 89.806)"/><path class="b" d="M330.725,159.808a2.266,2.266,0,1,1-2.266-2.266A2.267,2.267,0,0,1,330.725,159.808Z" transform="translate(-235.114 -67.735)"/><path class="b" d="M295.151,171.393a2.266,2.266,0,1,1-2.266-2.266A2.267,2.267,0,0,1,295.151,171.393Z" transform="translate(-290.619 -49.66)"/><path class="b" d="M307.009,171.393a2.266,2.266,0,1,1-2.266-2.266A2.267,2.267,0,0,1,307.009,171.393Z" transform="translate(-272.118 -49.66)"/><ellipse class="b" cx="2.266" cy="2.266" rx="2.266" ry="2.266" transform="translate(60.72 119.468)"/><path class="b" d="M330.725,171.393a2.266,2.266,0,1,1-2.266-2.266A2.267,2.267,0,0,1,330.725,171.393Z" transform="translate(-235.114 -49.66)"/><path class="b" d="M295.151,182.979a2.266,2.266,0,1,1-2.266-2.266A2.265,2.265,0,0,1,295.151,182.979Z" transform="translate(-290.619 -31.583)"/><path class="b" d="M307.009,182.979a2.266,2.266,0,1,1-2.266-2.266A2.265,2.265,0,0,1,307.009,182.979Z" transform="translate(-272.118 -31.583)"/><ellipse class="b" cx="2.266" cy="2.266" rx="2.266" ry="2.266" transform="translate(60.72 149.13)"/><path class="b" d="M330.725,182.979a2.266,2.266,0,1,1-2.266-2.266A2.265,2.265,0,0,1,330.725,182.979Z" transform="translate(-235.114 -31.583)"/><ellipse class="b" cx="2.266" cy="2.266" rx="2.266" ry="2.266" transform="translate(122.96 0.001)"/><ellipse class="b" cx="2.266" cy="2.266" rx="2.266" ry="2.266" transform="translate(153.32 0.001)"/><path class="b" d="M366.895,124.732a2.266,2.266,0,1,1-2.266-2.268A2.267,2.267,0,0,1,366.895,124.732Z" transform="translate(-178.683 -122.464)"/><path class="b" d="M378.755,124.732a2.267,2.267,0,1,1-2.268-2.268A2.269,2.269,0,0,1,378.755,124.732Z" transform="translate(-160.182 -122.464)"/><path class="b" d="M343.177,136.316a2.266,2.266,0,1,1-2.266-2.266A2.265,2.265,0,0,1,343.177,136.316Z" transform="translate(-215.687 -104.387)"/><path class="b" d="M355.037,136.316a2.266,2.266,0,1,1-2.266-2.266A2.265,2.265,0,0,1,355.037,136.316Z" transform="translate(-197.184 -104.387)"/><path class="b" d="M366.895,136.316a2.266,2.266,0,1,1-2.266-2.266A2.265,2.265,0,0,1,366.895,136.316Z" transform="translate(-178.683 -104.387)"/><path class="b" d="M378.755,136.316a2.267,2.267,0,1,1-2.268-2.266A2.267,2.267,0,0,1,378.755,136.316Z" transform="translate(-160.182 -104.387)"/><ellipse class="b" cx="2.266" cy="2.266" rx="2.266" ry="2.266" transform="translate(122.96 59.326)"/><ellipse class="b" cx="2.266" cy="2.266" rx="2.266" ry="2.266" transform="translate(153.32 59.326)"/><path class="b" d="M366.895,147.9a2.266,2.266,0,1,1-2.266-2.266A2.265,2.265,0,0,1,366.895,147.9Z" transform="translate(-178.683 -86.311)"/><path class="b" d="M378.755,147.9a2.267,2.267,0,1,1-2.268-2.266A2.267,2.267,0,0,1,378.755,147.9Z" transform="translate(-160.182 -86.311)"/><ellipse class="b" cx="2.266" cy="2.266" rx="2.266" ry="2.266" transform="translate(122.96 89.806)"/><ellipse class="b" cx="2.266" cy="2.266" rx="2.266" ry="2.266" transform="translate(153.32 89.806)"/><path class="b" d="M366.895,159.808a2.266,2.266,0,1,1-2.266-2.266A2.267,2.267,0,0,1,366.895,159.808Z" transform="translate(-178.683 -67.735)"/><path class="b" d="M378.755,159.808a2.267,2.267,0,1,1-2.268-2.266A2.269,2.269,0,0,1,378.755,159.808Z" transform="translate(-160.182 -67.735)"/><ellipse class="b" cx="2.266" cy="2.266" rx="2.266" ry="2.266" transform="translate(122.96 119.468)"/><ellipse class="b" cx="2.266" cy="2.266" rx="2.266" ry="2.266" transform="translate(153.32 119.468)"/><path class="b" d="M366.895,171.393a2.266,2.266,0,1,1-2.266-2.266A2.267,2.267,0,0,1,366.895,171.393Z" transform="translate(-178.683 -49.66)"/><path class="b" d="M378.755,171.393a2.267,2.267,0,1,1-2.268-2.266A2.269,2.269,0,0,1,378.755,171.393Z" transform="translate(-160.182 -49.66)"/><ellipse class="b" cx="2.266" cy="2.266" rx="2.266" ry="2.266" transform="translate(122.96 149.13)"/><ellipse class="b" cx="2.266" cy="2.266" rx="2.266" ry="2.266" transform="translate(153.32 149.13)"/><path class="b" d="M366.895,182.979a2.266,2.266,0,1,1-2.266-2.266A2.265,2.265,0,0,1,366.895,182.979Z" transform="translate(-178.683 -31.583)"/><path class="b" d="M378.755,182.979a2.267,2.267,0,1,1-2.268-2.266A2.267,2.267,0,0,1,378.755,182.979Z" transform="translate(-160.182 -31.583)"/><path class="b" d="M391.205,124.732a2.266,2.266,0,1,1-2.266-2.268A2.267,2.267,0,0,1,391.205,124.732Z" transform="translate(-140.753 -122.464)"/><path class="b" d="M403.064,124.732a2.266,2.266,0,1,1-2.266-2.268A2.267,2.267,0,0,1,403.064,124.732Z" transform="translate(-122.252 -122.464)"/><ellipse class="b" cx="2.266" cy="2.266" rx="2.266" ry="2.266" transform="translate(306.64 0.001)"/><path class="b" d="M391.205,136.316a2.266,2.266,0,1,1-2.266-2.266A2.265,2.265,0,0,1,391.205,136.316Z" transform="translate(-140.753 -104.387)"/><path class="b" d="M403.064,136.316a2.266,2.266,0,1,1-2.266-2.266A2.265,2.265,0,0,1,403.064,136.316Z" transform="translate(-122.252 -104.387)"/><path class="b" d="M414.924,136.316a2.267,2.267,0,1,1-2.268-2.266A2.267,2.267,0,0,1,414.924,136.316Z" transform="translate(-103.751 -104.387)"/><path class="b" d="M391.205,147.9a2.266,2.266,0,1,1-2.266-2.266A2.265,2.265,0,0,1,391.205,147.9Z" transform="translate(-140.753 -86.311)"/><path class="b" d="M403.064,147.9a2.266,2.266,0,1,1-2.266-2.266A2.265,2.265,0,0,1,403.064,147.9Z" transform="translate(-122.252 -86.311)"/><ellipse class="b" cx="2.266" cy="2.266" rx="2.266" ry="2.266" transform="translate(306.64 59.326)"/><path class="b" d="M391.205,159.808a2.266,2.266,0,1,1-2.266-2.266A2.267,2.267,0,0,1,391.205,159.808Z" transform="translate(-140.753 -67.735)"/><path class="b" d="M403.064,159.808a2.266,2.266,0,1,1-2.266-2.266A2.267,2.267,0,0,1,403.064,159.808Z" transform="translate(-122.252 -67.735)"/><ellipse class="b" cx="2.266" cy="2.266" rx="2.266" ry="2.266" transform="translate(306.64 89.806)"/><path class="b" d="M391.205,171.393a2.266,2.266,0,1,1-2.266-2.266A2.267,2.267,0,0,1,391.205,171.393Z" transform="translate(-140.753 -49.66)"/><path class="b" d="M403.064,171.393a2.266,2.266,0,1,1-2.266-2.266A2.267,2.267,0,0,1,403.064,171.393Z" transform="translate(-122.252 -49.66)"/><ellipse class="b" cx="2.266" cy="2.266" rx="2.266" ry="2.266" transform="translate(306.64 119.468)"/><path class="b" d="M391.205,182.979a2.266,2.266,0,1,1-2.266-2.266A2.265,2.265,0,0,1,391.205,182.979Z" transform="translate(-140.753 -31.583)"/><path class="b" d="M403.064,182.979a2.266,2.266,0,1,1-2.266-2.266A2.265,2.265,0,0,1,403.064,182.979Z" transform="translate(-122.252 -31.583)"/><ellipse class="b" cx="2.266" cy="2.266" rx="2.266" ry="2.266" transform="translate(306.64 149.13)"/></g><g transform="translate(132.887 4195.542)"><path class="b" d="M295.151,124.732a2.266,2.266,0,1,1-2.266-2.268A2.267,2.267,0,0,1,295.151,124.732Z" transform="translate(-290.619 -122.464)"/><path class="b" d="M307.009,124.732a2.266,2.266,0,1,1-2.266-2.268A2.267,2.267,0,0,1,307.009,124.732Z" transform="translate(-272.118 -122.464)"/><ellipse class="b" cx="2.266" cy="2.266" rx="2.266" ry="2.266" transform="translate(60.72 0.001)"/><path class="b" d="M330.725,124.732a2.266,2.266,0,1,1-2.266-2.268A2.267,2.267,0,0,1,330.725,124.732Z" transform="translate(-235.114 -122.464)"/><path class="b" d="M295.151,136.316a2.266,2.266,0,1,1-2.266-2.266A2.265,2.265,0,0,1,295.151,136.316Z" transform="translate(-290.619 -104.387)"/><path class="b" d="M307.009,136.316a2.266,2.266,0,1,1-2.266-2.266A2.265,2.265,0,0,1,307.009,136.316Z" transform="translate(-272.118 -104.387)"/><path class="b" d="M318.868,136.316a2.266,2.266,0,1,1-2.266-2.266A2.265,2.265,0,0,1,318.868,136.316Z" transform="translate(-253.615 -104.387)"/><path class="b" d="M330.725,136.316a2.266,2.266,0,1,1-2.266-2.266A2.265,2.265,0,0,1,330.725,136.316Z" transform="translate(-235.114 -104.387)"/><path class="b" d="M295.151,147.9a2.266,2.266,0,1,1-2.266-2.266A2.265,2.265,0,0,1,295.151,147.9Z" transform="translate(-290.619 -86.311)"/><path class="b" d="M307.009,147.9a2.266,2.266,0,1,1-2.266-2.266A2.265,2.265,0,0,1,307.009,147.9Z" transform="translate(-272.118 -86.311)"/><ellipse class="b" cx="2.266" cy="2.266" rx="2.266" ry="2.266" transform="translate(60.72 59.326)"/><path class="b" d="M330.725,147.9a2.266,2.266,0,1,1-2.266-2.266A2.265,2.265,0,0,1,330.725,147.9Z" transform="translate(-235.114 -86.311)"/><path class="b" d="M295.151,159.808a2.266,2.266,0,1,1-2.266-2.266A2.267,2.267,0,0,1,295.151,159.808Z" transform="translate(-290.619 -67.735)"/><path class="b" d="M307.009,159.808a2.266,2.266,0,1,1-2.266-2.266A2.267,2.267,0,0,1,307.009,159.808Z" transform="translate(-272.118 -67.735)"/><ellipse class="b" cx="2.266" cy="2.266" rx="2.266" ry="2.266" transform="translate(60.72 89.806)"/><path class="b" d="M330.725,159.808a2.266,2.266,0,1,1-2.266-2.266A2.267,2.267,0,0,1,330.725,159.808Z" transform="translate(-235.114 -67.735)"/><path class="b" d="M295.151,171.393a2.266,2.266,0,1,1-2.266-2.266A2.267,2.267,0,0,1,295.151,171.393Z" transform="translate(-290.619 -49.66)"/><path class="b" d="M307.009,171.393a2.266,2.266,0,1,1-2.266-2.266A2.267,2.267,0,0,1,307.009,171.393Z" transform="translate(-272.118 -49.66)"/><ellipse class="b" cx="2.266" cy="2.266" rx="2.266" ry="2.266" transform="translate(60.72 119.468)"/><path class="b" d="M330.725,171.393a2.266,2.266,0,1,1-2.266-2.266A2.267,2.267,0,0,1,330.725,171.393Z" transform="translate(-235.114 -49.66)"/><path class="b" d="M295.151,182.979a2.266,2.266,0,1,1-2.266-2.266A2.265,2.265,0,0,1,295.151,182.979Z" transform="translate(-290.619 -31.583)"/><path class="b" d="M307.009,182.979a2.266,2.266,0,1,1-2.266-2.266A2.265,2.265,0,0,1,307.009,182.979Z" transform="translate(-272.118 -31.583)"/><ellipse class="b" cx="2.266" cy="2.266" rx="2.266" ry="2.266" transform="translate(60.72 149.13)"/><path class="b" d="M330.725,182.979a2.266,2.266,0,1,1-2.266-2.266A2.265,2.265,0,0,1,330.725,182.979Z" transform="translate(-235.114 -31.583)"/><ellipse class="b" cx="2.266" cy="2.266" rx="2.266" ry="2.266" transform="translate(122.96 0.001)"/><ellipse class="b" cx="2.266" cy="2.266" rx="2.266" ry="2.266" transform="translate(153.32 0.001)"/><path class="b" d="M366.895,124.732a2.266,2.266,0,1,1-2.266-2.268A2.267,2.267,0,0,1,366.895,124.732Z" transform="translate(-178.683 -122.464)"/><path class="b" d="M378.755,124.732a2.267,2.267,0,1,1-2.268-2.268A2.269,2.269,0,0,1,378.755,124.732Z" transform="translate(-160.182 -122.464)"/><path class="b" d="M343.177,136.316a2.266,2.266,0,1,1-2.266-2.266A2.265,2.265,0,0,1,343.177,136.316Z" transform="translate(-215.687 -104.387)"/><path class="b" d="M355.037,136.316a2.266,2.266,0,1,1-2.266-2.266A2.265,2.265,0,0,1,355.037,136.316Z" transform="translate(-197.184 -104.387)"/><path class="b" d="M366.895,136.316a2.266,2.266,0,1,1-2.266-2.266A2.265,2.265,0,0,1,366.895,136.316Z" transform="translate(-178.683 -104.387)"/><path class="b" d="M378.755,136.316a2.267,2.267,0,1,1-2.268-2.266A2.267,2.267,0,0,1,378.755,136.316Z" transform="translate(-160.182 -104.387)"/><ellipse class="b" cx="2.266" cy="2.266" rx="2.266" ry="2.266" transform="translate(122.96 59.326)"/><ellipse class="b" cx="2.266" cy="2.266" rx="2.266" ry="2.266" transform="translate(153.32 59.326)"/><path class="b" d="M366.895,147.9a2.266,2.266,0,1,1-2.266-2.266A2.265,2.265,0,0,1,366.895,147.9Z" transform="translate(-178.683 -86.311)"/><path class="b" d="M378.755,147.9a2.267,2.267,0,1,1-2.268-2.266A2.267,2.267,0,0,1,378.755,147.9Z" transform="translate(-160.182 -86.311)"/><ellipse class="b" cx="2.266" cy="2.266" rx="2.266" ry="2.266" transform="translate(122.96 89.806)"/><ellipse class="b" cx="2.266" cy="2.266" rx="2.266" ry="2.266" transform="translate(153.32 89.806)"/><path class="b" d="M366.895,159.808a2.266,2.266,0,1,1-2.266-2.266A2.267,2.267,0,0,1,366.895,159.808Z" transform="translate(-178.683 -67.735)"/><path class="b" d="M378.755,159.808a2.267,2.267,0,1,1-2.268-2.266A2.269,2.269,0,0,1,378.755,159.808Z" transform="translate(-160.182 -67.735)"/><ellipse class="b" cx="2.266" cy="2.266" rx="2.266" ry="2.266" transform="translate(122.96 119.468)"/><ellipse class="b" cx="2.266" cy="2.266" rx="2.266" ry="2.266" transform="translate(153.32 119.468)"/><path class="b" d="M366.895,171.393a2.266,2.266,0,1,1-2.266-2.266A2.267,2.267,0,0,1,366.895,171.393Z" transform="translate(-178.683 -49.66)"/><path class="b" d="M378.755,171.393a2.267,2.267,0,1,1-2.268-2.266A2.269,2.269,0,0,1,378.755,171.393Z" transform="translate(-160.182 -49.66)"/><ellipse class="b" cx="2.266" cy="2.266" rx="2.266" ry="2.266" transform="translate(122.96 149.13)"/><ellipse class="b" cx="2.266" cy="2.266" rx="2.266" ry="2.266" transform="translate(153.32 149.13)"/><path class="b" d="M366.895,182.979a2.266,2.266,0,1,1-2.266-2.266A2.265,2.265,0,0,1,366.895,182.979Z" transform="translate(-178.683 -31.583)"/><path class="b" d="M378.755,182.979a2.267,2.267,0,1,1-2.268-2.266A2.267,2.267,0,0,1,378.755,182.979Z" transform="translate(-160.182 -31.583)"/><path class="b" d="M391.205,124.732a2.266,2.266,0,1,1-2.266-2.268A2.267,2.267,0,0,1,391.205,124.732Z" transform="translate(-140.753 -122.464)"/><path class="b" d="M403.064,124.732a2.266,2.266,0,1,1-2.266-2.268A2.267,2.267,0,0,1,403.064,124.732Z" transform="translate(-122.252 -122.464)"/><ellipse class="b" cx="2.266" cy="2.266" rx="2.266" ry="2.266" transform="translate(306.64 0.001)"/><path class="b" d="M391.205,136.316a2.266,2.266,0,1,1-2.266-2.266A2.265,2.265,0,0,1,391.205,136.316Z" transform="translate(-140.753 -104.387)"/><path class="b" d="M403.064,136.316a2.266,2.266,0,1,1-2.266-2.266A2.265,2.265,0,0,1,403.064,136.316Z" transform="translate(-122.252 -104.387)"/><path class="b" d="M414.924,136.316a2.267,2.267,0,1,1-2.268-2.266A2.267,2.267,0,0,1,414.924,136.316Z" transform="translate(-103.751 -104.387)"/><path class="b" d="M391.205,147.9a2.266,2.266,0,1,1-2.266-2.266A2.265,2.265,0,0,1,391.205,147.9Z" transform="translate(-140.753 -86.311)"/><path class="b" d="M403.064,147.9a2.266,2.266,0,1,1-2.266-2.266A2.265,2.265,0,0,1,403.064,147.9Z" transform="translate(-122.252 -86.311)"/><ellipse class="b" cx="2.266" cy="2.266" rx="2.266" ry="2.266" transform="translate(306.64 59.326)"/><path class="b" d="M391.205,159.808a2.266,2.266,0,1,1-2.266-2.266A2.267,2.267,0,0,1,391.205,159.808Z" transform="translate(-140.753 -67.735)"/><path class="b" d="M403.064,159.808a2.266,2.266,0,1,1-2.266-2.266A2.267,2.267,0,0,1,403.064,159.808Z" transform="translate(-122.252 -67.735)"/><ellipse class="b" cx="2.266" cy="2.266" rx="2.266" ry="2.266" transform="translate(306.64 89.806)"/><path class="b" d="M391.205,171.393a2.266,2.266,0,1,1-2.266-2.266A2.267,2.267,0,0,1,391.205,171.393Z" transform="translate(-140.753 -49.66)"/><path class="b" d="M403.064,171.393a2.266,2.266,0,1,1-2.266-2.266A2.267,2.267,0,0,1,403.064,171.393Z" transform="translate(-122.252 -49.66)"/><ellipse class="b" cx="2.266" cy="2.266" rx="2.266" ry="2.266" transform="translate(306.64 119.468)"/><path class="b" d="M391.205,182.979a2.266,2.266,0,1,1-2.266-2.266A2.265,2.265,0,0,1,391.205,182.979Z" transform="translate(-140.753 -31.583)"/><path class="b" d="M403.064,182.979a2.266,2.266,0,1,1-2.266-2.266A2.265,2.265,0,0,1,403.064,182.979Z" transform="translate(-122.252 -31.583)"/><ellipse class="b" cx="2.266" cy="2.266" rx="2.266" ry="2.266" transform="translate(306.64 149.13)"/></g><path class="c" d="M1657.5,705.96a2.908,2.908,0,0,1,5.816,0v13.082a2.908,2.908,0,1,1-5.816,0V705.96Zm-19.833,10.624a2.909,2.909,0,1,1,4.113-4.116l9.255,9.253a2.91,2.91,0,0,1-4.113,4.117l-9.255-9.254Zm-6.51,21.537a2.911,2.911,0,1,1,0-5.823h13.086a2.912,2.912,0,0,1,0,5.823Zm10.623,19.835a2.909,2.909,0,0,1-4.113-4.116l9.255-9.254a2.909,2.909,0,0,1,4.113,4.116l-9.255,9.254Zm21.536,6.508a2.908,2.908,0,0,1-5.816,0V751.372a2.908,2.908,0,0,1,5.816,0v13.092Zm19.833-10.624a2.91,2.91,0,0,1-4.116,4.116l-9.255-9.254a2.91,2.91,0,0,1,4.116-4.116l9.255,9.254Zm6.509-21.542a2.911,2.911,0,1,1,0,5.823h-13.086a2.911,2.911,0,0,1,0-5.823Zm-10.625-19.83a2.91,2.91,0,0,1,4.116,4.116l-9.255,9.254a2.911,2.911,0,0,1-4.116-4.117Z" transform="translate(-1457.723 3841.498)"/></g><g transform="translate(-0.427 4582)"><g class="d"><path class="a" d="M1486.871,77.737c-10.717,26.335-79.6,62.5-142.863,67.865-285.346,24.207-267.135,123.611-413.18,224.379-122.35,74.719-281.311,47.132-344.216-41.613C138.158-154.009,1603.117-309.528,1486.871,77.737Z" transform="translate(-942.959 -124.194)"/><path class="a" d="M1230.866,514.471c-23.393-40.1-86.005-70.99-146.111-97.315s-151.147-38.238-213.494-13.516c-25,9.911-42.9,24.663-69.21,33.5-51.545,17.31-117.394,7.4-177.766,5.235C555.269,439.9,483.2,449.2,429.545,473.045s-85.737,63.315-72.439,100.4c12.435,34.682,61.8,62.917,119.513,78.869s123.249,21.221,187.748,23.879C911.848,686.389,1304.124,640.056,1230.866,514.471Z" transform="translate(-515.256 247.76)"/><g transform="translate(510.045 883.718)"><g class="e" transform="translate(0 0)"><path class="f" d="M673.961,781.867h42.465c22.855,0,41.554,11.4,41.554,25.343h0c0,13.939-18.7,25.343-41.554,25.343H357.358c-37.009,0-67.288-18.467-67.288-41.037h0c0-22.571,30.279-41.038,67.287-41.038h0c15.648,0,28.45-7.808,28.45-17.351h0c0-9.543-12.8-17.352-28.451-17.352h-34.24c-16.269,0-29.58-8.118-29.58-18.04h0c0-9.922,13.311-18.04,29.58-18.04h43.3c6.333,0,11.516-3.161,11.516-7.023h0c0-3.862-5.183-7.023-11.516-7.023h-7.633c-4.371,0-7.947-2.182-7.947-4.847h0c0-2.666,3.576-4.847,7.947-4.847h50.084c10.548,0,11.722,7.6,38.366,7.6H524c5.7,0,10.371,2.847,10.371,6.324h0c0,3.478-4.667,6.324-10.371,6.324h-9.959c-8.265,0-15.027,4.125-15.027,9.164h0c0,5.04,6.762,9.165,15.027,9.165h14.988c40.474,0,46.19,6.451,53.279,19.281s43.9,13.865,43.9,13.865h50.34c12.455,0,22.645,6.215,22.645,13.81h0c0,7.6-10.19,13.81-22.645,13.81h-2.592c-11.979,0-21.781,5.978-21.781,13.284h0c0,7.306,9.8,13.283,21.781,13.283ZM336.479,665.649c4.39,0,7.948-2.171,7.948-4.847s-3.558-4.847-7.948-4.847-7.948,2.171-7.948,4.847S332.09,665.649,336.479,665.649Z" transform="translate(-502.612 -640.403)"/><path class="f" d="M-341.488,767.367h42.465c22.856,0,41.554,11.4,41.554,25.343h0c0,13.939-18.7,25.343-41.554,25.343H-658.091c-37.009,0-67.288-18.467-67.288-41.037h0c0-22.571,30.279-41.037,67.287-41.037h0c15.648,0,28.45-7.808,28.45-17.352h0c0-9.543-12.8-17.352-28.451-17.352h-34.24c-16.269,0-29.579-8.118-29.579-18.04h0c0-9.922,13.31-18.04,29.579-18.04h43.3c6.334,0,11.516-3.16,11.516-7.023h0c0-3.862-5.182-7.023-11.516-7.023h-7.633c-4.37,0-7.947-2.182-7.947-4.847h0c0-2.666,3.577-4.847,7.947-4.847h50.084c10.548,0,11.723,7.6,38.366,7.6h76.768c5.705,0,10.371,2.847,10.371,6.325h0c0,3.478-4.667,6.325-10.371,6.325h-9.959c-8.265,0-15.027,4.124-15.027,9.164h0c0,5.04,6.762,9.165,15.027,9.165h14.988c40.474,0,46.191,6.451,53.279,19.281s43.905,13.865,43.905,13.865h50.34c12.455,0,22.645,6.215,22.645,13.81h0c0,7.6-10.19,13.81-22.645,13.81h-2.592c-11.979,0-21.78,5.978-21.78,13.284h0c0,7.306,9.8,13.283,21.78,13.283ZM-678.97,651.149c4.39,0,7.948-2.17,7.948-4.847s-3.558-4.847-7.948-4.847-7.948,2.171-7.948,4.847S-683.358,651.149-678.97,651.149Z" transform="translate(1528.286 -634.746)"/><path class="f" d="M202.455,447.729l41.365-.857,1.075-.022c22.843-.473,40.9-12.259,40.12-26.189h0c-.776-13.931-20.1-24.941-42.941-24.468L120.831,398.7l-20.881.432-216.737,4.491c-36.988.767-66.222,19.849-64.965,42.407h0c1.256,22.558,32.546,40.386,69.533,39.62h0c15.639-.324,28.868,7.214,29.4,16.752h0c.531,9.538-11.829,17.607-27.468,17.931l-34.221.709c-16.259.337-29.11,8.726-28.558,18.642h0c.553,9.916,14.307,17.754,30.567,17.417l43.273-.9c6.33-.131,11.685,2.92,11.9,6.781h0c.215,3.861-4.788,7.127-11.118,7.258l-7.629.158c-4.368.09-7.821,2.344-7.672,5.009h0c.148,2.665,3.844,4.771,8.212,4.68l28.59-.593,21.465-.445c10.542-.218,11.293-7.838,37.921-8.389l76.723-1.59c5.7-.118,10.207-3.06,10.013-6.535h0c-.193-3.476-5.016-6.224-10.717-6.106l-9.953.206c-8.26.171-15.247-3.811-15.528-8.848h0c-.281-5.037,6.248-9.3,14.508-9.47l14.979-.31c40.45-.838,45.805-7.4,52.175-20.373s43.108-14.766,43.108-14.766l50.311-1.042c12.447-.258,22.286-6.68,21.863-14.272h0c-.423-7.591-10.953-13.591-23.4-13.334l-2.59.054c-11.973.248-22.1-5.523-22.508-12.825h0c-.407-7.3,9.056-13.479,21.029-13.727ZM-128.363,570.868c4.387-.091,8.065,2,8.214,4.68s-3.287,4.919-7.674,5.01-8.064-2-8.213-4.68S-132.749,570.958-128.363,570.868Z" transform="translate(442.19 -539.059)"/></g></g></g><path class="f" d="M975.143,524.425H1083.01c58.055,0,105.553,47.5,105.553,105.553h0c0,58.055-47.5,105.553-105.553,105.553H170.922C76.913,735.532,0,658.619,0,564.613H0C0,470.6,76.913,393.691,170.919,393.691h0a72.478,72.478,0,0,0,72.267-72.267h0a72.483,72.483,0,0,0-72.27-72.27H83.944A75.358,75.358,0,0,1,8.807,174.019h0A75.359,75.359,0,0,1,83.944,98.881H193.928A29.341,29.341,0,0,0,223.18,69.628h0a29.339,29.339,0,0,0-29.252-29.25H174.539a20.248,20.248,0,0,1-20.187-20.189h0A20.248,20.248,0,0,1,174.539,0H301.76c26.794,0,29.776,31.653,97.456,31.653h195a26.423,26.423,0,0,1,26.344,26.341v0a26.421,26.421,0,0,1-26.344,26.341h-25.3a38.284,38.284,0,0,0-38.171,38.168v0a38.284,38.284,0,0,0,38.171,38.171h38.072c102.81,0,117.33,26.867,135.337,80.3s111.525,57.748,111.525,57.748H981.727a57.69,57.69,0,0,1,57.522,57.52v0a57.689,57.689,0,0,1-57.522,57.519h-6.584A55.492,55.492,0,0,0,919.816,469.1h0a55.49,55.49,0,0,0,55.327,55.325ZM117.886,40.378A20.189,20.189,0,1,0,97.7,20.189,20.189,20.189,0,0,0,117.886,40.378Z" transform="translate(1234.992 -35.998)"/></g><g transform="translate(795.195 5114)"><path class="b" d="M15.71,35.112a2.4,2.4,0,1,1-2.4-2.4A2.395,2.395,0,0,1,15.71,35.112Z" transform="translate(-10.919 -32.716)"/><path class="b" d="M59.112,35.112a2.4,2.4,0,1,1-2.4-2.4A2.395,2.395,0,0,1,59.112,35.112Z" transform="translate(-22.228 -32.716)"/><circle class="b" cx="2.395" cy="2.395" r="2.395" transform="translate(64.187 0)"/><path class="b" d="M145.917,35.112a2.4,2.4,0,1,1-2.4-2.4A2.395,2.395,0,0,1,145.917,35.112Z" transform="translate(-44.845 -32.716)"/><path class="b" d="M15.71,77.516a2.4,2.4,0,1,1-2.4-2.4A2.4,2.4,0,0,1,15.71,77.516Z" transform="translate(-10.919 -43.765)"/><path class="b" d="M59.112,77.516a2.4,2.4,0,1,1-2.4-2.4A2.4,2.4,0,0,1,59.112,77.516Z" transform="translate(-22.228 -43.765)"/><path class="b" d="M102.515,77.516a2.4,2.4,0,1,1-2.4-2.4A2.4,2.4,0,0,1,102.515,77.516Z" transform="translate(-33.537 -43.765)"/><path class="b" d="M145.917,77.516a2.4,2.4,0,1,1-2.4-2.4A2.4,2.4,0,0,1,145.917,77.516Z" transform="translate(-44.845 -43.765)"/><path class="b" d="M15.71,119.921a2.4,2.4,0,1,1-2.4-2.4A2.4,2.4,0,0,1,15.71,119.921Z" transform="translate(-10.919 -54.814)"/><path class="b" d="M59.112,119.921a2.4,2.4,0,1,1-2.4-2.4A2.4,2.4,0,0,1,59.112,119.921Z" transform="translate(-22.228 -54.814)"/><circle class="b" cx="2.395" cy="2.395" r="2.395" transform="translate(64.187 62.712)"/><path class="b" d="M145.917,119.921a2.4,2.4,0,1,1-2.4-2.4A2.4,2.4,0,0,1,145.917,119.921Z" transform="translate(-44.845 -54.814)"/><path class="b" d="M15.71,163.5a2.4,2.4,0,1,1-2.4-2.4A2.395,2.395,0,0,1,15.71,163.5Z" transform="translate(-10.919 -66.167)"/><path class="b" d="M59.112,163.5a2.4,2.4,0,1,1-2.4-2.4A2.395,2.395,0,0,1,59.112,163.5Z" transform="translate(-22.228 -66.167)"/><circle class="b" cx="2.395" cy="2.395" r="2.395" transform="translate(64.187 94.933)"/><path class="b" d="M145.917,163.5a2.4,2.4,0,1,1-2.4-2.4A2.395,2.395,0,0,1,145.917,163.5Z" transform="translate(-44.845 -66.167)"/><path class="b" d="M15.71,205.9a2.4,2.4,0,1,1-2.4-2.4A2.395,2.395,0,0,1,15.71,205.9Z" transform="translate(-10.919 -77.216)"/><path class="b" d="M59.112,205.9a2.4,2.4,0,1,1-2.4-2.4A2.395,2.395,0,0,1,59.112,205.9Z" transform="translate(-22.228 -77.216)"/><circle class="b" cx="2.395" cy="2.395" r="2.395" transform="translate(64.187 126.289)"/><path class="b" d="M145.917,205.9a2.4,2.4,0,1,1-2.4-2.4A2.395,2.395,0,0,1,145.917,205.9Z" transform="translate(-44.845 -77.216)"/><path class="b" d="M15.71,248.306a2.4,2.4,0,1,1-2.4-2.4A2.395,2.395,0,0,1,15.71,248.306Z" transform="translate(-10.919 -88.265)"/><path class="b" d="M59.112,248.306a2.4,2.4,0,1,1-2.4-2.4A2.395,2.395,0,0,1,59.112,248.306Z" transform="translate(-22.228 -88.265)"/><circle class="b" cx="2.395" cy="2.395" r="2.395" transform="translate(64.187 157.645)"/><path class="b" d="M145.917,248.306a2.4,2.4,0,1,1-2.4-2.4A2.395,2.395,0,0,1,145.917,248.306Z" transform="translate(-44.845 -88.265)"/><circle class="b" cx="2.395" cy="2.395" r="2.395" transform="translate(129.982 0)"/><circle class="b" cx="2.395" cy="2.395" r="2.395" transform="translate(162.075 0)"/><path class="b" d="M278.3,35.112a2.4,2.4,0,1,1-2.4-2.4A2.4,2.4,0,0,1,278.3,35.112Z" transform="translate(-79.338 -32.716)"/><path class="b" d="M321.7,35.112a2.4,2.4,0,1,1-2.4-2.4A2.4,2.4,0,0,1,321.7,35.112Z" transform="translate(-90.647 -32.716)"/><path class="b" d="M191.493,77.516a2.4,2.4,0,1,1-2.4-2.4A2.4,2.4,0,0,1,191.493,77.516Z" transform="translate(-56.72 -43.765)"/><path class="b" d="M234.895,77.516a2.4,2.4,0,1,1-2.4-2.4A2.4,2.4,0,0,1,234.895,77.516Z" transform="translate(-68.029 -43.765)"/><path class="b" d="M278.3,77.516a2.4,2.4,0,1,1-2.4-2.4A2.4,2.4,0,0,1,278.3,77.516Z" transform="translate(-79.338 -43.765)"/><path class="b" d="M321.7,77.516a2.4,2.4,0,1,1-2.4-2.4A2.4,2.4,0,0,1,321.7,77.516Z" transform="translate(-90.647 -43.765)"/><circle class="b" cx="2.395" cy="2.395" r="2.395" transform="translate(129.982 62.712)"/><circle class="b" cx="2.395" cy="2.395" r="2.395" transform="translate(162.075 62.712)"/><path class="b" d="M278.3,119.921a2.4,2.4,0,1,1-2.4-2.4A2.4,2.4,0,0,1,278.3,119.921Z" transform="translate(-79.338 -54.814)"/><path class="b" d="M321.7,119.921a2.4,2.4,0,1,1-2.4-2.4A2.4,2.4,0,0,1,321.7,119.921Z" transform="translate(-90.647 -54.814)"/><circle class="b" cx="2.395" cy="2.395" r="2.395" transform="translate(129.982 94.933)"/><circle class="b" cx="2.395" cy="2.395" r="2.395" transform="translate(162.075 94.933)"/><path class="b" d="M278.3,163.5a2.4,2.4,0,1,1-2.4-2.4A2.4,2.4,0,0,1,278.3,163.5Z" transform="translate(-79.338 -66.167)"/><path class="b" d="M321.7,163.5a2.4,2.4,0,1,1-2.4-2.4A2.4,2.4,0,0,1,321.7,163.5Z" transform="translate(-90.647 -66.167)"/><circle class="b" cx="2.395" cy="2.395" r="2.395" transform="translate(129.982 126.289)"/><circle class="b" cx="2.395" cy="2.395" r="2.395" transform="translate(162.075 126.289)"/><path class="b" d="M278.3,205.9a2.4,2.4,0,1,1-2.4-2.4A2.4,2.4,0,0,1,278.3,205.9Z" transform="translate(-79.338 -77.216)"/><path class="b" d="M321.7,205.9a2.4,2.4,0,1,1-2.4-2.4A2.4,2.4,0,0,1,321.7,205.9Z" transform="translate(-90.647 -77.216)"/><circle class="b" cx="2.395" cy="2.395" r="2.395" transform="translate(129.982 157.645)"/><circle class="b" cx="2.395" cy="2.395" r="2.395" transform="translate(162.075 157.645)"/><path class="b" d="M278.3,248.306a2.4,2.4,0,1,1-2.4-2.4A2.4,2.4,0,0,1,278.3,248.306Z" transform="translate(-79.338 -88.265)"/><path class="b" d="M321.7,248.306a2.4,2.4,0,1,1-2.4-2.4A2.4,2.4,0,0,1,321.7,248.306Z" transform="translate(-90.647 -88.265)"/><path class="b" d="M367.276,35.112a2.4,2.4,0,1,1-2.4-2.4A2.4,2.4,0,0,1,367.276,35.112Z" transform="translate(-102.522 -32.716)"/><path class="b" d="M410.678,35.112a2.4,2.4,0,1,1-2.4-2.4A2.395,2.395,0,0,1,410.678,35.112Z" transform="translate(-113.83 -32.716)"/><circle class="b" cx="2.395" cy="2.395" r="2.395" transform="translate(324.15 0)"/><path class="b" d="M367.276,77.516a2.4,2.4,0,1,1-2.4-2.4A2.4,2.4,0,0,1,367.276,77.516Z" transform="translate(-102.522 -43.765)"/><path class="b" d="M410.678,77.516a2.4,2.4,0,1,1-2.4-2.4A2.4,2.4,0,0,1,410.678,77.516Z" transform="translate(-113.83 -43.765)"/><path class="b" d="M454.081,77.516a2.4,2.4,0,1,1-2.4-2.4A2.4,2.4,0,0,1,454.081,77.516Z" transform="translate(-125.139 -43.765)"/><path class="b" d="M367.276,119.921a2.4,2.4,0,1,1-2.4-2.4A2.4,2.4,0,0,1,367.276,119.921Z" transform="translate(-102.522 -54.814)"/><path class="b" d="M410.678,119.921a2.4,2.4,0,1,1-2.4-2.4A2.4,2.4,0,0,1,410.678,119.921Z" transform="translate(-113.83 -54.814)"/><circle class="b" cx="2.395" cy="2.395" r="2.395" transform="translate(324.15 62.712)"/><path class="b" d="M367.276,163.5a2.4,2.4,0,1,1-2.4-2.4A2.4,2.4,0,0,1,367.276,163.5Z" transform="translate(-102.522 -66.167)"/><path class="b" d="M410.678,163.5a2.4,2.4,0,1,1-2.4-2.4A2.395,2.395,0,0,1,410.678,163.5Z" transform="translate(-113.83 -66.167)"/><circle class="b" cx="2.395" cy="2.395" r="2.395" transform="translate(324.15 94.933)"/><path class="b" d="M367.276,205.9a2.4,2.4,0,1,1-2.4-2.4A2.4,2.4,0,0,1,367.276,205.9Z" transform="translate(-102.522 -77.216)"/><path class="b" d="M410.678,205.9a2.4,2.4,0,1,1-2.4-2.4A2.395,2.395,0,0,1,410.678,205.9Z" transform="translate(-113.83 -77.216)"/><circle class="b" cx="2.395" cy="2.395" r="2.395" transform="translate(324.15 126.289)"/><path class="b" d="M367.276,248.306a2.4,2.4,0,1,1-2.4-2.4A2.4,2.4,0,0,1,367.276,248.306Z" transform="translate(-102.522 -88.265)"/><path class="b" d="M410.678,248.306a2.4,2.4,0,1,1-2.4-2.4A2.395,2.395,0,0,1,410.678,248.306Z" transform="translate(-113.83 -88.265)"/><circle class="b" cx="2.395" cy="2.395" r="2.395" transform="translate(324.15 157.645)"/></g></g></svg>