<?xml version="1.0" encoding="utf-8"?>
<!-- Generator: Adobe Illustrator 24.2.0, SVG Export Plug-In . SVG Version: 6.00 Build 0)  -->
<svg version="1.1" id="Layer_1" xmlns="http://www.w3.org/2000/svg" xmlns:xlink="http://www.w3.org/1999/xlink" x="0px" y="0px"
	 viewBox="0 0 3360.1 1328.4" style="enable-background:new 0 0 3360.1 1328.4;" xml:space="preserve">
<style type="text/css">
	.st0{fill-rule:evenodd;clip-rule:evenodd;fill:#1D5F92;}
	.st1{fill:none;stroke:#1F74A3;stroke-width:3;}
	.st2{fill:#0673B8;}
	.st3{fill-rule:evenodd;clip-rule:evenodd;fill:#1F74A3;}
	.st4{fill:#256AA0;stroke:#286EA5;stroke-width:2;stroke-miterlimit:4;}
	.st5{fill-rule:evenodd;clip-rule:evenodd;fill:#256AA0;}
	.st6{fill:#256AA0;stroke:#256AA0;stroke-width:2;}
	.st7{fill:#1F74A3;}
	.st8{fill:#1671B9;}
</style>
<path class="st0" d="M2151,1062.1h-133.7c-72,0-130.8,59.9-130.8,133.2l0,0c0,73.2,58.9,133.2,130.8,133.2h1238.3
	c116.5,0,104-97,104-215.6l0,0c0-118.6-95.3-215.6-211.9-215.6l0,0c-49.3,0-89.6-41-89.6-91.2l0,0c0-50.1,40.3-91.2,89.6-91.2h107.8
	c51.2,0,93.1-42.7,93.1-94.8l0,0c0-52.1-41.9-94.8-93.1-94.8h-136.3c-19.9,0-36.3-16.6-36.3-36.9l0,0c0-20.3,16.3-36.9,36.3-36.9h24
	c13.8,0,25-11.5,25-25.5l0,0c0-14-11.3-25.5-25-25.5h-157.7c-33.2,0-36.9,39.9-120.8,39.9h-241.7c-18,0-32.7,15-32.7,33.2l0,0
	c0,18.3,14.7,33.2,32.7,33.2h31.4c26,0,47.3,21.7,47.3,48.1l0,0c0,26.5-21.3,48.1-47.3,48.1h-47.2c-127.4,0-145.4,33.9-167.8,101.3
	c-22.3,67.4-138.2,72.8-138.2,72.8h-158.5c-39.2,0-71.3,32.7-71.3,72.6l0,0c0,39.9,32.1,72.6,71.3,72.6h8.2
	c37.7,0,68.6,31.4,68.6,69.8l0,0C2219.6,1030.7,2188.7,1062.1,2151,1062.1L2151,1062.1z M3213.6,451.5c-14.1,0.2-25.7-11-25.9-25
	s11-25.7,25-25.9c14.1-0.2,25.7,11,25.9,25c0,0.1,0,0.3,0,0.4C3238.7,439.9,3227.5,451.3,3213.6,451.5z"/>
<path class="st0" d="M300.2,281.7H148.5C66.8,281.7,0,218.3,0,140.9l0,0C0,63.4,66.8,0,148.5,0h1405.1
	c132.2,0,118.1,102.6,118.1,228.1l0,0c0,125.5-108.2,228.1-240.4,228.1l0,0c-55.9,0-101.6,43.4-101.6,96.4l0,0
	c0,53,45.7,96.4,101.6,96.4h122.3c58.1,0,105.7,45.1,105.7,100.3l0,0c0,55.2-47.6,100.3-105.7,100.3h-154.7
	c-22.6,0-41.1,17.6-41.1,39l0,0c0,21.5,18.5,39,41.1,39h27.3c15.6,0,28.4,12.1,28.4,26.9l0,0c0,14.8-12.8,26.9-28.4,26.9h-178.9
	c-37.7,0-41.9-42.2-137.1-42.2H835.9c-20.4,0-37.1-15.8-37.1-35.2l0,0c0-19.3,16.7-35.2,37.1-35.2h35.6c29.5,0,53.7-22.9,53.7-50.9
	l0,0c0-28-24.2-50.9-53.7-50.9H818c-144.6,0-165-35.9-190.3-107.2s-156.9-77.1-156.9-77.1H290.9c-44.5,0-80.9-34.5-80.9-76.8l0,0
	c0-42.2,36.4-76.8,80.9-76.8h9.3c42.8,0,77.8-33.2,77.8-73.8l0,0C378,315,343,281.7,300.2,281.7L300.2,281.7z M1505.9,927.7
	c-15.7,0-28.4,12.1-28.4,26.9s12.7,26.9,28.4,26.9s28.4-12.1,28.4-26.9S1521.5,927.7,1505.9,927.7L1505.9,927.7z"/>
<path class="st1" d="M1205,708c11.5-11.5,30.1-11.5,41.6,0c11.5,11.5,11.5,30.1,0,41.6s-30.1,11.5-41.6,0c-5.5-5.5-8.6-13-8.6-20.8
	C1196.4,721,1199.5,713.5,1205,708z M1211.4,678.8c-4,1.2-7.9,2.8-11.5,4.9c-3.7,2.1-7.1,4.7-10.1,7.6c-0.6,0.6-1.5,0.7-2.2,0.3
	l-13.7-7.9l-0.1,0c-1.6-0.9-3.6-0.3-4.5,1.3l-0.1,0.1l-9.6,16.6c-0.9,1.6-0.4,3.7,1.2,4.6l0.1,0.1l13.5,7.8c0.7,0.4,1,1.2,0.8,2h0
	c-2,8.2-2,16.8,0,25.1c0.2,0.8-0.2,1.7-1,2l-13.5,7.8l0,0c-1.6,0.9-2.2,3-1.2,4.6l9.7,16.7v0c0.9,1.6,3,2.2,4.6,1.2l0.1-0.1
	l13.6-7.8c0.7-0.4,1.6-0.3,2.1,0.3c3,2.9,6.4,5.5,10.1,7.6c3.6,2.1,7.5,3.8,11.6,4.9c0.8,0.2,1.3,0.9,1.3,1.7v15.8
	c0,1.9,1.5,3.4,3.4,3.4h19.3c1.9,0,3.4-1.5,3.4-3.4v-15.8c0-0.8,0.6-1.6,1.4-1.8c4-1.2,7.9-2.8,11.5-4.9c3.7-2.1,7.1-4.7,10.1-7.6
	c0.6-0.6,1.5-0.7,2.2-0.2l13.6,7.8c1.6,0.9,3.7,0.4,4.6-1.2l0.1-0.1l9.6-16.6l0,0c0.9-1.6,0.4-3.7-1.2-4.6l-13.6-7.9
	c-0.7-0.4-1-1.2-0.9-2l0,0c2-8.2,2-16.8,0-25.1c-0.2-0.8,0.2-1.7,1-2l13.5-7.8c1.6-0.9,2.2-3,1.2-4.6l-0.1-0.1l-9.6-16.6l0,0
	c-0.9-1.6-3-2.2-4.6-1.2l0,0l-13.7,7.9c-0.7,0.4-1.6,0.3-2.2-0.3c-3-2.9-6.4-5.5-10.1-7.6c-3.6-2.1-7.5-3.8-11.6-4.9
	c-0.8-0.2-1.3-0.9-1.3-1.7v-15.8c0-1.9-1.5-3.4-3.4-3.4h-19.3c-1.9,0-3.4,1.5-3.4,3.4v15.8C1212.8,677.9,1212.2,678.7,1211.4,678.8
	L1211.4,678.8z"/>
<g transform="translate(879 145.457)">
	<path class="st2" d="M860.6,286.4c0,1.2-1,2.2-2.2,2.2c-1.2,0-2.2-1-2.2-2.2s1-2.2,2.2-2.2l0,0
		C859.6,284.2,860.6,285.2,860.6,286.4z"/>
	<path class="st2" d="M890.1,286.4c0,1.2-1,2.2-2.2,2.2c-1.2,0-2.2-1-2.2-2.2s1-2.2,2.2-2.2l0,0
		C889.1,284.2,890.1,285.2,890.1,286.4z"/>
	<circle class="st2" cx="917.4" cy="286.4" r="2.2"/>
	<path class="st2" d="M949.1,286.4c0,1.2-1,2.2-2.2,2.2c-1.2,0-2.2-1-2.2-2.2s1-2.2,2.2-2.2l0,0
		C948.1,284.2,949.1,285.2,949.1,286.4z"/>
	<path class="st2" d="M860.6,315.2c0,1.2-1,2.2-2.2,2.2c-1.2,0-2.2-1-2.2-2.2s1-2.2,2.2-2.2l0,0C859.6,313,860.6,314,860.6,315.2z"
		/>
	<path class="st2" d="M890.1,315.2c0,1.2-1,2.2-2.2,2.2c-1.2,0-2.2-1-2.2-2.2s1-2.2,2.2-2.2l0,0C889.1,313,890.1,314,890.1,315.2z"
		/>
	<path class="st2" d="M919.6,315.2c0,1.2-1,2.2-2.2,2.2c-1.2,0-2.2-1-2.2-2.2s1-2.2,2.2-2.2l0,0C918.6,313,919.6,314,919.6,315.2z"
		/>
	<path class="st2" d="M949.1,315.2c0,1.2-1,2.2-2.2,2.2c-1.2,0-2.2-1-2.2-2.2s1-2.2,2.2-2.2l0,0C948.1,313,949.1,314,949.1,315.2z"
		/>
	<path class="st2" d="M860.6,344c0,1.2-1,2.2-2.2,2.2c-1.2,0-2.2-1-2.2-2.2s1-2.2,2.2-2.2l0,0C859.6,341.8,860.6,342.8,860.6,344z"
		/>
	<path class="st2" d="M890.1,344c0,1.2-1,2.2-2.2,2.2c-1.2,0-2.2-1-2.2-2.2s1-2.2,2.2-2.2l0,0C889.1,341.8,890.1,342.8,890.1,344z"
		/>
	<circle class="st2" cx="917.4" cy="344" r="2.2"/>
	<path class="st2" d="M949.1,344c0,1.2-1,2.2-2.2,2.2c-1.2,0-2.2-1-2.2-2.2s1-2.2,2.2-2.2l0,0C948.1,341.8,949.1,342.8,949.1,344z"
		/>
	<path class="st2" d="M860.6,373.6c0,1.2-1,2.2-2.2,2.2c-1.2,0-2.2-1-2.2-2.2s1-2.2,2.2-2.2l0,0
		C859.6,371.4,860.6,372.4,860.6,373.6z"/>
	<path class="st2" d="M890.1,373.6c0,1.2-1,2.2-2.2,2.2c-1.2,0-2.2-1-2.2-2.2s1-2.2,2.2-2.2l0,0
		C889.1,371.4,890.1,372.4,890.1,373.6z"/>
	<circle class="st2" cx="917.4" cy="373.6" r="2.2"/>
	<path class="st2" d="M949.1,373.6c0,1.2-1,2.2-2.2,2.2c-1.2,0-2.2-1-2.2-2.2s1-2.2,2.2-2.2l0,0
		C948.1,371.4,949.1,372.4,949.1,373.6z"/>
	<path class="st2" d="M860.6,402.4c0,1.2-1,2.2-2.2,2.2s-2.2-1-2.2-2.2c0-1.2,1-2.2,2.2-2.2h0C859.6,400.2,860.6,401.2,860.6,402.4z
		"/>
	<path class="st2" d="M890.1,402.4c0,1.2-1,2.2-2.2,2.2s-2.2-1-2.2-2.2c0-1.2,1-2.2,2.2-2.2h0C889.1,400.2,890.1,401.2,890.1,402.4z
		"/>
	<circle class="st2" cx="917.4" cy="402.4" r="2.2"/>
	<path class="st2" d="M949.1,402.4c0,1.2-1,2.2-2.2,2.2s-2.2-1-2.2-2.2c0-1.2,1-2.2,2.2-2.2h0C948.1,400.2,949.1,401.2,949.1,402.4z
		"/>
	<path class="st2" d="M860.6,431.2c0,1.2-1,2.2-2.2,2.2s-2.2-1-2.2-2.2c0-1.2,1-2.2,2.2-2.2h0C859.6,429,860.6,430,860.6,431.2z"/>
	<path class="st2" d="M890.1,431.2c0,1.2-1,2.2-2.2,2.2s-2.2-1-2.2-2.2c0-1.2,1-2.2,2.2-2.2h0C889.1,429,890.1,430,890.1,431.2z"/>
	<circle class="st2" cx="917.4" cy="431.2" r="2.2"/>
	<path class="st2" d="M949.1,431.2c0,1.2-1,2.2-2.2,2.2s-2.2-1-2.2-2.2c0-1.2,1-2.2,2.2-2.2h0C948.1,429,949.1,430,949.1,431.2z"/>
	<circle class="st2" cx="977.8" cy="286.4" r="2.2"/>
	<circle class="st2" cx="1007.3" cy="286.4" r="2.2"/>
	<path class="st2" d="M1039,286.4c0,1.2-1,2.2-2.2,2.2c-1.2,0-2.2-1-2.2-2.2s1-2.2,2.2-2.2l0,0C1038,284.2,1039,285.2,1039,286.4z"
		/>
	<path class="st2" d="M1068.5,286.4c0,1.2-1,2.2-2.2,2.2c-1.2,0-2.2-1-2.2-2.2s1-2.2,2.2-2.2l0,0
		C1067.5,284.2,1068.5,285.2,1068.5,286.4z"/>
	<path class="st2" d="M980,315.2c0,1.2-1,2.2-2.2,2.2c-1.2,0-2.2-1-2.2-2.2s1-2.2,2.2-2.2l0,0C979.1,313,980,314,980,315.2z"/>
	<path class="st2" d="M1009.5,315.2c0,1.2-1,2.2-2.2,2.2c-1.2,0-2.2-1-2.2-2.2s1-2.2,2.2-2.2l0,0
		C1008.6,313,1009.5,314,1009.5,315.2z"/>
	<path class="st2" d="M1039,315.2c0,1.2-1,2.2-2.2,2.2c-1.2,0-2.2-1-2.2-2.2s1-2.2,2.2-2.2l0,0C1038,313,1039,314,1039,315.2z"/>
	<path class="st2" d="M1068.5,315.2c0,1.2-1,2.2-2.2,2.2c-1.2,0-2.2-1-2.2-2.2s1-2.2,2.2-2.2l0,0
		C1067.5,313,1068.5,314,1068.5,315.2z"/>
	<circle class="st2" cx="977.8" cy="344" r="2.2"/>
	<circle class="st2" cx="1007.3" cy="344" r="2.2"/>
	<path class="st2" d="M1039,344c0,1.2-1,2.2-2.2,2.2c-1.2,0-2.2-1-2.2-2.2s1-2.2,2.2-2.2l0,0C1038,341.8,1039,342.8,1039,344z"/>
	<path class="st2" d="M1068.5,344c0,1.2-1,2.2-2.2,2.2c-1.2,0-2.2-1-2.2-2.2s1-2.2,2.2-2.2l0,0
		C1067.5,341.8,1068.5,342.8,1068.5,344z"/>
	<circle class="st2" cx="977.8" cy="373.6" r="2.2"/>
	<circle class="st2" cx="1007.3" cy="373.6" r="2.2"/>
	<path class="st2" d="M1039,373.6c0,1.2-1,2.2-2.2,2.2c-1.2,0-2.2-1-2.2-2.2s1-2.2,2.2-2.2l0,0C1038,371.4,1039,372.4,1039,373.6z"
		/>
	<path class="st2" d="M1068.5,373.6c0,1.2-1,2.2-2.2,2.2c-1.2,0-2.2-1-2.2-2.2s1-2.2,2.2-2.2l0,0
		C1067.5,371.4,1068.5,372.4,1068.5,373.6z"/>
	<circle class="st2" cx="977.8" cy="402.4" r="2.2"/>
	<circle class="st2" cx="1007.3" cy="402.4" r="2.2"/>
	<path class="st2" d="M1039,402.4c0,1.2-1,2.2-2.2,2.2s-2.2-1-2.2-2.2c0-1.2,1-2.2,2.2-2.2h0C1038,400.2,1039,401.2,1039,402.4z"/>
	<path class="st2" d="M1068.5,402.4c0,1.2-1,2.2-2.2,2.2s-2.2-1-2.2-2.2c0-1.2,1-2.2,2.2-2.2h0
		C1067.5,400.2,1068.5,401.2,1068.5,402.4z"/>
	<circle class="st2" cx="977.8" cy="431.2" r="2.2"/>
	<circle class="st2" cx="1007.3" cy="431.2" r="2.2"/>
	<path class="st2" d="M1039,431.2c0,1.2-1,2.2-2.2,2.2s-2.2-1-2.2-2.2c0-1.2,1-2.2,2.2-2.2h0C1038,429,1039,430,1039,431.2z"/>
	<path class="st2" d="M1068.5,431.2c0,1.2-1,2.2-2.2,2.2s-2.2-1-2.2-2.2c0-1.2,1-2.2,2.2-2.2h0C1067.5,429,1068.5,430,1068.5,431.2z
		"/>
	<path class="st2" d="M1099.5,286.4c0,1.2-1,2.2-2.2,2.2c-1.2,0-2.2-1-2.2-2.2s1-2.2,2.2-2.2l0,0
		C1098.5,284.2,1099.5,285.2,1099.5,286.4z"/>
	<path class="st2" d="M1129,286.4c0,1.2-1,2.2-2.2,2.2c-1.2,0-2.2-1-2.2-2.2s1-2.2,2.2-2.2l0,0C1128,284.2,1129,285.2,1129,286.4z"
		/>
	<circle class="st2" cx="1156.3" cy="286.4" r="2.2"/>
	<path class="st2" d="M1099.5,315.2c0,1.2-1,2.2-2.2,2.2c-1.2,0-2.2-1-2.2-2.2s1-2.2,2.2-2.2l0,0
		C1098.5,313,1099.5,314,1099.5,315.2z"/>
	<path class="st2" d="M1129,315.2c0,1.2-1,2.2-2.2,2.2c-1.2,0-2.2-1-2.2-2.2s1-2.2,2.2-2.2l0,0C1128,313,1129,314,1129,315.2z"/>
	<path class="st2" d="M1158.5,315.2c0,1.2-1,2.2-2.2,2.2c-1.2,0-2.2-1-2.2-2.2s1-2.2,2.2-2.2l0,0
		C1157.5,313,1158.5,314,1158.5,315.2z"/>
	<path class="st2" d="M1099.5,344c0,1.2-1,2.2-2.2,2.2c-1.2,0-2.2-1-2.2-2.2s1-2.2,2.2-2.2l0,0
		C1098.5,341.8,1099.5,342.8,1099.5,344z"/>
	<path class="st2" d="M1129,344c0,1.2-1,2.2-2.2,2.2c-1.2,0-2.2-1-2.2-2.2s1-2.2,2.2-2.2l0,0C1128,341.8,1129,342.8,1129,344z"/>
	<circle class="st2" cx="1156.3" cy="344" r="2.2"/>
	<path class="st2" d="M1099.5,373.6c0,1.2-1,2.2-2.2,2.2c-1.2,0-2.2-1-2.2-2.2s1-2.2,2.2-2.2l0,0
		C1098.5,371.4,1099.5,372.4,1099.5,373.6z"/>
	<path class="st2" d="M1129,373.6c0,1.2-1,2.2-2.2,2.2c-1.2,0-2.2-1-2.2-2.2s1-2.2,2.2-2.2l0,0C1128,371.4,1129,372.4,1129,373.6z"
		/>
	<circle class="st2" cx="1156.3" cy="373.6" r="2.2"/>
	<path class="st2" d="M1099.5,402.4c0,1.2-1,2.2-2.2,2.2s-2.2-1-2.2-2.2c0-1.2,1-2.2,2.2-2.2h0
		C1098.5,400.2,1099.5,401.2,1099.5,402.4z"/>
	<path class="st2" d="M1129,402.4c0,1.2-1,2.2-2.2,2.2s-2.2-1-2.2-2.2c0-1.2,1-2.2,2.2-2.2h0C1128,400.2,1129,401.2,1129,402.4z"/>
	<circle class="st2" cx="1156.3" cy="402.4" r="2.2"/>
	<path class="st2" d="M1099.5,431.2c0,1.2-1,2.2-2.2,2.2s-2.2-1-2.2-2.2c0-1.2,1-2.2,2.2-2.2h0C1098.5,429,1099.5,430,1099.5,431.2z
		"/>
	<path class="st2" d="M1129,431.2c0,1.2-1,2.2-2.2,2.2s-2.2-1-2.2-2.2c0-1.2,1-2.2,2.2-2.2h0C1128,429,1129,430,1129,431.2z"/>
	<circle class="st2" cx="1156.3" cy="431.2" r="2.2"/>
</g>
<path class="st1" d="M2408.8,487.2c5.7-5.7,14.8-5.7,20.5,0c5.7,5.7,5.7,14.8,0,20.5c-5.7,5.7-14.8,5.7-20.5,0
	c-2.7-2.7-4.2-6.4-4.2-10.2C2404.6,493.6,2406.1,489.9,2408.8,487.2z M2411.9,472.9c-2,0.6-3.9,1.4-5.7,2.4c-1.8,1-3.5,2.3-5,3.8
	c-0.3,0.3-0.7,0.3-1.1,0.1l-6.7-3.9l0,0c-0.8-0.4-1.8-0.1-2.2,0.6l0,0l-4.7,8.2c-0.5,0.8-0.2,1.8,0.6,2.3l0,0l6.7,3.8
	c0.3,0.2,0.5,0.6,0.4,1l0,0c-1,4.1-1,8.3,0,12.3c0.1,0.4-0.1,0.8-0.5,1l-6.7,3.9l0,0c-0.8,0.5-1.1,1.5-0.6,2.3l4.8,8.2l0,0
	c0.5,0.8,1.5,1.1,2.3,0.6l0.1,0l6.7-3.9c0.3-0.2,0.8-0.1,1.1,0.1c1.5,1.4,3.2,2.7,5,3.8c1.8,1,3.7,1.9,5.7,2.4
	c0.4,0.1,0.6,0.5,0.6,0.9v7.8c0,0.9,0.7,1.7,1.7,1.7h9.5c0.9,0,1.7-0.7,1.7-1.7v-7.8c0-0.4,0.3-0.8,0.7-0.9c2-0.6,3.9-1.4,5.7-2.4
	c1.8-1,3.5-2.3,5-3.8c0.3-0.3,0.8-0.3,1.1-0.1l6.7,3.9c0.8,0.5,1.8,0.2,2.3-0.6l0,0l4.7-8.2l0,0c0.5-0.8,0.2-1.8-0.6-2.3l-6.7-3.9
	c-0.3-0.2-0.5-0.6-0.4-1l0,0c1-4.1,1-8.3,0-12.3c-0.1-0.4,0.1-0.8,0.5-1l6.7-3.9c0.8-0.5,1.1-1.5,0.6-2.3l0-0.1l-4.7-8.2l0,0
	c-0.5-0.8-1.5-1.1-2.3-0.6l0,0l-6.7,3.9c-0.4,0.2-0.8,0.1-1.1-0.1c-1.5-1.4-3.2-2.7-5-3.7c-1.8-1-3.7-1.9-5.7-2.4
	c-0.4-0.1-0.6-0.5-0.6-0.9v-7.8c0-0.9-0.7-1.7-1.7-1.7h-9.5c-0.9,0-1.7,0.7-1.7,1.7v7.8C2412.6,472.4,2412.3,472.8,2411.9,472.9
	L2411.9,472.9z"/>
<g transform="translate(-610 539)">
	<path class="st1" d="M1920.2,649.3c4.6-4.6,12-4.6,16.6,0s4.6,12,0,16.6c-4.6,4.6-12,4.6-16.6,0c-2.2-2.2-3.4-5.2-3.4-8.3
		C1916.8,654.5,1918,651.5,1920.2,649.3z M1922.8,637.7c-1.6,0.5-3.2,1.1-4.6,2c-1.5,0.8-2.8,1.9-4,3c-0.2,0.2-0.6,0.3-0.9,0.1
		l-5.5-3.1l0,0c-0.6-0.3-1.4-0.1-1.8,0.5l0,0l-3.8,6.6c-0.4,0.6-0.1,1.5,0.5,1.8l0,0l5.4,3.1c0.3,0.2,0.4,0.5,0.3,0.8l0,0
		c-0.8,3.3-0.8,6.7,0,10c0.1,0.3-0.1,0.7-0.4,0.8l-5.4,3.1l0,0c-0.6,0.4-0.9,1.2-0.5,1.8l3.9,6.7l0,0c0.4,0.6,1.2,0.9,1.8,0.5l0,0
		l5.4-3.1c0.3-0.2,0.6-0.1,0.9,0.1c1.2,1.2,2.6,2.2,4,3c1.5,0.8,3,1.5,4.6,2c0.3,0.1,0.5,0.4,0.5,0.7v6.3c0,0.7,0.6,1.3,1.3,1.3h7.7
		c0.7,0,1.3-0.6,1.3-1.3v-6.3c0-0.3,0.2-0.6,0.6-0.7c1.6-0.5,3.2-1.1,4.6-2c1.5-0.8,2.8-1.9,4-3c0.2-0.2,0.6-0.3,0.9-0.1l5.4,3.1
		c0.6,0.4,1.5,0.1,1.8-0.5l0,0l3.8-6.6l0,0c0.4-0.6,0.1-1.5-0.5-1.8l-5.4-3.1c-0.3-0.2-0.4-0.5-0.3-0.8l0,0c0.8-3.3,0.8-6.7,0-10
		c-0.1-0.3,0.1-0.7,0.4-0.8l5.4-3.1c0.6-0.4,0.9-1.2,0.5-1.8l0,0l-3.8-6.6l0,0c-0.4-0.6-1.2-0.9-1.8-0.5l0,0l-5.5,3.1
		c-0.3,0.2-0.6,0.1-0.9-0.1c-1.2-1.2-2.6-2.2-4-3c-1.5-0.8-3-1.5-4.6-2c-0.3-0.1-0.5-0.4-0.5-0.7v-6.3c0-0.7-0.6-1.3-1.3-1.3h-7.7
		c-0.7,0-1.3,0.6-1.3,1.3v6.3C1923.3,637.3,1923.1,637.6,1922.8,637.7L1922.8,637.7z"/>
</g>
<path class="st3" d="M1832.6,767.9c0-1.7-1.3-3-3-3s-3,1.3-3,3v7.1h-7.1c-1.7,0-3,1.3-3,3c0,1.7,1.3,3,3,3h7.1v7.1c0,1.7,1.3,3,3,3
	c1.7,0,3-1.3,3-3V781h7.1c1.7,0,3-1.3,3-3c0-1.7-1.3-3-3-3l0,0h-7.1V767.9z"/>
<g transform="matrix(0.848, 0.53, -0.53, 0.848, 1402.327, 818.906)">
	<path class="st4" d="M898.1-154.2c-12.8,0-21.5-7-21.5-17.5c0-11.2,8.7-17.3,24.6-17.3h12.1c-0.3-6.4-4.3-9.6-12.1-9.6
		c-5.7,0-11.7,1.9-15.6,5l-0.7,0.5l-6.4-12.5l0.5-0.3c6-4.3,15.1-6.8,24.4-6.8c18,0,27.4,8.8,27.4,25.4v32.4h-16.5v-5.4
		C911-156.4,905.4-154.2,898.1-154.2z M901.2-187.7c-15.2,0-23.2,5.5-23.2,15.9c0,9.7,8.1,16.1,20.1,16.1c7.8,0,13.5-2.6,16.3-7.4
		l1.3-2.2v8.7h13.7v-31c0-15.9-8.8-24-26.1-24c-8.7,0-17.3,2.3-23.1,6.2l5.1,10c4.7-3.2,10.2-4.8,15.8-4.8
		c11.2,0,13.5,6.3,13.5,11.6v0.7L901.2-187.7z M902.2-165c-5.9,0-9.8-2.9-9.8-7.4c0-4.8,3.6-7.2,10.6-7.2h11.7l0,6.6
		C912.8-168,908.2-165,902.2-165L902.2-165z M903-178.3c-9.2,0-9.2,4.4-9.2,5.8c0,3.7,3.2,6,8.4,6c5.4,0,9.5-2.5,11.2-7v-4.9H903z"
		/>
</g>
<path class="st5" d="M2729,1201.6c0-1.7-1.3-3-3-3c-1.7,0-3,1.3-3,3c0,0,0,0,0,0v7.1h-7.1c-1.7,0-3,1.4-3,3.1c0,1.6,1.3,2.9,3,3h7.1
	v7.1c0,1.7,1.4,3,3,3c1.7,0,3-1.3,3-3v-7.1h7.1c1.7,0,3-1.4,3-3.1c0-1.6-1.3-2.9-3-3h-7.1V1201.6z"/>
<path class="st5" d="M2349.3,915c0-1.6,1.3-2.9,2.9-2.9c1.6,0,2.9,1.3,2.9,2.9v13.1c0,1.6-1.3,2.9-2.9,2.9c-1.6,0-2.9-1.3-2.9-2.9
	V915z M2329.4,925.6c-1.2-1.1-1.2-3-0.1-4.1c1.1-1.2,3-1.2,4.1-0.1c0,0,0,0,0.1,0.1l9.3,9.3c1.1,1.1,1.1,3,0,4.1s-3,1.1-4.1,0l0,0
	L2329.4,925.6L2329.4,925.6z M2322.9,947.2c-1.6,0-2.9-1.3-2.9-2.9s1.3-2.9,2.9-2.9l0,0h13.1c1.6,0,2.9,1.4,2.9,3
	c0,1.6-1.3,2.8-2.9,2.9H2322.9z M2333.5,967c-1.1,1.1-3,1.1-4.1,0s-1.1-3,0-4.1l0,0l9.3-9.3c1.2-1.1,3-1.1,4.1,0.1
	c1.1,1.1,1.1,2.9,0,4.1L2333.5,967L2333.5,967z M2355.1,973.5c0,1.6-1.3,2.9-2.9,2.9c-1.6,0-2.9-1.3-2.9-2.9v-13.1
	c0-1.6,1.3-2.9,2.9-2.9c1.6,0,2.9,1.3,2.9,2.9V973.5L2355.1,973.5z M2374.9,962.9c1.1,1.1,1.1,3,0,4.1c-1.1,1.1-3,1.1-4.1,0
	l-9.3-9.3c-1.1-1.2-1.1-3,0.1-4.1c1.1-1.1,2.9-1.1,4.1,0L2374.9,962.9L2374.9,962.9z M2381.4,941.3c1.6,0,2.9,1.3,2.9,2.9
	s-1.3,2.9-2.9,2.9h-13.1c-1.6,0-2.9-1.3-2.9-2.9s1.3-2.9,2.9-2.9H2381.4z M2370.8,921.5c1.1-1.1,3-1.1,4.1,0c1.1,1.1,1.1,2.9,0,4.1
	l-9.3,9.3c-1.1,1.1-3,1.1-4.1,0c-1.1-1.1-1.1-3,0-4.1L2370.8,921.5z"/>
<path class="st5" d="M2728.8,457.9c0-1.7-1.3-3-3-3s-3,1.3-3,3v7.1h-7.1c-1.7,0-3,1.3-3.1,3s1.3,3,3,3.1c0,0,0.1,0,0.1,0h7.1v7.1
	c0,1.7,1.3,3,3,3s3-1.3,3-3V471h7.1c1.7,0,3-1.4,3-3.1c0-1.6-1.3-2.9-3-3h-7.1V457.9z"/>
<path class="st5" d="M1060.3,690.3c0-1.7-1.4-3-3.1-3c-1.6,0-2.9,1.3-3,3v7.1h-7.1c-1.7,0-3,1.3-3,3s1.3,3,3,3h7.1v7.1
	c0,1.7,1.4,3,3.1,3c1.6,0,2.9-1.3,3-3v-7.1h7.1c1.7,0,3-1.3,3-3s-1.3-3-3-3h-7.1V690.3z"/>
<path class="st6" d="M1093.9,899.8l-22.1,5.5l-11.9-16.1l-37.8,9.4l-2.9,19.8l-21.6,5.4l16.8-94.9l20.2-5L1093.9,899.8z
	 M1072.5,903.5l18.6-4.6l-57.2-73l-18.1,4.5l-16.1,91.3l18.1-4.5l2.9-19.8l40-10L1072.5,903.5z M1051.9,875.6l-29,7.2l5.8-38.6
	L1051.9,875.6z M1024.9,880.6l24.2-6l-19.4-26.2L1024.9,880.6z"/>
<path class="st3" d="M1428,1002.6c0-1.7-1.3-3-3-3c-1.7,0-3,1.3-3,3c0,0,0,0,0,0v7.1h-7.1c-1.7,0-3,1.4-3,3.1c0,1.6,1.3,2.9,3,3h7.1
	v7.1c0,1.7,1.4,3,3,3c1.7,0,3-1.3,3-3v-7.1h7.1c1.7,0,3-1.4,3-3.1c0-1.6-1.3-2.9-3-3h-7.1V1002.6z"/>
<path class="st3" d="M1566.3,1227c0-1.7-1.3-3-3-3c-1.7,0-3,1.3-3,3l0,0v7.1h-7.1c-1.7,0-3,1.4-3,3.1c0,1.6,1.3,2.9,3,3h7.1v7.1
	c0,1.7,1.3,3,3,3c1.7,0,3-1.3,3-3v-7.1h7.1c1.7,0,3-1.4,3-3.1c0-1.6-1.3-2.9-3-3h-7.1V1227z"/>
<g transform="translate(528.862 840.092)">
	<path class="st3" d="M870.2,284.2h79.4c7.7,0,14,6.3,14,14v69.2c0,1.2-0.7,2.3-1.9,2.8h0c-1.1,0.5-2.4,0.2-3.3-0.7l-20.6-20.6
		h-67.7c-7.7,0-14-6.3-14-14v-36.7C856.2,290.5,862.5,284.2,870.2,284.2L870.2,284.2z M949.6,287.4h-79.4c-5.9,0-10.7,4.8-10.7,10.7
		v36.7c0,5.9,4.8,10.7,10.7,10.7h69l21.1,21.1v-68.5C960.3,292.3,955.5,287.5,949.6,287.4L949.6,287.4z"/>
	<path class="st3" d="M869.6,297.9c-0.5,0-0.9-0.4-0.9-0.9c0-0.5,0.4-0.9,0.9-0.9h80.7c0.5,0,0.9,0.4,0.9,0.9c0,0.5-0.4,0.9-0.9,0.9
		H869.6z"/>
	<path class="st3" d="M869.6,306.6c-0.5,0-0.9-0.4-0.9-0.9c0-0.5,0.4-0.8,0.9-0.9h8.6c0.5,0,0.9,0.4,0.9,0.9c0,0.5-0.4,0.8-0.9,0.9
		H869.6z M889.5,306.6c-0.5,0-0.9-0.4-0.9-0.9c0-0.5,0.4-0.8,0.9-0.9h60.8c0.5,0,0.9,0.4,0.9,0.9c0,0.5-0.4,0.8-0.9,0.9H889.5z"/>
	<path class="st3" d="M869.6,315.3c-0.5,0-0.9-0.4-0.9-0.9c0-0.5,0.4-0.9,0.9-0.9h80.7c0.5,0,0.9,0.4,0.9,0.9c0,0.5-0.4,0.9-0.9,0.9
		H869.6z"/>
	<path class="st3" d="M892,327.1c-0.5,0-0.9-0.4-0.9-0.9c0-0.5,0.4-0.9,0.9-0.9h58.3c0.5,0,0.9,0.4,0.9,0.9s-0.4,0.9-0.9,0.9
		c0,0,0,0,0,0H892z"/>
	<path class="st3" d="M918,336.6c-0.5,0-0.9-0.4-0.9-0.9c0-0.5,0.4-0.9,0.9-0.9c0,0,0,0,0.1,0h32.3c0.5,0,0.9,0.4,0.9,0.9
		c0,0.5-0.4,0.8-0.9,0.9H918z"/>
	<path class="st3" d="M899.5,336.6c-0.5,0-0.9-0.4-0.9-0.9c0-0.5,0.4-0.8,0.9-0.9h11.5c0.5,0,0.9,0.4,0.9,0.9c0,0.5-0.4,0.9-0.9,0.9
		c0,0,0,0-0.1,0H899.5z"/>
</g>
<g transform="translate(343.862 822.092)">
	<path class="st3" d="M926.4,284.2h-59.6c-5.8,0-10.5,4.7-10.5,10.5v51.9c0,0.9,0.6,1.7,1.4,2.1h0c0.8,0.4,1.8,0.2,2.5-0.5
		l15.5-15.5h50.8c5.8,0,10.5-4.7,10.5-10.5v-27.5C936.9,288.9,932.2,284.2,926.4,284.2L926.4,284.2z M866.7,286.6h59.6
		c4.4,0,8,3.6,8.1,8.1v27.5c0,4.4-3.6,8-8.1,8.1h-51.8l-15.9,15.9v-51.5C858.7,290.3,862.3,286.6,866.7,286.6L866.7,286.6z"/>
	<path class="st3" d="M926.9,294.4c0.4,0,0.7-0.3,0.7-0.7c0-0.4-0.3-0.7-0.7-0.7h-60.6c-0.4,0-0.7,0.3-0.7,0.7
		c0,0.4,0.3,0.7,0.7,0.7H926.9z"/>
	<path class="st3" d="M926.9,301c0.4,0,0.7-0.3,0.7-0.7c0-0.4-0.3-0.7-0.7-0.7h-6.4c-0.4,0-0.7,0.3-0.7,0.7c0,0.4,0.3,0.7,0.7,0.7
		H926.9z M911.9,301c0.4,0,0.7-0.3,0.7-0.7c0-0.4-0.3-0.7-0.7-0.7h-45.7c-0.4,0-0.7,0.3-0.7,0.7c0,0.4,0.3,0.7,0.7,0.7H911.9z"/>
	<path class="st3" d="M926.9,307.6c0.4,0,0.7-0.3,0.7-0.7c0-0.4-0.3-0.7-0.7-0.7h-60.6c-0.4,0-0.7,0.3-0.7,0.7
		c0,0.4,0.3,0.7,0.7,0.7H926.9z"/>
	<path class="st3" d="M910,316.4c0.4,0,0.7-0.3,0.7-0.7c0-0.4-0.3-0.7-0.7-0.7h-43.8c-0.4,0-0.7,0.3-0.7,0.7c0,0.4,0.3,0.7,0.7,0.7
		H910z"/>
	<path class="st3" d="M890.5,323.5c0.4,0,0.7-0.3,0.7-0.7c0-0.4-0.3-0.7-0.7-0.7c0,0,0,0,0,0h-24.2c-0.4,0-0.7,0.3-0.7,0.7
		c0,0.4,0.3,0.7,0.7,0.7H890.5z"/>
	<path class="st3" d="M904.3,323.5c0.4,0,0.7-0.3,0.7-0.7c0-0.4-0.3-0.7-0.7-0.7h-8.7c-0.4,0-0.7,0.3-0.7,0.7s0.3,0.7,0.7,0.7
		c0,0,0,0,0,0H904.3z"/>
</g>
<path class="st3" d="M1978.6,626.6c0-1.7-1.3-3-3-3s-3,1.3-3,3v7.1h-7.1c-1.7,0-3,1.3-3.1,3s1.3,3,3,3.1c0,0,0.1,0,0.1,0h7.1v7.1
	c0,1.7,1.3,3,3,3s3-1.3,3-3l0,0v-7.1h7.1c1.7,0,3-1.3,3.1-3s-1.3-3-3-3.1c0,0-0.1,0-0.1,0h-7.1V626.6z"/>
<path class="st3" d="M2145.6,444.6c0-1.7-1.3-3-3-3c-1.7,0-3,1.3-3,3v7.1h-7.1c-1.7,0-3,1.3-3.1,3s1.3,3,3,3.1c0,0,0.1,0,0.1,0h7.1
	v7.1c0,1.7,1.3,3,3,3c1.7,0,3-1.3,3-3l0,0v-7.1h7.1c1.7,0,3-1.3,3.1-3s-1.3-3-3-3.1c0,0-0.1,0-0.1,0h-7.1V444.6z"/>
<path class="st3" d="M1445,470.6c0-1.6,1.3-2.9,2.9-2.9c1.6,0,2.9,1.3,2.9,2.9v13.1c0,1.6-1.3,2.9-2.9,2.9c-1.6,0-2.9-1.3-2.9-2.9
	V470.6z M1425.1,481.3c-1.1-1.1-1.1-3,0-4.1c1.1-1.1,3-1.1,4.1,0l9.3,9.3c1.1,1.2,1.1,3-0.1,4.1c-1.1,1.1-2.9,1.1-4.1,0
	L1425.1,481.3L1425.1,481.3z M1418.6,502.8c-1.6,0-2.9-1.3-2.9-2.9s1.3-2.9,2.9-2.9h13.1c1.6,0,2.9,1.4,2.9,3c0,1.6-1.3,2.8-2.9,2.9
	H1418.6z M1429.3,522.6c-1.1,1.1-3,1.1-4.1,0c-1.1-1.1-1.1-3,0-4.1l9.3-9.3c1.1-1.1,3-1.1,4.1,0c1.1,1.1,1.1,3,0,4.1l0,0
	L1429.3,522.6z M1450.8,529.1c0,1.6-1.3,2.9-2.9,2.9c-1.6,0-2.9-1.3-2.9-2.9V516c0-1.6,1.3-2.9,2.9-2.9c1.6,0,2.9,1.3,2.9,2.9V529.1
	L1450.8,529.1z M1470.6,518.5c1.1,1.1,1.1,3,0,4.1c-1.1,1.1-3,1.1-4.1,0l-9.3-9.3c-1.1-1.1-1.1-3,0-4.1c1.1-1.1,3-1.1,4.1,0
	L1470.6,518.5z M1477.1,497c1.6,0,2.9,1.3,2.9,2.9s-1.3,2.9-2.9,2.9h-13.1c-1.6,0-2.9-1.3-2.9-2.9s1.3-2.9,2.9-2.9l0,0H1477.1z
	 M1466.5,477.1c1.1-1.1,3-1.1,4.1,0c1.1,1.1,1.1,3,0,4.1l-9.3,9.3c-1.2,1.1-3,1.1-4.1,0c-1.1-1.1-1.1-2.9,0-4.1L1466.5,477.1z"/>
<g transform="translate(-195.254 170.918)">
	<g transform="translate(1529.254 37.889)">
		<path class="st7" d="M933.9,322.3h-36.7v-36.7c0-0.8-0.6-1.4-1.4-1.4l0,0c-21.8,0-39.5,17.7-39.5,39.5s17.7,39.5,39.5,39.5
			c21.8,0,39.5-17.7,39.5-39.5l0,0C935.3,322.9,934.6,322.3,933.9,322.3z M895.7,360.4c-20.3,0-36.7-16.4-36.7-36.7
			c0-19.7,15.6-35.9,35.3-36.7v36.7c0,0.8,0.6,1.4,1.4,1.4l0,0h36.7C931.6,344.8,915.4,360.4,895.7,360.4z"/>
	</g>
	<g transform="translate(1577.121 37.889)">
		<path class="st7" d="M857.3,284.2c-0.6,0-1.1,0.5-1.1,1.1v31c0,0.6,0.5,1.1,1.1,1.1h31c0.6,0,1.1-0.5,1.1-1.1
			C889.4,298.6,875.1,284.2,857.3,284.2z M858.5,315.1v-28.6c15.6,0.6,28,13.1,28.6,28.6H858.5z"/>
	</g>
</g>
<g transform="translate(-103.887 -18.199)">
	<path class="st8" d="M2587.9,738.6c0,1.2-1,2.2-2.2,2.2s-2.2-1-2.2-2.2c0-1.2,1-2.2,2.2-2.2
		C2586.9,736.4,2587.9,737.4,2587.9,738.6C2587.9,738.6,2587.9,738.6,2587.9,738.6z"/>
	<path class="st8" d="M2617.7,738.6c0,1.2-1,2.2-2.2,2.2s-2.2-1-2.2-2.2c0-1.2,1-2.2,2.2-2.2
		C2616.7,736.4,2617.7,737.4,2617.7,738.6C2617.7,738.6,2617.7,738.6,2617.7,738.6z"/>
	<circle class="st8" cx="2645.3" cy="738.6" r="2.2"/>
	<path class="st8" d="M2677.4,738.6c0,1.2-1,2.2-2.2,2.2s-2.2-1-2.2-2.2c0-1.2,1-2.2,2.2-2.2
		C2676.4,736.4,2677.4,737.4,2677.4,738.6C2677.4,738.6,2677.4,738.6,2677.4,738.6z"/>
	<path class="st8" d="M2587.9,767.8c0,1.2-1,2.2-2.2,2.2s-2.2-1-2.2-2.2c0-1.2,1-2.2,2.2-2.2
		C2586.9,765.5,2587.9,766.5,2587.9,767.8C2587.9,767.8,2587.9,767.8,2587.9,767.8z"/>
	<path class="st8" d="M2617.7,767.8c0,1.2-1,2.2-2.2,2.2s-2.2-1-2.2-2.2c0-1.2,1-2.2,2.2-2.2
		C2616.7,765.5,2617.7,766.5,2617.7,767.8C2617.7,767.8,2617.7,767.8,2617.7,767.8z"/>
	<path class="st8" d="M2647.6,767.8c0,1.2-1,2.2-2.2,2.2s-2.2-1-2.2-2.2c0-1.2,1-2.2,2.2-2.2
		C2646.6,765.5,2647.6,766.5,2647.6,767.8C2647.6,767.8,2647.6,767.8,2647.6,767.8z"/>
	<path class="st8" d="M2677.4,767.8c0,1.2-1,2.2-2.2,2.2s-2.2-1-2.2-2.2c0-1.2,1-2.2,2.2-2.2
		C2676.4,765.5,2677.4,766.5,2677.4,767.8C2677.4,767.8,2677.4,767.8,2677.4,767.8z"/>
	<path class="st8" d="M2587.9,796.9c0,1.2-1,2.2-2.2,2.2s-2.2-1-2.2-2.2c0-1.2,1-2.2,2.2-2.2
		C2586.9,794.7,2587.9,795.7,2587.9,796.9z"/>
	<path class="st8" d="M2617.7,796.9c0,1.2-1,2.2-2.2,2.2s-2.2-1-2.2-2.2c0-1.2,1-2.2,2.2-2.2S2617.7,795.7,2617.7,796.9
		L2617.7,796.9z"/>
	<circle class="st8" cx="2645.3" cy="796.9" r="2.2"/>
	<path class="st8" d="M2677.4,796.9c0,1.2-1,2.2-2.2,2.2s-2.2-1-2.2-2.2c0-1.2,1-2.2,2.2-2.2
		C2676.4,794.7,2677.4,795.7,2677.4,796.9z"/>
	<path class="st8" d="M2587.9,826.9c0,1.2-1,2.2-2.2,2.2s-2.2-1-2.2-2.2c0-1.2,1-2.2,2.2-2.2
		C2586.9,824.7,2587.9,825.7,2587.9,826.9C2587.9,826.9,2587.9,826.9,2587.9,826.9z"/>
	<path class="st8" d="M2617.7,826.9c0,1.2-1,2.2-2.2,2.2s-2.2-1-2.2-2.2c0-1.2,1-2.2,2.2-2.2
		C2616.7,824.7,2617.7,825.7,2617.7,826.9C2617.7,826.9,2617.7,826.9,2617.7,826.9z"/>
	<circle class="st8" cx="2645.3" cy="826.9" r="2.2"/>
	<path class="st8" d="M2677.4,826.9c0,1.2-1,2.2-2.2,2.2s-2.2-1-2.2-2.2c0-1.2,1-2.2,2.2-2.2
		C2676.4,824.7,2677.4,825.7,2677.4,826.9C2677.4,826.9,2677.4,826.9,2677.4,826.9z"/>
	<path class="st8" d="M2587.9,856.1c0,1.2-1,2.2-2.2,2.2s-2.2-1-2.2-2.2c0-1.2,1-2.2,2.2-2.2
		C2586.9,853.9,2587.9,854.9,2587.9,856.1z"/>
	<path class="st8" d="M2617.7,856.1c0,1.2-1,2.2-2.2,2.2s-2.2-1-2.2-2.2c0-1.2,1-2.2,2.2-2.2S2617.7,854.9,2617.7,856.1
		L2617.7,856.1z"/>
	<circle class="st8" cx="2645.3" cy="856.1" r="2.2"/>
	<path class="st8" d="M2677.4,856.1c0,1.2-1,2.2-2.2,2.2s-2.2-1-2.2-2.2c0-1.2,1-2.2,2.2-2.2
		C2676.4,853.9,2677.4,854.9,2677.4,856.1z"/>
	<path class="st8" d="M2587.9,885.2c0,1.2-1,2.2-2.2,2.2s-2.2-1-2.2-2.2c0-1.2,1-2.2,2.2-2.2C2586.9,883,2587.9,884,2587.9,885.2z"
		/>
	<path class="st8" d="M2617.7,885.2c0,1.2-1,2.2-2.2,2.2s-2.2-1-2.2-2.2c0-1.2,1-2.2,2.2-2.2S2617.7,884,2617.7,885.2L2617.7,885.2z
		"/>
	<circle class="st8" cx="2645.3" cy="885.2" r="2.2"/>
	<path class="st8" d="M2677.4,885.2c0,1.2-1,2.2-2.2,2.2s-2.2-1-2.2-2.2c0-1.2,1-2.2,2.2-2.2S2677.4,884,2677.4,885.2L2677.4,885.2z
		"/>
	<circle class="st8" cx="2706.5" cy="738.6" r="2.2"/>
	<circle class="st8" cx="2736.4" cy="738.6" r="2.2"/>
	<path class="st8" d="M2768.5,738.6c0,1.2-1,2.2-2.2,2.2s-2.2-1-2.2-2.2c0-1.2,1-2.2,2.2-2.2
		C2767.5,736.4,2768.5,737.4,2768.5,738.6C2768.5,738.6,2768.5,738.6,2768.5,738.6z"/>
	<path class="st8" d="M2798.3,738.6c0,1.2-1,2.2-2.2,2.2s-2.2-1-2.2-2.2c0-1.2,1-2.2,2.2-2.2
		C2797.3,736.4,2798.3,737.4,2798.3,738.6C2798.3,738.6,2798.3,738.6,2798.3,738.6z"/>
	<path class="st8" d="M2708.8,767.8c0,1.2-1,2.2-2.2,2.2s-2.2-1-2.2-2.2c0-1.2,1-2.2,2.2-2.2
		C2707.8,765.5,2708.8,766.5,2708.8,767.8C2708.8,767.8,2708.8,767.8,2708.8,767.8z"/>
	<path class="st8" d="M2738.6,767.8c0,1.2-1,2.2-2.2,2.2s-2.2-1-2.2-2.2c0-1.2,1-2.2,2.2-2.2
		C2737.6,765.5,2738.6,766.5,2738.6,767.8C2738.6,767.8,2738.6,767.8,2738.6,767.8z"/>
	<path class="st8" d="M2768.5,767.8c0,1.2-1,2.2-2.2,2.2s-2.2-1-2.2-2.2c0-1.2,1-2.2,2.2-2.2
		C2767.5,765.5,2768.5,766.5,2768.5,767.8C2768.5,767.8,2768.5,767.8,2768.5,767.8z"/>
	<path class="st8" d="M2798.3,767.8c0,1.2-1,2.2-2.2,2.2s-2.2-1-2.2-2.2c0-1.2,1-2.2,2.2-2.2
		C2797.3,765.5,2798.3,766.5,2798.3,767.8C2798.3,767.8,2798.3,767.8,2798.3,767.8z"/>
	<circle class="st8" cx="2706.5" cy="796.9" r="2.2"/>
	<circle class="st8" cx="2736.4" cy="796.9" r="2.2"/>
	<path class="st8" d="M2768.5,796.9c0,1.2-1,2.2-2.2,2.2s-2.2-1-2.2-2.2s1-2.2,2.2-2.2S2768.5,795.7,2768.5,796.9L2768.5,796.9z"/>
	<path class="st8" d="M2798.3,796.9c0,1.2-1,2.2-2.2,2.2s-2.2-1-2.2-2.2s1-2.2,2.2-2.2S2798.3,795.7,2798.3,796.9L2798.3,796.9z"/>
	<circle class="st8" cx="2706.5" cy="826.9" r="2.2"/>
	<circle class="st8" cx="2736.4" cy="826.9" r="2.2"/>
	<path class="st8" d="M2768.5,826.9c0,1.2-1,2.2-2.2,2.2s-2.2-1-2.2-2.2c0-1.2,1-2.2,2.2-2.2
		C2767.5,824.7,2768.5,825.7,2768.5,826.9C2768.5,826.9,2768.5,826.9,2768.5,826.9z"/>
	<path class="st8" d="M2798.3,826.9c0,1.2-1,2.2-2.2,2.2s-2.2-1-2.2-2.2c0-1.2,1-2.2,2.2-2.2
		C2797.3,824.7,2798.3,825.7,2798.3,826.9C2798.3,826.9,2798.3,826.9,2798.3,826.9z"/>
	<circle class="st8" cx="2706.5" cy="856.1" r="2.2"/>
	<circle class="st8" cx="2736.4" cy="856.1" r="2.2"/>
	<path class="st8" d="M2768.5,856.1c0,1.2-1,2.2-2.2,2.2s-2.2-1-2.2-2.2s1-2.2,2.2-2.2S2768.5,854.9,2768.5,856.1L2768.5,856.1z"/>
	<path class="st8" d="M2798.3,856.1c0,1.2-1,2.2-2.2,2.2s-2.2-1-2.2-2.2s1-2.2,2.2-2.2S2798.3,854.9,2798.3,856.1L2798.3,856.1z"/>
	<circle class="st8" cx="2706.5" cy="885.2" r="2.2"/>
	<circle class="st8" cx="2736.4" cy="885.2" r="2.2"/>
	<path class="st8" d="M2768.5,885.2c0,1.2-1,2.2-2.2,2.2s-2.2-1-2.2-2.2s1-2.2,2.2-2.2S2768.5,884,2768.5,885.2L2768.5,885.2z"/>
	<path class="st8" d="M2798.3,885.2c0,1.2-1,2.2-2.2,2.2s-2.2-1-2.2-2.2s1-2.2,2.2-2.2S2798.3,884,2798.3,885.2L2798.3,885.2z"/>
	<path class="st8" d="M2829.7,738.6c0,1.2-1,2.2-2.2,2.2s-2.2-1-2.2-2.2c0-1.2,1-2.2,2.2-2.2
		C2828.7,736.4,2829.7,737.4,2829.7,738.6C2829.7,738.6,2829.7,738.6,2829.7,738.6z"/>
	<path class="st8" d="M2859.5,738.6c0,1.2-1,2.2-2.2,2.2c-1.2,0-2.2-1-2.2-2.2c0-1.2,1-2.2,2.2-2.2
		C2858.5,736.4,2859.5,737.4,2859.5,738.6C2859.5,738.6,2859.5,738.6,2859.5,738.6z"/>
	<circle class="st8" cx="2887.1" cy="738.6" r="2.2"/>
	<path class="st8" d="M2829.7,767.8c0,1.2-1,2.2-2.2,2.2s-2.2-1-2.2-2.2c0-1.2,1-2.2,2.2-2.2
		C2828.7,765.5,2829.7,766.5,2829.7,767.8C2829.7,767.8,2829.7,767.8,2829.7,767.8z"/>
	<path class="st8" d="M2859.5,767.8c0,1.2-1,2.2-2.2,2.2c-1.2,0-2.2-1-2.2-2.2c0-1.2,1-2.2,2.2-2.2
		C2858.5,765.5,2859.5,766.5,2859.5,767.8C2859.5,767.8,2859.5,767.8,2859.5,767.8z"/>
	<path class="st8" d="M2889.4,767.8c0,1.2-1,2.2-2.2,2.2s-2.2-1-2.2-2.2c0-1.2,1-2.2,2.2-2.2
		C2888.4,765.5,2889.4,766.5,2889.4,767.8C2889.4,767.8,2889.4,767.8,2889.4,767.8z"/>
	<path class="st8" d="M2829.7,796.9c0,1.2-1,2.2-2.2,2.2s-2.2-1-2.2-2.2c0-1.2,1-2.2,2.2-2.2S2829.7,795.7,2829.7,796.9
		L2829.7,796.9z"/>
	<path class="st8" d="M2859.5,796.9c0,1.2-1,2.2-2.2,2.2c-1.2,0-2.2-1-2.2-2.2c0-1.2,1-2.2,2.2-2.2c0,0,0,0,0,0
		C2858.5,794.7,2859.5,795.7,2859.5,796.9z"/>
	<circle class="st8" cx="2887.1" cy="796.9" r="2.2"/>
	<path class="st8" d="M2829.7,826.9c0,1.2-1,2.2-2.2,2.2s-2.2-1-2.2-2.2c0-1.2,1-2.2,2.2-2.2
		C2828.7,824.7,2829.7,825.7,2829.7,826.9C2829.7,826.9,2829.7,826.9,2829.7,826.9z"/>
	<path class="st8" d="M2859.5,826.9c0,1.2-1,2.2-2.2,2.2c-1.2,0-2.2-1-2.2-2.2s1-2.2,2.2-2.2
		C2858.5,824.7,2859.5,825.7,2859.5,826.9C2859.5,826.9,2859.5,826.9,2859.5,826.9z"/>
	<circle class="st8" cx="2887.1" cy="826.9" r="2.2"/>
	<path class="st8" d="M2829.7,856.1c0,1.2-1,2.2-2.2,2.2s-2.2-1-2.2-2.2c0-1.2,1-2.2,2.2-2.2S2829.7,854.9,2829.7,856.1
		L2829.7,856.1z"/>
	<path class="st8" d="M2859.5,856.1c0,1.2-1,2.2-2.2,2.2c-1.2,0-2.2-1-2.2-2.2c0-1.2,1-2.2,2.2-2.2c0,0,0,0,0,0
		C2858.5,853.9,2859.5,854.9,2859.5,856.1z"/>
	<circle class="st8" cx="2887.1" cy="856.1" r="2.2"/>
	<path class="st8" d="M2829.7,885.2c0,1.2-1,2.2-2.2,2.2s-2.2-1-2.2-2.2c0-1.2,1-2.2,2.2-2.2S2829.7,884,2829.7,885.2L2829.7,885.2z
		"/>
	<path class="st8" d="M2859.5,885.2c0,1.2-1,2.2-2.2,2.2c-1.2,0-2.2-1-2.2-2.2c0-1.2,1-2.2,2.2-2.2c0,0,0,0,0,0
		C2858.5,883,2859.5,884,2859.5,885.2z"/>
	<circle class="st8" cx="2887.1" cy="885.2" r="2.2"/>
</g>
<g transform="translate(-590.724 -240.502)">
	<path class="st8" d="M1455.9,647c0,1.6-1.3,3-3,3c-1.6,0-3-1.3-3-3c0-1.6,1.3-3,3-3C1454.5,644,1455.9,645.3,1455.9,647
		C1455.9,647,1455.9,647,1455.9,647z"/>
	<path class="st8" d="M1495.5,647c0,1.6-1.3,3-3,3c-1.6,0-3-1.3-3-3c0-1.6,1.3-3,3-3C1494.2,644,1495.5,645.3,1495.5,647
		C1495.5,647,1495.5,647,1495.5,647z"/>
	<circle class="st8" cx="1532.1" cy="647" r="3"/>
	<path class="st8" d="M1574.7,647c0,1.6-1.3,3-3,3c-1.6,0-3-1.3-3-3c0-1.6,1.3-3,3-3C1573.4,644,1574.7,645.3,1574.7,647
		C1574.7,647,1574.7,647,1574.7,647z"/>
	<path class="st8" d="M1455.9,685.7c0,1.6-1.3,3-3,3c-1.6,0-3-1.3-3-3c0-1.6,1.3-3,3-3C1454.5,682.7,1455.9,684.1,1455.9,685.7
		C1455.9,685.7,1455.9,685.7,1455.9,685.7z"/>
	<path class="st8" d="M1495.5,685.7c0,1.6-1.3,3-3,3c-1.6,0-3-1.3-3-3c0-1.6,1.3-3,3-3C1494.2,682.7,1495.5,684.1,1495.5,685.7
		C1495.5,685.7,1495.5,685.7,1495.5,685.7z"/>
	<path class="st8" d="M1535.1,685.7c0,1.6-1.3,3-3,3c-1.6,0-3-1.3-3-3c0-1.6,1.3-3,3-3C1533.8,682.7,1535.1,684.1,1535.1,685.7
		C1535.1,685.7,1535.1,685.7,1535.1,685.7z"/>
	<path class="st8" d="M1574.7,685.7c0,1.6-1.3,3-3,3c-1.6,0-3-1.3-3-3c0-1.6,1.3-3,3-3C1573.4,682.7,1574.7,684.1,1574.7,685.7
		C1574.7,685.7,1574.7,685.7,1574.7,685.7z"/>
	<path class="st8" d="M1455.9,724.4c0,1.6-1.3,3-3,3c-1.6,0-3-1.3-3-3c0-1.6,1.3-3,3-3C1454.5,721.4,1455.9,722.8,1455.9,724.4z"/>
	<path class="st8" d="M1495.5,724.4c0,1.6-1.3,3-3,3c-1.6,0-3-1.3-3-3c0-1.6,1.3-3,3-3S1495.5,722.8,1495.5,724.4
		C1495.5,724.4,1495.5,724.4,1495.5,724.4z"/>
	<circle class="st8" cx="1532.1" cy="724.4" r="3"/>
	<path class="st8" d="M1574.7,724.4c0,1.6-1.3,3-3,3c-1.6,0-3-1.3-3-3c0-1.6,1.3-3,3-3C1573.4,721.4,1574.7,722.8,1574.7,724.4z"/>
	<path class="st8" d="M1455.9,764.2c0,1.6-1.3,3-3,3c-1.6,0-3-1.3-3-3c0-1.6,1.3-3,3-3C1454.5,761.2,1455.9,762.6,1455.9,764.2
		C1455.9,764.2,1455.9,764.2,1455.9,764.2z"/>
	<path class="st8" d="M1495.5,764.2c0,1.6-1.3,3-3,3s-3-1.3-3-3s1.3-3,3-3C1494.2,761.2,1495.5,762.6,1495.5,764.2
		C1495.5,764.2,1495.5,764.2,1495.5,764.2z"/>
	<circle class="st8" cx="1532.1" cy="764.2" r="3"/>
	<path class="st8" d="M1574.7,764.2c0,1.6-1.3,3-3,3c-1.6,0-3-1.3-3-3c0-1.6,1.3-3,3-3C1573.4,761.2,1574.7,762.6,1574.7,764.2
		C1574.7,764.2,1574.7,764.2,1574.7,764.2z"/>
	<path class="st8" d="M1455.9,802.9c0,1.6-1.3,3-3,3c-1.6,0-3-1.3-3-3s1.3-3,3-3l0,0C1454.5,799.9,1455.9,801.3,1455.9,802.9z"/>
	<path class="st8" d="M1495.5,802.9c0,1.6-1.3,3-3,3s-3-1.3-3-3c0-1.6,1.3-3,3-3c0,0,0,0,0,0
		C1494.2,799.9,1495.5,801.3,1495.5,802.9C1495.5,802.9,1495.5,802.9,1495.5,802.9z"/>
	<circle class="st8" cx="1532.1" cy="802.9" r="3"/>
	<path class="st8" d="M1574.7,802.9c0,1.6-1.3,3-3,3s-3-1.3-3-3s1.3-3,3-3l0,0C1573.4,799.9,1574.7,801.3,1574.7,802.9z"/>
	<path class="st8" d="M1455.9,841.6c0,1.6-1.3,3-3,3c-1.6,0-3-1.3-3-3c0-1.6,1.3-3,3-3C1454.5,838.7,1455.9,840,1455.9,841.6
		C1455.9,841.6,1455.9,841.6,1455.9,841.6z"/>
	<path class="st8" d="M1495.5,841.6c0,1.6-1.3,3-3,3s-3-1.3-3-3s1.3-3,3-3C1494.2,838.7,1495.5,840,1495.5,841.6
		C1495.5,841.6,1495.5,841.6,1495.5,841.6z"/>
	<circle class="st8" cx="1532.1" cy="841.6" r="3"/>
	<path class="st8" d="M1574.7,841.6c0,1.6-1.3,3-3,3c-1.6,0-3-1.3-3-3c0-1.6,1.3-3,3-3C1573.4,838.7,1574.7,840,1574.7,841.6
		C1574.7,841.6,1574.7,841.6,1574.7,841.6z"/>
	<circle class="st8" cx="1613.4" cy="647" r="3"/>
	<circle class="st8" cx="1653" cy="647" r="3"/>
	<path class="st8" d="M1695.6,647c0,1.6-1.3,3-3,3c-1.6,0-3-1.3-3-3c0-1.6,1.3-3,3-3C1694.3,644,1695.6,645.3,1695.6,647
		C1695.6,647,1695.6,647,1695.6,647z"/>
	<path class="st8" d="M1735.2,647c0,1.6-1.3,3-3,3c-1.6,0-3-1.3-3-3c0-1.6,1.3-3,3-3C1733.9,644,1735.2,645.3,1735.2,647
		C1735.2,647,1735.2,647,1735.2,647z"/>
	<path class="st8" d="M1616.3,685.7c0,1.6-1.3,3-3,3c-1.6,0-3-1.3-3-3c0-1.6,1.3-3,3-3S1616.3,684.1,1616.3,685.7
		C1616.3,685.7,1616.3,685.7,1616.3,685.7z"/>
	<path class="st8" d="M1656,685.7c0,1.6-1.3,3-3,3c-1.6,0-3-1.3-3-3c0-1.6,1.3-3,3-3C1654.6,682.7,1656,684.1,1656,685.7
		C1656,685.7,1656,685.7,1656,685.7z"/>
	<path class="st8" d="M1695.6,685.7c0,1.6-1.3,3-3,3c-1.6,0-3-1.3-3-3c0-1.6,1.3-3,3-3C1694.3,682.7,1695.6,684.1,1695.6,685.7
		C1695.6,685.7,1695.6,685.7,1695.6,685.7z"/>
	<path class="st8" d="M1735.2,685.7c0,1.6-1.3,3-3,3c-1.6,0-3-1.3-3-3c0-1.6,1.3-3,3-3C1733.9,682.7,1735.2,684.1,1735.2,685.7
		C1735.2,685.7,1735.2,685.7,1735.2,685.7z"/>
	<circle class="st8" cx="1613.4" cy="724.4" r="3"/>
	<circle class="st8" cx="1653" cy="724.4" r="3"/>
	<path class="st8" d="M1695.6,724.4c0,1.6-1.3,3-3,3c-1.6,0-3-1.3-3-3c0-1.6,1.3-3,3-3C1694.3,721.4,1695.6,722.8,1695.6,724.4z"/>
	<path class="st8" d="M1735.2,724.4c0,1.6-1.3,3-3,3c-1.6,0-3-1.3-3-3c0-1.6,1.3-3,3-3S1735.2,722.8,1735.2,724.4
		C1735.2,724.4,1735.2,724.4,1735.2,724.4z"/>
	<circle class="st8" cx="1613.4" cy="764.2" r="3"/>
	<circle class="st8" cx="1653" cy="764.2" r="3"/>
	<path class="st8" d="M1695.6,764.2c0,1.6-1.3,3-3,3c-1.6,0-3-1.3-3-3c0-1.6,1.3-3,3-3C1694.3,761.2,1695.6,762.6,1695.6,764.2
		C1695.6,764.2,1695.6,764.2,1695.6,764.2z"/>
	<path class="st8" d="M1735.2,764.2c0,1.6-1.3,3-3,3s-3-1.3-3-3s1.3-3,3-3C1733.9,761.2,1735.2,762.6,1735.2,764.2
		C1735.2,764.2,1735.2,764.2,1735.2,764.2z"/>
	<circle class="st8" cx="1613.4" cy="802.9" r="3"/>
	<circle class="st8" cx="1653" cy="802.9" r="3"/>
	<path class="st8" d="M1695.6,802.9c0,1.6-1.3,3-3,3c-1.6,0-3-1.3-3-3s1.3-3,3-3l0,0C1694.3,799.9,1695.6,801.3,1695.6,802.9z"/>
	<path class="st8" d="M1735.2,802.9c0,1.6-1.3,3-3,3s-3-1.3-3-3c0-1.6,1.3-3,3-3c0,0,0,0,0,0
		C1733.9,799.9,1735.2,801.3,1735.2,802.9C1735.2,802.9,1735.2,802.9,1735.2,802.9z"/>
	<circle class="st8" cx="1613.4" cy="841.6" r="3"/>
	<circle class="st8" cx="1653" cy="841.6" r="3"/>
	<path class="st8" d="M1695.6,841.6c0,1.6-1.3,3-3,3c-1.6,0-3-1.3-3-3c0-1.6,1.3-3,3-3C1694.3,838.7,1695.6,840,1695.6,841.6
		C1695.6,841.6,1695.6,841.6,1695.6,841.6z"/>
	<path class="st8" d="M1735.2,841.6c0,1.6-1.3,3-3,3s-3-1.3-3-3s1.3-3,3-3C1733.9,838.7,1735.2,840,1735.2,841.6
		C1735.2,841.6,1735.2,841.6,1735.2,841.6z"/>
	<path class="st8" d="M1776.8,647c0,1.6-1.3,3-3,3c-1.6,0-3-1.3-3-3c0-1.6,1.3-3,3-3C1775.5,644,1776.8,645.3,1776.8,647
		C1776.8,647,1776.8,647,1776.8,647z"/>
	<path class="st8" d="M1816.4,647c0,1.6-1.3,3-3,3c-1.6,0-3-1.3-3-3c0-1.6,1.3-3,3-3C1815.1,644,1816.4,645.3,1816.4,647
		C1816.4,647,1816.4,647,1816.4,647z"/>
	<circle class="st8" cx="1853.1" cy="647" r="3"/>
	<path class="st8" d="M1776.8,685.7c0,1.6-1.3,3-3,3c-1.6,0-3-1.3-3-3c0-1.6,1.3-3,3-3C1775.5,682.7,1776.8,684.1,1776.8,685.7
		C1776.8,685.7,1776.8,685.7,1776.8,685.7z"/>
	<path class="st8" d="M1816.4,685.7c0,1.6-1.3,3-3,3c-1.6,0-3-1.3-3-3c0-1.6,1.3-3,3-3C1815.1,682.7,1816.4,684.1,1816.4,685.7
		C1816.4,685.7,1816.4,685.7,1816.4,685.7z"/>
	<path class="st8" d="M1856,685.7c0,1.6-1.3,3-3,3c-1.6,0-3-1.3-3-3c0-1.6,1.3-3,3-3C1854.7,682.7,1856,684.1,1856,685.7
		C1856,685.7,1856,685.7,1856,685.7z"/>
	<path class="st8" d="M1776.8,724.4c0,1.6-1.3,3-3,3c-1.6,0-3-1.3-3-3c0-1.6,1.3-3,3-3S1776.8,722.8,1776.8,724.4
		C1776.8,724.4,1776.8,724.4,1776.8,724.4z"/>
	<path class="st8" d="M1816.4,724.4c0,1.6-1.3,3-3,3c-1.6,0-3-1.3-3-3c0-1.6,1.3-3,3-3C1815.1,721.4,1816.4,722.8,1816.4,724.4
		C1816.4,724.4,1816.4,724.4,1816.4,724.4z"/>
	<circle class="st8" cx="1853.1" cy="724.4" r="3"/>
	<path class="st8" d="M1776.8,764.2c0,1.6-1.3,3-3,3s-3-1.3-3-3s1.3-3,3-3C1775.5,761.2,1776.8,762.6,1776.8,764.2
		C1776.8,764.2,1776.8,764.2,1776.8,764.2z"/>
	<path class="st8" d="M1816.4,764.2c0,1.6-1.3,3-3,3c-1.6,0-3-1.3-3-3c0-1.6,1.3-3,3-3C1815.1,761.2,1816.4,762.6,1816.4,764.2
		C1816.4,764.2,1816.4,764.2,1816.4,764.2z"/>
	<circle class="st8" cx="1853.1" cy="764.2" r="3"/>
	<path class="st8" d="M1776.8,802.9c0,1.6-1.3,3-3,3c-1.6,0-3-1.3-3-3c0-1.6,1.3-3,3-3c0,0,0,0,0,0
		C1775.5,799.9,1776.8,801.3,1776.8,802.9C1776.8,802.9,1776.8,802.9,1776.8,802.9z"/>
	<path class="st8" d="M1816.4,802.9c0,1.6-1.3,3-3,3s-3-1.3-3-3c0-1.6,1.3-3,3-3C1815.1,799.9,1816.4,801.3,1816.4,802.9
		C1816.4,802.9,1816.4,802.9,1816.4,802.9z"/>
	<circle class="st8" cx="1853.1" cy="802.9" r="3"/>
	<path class="st8" d="M1776.8,841.6c0,1.6-1.3,3-3,3s-3-1.3-3-3s1.3-3,3-3C1775.5,838.7,1776.8,840,1776.8,841.6
		C1776.8,841.6,1776.8,841.6,1776.8,841.6z"/>
	<path class="st8" d="M1816.4,841.6c0,1.6-1.3,3-3,3c-1.6,0-3-1.3-3-3c0-1.6,1.3-3,3-3C1815.1,838.7,1816.4,840,1816.4,841.6
		C1816.4,841.6,1816.4,841.6,1816.4,841.6z"/>
	<circle class="st8" cx="1853.1" cy="841.6" r="3"/>
</g>
<g transform="translate(932.198 867.727)">
	<path class="st8" d="M965.9,320.8c0,1.4-1.2,2.6-2.6,2.6s-2.6-1.2-2.6-2.6c0-1.4,1.2-2.6,2.6-2.6l0,0
		C964.7,318.2,965.9,319.4,965.9,320.8z"/>
	<path class="st8" d="M965.9,354.8c0,1.4-1.2,2.6-2.6,2.6s-2.6-1.2-2.6-2.6c0-1.4,1.2-2.6,2.6-2.6l0,0
		C964.7,352.2,965.9,353.4,965.9,354.8z"/>
	<circle class="st8" cx="999.8" cy="286.8" r="2.6"/>
	<circle class="st8" cx="1034.7" cy="286.8" r="2.6"/>
	<path class="st8" d="M1072.1,286.8c0,1.4-1.2,2.6-2.6,2.6s-2.6-1.2-2.6-2.6c0-1.4,1.2-2.6,2.6-2.6l0,0
		C1070.9,284.2,1072.1,285.3,1072.1,286.8z"/>
	<path class="st8" d="M1106.9,286.8c0,1.4-1.2,2.6-2.6,2.6s-2.6-1.2-2.6-2.6c0-1.4,1.2-2.6,2.6-2.6l0,0
		C1105.8,284.2,1106.9,285.3,1106.9,286.8z"/>
	<path class="st8" d="M1002.4,320.8c0,1.4-1.2,2.6-2.6,2.6s-2.6-1.2-2.6-2.6c0-1.4,1.2-2.6,2.6-2.6l0,0
		C1001.3,318.2,1002.4,319.4,1002.4,320.8z"/>
	<path class="st8" d="M1037.3,320.8c0,1.4-1.2,2.6-2.6,2.6s-2.6-1.2-2.6-2.6c0-1.4,1.2-2.6,2.6-2.6l0,0
		C1036.1,318.2,1037.3,319.4,1037.3,320.8z"/>
	<path class="st8" d="M1072.1,320.8c0,1.4-1.2,2.6-2.6,2.6s-2.6-1.2-2.6-2.6c0-1.4,1.2-2.6,2.6-2.6l0,0
		C1070.9,318.2,1072.1,319.4,1072.1,320.8z"/>
	<path class="st8" d="M1106.9,320.8c0,1.4-1.2,2.6-2.6,2.6s-2.6-1.2-2.6-2.6c0-1.4,1.2-2.6,2.6-2.6l0,0
		C1105.8,318.2,1106.9,319.4,1106.9,320.8z"/>
	<circle class="st8" cx="999.8" cy="354.8" r="2.6"/>
	<circle class="st8" cx="1034.7" cy="354.8" r="2.6"/>
	<path class="st8" d="M1072.1,354.8c0,1.4-1.2,2.6-2.6,2.6s-2.6-1.2-2.6-2.6c0-1.4,1.2-2.6,2.6-2.6l0,0
		C1070.9,352.2,1072.1,353.4,1072.1,354.8z"/>
	<path class="st8" d="M1106.9,354.8c0,1.4-1.2,2.6-2.6,2.6s-2.6-1.2-2.6-2.6c0-1.4,1.2-2.6,2.6-2.6l0,0
		C1105.8,352.2,1106.9,353.4,1106.9,354.8z"/>
	<circle class="st8" cx="999.8" cy="389.8" r="2.6"/>
	<circle class="st8" cx="1034.7" cy="389.8" r="2.6"/>
	<path class="st8" d="M1072.1,389.8c0,1.4-1.2,2.6-2.6,2.6s-2.6-1.2-2.6-2.6c0-1.4,1.2-2.6,2.6-2.6l0,0
		C1070.9,387.2,1072.1,388.4,1072.1,389.8z"/>
	<path class="st8" d="M1106.9,389.8c0,1.4-1.2,2.6-2.6,2.6s-2.6-1.2-2.6-2.6c0-1.4,1.2-2.6,2.6-2.6l0,0
		C1105.8,387.2,1106.9,388.4,1106.9,389.8z"/>
	<circle class="st8" cx="999.8" cy="423.8" r="2.6"/>
	<circle class="st8" cx="1034.7" cy="423.8" r="2.6"/>
	<path class="st8" d="M1072.1,423.8c0,1.4-1.2,2.6-2.6,2.6c-1.4,0-2.6-1.2-2.6-2.6c0-1.4,1.2-2.6,2.6-2.6l0,0
		C1070.9,421.2,1072.1,422.4,1072.1,423.8z"/>
	<path class="st8" d="M1106.9,423.8c0,1.4-1.2,2.6-2.6,2.6c-1.4,0-2.6-1.2-2.6-2.6c0-1.4,1.2-2.6,2.6-2.6l0,0
		C1105.8,421.2,1106.9,422.4,1106.9,423.8z"/>
	<circle class="st8" cx="1034.7" cy="457.8" r="2.6"/>
	<path class="st8" d="M1072.1,457.8c0,1.4-1.2,2.6-2.6,2.6c-1.4,0-2.6-1.2-2.6-2.6c0-1.4,1.2-2.6,2.6-2.6l0,0
		C1070.9,455.2,1072.1,456.4,1072.1,457.8z"/>
	<path class="st8" d="M1106.9,457.8c0,1.4-1.2,2.6-2.6,2.6c-1.4,0-2.6-1.2-2.6-2.6c0-1.4,1.2-2.6,2.6-2.6l0,0
		C1105.8,455.2,1106.9,456.4,1106.9,457.8z"/>
	<path class="st8" d="M1143.5,286.8c0,1.4-1.2,2.6-2.6,2.6s-2.6-1.2-2.6-2.6c0-1.4,1.2-2.6,2.6-2.6l0,0
		C1142.3,284.2,1143.5,285.3,1143.5,286.8z"/>
	<path class="st8" d="M1178.3,286.8c0,1.4-1.2,2.6-2.6,2.6s-2.6-1.2-2.6-2.6c0-1.4,1.2-2.6,2.6-2.6l0,0
		C1177.2,284.2,1178.3,285.3,1178.3,286.8z"/>
	<circle class="st8" cx="1210.5" cy="286.8" r="2.6"/>
	<path class="st8" d="M1143.5,320.8c0,1.4-1.2,2.6-2.6,2.6s-2.6-1.2-2.6-2.6c0-1.4,1.2-2.6,2.6-2.6l0,0
		C1142.3,318.2,1143.5,319.4,1143.5,320.8z"/>
	<path class="st8" d="M1178.3,320.8c0,1.4-1.2,2.6-2.6,2.6s-2.6-1.2-2.6-2.6c0-1.4,1.2-2.6,2.6-2.6l0,0
		C1177.2,318.2,1178.3,319.4,1178.3,320.8z"/>
	<path class="st8" d="M1213.1,320.8c0,1.4-1.2,2.6-2.6,2.6s-2.6-1.2-2.6-2.6c0-1.4,1.2-2.6,2.6-2.6l0,0
		C1212,318.2,1213.1,319.4,1213.1,320.8z"/>
	<path class="st8" d="M1143.5,354.8c0,1.4-1.2,2.6-2.6,2.6s-2.6-1.2-2.6-2.6c0-1.4,1.2-2.6,2.6-2.6l0,0
		C1142.3,352.2,1143.5,353.4,1143.5,354.8z"/>
	<path class="st8" d="M1178.3,354.8c0,1.4-1.2,2.6-2.6,2.6s-2.6-1.2-2.6-2.6c0-1.4,1.2-2.6,2.6-2.6l0,0
		C1177.2,352.2,1178.3,353.4,1178.3,354.8z"/>
	<circle class="st8" cx="1210.5" cy="354.8" r="2.6"/>
	<path class="st8" d="M1143.5,389.8c0,1.4-1.2,2.6-2.6,2.6s-2.6-1.2-2.6-2.6c0-1.4,1.2-2.6,2.6-2.6l0,0
		C1142.3,387.2,1143.5,388.4,1143.5,389.8z"/>
	<path class="st8" d="M1178.3,389.8c0,1.4-1.2,2.6-2.6,2.6s-2.6-1.2-2.6-2.6c0-1.4,1.2-2.6,2.6-2.6l0,0
		C1177.2,387.2,1178.3,388.4,1178.3,389.8z"/>
	<circle class="st8" cx="1210.5" cy="389.8" r="2.6"/>
	<path class="st8" d="M1143.5,423.8c0,1.4-1.2,2.6-2.6,2.6c-1.4,0-2.6-1.2-2.6-2.6c0-1.4,1.2-2.6,2.6-2.6l0,0
		C1142.3,421.2,1143.5,422.4,1143.5,423.8z"/>
	<path class="st8" d="M1178.3,423.8c0,1.4-1.2,2.6-2.6,2.6c-1.4,0-2.6-1.2-2.6-2.6c0-1.4,1.2-2.6,2.6-2.6l0,0
		C1177.2,421.2,1178.3,422.4,1178.3,423.8z"/>
	<circle class="st8" cx="1210.5" cy="423.8" r="2.6"/>
	<path class="st8" d="M1143.5,457.8c0,1.4-1.2,2.6-2.6,2.6c-1.4,0-2.6-1.2-2.6-2.6c0-1.4,1.2-2.6,2.6-2.6l0,0
		C1142.3,455.2,1143.5,456.4,1143.5,457.8z"/>
	<path class="st8" d="M1178.3,457.8c0,1.4-1.2,2.6-2.6,2.6c-1.4,0-2.6-1.2-2.6-2.6c0-1.4,1.2-2.6,2.6-2.6l0,0
		C1177.2,455.2,1178.3,456.4,1178.3,457.8z"/>
	<circle class="st8" cx="1210.5" cy="457.8" r="2.6"/>
</g>
</svg>
