<svg xmlns="http://www.w3.org/2000/svg" xmlns:xlink="http://www.w3.org/1999/xlink" width="1920" height="1078" viewBox="0 0 1920 1078">
  <defs>
    <style>
      .cls-1 {
        clip-path: url(#clip-Web_1920_3);
      }

      .cls-2 {
        fill: #1f6c9f;
      }

      .cls-2, .cls-3, .cls-4, .cls-5, .cls-6 {
        fill-rule: evenodd;
      }

      .cls-3, .cls-7 {
        fill: #2572a4;
      }

      .cls-4 {
        fill: none;
        stroke: #2b80b0;
        stroke-width: 3px;
      }

      .cls-5 {
        fill: #2b80b0;
      }

      .cls-6, .cls-8 {
        fill: #24669a;
      }

      .cls-9 {
        fill: #fff;
      }
    </style>
    <clipPath id="clip-Web_1920_3">
      <rect width="1920" height="1078"/>
    </clipPath>
  </defs>
  <g id="Web_1920_3" data-name="Web 1920 – 3" class="cls-1">
    <rect class="cls-9" width="1920" height="1078"/>
    <path id="Path_250" data-name="Path 250" class="cls-2" d="M390.5,625.313H266.911c-66.515,0-120.934,50.59-120.934,112.42h0c0,61.832,54.418,112.421,120.934,112.421H1311.9c107.707,0,195.826-81.917,195.826-182.039h0c0-100.124-88.119-182.04-195.824-182.04h0c-45.54,0-82.8-34.636-82.8-76.971h0c0-42.334,37.259-76.971,82.8-76.971h99.649c47.346,0,86.084-36.011,86.084-80.023h0c0-44.014-38.738-80.024-86.084-80.024h-126.01c-18.432,0-33.513-14.022-33.513-31.156h0c0-17.135,15.081-31.154,33.513-31.154h22.214c12.72,0,23.128-9.677,23.128-21.5v0c0-11.826-10.409-21.5-23.128-21.5H1161.995c-30.7,0-34.115,33.712-111.656,33.712H826.923c-16.6,0-30.182,12.628-30.182,28.055v0c0,15.428,13.583,28.056,30.182,28.056h28.983c24.053,0,43.732,18.3,43.732,40.651v0c0,22.358-19.679,40.653-43.732,40.653H812.288c-117.79,0-134.428,28.615-155.057,85.53s-127.775,61.5-127.775,61.5h-146.5c-36.246,0-65.9,27.569-65.9,61.263h0c0,33.694,29.655,61.262,65.9,61.262H390.5c34.863,0,63.387,26.518,63.387,58.927h0c0,32.408-28.524,58.924-63.387,58.924Zm982.166-515.538c-12.776,0-23.132-9.627-23.132-21.5s10.356-21.5,23.132-21.5,23.13,9.627,23.13,21.5S1385.433,109.775,1372.661,109.775Z" transform="translate(-1.723 134.296)"/>
    <path id="Path_253" data-name="Path 253" class="cls-3" d="M254.608,688.016Zm9.125-34.748a17.557,17.557,0,1,1-5.141,12.414,17.506,17.506,0,0,1,5.141-12.414Zm3.792-17.4a30.858,30.858,0,0,0-6.88,2.929,31.239,31.239,0,0,0-6.037,4.55,1.073,1.073,0,0,1-1.285.156l-8.159-4.709-.044-.029a2.038,2.038,0,0,0-2.716.77l-.034.056-5.74,9.94a2.043,2.043,0,0,0,.742,2.766l.056.032L245.52,657a1.083,1.083,0,0,1,.508,1.189h0a31.277,31.277,0,0,0,0,14.983,1.073,1.073,0,0,1-.568,1.223l-8.089,4.668v0a2.045,2.045,0,0,0-.742,2.766l5.772,10h0a2.035,2.035,0,0,0,2.76.741l.062-.032,8.1-4.679a1.083,1.083,0,0,1,1.283.158,31.381,31.381,0,0,0,6.036,4.55,30.957,30.957,0,0,0,6.926,2.943,1.078,1.078,0,0,1,.784,1.036v9.408a2.028,2.028,0,0,0,2.019,2.02H281.92a2.03,2.03,0,0,0,2.019-2.02v-9.408a1.078,1.078,0,0,1,.829-1.049,30.9,30.9,0,0,0,6.88-2.93,31.351,31.351,0,0,0,6.036-4.55,1.077,1.077,0,0,1,1.34-.123l8.1,4.676a2.035,2.035,0,0,0,2.762-.741l.035-.056,5.74-9.945h0a2.038,2.038,0,0,0-.738-2.761l-8.15-4.706a1.075,1.075,0,0,1-.509-1.188h0a31.277,31.277,0,0,0,0-14.983,1.074,1.074,0,0,1,.569-1.221l8.091-4.671a2.04,2.04,0,0,0,.738-2.763l-.032-.059-5.74-9.94h0a2.034,2.034,0,0,0-2.762-.743l0,0-8.157,4.709a1.075,1.075,0,0,1-1.31-.18,31.018,31.018,0,0,0-12.937-7.469,1.077,1.077,0,0,1-.785-1.036V625.41a2.026,2.026,0,0,0-2.019-2.02H270.373a2.025,2.025,0,0,0-2.019,2.02v9.408A1.08,1.08,0,0,1,267.525,635.868Z" transform="translate(-131.723 -303.502)"/>
    <path id="Path_254" data-name="Path 254" class="cls-3" d="M632.1,394.257a3.01,3.01,0,1,0-6.021,0v7.08H619a3.011,3.011,0,1,0,0,6.022h7.08v7.081a3.01,3.01,0,0,0,6.021,0v-7.081h7.082a3.011,3.011,0,0,0,0-6.022H632.1Z" transform="translate(-1.723 4.498)"/>
    <path id="Path_255" data-name="Path 255" class="cls-3" d="M816.931,198.547Zm9.127-34.749a17.555,17.555,0,1,1-5.142,12.414,17.5,17.5,0,0,1,5.142-12.414Zm3.792-17.4a30.908,30.908,0,0,0-6.88,2.93,31.244,31.244,0,0,0-6.038,4.55,1.075,1.075,0,0,1-1.285.157l-8.158-4.71-.043-.026a2.035,2.035,0,0,0-2.717.767l-.035.056-5.739,9.94a2.038,2.038,0,0,0,.743,2.766l.055.035,8.091,4.669a1.075,1.075,0,0,1,.507,1.19h0a31.192,31.192,0,0,0,0,14.982,1.077,1.077,0,0,1-.571,1.222L799.7,189.6h0a2.036,2.036,0,0,0-.743,2.764l5.772,10,0,0a2.032,2.032,0,0,0,2.76.743l.061-.033,8.1-4.678a1.08,1.08,0,0,1,1.281.156,31.106,31.106,0,0,0,6.037,4.55,30.769,30.769,0,0,0,6.925,2.943,1.082,1.082,0,0,1,.785,1.037v9.411A2.026,2.026,0,0,0,832.7,218.5h11.547a2.028,2.028,0,0,0,2.018-2.017v-9.411a1.084,1.084,0,0,1,.829-1.051,30.76,30.76,0,0,0,6.88-2.928,31.219,31.219,0,0,0,6.038-4.551,1.073,1.073,0,0,1,1.339-.121l8.1,4.676a2.033,2.033,0,0,0,2.761-.743l.036-.055,5.74-9.944h0a2.039,2.039,0,0,0-.737-2.761l-8.151-4.705a1.077,1.077,0,0,1-.508-1.189h0a31.265,31.265,0,0,0,0-14.982,1.076,1.076,0,0,1,.569-1.223l8.092-4.671a2.039,2.039,0,0,0,.737-2.761l-.032-.061-5.74-9.94h0a2.035,2.035,0,0,0-2.762-.742h0l-8.157,4.71a1.078,1.078,0,0,1-1.309-.178,31.236,31.236,0,0,0-6.015-4.529,30.815,30.815,0,0,0-6.924-2.943,1.077,1.077,0,0,1-.784-1.036v-9.41a2.028,2.028,0,0,0-2.018-2.018H832.7a2.026,2.026,0,0,0-2.019,2.018v9.41A1.077,1.077,0,0,1,829.85,146.4Z" transform="translate(-157.723 62.498)"/>
    <path id="Path_1774" data-name="Path 1774" class="cls-4" d="M838,273.176ZM857.664,198.3a37.827,37.827,0,1,1-11.08,26.749,37.716,37.716,0,0,1,11.08-26.749Zm8.171-37.495a66.6,66.6,0,0,0-14.825,6.313,67.329,67.329,0,0,0-13.01,9.8,2.316,2.316,0,0,1-2.769.338l-17.578-10.149-.093-.056a4.385,4.385,0,0,0-5.854,1.653l-.075.121-12.366,21.418a4.39,4.39,0,0,0,1.6,5.96l.119.075,17.434,10.061a2.316,2.316,0,0,1,1.092,2.564h.006a67.21,67.21,0,0,0,0,32.283,2.321,2.321,0,0,1-1.23,2.633L800.86,253.888l0,0a4.387,4.387,0,0,0-1.6,5.956L811.7,281.392l0-.007a4.379,4.379,0,0,0,5.947,1.6l.131-.071,17.456-10.08a2.327,2.327,0,0,1,2.76.336,67.031,67.031,0,0,0,13.008,9.8,66.3,66.3,0,0,0,14.922,6.341,2.331,2.331,0,0,1,1.692,2.234V311.83a4.366,4.366,0,0,0,4.35,4.346h24.881a4.37,4.37,0,0,0,4.348-4.346V291.551a2.336,2.336,0,0,1,1.786-2.265,66.281,66.281,0,0,0,14.825-6.309,67.265,67.265,0,0,0,13.01-9.806,2.311,2.311,0,0,1,2.885-.261l17.458,10.076a4.38,4.38,0,0,0,5.949-1.6l.078-.118,12.368-21.427h0a4.393,4.393,0,0,0-1.588-5.949L950.4,243.752a2.321,2.321,0,0,1-1.095-2.562h0a67.372,67.372,0,0,0,0-32.283,2.319,2.319,0,0,1,1.226-2.635l17.436-10.065a4.393,4.393,0,0,0,1.588-5.949l-.069-.131-12.368-21.418h0a4.385,4.385,0,0,0-5.952-1.6l0,0-17.576,10.149a2.322,2.322,0,0,1-2.821-.384,67.309,67.309,0,0,0-12.961-9.759,66.4,66.4,0,0,0-14.919-6.341,2.32,2.32,0,0,1-1.69-2.232V138.268a4.37,4.37,0,0,0-4.348-4.348H871.972a4.366,4.366,0,0,0-4.35,4.348v20.276A2.321,2.321,0,0,1,865.835,160.8Z" transform="translate(-751.663 322.288)"/>
    <path id="Path_1775" data-name="Path 1775" class="cls-4" d="M829.229,242.113Zm15.28-58.174a29.389,29.389,0,1,1-8.608,20.782,29.3,29.3,0,0,1,8.608-20.782Zm6.348-29.131a51.743,51.743,0,0,0-11.518,4.905,52.312,52.312,0,0,0-10.108,7.617,1.8,1.8,0,0,1-2.151.263l-13.657-7.885-.072-.044a3.407,3.407,0,0,0-4.549,1.284l-.059.094-9.608,16.641a3.411,3.411,0,0,0,1.244,4.631l.092.059,13.545,7.816a1.8,1.8,0,0,1,.849,1.992h.005a52.219,52.219,0,0,0,0,25.082,1.8,1.8,0,0,1-.956,2.046l-13.54,7.82,0,0a3.408,3.408,0,0,0-1.244,4.627L808.8,248.5l0-.005a3.4,3.4,0,0,0,4.621,1.244l.1-.055,13.562-7.832a1.808,1.808,0,0,1,2.144.261,52.08,52.08,0,0,0,10.107,7.617,51.512,51.512,0,0,0,11.593,4.927,1.811,1.811,0,0,1,1.314,1.736v15.755a3.392,3.392,0,0,0,3.38,3.377h19.331a3.4,3.4,0,0,0,3.378-3.377V256.39a1.815,1.815,0,0,1,1.388-1.759,51.5,51.5,0,0,0,11.518-4.9,52.261,52.261,0,0,0,10.108-7.619,1.8,1.8,0,0,1,2.242-.2l13.564,7.828a3.4,3.4,0,0,0,4.622-1.244l.06-.092,9.609-16.647h0a3.413,3.413,0,0,0-1.234-4.622l-13.646-7.877a1.8,1.8,0,0,1-.851-1.991h0a52.344,52.344,0,0,0,0-25.082,1.8,1.8,0,0,1,.953-2.047l13.547-7.82a3.413,3.413,0,0,0,1.234-4.622l-.054-.1-9.609-16.641h0a3.407,3.407,0,0,0-4.624-1.242l0,0L903.5,167.593a1.8,1.8,0,0,1-2.191-.3,52.3,52.3,0,0,0-10.07-7.582,51.587,51.587,0,0,0-11.591-4.927,1.8,1.8,0,0,1-1.313-1.734V137.3a3.4,3.4,0,0,0-3.378-3.378H855.625a3.392,3.392,0,0,0-3.38,3.378v15.753A1.8,1.8,0,0,1,850.857,154.808Z" transform="translate(856.337 75.86)"/>
    <path id="Path_256" data-name="Path 256" class="cls-3" d="M1804.312,119.21a3.01,3.01,0,1,0-6.02,0v7.078h-7.08a3.012,3.012,0,1,0,0,6.023h7.08v7.081a3.01,3.01,0,1,0,6.02,0v-7.081h7.083a3.012,3.012,0,0,0,0-6.023h-7.083Z" transform="translate(68.277 54.498)"/>
    <path id="Path_257" data-name="Path 257" class="cls-3" d="M40.657,982.965a3.01,3.01,0,1,0-6.02,0v7.08h-7.08a3.012,3.012,0,1,0,0,6.023h7.08v7.08a3.01,3.01,0,1,0,6.02,0v-7.08h7.081a3.012,3.012,0,0,0,0-6.023H40.657Z" transform="translate(-1.723 4.498)"/>
    <path id="Path_259" data-name="Path 259" class="cls-5" d="M899.559,312.945a3.011,3.011,0,1,0-6.022,0v7.08h-7.08a3.012,3.012,0,0,0,0,6.023h7.08v7.08a3.011,3.011,0,0,0,6.022,0v-7.08h7.08a3.012,3.012,0,0,0,0-6.023h-7.08Z" transform="translate(340.277 539.498)"/>
    <path id="Path_1497" data-name="Path 1497" class="cls-5" d="M899.559,312.945a3.011,3.011,0,1,0-6.022,0v7.08h-7.08a3.012,3.012,0,0,0,0,6.023h7.08v7.08a3.011,3.011,0,0,0,6.022,0v-7.08h7.08a3.012,3.012,0,0,0,0-6.023h-7.08Z" transform="translate(973.277 604.498)"/>
    <path id="Path_260" data-name="Path 260" class="cls-5" d="M911.831,646.368a3.01,3.01,0,0,0-6.021,0v7.08h-7.08a3.012,3.012,0,0,0,0,6.023h7.08v7.08a3.01,3.01,0,1,0,6.021,0v-7.08h7.082a3.012,3.012,0,0,0,0-6.023h-7.082Z" transform="translate(-201.723 296.498)"/>
    <path id="Path_261" data-name="Path 261" class="cls-3" d="M272.773,348.619a3.012,3.012,0,0,0-6.023,0v7.08h-7.08a3.011,3.011,0,1,0,0,6.023h7.08v7.08a3.012,3.012,0,0,0,6.023,0v-7.08h7.08a3.011,3.011,0,0,0,0-6.023h-7.08Z" transform="translate(4.277 119.498)"/>
    <path id="Path_262" data-name="Path 262" class="cls-3" d="M1602.1,499.9a3.011,3.011,0,0,0-6.023,0v7.08H1589a3.012,3.012,0,1,0,0,6.023h7.077v7.079a3.011,3.011,0,0,0,6.023,0V513h7.08a3.012,3.012,0,1,0,0-6.023h-7.08Z" transform="translate(-1.723 -202.502)"/>
    <path id="Path_1765" data-name="Path 1765" class="cls-3" d="M1602.1,499.9a3.011,3.011,0,0,0-6.023,0v7.08H1589a3.012,3.012,0,1,0,0,6.023h7.077v7.079a3.011,3.011,0,0,0,6.023,0V513h7.08a3.012,3.012,0,1,0,0-6.023h-7.08Z" transform="translate(-335.723 -414.502)"/>
    <g id="Group_35" data-name="Group 35" transform="translate(926.277 267.512)">
      <path id="Path_258" data-name="Path 258" class="cls-5" d="M1133.691,273.88Zm-6.177-23.519a11.885,11.885,0,1,0,3.479,8.4,11.858,11.858,0,0,0-3.479-8.4Zm-2.568-11.778a20.975,20.975,0,0,1,8.743,5.063.728.728,0,0,0,.87.106l5.522-3.188.029-.018a1.383,1.383,0,0,1,1.84.519l.021.039,3.886,6.728a1.377,1.377,0,0,1-.5,1.871l-.036.024-5.478,3.16a.73.73,0,0,0-.342.805h0a21.032,21.032,0,0,1,.463,2.511,21.629,21.629,0,0,1,0,5.119,21.032,21.032,0,0,1-.463,2.511.73.73,0,0,0,.386.827l5.475,3.161h0a1.378,1.378,0,0,1,.5,1.871l-3.907,6.767h0a1.377,1.377,0,0,1-1.869.5l-.042-.022-5.482-3.165a.729.729,0,0,0-.868.105,21,21,0,0,1-4.085,3.079,20.745,20.745,0,0,1-4.689,1.992.733.733,0,0,0-.53.7v6.369a1.371,1.371,0,0,1-1.367,1.366H1115.2a1.373,1.373,0,0,1-1.367-1.366v-6.369a.734.734,0,0,0-.561-.712,20.687,20.687,0,0,1-4.657-1.982,20.906,20.906,0,0,1-4.084-3.079.729.729,0,0,0-.908-.083l-5.484,3.165a1.374,1.374,0,0,1-1.868-.5l-.024-.037-3.886-6.731h0a1.38,1.38,0,0,1,.5-1.869l5.517-3.185a.729.729,0,0,0,.343-.8h0a20.645,20.645,0,0,1-.459-2.511,21.231,21.231,0,0,1,0-5.12,20.664,20.664,0,0,1,.459-2.51.729.729,0,0,0-.385-.828l-5.475-3.161a1.379,1.379,0,0,1-.5-1.868l.024-.04,3.884-6.73h0a1.382,1.382,0,0,1,1.87-.5h0l5.524,3.188a.727.727,0,0,0,.884-.121,21.155,21.155,0,0,1,4.07-3.064,20.812,20.812,0,0,1,4.688-1.991.731.731,0,0,0,.53-.7V231.5a1.371,1.371,0,0,1,1.367-1.365h7.814a1.369,1.369,0,0,1,1.367,1.365v6.37A.729.729,0,0,0,1124.946,238.583Z" transform="translate(-976.222 -148.014)"/>
      <path id="Path_269" data-name="Path 269" class="cls-5" d="M1249.63,148.014h-79.4a12.409,12.409,0,0,0-12.373,12.373v69.16a1.381,1.381,0,0,0,2.357.976l21.085-21.084h68.329A12.409,12.409,0,0,0,1262,197.066V160.387A12.408,12.408,0,0,0,1249.63,148.014Z" transform="translate(-1157.859 -148.014)"/>
      <g id="Group_23" data-name="Group 23" transform="translate(12.199 9.844)">
        <path id="Path_270" data-name="Path 270" class="cls-6" d="M1248.907,159.647a.895.895,0,1,0,0-1.789h-80.719a.895.895,0,1,0,0,1.789Z" transform="translate(-1167.293 -157.858)"/>
        <path id="Path_271" data-name="Path 271" class="cls-6" d="M1248.907,168.37a.895.895,0,1,0,0-1.789h-8.551a.895.895,0,0,0,0,1.789Zm-19.934,0a.895.895,0,0,0,0-1.789h-60.785a.895.895,0,1,0,0,1.789Z" transform="translate(-1167.293 -157.858)"/>
        <path id="Path_272" data-name="Path 272" class="cls-6" d="M1248.907,177.092a.894.894,0,1,0,0-1.788h-80.719a.894.894,0,1,0,0,1.788Z" transform="translate(-1167.293 -157.858)"/>
        <path id="Path_273" data-name="Path 273" class="cls-6" d="M1248.907,188.918a.894.894,0,1,0,0-1.788h-58.27a.894.894,0,1,0,0,1.788Z" transform="translate(-1189.742 -157.858)"/>
        <path id="Path_274" data-name="Path 274" class="cls-6" d="M1248.909,198.381a.895.895,0,0,0,0-1.789h-32.251a.895.895,0,1,0,0,1.789Z" transform="translate(-1215.763 -157.858)"/>
        <path id="Path_275" data-name="Path 275" class="cls-6" d="M1209.707,198.381a.895.895,0,1,0,0-1.789h-11.531a.895.895,0,1,0,0,1.789Z" transform="translate(-1158.081 -157.858)"/>
      </g>
      <g id="Group_28" data-name="Group 28" transform="translate(212.586 33.58)">
        <path id="Path_298" data-name="Path 298" class="cls-5" d="M995.009,319.594h79.4a14.046,14.046,0,0,1,14.008,14.008v69.16a3.009,3.009,0,0,1-1.861,2.784h-.007a2.991,2.991,0,0,1-3.282-.651l-20.6-20.606H995.009A14.046,14.046,0,0,1,981,370.281V333.6a14.048,14.048,0,0,1,14.009-14.008Zm79.4,3.269h-79.4A10.775,10.775,0,0,0,984.271,333.6v36.679a10.775,10.775,0,0,0,10.738,10.738h69.007l21.129,21.131V333.6a10.775,10.775,0,0,0-10.738-10.739Z" transform="translate(-981 -319.594)"/>
        <path id="Path_299" data-name="Path 299" class="cls-5" d="M994.346,333.27a.894.894,0,0,1,0-1.788h80.72a.894.894,0,0,1,0,1.788Z" transform="translate(-980.998 -319.594)"/>
        <path id="Path_300" data-name="Path 300" class="cls-5" d="M994.346,341.993a.895.895,0,0,1,0-1.789h8.551a.895.895,0,0,1,0,1.789Zm19.934,0a.895.895,0,0,1,0-1.789h60.786a.895.895,0,0,1,0,1.789Z" transform="translate(-980.998 -319.594)"/>
        <path id="Path_301" data-name="Path 301" class="cls-5" d="M994.346,350.716a.894.894,0,0,1,0-1.788h80.72a.894.894,0,0,1,0,1.788Z" transform="translate(-980.998 -319.594)"/>
        <path id="Path_302" data-name="Path 302" class="cls-5" d="M994.346,362.542a.894.894,0,0,1,0-1.788h58.272a.894.894,0,1,1,0,1.788Z" transform="translate(-958.55 -319.594)"/>
        <path id="Path_303" data-name="Path 303" class="cls-5" d="M994.348,372a.895.895,0,1,1,0-1.789H1026.6a.895.895,0,0,1,0,1.789Z" transform="translate(-932.532 -319.594)"/>
        <path id="Path_304" data-name="Path 304" class="cls-5" d="M1033.548,372a.895.895,0,0,1,0-1.789h11.531a.895.895,0,1,1,0,1.789Z" transform="translate(-990.213 -319.594)"/>
      </g>
    </g>
    <path id="Path_305" data-name="Path 305" class="cls-5" d="M281.752,883.2a19.488,19.488,0,0,1,7.728-8.053,11.931,11.931,0,0,0,5.84-7.84c1.146-4.087,1.194-8.91,1.194-13.137a3.012,3.012,0,0,1,3.011-3.011h5.155a5.27,5.27,0,0,1,1.55.246c2.381.748,4.4,3.113,5.59,5.211a19.582,19.582,0,0,1,2.437,9.552,21.792,21.792,0,0,1-1.01,6.518c-.459,1.464-1.725,5.743-1.139,7.206a2.5,2.5,0,0,0,.881.123h12.927a16.969,16.969,0,0,1,4.392.543,10.362,10.362,0,0,1,5.2,3.089,10.016,10.016,0,0,1,2.351,6.8,17.847,17.847,0,0,1-.467,3.883c1.864,4.8,2.238,10.772-1.547,14.7.236,3.969-.745,8.3-4.113,10.72-1.836,5.6-6.335,9.226-12.428,9.226H295.6c-4.047,0-8.094-2.143-11.386-4.628a6.822,6.822,0,0,1-1.77,3.016l-.105.1a6.681,6.681,0,0,1-4.594,1.834H266.974a6.714,6.714,0,0,1-6.7-6.707V888.57a6.721,6.721,0,0,1,2.01-4.781l.1-.088a6.676,6.676,0,0,1,4.594-1.837h10.772a6.671,6.671,0,0,1,4.006,1.34Zm2.7,33.42c2.715,2.738,7.275,6.333,11.151,6.333h23.7a6.944,6.944,0,0,0,6.9-5.751,3.013,3.013,0,0,1,1.6-2.083c2.188-1.093,2.254-4.691,1.939-6.7a2.991,2.991,0,0,1,1.163-3.043c2.858-2.1,1.889-6.677.666-9.392a2.956,2.956,0,0,1-.253-2.2,13.069,13.069,0,0,0,.509-3.343,4.254,4.254,0,0,0-.849-2.834,4.5,4.5,0,0,0-2.236-1.238,10.962,10.962,0,0,0-2.831-.334H312.989c-2.886,0-5.222-.951-6.4-3.782-1.35-3.26-.089-8.162.91-11.359a15.9,15.9,0,0,0,.737-4.728,13.384,13.384,0,0,0-1.652-6.583,6.771,6.771,0,0,0-2.066-2.4h-2.01a47.218,47.218,0,0,1-1.4,11.748c-1.41,5.027-4.1,8.994-8.781,11.513-4.46,2.4-7.12,8.231-7.882,13.079v23.1Zm-6.7-28.738H266.974a.624.624,0,0,0-.414.134l-.068.072a.684.684,0,0,0-.2.478v34.019a.686.686,0,0,0,.683.683h10.772a.632.632,0,0,0,.406-.123l.072-.078a.683.683,0,0,0,.2-.482V888.57a.689.689,0,0,0-.205-.483A.677.677,0,0,0,277.746,887.886Z" transform="translate(100.277 -79.502)"/>
    <path id="Path_1779" data-name="Path 1779" class="cls-5" d="M274.515,872.41a12.923,12.923,0,0,1,5.125-5.34,7.912,7.912,0,0,0,3.873-5.2,33.475,33.475,0,0,0,.792-8.711,2,2,0,0,1,2-2h3.418a3.494,3.494,0,0,1,1.028.163,7.4,7.4,0,0,1,3.707,3.455,12.986,12.986,0,0,1,1.616,6.334,14.452,14.452,0,0,1-.67,4.322c-.3.971-1.144,3.808-.755,4.778a1.656,1.656,0,0,0,.584.082H303.8a11.255,11.255,0,0,1,2.912.36,6.872,6.872,0,0,1,3.446,2.048,6.642,6.642,0,0,1,1.559,4.507,11.835,11.835,0,0,1-.31,2.575c1.236,3.183,1.484,7.143-1.026,9.749.156,2.632-.494,5.5-2.727,7.109a8.4,8.4,0,0,1-8.241,6.118H283.7c-2.684,0-5.367-1.421-7.55-3.069a4.523,4.523,0,0,1-1.174,2l-.07.064a4.43,4.43,0,0,1-3.046,1.216h-7.143a4.452,4.452,0,0,1-4.446-4.448V875.968a4.457,4.457,0,0,1,1.333-3.17l.067-.058a4.427,4.427,0,0,1,3.046-1.218h7.143a4.423,4.423,0,0,1,2.656.889Zm1.789,22.161c1.8,1.816,4.824,4.2,7.394,4.2h15.716a4.6,4.6,0,0,0,4.579-3.814,2,2,0,0,1,1.062-1.381c1.451-.725,1.495-3.111,1.286-4.442a1.983,1.983,0,0,1,.771-2.018c1.9-1.4,1.253-4.428.442-6.228a1.96,1.96,0,0,1-.168-1.459,8.667,8.667,0,0,0,.338-2.217,2.821,2.821,0,0,0-.563-1.879,2.984,2.984,0,0,0-1.483-.821,7.27,7.27,0,0,0-1.877-.221h-8.572c-1.914,0-3.463-.631-4.242-2.508-.9-2.162-.059-5.412.6-7.532a10.544,10.544,0,0,0,.489-3.135,8.875,8.875,0,0,0-1.1-4.365,4.489,4.489,0,0,0-1.37-1.593h-1.333a31.313,31.313,0,0,1-.927,7.79,11.76,11.76,0,0,1-5.823,7.635c-2.958,1.592-4.721,5.458-5.227,8.673v15.316Zm-4.446-19.057h-7.143a.414.414,0,0,0-.275.089l-.045.048a.454.454,0,0,0-.133.317v22.559a.455.455,0,0,0,.453.453h7.143a.419.419,0,0,0,.269-.082l.048-.052a.453.453,0,0,0,.135-.32V875.968a.457.457,0,0,0-.136-.32A.449.449,0,0,0,271.858,875.515Z" transform="translate(699.277 -751.181)"/>
    <path id="Path_306" data-name="Path 306" class="cls-5" d="M494.773,511.318a2.908,2.908,0,1,1,5.816,0V524.4a2.908,2.908,0,1,1-5.816,0V511.318ZM474.94,521.943a2.91,2.91,0,1,1,4.113-4.117l9.254,9.254a2.909,2.909,0,0,1-4.113,4.116l-9.254-9.253Zm-6.51,21.539a2.911,2.911,0,1,1,0-5.823h13.086a2.912,2.912,0,0,1,0,5.823Zm10.623,19.832a2.909,2.909,0,1,1-4.113-4.116l9.254-9.254a2.909,2.909,0,0,1,4.113,4.114l-9.254,9.256Zm21.536,6.508a2.908,2.908,0,0,1-5.816,0V556.731a2.908,2.908,0,1,1,5.816,0v13.091ZM520.422,559.2a2.91,2.91,0,1,1-4.116,4.116l-9.255-9.256a2.91,2.91,0,0,1,4.116-4.114l9.255,9.254Zm6.51-21.539a2.911,2.911,0,0,1,0,5.823H513.844a2.911,2.911,0,0,1,0-5.823Zm-10.626-19.833a2.911,2.911,0,0,1,4.116,4.117l-9.255,9.253a2.91,2.91,0,0,1-4.116-4.116Z" transform="translate(998.277 119.498)"/>
    <path id="Path_307" data-name="Path 307" class="cls-5" d="M1657.5,705.96a2.908,2.908,0,0,1,5.816,0v13.082a2.908,2.908,0,1,1-5.816,0V705.96Zm-19.833,10.624a2.909,2.909,0,1,1,4.113-4.116l9.255,9.253a2.91,2.91,0,0,1-4.113,4.117l-9.255-9.254Zm-6.51,21.537a2.911,2.911,0,1,1,0-5.823h13.086a2.912,2.912,0,0,1,0,5.823Zm10.623,19.835a2.909,2.909,0,0,1-4.113-4.116l9.255-9.254a2.909,2.909,0,0,1,4.113,4.116l-9.255,9.254Zm21.536,6.508a2.908,2.908,0,0,1-5.816,0V751.372a2.908,2.908,0,0,1,5.816,0v13.092Zm19.833-10.624a2.91,2.91,0,0,1-4.116,4.116l-9.255-9.254a2.91,2.91,0,0,1,4.116-4.116l9.255,9.254Zm6.509-21.542a2.911,2.911,0,1,1,0,5.823h-13.086a2.911,2.911,0,0,1,0-5.823Zm-10.625-19.83a2.91,2.91,0,0,1,4.116,4.116l-9.255,9.254a2.911,2.911,0,0,1-4.116-4.117Z" transform="translate(-1143.723 -636.502)"/>
    <g id="Group_30" data-name="Group 30" transform="translate(-201.686 -18.199)">
      <path id="Path_354" data-name="Path 354" class="cls-7" d="M1732.924,455.068a2.86,2.86,0,1,1-2.861-2.861A2.86,2.86,0,0,1,1732.924,455.068Z" transform="translate(0)"/>
      <path id="Path_355" data-name="Path 355" class="cls-7" d="M1766.76,455.068a2.86,2.86,0,1,1-2.86-2.861A2.859,2.859,0,0,1,1766.76,455.068Z" transform="translate(4.484)"/>
      <circle id="Ellipse_101" data-name="Ellipse 101" class="cls-7" cx="2.86" cy="2.86" r="2.86" transform="translate(1803.845 452.208)"/>
      <path id="Path_356" data-name="Path 356" class="cls-7" d="M1834.433,455.068a2.86,2.86,0,1,1-2.861-2.861A2.86,2.86,0,0,1,1834.433,455.068Z" transform="translate(13.453)"/>
      <path id="Path_357" data-name="Path 357" class="cls-7" d="M1732.924,488.127a2.86,2.86,0,1,1-2.861-2.861A2.86,2.86,0,0,1,1732.924,488.127Z" transform="translate(0 4.381)"/>
      <path id="Path_358" data-name="Path 358" class="cls-7" d="M1766.76,488.127a2.86,2.86,0,1,1-2.86-2.861A2.859,2.859,0,0,1,1766.76,488.127Z" transform="translate(4.484 4.381)"/>
      <path id="Path_359" data-name="Path 359" class="cls-7" d="M1800.6,488.127a2.86,2.86,0,1,1-2.86-2.861A2.859,2.859,0,0,1,1800.6,488.127Z" transform="translate(8.969 4.381)"/>
      <path id="Path_360" data-name="Path 360" class="cls-7" d="M1834.433,488.127a2.86,2.86,0,1,1-2.861-2.861A2.86,2.86,0,0,1,1834.433,488.127Z" transform="translate(13.453 4.381)"/>
      <path id="Path_361" data-name="Path 361" class="cls-7" d="M1732.924,521.185a2.86,2.86,0,1,1-2.861-2.86A2.861,2.861,0,0,1,1732.924,521.185Z" transform="translate(0 8.763)"/>
      <path id="Path_362" data-name="Path 362" class="cls-7" d="M1766.76,521.185a2.86,2.86,0,1,1-2.86-2.86A2.86,2.86,0,0,1,1766.76,521.185Z" transform="translate(4.484 8.763)"/>
      <circle id="Ellipse_102" data-name="Ellipse 102" class="cls-7" cx="2.86" cy="2.86" r="2.86" transform="translate(1803.845 527.088)"/>
      <path id="Path_363" data-name="Path 363" class="cls-7" d="M1834.433,521.185a2.86,2.86,0,1,1-2.861-2.86A2.861,2.861,0,0,1,1834.433,521.185Z" transform="translate(13.453 8.763)"/>
      <path id="Path_364" data-name="Path 364" class="cls-7" d="M1732.924,555.156a2.86,2.86,0,1,1-2.861-2.861A2.86,2.86,0,0,1,1732.924,555.156Z" transform="translate(0 13.265)"/>
      <path id="Path_365" data-name="Path 365" class="cls-7" d="M1766.76,555.156a2.86,2.86,0,1,1-2.86-2.861A2.859,2.859,0,0,1,1766.76,555.156Z" transform="translate(4.484 13.265)"/>
      <circle id="Ellipse_103" data-name="Ellipse 103" class="cls-7" cx="2.86" cy="2.86" r="2.86" transform="translate(1803.845 565.56)"/>
      <path id="Path_366" data-name="Path 366" class="cls-7" d="M1834.433,555.156a2.86,2.86,0,1,1-2.861-2.861A2.86,2.86,0,0,1,1834.433,555.156Z" transform="translate(13.453 13.265)"/>
      <path id="Path_367" data-name="Path 367" class="cls-7" d="M1732.924,588.214a2.86,2.86,0,1,1-2.861-2.86A2.861,2.861,0,0,1,1732.924,588.214Z" transform="translate(0 17.646)"/>
      <path id="Path_368" data-name="Path 368" class="cls-7" d="M1766.76,588.214a2.86,2.86,0,1,1-2.86-2.86A2.86,2.86,0,0,1,1766.76,588.214Z" transform="translate(4.484 17.646)"/>
      <circle id="Ellipse_104" data-name="Ellipse 104" class="cls-7" cx="2.86" cy="2.86" r="2.86" transform="translate(1803.845 603)"/>
      <path id="Path_369" data-name="Path 369" class="cls-7" d="M1834.433,588.214a2.86,2.86,0,1,1-2.861-2.86A2.861,2.861,0,0,1,1834.433,588.214Z" transform="translate(13.453 17.646)"/>
      <path id="Path_370" data-name="Path 370" class="cls-7" d="M1732.924,621.273a2.86,2.86,0,1,1-2.861-2.86A2.861,2.861,0,0,1,1732.924,621.273Z" transform="translate(0 22.028)"/>
      <path id="Path_371" data-name="Path 371" class="cls-7" d="M1766.76,621.273a2.86,2.86,0,1,1-2.86-2.86A2.86,2.86,0,0,1,1766.76,621.273Z" transform="translate(4.484 22.028)"/>
      <circle id="Ellipse_105" data-name="Ellipse 105" class="cls-7" cx="2.86" cy="2.86" r="2.86" transform="translate(1803.845 640.44)"/>
      <path id="Path_372" data-name="Path 372" class="cls-7" d="M1834.433,621.273a2.86,2.86,0,1,1-2.861-2.86A2.861,2.861,0,0,1,1834.433,621.273Z" transform="translate(13.453 22.028)"/>
      <circle id="Ellipse_106" data-name="Ellipse 106" class="cls-7" cx="2.86" cy="2.86" r="2.86" transform="translate(1882.406 452.208)"/>
      <circle id="Ellipse_107" data-name="Ellipse 107" class="cls-7" cx="2.86" cy="2.86" r="2.86" transform="translate(1920.726 452.208)"/>
      <path id="Path_373" data-name="Path 373" class="cls-7" d="M1937.636,455.068a2.86,2.86,0,1,1-2.86-2.861A2.859,2.859,0,0,1,1937.636,455.068Z" transform="translate(27.131)"/>
      <path id="Path_374" data-name="Path 374" class="cls-7" d="M1971.472,455.068a2.86,2.86,0,1,1-2.86-2.861A2.859,2.859,0,0,1,1971.472,455.068Z" transform="translate(31.615)"/>
      <path id="Path_375" data-name="Path 375" class="cls-7" d="M1869.964,488.127a2.86,2.86,0,1,1-2.861-2.861A2.86,2.86,0,0,1,1869.964,488.127Z" transform="translate(18.162 4.381)"/>
      <path id="Path_376" data-name="Path 376" class="cls-7" d="M1903.8,488.127a2.86,2.86,0,1,1-2.861-2.861A2.86,2.86,0,0,1,1903.8,488.127Z" transform="translate(22.647 4.381)"/>
      <path id="Path_377" data-name="Path 377" class="cls-7" d="M1937.636,488.127a2.86,2.86,0,1,1-2.86-2.861A2.859,2.859,0,0,1,1937.636,488.127Z" transform="translate(27.131 4.381)"/>
      <path id="Path_378" data-name="Path 378" class="cls-7" d="M1971.472,488.127a2.86,2.86,0,1,1-2.86-2.861A2.859,2.859,0,0,1,1971.472,488.127Z" transform="translate(31.615 4.381)"/>
      <circle id="Ellipse_108" data-name="Ellipse 108" class="cls-7" cx="2.86" cy="2.86" r="2.86" transform="translate(1882.406 527.088)"/>
      <circle id="Ellipse_109" data-name="Ellipse 109" class="cls-7" cx="2.86" cy="2.86" r="2.86" transform="translate(1920.726 527.088)"/>
      <path id="Path_379" data-name="Path 379" class="cls-7" d="M1937.636,521.185a2.86,2.86,0,1,1-2.86-2.86A2.86,2.86,0,0,1,1937.636,521.185Z" transform="translate(27.131 8.763)"/>
      <path id="Path_380" data-name="Path 380" class="cls-7" d="M1971.472,521.185a2.86,2.86,0,1,1-2.86-2.86A2.86,2.86,0,0,1,1971.472,521.185Z" transform="translate(31.615 8.763)"/>
      <circle id="Ellipse_110" data-name="Ellipse 110" class="cls-7" cx="2.86" cy="2.86" r="2.86" transform="translate(1882.406 565.56)"/>
      <circle id="Ellipse_111" data-name="Ellipse 111" class="cls-7" cx="2.86" cy="2.86" r="2.86" transform="translate(1920.726 565.56)"/>
      <path id="Path_381" data-name="Path 381" class="cls-7" d="M1937.636,555.156a2.86,2.86,0,1,1-2.86-2.861A2.859,2.859,0,0,1,1937.636,555.156Z" transform="translate(27.131 13.265)"/>
      <path id="Path_382" data-name="Path 382" class="cls-7" d="M1971.472,555.156a2.86,2.86,0,1,1-2.86-2.861A2.859,2.859,0,0,1,1971.472,555.156Z" transform="translate(31.615 13.265)"/>
      <circle id="Ellipse_112" data-name="Ellipse 112" class="cls-7" cx="2.86" cy="2.86" r="2.86" transform="translate(1882.406 603)"/>
      <circle id="Ellipse_113" data-name="Ellipse 113" class="cls-7" cx="2.86" cy="2.86" r="2.86" transform="translate(1920.726 603)"/>
      <path id="Path_383" data-name="Path 383" class="cls-7" d="M1937.636,588.214a2.86,2.86,0,1,1-2.86-2.86A2.86,2.86,0,0,1,1937.636,588.214Z" transform="translate(27.131 17.646)"/>
      <path id="Path_384" data-name="Path 384" class="cls-7" d="M1971.472,588.214a2.86,2.86,0,1,1-2.86-2.86A2.86,2.86,0,0,1,1971.472,588.214Z" transform="translate(31.615 17.646)"/>
      <circle id="Ellipse_114" data-name="Ellipse 114" class="cls-7" cx="2.86" cy="2.86" r="2.86" transform="translate(1882.406 640.44)"/>
      <circle id="Ellipse_115" data-name="Ellipse 115" class="cls-7" cx="2.86" cy="2.86" r="2.86" transform="translate(1920.726 640.44)"/>
      <path id="Path_385" data-name="Path 385" class="cls-7" d="M1937.636,621.273a2.86,2.86,0,1,1-2.86-2.86A2.86,2.86,0,0,1,1937.636,621.273Z" transform="translate(27.131 22.028)"/>
      <path id="Path_386" data-name="Path 386" class="cls-7" d="M1971.472,621.273a2.86,2.86,0,1,1-2.86-2.86A2.86,2.86,0,0,1,1971.472,621.273Z" transform="translate(31.615 22.028)"/>
      <path id="Path_387" data-name="Path 387" class="cls-7" d="M2007,455.068a2.86,2.86,0,1,1-2.86-2.861A2.859,2.859,0,0,1,2007,455.068Z" transform="translate(36.324)"/>
      <path id="Path_388" data-name="Path 388" class="cls-7" d="M2040.841,455.068a2.861,2.861,0,1,1-2.861-2.861A2.86,2.86,0,0,1,2040.841,455.068Z" transform="translate(40.809)"/>
      <circle id="Ellipse_116" data-name="Ellipse 116" class="cls-7" cx="2.86" cy="2.86" r="2.86" transform="translate(2114.249 452.208)"/>
      <path id="Path_389" data-name="Path 389" class="cls-7" d="M2007,488.127a2.86,2.86,0,1,1-2.86-2.861A2.859,2.859,0,0,1,2007,488.127Z" transform="translate(36.324 4.381)"/>
      <path id="Path_390" data-name="Path 390" class="cls-7" d="M2040.841,488.127a2.861,2.861,0,1,1-2.861-2.861A2.86,2.86,0,0,1,2040.841,488.127Z" transform="translate(40.809 4.381)"/>
      <path id="Path_391" data-name="Path 391" class="cls-7" d="M2074.677,488.127a2.86,2.86,0,1,1-2.861-2.861A2.86,2.86,0,0,1,2074.677,488.127Z" transform="translate(45.293 4.381)"/>
      <path id="Path_392" data-name="Path 392" class="cls-7" d="M2007,521.185a2.86,2.86,0,1,1-2.86-2.86A2.86,2.86,0,0,1,2007,521.185Z" transform="translate(36.324 8.763)"/>
      <path id="Path_393" data-name="Path 393" class="cls-7" d="M2040.841,521.185a2.861,2.861,0,1,1-2.861-2.86A2.861,2.861,0,0,1,2040.841,521.185Z" transform="translate(40.809 8.763)"/>
      <circle id="Ellipse_117" data-name="Ellipse 117" class="cls-7" cx="2.86" cy="2.86" r="2.86" transform="translate(2114.249 527.088)"/>
      <path id="Path_394" data-name="Path 394" class="cls-7" d="M2007,555.156a2.86,2.86,0,1,1-2.86-2.861A2.859,2.859,0,0,1,2007,555.156Z" transform="translate(36.324 13.265)"/>
      <path id="Path_395" data-name="Path 395" class="cls-7" d="M2040.841,555.156a2.861,2.861,0,1,1-2.861-2.861A2.86,2.86,0,0,1,2040.841,555.156Z" transform="translate(40.809 13.265)"/>
      <circle id="Ellipse_118" data-name="Ellipse 118" class="cls-7" cx="2.86" cy="2.86" r="2.86" transform="translate(2114.249 565.56)"/>
      <path id="Path_396" data-name="Path 396" class="cls-7" d="M2007,588.214a2.86,2.86,0,1,1-2.86-2.86A2.86,2.86,0,0,1,2007,588.214Z" transform="translate(36.324 17.646)"/>
      <path id="Path_397" data-name="Path 397" class="cls-7" d="M2040.841,588.214a2.861,2.861,0,1,1-2.861-2.86A2.861,2.861,0,0,1,2040.841,588.214Z" transform="translate(40.809 17.646)"/>
      <circle id="Ellipse_119" data-name="Ellipse 119" class="cls-7" cx="2.86" cy="2.86" r="2.86" transform="translate(2114.249 603)"/>
      <path id="Path_398" data-name="Path 398" class="cls-7" d="M2007,621.273a2.86,2.86,0,1,1-2.86-2.86A2.86,2.86,0,0,1,2007,621.273Z" transform="translate(36.324 22.028)"/>
      <path id="Path_399" data-name="Path 399" class="cls-7" d="M2040.841,621.273a2.861,2.861,0,1,1-2.861-2.86A2.861,2.861,0,0,1,2040.841,621.273Z" transform="translate(40.809 22.028)"/>
      <circle id="Ellipse_120" data-name="Ellipse 120" class="cls-7" cx="2.86" cy="2.86" r="2.86" transform="translate(2114.249 640.44)"/>
    </g>
    <g id="Group_31" data-name="Group 31" transform="translate(-99.163 -89.356)">
      <path id="Path_400" data-name="Path 400" class="cls-8" d="M1063.345,925.023a2.022,2.022,0,1,1-2.021-2.023A2.022,2.022,0,0,1,1063.345,925.023Z" transform="translate(0 0)"/>
      <path id="Path_401" data-name="Path 401" class="cls-8" d="M1090.269,925.023a2.022,2.022,0,1,1-2.022-2.023A2.022,2.022,0,0,1,1090.269,925.023Z" transform="translate(0.169 0)"/>
      <circle id="Ellipse_121" data-name="Ellipse 121" class="cls-8" cx="2.022" cy="2.022" r="2.022" transform="translate(1113.486 923)"/>
      <path id="Path_402" data-name="Path 402" class="cls-8" d="M1144.118,925.023A2.023,2.023,0,1,1,1142.1,923,2.022,2.022,0,0,1,1144.118,925.023Z" transform="translate(0.506 0)"/>
      <path id="Path_403" data-name="Path 403" class="cls-8" d="M1063.345,951.328a2.022,2.022,0,1,1-2.021-2.022A2.023,2.023,0,0,1,1063.345,951.328Z" transform="translate(0 0.165)"/>
      <path id="Path_404" data-name="Path 404" class="cls-8" d="M1090.269,951.328a2.022,2.022,0,1,1-2.022-2.022A2.022,2.022,0,0,1,1090.269,951.328Z" transform="translate(0.169 0.165)"/>
      <path id="Path_405" data-name="Path 405" class="cls-8" d="M1117.193,951.328a2.022,2.022,0,1,1-2.021-2.022A2.022,2.022,0,0,1,1117.193,951.328Z" transform="translate(0.337 0.165)"/>
      <path id="Path_406" data-name="Path 406" class="cls-8" d="M1144.118,951.328a2.023,2.023,0,1,1-2.023-2.022A2.023,2.023,0,0,1,1144.118,951.328Z" transform="translate(0.506 0.165)"/>
      <path id="Path_407" data-name="Path 407" class="cls-8" d="M1063.345,977.633a2.022,2.022,0,1,1-2.021-2.022A2.022,2.022,0,0,1,1063.345,977.633Z" transform="translate(0 0.329)"/>
      <path id="Path_408" data-name="Path 408" class="cls-8" d="M1090.269,977.633a2.022,2.022,0,1,1-2.022-2.022A2.022,2.022,0,0,1,1090.269,977.633Z" transform="translate(0.169 0.329)"/>
      <circle id="Ellipse_122" data-name="Ellipse 122" class="cls-8" cx="2.022" cy="2.022" r="2.022" transform="translate(1113.486 975.94)"/>
      <path id="Path_409" data-name="Path 409" class="cls-8" d="M1144.118,977.633a2.023,2.023,0,1,1-2.023-2.022A2.023,2.023,0,0,1,1144.118,977.633Z" transform="translate(0.506 0.329)"/>
      <path id="Path_410" data-name="Path 410" class="cls-8" d="M1063.345,1004.664a2.022,2.022,0,1,1-2.021-2.021A2.023,2.023,0,0,1,1063.345,1004.664Z" transform="translate(0 0.499)"/>
      <path id="Path_411" data-name="Path 411" class="cls-8" d="M1090.269,1004.664a2.022,2.022,0,1,1-2.022-2.021A2.022,2.022,0,0,1,1090.269,1004.664Z" transform="translate(0.169 0.499)"/>
      <circle id="Ellipse_123" data-name="Ellipse 123" class="cls-8" cx="2.022" cy="2.022" r="2.022" transform="translate(1113.486 1003.141)"/>
      <path id="Path_412" data-name="Path 412" class="cls-8" d="M1144.118,1004.664a2.023,2.023,0,1,1-2.023-2.021A2.023,2.023,0,0,1,1144.118,1004.664Z" transform="translate(0.506 0.499)"/>
      <path id="Path_413" data-name="Path 413" class="cls-8" d="M1063.345,1030.97a2.022,2.022,0,1,1-2.021-2.023A2.022,2.022,0,0,1,1063.345,1030.97Z" transform="translate(0 0.663)"/>
      <path id="Path_414" data-name="Path 414" class="cls-8" d="M1090.269,1030.97a2.022,2.022,0,1,1-2.022-2.023A2.021,2.021,0,0,1,1090.269,1030.97Z" transform="translate(0.169 0.663)"/>
      <circle id="Ellipse_124" data-name="Ellipse 124" class="cls-8" cx="2.022" cy="2.022" r="2.022" transform="translate(1113.486 1029.61)"/>
      <path id="Path_415" data-name="Path 415" class="cls-8" d="M1144.118,1030.97a2.023,2.023,0,1,1-2.023-2.023A2.022,2.022,0,0,1,1144.118,1030.97Z" transform="translate(0.506 0.663)"/>
      <path id="Path_416" data-name="Path 416" class="cls-8" d="M1063.345,1057.274a2.022,2.022,0,1,1-2.021-2.021A2.022,2.022,0,0,1,1063.345,1057.274Z" transform="translate(0 0.828)"/>
      <path id="Path_417" data-name="Path 417" class="cls-8" d="M1090.269,1057.274a2.022,2.022,0,1,1-2.022-2.021A2.022,2.022,0,0,1,1090.269,1057.274Z" transform="translate(0.169 0.828)"/>
      <circle id="Ellipse_125" data-name="Ellipse 125" class="cls-8" cx="2.022" cy="2.022" r="2.022" transform="translate(1113.486 1056.081)"/>
      <path id="Path_418" data-name="Path 418" class="cls-8" d="M1144.118,1057.274a2.023,2.023,0,1,1-2.023-2.021A2.023,2.023,0,0,1,1144.118,1057.274Z" transform="translate(0.506 0.828)"/>
      <circle id="Ellipse_126" data-name="Ellipse 126" class="cls-8" cx="2.022" cy="2.022" r="2.022" transform="translate(1169.029 923)"/>
      <circle id="Ellipse_127" data-name="Ellipse 127" class="cls-8" cx="2.022" cy="2.022" r="2.022" transform="translate(1196.121 923)"/>
      <path id="Path_419" data-name="Path 419" class="cls-8" d="M1226.239,925.023a2.023,2.023,0,1,1-2.023-2.023A2.022,2.022,0,0,1,1226.239,925.023Z" transform="translate(1.02 0)"/>
      <path id="Path_420" data-name="Path 420" class="cls-8" d="M1253.163,925.023a2.022,2.022,0,1,1-2.022-2.023A2.022,2.022,0,0,1,1253.163,925.023Z" transform="translate(1.188 0)"/>
      <path id="Path_421" data-name="Path 421" class="cls-8" d="M1172.39,951.328a2.022,2.022,0,1,1-2.022-2.022A2.023,2.023,0,0,1,1172.39,951.328Z" transform="translate(0.683 0.165)"/>
      <path id="Path_422" data-name="Path 422" class="cls-8" d="M1199.314,951.328a2.022,2.022,0,1,1-2.021-2.022A2.022,2.022,0,0,1,1199.314,951.328Z" transform="translate(0.851 0.165)"/>
      <path id="Path_423" data-name="Path 423" class="cls-8" d="M1226.239,951.328a2.023,2.023,0,1,1-2.023-2.022A2.023,2.023,0,0,1,1226.239,951.328Z" transform="translate(1.02 0.165)"/>
      <path id="Path_424" data-name="Path 424" class="cls-8" d="M1253.163,951.328a2.022,2.022,0,1,1-2.022-2.022A2.023,2.023,0,0,1,1253.163,951.328Z" transform="translate(1.188 0.165)"/>
      <circle id="Ellipse_128" data-name="Ellipse 128" class="cls-8" cx="2.022" cy="2.022" r="2.022" transform="translate(1169.029 975.94)"/>
      <circle id="Ellipse_129" data-name="Ellipse 129" class="cls-8" cx="2.022" cy="2.022" r="2.022" transform="translate(1196.121 975.94)"/>
      <path id="Path_425" data-name="Path 425" class="cls-8" d="M1226.239,977.633a2.023,2.023,0,1,1-2.023-2.022A2.023,2.023,0,0,1,1226.239,977.633Z" transform="translate(1.02 0.329)"/>
      <path id="Path_426" data-name="Path 426" class="cls-8" d="M1253.163,977.633a2.022,2.022,0,1,1-2.022-2.022A2.023,2.023,0,0,1,1253.163,977.633Z" transform="translate(1.188 0.329)"/>
      <circle id="Ellipse_130" data-name="Ellipse 130" class="cls-8" cx="2.022" cy="2.022" r="2.022" transform="translate(1169.029 1003.141)"/>
      <circle id="Ellipse_131" data-name="Ellipse 131" class="cls-8" cx="2.022" cy="2.022" r="2.022" transform="translate(1196.121 1003.141)"/>
      <path id="Path_427" data-name="Path 427" class="cls-8" d="M1226.239,1004.664a2.023,2.023,0,1,1-2.023-2.021A2.023,2.023,0,0,1,1226.239,1004.664Z" transform="translate(1.02 0.499)"/>
      <path id="Path_428" data-name="Path 428" class="cls-8" d="M1253.163,1004.664a2.022,2.022,0,1,1-2.022-2.021A2.023,2.023,0,0,1,1253.163,1004.664Z" transform="translate(1.188 0.499)"/>
      <circle id="Ellipse_132" data-name="Ellipse 132" class="cls-8" cx="2.022" cy="2.022" r="2.022" transform="translate(1169.029 1029.61)"/>
      <circle id="Ellipse_133" data-name="Ellipse 133" class="cls-8" cx="2.022" cy="2.022" r="2.022" transform="translate(1196.121 1029.61)"/>
      <path id="Path_429" data-name="Path 429" class="cls-8" d="M1226.239,1030.97a2.023,2.023,0,1,1-2.023-2.023A2.022,2.022,0,0,1,1226.239,1030.97Z" transform="translate(1.02 0.663)"/>
      <path id="Path_430" data-name="Path 430" class="cls-8" d="M1253.163,1030.97a2.022,2.022,0,1,1-2.022-2.023A2.022,2.022,0,0,1,1253.163,1030.97Z" transform="translate(1.188 0.663)"/>
      <circle id="Ellipse_134" data-name="Ellipse 134" class="cls-8" cx="2.022" cy="2.022" r="2.022" transform="translate(1169.029 1056.081)"/>
      <circle id="Ellipse_135" data-name="Ellipse 135" class="cls-8" cx="2.022" cy="2.022" r="2.022" transform="translate(1196.121 1056.081)"/>
      <path id="Path_431" data-name="Path 431" class="cls-8" d="M1226.239,1057.274a2.023,2.023,0,1,1-2.023-2.021A2.023,2.023,0,0,1,1226.239,1057.274Z" transform="translate(1.02 0.828)"/>
      <path id="Path_432" data-name="Path 432" class="cls-8" d="M1253.163,1057.274a2.022,2.022,0,1,1-2.022-2.021A2.023,2.023,0,0,1,1253.163,1057.274Z" transform="translate(1.188 0.828)"/>
      <path id="Path_433" data-name="Path 433" class="cls-8" d="M1281.435,925.023a2.022,2.022,0,1,1-2.022-2.023A2.022,2.022,0,0,1,1281.435,925.023Z" transform="translate(1.365 0)"/>
      <path id="Path_434" data-name="Path 434" class="cls-8" d="M1308.359,925.023a2.022,2.022,0,1,1-2.022-2.023A2.022,2.022,0,0,1,1308.359,925.023Z" transform="translate(1.534 0)"/>
      <circle id="Ellipse_136" data-name="Ellipse 136" class="cls-8" cx="2.022" cy="2.022" r="2.022" transform="translate(1332.942 923)"/>
      <path id="Path_435" data-name="Path 435" class="cls-8" d="M1281.435,951.328a2.022,2.022,0,1,1-2.022-2.022A2.022,2.022,0,0,1,1281.435,951.328Z" transform="translate(1.365 0.165)"/>
      <path id="Path_436" data-name="Path 436" class="cls-8" d="M1308.359,951.328a2.022,2.022,0,1,1-2.022-2.022A2.022,2.022,0,0,1,1308.359,951.328Z" transform="translate(1.534 0.165)"/>
      <path id="Path_437" data-name="Path 437" class="cls-8" d="M1335.284,951.328a2.023,2.023,0,1,1-2.023-2.022A2.023,2.023,0,0,1,1335.284,951.328Z" transform="translate(1.703 0.165)"/>
      <path id="Path_438" data-name="Path 438" class="cls-8" d="M1281.435,977.633a2.022,2.022,0,1,1-2.022-2.022A2.022,2.022,0,0,1,1281.435,977.633Z" transform="translate(1.365 0.329)"/>
      <path id="Path_439" data-name="Path 439" class="cls-8" d="M1308.359,977.633a2.022,2.022,0,1,1-2.022-2.022A2.022,2.022,0,0,1,1308.359,977.633Z" transform="translate(1.534 0.329)"/>
      <circle id="Ellipse_137" data-name="Ellipse 137" class="cls-8" cx="2.022" cy="2.022" r="2.022" transform="translate(1332.942 975.94)"/>
      <path id="Path_440" data-name="Path 440" class="cls-8" d="M1281.435,1004.664a2.022,2.022,0,1,1-2.022-2.021A2.022,2.022,0,0,1,1281.435,1004.664Z" transform="translate(1.365 0.499)"/>
      <path id="Path_441" data-name="Path 441" class="cls-8" d="M1308.359,1004.664a2.022,2.022,0,1,1-2.022-2.021A2.022,2.022,0,0,1,1308.359,1004.664Z" transform="translate(1.534 0.499)"/>
      <circle id="Ellipse_138" data-name="Ellipse 138" class="cls-8" cx="2.022" cy="2.022" r="2.022" transform="translate(1332.942 1003.141)"/>
      <path id="Path_442" data-name="Path 442" class="cls-8" d="M1281.435,1030.97a2.022,2.022,0,1,1-2.022-2.023A2.021,2.021,0,0,1,1281.435,1030.97Z" transform="translate(1.365 0.663)"/>
      <path id="Path_443" data-name="Path 443" class="cls-8" d="M1308.359,1030.97a2.022,2.022,0,1,1-2.022-2.023A2.021,2.021,0,0,1,1308.359,1030.97Z" transform="translate(1.534 0.663)"/>
      <circle id="Ellipse_139" data-name="Ellipse 139" class="cls-8" cx="2.022" cy="2.022" r="2.022" transform="translate(1332.942 1029.61)"/>
      <path id="Path_444" data-name="Path 444" class="cls-8" d="M1281.435,1057.274a2.022,2.022,0,1,1-2.022-2.021A2.022,2.022,0,0,1,1281.435,1057.274Z" transform="translate(1.365 0.828)"/>
      <path id="Path_445" data-name="Path 445" class="cls-8" d="M1308.359,1057.274a2.022,2.022,0,1,1-2.022-2.021A2.022,2.022,0,0,1,1308.359,1057.274Z" transform="translate(1.534 0.828)"/>
      <circle id="Ellipse_140" data-name="Ellipse 140" class="cls-8" cx="2.022" cy="2.022" r="2.022" transform="translate(1332.942 1056.081)"/>
    </g>
    <g id="Group_32" data-name="Group 32" transform="translate(-1.723 4.498)">
      <path id="Path_446" data-name="Path 446" class="cls-8" d="M598.546,362.253a2.4,2.4,0,1,1-2.4-2.4A2.4,2.4,0,0,1,598.546,362.253Z"/>
      <path id="Path_447" data-name="Path 447" class="cls-8" d="M630.751,362.253a2.4,2.4,0,1,1-2.4-2.4A2.4,2.4,0,0,1,630.751,362.253Z"/>
      <circle id="Ellipse_141" data-name="Ellipse 141" class="cls-8" cx="2.404" cy="2.404" r="2.404" transform="translate(658.148 359.849)"/>
      <path id="Path_448" data-name="Path 448" class="cls-8" d="M695.159,362.253a2.4,2.4,0,1,1-2.4-2.4A2.4,2.4,0,0,1,695.159,362.253Z"/>
      <path id="Path_449" data-name="Path 449" class="cls-8" d="M598.546,393.717a2.4,2.4,0,1,1-2.4-2.4A2.4,2.4,0,0,1,598.546,393.717Z"/>
      <path id="Path_450" data-name="Path 450" class="cls-8" d="M630.751,393.717a2.4,2.4,0,1,1-2.4-2.4A2.4,2.4,0,0,1,630.751,393.717Z"/>
      <path id="Path_451" data-name="Path 451" class="cls-8" d="M662.955,393.717a2.4,2.4,0,1,1-2.4-2.4A2.4,2.4,0,0,1,662.955,393.717Z"/>
      <path id="Path_452" data-name="Path 452" class="cls-8" d="M695.159,393.717a2.4,2.4,0,1,1-2.4-2.4A2.4,2.4,0,0,1,695.159,393.717Z"/>
      <path id="Path_453" data-name="Path 453" class="cls-8" d="M598.546,425.181a2.4,2.4,0,1,1-2.4-2.4A2.4,2.4,0,0,1,598.546,425.181Z"/>
      <path id="Path_454" data-name="Path 454" class="cls-8" d="M630.751,425.181a2.4,2.4,0,1,1-2.4-2.4A2.4,2.4,0,0,1,630.751,425.181Z"/>
      <circle id="Ellipse_142" data-name="Ellipse 142" class="cls-8" cx="2.404" cy="2.404" r="2.404" transform="translate(658.148 422.777)"/>
      <path id="Path_455" data-name="Path 455" class="cls-8" d="M695.159,425.181a2.4,2.4,0,1,1-2.4-2.4A2.4,2.4,0,0,1,695.159,425.181Z"/>
      <path id="Path_456" data-name="Path 456" class="cls-8" d="M598.546,457.513a2.4,2.4,0,1,1-2.4-2.4A2.4,2.4,0,0,1,598.546,457.513Z"/>
      <path id="Path_457" data-name="Path 457" class="cls-8" d="M630.751,457.513a2.4,2.4,0,1,1-2.4-2.4A2.4,2.4,0,0,1,630.751,457.513Z"/>
      <circle id="Ellipse_143" data-name="Ellipse 143" class="cls-8" cx="2.404" cy="2.404" r="2.404" transform="translate(658.148 455.109)"/>
      <path id="Path_458" data-name="Path 458" class="cls-8" d="M695.159,457.513a2.4,2.4,0,1,1-2.4-2.4A2.4,2.4,0,0,1,695.159,457.513Z"/>
      <path id="Path_459" data-name="Path 459" class="cls-8" d="M598.546,488.977a2.4,2.4,0,1,1-2.4-2.4A2.4,2.4,0,0,1,598.546,488.977Z"/>
      <path id="Path_460" data-name="Path 460" class="cls-8" d="M630.751,488.977a2.4,2.4,0,1,1-2.4-2.4A2.4,2.4,0,0,1,630.751,488.977Z"/>
      <circle id="Ellipse_144" data-name="Ellipse 144" class="cls-8" cx="2.404" cy="2.404" r="2.404" transform="translate(658.148 486.574)"/>
      <path id="Path_461" data-name="Path 461" class="cls-8" d="M695.159,488.977a2.4,2.4,0,1,1-2.4-2.4A2.4,2.4,0,0,1,695.159,488.977Z"/>
      <path id="Path_462" data-name="Path 462" class="cls-8" d="M598.546,520.442a2.4,2.4,0,1,1-2.4-2.4A2.4,2.4,0,0,1,598.546,520.442Z"/>
      <path id="Path_463" data-name="Path 463" class="cls-8" d="M630.751,520.442a2.4,2.4,0,1,1-2.4-2.4A2.4,2.4,0,0,1,630.751,520.442Z"/>
      <circle id="Ellipse_145" data-name="Ellipse 145" class="cls-8" cx="2.404" cy="2.404" r="2.404" transform="translate(658.148 518.038)"/>
      <path id="Path_464" data-name="Path 464" class="cls-8" d="M695.159,520.442a2.4,2.4,0,1,1-2.4-2.4A2.4,2.4,0,0,1,695.159,520.442Z"/>
      <circle id="Ellipse_146" data-name="Ellipse 146" class="cls-8" cx="2.404" cy="2.404" r="2.404" transform="translate(724.169 359.849)"/>
      <circle id="Ellipse_147" data-name="Ellipse 147" class="cls-8" cx="2.404" cy="2.404" r="2.404" transform="translate(756.374 359.849)"/>
      <path id="Path_465" data-name="Path 465" class="cls-8" d="M793.385,362.253a2.4,2.4,0,1,1-2.4-2.4A2.4,2.4,0,0,1,793.385,362.253Z"/>
      <path id="Path_466" data-name="Path 466" class="cls-8" d="M825.59,362.253a2.4,2.4,0,1,1-2.4-2.4A2.4,2.4,0,0,1,825.59,362.253Z"/>
      <path id="Path_467" data-name="Path 467" class="cls-8" d="M728.977,393.717a2.4,2.4,0,1,1-2.4-2.4A2.4,2.4,0,0,1,728.977,393.717Z"/>
      <path id="Path_468" data-name="Path 468" class="cls-8" d="M761.181,393.717a2.4,2.4,0,1,1-2.4-2.4A2.4,2.4,0,0,1,761.181,393.717Z"/>
      <path id="Path_469" data-name="Path 469" class="cls-8" d="M793.385,393.717a2.4,2.4,0,1,1-2.4-2.4A2.4,2.4,0,0,1,793.385,393.717Z"/>
      <path id="Path_470" data-name="Path 470" class="cls-8" d="M825.59,393.717a2.4,2.4,0,1,1-2.4-2.4A2.4,2.4,0,0,1,825.59,393.717Z"/>
      <circle id="Ellipse_148" data-name="Ellipse 148" class="cls-8" cx="2.404" cy="2.404" r="2.404" transform="translate(724.169 422.777)"/>
      <circle id="Ellipse_149" data-name="Ellipse 149" class="cls-8" cx="2.404" cy="2.404" r="2.404" transform="translate(756.374 422.777)"/>
      <path id="Path_471" data-name="Path 471" class="cls-8" d="M793.385,425.181a2.4,2.4,0,1,1-2.4-2.4A2.4,2.4,0,0,1,793.385,425.181Z"/>
      <path id="Path_472" data-name="Path 472" class="cls-8" d="M825.59,425.181a2.4,2.4,0,1,1-2.4-2.4A2.4,2.4,0,0,1,825.59,425.181Z"/>
      <circle id="Ellipse_150" data-name="Ellipse 150" class="cls-8" cx="2.404" cy="2.404" r="2.404" transform="translate(724.169 455.109)"/>
      <circle id="Ellipse_151" data-name="Ellipse 151" class="cls-8" cx="2.404" cy="2.404" r="2.404" transform="translate(756.374 455.109)"/>
      <path id="Path_473" data-name="Path 473" class="cls-8" d="M793.385,457.513a2.4,2.4,0,1,1-2.4-2.4A2.4,2.4,0,0,1,793.385,457.513Z"/>
      <path id="Path_474" data-name="Path 474" class="cls-8" d="M825.59,457.513a2.4,2.4,0,1,1-2.4-2.4A2.4,2.4,0,0,1,825.59,457.513Z"/>
      <circle id="Ellipse_152" data-name="Ellipse 152" class="cls-8" cx="2.404" cy="2.404" r="2.404" transform="translate(724.169 486.574)"/>
      <circle id="Ellipse_153" data-name="Ellipse 153" class="cls-8" cx="2.404" cy="2.404" r="2.404" transform="translate(756.374 486.574)"/>
      <path id="Path_475" data-name="Path 475" class="cls-8" d="M793.385,488.977a2.4,2.4,0,1,1-2.4-2.4A2.4,2.4,0,0,1,793.385,488.977Z"/>
      <path id="Path_476" data-name="Path 476" class="cls-8" d="M825.59,488.977a2.4,2.4,0,1,1-2.4-2.4A2.4,2.4,0,0,1,825.59,488.977Z"/>
      <circle id="Ellipse_154" data-name="Ellipse 154" class="cls-8" cx="2.404" cy="2.404" r="2.404" transform="translate(724.169 518.038)"/>
      <circle id="Ellipse_155" data-name="Ellipse 155" class="cls-8" cx="2.404" cy="2.404" r="2.404" transform="translate(756.374 518.038)"/>
      <path id="Path_477" data-name="Path 477" class="cls-8" d="M793.385,520.442a2.4,2.4,0,1,1-2.4-2.4A2.4,2.4,0,0,1,793.385,520.442Z"/>
      <path id="Path_478" data-name="Path 478" class="cls-8" d="M825.59,520.442a2.4,2.4,0,1,1-2.4-2.4A2.4,2.4,0,0,1,825.59,520.442Z"/>
      <path id="Path_479" data-name="Path 479" class="cls-8" d="M859.407,362.253a2.4,2.4,0,1,1-2.4-2.4A2.4,2.4,0,0,1,859.407,362.253Z"/>
      <path id="Path_480" data-name="Path 480" class="cls-8" d="M891.611,362.253a2.4,2.4,0,1,1-2.4-2.4A2.4,2.4,0,0,1,891.611,362.253Z"/>
      <circle id="Ellipse_156" data-name="Ellipse 156" class="cls-8" cx="2.404" cy="2.404" r="2.404" transform="translate(919.008 359.849)"/>
      <path id="Path_481" data-name="Path 481" class="cls-8" d="M859.407,393.717a2.4,2.4,0,1,1-2.4-2.4A2.4,2.4,0,0,1,859.407,393.717Z"/>
      <path id="Path_482" data-name="Path 482" class="cls-8" d="M891.611,393.717a2.4,2.4,0,1,1-2.4-2.4A2.4,2.4,0,0,1,891.611,393.717Z"/>
      <path id="Path_483" data-name="Path 483" class="cls-8" d="M923.815,393.717a2.4,2.4,0,1,1-2.4-2.4A2.4,2.4,0,0,1,923.815,393.717Z"/>
      <path id="Path_484" data-name="Path 484" class="cls-8" d="M859.407,425.181a2.4,2.4,0,1,1-2.4-2.4A2.4,2.4,0,0,1,859.407,425.181Z"/>
      <path id="Path_485" data-name="Path 485" class="cls-8" d="M891.611,425.181a2.4,2.4,0,1,1-2.4-2.4A2.4,2.4,0,0,1,891.611,425.181Z"/>
      <circle id="Ellipse_157" data-name="Ellipse 157" class="cls-8" cx="2.404" cy="2.404" r="2.404" transform="translate(919.008 422.777)"/>
      <path id="Path_486" data-name="Path 486" class="cls-8" d="M859.407,457.513a2.4,2.4,0,1,1-2.4-2.4A2.4,2.4,0,0,1,859.407,457.513Z"/>
      <path id="Path_487" data-name="Path 487" class="cls-8" d="M891.611,457.513a2.4,2.4,0,1,1-2.4-2.4A2.4,2.4,0,0,1,891.611,457.513Z"/>
      <circle id="Ellipse_158" data-name="Ellipse 158" class="cls-8" cx="2.404" cy="2.404" r="2.404" transform="translate(919.008 455.109)"/>
      <path id="Path_488" data-name="Path 488" class="cls-8" d="M859.407,488.977a2.4,2.4,0,1,1-2.4-2.4A2.4,2.4,0,0,1,859.407,488.977Z"/>
      <path id="Path_489" data-name="Path 489" class="cls-8" d="M891.611,488.977a2.4,2.4,0,1,1-2.4-2.4A2.4,2.4,0,0,1,891.611,488.977Z"/>
      <circle id="Ellipse_159" data-name="Ellipse 159" class="cls-8" cx="2.404" cy="2.404" r="2.404" transform="translate(919.008 486.574)"/>
      <path id="Path_490" data-name="Path 490" class="cls-8" d="M859.407,520.442a2.4,2.4,0,1,1-2.4-2.4A2.4,2.4,0,0,1,859.407,520.442Z"/>
      <path id="Path_491" data-name="Path 491" class="cls-8" d="M891.611,520.442a2.4,2.4,0,1,1-2.4-2.4A2.4,2.4,0,0,1,891.611,520.442Z"/>
      <circle id="Ellipse_160" data-name="Ellipse 160" class="cls-8" cx="2.404" cy="2.404" r="2.404" transform="translate(919.008 518.038)"/>
    </g>
    <g id="Group_3659" data-name="Group 3659" transform="translate(-590.723 -240.502)">
      <path id="Path_446-2" data-name="Path 446" class="cls-7" d="M599.653,362.807a2.957,2.957,0,1,1-2.957-2.958A2.957,2.957,0,0,1,599.653,362.807Z" transform="translate(0 0)"/>
      <path id="Path_447-2" data-name="Path 447" class="cls-7" d="M631.858,362.807a2.958,2.958,0,1,1-2.958-2.958A2.957,2.957,0,0,1,631.858,362.807Z" transform="translate(7.418 0)"/>
      <circle id="Ellipse_141-2" data-name="Ellipse 141" class="cls-7" cx="2.957" cy="2.957" r="2.957" transform="translate(672.983 359.849)"/>
      <path id="Path_448-2" data-name="Path 448" class="cls-7" d="M696.266,362.807a2.957,2.957,0,1,1-2.957-2.958A2.957,2.957,0,0,1,696.266,362.807Z" transform="translate(22.254 0)"/>
      <path id="Path_449-2" data-name="Path 449" class="cls-7" d="M599.653,394.271a2.957,2.957,0,1,1-2.957-2.958A2.957,2.957,0,0,1,599.653,394.271Z" transform="translate(0 7.247)"/>
      <path id="Path_450-2" data-name="Path 450" class="cls-7" d="M631.858,394.271a2.958,2.958,0,1,1-2.958-2.958A2.957,2.957,0,0,1,631.858,394.271Z" transform="translate(7.418 7.247)"/>
      <path id="Path_451-2" data-name="Path 451" class="cls-7" d="M664.062,394.271a2.957,2.957,0,1,1-2.958-2.958A2.957,2.957,0,0,1,664.062,394.271Z" transform="translate(14.836 7.247)"/>
      <path id="Path_452-2" data-name="Path 452" class="cls-7" d="M696.266,394.271a2.957,2.957,0,1,1-2.957-2.958A2.957,2.957,0,0,1,696.266,394.271Z" transform="translate(22.254 7.247)"/>
      <path id="Path_453-2" data-name="Path 453" class="cls-7" d="M599.653,425.735a2.957,2.957,0,1,1-2.957-2.958A2.958,2.958,0,0,1,599.653,425.735Z" transform="translate(0 14.495)"/>
      <path id="Path_454-2" data-name="Path 454" class="cls-7" d="M631.858,425.735a2.958,2.958,0,1,1-2.958-2.958A2.958,2.958,0,0,1,631.858,425.735Z" transform="translate(7.418 14.495)"/>
      <circle id="Ellipse_142-2" data-name="Ellipse 142" class="cls-7" cx="2.957" cy="2.957" r="2.957" transform="translate(672.983 437.272)"/>
      <path id="Path_455-2" data-name="Path 455" class="cls-7" d="M696.266,425.735a2.957,2.957,0,1,1-2.957-2.958A2.958,2.958,0,0,1,696.266,425.735Z" transform="translate(22.254 14.495)"/>
      <path id="Path_456-2" data-name="Path 456" class="cls-7" d="M599.653,458.067a2.957,2.957,0,1,1-2.957-2.958A2.957,2.957,0,0,1,599.653,458.067Z" transform="translate(0 21.942)"/>
      <path id="Path_457-2" data-name="Path 457" class="cls-7" d="M631.858,458.067a2.958,2.958,0,1,1-2.958-2.958A2.957,2.957,0,0,1,631.858,458.067Z" transform="translate(7.418 21.942)"/>
      <circle id="Ellipse_143-2" data-name="Ellipse 143" class="cls-7" cx="2.957" cy="2.957" r="2.957" transform="translate(672.983 477.052)"/>
      <path id="Path_458-2" data-name="Path 458" class="cls-7" d="M696.266,458.067a2.957,2.957,0,1,1-2.957-2.958A2.957,2.957,0,0,1,696.266,458.067Z" transform="translate(22.254 21.942)"/>
      <path id="Path_459-2" data-name="Path 459" class="cls-7" d="M599.653,489.531a2.957,2.957,0,1,1-2.957-2.957A2.957,2.957,0,0,1,599.653,489.531Z" transform="translate(0 29.19)"/>
      <path id="Path_460-2" data-name="Path 460" class="cls-7" d="M631.858,489.531a2.958,2.958,0,1,1-2.958-2.957A2.957,2.957,0,0,1,631.858,489.531Z" transform="translate(7.418 29.19)"/>
      <circle id="Ellipse_144-2" data-name="Ellipse 144" class="cls-7" cx="2.957" cy="2.957" r="2.957" transform="translate(672.983 515.763)"/>
      <path id="Path_461-2" data-name="Path 461" class="cls-7" d="M696.266,489.531a2.957,2.957,0,1,1-2.957-2.957A2.957,2.957,0,0,1,696.266,489.531Z" transform="translate(22.254 29.19)"/>
      <path id="Path_462-2" data-name="Path 462" class="cls-7" d="M599.653,521a2.957,2.957,0,1,1-2.957-2.958A2.957,2.957,0,0,1,599.653,521Z" transform="translate(0 36.437)"/>
      <path id="Path_463-2" data-name="Path 463" class="cls-7" d="M631.858,521a2.958,2.958,0,1,1-2.958-2.958A2.957,2.957,0,0,1,631.858,521Z" transform="translate(7.418 36.437)"/>
      <circle id="Ellipse_145-2" data-name="Ellipse 145" class="cls-7" cx="2.957" cy="2.957" r="2.957" transform="translate(672.983 554.475)"/>
      <path id="Path_464-2" data-name="Path 464" class="cls-7" d="M696.266,521a2.957,2.957,0,1,1-2.957-2.958A2.957,2.957,0,0,1,696.266,521Z" transform="translate(22.254 36.437)"/>
      <circle id="Ellipse_146-2" data-name="Ellipse 146" class="cls-7" cx="2.957" cy="2.957" r="2.957" transform="translate(754.212 359.849)"/>
      <circle id="Ellipse_147-2" data-name="Ellipse 147" class="cls-7" cx="2.957" cy="2.957" r="2.957" transform="translate(793.835 359.849)"/>
      <path id="Path_465-2" data-name="Path 465" class="cls-7" d="M794.492,362.807a2.957,2.957,0,1,1-2.957-2.958A2.957,2.957,0,0,1,794.492,362.807Z" transform="translate(44.879 0)"/>
      <path id="Path_466-2" data-name="Path 466" class="cls-7" d="M826.7,362.807a2.958,2.958,0,1,1-2.958-2.958A2.957,2.957,0,0,1,826.7,362.807Z" transform="translate(52.297 0)"/>
      <path id="Path_467-2" data-name="Path 467" class="cls-7" d="M730.085,394.271a2.958,2.958,0,1,1-2.958-2.958A2.958,2.958,0,0,1,730.085,394.271Z" transform="translate(30.043 7.247)"/>
      <path id="Path_468-2" data-name="Path 468" class="cls-7" d="M762.288,394.271a2.957,2.957,0,1,1-2.958-2.958A2.957,2.957,0,0,1,762.288,394.271Z" transform="translate(37.461 7.247)"/>
      <path id="Path_469-2" data-name="Path 469" class="cls-7" d="M794.492,394.271a2.957,2.957,0,1,1-2.957-2.958A2.957,2.957,0,0,1,794.492,394.271Z" transform="translate(44.879 7.247)"/>
      <path id="Path_470-2" data-name="Path 470" class="cls-7" d="M826.7,394.271a2.958,2.958,0,1,1-2.958-2.958A2.957,2.957,0,0,1,826.7,394.271Z" transform="translate(52.297 7.247)"/>
      <circle id="Ellipse_148-2" data-name="Ellipse 148" class="cls-7" cx="2.957" cy="2.957" r="2.957" transform="translate(754.212 437.272)"/>
      <circle id="Ellipse_149-2" data-name="Ellipse 149" class="cls-7" cx="2.957" cy="2.957" r="2.957" transform="translate(793.835 437.272)"/>
      <path id="Path_471-2" data-name="Path 471" class="cls-7" d="M794.492,425.735a2.957,2.957,0,1,1-2.957-2.958A2.958,2.958,0,0,1,794.492,425.735Z" transform="translate(44.879 14.495)"/>
      <path id="Path_472-2" data-name="Path 472" class="cls-7" d="M826.7,425.735a2.958,2.958,0,1,1-2.958-2.958A2.958,2.958,0,0,1,826.7,425.735Z" transform="translate(52.297 14.495)"/>
      <circle id="Ellipse_150-2" data-name="Ellipse 150" class="cls-7" cx="2.957" cy="2.957" r="2.957" transform="translate(754.212 477.052)"/>
      <circle id="Ellipse_151-2" data-name="Ellipse 151" class="cls-7" cx="2.957" cy="2.957" r="2.957" transform="translate(793.835 477.052)"/>
      <path id="Path_473-2" data-name="Path 473" class="cls-7" d="M794.492,458.067a2.957,2.957,0,1,1-2.957-2.958A2.957,2.957,0,0,1,794.492,458.067Z" transform="translate(44.879 21.942)"/>
      <path id="Path_474-2" data-name="Path 474" class="cls-7" d="M826.7,458.067a2.958,2.958,0,1,1-2.958-2.958A2.957,2.957,0,0,1,826.7,458.067Z" transform="translate(52.297 21.942)"/>
      <circle id="Ellipse_152-2" data-name="Ellipse 152" class="cls-7" cx="2.957" cy="2.957" r="2.957" transform="translate(754.212 515.763)"/>
      <circle id="Ellipse_153-2" data-name="Ellipse 153" class="cls-7" cx="2.957" cy="2.957" r="2.957" transform="translate(793.835 515.763)"/>
      <path id="Path_475-2" data-name="Path 475" class="cls-7" d="M794.492,489.531a2.957,2.957,0,1,1-2.957-2.957A2.957,2.957,0,0,1,794.492,489.531Z" transform="translate(44.879 29.19)"/>
      <path id="Path_476-2" data-name="Path 476" class="cls-7" d="M826.7,489.531a2.958,2.958,0,1,1-2.958-2.957A2.957,2.957,0,0,1,826.7,489.531Z" transform="translate(52.297 29.19)"/>
      <circle id="Ellipse_154-2" data-name="Ellipse 154" class="cls-7" cx="2.957" cy="2.957" r="2.957" transform="translate(754.212 554.475)"/>
      <circle id="Ellipse_155-2" data-name="Ellipse 155" class="cls-7" cx="2.957" cy="2.957" r="2.957" transform="translate(793.835 554.475)"/>
      <path id="Path_477-2" data-name="Path 477" class="cls-7" d="M794.492,521a2.957,2.957,0,1,1-2.957-2.958A2.957,2.957,0,0,1,794.492,521Z" transform="translate(44.879 36.437)"/>
      <path id="Path_478-2" data-name="Path 478" class="cls-7" d="M826.7,521a2.958,2.958,0,1,1-2.958-2.958A2.957,2.957,0,0,1,826.7,521Z" transform="translate(52.297 36.437)"/>
      <path id="Path_479-2" data-name="Path 479" class="cls-7" d="M860.514,362.807a2.958,2.958,0,1,1-2.958-2.958A2.957,2.957,0,0,1,860.514,362.807Z" transform="translate(60.087 0)"/>
      <path id="Path_480-2" data-name="Path 480" class="cls-7" d="M892.718,362.807a2.957,2.957,0,1,1-2.958-2.958A2.957,2.957,0,0,1,892.718,362.807Z" transform="translate(67.505 0)"/>
      <circle id="Ellipse_156-2" data-name="Ellipse 156" class="cls-7" cx="2.957" cy="2.957" r="2.957" transform="translate(993.931 359.849)"/>
      <path id="Path_481-2" data-name="Path 481" class="cls-7" d="M860.514,394.271a2.958,2.958,0,1,1-2.958-2.958A2.957,2.957,0,0,1,860.514,394.271Z" transform="translate(60.087 7.247)"/>
      <path id="Path_482-2" data-name="Path 482" class="cls-7" d="M892.718,394.271a2.957,2.957,0,1,1-2.958-2.958A2.957,2.957,0,0,1,892.718,394.271Z" transform="translate(67.505 7.247)"/>
      <path id="Path_483-2" data-name="Path 483" class="cls-7" d="M924.922,394.271a2.957,2.957,0,1,1-2.957-2.958A2.957,2.957,0,0,1,924.922,394.271Z" transform="translate(74.923 7.247)"/>
      <path id="Path_484-2" data-name="Path 484" class="cls-7" d="M860.514,425.735a2.958,2.958,0,1,1-2.958-2.958A2.958,2.958,0,0,1,860.514,425.735Z" transform="translate(60.087 14.495)"/>
      <path id="Path_485-2" data-name="Path 485" class="cls-7" d="M892.718,425.735a2.957,2.957,0,1,1-2.958-2.958A2.958,2.958,0,0,1,892.718,425.735Z" transform="translate(67.505 14.495)"/>
      <circle id="Ellipse_157-2" data-name="Ellipse 157" class="cls-7" cx="2.957" cy="2.957" r="2.957" transform="translate(993.931 437.272)"/>
      <path id="Path_486-2" data-name="Path 486" class="cls-7" d="M860.514,458.067a2.958,2.958,0,1,1-2.958-2.958A2.957,2.957,0,0,1,860.514,458.067Z" transform="translate(60.087 21.942)"/>
      <path id="Path_487-2" data-name="Path 487" class="cls-7" d="M892.718,458.067a2.957,2.957,0,1,1-2.958-2.958A2.957,2.957,0,0,1,892.718,458.067Z" transform="translate(67.505 21.942)"/>
      <circle id="Ellipse_158-2" data-name="Ellipse 158" class="cls-7" cx="2.957" cy="2.957" r="2.957" transform="translate(993.931 477.052)"/>
      <path id="Path_488-2" data-name="Path 488" class="cls-7" d="M860.514,489.531a2.958,2.958,0,1,1-2.958-2.957A2.957,2.957,0,0,1,860.514,489.531Z" transform="translate(60.087 29.19)"/>
      <path id="Path_489-2" data-name="Path 489" class="cls-7" d="M892.718,489.531a2.957,2.957,0,1,1-2.958-2.957A2.957,2.957,0,0,1,892.718,489.531Z" transform="translate(67.505 29.19)"/>
      <circle id="Ellipse_159-2" data-name="Ellipse 159" class="cls-7" cx="2.957" cy="2.957" r="2.957" transform="translate(993.931 515.763)"/>
      <path id="Path_490-2" data-name="Path 490" class="cls-7" d="M860.514,521a2.958,2.958,0,1,1-2.958-2.958A2.957,2.957,0,0,1,860.514,521Z" transform="translate(60.087 36.437)"/>
      <path id="Path_491-2" data-name="Path 491" class="cls-7" d="M892.718,521a2.957,2.957,0,1,1-2.958-2.958A2.957,2.957,0,0,1,892.718,521Z" transform="translate(67.505 36.437)"/>
      <circle id="Ellipse_160-2" data-name="Ellipse 160" class="cls-7" cx="2.957" cy="2.957" r="2.957" transform="translate(993.931 554.475)"/>
    </g>
  </g>
</svg>
