<svg xmlns="http://www.w3.org/2000/svg" width="270.933" height="326.778" viewBox="0 0 270.933 326.778"><defs><style>.a,.e{fill:#333;}.a,.b,.c,.d,.f,.g{fill-rule:evenodd;}.b{fill:#fff;}.c{fill:#deeff1;}.d{fill:#04304b;}.f{fill:#0376bc;}.g{fill:#0d4b80;}</style></defs><g transform="translate(-43.272 -634.299)"><g transform="translate(43.272 634.299)"><path class="a" d="M166.536,736.142l90.582.429a2.163,2.163,0,0,1,2.162,2.161l-.021,9.477a2.163,2.163,0,0,1-2.162,2.163l-90.582-.429a2.16,2.16,0,0,1-2.162-2.161l.021-9.477a2.165,2.165,0,0,1,2.162-2.163Zm88.417,4.747-86.261-.417-.012,5.153,86.26.417Z" transform="translate(-43.781 -731.157)"/><path class="a" d="M39.156,871.356,158.832,734.984a2.164,2.164,0,0,1,3.05-.207l7.124,6.251a2.163,2.163,0,0,1,.206,3.05L49.538,880.452a2.163,2.163,0,0,1-3.05.205l-7.124-6.252a2.163,2.163,0,0,1-.207-3.049Zm121.5-131.9L43.836,872.579l3.874,3.4L164.534,742.857Z" transform="translate(-35.411 -731.031)"/><path class="a" d="M39.1,881.287l84.148,160.745a2.16,2.16,0,0,0,2.915.919l8.4-4.395a2.163,2.163,0,0,0,.919-2.917L51.327,874.9a2.161,2.161,0,0,0-2.916-.919l-8.4,4.395a2.16,2.16,0,0,0-.919,2.914Zm86.978,156.829L43.932,881.2l4.565-2.39,82.142,156.913Z" transform="translate(-35.426 -740.317)"/><path class="b" d="M241.185,767.6h44.31a23.44,23.44,0,0,0,23.372-23.371H217.814A23.44,23.44,0,0,0,241.185,767.6Z" transform="translate(-47.34 -731.696)"/><path class="c" d="M242.749,763.273h26.622a14.085,14.085,0,0,0,14.043-14.044H228.706A14.085,14.085,0,0,0,242.749,763.273Z" transform="translate(-48.066 -732.028)"/><path class="d" d="M225.613,732.742h74.112A17.929,17.929,0,0,1,317.6,750.619H207.737A17.928,17.928,0,0,1,225.613,732.742Z" transform="translate(-46.67 -730.931)"/><path class="a" d="M225.613,732.742H259.5a17.928,17.928,0,0,1,17.876,17.877H207.737A17.928,17.928,0,0,1,225.613,732.742Z" transform="translate(-46.67 -730.931)"/><path class="d" d="M167.239,730.9a12.061,12.061,0,1,1-10.445,13.483A12.058,12.058,0,0,1,167.239,730.9Z" transform="translate(-43.272 -730.802)"/><path class="d" d="M128.3,1056.526a12.062,12.062,0,1,0-6.973-15.569A12.064,12.064,0,0,0,128.3,1056.526Z" transform="translate(-40.864 -750.933)"/><path class="d" d="M45.725,869.366a12.061,12.061,0,1,1-10.446,13.482A12.061,12.061,0,0,1,45.725,869.366Z" transform="translate(-35.182 -740.02)"/><rect class="e" width="198.584" height="30.47" rx="15.235" transform="translate(28.04 296.308)"/></g><g transform="translate(80.399 890.079)"><g transform="translate(0 21.486)"><path class="f" d="M345.127,1022.279H263.05a12.268,12.268,0,0,0,0,24.535h82.077a12.268,12.268,0,0,0,0-24.535Z" transform="translate(-160.104 -1022.279)"/><path class="b" d="M155.168,1023.812H260.13a10.87,10.87,0,0,1,10.839,10.836h0a10.872,10.872,0,0,1-10.839,10.841H155.168Z" transform="translate(-153.739 -1022.381)"/><path class="g" d="M155.066,1022.279a1.429,1.429,0,1,0,0,2.858H260.028a9.409,9.409,0,0,1,0,18.819H155.066a1.429,1.429,0,1,0,0,2.858H260.028a12.267,12.267,0,0,0,0-24.535Z" transform="translate(-153.637 -1022.279)"/><path class="g" d="M346.932,1034.546a12.3,12.3,0,0,0-12.268-12.267h10.67a12.268,12.268,0,0,1,0,24.535h-10.67a12.3,12.3,0,0,0,12.268-12.268Z" transform="translate(-165.689 -1022.279)"/><path class="g" d="M330.369,1034.546a12.3,12.3,0,0,0-12.269-12.267h10.671a12.267,12.267,0,0,1,0,24.535H318.1a12.3,12.3,0,0,0,12.269-12.268Z" transform="translate(-164.586 -1022.279)"/></g><path class="g" d="M177.522,999.261h71.871a10.743,10.743,0,0,1,0,21.486H177.522a10.743,10.743,0,0,1,0-21.486Z" transform="translate(-154.512 -999.261)"/><path class="b" d="M343.286,1000.6H251.375a9.519,9.519,0,0,0-9.49,9.491h0a9.52,9.52,0,0,0,9.49,9.492h91.911Z" transform="translate(-159.512 -999.35)"/><path class="f" d="M343.2,999.261a1.252,1.252,0,0,1,0,2.5H251.286a8.239,8.239,0,0,0,0,16.479H343.2a1.251,1.251,0,1,1,0,2.5H251.286a10.743,10.743,0,0,1,0-21.486Z" transform="translate(-159.423 -999.261)"/><path class="f" d="M181.168,1010a10.773,10.773,0,0,1,10.743-10.744h-9.345a10.743,10.743,0,0,0,0,21.486h9.345A10.77,10.77,0,0,1,181.168,1010Z" transform="translate(-154.848 -999.261)"/><path class="f" d="M195.67,1010a10.775,10.775,0,0,1,10.745-10.744h-9.345a10.743,10.743,0,0,0,0,21.486h9.345A10.772,10.772,0,0,1,195.67,1010Z" transform="translate(-155.813 -999.261)"/></g></g></svg>