<svg width="1920" height="1078" xmlns="http://www.w3.org/2000/svg">
 <defs>
  <style>.cls-1 {
        clip-path: url(#clip-Web_1920_3);
      }

      .cls-2 {
        fill: #1f6c9f;
      }

      .cls-2, .cls-3, .cls-4, .cls-5, .cls-6 {
        fill-rule: evenodd;
      }

      .cls-3, .cls-7 {
        fill: #2572a4;
      }

      .cls-4 {
        fill: none;
        stroke: #2b80b0;
        stroke-width: 3px;
      }

      .cls-5 {
        fill: #2b80b0;
      }

      .cls-6, .cls-8 {
        fill: #24669a;
      }

      .cls-9 {
        fill: #fff;
      }</style>
  <clipPath id="clip-Web_1920_3">
   <rect id="svg_1" height="1078" width="1920"/>
  </clipPath>
 </defs>
 <g>
  <title>background</title>
  <rect fill="none" id="canvas_background" height="402" width="582" y="-1" x="-1"/>
 </g>
 <g>
  <title>Layer 1</title>
  <path d="m388.777,759.609005l-123.589,0c-66.515,0 -120.934,50.59 -120.934,112.42l0,0c0,61.832 54.418,112.421 120.934,112.421l1044.989,0c107.707,0 195.826,-81.917 195.826,-182.039l0,0c0,-100.124 -88.119,-182.04 -195.824,-182.04l0,0c-45.54,0 -82.8,-34.636 -82.8,-76.971l0,0c0,-42.334 37.259,-76.971 82.8,-76.971l99.649,0c47.346,0 86.084,-36.011 86.084,-80.023l0,0c0,-44.014 -38.738,-80.024 -86.084,-80.024l-126.01,0c-18.432,0 -33.513,-14.022 -33.513,-31.156l0,0c0,-17.135 15.081,-31.154 33.513,-31.154l22.214,0c12.72,0 23.128,-9.677 23.128,-21.5l0,0c0,-11.826 -10.409,-21.5 -23.128,-21.5l-145.76,0c-30.7,0 -34.115,33.712 -111.656,33.712l-223.416,0c-16.6,0 -30.182,12.628 -30.182,28.055l0,0c0,15.428 13.583,28.056 30.182,28.056l28.983,0c24.053,0 43.732,18.3 43.732,40.651l0,0c0,22.358 -19.679,40.653 -43.732,40.653l-43.618,0c-117.79,0 -134.428,28.615 -155.057,85.53s-127.775,61.5 -127.775,61.5l-146.5,0c-36.246,0 -65.9,27.569 -65.9,61.263l0,0c0,33.694 29.655,61.262 65.9,61.262l7.544,0c34.863,0 63.387,26.518 63.387,58.927l0,0c0,32.408 -28.524,58.924 -63.387,58.924l0,0.004zm982.166,-515.542c-12.776,0 -23.132,-9.627 -23.132,-21.5s10.356,-21.5 23.132,-21.5s23.13,9.627 23.13,21.5s-10.363,21.504 -23.135,21.504l0.005,-0.004z" class="cls-2" id="Path_250"/>
  <path d="m122.884993,384.513986zm9.125,-34.748a17.557,17.557 0 1 1 -5.141,12.414a17.506,17.506 0 0 1 5.141,-12.414zm3.792,-17.4a30.858,30.858 0 0 0 -6.88,2.929a31.239,31.239 0 0 0 -6.037,4.55a1.073,1.073 0 0 1 -1.285,0.156l-8.159,-4.709l-0.044,-0.029a2.038,2.038 0 0 0 -2.716,0.77l-0.034,0.056l-5.74,9.94a2.043,2.043 0 0 0 0.742,2.766l0.056,0.032l8.092,4.671a1.083,1.083 0 0 1 0.508,1.189l0,0a31.277,31.277 0 0 0 0,14.983a1.073,1.073 0 0 1 -0.568,1.223l-8.089,4.668l0,0a2.045,2.045 0 0 0 -0.742,2.766l5.772,10l0,0a2.035,2.035 0 0 0 2.76,0.741l0.062,-0.032l8.1,-4.679a1.083,1.083 0 0 1 1.283,0.158a31.381,31.381 0 0 0 6.036,4.55a30.957,30.957 0 0 0 6.926,2.943a1.078,1.078 0 0 1 0.784,1.036l0,9.408a2.028,2.028 0 0 0 2.019,2.02l11.549,0a2.03,2.03 0 0 0 2.019,-2.02l0,-9.408a1.078,1.078 0 0 1 0.829,-1.049a30.9,30.9 0 0 0 6.88,-2.93a31.351,31.351 0 0 0 6.036,-4.55a1.077,1.077 0 0 1 1.34,-0.123l8.1,4.676a2.035,2.035 0 0 0 2.762,-0.741l0.035,-0.056l5.74,-9.945l0,0a2.038,2.038 0 0 0 -0.738,-2.761l-8.15,-4.706a1.075,1.075 0 0 1 -0.509,-1.188l0,0a31.277,31.277 0 0 0 0,-14.983a1.074,1.074 0 0 1 0.569,-1.221l8.091,-4.671a2.04,2.04 0 0 0 0.738,-2.763l-0.032,-0.059l-5.74,-9.94l0,0a2.034,2.034 0 0 0 -2.762,-0.743l0,0l-8.157,4.709a1.075,1.075 0 0 1 -1.31,-0.18a31.018,31.018 0 0 0 -12.937,-7.469a1.077,1.077 0 0 1 -0.785,-1.036l0,-9.407a2.026,2.026 0 0 0 -2.019,-2.02l-11.547,0a2.025,2.025 0 0 0 -2.019,2.02l0,9.408a1.08,1.08 0 0 1 -0.829,1.05z" class="cls-3" id="Path_253"/>
  <path d="m630.377,398.755a3.01,3.01 0 1 0 -6.021,0l0,7.08l-7.079,0a3.011,3.011 0 1 0 0,6.022l7.08,0l0,7.081a3.01,3.01 0 0 0 6.021,0l0,-7.081l7.082,0a3.011,3.011 0 0 0 0,-6.022l-7.083,0l0,-7.08z" class="cls-3" id="Path_254"/>
  <path d="m659.207993,261.045001zm9.127,-34.749a17.555,17.555 0 1 1 -5.142,12.414a17.5,17.5 0 0 1 5.142,-12.414zm3.792,-17.4a30.908,30.908 0 0 0 -6.88,2.93a31.244,31.244 0 0 0 -6.038,4.55a1.075,1.075 0 0 1 -1.285,0.157l-8.158,-4.71l-0.043,-0.026a2.035,2.035 0 0 0 -2.717,0.767l-0.035,0.056l-5.739,9.94a2.038,2.038 0 0 0 0.743,2.766l0.055,0.035l8.091,4.669a1.075,1.075 0 0 1 0.507,1.19l0,0a31.192,31.192 0 0 0 0,14.982a1.077,1.077 0 0 1 -0.571,1.222l-8.08,4.674l0,0a2.036,2.036 0 0 0 -0.743,2.764l5.772,10l0,0a2.032,2.032 0 0 0 2.76,0.743l0.061,-0.033l8.1,-4.678a1.08,1.08 0 0 1 1.281,0.156a31.106,31.106 0 0 0 6.037,4.55a30.769,30.769 0 0 0 6.925,2.943a1.082,1.082 0 0 1 0.785,1.037l0,9.411a2.026,2.026 0 0 0 2.022,2.007l11.547,0a2.028,2.028 0 0 0 2.018,-2.017l0,-9.411a1.084,1.084 0 0 1 0.829,-1.051a30.76,30.76 0 0 0 6.88,-2.928a31.219,31.219 0 0 0 6.038,-4.551a1.073,1.073 0 0 1 1.339,-0.121l8.1,4.676a2.033,2.033 0 0 0 2.761,-0.743l0.036,-0.055l5.74,-9.944l0,0a2.039,2.039 0 0 0 -0.737,-2.761l-8.151,-4.705a1.077,1.077 0 0 1 -0.508,-1.189l0,0a31.265,31.265 0 0 0 0,-14.982a1.076,1.076 0 0 1 0.569,-1.223l8.092,-4.671a2.039,2.039 0 0 0 0.737,-2.761l-0.032,-0.061l-5.74,-9.94l0,0a2.035,2.035 0 0 0 -2.762,-0.742l0,0l-8.157,4.71a1.078,1.078 0 0 1 -1.309,-0.178a31.236,31.236 0 0 0 -6.015,-4.529a30.815,30.815 0 0 0 -6.924,-2.943a1.077,1.077 0 0 1 -0.784,-1.036l0,-9.41a2.028,2.028 0 0 0 -2.018,-2.018l-11.549,0a2.026,2.026 0 0 0 -2.019,2.018l0,9.41a1.077,1.077 0 0 1 -0.831,1.056l0,-0.002z" class="cls-3" id="Path_255"/>
  <path d="m86.336975,595.463994zm19.664,-74.876a37.827,37.827 0 1 1 -11.08,26.749a37.716,37.716 0 0 1 11.08,-26.749zm8.171,-37.495a66.6,66.6 0 0 0 -14.825,6.313a67.329,67.329 0 0 0 -13.01,9.8a2.316,2.316 0 0 1 -2.769,0.338l-17.578,-10.149l-0.093,-0.056a4.385,4.385 0 0 0 -5.854,1.653l-0.075,0.121l-12.366,21.418a4.39,4.39 0 0 0 1.6,5.96l0.119,0.075l17.434,10.061a2.316,2.316 0 0 1 1.092,2.564l0.006,0a67.21,67.21 0 0 0 0,32.283a2.321,2.321 0 0 1 -1.23,2.633l-17.426,10.069l0,0a4.387,4.387 0 0 0 -1.6,5.956l12.44,21.548l0,-0.007a4.379,4.379 0 0 0 5.947,1.6l0.131,-0.071l17.456,-10.08a2.327,2.327 0 0 1 2.76,0.336a67.031,67.031 0 0 0 13.008,9.8a66.3,66.3 0 0 0 14.922,6.341a2.331,2.331 0 0 1 1.692,2.234l0,20.285a4.366,4.366 0 0 0 4.35,4.346l24.881,0a4.37,4.37 0 0 0 4.348,-4.346l0,-20.279a2.336,2.336 0 0 1 1.786,-2.265a66.281,66.281 0 0 0 14.825,-6.309a67.265,67.265 0 0 0 13.01,-9.806a2.311,2.311 0 0 1 2.885,-0.261l17.458,10.076a4.38,4.38 0 0 0 5.949,-1.6l0.078,-0.118l12.368,-21.427l0,0a4.393,4.393 0 0 0 -1.588,-5.949l-17.566,-10.14a2.321,2.321 0 0 1 -1.095,-2.562l0,0a67.372,67.372 0 0 0 0,-32.283a2.319,2.319 0 0 1 1.226,-2.635l17.436,-10.065a4.393,4.393 0 0 0 1.588,-5.949l-0.069,-0.131l-12.368,-21.418l0,0a4.385,4.385 0 0 0 -5.952,-1.6l0,0l-17.576,10.149a2.322,2.322 0 0 1 -2.821,-0.384a67.309,67.309 0 0 0 -12.961,-9.759a66.4,66.4 0 0 0 -14.919,-6.341a2.32,2.32 0 0 1 -1.69,-2.232l0,-20.274a4.37,4.37 0 0 0 -4.348,-4.348l-24.879,0a4.366,4.366 0 0 0 -4.35,4.348l0,20.276a2.321,2.321 0 0 1 -1.787,2.256l0,0.005z" class="cls-4" id="Path_1774"/>
  <path d="m1685.565975,317.973001zm15.28,-58.174a29.389,29.389 0 1 1 -8.608,20.782a29.3,29.3 0 0 1 8.608,-20.782zm6.348,-29.131a51.743,51.743 0 0 0 -11.518,4.905a52.312,52.312 0 0 0 -10.108,7.617a1.8,1.8 0 0 1 -2.151,0.263l-13.657,-7.885l-0.072,-0.044a3.407,3.407 0 0 0 -4.549,1.284l-0.059,0.094l-9.608,16.641a3.411,3.411 0 0 0 1.244,4.631l0.092,0.059l13.545,7.816a1.8,1.8 0 0 1 0.849,1.992l0.005,0a52.219,52.219 0 0 0 0,25.082a1.8,1.8 0 0 1 -0.956,2.046l-13.54,7.82l0,0a3.408,3.408 0 0 0 -1.244,4.627l9.67,16.744l0,-0.005a3.4,3.4 0 0 0 4.621,1.244l0.1,-0.055l13.562,-7.832a1.808,1.808 0 0 1 2.144,0.261a52.08,52.08 0 0 0 10.107,7.617a51.512,51.512 0 0 0 11.593,4.927a1.811,1.811 0 0 1 1.314,1.736l0,15.755a3.392,3.392 0 0 0 3.38,3.377l19.331,0a3.4,3.4 0 0 0 3.378,-3.377l0,-15.758a1.815,1.815 0 0 1 1.388,-1.759a51.5,51.5 0 0 0 11.518,-4.9a52.261,52.261 0 0 0 10.108,-7.619a1.8,1.8 0 0 1 2.242,-0.2l13.564,7.828a3.4,3.4 0 0 0 4.622,-1.244l0.06,-0.092l9.609,-16.647l0,0a3.413,3.413 0 0 0 -1.234,-4.622l-13.646,-7.877a1.8,1.8 0 0 1 -0.851,-1.991l0,0a52.344,52.344 0 0 0 0,-25.082a1.8,1.8 0 0 1 0.953,-2.047l13.547,-7.82a3.413,3.413 0 0 0 1.234,-4.622l-0.054,-0.1l-9.609,-16.641l0,0a3.407,3.407 0 0 0 -4.624,-1.242l0,0l-13.657,7.88a1.8,1.8 0 0 1 -2.191,-0.3a52.3,52.3 0 0 0 -10.07,-7.582a51.587,51.587 0 0 0 -11.591,-4.927a1.8,1.8 0 0 1 -1.313,-1.734l0,-15.75a3.4,3.4 0 0 0 -3.378,-3.378l-19.332,0a3.392,3.392 0 0 0 -3.38,3.378l0,15.753a1.8,1.8 0 0 1 -1.388,1.755z" class="cls-4" id="Path_1775"/>
  <path d="m1872.589,173.708001a3.01,3.01 0 1 0 -6.02,0l0,7.078l-7.08,0a3.012,3.012 0 1 0 0,6.023l7.08,0l0,7.081a3.01,3.01 0 1 0 6.02,0l0,-7.081l7.083,0a3.012,3.012 0 0 0 0,-6.023l-7.083,0l0,-7.078z" class="cls-3" id="Path_256"/>
  <path d="m38.934,987.463a3.01,3.01 0 1 0 -6.02,0l0,7.08l-7.08,0a3.012,3.012 0 1 0 0,6.023l7.08,0l0,7.08a3.01,3.01 0 1 0 6.02,0l0,-7.08l7.081,0a3.012,3.012 0 0 0 0,-6.023l-7.081,0l0,-7.08z" class="cls-3" id="Path_257"/>
  <path d="m1239.836008,852.442986a3.011,3.011 0 1 0 -6.022,0l0,7.08l-7.08,0a3.012,3.012 0 0 0 0,6.023l7.08,0l0,7.08a3.011,3.011 0 0 0 6.022,0l0,-7.08l7.08,0a3.012,3.012 0 0 0 0,-6.023l-7.08,0l0,-7.08z" class="cls-5" id="Path_259"/>
  <path d="m1872.835978,917.442986a3.011,3.011 0 1 0 -6.022,0l0,7.08l-7.08,0a3.012,3.012 0 0 0 0,6.023l7.08,0l0,7.08a3.011,3.011 0 0 0 6.022,0l0,-7.08l7.08,0a3.012,3.012 0 0 0 0,-6.023l-7.08,0l0,-7.08z" class="cls-5" id="Path_1497"/>
  <path d="m710.107993,942.865986a3.01,3.01 0 0 0 -6.021,0l0,7.08l-7.08,0a3.012,3.012 0 0 0 0,6.023l7.08,0l0,7.08a3.01,3.01 0 1 0 6.021,0l0,-7.08l7.082,0a3.012,3.012 0 0 0 0,-6.023l-7.082,0l0,-7.08z" class="cls-5" id="Path_260"/>
  <path d="m277.05,468.117001a3.012,3.012 0 0 0 -6.023,0l0,7.08l-7.08,0a3.011,3.011 0 1 0 0,6.023l7.08,0l0,7.08a3.012,3.012 0 0 0 6.023,0l0,-7.08l7.08,0a3.011,3.011 0 0 0 0,-6.023l-7.08,0l0,-7.08z" class="cls-3" id="Path_261"/>
  <path d="m1600.377,297.398001a3.011,3.011 0 0 0 -6.023,0l0,7.08l-7.077,0a3.012,3.012 0 1 0 0,6.023l7.077,0l0,7.079a3.011,3.011 0 0 0 6.023,0l0,-7.082l7.08,0a3.012,3.012 0 1 0 0,-6.023l-7.08,0l0,-7.077z" class="cls-3" id="Path_262"/>
  <path d="m1266.377008,85.397986a3.011,3.011 0 0 0 -6.023,0l0,7.08l-7.077,0a3.012,3.012 0 1 0 0,6.023l7.077,0l0,7.079a3.011,3.011 0 0 0 6.023,0l0,-7.082l7.08,0a3.012,3.012 0 1 0 0,-6.023l-7.08,0l0,-7.077z" class="cls-3" id="Path_1765"/>
  <g id="Group_35">
   <path d="m1083.745993,393.377986zm-6.177,-23.519a11.885,11.885 0 1 0 3.479,8.4a11.858,11.858 0 0 0 -3.479,-8.4zm-2.568,-11.778a20.975,20.975 0 0 1 8.743,5.063a0.728,0.728 0 0 0 0.87,0.106l5.522,-3.188l0.029,-0.018a1.383,1.383 0 0 1 1.84,0.519l0.021,0.039l3.886,6.728a1.377,1.377 0 0 1 -0.5,1.871l-0.036,0.024l-5.478,3.16a0.73,0.73 0 0 0 -0.342,0.805l0,0a21.032,21.032 0 0 1 0.463,2.511a21.629,21.629 0 0 1 0,5.119a21.032,21.032 0 0 1 -0.463,2.511a0.73,0.73 0 0 0 0.386,0.827l5.475,3.161l0,0a1.378,1.378 0 0 1 0.5,1.871l-3.907,6.767l0,0a1.377,1.377 0 0 1 -1.869,0.5l-0.042,-0.022l-5.482,-3.165a0.729,0.729 0 0 0 -0.868,0.105a21,21 0 0 1 -4.085,3.079a20.745,20.745 0 0 1 -4.689,1.992a0.733,0.733 0 0 0 -0.53,0.7l0,6.369a1.371,1.371 0 0 1 -1.367,1.366l-7.823,0a1.373,1.373 0 0 1 -1.367,-1.366l0,-6.369a0.734,0.734 0 0 0 -0.561,-0.712a20.687,20.687 0 0 1 -4.657,-1.982a20.906,20.906 0 0 1 -4.084,-3.079a0.729,0.729 0 0 0 -0.908,-0.083l-5.484,3.165a1.374,1.374 0 0 1 -1.868,-0.5l-0.024,-0.037l-3.886,-6.731l0,0a1.38,1.38 0 0 1 0.5,-1.869l5.517,-3.185a0.729,0.729 0 0 0 0.343,-0.8l0,0a20.645,20.645 0 0 1 -0.459,-2.511a21.231,21.231 0 0 1 0,-5.12a20.664,20.664 0 0 1 0.459,-2.51a0.729,0.729 0 0 0 -0.385,-0.828l-5.475,-3.161a1.379,1.379 0 0 1 -0.5,-1.868l0.024,-0.04l3.884,-6.73l0,0a1.382,1.382 0 0 1 1.87,-0.5l0,0l5.524,3.188a0.727,0.727 0 0 0 0.884,-0.121a21.155,21.155 0 0 1 4.07,-3.064a20.812,20.812 0 0 1 4.688,-1.991a0.731,0.731 0 0 0 0.53,-0.7l0,-6.379a1.371,1.371 0 0 1 1.367,-1.365l7.814,0a1.369,1.369 0 0 1 1.367,1.365l0,6.37a0.729,0.729 0 0 0 0.563,0.713z" class="cls-5" id="Path_258"/>
   <path d="m1018.047969,267.511986l-79.4,0a12.409,12.409 0 0 0 -12.373,12.373l0,69.16a1.381,1.381 0 0 0 2.357,0.976l21.085,-21.084l68.329,0a12.409,12.409 0 0 0 12.372,-12.373l0,-36.679a12.408,12.408 0 0 0 -12.37,-12.373z" class="cls-5" id="Path_269"/>
   <g id="Group_23">
    <path d="m1020.090009,279.144992a0.895,0.895 0 1 0 0,-1.789l-80.719,0a0.895,0.895 0 1 0 0,1.789l80.719,0z" class="cls-6" id="Path_270"/>
    <path d="m1020.090009,287.867992a0.895,0.895 0 1 0 0,-1.789l-8.551,0a0.895,0.895 0 0 0 0,1.789l8.551,0zm-28.485,0a0.895,0.895 0 0 0 0,-1.789l-60.785,0a0.895,0.895 0 1 0 0,1.789l60.785,0z" class="cls-6" id="Path_271"/>
    <path d="m1020.090009,296.589992a0.894,0.894 0 1 0 0,-1.788l-80.719,0a0.894,0.894 0 1 0 0,1.788l80.719,0z" class="cls-6" id="Path_272"/>
    <path d="m997.641035,308.415992a0.894,0.894 0 1 0 0,-1.788l-58.27,0a0.894,0.894 0 1 0 0,1.788l58.27,0z" class="cls-6" id="Path_273"/>
    <path d="m971.622038,317.878992a0.895,0.895 0 0 0 0,-1.789l-32.251,0a0.895,0.895 0 1 0 0,1.789l32.251,0z" class="cls-6" id="Path_274"/>
    <path d="m990.101923,317.878992a0.895,0.895 0 1 0 0,-1.789l-11.531,0a0.895,0.895 0 1 0 0,1.789l11.531,0z" class="cls-6" id="Path_275"/>
   </g>
   <g id="Group_28">
    <path d="m1152.871976,301.092001l79.4,0a14.046,14.046 0 0 1 14.008,14.008l0,69.16a3.009,3.009 0 0 1 -1.861,2.784l-0.007,0a2.991,2.991 0 0 1 -3.282,-0.651l-20.6,-20.606l-67.658,0a14.046,14.046 0 0 1 -14.009,-14.008l0,-36.681a14.048,14.048 0 0 1 14.009,-14.008l0,0.002zm79.4,3.267l-79.4,0a10.775,10.775 0 0 0 -10.738,10.739l0,36.679a10.775,10.775 0 0 0 10.738,10.738l69.007,0l21.129,21.131l0,-68.548a10.775,10.775 0 0 0 -10.738,-10.739l0.002,0z" class="cls-5" id="Path_298"/>
    <path d="m1152.21099,314.768001a0.894,0.894 0 0 1 0,-1.788l80.72,0a0.894,0.894 0 0 1 0,1.788l-80.72,0z" class="cls-5" id="Path_299"/>
    <path d="m1152.21099,323.491001a0.895,0.895 0 0 1 0,-1.789l8.551,0a0.895,0.895 0 0 1 0,1.789l-8.551,0zm28.485,0a0.895,0.895 0 0 1 0,-1.789l60.786,0a0.895,0.895 0 0 1 0,1.789l-60.786,0z" class="cls-5" id="Path_300"/>
    <path d="m1152.21099,332.214001a0.894,0.894 0 0 1 0,-1.788l80.72,0a0.894,0.894 0 0 1 0,1.788l-80.72,0z" class="cls-5" id="Path_301"/>
    <path d="m1174.658988,344.040001a0.894,0.894 0 0 1 0,-1.788l58.272,0a0.894,0.894 0 1 1 0,1.788l-58.272,0z" class="cls-5" id="Path_302"/>
    <path d="m1200.678994,353.498001a0.895,0.895 0 1 1 0,-1.789l32.252,0a0.895,0.895 0 0 1 0,1.789l-32.252,0z" class="cls-5" id="Path_303"/>
    <path d="m1182.197963,353.498001a0.895,0.895 0 0 1 0,-1.789l11.531,0a0.895,0.895 0 1 1 0,1.789l-11.531,0z" class="cls-5" id="Path_304"/>
   </g>
  </g>
  <path d="m382.029,803.698001a19.488,19.488 0 0 1 7.728,-8.053a11.931,11.931 0 0 0 5.84,-7.84c1.146,-4.087 1.194,-8.91 1.194,-13.137a3.012,3.012 0 0 1 3.011,-3.011l5.155,0a5.27,5.27 0 0 1 1.55,0.246c2.381,0.748 4.4,3.113 5.59,5.211a19.582,19.582 0 0 1 2.437,9.552a21.792,21.792 0 0 1 -1.01,6.518c-0.459,1.464 -1.725,5.743 -1.139,7.206a2.5,2.5 0 0 0 0.881,0.123l12.927,0a16.969,16.969 0 0 1 4.392,0.543a10.362,10.362 0 0 1 5.2,3.089a10.016,10.016 0 0 1 2.351,6.8a17.847,17.847 0 0 1 -0.467,3.883c1.864,4.8 2.238,10.772 -1.547,14.7c0.236,3.969 -0.745,8.3 -4.113,10.72c-1.836,5.6 -6.335,9.226 -12.428,9.226l-23.704,0c-4.047,0 -8.094,-2.143 -11.386,-4.628a6.822,6.822 0 0 1 -1.77,3.016l-0.105,0.1a6.681,6.681 0 0 1 -4.594,1.834l-10.771,0a6.714,6.714 0 0 1 -6.7,-6.707l0,-34.021a6.721,6.721 0 0 1 2.01,-4.781l0.1,-0.088a6.676,6.676 0 0 1 4.594,-1.837l10.772,0a6.671,6.671 0 0 1 4.006,1.34l-0.004,-0.004zm2.704,33.424c2.715,2.738 7.275,6.333 11.151,6.333l23.7,0a6.944,6.944 0 0 0 6.9,-5.751a3.013,3.013 0 0 1 1.6,-2.083c2.188,-1.093 2.254,-4.691 1.939,-6.7a2.991,2.991 0 0 1 1.163,-3.043c2.858,-2.1 1.889,-6.677 0.666,-9.392a2.956,2.956 0 0 1 -0.253,-2.2a13.069,13.069 0 0 0 0.509,-3.343a4.254,4.254 0 0 0 -0.849,-2.834a4.5,4.5 0 0 0 -2.236,-1.238a10.962,10.962 0 0 0 -2.831,-0.334l-12.926,0c-2.886,0 -5.222,-0.951 -6.4,-3.782c-1.35,-3.26 -0.089,-8.162 0.91,-11.359a15.9,15.9 0 0 0 0.737,-4.728a13.384,13.384 0 0 0 -1.652,-6.583a6.771,6.771 0 0 0 -2.066,-2.4l-2.01,0a47.218,47.218 0 0 1 -1.4,11.748c-1.41,5.027 -4.1,8.994 -8.781,11.513c-4.46,2.4 -7.12,8.231 -7.882,13.079l0,23.1l0.011,-0.003zm-6.7,-28.738l-10.782,0a0.624,0.624 0 0 0 -0.414,0.134l-0.068,0.072a0.684,0.684 0 0 0 -0.2,0.478l0,34.019a0.686,0.686 0 0 0 0.683,0.683l10.772,0a0.632,0.632 0 0 0 0.406,-0.123l0.072,-0.078a0.683,0.683 0 0 0 0.2,-0.482l0,-34.019a0.689,0.689 0 0 0 -0.205,-0.483a0.677,0.677 0 0 0 -0.474,-0.201l0.01,0z" class="cls-5" id="Path_305"/>
  <path d="m973.791978,121.22897a12.923,12.923 0 0 1 5.125,-5.34a7.912,7.912 0 0 0 3.873,-5.2a33.475,33.475 0 0 0 0.792,-8.711a2,2 0 0 1 2,-2l3.418,0a3.494,3.494 0 0 1 1.028,0.163a7.4,7.4 0 0 1 3.707,3.455a12.986,12.986 0 0 1 1.616,6.334a14.452,14.452 0 0 1 -0.67,4.322c-0.3,0.971 -1.144,3.808 -0.755,4.778a1.656,1.656 0 0 0 0.584,0.082l8.567,0a11.255,11.255 0 0 1 2.912,0.36a6.872,6.872 0 0 1 3.446,2.048a6.642,6.642 0 0 1 1.559,4.507a11.835,11.835 0 0 1 -0.31,2.575c1.236,3.183 1.484,7.143 -1.026,9.749c0.156,2.632 -0.494,5.5 -2.727,7.109a8.4,8.4 0 0 1 -8.241,6.118l-15.713,0c-2.684,0 -5.367,-1.421 -7.55,-3.069a4.523,4.523 0 0 1 -1.174,2l-0.07,0.064a4.43,4.43 0 0 1 -3.046,1.216l-7.143,0a4.452,4.452 0 0 1 -4.446,-4.448l0,-22.554a4.457,4.457 0 0 1 1.333,-3.17l0.067,-0.058a4.427,4.427 0 0 1 3.046,-1.218l7.143,0a4.423,4.423 0 0 1 2.656,0.889l-0.001,-0.001zm1.79,22.162c1.8,1.816 4.824,4.2 7.394,4.2l15.716,0a4.6,4.6 0 0 0 4.579,-3.814a2,2 0 0 1 1.062,-1.381c1.451,-0.725 1.495,-3.111 1.286,-4.442a1.983,1.983 0 0 1 0.771,-2.018c1.9,-1.4 1.253,-4.428 0.442,-6.228a1.96,1.96 0 0 1 -0.168,-1.459a8.667,8.667 0 0 0 0.338,-2.217a2.821,2.821 0 0 0 -0.563,-1.879a2.984,2.984 0 0 0 -1.483,-0.821a7.27,7.27 0 0 0 -1.877,-0.221l-8.572,0c-1.914,0 -3.463,-0.631 -4.242,-2.508c-0.9,-2.162 -0.059,-5.412 0.6,-7.532a10.544,10.544 0 0 0 0.489,-3.135a8.875,8.875 0 0 0 -1.1,-4.365a4.489,4.489 0 0 0 -1.37,-1.593l-1.333,0a31.313,31.313 0 0 1 -0.927,7.79a11.76,11.76 0 0 1 -5.823,7.635c-2.958,1.592 -4.721,5.458 -5.227,8.673l0,15.316l0.008,-0.001zm-4.446,-19.057l-7.143,0a0.414,0.414 0 0 0 -0.275,0.089l-0.045,0.048a0.454,0.454 0 0 0 -0.133,0.317l0,22.559a0.455,0.455 0 0 0 0.453,0.453l7.143,0a0.419,0.419 0 0 0 0.269,-0.082l0.048,-0.052a0.453,0.453 0 0 0 0.135,-0.32l0,-22.559a0.457,0.457 0 0 0 -0.136,-0.32a0.449,0.449 0 0 0 -0.317,-0.133l0.001,0z" class="cls-5" id="Path_1779"/>
  <path d="m1493.049978,630.816001a2.908,2.908 0 1 1 5.816,0l0,13.082a2.908,2.908 0 1 1 -5.816,0l0,-13.082zm-19.833,10.625a2.91,2.91 0 1 1 4.113,-4.117l9.254,9.254a2.909,2.909 0 0 1 -4.113,4.116l-9.254,-9.253zm-6.51,21.539a2.911,2.911 0 1 1 0,-5.823l13.086,0a2.912,2.912 0 0 1 0,5.823l-13.086,0zm10.623,19.832a2.909,2.909 0 1 1 -4.113,-4.116l9.254,-9.254a2.909,2.909 0 0 1 4.113,4.114l-9.254,9.256zm21.536,6.508a2.908,2.908 0 0 1 -5.816,0l0,-13.091a2.908,2.908 0 1 1 5.816,0l0,13.091zm19.833,-10.622a2.91,2.91 0 1 1 -4.116,4.116l-9.255,-9.256a2.91,2.91 0 0 1 4.116,-4.114l9.255,9.254zm-13.323,-10.917a2.911,2.911 0 0 1 0,5.823l6.745,0a2.911,2.911 0 0 1 0,-5.823l-6.745,0zm-10.626,-19.833a2.911,2.911 0 0 1 4.116,4.117l-9.255,9.253a2.91,2.91 0 0 1 -4.116,-4.116l9.255,-9.254z" class="cls-5" id="Path_306"/>
  <path d="m513.776978,69.457986a2.908,2.908 0 0 1 5.816,0l0,13.082a2.908,2.908 0 1 1 -5.816,0l0,-13.082zm-19.833,10.624a2.909,2.909 0 1 1 4.113,-4.116l9.255,9.253a2.91,2.91 0 0 1 -4.113,4.117l-9.255,-9.254zm-6.51,21.537a2.911,2.911 0 1 1 0,-5.823l13.086,0a2.912,2.912 0 0 1 0,5.823l-13.086,0zm10.623,19.835a2.909,2.909 0 0 1 -4.113,-4.116l9.255,-9.254a2.909,2.909 0 0 1 4.113,4.116l-9.255,9.254zm21.536,6.508a2.908,2.908 0 0 1 -5.816,0l0,-13.092a2.908,2.908 0 0 1 5.816,0l0,13.092zm19.833,-10.624a2.91,2.91 0 0 1 -4.116,4.116l-9.255,-9.254a2.91,2.91 0 0 1 4.116,-4.116l9.255,9.254zm6.509,-21.542a2.911,2.911 0 1 1 0,5.823l-13.086,0a2.911,2.911 0 0 1 0,-5.823l13.086,0zm-10.625,-19.83a2.91,2.91 0 0 1 4.116,4.116l-9.255,9.254a2.911,2.911 0 0 1 -4.116,-4.117l9.255,-9.253z" class="cls-5" id="Path_307"/>
  <g id="Group_30">
   <path d="m1531.237995,436.869001a2.86,2.86 0 1 1 -2.861,-2.861a2.86,2.86 0 0 1 2.861,2.861z" class="cls-7" id="Path_354"/>
   <path d="m1569.557996,436.869001a2.86,2.86 0 1 1 -2.86,-2.861a2.859,2.859 0 0 1 2.86,2.861z" class="cls-7" id="Path_355"/>
   <circle r="2.86" cy="436.869008" cx="1605.018966" class="cls-7" id="Ellipse_101"/>
   <path d="m1646.199995,436.869001a2.86,2.86 0 1 1 -2.861,-2.861a2.86,2.86 0 0 1 2.861,2.861z" class="cls-7" id="Path_356"/>
   <path d="m1531.237995,474.309001a2.86,2.86 0 1 1 -2.861,-2.861a2.86,2.86 0 0 1 2.861,2.861z" class="cls-7" id="Path_357"/>
   <path d="m1569.557996,474.309001a2.86,2.86 0 1 1 -2.86,-2.861a2.859,2.859 0 0 1 2.86,2.861z" class="cls-7" id="Path_358"/>
   <path d="m1607.882995,474.309001a2.86,2.86 0 1 1 -2.86,-2.861a2.859,2.859 0 0 1 2.86,2.861z" class="cls-7" id="Path_359"/>
   <path d="m1646.199995,474.309001a2.86,2.86 0 1 1 -2.861,-2.861a2.86,2.86 0 0 1 2.861,2.861z" class="cls-7" id="Path_360"/>
   <path d="m1531.237995,511.749a2.86,2.86 0 1 1 -2.861,-2.86a2.861,2.861 0 0 1 2.861,2.86z" class="cls-7" id="Path_361"/>
   <path d="m1569.557996,511.749a2.86,2.86 0 1 1 -2.86,-2.86a2.86,2.86 0 0 1 2.86,2.86z" class="cls-7" id="Path_362"/>
   <circle r="2.86" cy="511.749013" cx="1605.018966" class="cls-7" id="Ellipse_102"/>
   <path d="m1646.199995,511.749a2.86,2.86 0 1 1 -2.861,-2.86a2.861,2.861 0 0 1 2.861,2.86z" class="cls-7" id="Path_363"/>
   <path d="m1531.237995,550.222001a2.86,2.86 0 1 1 -2.861,-2.861a2.86,2.86 0 0 1 2.861,2.861z" class="cls-7" id="Path_364"/>
   <path d="m1569.557996,550.222001a2.86,2.86 0 1 1 -2.86,-2.861a2.859,2.859 0 0 1 2.86,2.861z" class="cls-7" id="Path_365"/>
   <circle r="2.86" cy="550.220998" cx="1605.018966" class="cls-7" id="Ellipse_103"/>
   <path d="m1646.199995,550.222001a2.86,2.86 0 1 1 -2.861,-2.861a2.86,2.86 0 0 1 2.861,2.861z" class="cls-7" id="Path_366"/>
   <path d="m1531.237995,587.661001a2.86,2.86 0 1 1 -2.861,-2.86a2.861,2.861 0 0 1 2.861,2.86z" class="cls-7" id="Path_367"/>
   <path d="m1569.557996,587.661001a2.86,2.86 0 1 1 -2.86,-2.86a2.86,2.86 0 0 1 2.86,2.86z" class="cls-7" id="Path_368"/>
   <circle r="2.86" cy="587.661001" cx="1605.018966" class="cls-7" id="Ellipse_104"/>
   <path d="m1646.199995,587.661001a2.86,2.86 0 1 1 -2.861,-2.86a2.861,2.861 0 0 1 2.861,2.86z" class="cls-7" id="Path_369"/>
   <path d="m1531.237995,625.102a2.86,2.86 0 1 1 -2.861,-2.86a2.861,2.861 0 0 1 2.861,2.86z" class="cls-7" id="Path_370"/>
   <path d="m1569.557996,625.102a2.86,2.86 0 1 1 -2.86,-2.86a2.86,2.86 0 0 1 2.86,2.86z" class="cls-7" id="Path_371"/>
   <circle r="2.86" cy="625.101003" cx="1605.018966" class="cls-7" id="Ellipse_105"/>
   <path d="m1646.199995,625.102a2.86,2.86 0 1 1 -2.861,-2.86a2.861,2.861 0 0 1 2.861,2.86z" class="cls-7" id="Path_372"/>
   <circle r="2.86" cy="436.869008" cx="1683.580001" class="cls-7" id="Ellipse_106"/>
   <circle r="2.86" cy="436.869008" cx="1721.899948" class="cls-7" id="Ellipse_107"/>
   <path d="m1763.080996,436.869001a2.86,2.86 0 1 1 -2.86,-2.861a2.859,2.859 0 0 1 2.86,2.861z" class="cls-7" id="Path_373"/>
   <path d="m1801.400995,436.869001a2.86,2.86 0 1 1 -2.86,-2.861a2.859,2.859 0 0 1 2.86,2.861z" class="cls-7" id="Path_374"/>
   <path d="m1686.439996,474.309001a2.86,2.86 0 1 1 -2.861,-2.861a2.86,2.86 0 0 1 2.861,2.861z" class="cls-7" id="Path_375"/>
   <path d="m1724.760995,474.309001a2.86,2.86 0 1 1 -2.861,-2.861a2.86,2.86 0 0 1 2.861,2.861z" class="cls-7" id="Path_376"/>
   <path d="m1763.080996,474.309001a2.86,2.86 0 1 1 -2.86,-2.861a2.859,2.859 0 0 1 2.86,2.861z" class="cls-7" id="Path_377"/>
   <path d="m1801.400995,474.309001a2.86,2.86 0 1 1 -2.86,-2.861a2.859,2.859 0 0 1 2.86,2.861z" class="cls-7" id="Path_378"/>
   <circle r="2.86" cy="511.749013" cx="1683.580001" class="cls-7" id="Ellipse_108"/>
   <circle r="2.86" cy="511.749013" cx="1721.899948" class="cls-7" id="Ellipse_109"/>
   <path d="m1763.080996,511.749a2.86,2.86 0 1 1 -2.86,-2.86a2.86,2.86 0 0 1 2.86,2.86z" class="cls-7" id="Path_379"/>
   <path d="m1801.400995,511.749a2.86,2.86 0 1 1 -2.86,-2.86a2.86,2.86 0 0 1 2.86,2.86z" class="cls-7" id="Path_380"/>
   <circle r="2.86" cy="550.220998" cx="1683.580001" class="cls-7" id="Ellipse_110"/>
   <circle r="2.86" cy="550.220998" cx="1721.899948" class="cls-7" id="Ellipse_111"/>
   <path d="m1763.080996,550.222001a2.86,2.86 0 1 1 -2.86,-2.861a2.859,2.859 0 0 1 2.86,2.861z" class="cls-7" id="Path_381"/>
   <path d="m1801.400995,550.222001a2.86,2.86 0 1 1 -2.86,-2.861a2.859,2.859 0 0 1 2.86,2.861z" class="cls-7" id="Path_382"/>
   <circle r="2.86" cy="587.661001" cx="1683.580001" class="cls-7" id="Ellipse_112"/>
   <circle r="2.86" cy="587.661001" cx="1721.899948" class="cls-7" id="Ellipse_113"/>
   <path d="m1763.080996,587.661001a2.86,2.86 0 1 1 -2.86,-2.86a2.86,2.86 0 0 1 2.86,2.86z" class="cls-7" id="Path_383"/>
   <path d="m1801.400995,587.661001a2.86,2.86 0 1 1 -2.86,-2.86a2.86,2.86 0 0 1 2.86,2.86z" class="cls-7" id="Path_384"/>
   <circle r="2.86" cy="625.101003" cx="1683.580001" class="cls-7" id="Ellipse_114"/>
   <circle r="2.86" cy="625.101003" cx="1721.899948" class="cls-7" id="Ellipse_115"/>
   <path d="m1763.080996,625.102a2.86,2.86 0 1 1 -2.86,-2.86a2.86,2.86 0 0 1 2.86,2.86z" class="cls-7" id="Path_385"/>
   <path d="m1801.400995,625.102a2.86,2.86 0 1 1 -2.86,-2.86a2.86,2.86 0 0 1 2.86,2.86z" class="cls-7" id="Path_386"/>
   <path d="m1841.637997,436.869001a2.86,2.86 0 1 1 -2.86,-2.861a2.859,2.859 0 0 1 2.86,2.861z" class="cls-7" id="Path_387"/>
   <path d="m1879.963993,436.869001a2.861,2.861 0 1 1 -2.861,-2.861a2.86,2.86 0 0 1 2.861,2.861z" class="cls-7" id="Path_388"/>
   <circle r="2.86" cy="436.869008" cx="1915.423019" class="cls-7" id="Ellipse_116"/>
   <path d="m1841.637997,474.309001a2.86,2.86 0 1 1 -2.86,-2.861a2.859,2.859 0 0 1 2.86,2.861z" class="cls-7" id="Path_389"/>
   <path d="m1879.963993,474.309001a2.861,2.861 0 1 1 -2.861,-2.861a2.86,2.86 0 0 1 2.861,2.861z" class="cls-7" id="Path_390"/>
   <path d="m1918.283995,474.309001a2.86,2.86 0 1 1 -2.861,-2.861a2.86,2.86 0 0 1 2.861,2.861z" class="cls-7" id="Path_391"/>
   <path d="m1841.637997,511.749a2.86,2.86 0 1 1 -2.86,-2.86a2.86,2.86 0 0 1 2.86,2.86z" class="cls-7" id="Path_392"/>
   <path d="m1879.963993,511.749a2.861,2.861 0 1 1 -2.861,-2.86a2.861,2.861 0 0 1 2.861,2.86z" class="cls-7" id="Path_393"/>
   <circle r="2.86" cy="511.749013" cx="1915.423019" class="cls-7" id="Ellipse_117"/>
   <path d="m1841.637997,550.222001a2.86,2.86 0 1 1 -2.86,-2.861a2.859,2.859 0 0 1 2.86,2.861z" class="cls-7" id="Path_394"/>
   <path d="m1879.963993,550.222001a2.861,2.861 0 1 1 -2.861,-2.861a2.86,2.86 0 0 1 2.861,2.861z" class="cls-7" id="Path_395"/>
   <circle r="2.86" cy="550.220998" cx="1915.423019" class="cls-7" id="Ellipse_118"/>
   <path d="m1841.637997,587.661001a2.86,2.86 0 1 1 -2.86,-2.86a2.86,2.86 0 0 1 2.86,2.86z" class="cls-7" id="Path_396"/>
   <path d="m1879.963993,587.661001a2.861,2.861 0 1 1 -2.861,-2.86a2.861,2.861 0 0 1 2.861,2.86z" class="cls-7" id="Path_397"/>
   <circle r="2.86" cy="587.661001" cx="1915.423019" class="cls-7" id="Ellipse_119"/>
   <path d="m1841.637997,625.102a2.86,2.86 0 1 1 -2.86,-2.86a2.86,2.86 0 0 1 2.86,2.86z" class="cls-7" id="Path_398"/>
   <path d="m1879.963993,625.102a2.861,2.861 0 1 1 -2.861,-2.86a2.861,2.861 0 0 1 2.861,2.86z" class="cls-7" id="Path_399"/>
   <circle r="2.86" cy="625.101003" cx="1915.423019" class="cls-7" id="Ellipse_120"/>
  </g>
  <g id="Group_31">
   <path d="m964.181998,835.666997a2.022,2.022 0 1 1 -2.021,-2.023a2.022,2.022 0 0 1 2.021,2.023z" class="cls-8" id="Path_400"/>
   <path d="m991.274998,835.666997a2.022,2.022 0 1 1 -2.022,-2.023a2.022,2.022 0 0 1 2.022,2.023z" class="cls-8" id="Path_401"/>
   <circle r="2.022" cy="835.665997" cx="1016.34496" class="cls-8" id="Ellipse_121"/>
   <path d="m1045.460998,835.666997a2.023,2.023 0 1 1 -2.018,-2.023a2.022,2.022 0 0 1 2.018,2.023z" class="cls-8" id="Path_402"/>
   <path d="m964.181998,862.136997a2.022,2.022 0 1 1 -2.021,-2.022a2.023,2.023 0 0 1 2.021,2.022z" class="cls-8" id="Path_403"/>
   <path d="m991.274998,862.136997a2.022,2.022 0 1 1 -2.022,-2.022a2.022,2.022 0 0 1 2.022,2.022z" class="cls-8" id="Path_404"/>
   <path d="m1018.366998,862.136997a2.022,2.022 0 1 1 -2.021,-2.022a2.022,2.022 0 0 1 2.021,2.022z" class="cls-8" id="Path_405"/>
   <path d="m1045.460998,862.136997a2.023,2.023 0 1 1 -2.023,-2.022a2.023,2.023 0 0 1 2.023,2.022z" class="cls-8" id="Path_406"/>
   <path d="m964.181998,888.605997a2.022,2.022 0 1 1 -2.021,-2.022a2.022,2.022 0 0 1 2.021,2.022z" class="cls-8" id="Path_407"/>
   <path d="m991.274998,888.605997a2.022,2.022 0 1 1 -2.022,-2.022a2.022,2.022 0 0 1 2.022,2.022z" class="cls-8" id="Path_408"/>
   <circle r="2.022" cy="888.606" cx="1016.34496" class="cls-8" id="Ellipse_122"/>
   <path d="m1045.460998,888.605997a2.023,2.023 0 1 1 -2.023,-2.022a2.023,2.023 0 0 1 2.023,2.022z" class="cls-8" id="Path_409"/>
   <path d="m964.181998,915.806997a2.022,2.022 0 1 1 -2.021,-2.021a2.023,2.023 0 0 1 2.021,2.021z" class="cls-8" id="Path_410"/>
   <path d="m991.274998,915.806997a2.022,2.022 0 1 1 -2.022,-2.021a2.022,2.022 0 0 1 2.022,2.021z" class="cls-8" id="Path_411"/>
   <circle r="2.022" cy="915.806988" cx="1016.34496" class="cls-8" id="Ellipse_123"/>
   <path d="m1045.460998,915.806997a2.023,2.023 0 1 1 -2.023,-2.021a2.023,2.023 0 0 1 2.023,2.021z" class="cls-8" id="Path_412"/>
   <path d="m964.181998,942.276997a2.022,2.022 0 1 1 -2.021,-2.023a2.022,2.022 0 0 1 2.021,2.023z" class="cls-8" id="Path_413"/>
   <path d="m991.274998,942.276997a2.022,2.022 0 1 1 -2.022,-2.023a2.021,2.021 0 0 1 2.022,2.023z" class="cls-8" id="Path_414"/>
   <circle r="2.022" cy="942.275983" cx="1016.34496" class="cls-8" id="Ellipse_124"/>
   <path d="m1045.460998,942.276997a2.023,2.023 0 1 1 -2.023,-2.023a2.022,2.022 0 0 1 2.023,2.023z" class="cls-8" id="Path_415"/>
   <path d="m964.181998,968.745997a2.022,2.022 0 1 1 -2.021,-2.021a2.022,2.022 0 0 1 2.021,2.021z" class="cls-8" id="Path_416"/>
   <path d="m991.274998,968.745997a2.022,2.022 0 1 1 -2.022,-2.021a2.022,2.022 0 0 1 2.022,2.021z" class="cls-8" id="Path_417"/>
   <circle r="2.022" cy="968.747052" cx="1016.34496" class="cls-8" id="Ellipse_125"/>
   <path d="m1045.460998,968.745997a2.023,2.023 0 1 1 -2.023,-2.021a2.023,2.023 0 0 1 2.023,2.021z" class="cls-8" id="Path_418"/>
   <circle r="2.022" cy="835.665997" cx="1071.888051" class="cls-8" id="Ellipse_126"/>
   <circle r="2.022" cy="835.665997" cx="1098.97997" class="cls-8" id="Ellipse_127"/>
   <path d="m1128.095998,835.666997a2.023,2.023 0 1 1 -2.023,-2.023a2.022,2.022 0 0 1 2.023,2.023z" class="cls-8" id="Path_419"/>
   <path d="m1155.187998,835.666997a2.022,2.022 0 1 1 -2.022,-2.023a2.022,2.022 0 0 1 2.022,2.023z" class="cls-8" id="Path_420"/>
   <path d="m1073.909998,862.136997a2.022,2.022 0 1 1 -2.022,-2.022a2.023,2.023 0 0 1 2.022,2.022z" class="cls-8" id="Path_421"/>
   <path d="m1101.001998,862.136997a2.022,2.022 0 1 1 -2.021,-2.022a2.022,2.022 0 0 1 2.021,2.022z" class="cls-8" id="Path_422"/>
   <path d="m1128.095998,862.136997a2.023,2.023 0 1 1 -2.023,-2.022a2.023,2.023 0 0 1 2.023,2.022z" class="cls-8" id="Path_423"/>
   <path d="m1155.187998,862.136997a2.022,2.022 0 1 1 -2.022,-2.022a2.023,2.023 0 0 1 2.022,2.022z" class="cls-8" id="Path_424"/>
   <circle r="2.022" cy="888.606" cx="1071.888051" class="cls-8" id="Ellipse_128"/>
   <circle r="2.022" cy="888.606" cx="1098.97997" class="cls-8" id="Ellipse_129"/>
   <path d="m1128.095998,888.605997a2.023,2.023 0 1 1 -2.023,-2.022a2.023,2.023 0 0 1 2.023,2.022z" class="cls-8" id="Path_425"/>
   <path d="m1155.187998,888.605997a2.022,2.022 0 1 1 -2.022,-2.022a2.023,2.023 0 0 1 2.022,2.022z" class="cls-8" id="Path_426"/>
   <circle r="2.022" cy="915.806988" cx="1071.888051" class="cls-8" id="Ellipse_130"/>
   <circle r="2.022" cy="915.806988" cx="1098.97997" class="cls-8" id="Ellipse_131"/>
   <path d="m1128.095998,915.806997a2.023,2.023 0 1 1 -2.023,-2.021a2.023,2.023 0 0 1 2.023,2.021z" class="cls-8" id="Path_427"/>
   <path d="m1155.187998,915.806997a2.022,2.022 0 1 1 -2.022,-2.021a2.023,2.023 0 0 1 2.022,2.021z" class="cls-8" id="Path_428"/>
   <circle r="2.022" cy="942.275983" cx="1071.888051" class="cls-8" id="Ellipse_132"/>
   <circle r="2.022" cy="942.275983" cx="1098.97997" class="cls-8" id="Ellipse_133"/>
   <path d="m1128.095998,942.276997a2.023,2.023 0 1 1 -2.023,-2.023a2.022,2.022 0 0 1 2.023,2.023z" class="cls-8" id="Path_429"/>
   <path d="m1155.187998,942.276997a2.022,2.022 0 1 1 -2.022,-2.023a2.022,2.022 0 0 1 2.022,2.023z" class="cls-8" id="Path_430"/>
   <circle r="2.022" cy="968.747052" cx="1071.888051" class="cls-8" id="Ellipse_134"/>
   <circle r="2.022" cy="968.747052" cx="1098.97997" class="cls-8" id="Ellipse_135"/>
   <path d="m1128.095998,968.745997a2.023,2.023 0 1 1 -2.023,-2.021a2.023,2.023 0 0 1 2.023,2.021z" class="cls-8" id="Path_431"/>
   <path d="m1155.187998,968.745997a2.022,2.022 0 1 1 -2.022,-2.021a2.023,2.023 0 0 1 2.022,2.021z" class="cls-8" id="Path_432"/>
   <path d="m1183.636998,835.666997a2.022,2.022 0 1 1 -2.022,-2.023a2.022,2.022 0 0 1 2.022,2.023z" class="cls-8" id="Path_433"/>
   <path d="m1210.729998,835.666997a2.022,2.022 0 1 1 -2.022,-2.023a2.022,2.022 0 0 1 2.022,2.023z" class="cls-8" id="Path_434"/>
   <circle r="2.022" cy="835.665997" cx="1235.801015" class="cls-8" id="Ellipse_136"/>
   <path d="m1183.636998,862.136997a2.022,2.022 0 1 1 -2.022,-2.022a2.022,2.022 0 0 1 2.022,2.022z" class="cls-8" id="Path_435"/>
   <path d="m1210.729998,862.136997a2.022,2.022 0 1 1 -2.022,-2.022a2.022,2.022 0 0 1 2.022,2.022z" class="cls-8" id="Path_436"/>
   <path d="m1237.823998,862.136997a2.023,2.023 0 1 1 -2.023,-2.022a2.023,2.023 0 0 1 2.023,2.022z" class="cls-8" id="Path_437"/>
   <path d="m1183.636998,888.605997a2.022,2.022 0 1 1 -2.022,-2.022a2.022,2.022 0 0 1 2.022,2.022z" class="cls-8" id="Path_438"/>
   <path d="m1210.729998,888.605997a2.022,2.022 0 1 1 -2.022,-2.022a2.022,2.022 0 0 1 2.022,2.022z" class="cls-8" id="Path_439"/>
   <circle r="2.022" cy="888.606" cx="1235.801015" class="cls-8" id="Ellipse_137"/>
   <path d="m1183.636998,915.806997a2.022,2.022 0 1 1 -2.022,-2.021a2.022,2.022 0 0 1 2.022,2.021z" class="cls-8" id="Path_440"/>
   <path d="m1210.729998,915.806997a2.022,2.022 0 1 1 -2.022,-2.021a2.022,2.022 0 0 1 2.022,2.021z" class="cls-8" id="Path_441"/>
   <circle r="2.022" cy="915.806988" cx="1235.801015" class="cls-8" id="Ellipse_138"/>
   <path d="m1183.636998,942.276997a2.022,2.022 0 1 1 -2.022,-2.023a2.021,2.021 0 0 1 2.022,2.023z" class="cls-8" id="Path_442"/>
   <path d="m1210.729998,942.276997a2.022,2.022 0 1 1 -2.022,-2.023a2.021,2.021 0 0 1 2.022,2.023z" class="cls-8" id="Path_443"/>
   <circle r="2.022" cy="942.275983" cx="1235.801015" class="cls-8" id="Ellipse_139"/>
   <path d="m1183.636998,968.745997a2.022,2.022 0 1 1 -2.022,-2.021a2.022,2.022 0 0 1 2.022,2.021z" class="cls-8" id="Path_444"/>
   <path d="m1210.729998,968.745997a2.022,2.022 0 1 1 -2.022,-2.021a2.022,2.022 0 0 1 2.022,2.021z" class="cls-8" id="Path_445"/>
   <circle r="2.022" cy="968.747052" cx="1235.801015" class="cls-8" id="Ellipse_140"/>
  </g>
  <g id="Group_32">
   <path d="m596.823,366.751a2.4,2.4 0 1 1 -2.4,-2.4a2.4,2.4 0 0 1 2.4,2.4z" class="cls-8" id="Path_446"/>
   <path d="m629.028,366.751a2.4,2.4 0 1 1 -2.4,-2.4a2.4,2.4 0 0 1 2.4,2.4z" class="cls-8" id="Path_447"/>
   <circle r="2.404" cy="366.750999" cx="658.82901" class="cls-8" id="Ellipse_141"/>
   <path d="m693.436,366.751a2.4,2.4 0 1 1 -2.4,-2.4a2.4,2.4 0 0 1 2.4,2.4z" class="cls-8" id="Path_448"/>
   <path d="m596.823,398.215a2.4,2.4 0 1 1 -2.4,-2.4a2.4,2.4 0 0 1 2.4,2.4z" class="cls-8" id="Path_449"/>
   <path d="m629.028,398.215a2.4,2.4 0 1 1 -2.4,-2.4a2.4,2.4 0 0 1 2.4,2.4z" class="cls-8" id="Path_450"/>
   <path d="m661.232,398.215a2.4,2.4 0 1 1 -2.4,-2.4a2.4,2.4 0 0 1 2.4,2.4z" class="cls-8" id="Path_451"/>
   <path d="m693.436,398.215a2.4,2.4 0 1 1 -2.4,-2.4a2.4,2.4 0 0 1 2.4,2.4z" class="cls-8" id="Path_452"/>
   <path d="m596.823,429.679a2.4,2.4 0 1 1 -2.4,-2.4a2.4,2.4 0 0 1 2.4,2.4z" class="cls-8" id="Path_453"/>
   <path d="m629.028,429.679a2.4,2.4 0 1 1 -2.4,-2.4a2.4,2.4 0 0 1 2.4,2.4z" class="cls-8" id="Path_454"/>
   <circle r="2.404" cy="429.679008" cx="658.82901" class="cls-8" id="Ellipse_142"/>
   <path d="m693.436,429.679a2.4,2.4 0 1 1 -2.4,-2.4a2.4,2.4 0 0 1 2.4,2.4z" class="cls-8" id="Path_455"/>
   <path d="m596.823,462.011a2.4,2.4 0 1 1 -2.4,-2.4a2.4,2.4 0 0 1 2.4,2.4z" class="cls-8" id="Path_456"/>
   <path d="m629.028,462.011a2.4,2.4 0 1 1 -2.4,-2.4a2.4,2.4 0 0 1 2.4,2.4z" class="cls-8" id="Path_457"/>
   <circle r="2.404" cy="462.011009" cx="658.82901" class="cls-8" id="Ellipse_143"/>
   <path d="m693.436,462.011a2.4,2.4 0 1 1 -2.4,-2.4a2.4,2.4 0 0 1 2.4,2.4z" class="cls-8" id="Path_458"/>
   <path d="m596.823,493.475a2.4,2.4 0 1 1 -2.4,-2.4a2.4,2.4 0 0 1 2.4,2.4z" class="cls-8" id="Path_459"/>
   <path d="m629.028,493.475a2.4,2.4 0 1 1 -2.4,-2.4a2.4,2.4 0 0 1 2.4,2.4z" class="cls-8" id="Path_460"/>
   <circle r="2.404" cy="493.476005" cx="658.82901" class="cls-8" id="Ellipse_144"/>
   <path d="m693.436,493.475a2.4,2.4 0 1 1 -2.4,-2.4a2.4,2.4 0 0 1 2.4,2.4z" class="cls-8" id="Path_461"/>
   <path d="m596.823,524.94a2.4,2.4 0 1 1 -2.4,-2.4a2.4,2.4 0 0 1 2.4,2.4z" class="cls-8" id="Path_462"/>
   <path d="m629.028,524.94a2.4,2.4 0 1 1 -2.4,-2.4a2.4,2.4 0 0 1 2.4,2.4z" class="cls-8" id="Path_463"/>
   <circle r="2.404" cy="524.940025" cx="658.82901" class="cls-8" id="Ellipse_145"/>
   <path d="m693.436,524.94a2.4,2.4 0 1 1 -2.4,-2.4a2.4,2.4 0 0 1 2.4,2.4z" class="cls-8" id="Path_464"/>
   <circle r="2.404" cy="366.750999" cx="724.850006" class="cls-8" id="Ellipse_146"/>
   <circle r="2.404" cy="366.750999" cx="757.055023" class="cls-8" id="Ellipse_147"/>
   <path d="m791.662,366.751a2.4,2.4 0 1 1 -2.4,-2.4a2.4,2.4 0 0 1 2.4,2.4z" class="cls-8" id="Path_465"/>
   <path d="m823.867,366.751a2.4,2.4 0 1 1 -2.4,-2.4a2.4,2.4 0 0 1 2.4,2.4z" class="cls-8" id="Path_466"/>
   <path d="m727.254,398.215a2.4,2.4 0 1 1 -2.4,-2.4a2.4,2.4 0 0 1 2.4,2.4z" class="cls-8" id="Path_467"/>
   <path d="m759.458,398.215a2.4,2.4 0 1 1 -2.4,-2.4a2.4,2.4 0 0 1 2.4,2.4z" class="cls-8" id="Path_468"/>
   <path d="m791.662,398.215a2.4,2.4 0 1 1 -2.4,-2.4a2.4,2.4 0 0 1 2.4,2.4z" class="cls-8" id="Path_469"/>
   <path d="m823.867,398.215a2.4,2.4 0 1 1 -2.4,-2.4a2.4,2.4 0 0 1 2.4,2.4z" class="cls-8" id="Path_470"/>
   <circle r="2.404" cy="429.679008" cx="724.850006" class="cls-8" id="Ellipse_148"/>
   <circle r="2.404" cy="429.679008" cx="757.055023" class="cls-8" id="Ellipse_149"/>
   <path d="m791.662,429.679a2.4,2.4 0 1 1 -2.4,-2.4a2.4,2.4 0 0 1 2.4,2.4z" class="cls-8" id="Path_471"/>
   <path d="m823.867,429.679a2.4,2.4 0 1 1 -2.4,-2.4a2.4,2.4 0 0 1 2.4,2.4z" class="cls-8" id="Path_472"/>
   <circle r="2.404" cy="462.011009" cx="724.850006" class="cls-8" id="Ellipse_150"/>
   <circle r="2.404" cy="462.011009" cx="757.055023" class="cls-8" id="Ellipse_151"/>
   <path d="m791.662,462.011a2.4,2.4 0 1 1 -2.4,-2.4a2.4,2.4 0 0 1 2.4,2.4z" class="cls-8" id="Path_473"/>
   <path d="m823.867,462.011a2.4,2.4 0 1 1 -2.4,-2.4a2.4,2.4 0 0 1 2.4,2.4z" class="cls-8" id="Path_474"/>
   <circle r="2.404" cy="493.476005" cx="724.850006" class="cls-8" id="Ellipse_152"/>
   <circle r="2.404" cy="493.476005" cx="757.055023" class="cls-8" id="Ellipse_153"/>
   <path d="m791.662,493.475a2.4,2.4 0 1 1 -2.4,-2.4a2.4,2.4 0 0 1 2.4,2.4z" class="cls-8" id="Path_475"/>
   <path d="m823.867,493.475a2.4,2.4 0 1 1 -2.4,-2.4a2.4,2.4 0 0 1 2.4,2.4z" class="cls-8" id="Path_476"/>
   <circle r="2.404" cy="524.940025" cx="724.850006" class="cls-8" id="Ellipse_154"/>
   <circle r="2.404" cy="524.940025" cx="757.055023" class="cls-8" id="Ellipse_155"/>
   <path d="m791.662,524.94a2.4,2.4 0 1 1 -2.4,-2.4a2.4,2.4 0 0 1 2.4,2.4z" class="cls-8" id="Path_477"/>
   <path d="m823.867,524.94a2.4,2.4 0 1 1 -2.4,-2.4a2.4,2.4 0 0 1 2.4,2.4z" class="cls-8" id="Path_478"/>
   <path d="m857.684,366.751a2.4,2.4 0 1 1 -2.4,-2.4a2.4,2.4 0 0 1 2.4,2.4z" class="cls-8" id="Path_479"/>
   <path d="m889.888,366.751a2.4,2.4 0 1 1 -2.4,-2.4a2.4,2.4 0 0 1 2.4,2.4z" class="cls-8" id="Path_480"/>
   <circle r="2.404" cy="366.750999" cx="919.688996" class="cls-8" id="Ellipse_156"/>
   <path d="m857.684,398.215a2.4,2.4 0 1 1 -2.4,-2.4a2.4,2.4 0 0 1 2.4,2.4z" class="cls-8" id="Path_481"/>
   <path d="m889.888,398.215a2.4,2.4 0 1 1 -2.4,-2.4a2.4,2.4 0 0 1 2.4,2.4z" class="cls-8" id="Path_482"/>
   <path d="m922.092,398.215a2.4,2.4 0 1 1 -2.4,-2.4a2.4,2.4 0 0 1 2.4,2.4z" class="cls-8" id="Path_483"/>
   <path d="m857.684,429.679a2.4,2.4 0 1 1 -2.4,-2.4a2.4,2.4 0 0 1 2.4,2.4z" class="cls-8" id="Path_484"/>
   <path d="m889.888,429.679a2.4,2.4 0 1 1 -2.4,-2.4a2.4,2.4 0 0 1 2.4,2.4z" class="cls-8" id="Path_485"/>
   <circle r="2.404" cy="429.679008" cx="919.688996" class="cls-8" id="Ellipse_157"/>
   <path d="m857.684,462.011a2.4,2.4 0 1 1 -2.4,-2.4a2.4,2.4 0 0 1 2.4,2.4z" class="cls-8" id="Path_486"/>
   <path d="m889.888,462.011a2.4,2.4 0 1 1 -2.4,-2.4a2.4,2.4 0 0 1 2.4,2.4z" class="cls-8" id="Path_487"/>
   <circle r="2.404" cy="462.011009" cx="919.688996" class="cls-8" id="Ellipse_158"/>
   <path d="m857.684,493.475a2.4,2.4 0 1 1 -2.4,-2.4a2.4,2.4 0 0 1 2.4,2.4z" class="cls-8" id="Path_488"/>
   <path d="m889.888,493.475a2.4,2.4 0 1 1 -2.4,-2.4a2.4,2.4 0 0 1 2.4,2.4z" class="cls-8" id="Path_489"/>
   <circle r="2.404" cy="493.476005" cx="919.688996" class="cls-8" id="Ellipse_159"/>
   <path d="m857.684,524.94a2.4,2.4 0 1 1 -2.4,-2.4a2.4,2.4 0 0 1 2.4,2.4z" class="cls-8" id="Path_490"/>
   <path d="m889.888,524.94a2.4,2.4 0 1 1 -2.4,-2.4a2.4,2.4 0 0 1 2.4,2.4z" class="cls-8" id="Path_491"/>
   <circle r="2.404" cy="524.940025" cx="919.688996" class="cls-8" id="Ellipse_160"/>
  </g>
  <g id="Group_3659">
   <path d="m8.929978,122.305001a2.957,2.957 0 1 1 -2.957,-2.958a2.957,2.957 0 0 1 2.957,2.958z" class="cls-7" id="Path_446-2"/>
   <path d="m48.552978,122.305001a2.958,2.958 0 1 1 -2.958,-2.958a2.957,2.957 0 0 1 2.958,2.958z" class="cls-7" id="Path_447-2"/>
   <circle r="2.957" cy="122.304" cx="85.216949" class="cls-7" id="Ellipse_141-2"/>
   <path d="m127.796977,122.305001a2.957,2.957 0 1 1 -2.957,-2.958a2.957,2.957 0 0 1 2.957,2.958z" class="cls-7" id="Path_448-2"/>
   <path d="m8.929978,161.016001a2.957,2.957 0 1 1 -2.957,-2.958a2.957,2.957 0 0 1 2.957,2.958z" class="cls-7" id="Path_449-2"/>
   <path d="m48.552978,161.016001a2.958,2.958 0 1 1 -2.958,-2.958a2.957,2.957 0 0 1 2.958,2.958z" class="cls-7" id="Path_450-2"/>
   <path d="m88.174978,161.016001a2.957,2.957 0 1 1 -2.958,-2.958a2.957,2.957 0 0 1 2.958,2.958z" class="cls-7" id="Path_451-2"/>
   <path d="m127.796977,161.016001a2.957,2.957 0 1 1 -2.957,-2.958a2.957,2.957 0 0 1 2.957,2.958z" class="cls-7" id="Path_452-2"/>
   <path d="m8.929978,199.728001a2.957,2.957 0 1 1 -2.957,-2.958a2.958,2.958 0 0 1 2.957,2.958z" class="cls-7" id="Path_453-2"/>
   <path d="m48.552978,199.728001a2.958,2.958 0 1 1 -2.958,-2.958a2.958,2.958 0 0 1 2.958,2.958z" class="cls-7" id="Path_454-2"/>
   <circle r="2.957" cy="199.727004" cx="85.216949" class="cls-7" id="Ellipse_142-2"/>
   <path d="m127.796977,199.728001a2.957,2.957 0 1 1 -2.957,-2.958a2.958,2.958 0 0 1 2.957,2.958z" class="cls-7" id="Path_455-2"/>
   <path d="m8.929978,239.507001a2.957,2.957 0 1 1 -2.957,-2.958a2.957,2.957 0 0 1 2.957,2.958z" class="cls-7" id="Path_456-2"/>
   <path d="m48.552978,239.507001a2.958,2.958 0 1 1 -2.958,-2.958a2.957,2.957 0 0 1 2.958,2.958z" class="cls-7" id="Path_457-2"/>
   <circle r="2.957" cy="239.507003" cx="85.216949" class="cls-7" id="Ellipse_143-2"/>
   <path d="m127.796977,239.507001a2.957,2.957 0 1 1 -2.957,-2.958a2.957,2.957 0 0 1 2.957,2.958z" class="cls-7" id="Path_458-2"/>
   <path d="m8.929978,278.219002a2.957,2.957 0 1 1 -2.957,-2.957a2.957,2.957 0 0 1 2.957,2.957z" class="cls-7" id="Path_459-2"/>
   <path d="m48.552978,278.219002a2.958,2.958 0 1 1 -2.958,-2.957a2.957,2.957 0 0 1 2.958,2.957z" class="cls-7" id="Path_460-2"/>
   <circle r="2.957" cy="278.218002" cx="85.216949" class="cls-7" id="Ellipse_144-2"/>
   <path d="m127.796977,278.219002a2.957,2.957 0 1 1 -2.957,-2.957a2.957,2.957 0 0 1 2.957,2.957z" class="cls-7" id="Path_461-2"/>
   <path d="m8.929978,316.935001a2.957,2.957 0 1 1 -2.957,-2.958a2.957,2.957 0 0 1 2.957,2.958z" class="cls-7" id="Path_462-2"/>
   <path d="m48.552978,316.935001a2.958,2.958 0 1 1 -2.958,-2.958a2.957,2.957 0 0 1 2.958,2.958z" class="cls-7" id="Path_463-2"/>
   <circle r="2.957" cy="316.929977" cx="85.216949" class="cls-7" id="Ellipse_145-2"/>
   <path d="m127.796977,316.935001a2.957,2.957 0 1 1 -2.957,-2.958a2.957,2.957 0 0 1 2.957,2.958z" class="cls-7" id="Path_464-2"/>
   <circle r="2.957" cy="122.304" cx="166.445953" class="cls-7" id="Ellipse_146-2"/>
   <circle r="2.957" cy="122.304" cx="206.069" class="cls-7" id="Ellipse_147-2"/>
   <path d="m248.647979,122.305001a2.957,2.957 0 1 1 -2.957,-2.958a2.957,2.957 0 0 1 2.957,2.958z" class="cls-7" id="Path_465-2"/>
   <path d="m288.273978,122.305001a2.958,2.958 0 1 1 -2.958,-2.958a2.957,2.957 0 0 1 2.958,2.958z" class="cls-7" id="Path_466-2"/>
   <path d="m169.404977,161.016001a2.958,2.958 0 1 1 -2.958,-2.958a2.958,2.958 0 0 1 2.958,2.958z" class="cls-7" id="Path_467-2"/>
   <path d="m209.025976,161.016001a2.957,2.957 0 1 1 -2.958,-2.958a2.957,2.957 0 0 1 2.958,2.958z" class="cls-7" id="Path_468-2"/>
   <path d="m248.647979,161.016001a2.957,2.957 0 1 1 -2.957,-2.958a2.957,2.957 0 0 1 2.957,2.958z" class="cls-7" id="Path_469-2"/>
   <path d="m288.273978,161.016001a2.958,2.958 0 1 1 -2.958,-2.958a2.957,2.957 0 0 1 2.958,2.958z" class="cls-7" id="Path_470-2"/>
   <circle r="2.957" cy="199.727004" cx="166.445953" class="cls-7" id="Ellipse_148-2"/>
   <circle r="2.957" cy="199.727004" cx="206.069" class="cls-7" id="Ellipse_149-2"/>
   <path d="m248.647979,199.728001a2.957,2.957 0 1 1 -2.957,-2.958a2.958,2.958 0 0 1 2.957,2.958z" class="cls-7" id="Path_471-2"/>
   <path d="m288.273978,199.728001a2.958,2.958 0 1 1 -2.958,-2.958a2.958,2.958 0 0 1 2.958,2.958z" class="cls-7" id="Path_472-2"/>
   <circle r="2.957" cy="239.507003" cx="166.445953" class="cls-7" id="Ellipse_150-2"/>
   <circle r="2.957" cy="239.507003" cx="206.069" class="cls-7" id="Ellipse_151-2"/>
   <path d="m248.647979,239.507001a2.957,2.957 0 1 1 -2.957,-2.958a2.957,2.957 0 0 1 2.957,2.958z" class="cls-7" id="Path_473-2"/>
   <path d="m288.273978,239.507001a2.958,2.958 0 1 1 -2.958,-2.958a2.957,2.957 0 0 1 2.958,2.958z" class="cls-7" id="Path_474-2"/>
   <circle r="2.957" cy="278.218002" cx="166.445953" class="cls-7" id="Ellipse_152-2"/>
   <circle r="2.957" cy="278.218002" cx="206.069" class="cls-7" id="Ellipse_153-2"/>
   <path d="m248.647979,278.219002a2.957,2.957 0 1 1 -2.957,-2.957a2.957,2.957 0 0 1 2.957,2.957z" class="cls-7" id="Path_475-2"/>
   <path d="m288.273978,278.219002a2.958,2.958 0 1 1 -2.958,-2.957a2.957,2.957 0 0 1 2.958,2.957z" class="cls-7" id="Path_476-2"/>
   <circle r="2.957" cy="316.929977" cx="166.445953" class="cls-7" id="Ellipse_154-2"/>
   <circle r="2.957" cy="316.929977" cx="206.069" class="cls-7" id="Ellipse_155-2"/>
   <path d="m248.647979,316.935001a2.957,2.957 0 1 1 -2.957,-2.958a2.957,2.957 0 0 1 2.957,2.958z" class="cls-7" id="Path_477-2"/>
   <path d="m288.273978,316.935001a2.958,2.958 0 1 1 -2.958,-2.958a2.957,2.957 0 0 1 2.958,2.958z" class="cls-7" id="Path_478-2"/>
   <path d="m329.877979,122.305001a2.958,2.958 0 1 1 -2.958,-2.958a2.957,2.957 0 0 1 2.958,2.958z" class="cls-7" id="Path_479-2"/>
   <path d="m369.499975,122.305001a2.957,2.957 0 1 1 -2.958,-2.958a2.957,2.957 0 0 1 2.958,2.958z" class="cls-7" id="Path_480-2"/>
   <circle r="2.957" cy="122.304" cx="406.165008" class="cls-7" id="Ellipse_156-2"/>
   <path d="m329.877979,161.016001a2.958,2.958 0 1 1 -2.958,-2.958a2.957,2.957 0 0 1 2.958,2.958z" class="cls-7" id="Path_481-2"/>
   <path d="m369.499975,161.016001a2.957,2.957 0 1 1 -2.958,-2.958a2.957,2.957 0 0 1 2.958,2.958z" class="cls-7" id="Path_482-2"/>
   <path d="m409.121974,161.016001a2.957,2.957 0 1 1 -2.957,-2.958a2.957,2.957 0 0 1 2.957,2.958z" class="cls-7" id="Path_483-2"/>
   <path d="m329.877979,199.728001a2.958,2.958 0 1 1 -2.958,-2.958a2.958,2.958 0 0 1 2.958,2.958z" class="cls-7" id="Path_484-2"/>
   <path d="m369.499975,199.728001a2.957,2.957 0 1 1 -2.958,-2.958a2.958,2.958 0 0 1 2.958,2.958z" class="cls-7" id="Path_485-2"/>
   <circle r="2.957" cy="199.727004" cx="406.165008" class="cls-7" id="Ellipse_157-2"/>
   <path d="m329.877979,239.507001a2.958,2.958 0 1 1 -2.958,-2.958a2.957,2.957 0 0 1 2.958,2.958z" class="cls-7" id="Path_486-2"/>
   <path d="m369.499975,239.507001a2.957,2.957 0 1 1 -2.958,-2.958a2.957,2.957 0 0 1 2.958,2.958z" class="cls-7" id="Path_487-2"/>
   <circle r="2.957" cy="239.507003" cx="406.165008" class="cls-7" id="Ellipse_158-2"/>
   <path d="m329.877979,278.219002a2.958,2.958 0 1 1 -2.958,-2.957a2.957,2.957 0 0 1 2.958,2.957z" class="cls-7" id="Path_488-2"/>
   <path d="m369.499975,278.219002a2.957,2.957 0 1 1 -2.958,-2.957a2.957,2.957 0 0 1 2.958,2.957z" class="cls-7" id="Path_489-2"/>
   <circle r="2.957" cy="278.218002" cx="406.165008" class="cls-7" id="Ellipse_159-2"/>
   <path d="m329.877979,316.935001a2.958,2.958 0 1 1 -2.958,-2.958a2.957,2.957 0 0 1 2.958,2.958z" class="cls-7" id="Path_490-2"/>
   <path d="m369.499975,316.935001a2.957,2.957 0 1 1 -2.958,-2.958a2.957,2.957 0 0 1 2.958,2.958z" class="cls-7" id="Path_491-2"/>
   <circle r="2.957" cy="316.929977" cx="406.165008" class="cls-7" id="Ellipse_160-2"/>
  </g>
 </g>
</svg>