<svg xmlns="http://www.w3.org/2000/svg" width="437.188" height="974.726" viewBox="0 0 437.188 974.726"><defs><style>.a{fill:#d3766a;}.b{fill:#333;}.c{fill:#ff6e4a;}.d{fill:#24669a;}.e,.h{opacity:0.1;}.f{fill:#2383c3;}.g{fill:#fff;}.i{fill:#263238;}.j{fill:#774442;}.k{fill:#ff994d;}</style></defs><g transform="translate(-140.42 -27)"><g transform="translate(140.42 27)"><g transform="translate(0)"><g transform="translate(62.04 144.216)"><g transform="translate(0 3.866)"><path class="a" d="M293.662,198.714c-4.473,33.14-29.163,111.854-47.6,116.861-17.164,4.659-92.633-17.828-102.344-32.8-5.2-8.018-25.786-81.635-16.561-77.234,11.647,5.556,97.091,48.759,100.606,47.876,7.408-1.864,21.883-31.093,34.389-47.435C289.423,170.344,295.751,183.236,293.662,198.714Z" transform="translate(-124.813 -183.122)"/></g><path class="b" d="M124.114,234.213l38.693,35.445s13.694-50.647,15.24-74.079S160.409,174.786,124.114,234.213Z" transform="translate(-6.821 -181.834)"/></g><g transform="translate(0 5.941)"><path class="c" d="M56.21,348.234s40.906,64.752,82.8,33.278-8.927-88.785-8.927-88.785Z" transform="translate(281.627 178.429)"/><g transform="translate(16.112 42.99)"><rect class="d" width="92.397" height="538.593" transform="matrix(0.799, -0.601, 0.601, 0.799, 0, 55.505)"/><rect class="e" width="92.397" height="538.593" transform="matrix(0.799, -0.601, 0.601, 0.799, 0, 55.505)"/></g><rect class="f" width="107.891" height="21.408" transform="matrix(0.799, -0.601, 0.601, 0.799, 322.338, 518.929)"/><rect class="f" width="107.892" height="21.411" transform="matrix(0.799, -0.601, 0.601, 0.799, 308.122, 500.011)"/><path class="g" d="M261.688,178.75l-67.73-32.264L171.667,135.77l3.926,24.516,12.142,74.034,15.537,5.109s-.783-15.937-.744-16.222l15.534,5.109s-.784-15.937-.744-16.225l15.375,5.232s-.624-16.06-.585-16.345l15.375,5.232s-.624-16.063-.582-16.348l15.372,5.232S261.649,179.035,261.688,178.75Z" transform="translate(-171.666 -135.77)"/><path class="b" d="M216.717,146.485,194.426,135.77l3.928,24.515Z" transform="translate(-194.426 -135.769)"/><g class="h" transform="translate(61.437 96.262)"><path d="M345.646,504.265q-30.047-41.533-60.661-82.637l-61.3-82.16-61.852-81.742L130.707,217,99.329,176.469l30.2,41.416,30.456,41.227,61.3,82.157,61.858,81.739Q314.226,463.763,345.646,504.265Z" transform="translate(-99.329 -150.56)"/><path d="M338.816,499.95q-30.047-41.533-60.661-82.64l-61.3-82.16L155,253.407l-31.126-40.723L92.5,172.154l30.2,41.416L153.154,254.8l61.3,82.154,61.861,81.74Q307.4,459.449,338.816,499.95Z" transform="translate(-71.988 -159.198)"/><path d="M331.981,495.634q-30.047-41.533-60.661-82.64l-61.3-82.157-61.855-81.743-31.123-40.723L85.664,167.838l30.2,41.416,30.456,41.227,61.3,82.157,61.858,81.736Q300.561,455.133,331.981,495.634Z" transform="translate(-44.644 -167.838)"/></g><g transform="translate(35.428 142.985)"><path class="a" d="M165.487,190.651c-1.09,11.467-8.366,27.86-6.421,36.2a9.82,9.82,0,0,0,8.666,7.886s-6.526,6.871-3.515,14.148c1.549,3.743,8.891,4.557,8.891,4.557s-4.989,5.733-1.915,12.04c2.452,5.022,9.444,5.085,9.444,5.085s-2.224,7.733,1.915,12.049c8.393,8.753,53.489-7.631,54.417-26.773.435-8.924-10.362-4.323-10.362-4.323s13.928-10.365,10.789-19.749-16.807-2.561-16.807-2.561,13.409-10.161,9.174-19.56c-4.41-9.786-16.912-.621-16.912-.621s7.556-10.44,2.666-16.894c-8.078-10.656-21.58,11.341-32.345,12.59l-11.407-14.355Z" transform="translate(-143.864 -171.74)"/><path class="a" d="M196.669,219.8c.084-10.945-16.186-18.515-17.612-28.995-1.927-14.175,17.546-6.667,27.767,11.224l5.5,15.282Z" transform="translate(-178.924 -183.403)"/><g transform="translate(24.437 35.871)"><path class="i" d="M162.325,229.931a.126.126,0,0,0,.039.249c16.147-1.777,33.344-8.675,45.45-19.65.4-.357-.015-1.159-.528-.847C192.644,218.609,178.937,225.363,162.325,229.931Z" transform="translate(-148.888 -166.805)"/><path class="i" d="M164.277,227.473c-.18.048-.1.348.1.324,16.627-1.918,35.782-10.221,48.248-24.513.426-.489.318-1.36-.216-.832C203.4,211.326,179.253,223.435,164.277,227.473Z" transform="translate(-159.655 -181.469)"/><path class="i" d="M211.833,195.444c-12.482,13.244-27.953,21.151-45.012,26.989-.222.075-.09.384.111.369,9.122-.582,19.611-5.436,27.449-9.9A47.979,47.979,0,0,0,212.3,195.882C212.472,195.6,212.1,195.162,211.833,195.444Z" transform="translate(-166.705 -195.353)"/></g></g></g><g transform="translate(57.44 329.789)"><g transform="translate(0)"><g transform="translate(0 456.784)"><path class="j" d="M123.627,560.194c5.767,1.915,170.416,1.438,176.687-2.543,2.368-1.489,3.7-25.494,4.485-54.513q.266-9.411.4-19.323c.126-7.784.228-15.67.279-23.327.2-34.386-.279-64.665-.279-64.665H198.015l.051,64.665.024,23.327.555,19.323s-62.954,28.388-69.351,33.5C122.922,541.729,117.882,558.306,123.627,560.194Z" transform="translate(-120.603 -395.823)"/><path class="g" d="M123.644,517.07c5.767,1.915,170.416,1.438,176.687-2.543,2.368-1.489,3.7-25.494,4.485-54.513q.266-9.411.4-19.323c.126-7.784.228-15.669.279-23.327H198.083l.024,23.327.555,19.323s-62.954,28.388-69.351,33.5C122.938,498.606,117.9,515.182,123.644,517.07Z" transform="translate(-120.62 -352.7)"/><g transform="translate(0 72.403)"><path class="d" d="M123.567,501.884c3.752,1.234,73.887,1.486,124.948.426,11.815-.252,22.622-.579,31.339-.958,12.013-.552,20.076-1.207,21.385-2.038,2.9-1.864,4.284-37.081,4.938-74.238H198.46l.555,19.422s-63.305,28.541-69.753,33.68C122.862,483.317,117.8,499.945,123.567,501.884Z" transform="translate(-121.042 -409.667)"/><g transform="translate(4.445)"><g transform="translate(0 27.859)"><path class="i" d="M125.758,448.939c27.752-.76,139.755-1.216,167.246.141.225.012.225.165,0,.174-27.491,1.357-139.494.9-167.246.141C125.173,449.38,125.17,448.957,125.758,448.939Z" transform="translate(-125.318 -391.213)"/><path class="i" d="M147.708,430.044c10.915-2.071,24.279-.432,32.645,7.324.324.3-.108.757-.462.645a153.512,153.512,0,0,0-32.134-6.589A.7.7,0,0,1,147.708,430.044Z" transform="translate(-78.118 -429.224)"/><path class="i" d="M150.329,431.634c10.915-2.071,24.279-.432,32.645,7.325.327.3-.105.759-.459.648a153.492,153.492,0,0,0-32.137-6.592A.7.7,0,0,1,150.329,431.634Z" transform="translate(-88.61 -426.041)"/><path class="i" d="M152.952,433.223c10.915-2.068,24.276-.429,32.645,7.327.324.3-.108.756-.462.646A153.679,153.679,0,0,0,153,434.6.7.7,0,0,1,152.952,433.223Z" transform="translate(-99.1 -422.857)"/><path class="i" d="M155.572,434.815c10.915-2.071,24.279-.432,32.645,7.324.327.3-.105.756-.462.646a153.624,153.624,0,0,0-32.134-6.592A.7.7,0,0,1,155.572,434.815Z" transform="translate(-109.591 -419.673)"/></g><g transform="translate(47.764)"><path class="i" d="M155.134,423.425c4.275-5.926,12.274-3.29,16.843.528a58.291,58.291,0,0,1,16.891,24.969.29.29,0,0,1-.255.393,1.357,1.357,0,0,1-1.708,1.372c-9.029-3.314-19.092-5.739-26.833-11.722C155.552,435.472,151.091,429.027,155.134,423.425Zm19.11,19.437c4.4,1.738,8.861,3.251,13.2,5.151-3.308-4.863-6.391-9.84-10.185-14.367a62.717,62.717,0,0,0-5.809-6.238c-3.257-2.948-16.138-9.2-14.178,2.777C158.346,436.789,169,440.794,174.244,442.862Z" transform="translate(-153.552 -419.943)"/><path class="i" d="M171.656,441.471c-8.99,3.863-19.341,3.7-28.911,4.656a1.357,1.357,0,0,1-1.312-1.753.294.294,0,0,1-.15-.447,58.3,58.3,0,0,1,22.592-19.962c5.379-2.554,13.781-3.11,16.444,3.692C182.835,434.093,176.906,439.217,171.656,441.471Zm4.908-7.8c4.887-11.11-9.15-8.27-13.04-6.229a62.822,62.822,0,0,0-7.177,4.59c-4.806,3.434-9.032,7.486-13.451,11.368,4.674-.757,9.369-1.108,14.063-1.69C162.555,441.015,173.868,439.8,176.564,433.673Z" transform="translate(-108.588 -415.424)"/></g></g></g></g><g transform="translate(66.509)"><path class="b" d="M263.153,243.654S234.183,530.178,233.5,533.8c-.1.48-.3,6-.579,14.991-1.561,49.323-5.415,203.112-5.415,203.112H109.31s7.709-182.153,12.142-224.653c5.643-54.21,41.44-283.6,41.44-283.6Z" transform="translate(-109.31 -243.654)"/><g transform="translate(7.881 10.022)"><path d="M120.719,537.222q5.471-93.121,16.441-185.8c4.149-34.815,9.144-69.5,14.109-104.208.042-.3.519-.291.474.012-9.147,61.762-15.627,124.008-21.208,186.188q-8.357,93.152-12.013,186.632c-1.441,35.3-2.528,67.226-3.668,102.536a.653.653,0,0,1-1.306-.03C115.216,659.621,117.026,600.071,120.719,537.222Z" transform="translate(-18.502 -246.993)"/><path d="M122.661,407.032c53.862-1.7,100.477-.5,104.505-.18,3.338.258,1.48.609-.183.708-45.727,2.738-102.542.168-104.337-.057A.236.236,0,0,1,122.661,407.032Z" transform="translate(-122.422 71.601)"/></g></g><path d="M195.264,243.654s-28.97,286.524-29.652,290.15c-.1.48-.3,6-.579,14.991L109.31,243.654Z" transform="translate(25.088 -243.654)"/></g><g transform="translate(120.092)"><g transform="translate(59.317 467.518)"><path class="j" d="M65.581,576.437c5.9,1.474,170.044-11.26,176-15.708,2.266-1.663,1.8-25.69.411-54.681-.276-6.268-.333-12.767-1.024-19.3-.844-8.216-1.786-16.426-2.8-24.333-4.278-34.344-9.231-63.017-9.231-63.017l-103.869,7.748,6.454,62.1,2.633,25.473,1.978,19.218s-60.664,33-66.661,38.562C63.5,558.054,59.713,574.96,65.581,576.437Z" transform="translate(-62.142 -399.399)"/><path class="g" d="M65.581,534.413c5.9,1.474,170.044-11.26,176-15.709,2.266-1.663,1.8-25.69.411-54.681-.276-6.268-.333-12.767-1.024-19.3-.844-8.216-1.786-16.426-2.8-24.333-32.011,2.236-78.017,5.1-106.646,6.826l2.633,25.474,1.978,19.218s-60.664,33-66.661,38.561C63.5,516.03,59.713,532.936,65.581,534.413Z" transform="translate(-62.142 -357.375)"/><g transform="translate(0 80.983)"><path class="d" d="M65.436,518.6c5.917,1.483,170.989-11.314,176.975-15.781,2.768-2.062,1.513-37.282-.6-74.4l-107.4,8.012,1.99,19.332s-61.009,33.167-67.049,38.772C63.337,500.139,59.519,517.117,65.436,518.6Z" transform="translate(-62.477 -422.283)"/><g transform="translate(4.393)"><g transform="translate(0 26.034)"><path class="i" d="M66.144,464.408c27.62-2.825,139.281-11.611,166.8-12.3.222,0,.234.147.012.177-27.314,3.4-139.041,11.275-166.772,12.581C65.594,464.888,65.561,464.468,66.144,464.408Z" transform="translate(-65.723 -400.912)"/><path class="i" d="M89.23,436.651c10.731-2.876,24.18-2.236,33.1,4.878.345.273-.051.762-.411.678a153.591,153.591,0,0,0-32.54-4.184A.7.7,0,0,1,89.23,436.651Z" transform="translate(-24.084 -435.05)"/><path class="i" d="M91.726,438.432c10.731-2.876,24.18-2.236,33.1,4.875.345.276-.051.766-.414.681A153.522,153.522,0,0,0,91.876,439.8.7.7,0,0,1,91.726,438.432Z" transform="translate(-34.073 -431.484)"/><path class="i" d="M94.222,440.213c10.732-2.876,24.18-2.236,33.1,4.875.345.276-.051.765-.411.681a153.578,153.578,0,0,0-32.54-4.184A.7.7,0,0,1,94.222,440.213Z" transform="translate(-44.061 -427.919)"/><path class="i" d="M96.718,441.994c10.732-2.876,24.18-2.236,33.1,4.875.345.276-.051.766-.411.679a153.766,153.766,0,0,0-32.54-4.181A.7.7,0,0,1,96.718,441.994Z" transform="translate(-54.05 -424.354)"/></g><g transform="translate(41.836)"><path class="i" d="M96.531,430.391c3.821-6.226,12-4.194,16.837-.723a58.289,58.289,0,0,1,18.7,23.642.291.291,0,0,1-.225.411c.03.832-.645,1.765-1.6,1.492-9.249-2.633-19.467-4.3-27.632-9.693C97.846,442.374,92.917,436.277,96.531,430.391Zm20.505,17.963c4.518,1.4,9.078,2.582,13.541,4.154-3.659-4.6-7.1-9.339-11.227-13.568a62.307,62.307,0,0,0-6.253-5.787c-3.467-2.7-16.78-7.976-13.934,3.821C100.731,443.479,111.651,446.679,117.036,448.354Z" transform="translate(-95.285 -426.377)"/><path class="i" d="M113.48,446.518c-8.678,4.521-19.01,5.127-28.481,6.793-.985.171-1.558-.828-1.441-1.651a.294.294,0,0,1-.183-.435,58.293,58.293,0,0,1,21.043-21.586c5.175-2.948,13.514-4.127,16.672,2.458C124.079,438.326,118.547,443.88,113.48,446.518Zm4.314-8.144c4.049-11.443-9.738-7.565-13.466-5.241a63.059,63.059,0,0,0-6.817,5.112c-4.536,3.782-8.45,8.138-12.566,12.337,4.6-1.1,9.258-1.8,13.9-2.735C104.369,446.738,115.563,444.681,117.793,438.375Z" transform="translate(-49.237 -424.574)"/></g></g></g></g><g transform="translate(0)"><path class="b" d="M63.819,243.654s3.491,29.172,20.235,50.208c4,5.031,16.3,9.723,22.664,14.361,0,0,23.777,218.455,31.021,243.207,8.042,27.476,39.435,215.42,39.435,215.42l123.462-8.636s-37.069-184.489-45.874-230.185c-1.966-10.2-28.406-202.467-27.812-206.916,7.1-52.937-18.647-77.459-18.647-77.459Z" transform="translate(-63.819 -243.654)"/><g transform="translate(14.77 2.93)"><path d="M97.717,244.906c2.224,8.312,7.664,15.592,14.469,20.77,7.649,5.817,16.831,8.249,26.26,9,1.594.126,1.723,2.53.051,2.542-19.272.111-38.744-12.205-41.569-32.188C96.865,244.576,97.6,244.474,97.717,244.906Z" transform="translate(-17.027 -244.63)"/><path d="M124.078,260.1c7.087,2.528,13.538,6.625,19.908,10.566,6.616,4.092,12.728,8.888,19.113,13.31.246.171.039.573-.231.417-6.694-3.857-13.673-7.2-20.3-11.182-6.436-3.866-13.115-7.613-18.779-12.59C123.565,260.425,123.784,259.993,124.078,260.1Z" transform="translate(-120.904 -213.699)"/><path d="M129.694,246.814c1.03,4.416,2.311,8.774,3.473,13.154,1.093,4.109,1.948,8.318,3.236,12.37a21.278,21.278,0,0,0,6.295,10.206c1.7,1.441,3.554,2.7,5.355,4,.97.705,2.014,1.378,3.02,2.089-.153-.579-.282-1.174-.417-1.777q-.558-2.508-1.1-5.025-1.2-5.583-2.317-11.182c-1.465-7.336-2.846-14.754-4.722-22a.238.238,0,0,1,.456-.135c2.17,7.162,4.53,14.238,6.466,21.475.949,3.551,4.563,21.118,4.743,22.367.186,1.288.354,2.578.459,3.875a15.52,15.52,0,0,1,.186,3.974c-.063.327-.453.291-.6.078l-.018.015a15.53,15.53,0,0,1-1.3-3.794c-.384-1.249-.726-2.516-1.015-3.791-.1-.459-.189-.931-.276-1.4-1.789-.979-3.476-2.305-5.16-3.413-1.816-1.189-3.662-2.347-5.385-3.671a19.944,19.944,0,0,1-6.808-9.639A72.326,72.326,0,0,1,131.6,261.97c-.793-5-1.435-10.041-2.365-15.018C129.184,246.655,129.622,246.514,129.694,246.814Z" transform="translate(-129.233 -240.592)"/><path d="M67.849,416.535c53.555-6,100.117-8.534,104.154-8.543,3.353-.009,1.525.489-.123.72-45.36,6.391-102.2,8.375-104.007,8.3A.238.238,0,0,1,67.849,416.535Z" transform="translate(36.721 82.391)"/></g></g></g></g><g transform="translate(169.49)"><g transform="translate(0 142.525)"><path class="d" d="M99.125,308.738,89.057,391.684s134.757-1.2,168.141-4.347c0,0-30.931-153.885-67.808-192.074-18.446-19.1-39.528-17.143-52.664-3.173-3.323,3.536-42.683,58.2-46.48,78.813C86.941,289.091,99.125,308.738,99.125,308.738Z" transform="translate(-88.099 -181.271)"/><g transform="translate(2.879 9.321)"><path class="g" d="M132.306,201.41c-1.108-.183-2.182-.624-3.5-.183a3.357,3.357,0,0,0-2.176,3.089,2.651,2.651,0,0,1-1.207,2.266,2.737,2.737,0,0,1-1.39.45c-.555.108-1.111.174-1.666.321,1.093.189,2.206.642,3.509.132a3.387,3.387,0,0,0,2.068-3.146,2.625,2.625,0,0,1,1.282-2.2,2.935,2.935,0,0,1,1.417-.408C131.2,201.623,131.751,201.557,132.306,201.41Z" transform="translate(-66.068 -151.024)"/><path class="g" d="M142.554,238.057c-1.108-.183-2.182-.624-3.5-.183a3.353,3.353,0,0,0-2.176,3.089,2.65,2.65,0,0,1-1.21,2.266,2.718,2.718,0,0,1-1.387.45c-.555.108-1.111.174-1.669.321,1.093.189,2.209.642,3.512.132a3.384,3.384,0,0,0,2.065-3.146,2.628,2.628,0,0,1,1.285-2.2,2.97,2.97,0,0,1,1.417-.408C141.443,238.27,142,238.2,142.554,238.057Z" transform="translate(-107.07 -77.663)"/><path class="g" d="M113.1,190.692c1.081.21,2.191.66,3.512.15a3.461,3.461,0,0,0,2.071-3.152,2.542,2.542,0,0,1,1.261-2.191,3.017,3.017,0,0,1,1.441-.42,4.658,4.658,0,0,1,.63-.12c-.21-.18-.45-.36-.66-.54a3.9,3.9,0,0,0-1.831.15,3.365,3.365,0,0,0-2.161,3.092,2.7,2.7,0,0,1-1.2,2.281,3.016,3.016,0,0,1-1.411.45A15.889,15.889,0,0,0,113.1,190.692Z" transform="translate(-27.969 -184.376)"/><path class="g" d="M117.778,216.743c-1.108-.183-2.185-.624-3.506-.183a3.355,3.355,0,0,0-2.173,3.092,2.657,2.657,0,0,1-1.21,2.266,2.756,2.756,0,0,1-1.39.447c-.555.111-1.111.174-1.666.324,1.093.186,2.209.639,3.512.129a3.385,3.385,0,0,0,2.065-3.143,2.614,2.614,0,0,1,1.285-2.2,2.927,2.927,0,0,1,1.417-.411C116.667,216.956,117.223,216.893,117.778,216.743Z" transform="translate(-7.921 -120.33)"/><path class="g" d="M129.48,254.352h1.441a3.449,3.449,0,0,0,.3-1.441,2.572,2.572,0,0,1,1.291-2.191,2.8,2.8,0,0,1,1.411-.42,15.888,15.888,0,0,0,1.651-.3c-1.111-.18-2.161-.63-3.482-.18a3.361,3.361,0,0,0-2.191,3.092A2.312,2.312,0,0,1,129.48,254.352Z" transform="translate(-90.697 -53.758)"/><path class="g" d="M128.887,232.279c-1.108-.183-2.185-.624-3.5-.183a3.353,3.353,0,0,0-2.176,3.089,2.65,2.65,0,0,1-1.21,2.266,2.727,2.727,0,0,1-1.387.45c-.555.108-1.114.174-1.669.321,1.093.189,2.209.642,3.512.132a3.384,3.384,0,0,0,2.065-3.146,2.628,2.628,0,0,1,1.285-2.2,2.937,2.937,0,0,1,1.417-.408C127.776,232.492,128.332,232.426,128.887,232.279Z" transform="translate(-52.377 -89.23)"/><path class="g" d="M93.85,229.88a8.007,8.007,0,0,0,2.822.3c-.09-.27-.15-.54-.24-.841a2.828,2.828,0,0,1-.931.21C94.961,229.67,94.39,229.73,93.85,229.88Z" transform="translate(55.16 -94.366)"/><path class="g" d="M108.954,235.557c-1.108-.183-2.185-.624-3.506-.183a3.362,3.362,0,0,0-2.176,3.092,2.654,2.654,0,0,1-1.207,2.266,2.756,2.756,0,0,1-1.39.447c-.555.111-1.111.174-1.666.324,1.093.186,2.209.639,3.512.129a3.388,3.388,0,0,0,2.065-3.143,2.621,2.621,0,0,1,1.282-2.2,2.948,2.948,0,0,1,1.417-.411C107.843,235.77,108.4,235.707,108.954,235.557Z" transform="translate(27.391 -82.668)"/><path class="g" d="M138.063,217.185c-1.108-.183-2.182-.624-3.5-.183a3.353,3.353,0,0,0-2.176,3.092,2.658,2.658,0,0,1-1.21,2.266,2.745,2.745,0,0,1-1.387.447c-.555.111-1.111.174-1.669.324,1.093.186,2.209.639,3.512.129a3.392,3.392,0,0,0,2.068-3.146,2.61,2.61,0,0,1,1.282-2.2,2.937,2.937,0,0,1,1.417-.411C136.952,217.4,137.508,217.332,138.063,217.185Z" transform="translate(-89.097 -119.445)"/><path class="g" d="M111.972,195.4c.651.912,1.1,1.984,2.347,2.606a3.354,3.354,0,0,0,3.722-.645,2.657,2.657,0,0,1,2.459-.747,2.735,2.735,0,0,1,1.3.663c.468.315.907.663,1.4.952-.639-.907-1.108-2.014-2.389-2.576a3.384,3.384,0,0,0-3.686.762,2.623,2.623,0,0,1-2.461.648,2.909,2.909,0,0,1-1.291-.711C112.906,196.037,112.467,195.691,111.972,195.4Z" transform="translate(-25.772 -162.314)"/><path class="g" d="M140.687,216.468c.651.916,1.1,1.987,2.347,2.609a3.359,3.359,0,0,0,3.725-.645,2.653,2.653,0,0,1,2.456-.75,2.742,2.742,0,0,1,1.3.666c.471.315.91.66,1.408.949-.642-.9-1.111-2.014-2.392-2.576a3.386,3.386,0,0,0-3.683.765,2.622,2.622,0,0,1-2.464.645,2.924,2.924,0,0,1-1.291-.711C141.624,217.1,141.185,216.756,140.687,216.468Z" transform="translate(-140.687 -120.142)"/><path class="g" d="M123.282,187.981c-.183,1.108-.627,2.185-.183,3.506a3.354,3.354,0,0,0,3.089,2.173,2.664,2.664,0,0,1,2.266,1.21,2.728,2.728,0,0,1,.45,1.39c.108.555.174,1.111.321,1.666.189-1.093.642-2.209.132-3.512a3.389,3.389,0,0,0-3.146-2.065,2.621,2.621,0,0,1-2.2-1.285,2.892,2.892,0,0,1-.408-1.414C123.5,189.092,123.429,188.536,123.282,187.981Z" transform="translate(-64.987 -177.159)"/><path class="g" d="M118.872,220.547c-.186,1.108-.627,2.185-.183,3.506a3.355,3.355,0,0,0,3.089,2.176,2.654,2.654,0,0,1,2.266,1.207,2.758,2.758,0,0,1,.45,1.39c.108.555.171,1.111.321,1.666.186-1.093.639-2.209.132-3.512a3.389,3.389,0,0,0-3.146-2.065,2.622,2.622,0,0,1-2.2-1.285,2.927,2.927,0,0,1-.411-1.417C119.082,221.658,119.019,221.1,118.872,220.547Z" transform="translate(-47.332 -111.968)"/><path class="g" d="M141.82,244.779c-.183,1.108-.624,2.182-.183,3.5a3.352,3.352,0,0,0,3.089,2.176,2.65,2.65,0,0,1,2.266,1.21,2.717,2.717,0,0,1,.45,1.387c.111.555.174,1.111.324,1.669.186-1.093.639-2.209.129-3.512a3.387,3.387,0,0,0-3.146-2.068,2.61,2.61,0,0,1-2.2-1.282,2.937,2.937,0,0,1-.411-1.417C142.033,245.89,141.967,245.334,141.82,244.779Z" transform="translate(-139.175 -63.46)"/><path class="g" d="M100.917,221.712c-.183,1.108-.624,2.185-.183,3.506a3.361,3.361,0,0,0,3.089,2.176,2.651,2.651,0,0,1,2.266,1.207,2.729,2.729,0,0,1,.45,1.39c.108.555.174,1.111.321,1.666.189-1.093.642-2.206.132-3.512a3.389,3.389,0,0,0-3.146-2.065,2.625,2.625,0,0,1-2.2-1.282,2.945,2.945,0,0,1-.408-1.417C101.13,222.826,101.064,222.27,100.917,221.712Z" transform="translate(24.511 -109.636)"/><path class="g" d="M109.7,202.864c-.183,1.108-.624,2.182-.183,3.5a3.357,3.357,0,0,0,3.089,2.176,2.651,2.651,0,0,1,2.266,1.207,2.738,2.738,0,0,1,.45,1.39c.108.555.174,1.111.321,1.666.189-1.09.642-2.206.132-3.509a3.387,3.387,0,0,0-3.146-2.068,2.618,2.618,0,0,1-2.2-1.282,2.936,2.936,0,0,1-.408-1.417C109.918,203.975,109.852,203.419,109.7,202.864Z" transform="translate(-10.657 -147.366)"/><path class="g" d="M135.4,206.811c-.186,1.108-.627,2.185-.186,3.5a3.353,3.353,0,0,0,3.092,2.176,2.664,2.664,0,0,1,2.266,1.21,2.758,2.758,0,0,1,.45,1.39c.108.555.171,1.111.321,1.666.186-1.093.639-2.209.132-3.512a3.389,3.389,0,0,0-3.146-2.065,2.621,2.621,0,0,1-2.2-1.285,2.927,2.927,0,0,1-.411-1.417C135.614,207.922,135.551,207.366,135.4,206.811Z" transform="translate(-113.487 -139.465)"/><path class="g" d="M111.652,239.788c-.183,1.111-.624,2.185-.183,3.506a3.361,3.361,0,0,0,3.089,2.176,2.647,2.647,0,0,1,2.266,1.207,2.728,2.728,0,0,1,.45,1.39c.111.555.174,1.111.324,1.666.186-1.093.639-2.206.129-3.512a3.389,3.389,0,0,0-3.146-2.065,2.616,2.616,0,0,1-2.2-1.282,2.947,2.947,0,0,1-.411-1.417C111.865,240.9,111.8,240.346,111.652,239.788Z" transform="translate(-18.449 -73.451)"/><path class="g" d="M103.239,244.779c-.183,1.108-.627,2.182-.183,3.5a3.353,3.353,0,0,0,3.089,2.176,2.657,2.657,0,0,1,2.266,1.21,2.717,2.717,0,0,1,.45,1.387c.108.555.174,1.111.321,1.666.189-1.09.642-2.206.132-3.509a3.387,3.387,0,0,0-3.146-2.068,2.618,2.618,0,0,1-2.2-1.282,2.935,2.935,0,0,1-.408-1.417C103.449,245.89,103.386,245.334,103.239,244.779Z" transform="translate(15.221 -63.46)"/><path class="g" d="M143.632,198.27c-.654-.916-1.1-1.987-2.347-2.609a3.359,3.359,0,0,0-3.725.645,2.656,2.656,0,0,1-2.458.75,2.769,2.769,0,0,1-1.3-.666c-.468-.315-.907-.663-1.4-.949.639.9,1.108,2.014,2.389,2.576a3.39,3.39,0,0,0,3.686-.765,2.623,2.623,0,0,1,2.461-.648,3,3,0,0,1,1.294.711C142.7,197.633,143.134,197.981,143.632,198.27Z" transform="translate(-107.508 -162.398)"/><path class="g" d="M128.973,213.009c-.651-.913-1.1-1.987-2.347-2.608a3.349,3.349,0,0,0-3.722.648,2.665,2.665,0,0,1-2.458.747,2.777,2.777,0,0,1-1.3-.663c-.471-.318-.907-.663-1.408-.952.642.9,1.111,2.014,2.392,2.576a3.388,3.388,0,0,0,3.683-.762,2.616,2.616,0,0,1,2.464-.648,2.909,2.909,0,0,1,1.291.711C128.039,212.373,128.477,212.721,128.973,213.009Z" transform="translate(-48.845 -132.891)"/><path class="g" d="M118.818,233.009c-.654-.913-1.1-1.987-2.347-2.606a3.353,3.353,0,0,0-3.725.645,2.655,2.655,0,0,1-2.459.747,2.714,2.714,0,0,1-1.3-.663c-.471-.315-.91-.663-1.408-.952.639.9,1.108,2.014,2.389,2.576a3.389,3.389,0,0,0,3.686-.762,2.619,2.619,0,0,1,2.461-.648,2.918,2.918,0,0,1,1.294.711C117.881,232.373,118.32,232.721,118.818,233.009Z" transform="translate(-8.207 -92.851)"/><path class="g" d="M115.68,250.91c0,.03.03.03.03.06h.06C115.74,250.94,115.71,250.94,115.68,250.91Z" transform="translate(-29.468 -51.187)"/><path class="g" d="M142.857,230.955c-.654-.913-1.1-1.987-2.347-2.609a3.355,3.355,0,0,0-3.725.648,2.662,2.662,0,0,1-2.458.747,2.74,2.74,0,0,1-1.3-.663c-.471-.315-.91-.663-1.408-.952.639.9,1.108,2.014,2.389,2.576a3.4,3.4,0,0,0,3.686-.762,2.619,2.619,0,0,1,2.461-.648,2.917,2.917,0,0,1,1.294.711C141.92,230.318,142.359,230.666,142.857,230.955Z" transform="translate(-104.407 -96.968)"/><path class="g" d="M133.632,245.514c-.651-.912-1.1-1.987-2.347-2.606a3.359,3.359,0,0,0-3.725.645,2.651,2.651,0,0,1-2.455.747,2.722,2.722,0,0,1-1.3-.663c-.471-.315-.91-.663-1.408-.952.642.9,1.111,2.014,2.392,2.576a3.384,3.384,0,0,0,3.683-.763,2.623,2.623,0,0,1,2.464-.648,2.924,2.924,0,0,1,1.291.711C132.7,244.877,133.134,245.225,133.632,245.514Z" transform="translate(-67.49 -67.818)"/><path class="g" d="M91,240.69c.63.931,1.111,2.041,2.4,2.582a3.331,3.331,0,0,0,3.662-.75,2.205,2.205,0,0,1,.991-.57c-.09-.39-.21-.81-.3-1.231a3.55,3.55,0,0,0-1.591.84,2.571,2.571,0,0,1-2.462.75,2.662,2.662,0,0,1-1.291-.66C91.931,241.35,91.51,240.99,91,240.69Z" transform="translate(62.333 -71.645)"/><path class="g" d="M111.02,213.481c-.654-.913-1.1-1.987-2.35-2.609a3.35,3.35,0,0,0-3.722.648,2.665,2.665,0,0,1-2.458.747,2.763,2.763,0,0,1-1.3-.663c-.468-.318-.907-.663-1.4-.952.639.9,1.108,2.014,2.389,2.576a3.4,3.4,0,0,0,3.686-.762,2.608,2.608,0,0,1,2.461-.648,2.909,2.909,0,0,1,1.291.711C110.083,212.844,110.521,213.192,111.02,213.481Z" transform="translate(22.999 -131.948)"/></g><g transform="translate(0 48.99)"><path class="i" d="M143.838,320.249c1.321-7.592,2.308-13.538,3.392-21.157,1.114-7.616,2.263-15.228,3.248-22.859l.066-.5-.324-.486a57.484,57.484,0,0,1-8.081-19A42.707,42.707,0,0,1,141,246a34.96,34.96,0,0,1,1.4-10.164,121.2,121.2,0,0,1,7.973-19.539c3.176-6.343,5.781-11.659,9.339-17.837.591-.946.2-1.174-.336-.408-3.572,5.064-7.481,12.025-10.53,17.435-3.461,6.253-6.826,12.626-9.005,19.6a35.386,35.386,0,0,0-1.732,10.888,45.623,45.623,0,0,0,1.12,10.933,56.613,56.613,0,0,0,8.786,19.983l-.258-.982c-.868,7.646-1.576,15.309-2.314,22.97-.69,6.883-1.462,14.307-1.951,21.214C143.426,320.864,143.411,323.046,143.838,320.249Z" transform="translate(-138.089 -197.591)"/><path class="i" d="M145.623,199.826a35.777,35.777,0,0,0-4.734,11.038,15.949,15.949,0,0,0-.528,4.019c1.135-2.455,2.182-4.857,3.1-7.351A46.063,46.063,0,0,0,145.623,199.826Z" transform="translate(-130.518 -193.117)"/></g></g><g transform="translate(85.93 146.608)"><g transform="translate(0.535 1.516)"><path class="a" d="M75.154,208.826c10.945,16.531,62.735,81.635,64.665,87.881s-9.822,19.206-9.708,21.751c.462,10.374,26.524,72.755,35.776,66.163,12.178-8.678,55.573-63.378,49.791-92.24S98.493,191.623,80.293,184.848,64.351,192.508,75.154,208.826Z" transform="translate(-66.819 -183.136)"/></g><g transform="translate(19.887 123.541)"><path class="a" d="M110.051,325.593c-7.015-6.637,4.821-11.1,4.821-11.1s-18.59,2.323-23.177-7.315c-4.395-9.3,10.1-14.2,11.128-14.562-.985.114-18.122,1.807-21.736-8.354-3.743-10.566,11.647-12.983,12.641-13.133-.961-.186-13.661-2.828-14.652-11.173-1.69-14.34,35.3-9.882,44.607-16.954,0,0-.594-18.653-.786-19.212,0,0,2.885,7.718,8.993,10.584,7.574,3.554,14.514,6.025,17.11,10.368a10.59,10.59,0,0,1-.853,12.6s10.233.483,13.328,8.393c1.579,4.067-3.521,10.209-3.521,10.209s8.177.729,10.491,7.937c1.867,5.748-3.536,11.014-3.536,11.014s7.526,4.344,7.523,10.834C172.459,318.818,125.087,339.791,110.051,325.593Z" transform="translate(-79.019 -223.786)"/><g transform="translate(13.024 34.029)"><path class="i" d="M132.206,247.809a.136.136,0,0,1,.153.225c-13.9,10.7-32.441,18.194-50.076,18.713-.579.015-.858-.915-.225-1.057C100.135,261.68,115.855,256.682,132.206,247.809Z" transform="translate(-60.067 -209.764)"/><path class="i" d="M140.253,241.172c.177-.1.339.2.168.324-14.379,10.948-35.5,18.818-55.9,17.02-.7-.06-1.264-.819-.453-.808C97.72,257.877,125.574,249.235,140.253,241.172Z" transform="translate(-74.063 -223.05)"/><path class="i" d="M87.514,247.817c19.626.967,37.586-4.455,55.233-12.674.228-.108.357.228.189.369-7.538,6.373-19.332,10.44-28.778,12.83a51.765,51.765,0,0,1-26.677.159C87.13,248.408,87.094,247.8,87.514,247.817Z" transform="translate(-87.208 -235.122)"/></g><path class="i" d="M121.348,293.74c3.434-3.107,6.106-7.285,4.914-12.091a9.342,9.342,0,0,0-3.749-5.346c-2.278-1.6-5.748-1.732-7.405-1.924,3.158-3.755,4.938-9.017,2.443-13.592-1.156-2.119-3.047-3.218-5.322-4.077a30.037,30.037,0,0,0-7.9-.973,10.817,10.817,0,0,0,3.812-8.931c-.261-3.9-2.66-6.847-5.818-8.933-3.635-2.4-7.919-3.461-11.965-4.944a28.206,28.206,0,0,1-6.061-2.786,12.376,12.376,0,0,1-4.506-5.589c-.189-.4-.225-.015-.081.321a15.266,15.266,0,0,0,2.507,4.23,19.636,19.636,0,0,0,3.83,3.5c3.446,2.417,7.532,3.536,11.26,5.412,3.26,1.639,6.31,3.968,7.928,7.33a10,10,0,0,1-1.375,10.44c-.135.135-.075.4.219.42a28.841,28.841,0,0,1,6.865,1.951,9.83,9.83,0,0,1,4.4,3.854c2.026,4,1.075,9.057-1.468,12.737-.09.129,4.146.789,7.039,3.107a9.29,9.29,0,0,1,2.843,4.425,11.066,11.066,0,0,1-3.026,11.236.269.269,0,0,0-.066.147l0,.009a.268.268,0,0,0-.006.1.206.206,0,0,0,.069.15h0c.024.027,2.383,1.489,2.51,1.519.075.015.081-.084.036-.141A18.235,18.235,0,0,0,121.348,293.74Z" transform="translate(-34.939 -222.591)"/></g><path class="b" d="M126.127,250l45.892-25.444s-46.771-31.045-68.5-39.948S81.292,196.722,126.127,250Z" transform="translate(-89.16 -182.631)"/></g><g transform="translate(23.577)"><path class="i" d="M145.785,180.9c7.282,2.912,9.318,8.219,7.051,14.349-2.537,6.865-23.633,20.229-32.384,15.723-7.577-3.9-1.042-22,3.047-26.086C125.819,182.573,135.488,176.785,145.785,180.9Z" transform="translate(-91.972 -42.364)"/><g transform="translate(0)"><g transform="translate(28.478 105.826)"><path class="a" d="M146.781,214.508c-1.117,2.48-16.822,16.924-28.6,14.046-3.833-.946.39-22.093.39-22.093l-.045-1.633-.615-22.853,28.946-11.47,4.146-1.459s-.246,6.265-.627,14.061c-.015.36-.033.723-.054,1.108-.009.444-.015.859-.042,1.27-.042,1.168-.09,2.356-.165,3.539-.051.9-.1,1.78-.183,2.723-.066.952-.147,1.87-.213,2.822C148.886,203.917,147.241,213.448,146.781,214.508Z" transform="translate(-116.578 -169.045)"/><path class="i" d="M149.043,183.106a45.862,45.862,0,0,1-31.849,21.721l-.615-22.853,28.947-11.47,4.145-1.459S149.424,175.31,149.043,183.106Z" transform="translate(-115.24 -169.045)"/></g><g transform="translate(0 31.733)"><path class="a" d="M113.071,191.262c-5.733,39.708,17.4,47.627,25.966,48.855,7.775,1.114,34.386,3.92,44.193-34.983s-6.841-54.123-24.486-57.611S118.808,151.554,113.071,191.262Z" transform="translate(-110.001 -139.556)"/><g transform="translate(8.69 38.229)"><path class="i" d="M132.524,161.041a25.718,25.718,0,0,0,2.765-.177,4.461,4.461,0,0,0,2.786-.718,1.419,1.419,0,0,0,.249-1.723,3.535,3.535,0,0,0-3.335-1.321,5.2,5.2,0,0,0-3.491,1.351A1.522,1.522,0,0,0,132.524,161.041Z" transform="translate(-127.686 -157.097)"/><path class="i" d="M128.729,163.254a26.72,26.72,0,0,1-2.6-.955,4.5,4.5,0,0,1-2.467-1.48,1.432,1.432,0,0,1,.255-1.726,3.529,3.529,0,0,1,3.569-.315,5.182,5.182,0,0,1,2.966,2.287A1.522,1.522,0,0,1,128.729,163.254Z" transform="translate(-97.142 -154.39)"/><g transform="translate(22.836 15.311)"><g transform="translate(0)"><path class="i" d="M126.869,163.018c.039-.1.189.162.168.273-.543,2.678-.711,5.835,1.576,7.144.069.039.039.174-.048.147C125.663,169.661,125.927,165.467,126.869,163.018Z" transform="translate(-126.223 -160.601)"/><path class="i" d="M128.251,162.207c4.386.405,3.257,9.15-.808,8.774C123.442,170.616,124.573,161.868,128.251,162.207Z" transform="translate(-124.723 -162.198)"/></g><path class="i" d="M124.163,162.476c.7.594,1.336,1.564,2.245,1.774,1.051.243,1.975-.57,2.783-1.36.084-.081.15,0,.138.12-.192,1.678-1.06,3.314-2.888,3.332-1.669.018-2.654-1.618-2.855-3.359C123.55,162.662,123.88,162.236,124.163,162.476Z" transform="translate(-118.978 -161.782)"/></g><g transform="translate(0 10.555)"><g transform="translate(2.469 0.86)"><path class="i" d="M135.6,161.98c-.009-.105-.228.1-.24.213-.24,2.723-.979,5.8-3.539,6.4-.081.018-.09.156,0,.153C134.864,168.692,135.8,164.6,135.6,161.98Z" transform="translate(-129.426 -158.796)"/><path class="i" d="M135.847,160.96c-4.32-.862-5.724,7.844-1.72,8.642C138.068,170.386,139.47,161.68,135.847,160.96Z" transform="translate(-131.757 -160.9)"/></g><path class="i" d="M137.614,161.813c-.762.351-1.579,1.081-2.411,1-.961-.09-1.513-1.144-1.978-2.146-.045-.1-.126-.042-.147.072-.315,1.657-.045,3.479,1.5,4.058,1.411.525,2.711-.729,3.374-2.323C138.079,162.179,137.92,161.672,137.614,161.813Z" transform="translate(-132.962 -160.614)"/></g><path class="i" d="M132.947,170.35c-.705.582-1.429,1.408-2.422,1.408a7.237,7.237,0,0,1-2.87-.928.1.1,0,0,0-.129.129,3.673,3.673,0,0,0,3.332,1.765A2.9,2.9,0,0,0,133.2,170.5C133.253,170.341,133.052,170.266,132.947,170.35Z" transform="translate(-111.815 -130.637)"/><g transform="translate(6.563 2.148)"><path class="i" d="M132.527,184s-1.129,3.962-1.4,5.869c-.024.177.426.327,1.066.456.03.015.045.03.075.012a9.14,9.14,0,0,0,9.276-2.14c.159-.168-.057-.4-.246-.3a13.788,13.788,0,0,1-8.606,1.2c-.06-.546,2.158-6.718,1.858-6.784a16.729,16.729,0,0,0-4.464.369c2.11-8.318,5.538-16.231,7.517-24.549a.262.262,0,0,0-.48-.192c-4.178,8.039-6.82,17.561-9.222,26.095C127.592,185.1,131.716,184.221,132.527,184Z" transform="translate(-127.885 -157.813)"/></g></g><path class="b" d="M175.779,206.695c-9.423-.642-8.2-15.486-8.2-15.486s-10.605-1.8-10.056-19.1c0,0-5.944,10.008-20.586,11.008-3.1.21,7.79-6.937,7.79-6.937s-13.175,10.191-35.692,4.191c-1.594-.423,2.128-26.728,20.689-33.56s35.944,1.558,46.159,13.718c0,0,12.668,7.072,13.178,19.626S179.441,206.947,175.779,206.695Z" transform="translate(-102.526 -144.362)"/><g transform="translate(0 40.436)"><path class="k" d="M132.66,185.373a12.923,12.923,0,1,0-11.569-16.81h0a12.928,12.928,0,0,0,11.569,16.81Zm1.4-24.078a11.195,11.195,0,1,1-11.32,7.79A11.21,11.21,0,0,1,134.056,161.3Z" transform="translate(-95.154 -154.399)"/><path class="k" d="M139.377,183.5c4.935.285,9.7-4.512,10.879-11.149a15.421,15.421,0,0,0-1.117-9.372,8.05,8.05,0,0,0-13.571-2.4,15.448,15.448,0,0,0-4.26,8.423c-1.237,7.015,2.005,13.475,7.225,14.4A7.336,7.336,0,0,0,139.377,183.5Zm2.7-23.922a5.279,5.279,0,0,1,.651.075,6.9,6.9,0,0,1,4.86,4.082,13.753,13.753,0,0,1,.97,8.312c-1.075,6.079-5.421,10.416-9.72,9.651s-6.9-6.316-5.827-12.394a13.719,13.719,0,0,1,3.758-7.481A7.119,7.119,0,0,1,142.076,159.575Z" transform="translate(-131.045 -157.833)"/><path class="k" d="M136.487,166l1.327-1.111c-1.645-1.96-5.724-4.929-9.417-2.152l1.036,1.381C132.741,161.624,136.337,165.82,136.487,166Z" transform="translate(-110.384 -150.285)"/><path class="k" d="M141.842,175.839l1.648-.513c-.24-.768-2.449-7.553-6.142-8.84-3.449-1.192-26.632-3.083-27.617-3.161l-.138,1.723c6.646.534,24.522,2.14,27.187,3.071C139.216,168.967,141.26,173.981,141.842,175.839Z" transform="translate(-59.618 -146.84)"/></g><g transform="translate(63.646 58.531)"><path class="a" d="M112.611,173.045s9.456-12,14.952-8.564-2.11,21.19-8.912,23.291a6.787,6.787,0,0,1-8.87-4.158Z" transform="translate(-109.78 -163.861)"/><path class="i" d="M122.971,165.744a.092.092,0,0,1,.024.18c-4.776,1.627-7.481,5.818-9.459,10.209,1.486-1.651,3.431-2.488,5.652-.705.117.1-.009.279-.141.243a4.176,4.176,0,0,0-4.668,1.192,20.285,20.285,0,0,0-2.407,3.584c-.24.405-.982.141-.8-.333l.045-.105C111.441,174.047,116.544,165.981,122.971,165.744Z" transform="translate(-107.497 -160.09)"/></g></g><g transform="translate(64.893)"><path class="b" d="M103.156,187.064c-5.655-4.5-17.762-36.22,9.594-50.193,26.941-13.76,57.68,21.634,37.316,46.009C136.386,199.255,115.172,196.622,103.156,187.064Z" transform="translate(-95.556 -133.791)"/></g></g></g></g></g></g></g></svg>