<svg xmlns="http://www.w3.org/2000/svg" width="723.847" height="793.903" viewBox="0 0 723.847 793.903"><defs><style>.a,.h{fill:#2383c3;}.b{fill:#333;}.c,.k{fill:#24669a;}.d{fill:#455a64;}.e{fill:#fff;}.f{fill:#dbdbdb;}.g{fill:#a6a6a6;}.h,.k,.o{opacity:0.1;}.i{fill:#c7c7c7;}.j{fill:#d3766a;}.l{fill:#263238;}.m{fill:none;stroke:#f5a79e;stroke-linecap:round;stroke-linejoin:round;stroke-width:0;}.n{fill:#ff98b9;}.p{fill:#100e3a;}.q{fill:#ff6e4a;}</style></defs><g transform="translate(-65.079)"><g transform="translate(65.079)"><g transform="translate(0 420.866)"><g transform="translate(170.192 278.382)"><rect class="a" width="479.766" height="94.655" transform="translate(0 0)"/><g transform="translate(43.615 0)"><rect class="a" width="46.879" height="94.655" transform="translate(346.579)"/><rect class="a" width="19.562" height="94.655" transform="translate(309.635)"/><rect class="a" width="46.879" height="94.655"/></g></g><g transform="translate(28.198 37.769)"><rect class="b" width="333.892" height="48.971" transform="translate(0 322.689) rotate(-75.116)"/><g transform="translate(7.632 29.335)"><rect class="c" width="32.625" height="48.971" transform="translate(0 264.638) rotate(-75.116)"/><rect class="c" width="32.625" height="48.971" transform="translate(61.956 31.531) rotate(-75.116)"/></g></g><g transform="translate(121.029 207.752)"><rect class="d" width="332.796" height="70.63" transform="translate(0)"/><rect class="b" width="189.731" height="70.63" transform="translate(332.796)"/><rect class="e" width="332.796" height="55.972" transform="translate(0 7.329)"/><path class="f" d="M186.672,316.786q38.908-.595,77.814-.826l77.814-.252,77.814.247q38.908.217,77.814.83-38.9.6-77.814.83l-77.814.247-77.814-.252Q225.578,317.4,186.672,316.786Z" transform="translate(-165.133 -297.942)"/><path class="f" d="M186.672,321.494q38.908-.591,77.814-.826l77.814-.252,77.814.247q38.908.217,77.814.83-38.9.6-77.814.83l-77.814.247-77.814-.252Q225.578,322.107,186.672,321.494Z" transform="translate(-165.133 -291.67)"/><path class="f" d="M186.672,326.2q38.908-.591,77.814-.826l77.814-.252,77.814.247q38.908.221,77.814.83-38.9.6-77.814.83l-77.814.247-77.814-.252Q225.578,326.815,186.672,326.2Z" transform="translate(-165.133 -285.398)"/><path class="f" d="M186.672,330.911q38.908-.595,77.814-.828l77.814-.25,77.814.247q38.908.217,77.814.83-38.9.6-77.814.828l-77.814.25-77.814-.252Q225.578,331.52,186.672,330.911Z" transform="translate(-165.133 -279.124)"/></g><g transform="translate(153.464)"><rect class="g" width="272.376" height="50.708" transform="translate(0)"/><rect class="g" width="155.285" height="50.708" transform="translate(272.376)"/><rect class="e" width="272.376" height="40.185" transform="translate(0 5.262)"/><path class="f" d="M198.9,225.254q31.842-.427,63.685-.592l63.688-.182,63.685.177q31.845.157,63.688.6-31.845.43-63.688.595l-63.685.18-63.688-.182Q230.747,225.693,198.9,225.254Z" transform="translate(-181.273 -211.725)"/><path class="f" d="M198.9,228.634q31.842-.427,63.685-.592l63.688-.182,63.685.18q31.845.154,63.688.595-31.845.43-63.688.6l-63.685.177-63.688-.182Q230.747,229.073,198.9,228.634Z" transform="translate(-181.273 -207.222)"/><path class="f" d="M198.9,232.013q31.842-.423,63.685-.592l63.688-.18,63.685.177q31.845.157,63.688.595-31.845.43-63.688.6l-63.685.177-63.688-.18Q230.747,232.45,198.9,232.013Z" transform="translate(-181.273 -202.718)"/><path class="f" d="M198.9,235.4q31.842-.427,63.685-.592l63.688-.182,63.685.177q31.845.157,63.688.6-31.845.43-63.688.595l-63.685.177-63.688-.18Q230.747,235.834,198.9,235.4Z" transform="translate(-181.273 -198.215)"/></g><g transform="translate(0 93.95)"><g transform="translate(0 0)"><path class="a" d="M193.216,276.588,147.055,450.014l-26.327,98.879-25.4-6.768,26.326-98.879,46.161-173.427Z" transform="translate(-95.327 -269.819)"/><path class="h" d="M193.216,276.588,147.055,450.014l-26.327,98.879-25.4-6.768,26.326-98.879,46.161-173.427Z" transform="translate(-95.327 -269.819)"/></g><rect class="e" width="179.467" height="20.834" transform="translate(95.26 6.065) rotate(104.907)"/><path class="f" d="M166.2,279.792q-5.186,20.332-10.5,40.631L145,361l-10.884,40.527Q128.639,421.777,123.022,442q5.181-20.334,10.5-40.631l10.7-40.574,10.886-40.527Q160.584,300.01,166.2,279.792Z" transform="translate(-78.071 -263.605)"/><path class="f" d="M163.767,279.144q-5.183,20.334-10.5,40.631l-10.7,40.574-10.884,40.527q-5.475,20.256-11.094,40.472,5.183-20.332,10.5-40.631l10.706-40.574,10.886-40.527Q158.149,299.362,163.767,279.144Z" transform="translate(-79.587 -264.009)"/><path class="f" d="M161.334,278.5q-5.183,20.332-10.5,40.629l-10.7,40.576-10.883,40.525q-5.476,20.256-11.094,40.472,5.183-20.332,10.5-40.629l10.706-40.576,10.884-40.525Q155.717,298.712,161.334,278.5Z" transform="translate(-81.103 -264.412)"/><path class="f" d="M158.9,277.849q-5.186,20.332-10.5,40.629l-10.7,40.576-10.884,40.527q-5.475,20.254-11.092,40.47,5.181-20.331,10.5-40.629l10.7-40.574,10.886-40.527Q153.284,298.064,158.9,277.849Z" transform="translate(-82.619 -264.816)"/></g><g transform="translate(139.68 141.887)"><rect class="i" width="511.741" height="66.152"/><rect class="e" width="196.823" height="39.699" transform="translate(48.113 13.515)"/><rect class="e" width="184.756" height="6.141" transform="translate(292.426 13.515)"/><rect class="e" width="184.756" height="6.141" transform="translate(292.426 30.006)"/><rect class="e" width="184.756" height="6.141" transform="translate(292.426 46.497)"/></g><g transform="translate(175.041 50.708)"><rect class="c" width="377.342" height="90.891"/><rect class="b" width="35.17" height="90.891" transform="translate(302.171)"/><rect class="b" width="13.637" height="90.891" transform="translate(265.45)"/></g><g transform="translate(626 126.553)"><rect class="c" width="245.472" height="36.003" transform="translate(63.053 246.484) rotate(-104.884)"/><g transform="translate(5.732 21.567)"><rect class="b" width="23.986" height="36.003" transform="translate(51.71 203.806) rotate(-104.884)"/><rect class="b" width="23.986" height="36.003" transform="translate(6.161 32.429) rotate(-104.884)"/></g></g></g><g transform="translate(98.604 52.597)"><g transform="translate(0 118.632)"><g transform="translate(203.513)"><g transform="translate(128.598 112.917)"><path class="j" d="M504.836,295.336c-4.888,1.772-149.713,4.625-155.166,1.3-.634-.338-2.995-48.253-2.995-48.253.173-.679-2.248-5.3-5.938-11.712-10.327-18.021-30.515-50.294-30.515-50.294l85.953-25.99,35.309,70.729,9,18.047s19.74,7.717,36.961,15.413c.026.023.049.023.049.047,10.609,4.718,19.835,9.044,21.988,10.66C505.025,279.54,509.724,293.61,504.836,295.336Z" transform="translate(-310.223 -160.388)"/><path class="e" d="M487.405,254.935c-4.888,1.772-149.713,4.625-155.166,1.3-.634-.338-2.995-48.253-2.995-48.253.173-.679-2.248-5.3-5.938-11.712l90.748-5.555,9,18.047s19.74,7.717,36.961,15.413c.026.023.049.023.049.047,10.609,4.718,19.835,9.044,21.988,10.66C487.594,239.138,492.294,253.209,487.405,254.935Z" transform="translate(-292.792 -119.986)"/><g transform="translate(35.967 61.042)"><g transform="translate(0 25.466)"><path class="c" d="M484.892,246.462c-5.035,1.782-150.049,4.268-155.639.868-2.127-1.278-4.686-23.6-3.123-48.358l93.491-1.49S473.765,221.412,479.5,225.8C485.2,230.188,489.93,244.68,484.892,246.462Z" transform="translate(-325.64 -197.481)"/><path class="k" d="M367.2,248.149c-20.64-.093-36.172-.583-37.945-1.633-2.122-1.283-4.688-23.6-3.125-48.37l2.286-.047Z" transform="translate(-325.645 -196.656)"/></g><g transform="translate(8.37)"><g transform="translate(0 27.773)"><path class="l" d="M476.747,216.019c-24.318-.18-122.422,1.39-146.474,3.06-.2.012-.194.147,0,.152,24.1.7,122.186-1.658,146.479-2.813C477.267,216.392,477.26,216.021,476.747,216.019Z" transform="translate(-328.043 -175.11)"/><path class="l" d="M398.813,207.458a19.532,19.532,0,0,0-14.441,6.185c-2.964,3.351-5.467,8.034-5.21,13.072.007.145.275.145.294,0,1.224-9.536,9.735-18.042,19.362-18.947A.153.153,0,0,0,398.813,207.458Z" transform="translate(-262.743 -186.503)"/><path class="l" d="M384.61,198.47c-9.732.03-20.953,3.659-26.862,11.719-.229.313.217.634.5.48A134.494,134.494,0,0,1,384.8,199.664.612.612,0,0,0,384.61,198.47Z" transform="translate(-291.331 -198.47)"/><path class="l" d="M387.852,199.67c-9.732.033-20.953,3.659-26.862,11.719-.229.313.217.634.5.48a134.489,134.489,0,0,1,26.548-11.006A.612.612,0,0,0,387.852,199.67Z" transform="translate(-287.012 -196.871)"/><path class="l" d="M391.095,200.87c-9.732.033-20.952,3.659-26.862,11.722-.231.313.219.632.5.478a134.482,134.482,0,0,1,26.547-11A.613.613,0,0,0,391.095,200.87Z" transform="translate(-282.693 -195.273)"/><path class="l" d="M394.336,202.071c-9.732.03-20.953,3.659-26.862,11.719-.229.313.217.634.5.48a134.492,134.492,0,0,1,26.547-11.006A.612.612,0,0,0,394.336,202.071Z" transform="translate(-278.374 -193.673)"/><path class="l" d="M337.259,207.378c-10.915.219-10.6,17.184.341,16.964C348.515,224.123,348.193,207.159,337.259,207.378Z" transform="translate(-329.234 -186.605)"/></g><path class="l" d="M386.407,188.19c-5-4-11.132.1-14.1,4.392a51.052,51.052,0,0,0-8.415,25.032.256.256,0,0,0,.308.273,1.188,1.188,0,0,0,1.763.756c6.845-4.912,14.772-9.312,19.905-16.176C388.872,198.459,391.129,191.973,386.407,188.19Zm-11.584,20.885c-3.307,2.5-6.717,4.816-9.933,7.433A153.051,153.051,0,0,1,370.126,202a54.7,54.7,0,0,1,3.442-6.626c2.057-3.249,11.47-11.544,12.617-.977C386.819,200.224,378.764,206.1,374.823,209.075Z" transform="translate(-283.057 -186.562)"/><path class="l" d="M359.607,211.218c8.492,1.157,17.191-1.406,25.491-2.838a1.188,1.188,0,0,0,.7-1.786.258.258,0,0,0,.021-.413,51.042,51.042,0,0,0-23.742-11.561c-5.14-.9-12.363.6-13.016,6.964C348.442,207.605,354.648,210.544,359.607,211.218Zm-5.97-5.436c-6.726-8.233,5.789-9.121,9.548-8.307a54.786,54.786,0,0,1,7.134,2.192,152.875,152.875,0,0,1,14.017,6.449c-4.121.455-8.167,1.257-12.267,1.863C367.182,208.7,357.344,210.32,353.636,205.781Z" transform="translate(-302.878 -176.145)"/></g></g></g><g transform="translate(0)"><path class="b" d="M407.658,300.235l101.969-15.453s-49.016-97.689-79.355-150.7c-16.871-29.474-63.021-30.918-85.468,4.4-29.987,47.18-53.254,91.385-66.589,115.9l-23.131,1.98,4.991,37.789,76.869,17.216c29.446,3.524,50.112-48.9,50.592-48.013C391.263,270.231,407.658,300.235,407.658,300.235Z" transform="translate(-255.083 -111.972)"/><g transform="translate(9.548 54.21)"><path d="M334.418,229.609c-2.9-5.938-5.161-12.239-7.738-18.326-2.493-5.887-5-11.768-7.477-17.662-5-11.913-10.182-23.768-15.033-35.741-2.724-6.724-5.224-13.527-7.769-20.32a.137.137,0,0,0-.261.079q2.953,9.627,6.166,19.171c-.571-1.1-1.141-2.195-1.735-3.263-1.637-2.927-3.328-5.819-5.024-8.711a.1.1,0,0,0-.173.1c1.565,2.9,3.13,5.8,4.753,8.676.809,1.427,1.693,2.838,2.547,4.266a448.144,448.144,0,0,0,21.151,52.253c3.242,6.654,7.039,13.025,10.283,19.667C334.21,230.013,334.52,229.819,334.418,229.609Z" transform="translate(-210.972 -132.214)"/><path d="M353.684,251.143c-4.916-7.584-16.624-30.547-20.817-38.486-8.482-16.055-16.246-32.441-23.583-49.046-4.147-9.382-8.027-18.849-11.866-28.36-.026-.063-.128-.035-.1.033a539.145,539.145,0,0,0,20.122,50.371c7.477,16.482,31.6,60.88,35.939,65.679C353.53,251.509,353.812,251.341,353.684,251.143Z" transform="translate(-208.378 -135.216)"/><path d="M341.18,140.682c-8.785,15.689-17.764,31.272-26.589,46.94Q307.9,199.5,301.261,211.4c-2.076,3.741-4.091,7.521-6.246,11.218a21.064,21.064,0,0,1-8.058,8.359c-3.948,2.169-8.494,3.207-12.785,4.461-4.961,1.453-9.886,3.013-14.87,4.38a.183.183,0,0,0,.1.35c4.445-1.187,8.928-2.211,13.394-3.312a116.6,116.6,0,0,0,12.153-3.279,19.728,19.728,0,0,0,9.012-6.22c2.544-3.207,4.354-6.964,6.309-10.537q13.224-24.173,26.2-48.48c4.923-9.208,9.8-18.441,14.782-27.618A.045.045,0,0,0,341.18,140.682Z" transform="translate(-259.177 -127.964)"/><path d="M319.619,194.885c6.11-1.113,12.368-1.642,18.527-2.435q9.267-1.189,18.532-2.4c12.321-1.612,54.268-8.291,57.433-9.34a.21.21,0,0,0-.068-.4c-3-.1-30.47,3.564-36.632,4.471-12.321,1.812-24.56,4-36.839,6.068-3.505.592-7,1.259-10.5,1.88s-6.992,1.371-10.511,1.824C319.349,194.584,319.407,194.924,319.619,194.885Z" transform="translate(-178.91 -75.14)"/></g></g></g><g transform="translate(0 131.25)"><g transform="translate(203.513 25.923)"><path class="j" d="M466.483,302.03c-1.63-4.935-89.046-120.433-95.014-122.66-.686-.292-39.759,27.515-39.759,27.515-1.612,2.153-75.888-13.543-75.888-13.543l-.739,89.6,135.3-2.876s18.275,10.744,34.99,19.495c.03,0,.042.021.058.009,10.285,5.422,19.395,9.989,21.99,10.668C454.192,311.975,468.148,306.942,466.483,302.03Z" transform="translate(-255.083 -179.359)"/><path class="e" d="M414.266,310.237c-2.607-.669-11.705-5.238-21.986-10.67-.023.021-.044,0-.065,0-16.706-8.753-34.985-19.509-34.985-19.509l-30.113.646-47.141-76.07c10.346,1.833,18.063,2.932,18.581,2.244,0,0,39.06-27.807,39.748-27.506,5.97,2.22,93.379,117.716,95.016,122.651C434.98,306.939,421.034,311.981,414.266,310.237Z" transform="translate(-221.922 -179.357)"/><g transform="translate(76.627)"><path class="c" d="M423.512,302.189c-1.719-5.059-89.529-120.491-95.658-122.779-2.32-.877-21.437,10.929-39.916,27.48l56.7,74.353s52.311,27.711,59.3,29.5C410.918,312.5,425.229,307.247,423.512,302.189Z" transform="translate(-287.939 -179.364)"/><g transform="translate(25.041 7.575)"><path class="l" d="M393.995,299.718c-15.194-18.989-74.686-97.01-88.264-116.934-.11-.161,0-.243.121-.093,15.472,18.492,74.33,96.994,88.46,116.787C394.61,299.9,394.314,300.12,393.995,299.718Z" transform="translate(-289.339 -182.612)"/><path class="l" d="M335.949,249.5a19.532,19.532,0,0,1-4.081-15.169c.8-4.4,2.927-9.268,7.043-12.183.117-.084.282.126.177.233-6.733,6.866-8.144,18.814-2.9,26.937A.152.152,0,0,1,335.949,249.5Z" transform="translate(-254.786 -129.967)"/><path class="l" d="M319.78,241.339c-6-7.664-10.1-18.723-7.423-28.353.1-.373.632-.222.688.1a134.607,134.607,0,0,0,7.79,27.66A.612.612,0,0,1,319.78,241.339Z" transform="translate(-281.561 -142.44)"/><path class="l" d="M322.728,243.141c-6-7.664-10.1-18.721-7.423-28.353.1-.373.634-.219.69.1a134.522,134.522,0,0,0,7.789,27.662A.612.612,0,0,1,322.728,243.141Z" transform="translate(-277.633 -140.038)"/><path class="l" d="M325.679,244.946c-6-7.664-10.1-18.723-7.424-28.353.1-.375.632-.222.688.1a134.525,134.525,0,0,0,7.79,27.662A.612.612,0,0,1,325.679,244.946Z" transform="translate(-273.703 -137.635)"/><path class="l" d="M328.626,246.749c-6-7.664-10.094-18.723-7.421-28.353.1-.373.632-.222.688.1a134.471,134.471,0,0,0,7.79,27.66A.613.613,0,0,1,328.626,246.749Z" transform="translate(-269.773 -135.233)"/><path class="l" d="M300.437,198.536c-6.584-8.708,6.938-18.956,13.534-10.234S307.032,207.259,300.437,198.536Z" transform="translate(-298.676 -179.455)"/><path class="l" d="M323.236,246.637c2.213-8.282.765-17.233.383-25.647a1.187,1.187,0,0,0-1.684-.917.256.256,0,0,0-.406-.075,51.067,51.067,0,0,0-14.45,22.1c-1.537,4.984-.956,12.34,5.275,13.788C318.25,257.26,321.944,251.472,323.236,246.637Zm-6.143,5.238c-9.012,5.639-8.321-6.885-7.043-10.514a55.138,55.138,0,0,1,3.072-6.8,152.823,152.823,0,0,1,8.156-13.1c-.065,4.147.224,8.261.31,12.4C321.69,238.806,322.063,248.767,317.093,251.875Z" transform="translate(-288.437 -132.901)"/><path class="l" d="M303.056,210.945c-4.594,4.452-1.3,11.055,2.586,14.534a51.057,51.057,0,0,0,23.777,11.491.258.258,0,0,0,.31-.273,1.187,1.187,0,0,0,.97-1.654c-4.014-7.407-7.384-15.824-13.55-21.78C313.55,209.789,307.4,206.734,303.056,210.945Zm19.264,14.112c2.062,3.6,3.934,7.269,6.129,10.786a152.521,152.521,0,0,1-13.739-7.015,54.974,54.974,0,0,1-6.141-4.245c-2.964-2.451-10.014-12.829.616-12.643C315.045,212.044,319.861,220.771,322.32,225.058Z" transform="translate(-295.823 -147.592)"/></g></g></g><path class="b" d="M410.9,187.45s-148.251-26.03-190.427-17.475c-58.825,11.929-69.626,81.48-26,107.4,55.266,32.837,277.875,26.48,277.875,26.48l-53.167-90.112S337.4,196.527,263.232,199.022L411.548,221.67Z" transform="translate(-167.821 -168.249)"/><g transform="translate(58.279 25.049)"><path d="M389.429,205.246a2.025,2.025,0,0,1-.11-.462c-.033-.126-.063-.25-.093-.375-.072-.292-.152-.583-.233-.872-.17-.6-.387-1.18-.616-1.763s-.48-1.15-.749-1.717a13.344,13.344,0,0,0-.993-1.591c-.037-.056-.1-.065-.142-.1a.711.711,0,0,0-.1-.068.533.533,0,0,0-.131-.054.785.785,0,0,0-.135-.056c-9-1.672-70.106-10.418-79.195-11.453-9.161-1.045-18.35-1.9-27.539-2.67a548.174,548.174,0,0,0-55.15-1.985c-1.726.03-3.447.1-5.171.159-.361-.121-.756-.187-1.131-.278-.882-.212-1.761-.431-2.652-.6-1.661-.319-3.333-.562-5-.819-3.48-.532-6.971-.9-10.434-1.549-.21-.037-.292.28-.082.326,3.482.772,6.9,1.779,10.388,2.54,1.005.219,2.01.436,3.018.639-6.745.352-13.48.875-20.211,1.483-.212.019-.219.347,0,.336,9.161-.539,18.389-.606,27.562-.452,9.112.154,18.215.354,27.315.877,18.4,1.054,36.786,2.7,55.115,4.622,10.285,1.075,72.594,10.168,82.926,10.6a.708.708,0,0,0,.126-.021,6.089,6.089,0,0,0,.287.707c.282.562.567,1.115.872,1.665.3.527.588,1.049.923,1.556.166.25.334.5.506.749l.257.371a1.956,1.956,0,0,1,.268.389C389.2,205.612,389.555,205.459,389.429,205.246Z" transform="translate(-192.809 -178.99)"/><path d="M317.848,271.24c-3.291-5.266-6.1-10.884-9.11-16.316s-6.047-10.891-9.079-16.332c-6.05-10.854-27.76-47.358-29.906-49.914-.138-.161-.415.023-.345.212,1.022,2.824,14.574,27,17.692,32.385,6.241,10.779,12.794,21.344,19.257,31.986,1.845,3.041,3.755,6.04,5.628,9.063s3.858,5.989,5.579,9.093C317.669,271.6,317.963,271.425,317.848,271.24Z" transform="translate(-90.779 -166.165)"/><path d="M366.511,206.228c-5.427-1.3-10.985-2.15-16.468-3.188s-10.994-2.073-16.5-3.093q-16.5-3.065-33.052-5.859c-22-3.7-44.1-6.78-66.318-8.909-12.543-1.2-25.113-2-37.677-2.918-.266-.019-.259.406.012.417,22.377,1.005,44.722,4.039,66.878,7.223q32.916,4.726,65.693,10.3,9.256,1.56,18.506,3.167c6.262,1.084,12.526,2.423,18.83,3.223C366.653,206.622,366.751,206.286,366.511,206.228Z" transform="translate(-188.153 -174.631)"/></g></g></g><g transform="translate(96.388)"><g transform="translate(118.628 93.751)"><path class="j" d="M262.233,136.494c4.289,26.757,27.044,109.835,51.2,118.681,15.852,5.8,98.517,1.042,112.048-13.009,5.9-6.124-1.243-58.433-10.306-57.766s-73.394,11.528-79.638,8.739c-6.2-2.773-35.6-57.253-51.528-77.672C259.469,84,258.861,115.469,262.233,136.494Z" transform="translate(-259.022 -100.166)"/><path class="b" d="M272.844,187.622l45.508-26.533s-18.569-29.4-33.579-46.812-27.842-21.475-24.1,14.4C264.28,163.33,272.844,187.622,272.844,187.622Z" transform="translate(-260.015 -101.303)"/></g><g transform="translate(17.427 90.709)"><path class="c" d="M356.983,277.179c-2.442,2.008-139.72-12.065-140.3-13.016-1.579-2.591,27.021-87.236,45.5-118.635,23.693-40.261,34.477-42.794,40.937-44.557,8.263-2.255,21.771-.455,27.977,4.011,3.459,2.488,12.736,22.795,15.894,38.845C353.331,176.062,359.11,275.413,356.983,277.179Z" transform="translate(-216.622 -99.999)"/></g><g transform="translate(90.296)"><g transform="translate(0)"><g transform="translate(11.444 62.445)"><path class="j" d="M279.534,140.3c-7.827,1.887-21.328-10.028-26.683-19.709-.364-.665.627-7.682,1.425-16.265.466-5.21.861-11.022.837-16.353-.009-1.094,33.465,7.978,33.465,7.978s-3.239,11.188-3.141,20.479a11.767,11.767,0,0,0,.24,2.185c.012.1.04.222.049.361C286.421,123.129,287.1,138.47,279.534,140.3Z" transform="translate(-252.774 -87.88)"/><path class="l" d="M254.658,87.975c1.591,9,7.29,30.752,25.13,31.079a20.206,20.206,0,0,0,3.419-.2,1.606,1.606,0,0,0-.044-.366,13.607,13.607,0,0,1-.247-2.178c-.093-9.31,3.153-20.5,3.153-20.5S261.92,89.269,254.658,87.975Z" transform="translate(-250.264 -87.753)"/></g><g transform="translate(10.97 4.483)"><path class="j" d="M257.163,76.892c-5.875,10.91-6.469,45.716.3,54.858,9.809,13.254,29.22,18.224,41.329,5.667,11.736-12.169,11.708-57.542,3.836-66.195C291.034,58.475,265.844,60.774,257.163,76.892Z" transform="translate(-252.571 -63.027)"/></g><path class="m" d="M254.339,92.289v-.012" transform="translate(-239.245 -19.577)"/><g transform="translate(35.09 36.236)"><g transform="translate(1.749 10.715)"><path class="l" d="M267.421,82.325c-.019-.091-.187.107-.187.2.023,2.346-.345,5.035-2.484,5.768-.065.023-.061.14.016.131C267.365,88.121,267.818,84.543,267.421,82.325Z" transform="translate(-262.274 -79.817)"/><path class="l" d="M266.77,81.249c-3.764-.368-4.226,7.188-.737,7.528C269.463,89.114,269.925,81.56,266.77,81.249Z" transform="translate(-263.663 -81.236)"/></g><g transform="translate(19.712 11.775)"><path class="l" d="M271.642,82.7c.023-.089.177.121.168.217-.217,2.335-.072,5.047,2,5.952.063.03.049.147-.028.131C271.22,88.476,271.064,84.873,271.642,82.7Z" transform="translate(-271.365 -80.379)"/><path class="l" d="M273.829,81.691c3.783-.056,3.617,7.512.114,7.563C270.494,89.306,270.66,81.738,273.829,81.691Z" transform="translate(-271.313 -81.691)"/></g><path class="l" d="M264.651,81.183a29.863,29.863,0,0,0,3.093-.313,5.019,5.019,0,0,0,3.092-.921,1.6,1.6,0,0,0,.205-1.943c-.865-1.245-2.358-1.444-3.792-1.341a5.836,5.836,0,0,0-3.857,1.661A1.707,1.707,0,0,0,264.651,81.183Z" transform="translate(-262.913 -76.642)"/><path class="l" d="M277.514,82.422a28.915,28.915,0,0,1-2.955-.961,5.015,5.015,0,0,1-2.827-1.558,1.6,1.6,0,0,1,.21-1.943c1.112-1.031,2.612-.907,3.99-.5a5.827,5.827,0,0,1,3.419,2.442A1.707,1.707,0,0,1,277.514,82.422Z" transform="translate(-251.482 -75.95)"/><path class="l" d="M263.759,91.558c.527.583,1.04,1.371,1.884,1.495a6.192,6.192,0,0,0,2.551-.434.082.082,0,0,1,.1.126,3.163,3.163,0,0,1-3.048,1.089,2.493,2.493,0,0,1-1.714-2.183C263.5,91.514,263.682,91.474,263.759,91.558Z" transform="translate(-262.098 -56.829)"/><g transform="translate(4.506 3.104)"><path class="l" d="M264.887,102.741a7.982,7.982,0,0,0,5.1,3.871,10.029,10.029,0,0,0,2.859.306,3.044,3.044,0,0,0,.55-.028c.173-.012.327-.021.518-.049a.586.586,0,0,0,.5-.494v-.016a1.058,1.058,0,0,0-.007-.243v-.016l.009-.205c.159-1.8.152-4.55.152-4.55.637.371,3.9,2.085,3.907,1.14.012-7.822.023-16.521-1.619-24.3a.217.217,0,0,0-.432.033c-.308,7.517.709,15.036.52,22.592a13.9,13.9,0,0,0-3.692-1.371c-.259.058.11,5.315-.025,6.117a.351.351,0,0,1-.021.086c-3.051.2-5.278-.851-8.093-3.065C264.952,102.4,264.759,102.547,264.887,102.741Z" transform="translate(-264.845 -77.973)"/></g><g transform="translate(3.344 27.812)"><path class="l" d="M272.505,91.827a9.5,9.5,0,0,1-3.965,2.7,4.261,4.261,0,0,1-2.593,0c-1.84-.606-1.782-2.323-1.348-3.769a10.2,10.2,0,0,1,.975-2.2A12.267,12.267,0,0,0,272.505,91.827Z" transform="translate(-264.347 -88.567)"/><path class="n" d="M268.541,93.275a4.26,4.26,0,0,1-2.593,0c-1.84-.606-1.782-2.323-1.348-3.769C266.589,89.835,268.489,91.316,268.541,93.275Z" transform="translate(-264.347 -87.312)"/></g></g><path class="b" d="M257.227,110.674c7.216,2.069,14.572-29.05,14.572-29.05s6.367,5.574,12.3,7.743A66.358,66.358,0,0,0,298.46,92.7c1.087,0-10.063-8.506-10.063-8.506s11.279,4.949,21.711,4.347c5.579-.322,5.278-2.705,5.5-4.515s-6.864-20.638-29.432-22.8c-15.232-1.462-23.9,10.714-23.9,10.714s-10.369,7.011-11.456,12.165C249.362,91.016,249.579,108.482,257.227,110.674Z" transform="translate(-244.873 -61.105)"/><g transform="translate(0 40.68)"><path class="d" d="M270.943,88.386c.378-5.3,3.54-9.413,7.046-9.163s6.054,4.769,5.677,10.07-3.543,9.413-7.05,9.161S270.563,93.687,270.943,88.386Zm1.287.091c-.326,4.592,1.679,8.489,4.478,8.69s5.341-3.372,5.667-7.965-1.682-8.489-4.478-8.69S272.56,83.885,272.231,88.477Z" transform="translate(-217.175 -77.662)"/><path class="d" d="M260.571,87.544c.378-5.3,4.716-9.329,9.667-8.974s8.671,4.956,8.291,10.257-4.713,9.329-9.665,8.974S260.191,92.847,260.571,87.544Zm1.29.093c-.329,4.59,2.852,8.573,7.1,8.874s7.955-3.183,8.284-7.776-2.855-8.573-7.095-8.876S262.187,83.045,261.861,87.637Z" transform="translate(-230.978 -78.548)"/><path class="d" d="M268.292,83.606c4.935-1.348,7,.382,7.015.4l.868-.959c-.1-.093-2.533-2.244-8.223-.69Z" transform="translate(-221.11 -74.22)"/><path class="d" d="M278.167,85.941l.327-1.25c-.823-.215-20.19-5.238-22.319-5.509-2.241-.32-7.692,2.274-8.307,2.568l.555,1.166c1.546-.737,5.84-2.582,7.5-2.463l.1.009C257.651,80.67,271.219,84.138,278.167,85.941Z" transform="translate(-247.867 -77.738)"/></g><g transform="translate(3.251 36.524)"><path class="j" d="M263.264,87.39s-5.663-12.267-11.1-10.439-2.54,18.658,2.878,21.862a6,6,0,0,0,8.48-1.754Z" transform="translate(-249.261 -76.765)"/><path class="l" d="M250.969,78.906a.083.083,0,0,0-.058.152c3.776,2.379,5.24,6.54,6.038,10.723-.94-1.724-2.442-2.845-4.718-1.768-.119.056-.047.24.072.238a3.689,3.689,0,0,1,3.769,1.985,17.868,17.868,0,0,1,1.334,3.578c.124.4.816.322.753-.124l-.016-.1C259.179,88.419,256.448,80.431,250.969,78.906Z" transform="translate(-247.114 -73.918)"/></g></g></g><g transform="translate(0 95.471)"><g transform="translate(113.97 113.515)"><path class="j" d="M331.212,160.475c-.03,8.6-24.4,6.435-30.482,7.183-6.08.784-6.971,2.323-3.927,4.107a9.983,9.983,0,0,0,2,.7c-9.471-1.954-40.783-12.876-40.783-12.876s18.8-6.218,28.756-8.223C296.693,149.366,331.237,151.836,331.212,160.475Z" transform="translate(-258.018 -150.714)"/></g><g transform="translate(146.007 51.941)"><path class="e" d="M369.046,150.6s8.338-7.589,15.945-11.5,24.563-10.894,27.459-13.021l5.268-1.185L400.638,240.216l-45.231,20.071-81.87-8.494L285.031,142.94l5.343-1.29s10.465,1.488,18.979,1.863S346.527,140.316,369.046,150.6Z" transform="translate(-269.379 -123.538)"/><path class="c" d="M351.242,254.265l14.084-110.7-81.46-11.144L271.755,245.011Z" transform="translate(-271.755 -113.506)"/><path class="o" d="M351.242,254.265l14.084-110.7-81.46-11.144L271.755,245.011Z" transform="translate(-271.755 -112.01)"/><path class="c" d="M305.837,248.637l11.4-1.277,14.2-110.711-11.521,1.29Z" transform="translate(-226.35 -107.877)"/><path class="c" d="M310.727,263.794l14.2-110.711,45.386-28.771-17.8,117.494Z" transform="translate(-219.836 -124.312)"/><path class="o" d="M310.727,263.794l14.2-110.711,45.386-28.771-17.8,117.494Z" transform="translate(-219.836 -122.817)"/></g><g transform="translate(0 2.308)"><path class="j" d="M274.895,125.055c-17.2,19.222-72.462,99.536-65.068,124.178,4.849,16.169,94.977,38.675,114.334,41.091,8.436,1.052,19.521-56.976,13.555-63.835s-60.222-7.055-61.729-13.723c-1.5-6.63,26.643-67.167,31.261-89.843C315.284,83.46,285.835,112.825,274.895,125.055Z" transform="translate(-209.15 -103.03)"/></g><path class="j" d="M353.725,189.568c-.38,7.617-12.2,10.138-13,10.3.711-.079,11.218-1.119,10.28,6.423-.975,7.818-11.316,11.857-11.316,11.857s3.491,1.8.34,7.02c-4.545,7.465-23.275,9.735-33.339,8.6-10.061-1.1-46.073-12.694-51.563-14.581l6.738-64.665s31.312,10.922,40.783,12.876c.033,0,.1.021.138.019a163.766,163.766,0,0,0,19.845,3.4c10.607.765,25.195-6.969,26.981.714,1.593,6.88-9.054,11.26-9.054,11.26S354.147,181.709,353.725,189.568Z" transform="translate(-147.896 -32.128)"/><g transform="translate(150.601 150.561)"><path class="l" d="M313.482,166.654c-15.243,5.07-22.79,4.65-38.143.861-.3-.075-.476.355-.17.462,14.7,5.08,24.085,6.971,38.6-.6C314.476,167.01,314.208,166.413,313.482,166.654Z" transform="translate(-272.012 -166.598)"/><path class="l" d="M315.544,173.826c-16.293,3.883-24.481,3.5-40.853.714-.231-.04-.322.347-.091.406,15.831,4.079,25.241,5.751,41.012-.266C316.323,174.407,316.288,173.649,315.544,173.826Z" transform="translate(-272.737 -157.005)"/><path class="l" d="M314.707,183c-16.043,2.619-25.041,2.586-40.587-2.157a.3.3,0,0,0-.208.557c15.383,6.383,26.608,6.507,40.823,2.1C315.705,183.2,315.717,182.838,314.707,183Z" transform="translate(-273.724 -147.639)"/></g><g transform="translate(259.771 64.316)"><path class="j" d="M356.431,138.046c5.112,7.276,16.258,15.493,18.138,21.829a7.582,7.582,0,0,1-2.8,8.6s7,2.115,7.764,8.146c.389,3.1-4.224,6.453-4.224,6.453s5.539,1.943,5.884,7.346c.273,4.308-4.391,7.02-4.391,7.02s4.445,4.338,3.319,8.816c-2.286,9.079-38.8,15.318-46.737,2.831-3.7-5.819,5.3-6.859,5.3-6.859s-13.305-1.63-14.784-9.126,10.3-8.139,10.3-8.139-12.878-1.693-13.627-9.618c-.781-8.249,11.108-6.878,11.108-6.878s-9.058-4.116-8.242-10.315c1.346-10.234,18.807-.637,26.506-3.913l2.167-13.989Z" transform="translate(-320.534 -118.39)"/><path class="j" d="M347.679,159.526c-4.24-7.314,3.783-18.609.735-26.181-4.123-10.248-14.317,2.23-14.341,18.138l2.155,12.354Z" transform="translate(-302.498 -129.618)"/><g transform="translate(9.975 49.403)"><path class="p" d="M366.215,163.747a.1.1,0,0,1,.068.182c-11.509,4.979-25.682,6.922-38,4.186-.4-.091-.434-.786.03-.772C341.549,167.735,353.322,167.031,366.215,163.747Z" transform="translate(-320.595 -133.559)"/><path class="p" d="M368.188,157.377c.14-.035.2.2.058.257-11.887,5.066-27.909,6.815-41.732,1.989-.473-.166-.735-.788-.173-.639C335.775,161.5,356.6,160.393,368.188,157.377Z" transform="translate(-323.197 -142.045)"/><path class="p" d="M325.084,150.813c13.436,4.114,26.837,3.508,40.51.9.18-.035.208.222.068.292-6.344,3.095-15.234,3.843-22.2,3.843a37.041,37.041,0,0,1-18.522-4.571C324.715,151.158,324.8,150.724,325.084,150.813Z" transform="translate(-324.811 -150.801)"/></g></g><path class="b" d="M223.633,160.885,272.3,181.049s12.162-32.574,16.936-55.063.245-35.16-26.051-10.469C237.787,139.364,223.633,160.885,223.633,160.885Z" transform="translate(-189.856 -102.041)"/></g></g></g><g transform="translate(360.535)"><path class="q" d="M327.547,70.945c-1.674,10.493-10.712,19.227-10.712,19.227s-12.4-2.052-19.73-9.737c-6.115-6.409-6.29-15.344-.926-18.977,7.689-5.215,14.478,8.89,14.478,8.89s-2.43-15.465,6.868-15.544C324,54.746,328.937,62.2,327.547,70.945Z" transform="translate(-263.884 -16.902)"/><path class="q" d="M301.736,92.251c-5.7,5.191-14.77,6.052-14.77,6.052s-6.1-6.773-6.78-14.446c-.567-6.4,3.377-11.544,8.063-11.178,6.719.525,4.184,11.591,4.184,11.591s5.618-9.865,10.926-5.7C307.058,81.467,306.482,87.923,301.736,92.251Z" transform="translate(-280.132 6.887)"/><path class="q" d="M295.4,46.495c-1.77,4.284-6.486,7.076-6.486,7.076s-5.054-2.122-7.388-6.122c-1.947-3.337-1.119-7.144,1.523-8.144,3.79-1.437,5.245,5.233,5.245,5.233s.529-6.808,4.483-5.9C295.535,39.265,296.873,42.924,295.4,46.495Z" transform="translate(-279.698 -38.552)"/></g></g></g></svg>