<svg xmlns="http://www.w3.org/2000/svg" width="656.32" height="719.511" viewBox="0 0 656.32 719.511"><defs><style>.a{fill:#333;}.b{fill:#1c262a;}.c{fill:#24669a;}.d{fill:#ff6e4a;}.e{fill:#b24d46;}.f{fill:#e6e6e6;}.g{fill:#29383e;}.h{fill:#d3766a;}.i{fill:#fff;}.j{fill:none;stroke:#ed5244;stroke-linecap:round;stroke-linejoin:round;stroke-width:0;}.k{fill:#ec80a9;}</style></defs><g transform="translate(-1139.118 -604.177)"><g transform="translate(1151.805 610.194)"><path class="a" d="M95.55,107.808A56.948,56.948,0,1,0,152.5,164.756,56.938,56.938,0,0,0,95.55,107.808Zm0,83.539a26.595,26.595,0,1,1,26.6-26.592A26.592,26.592,0,0,1,95.55,191.347Z" transform="translate(-25.055 -94.668)"/><path class="a" d="M67.967,121.178h-21.9l1.211-15.5H66.756Z" transform="translate(13.476 -105.675)"/><path class="a" d="M64.294,117.854,48.808,133.34,38.7,121.522l13.773-13.773Z" transform="translate(-24.534 -94.973)"/><path class="a" d="M51.905,115.02v21.9l-15.5-1.211V116.231Z" transform="translate(-36.403 -57.447)"/><path class="a" d="M48.582,121.785l15.486,15.486L52.25,147.376,38.477,133.6Z" transform="translate(-25.702 -22.529)"/><path class="a" d="M45.748,125.722h21.9l-1.211,15.5H46.959Z" transform="translate(11.825 -2.208)"/><path class="a" d="M52.513,137.5,68,122.011,78.1,133.829,64.331,147.6Z" transform="translate(46.743 -21.362)"/><path class="a" d="M56.45,137.24v-21.9l15.5,1.211v19.478Z" transform="translate(67.063 -55.796)"/><path class="a" d="M68.225,133.566,52.739,118.081l11.818-10.106L78.33,121.748Z" transform="translate(47.91 -93.806)"/></g><g transform="translate(1218.319 671.467)"><path class="b" d="M52.573,115.757v14.67a1.385,1.385,0,0,1-1.391,1.367,1.349,1.349,0,0,1-1.37-1.367V118.192l-.994.573a1.237,1.237,0,0,1-.7.2A1.393,1.393,0,0,1,47.4,116.4l3.06-1.815c.024-.024.075-.024.1-.048.051,0,.075-.051.125-.075.051,0,.1-.027.149-.027a.152.152,0,0,1,.1-.024.453.453,0,0,1,.176-.024h.271a.161.161,0,0,0,.1.024.254.254,0,0,1,.149.051.152.152,0,0,1,.1.024c.075.051.1.075.149.075a.307.307,0,0,0,.1.075c.027.024.075.051.1.075.051.024.078.075.1.1a.376.376,0,0,1,.075.1l.1.1.027.051c0,.024.024.047.024.075a.262.262,0,0,1,.047.122c.027.051.027.1.051.125a1.211,1.211,0,0,0,.024.126.206.206,0,0,0,.051.173Z" transform="translate(-46.738 -114.39)"/></g><g transform="translate(1242.645 724.268)"><g transform="translate(0 0)"><path class="c" d="M138.344,166.3A55.687,55.687,0,1,0,194,221.991,55.753,55.753,0,0,0,138.344,166.3Zm0,99.523a43.836,43.836,0,1,1,43.806-43.831A43.823,43.823,0,0,1,138.344,265.822Zm0-99.523A55.687,55.687,0,1,0,194,221.991,55.753,55.753,0,0,0,138.344,166.3Zm0,99.523a43.836,43.836,0,1,1,43.806-43.831A43.823,43.823,0,0,1,138.344,265.822Zm0-137.71a93.869,93.869,0,1,0,93.844,93.879A93.879,93.879,0,0,0,138.344,128.112Zm0,154.9a61.029,61.029,0,1,1,61-61.024A61.1,61.1,0,0,1,138.344,283.015Zm0-116.716A55.687,55.687,0,1,0,194,221.991,55.753,55.753,0,0,0,138.344,166.3Zm0,99.523a43.836,43.836,0,1,1,43.806-43.831A43.823,43.823,0,0,1,138.344,265.822Z" transform="translate(-24.704 -108.367)"/><path class="c" d="M82.52,145.642H61.029l2.14-21.452H80.381Z" transform="translate(42.123 -124.19)"/><path class="c" d="M77.877,143.839,59.264,154.585l-8.873-19.648L65.3,126.331Z" transform="translate(-0.794 -115.551)"/><path class="c" d="M70.99,142.819,60.244,161.431,42.736,148.852l8.606-14.906Z" transform="translate(-31.678 -84.829)"/><path class="c" d="M61.992,144.569V166.06L40.54,163.92V146.708Z" transform="translate(-40.54 -41.972)"/><path class="c" d="M60.189,154.015l10.746,18.612L51.287,181.5l-8.606-14.906Z" transform="translate(-31.901 -3.858)"/><path class="c" d="M59.169,161.518l18.612,10.746L65.2,189.772,50.3,181.166Z" transform="translate(-1.179 26.41)"/><path class="c" d="M60.918,165.065H82.41l-2.14,21.452H63.058Z" transform="translate(41.678 40.722)"/><path class="c" d="M70.365,172.319l18.612-10.746,8.873,19.648-14.906,8.606Z" transform="translate(79.792 26.633)"/><path class="c" d="M77.868,172.723l10.746-18.612,17.508,12.579L97.515,181.6Z" transform="translate(110.06 -3.473)"/><path class="c" d="M81.415,166.171V144.679l21.452,2.14v17.212Z" transform="translate(124.373 -41.527)"/><path class="c" d="M88.669,161.527,77.923,142.914l19.648-8.873,8.606,14.906Z" transform="translate(110.283 -84.444)"/><path class="c" d="M89.073,154.64,70.461,143.895,83.04,126.387l14.906,8.606Z" transform="translate(80.177 -115.329)"/></g><g transform="translate(100.371 91.86)"><path class="b" d="M87.4,180.8a3.031,3.031,0,0,1-3.073,3.073H64.422a3,3,0,0,1-2.288-1.007A3.092,3.092,0,0,1,62.3,178.5l16.549-14.978a7.035,7.035,0,0,0,2.349-5.369,7.246,7.246,0,0,0-1.846-4.866,7.114,7.114,0,0,0-5.369-2.349,7.36,7.36,0,0,0-4.866,1.846l-1.731,1.563a3.041,3.041,0,0,1-4.362-.221,3.1,3.1,0,0,1,.221-4.362l1.739-1.563a13.189,13.189,0,0,1,9-3.462,13.451,13.451,0,0,1,9.953,4.416,13.19,13.19,0,0,1,3.462,9,13.479,13.479,0,0,1-4.416,9.952l-10.563,9.556h11.9A3.083,3.083,0,0,1,87.4,180.8Z" transform="translate(-61.314 -144.742)"/></g><g transform="translate(169.301 88.219)"><path class="b" d="M96.337,156.457l-6.615,5.014L77.468,145.291l-4.481-5.916a10.375,10.375,0,0,0,2.568-1.455,10.715,10.715,0,0,0,3.4-4.4l4.763,6.273Z" transform="translate(-50.938 -111.303)"/><path class="b" d="M100.987,136.17a18.054,18.054,0,1,0,.4,21.427A18.058,18.058,0,0,0,100.987,136.17Zm-7.763,19.554a10.374,10.374,0,0,1-2.568,1.455,10.794,10.794,0,1,1,2.568-1.455Z" transform="translate(-68.608 -129.107)"/></g></g><g transform="translate(1607.478 633.403)"><g transform="translate(52.938 29.963)"><path class="c" d="M191.95,168.817A25.98,25.98,0,1,0,168.495,197.1,25.96,25.96,0,0,0,191.95,168.817Zm-23.739,25.125A22.821,22.821,0,1,1,188.8,169.119,22.812,22.812,0,0,1,168.211,193.943Zm23.739-25.125A25.98,25.98,0,1,0,168.495,197.1,25.96,25.96,0,0,0,191.95,168.817Zm-23.739,25.125A22.821,22.821,0,1,1,188.8,169.119,22.812,22.812,0,0,1,168.211,193.943Zm23.739-25.125A25.98,25.98,0,1,0,168.495,197.1,25.96,25.96,0,0,0,191.95,168.817Zm-23.739,25.125A22.821,22.821,0,1,1,188.8,169.119,22.812,22.812,0,0,1,168.211,193.943Zm52.407-27.781a54.77,54.77,0,1,0-49.45,59.6A54.781,54.781,0,0,0,220.618,166.162ZM168.877,201.12a30.029,30.029,0,1,1,27.1-32.667A30.062,30.062,0,0,1,168.877,201.12ZM163.7,145.349a25.988,25.988,0,1,0,28.255,23.468A25.98,25.98,0,0,0,163.7,145.349Zm4.516,48.593A22.821,22.821,0,1,1,188.8,169.119,22.812,22.812,0,0,1,168.211,193.943Zm23.739-25.125A25.98,25.98,0,1,0,168.495,197.1,25.96,25.96,0,0,0,191.95,168.817Zm-23.739,25.125A22.821,22.821,0,1,1,188.8,169.119,22.812,22.812,0,0,1,168.211,193.943Zm23.739-25.125A25.98,25.98,0,1,0,168.495,197.1,25.96,25.96,0,0,0,191.95,168.817Zm-23.739,25.125A22.821,22.821,0,1,1,188.8,169.119,22.812,22.812,0,0,1,168.211,193.943Z" transform="translate(-97.58 -103.241)"/><path class="c" d="M138.864,129.042l-20.97,1.949-.22-14.952,18.651-1.733Z" transform="translate(-64.73 -114.306)"/><path class="c" d="M135,125.671l-13.45,16.206L110.818,131.46l11.963-14.414Z" transform="translate(-100.119 -100.161)"/><path class="c" d="M123.817,124.188l1.949,20.97-14.952.22-1.733-18.651Z" transform="translate(-109.081 -63.3)"/><path class="c" d="M120.447,130.56l16.206,13.45-10.417,10.728-14.414-11.963Z" transform="translate(-94.936 -30.415)"/><path class="c" d="M118.963,135.461l20.97-1.949.22,14.952L121.5,150.2Z" transform="translate(-58.076 -15.176)"/><path class="c" d="M125.335,145.656l13.45-16.206,10.728,10.417L137.55,154.28Z" transform="translate(-25.191 -36.144)"/><path class="c" d="M130.236,144.089l-1.948-20.97,14.952-.22,1.733,18.651Z" transform="translate(-9.951 -69.955)"/><path class="c" d="M140.431,140.22l-16.206-13.45,10.417-10.728L149.056,128Z" transform="translate(-30.92 -105.343)"/></g><g transform="translate(113.564 88.09)"><path class="b" d="M131.3,135.079a1.34,1.34,0,0,1-1.362,1.339H129.7v1.851a1.341,1.341,0,0,1-2.682,0v-1.851h-7.672a1.19,1.19,0,0,1-.827-.292,1.3,1.3,0,0,1-.219-1.874l9.012-11.208c.027,0,.027-.023.05-.047a.454.454,0,0,0,.073-.1.251.251,0,0,0,.123-.073c.023-.023.07-.047.1-.073a.264.264,0,0,1,.146-.046c.023-.05.047-.073.1-.073.023-.027.073-.027.146-.05a.149.149,0,0,0,.1-.023h.415a.232.232,0,0,0,.123.023c.023.023.1.023.146.05.023,0,.073.023.1.023a1.2,1.2,0,0,0,.123.1c.047.027.073.05.12.073a.026.026,0,0,1,.027.027c.023,0,.073.023.073.047l.1.1c.023.023.05.073.073.1a.613.613,0,0,1,.1.123.193.193,0,0,0,.05.1c.023.05.023.073.05.146,0,.023.023.073.023.1a.277.277,0,0,1,.023.146c0,.05.027.073.027.123v9.915h.243A1.355,1.355,0,0,1,131.3,135.079Zm-4.287-7.357-4.848,6.018h4.848Z" transform="translate(-117.999 -122.558)"/></g></g><g transform="translate(1478.578 674.446)"><g transform="translate(0 0)"><path class="a" d="M158.256,118.834a72.921,72.921,0,1,0,72.911,72.93A72.929,72.929,0,0,0,158.256,118.834Zm0,106.977A34.056,34.056,0,1,1,192.3,191.764,34.045,34.045,0,0,1,158.256,225.811Z" transform="translate(-67.988 -102.013)"/><path class="a" d="M122.927,135.953H94.886l1.55-19.849h24.94Z" transform="translate(-18.646 -116.104)"/><path class="a" d="M118.224,131.7,98.4,151.526,85.456,136.394l17.635-17.635Z" transform="translate(-67.315 -102.401)"/><path class="a" d="M102.361,128.069V156.11l-19.849-1.55v-24.94Z" transform="translate(-82.512 -54.352)"/><path class="a" d="M98.106,136.731l19.828,19.828L102.8,169.5,85.167,151.863Z" transform="translate(-68.809 -9.642)"/><path class="a" d="M94.477,141.772h28.041l-1.55,19.849H96.027Z" transform="translate(-20.76 16.376)"/><path class="a" d="M103.139,156.849l19.828-19.828,12.939,15.132-17.636,17.635Z" transform="translate(23.95 -8.148)"/><path class="a" d="M108.18,156.519V128.478l19.849,1.55v24.94Z" transform="translate(49.968 -52.238)"/><path class="a" d="M123.257,151.816l-19.828-19.828,15.132-12.939L136.2,136.684Z" transform="translate(25.444 -100.907)"/></g><g transform="translate(81.494 78.375)"><path class="a" d="M109.843,139.228a9.533,9.533,0,0,1,2.844,6.821,9.673,9.673,0,0,1-16.524,6.858,2.2,2.2,0,1,1,3.116-3.115,5.2,5.2,0,0,0,3.7,1.515,5.353,5.353,0,0,0,3.743-1.515,5.227,5.227,0,0,0,1.558-3.743,5.075,5.075,0,0,0-1.558-3.706,5.225,5.225,0,0,0-3.7-1.558,1.918,1.918,0,0,1-1.6-.7c-.037,0-.037,0-.037-.037a2.213,2.213,0,0,1-.08-3.121l3.977-4.051H98.965a2.2,2.2,0,0,1,0-4.4h11.5a2.186,2.186,0,0,1,2.222,2.18,2.339,2.339,0,0,1-.271,1.053,2.922,2.922,0,0,1-.393.548l-4.907,5.067A8.9,8.9,0,0,1,109.843,139.228Z" transform="translate(-95.517 -128.473)"/></g></g><g transform="translate(1139.118 604.177)"><g transform="translate(0 13.847)"><path class="b" d="M40.026,109.589l-.789-1.1c1.417-1.023,2.261-1.522,2.3-1.546l.69,1.171C42.213,108.123,41.387,108.61,40.026,109.589Z" transform="translate(-9.09 -106.946)"/><path class="b" d="M466.009,339.836c-2.051-.018-4.1-.08-6.091-.185L460,338.3c1.969.1,3.992.166,6.022.179Zm6.091-.1-.076-1.355c2.023-.086,4.026-.234,5.961-.444l.179,1.349C476.2,339.491,474.158,339.646,472.1,339.732Zm-18.253-.542c-2.03-.2-4.061-.462-6.029-.764l.255-1.337c1.941.3,3.944.555,5.94.752Zm30.332-.764-.3-1.331c1.975-.351,3.923-.776,5.788-1.269l.427,1.3C488.192,337.625,486.2,338.068,484.179,338.426Zm-42.336-1.09c-1.982-.425-3.965-.906-5.878-1.436l.454-1.3c1.879.524,3.82,1,5.781,1.417Zm54.023-1.99-.571-1.257c1.851-.665,3.668-1.417,5.4-2.23l.7,1.2C499.624,333.891,497.759,334.661,495.866,335.345ZM430.212,334.1c-1.886-.659-3.765-1.386-5.6-2.169l.654-1.226c1.79.77,3.641,1.485,5.492,2.126Zm76.44-3.838-.847-1.127a57.088,57.088,0,0,0,4.777-3.2l.97,1.041A58.535,58.535,0,0,1,506.652,330.262Zm-87.445-.856c-1.748-.893-3.5-1.861-5.19-2.871l.846-1.127c1.659.992,3.373,1.941,5.093,2.822Zm-10.138-6.056c-1.583-1.091-3.173-2.255-4.715-3.469l1-1.017c1.521,1.189,3.083,2.335,4.639,3.413Zm106.985-.074-1.081-.949c1.363-1.238,2.712-2.575,4-3.974l1.163.863C518.82,320.644,517.451,322.012,516.053,323.275Zm-116.16-7.1c-1.411-1.238-2.843-2.557-4.247-3.918l1.115-.924c1.383,1.349,2.794,2.649,4.191,3.875Zm123.931-1.331-1.246-.77c1.115-1.436,2.209-2.951,3.256-4.516l1.3.7C526.075,311.846,524.96,313.393,523.824,314.847Zm-132.217-6.685c-1.253-1.331-2.547-2.754-3.847-4.227l1.191-.838c1.287,1.46,2.567,2.871,3.813,4.183Zm138.495-2.68-1.342-.628c.888-1.534,1.776-3.161,2.629-4.843l1.383.561C531.9,302.272,531,303.923,530.1,305.482ZM384.07,299.6c-1.2-1.454-2.388-2.927-3.558-4.411l1.239-.782c1.163,1.479,2.347,2.945,3.538,4.387Zm151.111-4.042-1.4-.511c.73-1.614,1.459-3.309,2.168-5.046l1.425.462C536.653,292.223,535.917,293.929,535.18,295.562ZM377.05,290.726c-1.143-1.491-2.271-2.994-3.4-4.5l1.26-.758c1.129,1.509,2.251,3.007,3.386,4.5Zm162.323-5.4-1.438-.425q.95-2.551,1.844-5.163l1.445.4Q540.325,282.759,539.372,285.322Zm-169.082-3.629-3.359-4.535,1.266-.752,3.359,4.541Zm172.66-6.783-1.452-.37c.55-1.725,1.087-3.469,1.624-5.225l1.459.351Q543.787,272.31,542.951,274.91Zm-179.392-2.274c-1.129-1.5-2.264-2.994-3.421-4.485l1.246-.77q1.734,2.246,3.435,4.5Zm182.579-8.225-1.466-.345c.509-1.743,1-3.493,1.5-5.262l1.473.333C547.143,260.906,546.647,262.662,546.138,264.411Zm-189.489-.69c-1.177-1.466-2.368-2.92-3.586-4.362l1.211-.819c1.225,1.454,2.423,2.914,3.607,4.387Zm-7.289-8.638c-1.287-1.436-2.581-2.834-3.854-4.165l1.149-.887c1.287,1.343,2.595,2.754,3.889,4.2Zm199.751-1.22-1.473-.327,1.459-5.274,1.466.327Zm-207.625-6.981c-1.383-1.337-2.8-2.643-4.2-3.882l1.067-.967c1.411,1.251,2.843,2.575,4.247,3.925Zm210.536-3.555L550.55,243q.733-2.634,1.487-5.268l1.466.333C553,239.822,552.511,241.578,552.023,243.328ZM114.108,240.05c-2.03-.031-4.081-.129-6.112-.3l.138-1.349c1.989.16,4.006.259,6,.29Zm6.112-.1-.083-1.355c2-.1,4.006-.265,5.981-.493l.193,1.343C124.3,239.68,122.257,239.853,120.22,239.951ZM332.9,239.3c-1.507-1.2-3.049-2.378-4.584-3.481l.95-1.06c1.556,1.121,3.118,2.31,4.646,3.53Zm-230.971-.234c-2.01-.3-4.026-.653-5.995-1.072l.351-1.318c1.934.407,3.916.764,5.885,1.047Zm30.415-.53-.31-1.331c1.962-.363,3.916-.795,5.83-1.288l.42,1.3C136.339,237.727,134.343,238.171,132.347,238.541Zm-42.308-2c-1.948-.548-3.889-1.158-5.768-1.824l.558-1.263c1.845.653,3.751,1.257,5.664,1.793Zm54.064-.9-.447-1.294c1.941-.542,3.868-1.078,5.781-1.62l.454,1.288C147.978,234.567,146.044,235.109,144.1,235.645Zm410.921-2.84-1.466-.345q.774-2.634,1.583-5.268l1.459.363C556.063,229.3,555.54,231.055,555.024,232.8Zm-231.487-.24c-1.624-1.047-3.3-2.058-4.983-3.007l.812-1.146c1.707.961,3.407,1.99,5.052,3.05Zm-244.867-.031c-1.838-.795-3.662-1.651-5.41-2.551l.75-1.177c1.721.887,3.51,1.725,5.314,2.5Zm77-.166-.468-1.294c1.934-.554,3.854-1.115,5.768-1.67l.468,1.288Q158.571,231.523,155.673,232.367Zm11.529-3.358-.468-1.294,5.768-1.676.468,1.288Zm-99.132-1.928c-1.693-1.023-3.352-2.113-4.935-3.241l.95-1.066c1.549,1.109,3.18,2.181,4.832,3.185Zm245.322-.265c-1.748-.863-3.545-1.694-5.341-2.464l.654-1.22c1.824.783,3.648,1.62,5.417,2.5ZM178.737,225.67l-.461-1.294q2.911-.832,5.788-1.627l.447,1.294C182.6,224.573,180.671,225.122,178.737,225.67Zm11.57-3.21-.434-1.3q2.922-.776,5.83-1.516l.413,1.306Q193.215,221.681,190.307,222.46Zm367.945-.123-1.459-.376c.571-1.75,1.149-3.487,1.755-5.212l1.445.4Q559.094,219.727,558.251,222.337Zm-255.694-.16c-1.666-.61-3.379-1.189-5.093-1.725l-.53-.166.5-1.282.4.123c1.879.591,3.613,1.177,5.3,1.793ZM58.5,220.26c-1.494-1.245-2.946-2.551-4.315-3.894l1.122-.912c1.342,1.312,2.76,2.594,4.226,3.814Zm143.45-.746-.385-1.312c1.969-.468,3.93-.912,5.892-1.343l.358,1.318C205.862,218.6,203.907,219.053,201.953,219.515Zm89.242-.893c-1.934-.53-3.889-1.017-5.809-1.466l.385-1.312c1.934.45,3.909.949,5.864,1.479Zm-77.486-1.657-.323-1.325q2.984-.582,5.96-1.09l.282,1.331C217.652,216.219,215.684,216.576,213.708,216.964Zm65.813-1.054c-1.955-.376-3.951-.721-5.919-1.023l.255-1.337c1.989.3,4.006.653,5.981,1.035Zm-53.94-.955-.241-1.337c2.037-.29,4.061-.542,6.029-.764l.186,1.349C229.607,214.419,227.6,214.672,225.581,214.956Zm42.053-.856c-1.989-.228-4.006-.413-5.995-.555l.124-1.355c2.01.148,4.047.333,6.064.561Zm-30.078-.462-.131-1.349c2.03-.154,4.075-.277,6.071-.364l.076,1.355C241.59,213.366,239.567,213.483,237.557,213.637Zm18.067-.413c-1.755-.062-3.5-.086-5.238-.086h-.792l-.007-1.355h.8c1.762,0,3.524.025,5.293.086ZM50.243,212.177c-1.253-1.442-2.443-2.945-3.551-4.467l1.266-.739c1.087,1.491,2.258,2.963,3.483,4.374Zm511.6-.185-1.439-.431c.64-1.725,1.3-3.444,1.989-5.145l1.425.456Q562.8,209.414,561.844,211.992ZM43.567,203c-.964-1.6-1.858-3.259-2.67-4.929l1.39-.542c.792,1.633,1.673,3.259,2.615,4.83Zm522.38-1.183-1.411-.5c.743-1.694,1.521-3.376,2.32-5.04l1.39.536C567.454,198.462,566.69,200.126,565.946,201.814Zm-527.259-8.86c-.647-1.713-1.225-3.481-1.728-5.255l1.473-.326c.489,1.737,1.053,3.469,1.693,5.151Zm532.043-1.066-1.37-.579c.895-1.682,1.81-3.327,2.726-4.88l1.342.635C572.519,188.6,571.611,190.225,570.73,191.888Zm5.616-9.538-1.308-.684c1.039-1.59,2.127-3.155,3.221-4.652l1.273.746C578.446,179.239,577.372,180.779,576.346,182.351Zm-540.633-.012c-.179-.967-.344-1.947-.482-2.933-.117-.838-.22-1.67-.31-2.489l1.507-.136c.089.807.193,1.627.31,2.452.131.973.289,1.935.468,2.883Zm547.254-9-1.218-.807c1.211-1.473,2.478-2.908,3.758-4.276l1.163.869C585.4,170.478,584.158,171.9,582.967,173.343Zm-548.5-1.873c-.083-1.522-.124-3.056-.124-4.566l.007-.9,1.514.012-.007.887c0,1.491.041,3,.124,4.5Zm556.187-6.352-1.094-.936c1.4-1.325,2.87-2.612,4.343-3.826l1.025,1C593.477,162.548,592.039,163.812,590.655,165.118ZM36.106,160.639l-1.514-.092c.145-1.824.351-3.654.619-5.44l1.5.179C36.45,157.047,36.244,158.846,36.106,160.639Zm563.366-2.779-.95-1.06c1.576-1.127,3.221-2.224,4.887-3.259l.86,1.115C602.638,155.673,601.021,156.751,599.472,157.86Zm9.842-6.1-.771-1.171c1.735-.918,3.538-1.805,5.355-2.625l.681,1.208C612.79,149.98,611.021,150.855,609.315,151.76ZM37.71,149.98l-1.487-.271c.406-1.787.888-3.58,1.425-5.323l1.459.363C38.577,146.462,38.109,148.224,37.71,149.98Zm3.2-10.363-1.432-.45c.675-1.713,1.432-3.426,2.244-5.1l1.39.548C42.314,136.253,41.571,137.935,40.91,139.617Zm4.8-9.846-1.335-.628c.943-1.614,1.968-3.21,3.042-4.75l1.287.721C47.655,126.623,46.65,128.194,45.714,129.771Zm6.36-9.112-1.225-.8c1.2-1.473,2.471-2.92,3.786-4.307l1.156.881C54.5,117.794,53.251,119.211,52.074,120.659Zm7.771-8.2-1.081-.949c1.445-1.318,2.946-2.581,4.46-3.758l1,1.023C62.735,109.932,61.262,111.17,59.845,112.458Z" transform="translate(-34.344 -102.791)"/><path class="b" d="M119.967,115.965l-.518-1.257c.832-.345,1.682-.684,2.538-1.01l.487,1.269C121.625,115.288,120.793,115.62,119.967,115.965Z" transform="translate(465.733 -72.098)"/></g><path class="d" d="M11.057,0A11.057,11.057,0,1,1,0,11.057,11.057,11.057,0,0,1,11.057,0Z" transform="translate(18.355 8.421) rotate(-22.383)"/><ellipse class="d" cx="11.057" cy="11.057" rx="11.057" ry="11.057" transform="translate(240.805 116.201)"/><ellipse class="d" cx="11.057" cy="11.057" rx="11.057" ry="11.057" transform="translate(576.908 45.024)"/><ellipse class="d" cx="11.057" cy="11.057" rx="11.057" ry="11.057" transform="translate(420.835 241.351)"/></g><g transform="translate(1533.71 799.38)"><g transform="translate(30.437 151.075)"><g transform="translate(0 275.354)"><path class="e" d="M101.992,281.486c3.351,1.084,98.94-.159,102.541-2.517,1.388-.872,2.024-14.808,2.3-31.678l.008-.523c.061-3.48.106-7.059.114-10.683,0-.5,0-1,.023-1.494l-4.64-49.595-63.948.645,6.316,49.125.068,1.941.387,10.168.038,1.046s-36.372,16.84-40.072,19.858C101.461,270.78,98.633,280.417,101.992,281.486Z" transform="translate(-100.486 -184.995)"/><path class="f" d="M101.992,238.432c3.351,1.084,98.94-.159,102.541-2.517,1.388-.872,2.024-14.808,2.3-31.678l.008-.523c.061-3.48.106-7.059.114-10.683,0-.5,0-1,.023-1.494l-62.272.175.068,1.941.387,10.168.038,1.046s-36.372,16.84-40.072,19.858C101.461,227.726,98.633,237.363,101.992,238.432Z" transform="translate(-100.486 -141.941)"/><g transform="translate(0 61.614)"><path class="c" d="M101.982,227.866c1.729.561,27.7.5,53.083-.015,5.1-.1,10.175-.22,15.02-.349,18.1-.493,33.058-1.243,34.446-2.146,1.38-.865,2.009-14.421,2.282-30.973,0-.235.015-.47.015-.705,0-.174,0-.364.015-.538h-.076l-61.605.114.03,1.054s-36.379,16.832-40.064,19.842C101.459,217.168,98.639,226.8,101.982,227.866Z" transform="translate(-100.491 -192.997)"/><g transform="translate(2.281)"><path class="b" d="M101.048,198.187c16.1-.6,81.137-1.516,97.1-.895.129.008.129.1,0,.106-15.953.948-80.985,1.335-97.1,1.054C100.707,198.445,100.707,198.2,101.048,198.187Z" transform="translate(-100.792 -167.033)"/><path class="b" d="M105.761,193.651c6.324-1.266,14.1-.394,19,4.064.19.174-.061.44-.265.379a88.577,88.577,0,0,0-18.7-3.64A.407.407,0,0,1,105.761,193.651Z" transform="translate(-70.233 -193.121)"/><path class="b" d="M105.159,194.023c6.331-1.266,14.1-.394,19,4.064.19.167-.061.44-.265.371a89.564,89.564,0,0,0-18.7-3.639A.4.4,0,0,1,105.159,194.023Z" transform="translate(-74.173 -190.673)"/><path class="b" d="M104.56,194.393c6.331-1.266,14.1-.387,19,4.064.189.174-.061.44-.265.379a89.54,89.54,0,0,0-18.7-3.64A.408.408,0,0,1,104.56,194.393Z" transform="translate(-78.115 -188.23)"/></g><path class="b" d="M107.689,227.851c5.1-.1,10.175-.22,15.02-.349,18.1-.493,33.058-1.243,34.446-2.146,1.38-.865,2.009-14.421,2.282-30.973,0-.235.015-.47.015-.705,0-.174,0-.364.015-.538h-.076C150.96,199.062,121.216,218.859,107.689,227.851Z" transform="translate(-53.115 -192.997)"/></g></g><g transform="translate(31.797)"><path class="g" d="M113.367,486.123h68.846S168.345,325.336,168.891,322.53c.682-3.6,4.746-19.873,10.16-41.133,1.7-6.657,3.526-13.792,5.421-21.192,5.133-20,10.8-41.861,15.725-60.885,7.4-28.5,13.17-50.641,13.17-50.641H155.023s-6.794,21.556-15.369,49.6c-13.959,45.576-32.618,108.311-34.461,123.559C102.206,346.467,113.367,486.123,113.367,486.123Z" transform="translate(-104.685 -148.679)"/><g transform="translate(11.582 14.613)"><g transform="translate(0 310.587)"><path class="b" d="M106.36,192.068c10.516-.22,7.491-.3,18.008-.4,5.148-.053,38.965-.349,43.772.447a.116.116,0,0,1,0,.22c-4.807.8-38.624.5-43.772.447-10.516-.1-7.491-.182-18.008-.4A.156.156,0,0,1,106.36,192.068Z" transform="translate(-106.212 -191.569)"/></g><path class="b" d="M112.9,300.018c2.259-9.955,5.634-19.706,8.568-29.472q8.951-29.775,18.008-59.512Q144,196.158,148.558,181.3q2.309-7.5,4.64-15c1.532-4.883,3.275-9.728,4.655-14.656.569-2.009.872-.9.152,1.645-1.448,5.133-2.881,10.274-4.383,15.392q-4.447,15.217-8.955,30.42-8.951,30.253-18.053,60.46-4.549,15.149-9.114,30.291a123.842,123.842,0,0,0-3.723,14.656,67.4,67.4,0,0,0-.607,15.68c.66,10.532,1.88,21.048,2.851,31.557l2.927,31.595q2.9,31.424,5.762,62.871c.243,2.654.47,5.315.675,7.969.068.895-1.274.827-1.365-.03-2.267-20.722-4.011-41.512-5.952-62.265q-2.912-30.981-5.808-61.954c-.485-5.186-1.031-10.38-1.039-15.6A64.5,64.5,0,0,1,112.9,300.018Z" transform="translate(-73.233 -150.606)"/></g></g><path class="b" d="M112.2,148.679c4.049,31.337,11.775,90.091,17.4,132.718,13.163-51.65,34.317-132.718,34.317-132.718Z" transform="translate(-23.436 -148.679)"/><g transform="translate(72.946)"><g transform="translate(0 276.658)"><path class="e" d="M111.6,281.279c3.351,1.092,98.94.2,102.556-2.146,1.388-.872,2.07-14.808,2.411-31.671l.008-.523c.076-3.48.137-7.059.152-10.683.008-.5.008-1,.023-1.494.227-24.339-1.532-49.595-1.532-49.595l-62.485.409,1.751,49.133.061,1.941.349,10.175.038,1.046s-36.44,16.7-40.148,19.706C111.112,270.565,108.246,280.194,111.6,281.279Z" transform="translate(-110.112 -185.167)"/><path class="f" d="M111.6,238.271c3.351,1.092,98.94.2,102.556-2.146,1.388-.872,2.07-14.808,2.411-31.671l.008-.523c.076-3.48.137-7.059.152-10.683.008-.5.008-1,.023-1.494l-62.265-.053.061,1.941.349,10.175.038,1.046s-36.44,16.7-40.148,19.706C111.112,227.557,108.246,237.186,111.6,238.271Z" transform="translate(-110.112 -142.159)"/><g transform="translate(0 61.383)"><path class="c" d="M111.6,227.752c3.351,1.092,98.94.2,102.556-2.146,1.388-.872,2.07-14.808,2.411-31.671l.008-.523-61.681-.114.038,1.046s-36.44,16.7-40.148,19.706C111.112,217.039,108.246,226.668,111.6,227.752Z" transform="translate(-110.112 -193.024)"/><g transform="translate(2.279)"><path class="b" d="M110.666,198.069c16.112-.546,81.144-1.221,97.1-.538.129.008.137.091,0,.1-15.953.895-80.985,1.046-97.1.705C110.332,198.327,110.325,198.084,110.666,198.069Z" transform="translate(-110.413 -167.064)"/><path class="b" d="M115.4,193.773c6.331-1.244,14.1-.341,18.986,4.132.19.174-.061.44-.265.379a89,89,0,0,0-18.69-3.708A.408.408,0,0,1,115.4,193.773Z" transform="translate(-79.757 -193.263)"/><path class="b" d="M114.8,194.143c6.331-1.244,14.1-.341,18.978,4.125.19.174-.061.44-.265.379a89.335,89.335,0,0,0-18.683-3.708A.4.4,0,0,1,114.8,194.143Z" transform="translate(-83.709 -190.827)"/><path class="b" d="M114.2,194.512c6.323-1.243,14.1-.341,18.978,4.132.19.174-.061.44-.265.379a88.56,88.56,0,0,0-18.682-3.708A.407.407,0,0,1,114.2,194.512Z" transform="translate(-87.658 -188.399)"/></g></g></g><g transform="translate(11.077)"><path class="g" d="M111.573,148.679s1.35,27.917,7.734,50.027c.516,1.827,1.069,3.624,1.668,5.353a103.657,103.657,0,0,1,16.817,8.636s.675,22.466,1.342,47.51c.751,28,1.524,59.24,1.365,65.859-.584,24.786,3.1,161.068,3.1,161.068l68.823.281S199.981,335.223,200.072,326.14c.129-14.6-3.336-79.09-6.013-126.137-1.638-28.979-2.98-51.324-2.98-51.324Z" transform="translate(-111.573 -148.679)"/><path class="b" d="M116.236,192.015c10.509-.175,7.491-.273,18.008-.334,5.148-.023,38.965-.174,43.764.637a.116.116,0,0,1,0,.22c-4.807.773-38.624.333-43.764.265-10.516-.152-7.5-.22-18.008-.485A.152.152,0,0,1,116.236,192.015Z" transform="translate(-81.851 134.2)"/><path class="b" d="M121.711,150.208c1.266,38.4,2.608,76.8,4.329,115.188,1.721,38.51,4.041,77.012,7.264,115.431,1.8,21.465,3.5,51.665,5.816,73.077.015.144-.2.2-.228.053-5.012-38.093-7.8-85.193-10.266-123.529s-4.132-76.724-5.444-115.1c-.735-21.708-1.3-43.431-1.949-65.146C121.218,149.875,121.7,149.9,121.711,150.208Z" transform="translate(-47.99 -140.23)"/></g><g transform="translate(16.979 53.676)"><path class="b" d="M112.993,155.794a127.842,127.842,0,0,1,19.676,10.3c.243.152.061.538-.2.409-6.642-3.23-13.42-6.331-19.873-9.917A.446.446,0,0,1,112.993,155.794Z" transform="translate(-112.351 -155.758)"/></g><path class="b" d="M112.6,152.724c.455,2.442,1.046,4.868,1.577,7.294.493,2.282.857,4.61,1.463,6.869a11.678,11.678,0,0,0,3.2,5.755c.895.827,1.88,1.562,2.828,2.328.516.409,1.077.8,1.607,1.221-.068-.326-.121-.652-.182-.986-.167-.925-.318-1.858-.478-2.783q-.512-3.094-.993-6.187c-.614-4.064-1.19-8.166-2.04-12.185a.133.133,0,0,1,.258-.061c1.008,3.981,2.131,7.923,3.01,11.934.432,1.971,1.971,11.7,2.04,12.389.068.705.129,1.418.152,2.131a8.424,8.424,0,0,1,.008,2.184.18.18,0,0,1-.334.03l-.008.008a8.308,8.308,0,0,1-.622-2.115c-.174-.69-.334-1.4-.463-2.1-.045-.258-.076-.516-.114-.773-.955-.584-1.85-1.357-2.745-2-.963-.7-1.949-1.38-2.858-2.146a11,11,0,0,1-3.5-5.459,39.663,39.663,0,0,1-1.145-6.991c-.311-2.76-.538-5.543-.917-8.295C112.331,152.625,112.573,152.557,112.6,152.724Z" transform="translate(-95.37 -122.691)"/></g></g><g transform="translate(0 15.459)"><path class="h" d="M222.206,154.9c-9.508,15.832-50.073,50.012-64.357,50.831-10.334.584-46.213-27.773-55.843-37.744-9.3-9.622,24.422-35.773,30.268-30.5,8.257,7.438,26.3,28.873,30.3,29.548,2.8.485,20.047-7.6,46.82-22.868C224.2,135.727,227.885,145.455,222.206,154.9Z" transform="translate(-70.685 -91.309)"/><path class="h" d="M132.209,142.356c-5.747-3.245-12.086-7.423-18.925-8.492s-14.065,6.938-14.52,9.516-.7,19.092,6.119,20.282,4.86-11.866,5.368-13.239,1.077-3.132,2.343-2.768,21.89,14.967,21.89,14.967Z" transform="translate(-82.699 -111.214)"/><g transform="translate(9.982 20.37)"><path class="h" d="M136.724,145.108c-.379-.061-17.378-10.463-24.21-11.532s-14.072,6.938-14.527,9.516-.69,19.092,6.119,20.29,4.868-11.874,5.368-13.239,1.084-3.131,2.343-2.775,21.89,14.975,21.89,14.975Z" transform="translate(-97.794 -133.479)"/><path class="h" d="M98.981,151.266c1.031-.925,1.456-2.525,1.843-3.821a14.357,14.357,0,0,0,.516-4.4,23.868,23.868,0,0,1-.174-3.89,7.638,7.638,0,0,1,1.585-3.435c.69-.864,1.638-.364,2.441.091a34.619,34.619,0,0,1,3.412,2.32c1.19.872,2.358,1.774,3.533,2.669a37.264,37.264,0,0,1,3.579,2.866c.076.083-.008.235-.121.174a37.3,37.3,0,0,1-3.185-2.161c-1.183-.834-2.381-1.66-3.579-2.472-1.13-.751-2.214-1.569-3.351-2.3-.4-.265-1.19-.88-1.7-.857-.546.03-1.024,1.259-1.213,1.653a6.518,6.518,0,0,0-.409,3.723,19.316,19.316,0,0,1,.053,3.859,10.058,10.058,0,0,1-.91,3.5,13.743,13.743,0,0,1-2.138,2.646C99.064,151.554,98.867,151.372,98.981,151.266Z" transform="translate(-90.205 -121.826)"/></g><path class="h" d="M163.874,184.468s-15.869-20.517-19.2-24.627c-6.687-8.242-37.524-27.629-42.066-28.926s-7.878,7.893,12.943,21.7c10.964,7.279,11.889,14.452,11,18.182s-5.717,10.13-12.033,8.848-8.8-11.259-14.452-13.314-3.67,9.311-.637,16.2,9.607,13.291,14.732,16.309,20.813,13.307,20.813,13.307Z" transform="translate(-96.477 -130.793)"/><path class="b" d="M98.12,155.053c2.062,2.267,4.352,5.141,7.476,5.808,3.222.69,5.709-1.046,7.681-3.435a12.2,12.2,0,0,0,3.2-8.477,14.971,14.971,0,0,0-3.1-7.878,36.1,36.1,0,0,0-7.59-7.218c-.121-.1.03-.273.167-.19,2.692,1.82,11.115,7.127,11.525,15.46.167,3.412-1.327,6.157-3.336,8.628-1.843,2.282-4.322,4.36-7.438,4.064-3.8-.349-6.49-3.965-8.78-6.71C97.816,154.985,98.013,154.932,98.12,155.053Z" transform="translate(-87.164 -112.038)"/><g transform="translate(36.136 46.768)"><path class="c" d="M127.371,136.961,101.243,184.1s39.086,23.042,51.7,21.791,49.421-31.117,63.812-50.649c8.765-11.881,2.6-21.95-14.482-13.041-17.545,9.152-42.157,21.753-43.916,22.057S127.371,136.961,127.371,136.961Z" transform="translate(-101.243 -136.961)"/><g transform="translate(5.937 6.741)"><path class="i" d="M110.688,141.515a12.92,12.92,0,0,1-2.783,6.073,11.75,11.75,0,0,1,.993-3.215A12.028,12.028,0,0,1,110.688,141.515Z" transform="translate(-63.329 -113.726)"/><path class="i" d="M106.061,140.124a12.92,12.92,0,0,1-2.783,6.073,11.5,11.5,0,0,1,1-3.215A12,12,0,0,1,106.061,140.124Z" transform="translate(-93.785 -122.882)"/><path class="i" d="M115.508,139.125a13.011,13.011,0,0,1-2.783,6.073,11.881,11.881,0,0,1,.993-3.222A12.138,12.138,0,0,1,115.508,139.125Z" transform="translate(-31.603 -129.458)"/><path class="i" d="M113.177,147.3a12.111,12.111,0,0,1-3.215-1,11.611,11.611,0,0,1-2.851-1.789,13.05,13.05,0,0,1,6.066,2.79Z" transform="translate(-68.556 -94.033)"/><path class="i" d="M108.1,145.522a12.172,12.172,0,0,1-3.222-1,11.9,11.9,0,0,1-2.851-1.789,11.512,11.512,0,0,1,3.215,1A11.8,11.8,0,0,1,108.1,145.522Z" transform="translate(-102.026 -105.716)"/><path class="i" d="M110.4,140.633a11.745,11.745,0,0,1-3.215-.993,11.609,11.609,0,0,1-2.851-1.789,11.749,11.749,0,0,1,3.215.993A11.989,11.989,0,0,1,110.4,140.633Z" transform="translate(-86.848 -137.85)"/><path class="i" d="M110.838,140.925a13.1,13.1,0,0,1,2.328,6.263,11.592,11.592,0,0,1-1.569-2.98A11.848,11.848,0,0,1,110.838,140.925Z" transform="translate(-44.024 -117.61)"/><path class="i" d="M105.458,141.919a12,12,0,0,1,1.569,2.987,11.518,11.518,0,0,1,.751,3.283,13.052,13.052,0,0,1-2.32-6.27Z" transform="translate(-79.436 -111.067)"/><path class="i" d="M114.992,139.38a13.1,13.1,0,0,1,2.328,6.263,11.583,11.583,0,0,1-1.569-2.98A11.782,11.782,0,0,1,114.992,139.38Z" transform="translate(-16.682 -127.779)"/><path class="i" d="M113.243,144.321a12.1,12.1,0,0,1,2.98-1.577,11.838,11.838,0,0,1,3.283-.751,11.824,11.824,0,0,1-2.98,1.57A12.2,12.2,0,0,1,113.243,144.321Z" transform="translate(-28.194 -110.58)"/><path class="i" d="M106.056,142.093a11.827,11.827,0,0,1,2.98-1.57,11.635,11.635,0,0,1,3.283-.751,12.99,12.99,0,0,1-6.263,2.32Z" transform="translate(-75.5 -125.193)"/><path class="i" d="M109.555,145.579a13.1,13.1,0,0,1,6.263-2.328,11.608,11.608,0,0,1-2.98,1.577A12.177,12.177,0,0,1,109.555,145.579Z" transform="translate(-52.469 -102.3)"/><path class="i" d="M104.137,146.465a13.1,13.1,0,0,1,6.263-2.328,11.582,11.582,0,0,1-2.98,1.569A11.84,11.84,0,0,1,104.137,146.465Z" transform="translate(-88.131 -96.468)"/></g><path class="b" d="M113.656,159.836c1.706-3.579,8.446-17.947,9.849-21.64.023-.061-.068-.114-.106-.061-2.024,3.268-9.091,17.249-10.812,20.836-3.427,7.142-7.021,14.254-9.652,21.738-.046.129.152.258.227.129C107.128,174.083,110.282,166.9,113.656,159.836Z" transform="translate(-90.151 -129.371)"/><path class="b" d="M163.646,153.645c-11.669,15.832-38.04,38.449-54.334,47.116l49.982-63.508h.015C168.309,136.5,170.364,144.531,163.646,153.645Z" transform="translate(-48.131 -135.364)"/></g></g><g transform="translate(99.157 60.347)"><path class="c" d="M211.536,268.916c-.25.243-101.108-6.657-101.95-7.757-1.175-1.547,30.738-104.035,38.737-119.093,3.412-6.415,19.721-7.34,26.166-1.274,16.142,15.179,27.372,64.259,29.737,78.976C208.147,244.016,212.439,268.029,211.536,268.916Z" transform="translate(-109.555 -136.713)"/><g transform="translate(14.142 17.485)"><path class="i" d="M119.085,141.115a11.764,11.764,0,0,1-1,3.215,11.566,11.566,0,0,1-1.789,2.858,12.165,12.165,0,0,1,1-3.222A11.891,11.891,0,0,1,119.085,141.115Z" transform="translate(-79.332 -125.223)"/><path class="i" d="M117.562,146.613a12.166,12.166,0,0,1-1,3.222,11.751,11.751,0,0,1-1.789,2.851,11.508,11.508,0,0,1,1-3.215A11.791,11.791,0,0,1,117.562,146.613Z" transform="translate(-89.357 -89.034)"/><path class="i" d="M116.053,152.6a12.081,12.081,0,0,1-1,3.222,11.609,11.609,0,0,1-1.789,2.851,11.5,11.5,0,0,1,1-3.215A11.8,11.8,0,0,1,116.053,152.6Z" transform="translate(-99.289 -49.653)"/><path class="i" d="M122.2,145.3a12.168,12.168,0,0,1-1,3.222,11.9,11.9,0,0,1-1.789,2.851,11.506,11.506,0,0,1,1-3.215A11.8,11.8,0,0,1,122.2,145.3Z" transform="translate(-58.809 -97.683)"/><path class="i" d="M124.134,149.2a13.12,13.12,0,0,1-2.783,6.073,13.011,13.011,0,0,1,2.783-6.073Z" transform="translate(-46.053 -71.993)"/><path class="i" d="M118.895,151.374a13.008,13.008,0,0,1-2.783,6.073,11.8,11.8,0,0,1,.993-3.222A12.142,12.142,0,0,1,118.895,151.374Z" transform="translate(-80.536 -57.696)"/><path class="i" d="M114.951,144.291a12.94,12.94,0,0,1-2.783,6.066,12.938,12.938,0,0,1,2.783-6.066Z" transform="translate(-106.497 -104.318)"/><path class="i" d="M123.518,146a11.748,11.748,0,0,1-3.215-.993,11.61,11.61,0,0,1-2.851-1.789,11.749,11.749,0,0,1,3.215.993A11.981,11.981,0,0,1,123.518,146Z" transform="translate(-71.716 -111.361)"/><path class="i" d="M124.732,150.873a12.029,12.029,0,0,1-3.215-1,11.794,11.794,0,0,1-2.858-1.789,13.122,13.122,0,0,1,6.073,2.79Z" transform="translate(-63.772 -79.358)"/><path class="i" d="M123.44,155.8c-.6-.038-1.183-.083-1.789-.121-.235-.1-.447-.2-.682-.3a12.228,12.228,0,0,1-2.851-1.789,11.842,11.842,0,0,1,3.215,1A12.458,12.458,0,0,1,123.44,155.8Z" transform="translate(-67.339 -43.117)"/><path class="i" d="M119.119,151.708a13.012,13.012,0,0,1-6.073-2.783,11.8,11.8,0,0,1,3.222.993A12.141,12.141,0,0,1,119.119,151.708Z" transform="translate(-100.717 -73.816)"/><path class="i" d="M123.518,141.8a11.752,11.752,0,0,1-3.215-.993,11.61,11.61,0,0,1-2.851-1.789,11.754,11.754,0,0,1,3.215.993A11.987,11.987,0,0,1,123.518,141.8Z" transform="translate(-71.716 -139.019)"/><path class="i" d="M119.444,140.093a12.076,12.076,0,0,1,1.569,2.98,11.839,11.839,0,0,1,.751,3.283,12.987,12.987,0,0,1-2.32-6.263Z" transform="translate(-58.605 -131.95)"/><path class="i" d="M121.228,146.3a12.99,12.99,0,0,1,2.32,6.263,12.99,12.99,0,0,1-2.32-6.263Z" transform="translate(-46.862 -91.061)"/><path class="i" d="M121.075,151.9a12.255,12.255,0,0,1,1.569,2.987,11.773,11.773,0,0,1,.751,3.283,13.055,13.055,0,0,1-2.32-6.271Z" transform="translate(-47.869 -54.247)"/><path class="i" d="M114.747,143.679a12.989,12.989,0,0,1,2.32,6.263,12.989,12.989,0,0,1-2.32-6.263Z" transform="translate(-89.521 -108.346)"/><path class="i" d="M116.685,148.7a12.1,12.1,0,0,1,1.577,2.98,11.835,11.835,0,0,1,.751,3.283,11.826,11.826,0,0,1-1.569-2.98A12.186,12.186,0,0,1,116.685,148.7Z" transform="translate(-76.765 -75.271)"/><path class="i" d="M111.42,150.753a11.826,11.826,0,0,1,1.569,2.98,11.571,11.571,0,0,1,.751,3.283,12.988,12.988,0,0,1-2.32-6.263Z" transform="translate(-111.42 -61.784)"/><path class="i" d="M114.992,139.38a13.1,13.1,0,0,1,2.328,6.263,11.583,11.583,0,0,1-1.569-2.98A11.782,11.782,0,0,1,114.992,139.38Z" transform="translate(-87.909 -136.643)"/><path class="i" d="M113.243,144.321a12.1,12.1,0,0,1,2.98-1.577,11.838,11.838,0,0,1,3.283-.751,11.824,11.824,0,0,1-2.98,1.57A12.2,12.2,0,0,1,113.243,144.321Z" transform="translate(-99.421 -119.444)"/><path class="i" d="M118.606,153.073a12.074,12.074,0,0,1,2.98-1.57,11.894,11.894,0,0,1,3.283-.751,12.987,12.987,0,0,1-6.263,2.32Z" transform="translate(-64.12 -61.784)"/><path class="i" d="M111.544,149.325a12.1,12.1,0,0,1,2.98-1.577,11.9,11.9,0,0,1,3.283-.751,11.82,11.82,0,0,1-2.98,1.569A12.117,12.117,0,0,1,111.544,149.325Z" transform="translate(-110.604 -86.506)"/><path class="i" d="M125.882,143.006a12.793,12.793,0,0,1-2.5,1.236,11.882,11.882,0,0,1-3.291.751,12.265,12.265,0,0,1,2.987-1.569,12.568,12.568,0,0,1,2.722-.682A.99.99,0,0,1,125.882,143.006Z" transform="translate(-54.359 -114.52)"/><path class="i" d="M114.476,153.073a12.076,12.076,0,0,1,2.98-1.57,11.77,11.77,0,0,1,3.283-.751,12.988,12.988,0,0,1-6.263,2.32Z" transform="translate(-91.305 -61.784)"/><path class="i" d="M116.479,147.627a11.828,11.828,0,0,1,2.98-1.569,11.642,11.642,0,0,1,3.283-.758,11.825,11.825,0,0,1-2.98,1.57A12.124,12.124,0,0,1,116.479,147.627Z" transform="translate(-78.121 -97.683)"/></g></g><path class="b" d="M115.274,139.062c.008-.045.076-.038.076.015-.6,4.549-1.683,15.142,5.535,14.982,2.912-.061,5.671-1.683,7.992-3.3A40.561,40.561,0,0,0,135.389,145a58.464,58.464,0,0,0,6.21-7.537c.076-.114.25.023.167.136-1.888,2.677-3.511,5.49-5.664,7.992a35.2,35.2,0,0,1-7.036,6.384c-2.479,1.653-5.414,3.26-8.477,3.177A5.793,5.793,0,0,1,115,150.39,25.63,25.63,0,0,1,115.274,139.062Z" transform="translate(22.039 -71.717)"/><g transform="translate(24.839 67.469)"><g transform="translate(0 61.697)"><path d="M136.817,228.223l61.524-6.066-36.508-76.095-61.524,6.066Z" transform="translate(-96.098 -143.988)"/><path d="M136.261,228.278l61.524-6.066-36.508-76.095-61.524,6.066Z" transform="translate(-99.753 -143.628)"/><path d="M107.309,148.933a5.442,5.442,0,0,0,2.957,2.95c.614.258.7-.523.091-.766a4.051,4.051,0,0,1-1.987-1.85,2.987,2.987,0,0,1-.182-.425,2.85,2.85,0,0,1-.243-1.486.936.936,0,0,1,.288-.576l.038-.038.068-.045.114-.03a.785.785,0,0,1,.44-.007,1.738,1.738,0,0,1,.751.387,3.6,3.6,0,0,1,.69.758,3.753,3.753,0,0,1,.318.432l.046.1a.449.449,0,0,1,.091.152c.015.03.053.061.053.1l.872-.083a6.407,6.407,0,0,0-.986-1.441,3.336,3.336,0,0,0-2.51-1.266,1.355,1.355,0,0,0-1.251,1.388A3.614,3.614,0,0,0,107.309,148.933Z" transform="translate(-52.324 -145.789)"/><path d="M106.674,148.994a5.479,5.479,0,0,0,2.957,2.957c.614.258.7-.531.091-.766a4.083,4.083,0,0,1-1.986-1.85c-.068-.136-.137-.288-.19-.425a2.935,2.935,0,0,1-.235-1.494.976.976,0,0,1,.288-.576l.038-.038.068-.038.114-.03a.723.723,0,0,1,.44-.008,1.808,1.808,0,0,1,.751.379,3.824,3.824,0,0,1,.69.766,4.414,4.414,0,0,1,.318.425l.046.1a.672.672,0,0,1,.091.152c.015.038.053.068.053.106l.872-.091a6.544,6.544,0,0,0-.986-1.433,3.371,3.371,0,0,0-2.51-1.274,1.367,1.367,0,0,0-1.251,1.4A3.569,3.569,0,0,0,106.674,148.994Z" transform="translate(-56.504 -145.38)"/><path d="M106.039,149.057A5.478,5.478,0,0,0,109,152.014c.614.25.7-.531.083-.773a4.032,4.032,0,0,1-1.979-1.85,4.155,4.155,0,0,1-.19-.417,2.867,2.867,0,0,1-.235-1.494.955.955,0,0,1,.288-.576l.038-.038.068-.045.114-.03a.858.858,0,0,1,.44-.007,1.737,1.737,0,0,1,.751.387,3.6,3.6,0,0,1,.69.758,3.751,3.751,0,0,1,.318.432l.045.1a.536.536,0,0,1,.091.152c.015.03.053.068.045.1l.88-.083a6.411,6.411,0,0,0-.986-1.441,3.362,3.362,0,0,0-2.51-1.266,1.357,1.357,0,0,0-1.251,1.4A3.6,3.6,0,0,0,106.039,149.057Z" transform="translate(-60.683 -144.966)"/><path d="M105.4,149.121a5.467,5.467,0,0,0,2.957,2.95c.614.258.7-.523.083-.766a4.066,4.066,0,0,1-1.979-1.85c-.068-.137-.136-.288-.19-.425a2.857,2.857,0,0,1-.235-1.494.9.9,0,0,1,.288-.569l.038-.045.068-.038.114-.03a.785.785,0,0,1,.44-.008,1.781,1.781,0,0,1,.751.387,3.589,3.589,0,0,1,.69.758,4.426,4.426,0,0,1,.318.425l.045.106a.5.5,0,0,1,.091.144c.015.038.053.068.046.106l.88-.091a6.548,6.548,0,0,0-.986-1.433,3.336,3.336,0,0,0-2.51-1.266,1.355,1.355,0,0,0-1.251,1.388A3.614,3.614,0,0,0,105.4,149.121Z" transform="translate(-64.863 -144.552)"/><path d="M104.771,149.182a5.479,5.479,0,0,0,2.957,2.957c.614.258.7-.531.083-.766a4.1,4.1,0,0,1-1.979-1.85,3.464,3.464,0,0,1-.19-.425,2.957,2.957,0,0,1-.243-1.494.965.965,0,0,1,.3-.576l.038-.038.068-.045.114-.023a.7.7,0,0,1,.432-.008,1.833,1.833,0,0,1,.758.379,3.824,3.824,0,0,1,.69.766,4.748,4.748,0,0,1,.318.425l.046.1a.539.539,0,0,1,.091.152c.015.038.045.068.045.1l.872-.083a6.288,6.288,0,0,0-.978-1.441,3.374,3.374,0,0,0-2.51-1.266,1.351,1.351,0,0,0-1.251,1.4A3.5,3.5,0,0,0,104.771,149.182Z" transform="translate(-69.045 -144.143)"/><path d="M104.141,149.246a5.452,5.452,0,0,0,2.949,2.95c.622.258.705-.523.091-.766a3.939,3.939,0,0,1-2.169-2.267,2.969,2.969,0,0,1-.243-1.494.964.964,0,0,1,.3-.576l.038-.038.068-.045.114-.03a.761.761,0,0,1,.432-.008,1.7,1.7,0,0,1,.751.387,3.438,3.438,0,0,1,.7.758c.114.129.2.281.319.432l.045.1a.62.62,0,0,1,.091.152c.015.03.045.061.045.1l.872-.083a6.371,6.371,0,0,0-.978-1.441,3.348,3.348,0,0,0-2.51-1.266,1.356,1.356,0,0,0-1.259,1.388A3.624,3.624,0,0,0,104.141,149.246Z" transform="translate(-73.229 -143.729)"/><path d="M103.506,149.315a5.5,5.5,0,0,0,2.949,2.949c.622.258.7-.523.091-.766a4.15,4.15,0,0,1-1.987-1.85c-.061-.136-.136-.288-.182-.425a2.943,2.943,0,0,1-.243-1.494.986.986,0,0,1,.3-.576l.03-.038.076-.038.114-.03a.7.7,0,0,1,.432-.008,1.74,1.74,0,0,1,.751.387,3.639,3.639,0,0,1,.7.758c.114.129.2.28.311.425l.053.106a.75.75,0,0,1,.091.144c.015.038.046.068.046.106l.872-.091a6.506,6.506,0,0,0-.978-1.433,3.4,3.4,0,0,0-2.51-1.274,1.368,1.368,0,0,0-1.259,1.4A3.624,3.624,0,0,0,103.506,149.315Z" transform="translate(-77.408 -143.32)"/><path d="M102.871,149.37a5.489,5.489,0,0,0,2.949,2.957c.622.258.7-.531.091-.766a4.15,4.15,0,0,1-1.987-1.85c-.061-.136-.136-.288-.182-.425a2.956,2.956,0,0,1-.243-1.494.965.965,0,0,1,.3-.576l.03-.038.076-.045.114-.03a.83.83,0,0,1,.432-.008,1.74,1.74,0,0,1,.751.387,3.854,3.854,0,0,1,.7.758c.114.137.2.281.311.432l.053.1a1.611,1.611,0,0,1,.091.152c.015.03.046.068.046.1l.872-.083a6.369,6.369,0,0,0-.978-1.441,3.388,3.388,0,0,0-2.517-1.266,1.357,1.357,0,0,0-1.251,1.4A3.612,3.612,0,0,0,102.871,149.37Z" transform="translate(-81.588 -142.906)"/><path d="M102.236,149.434a5.452,5.452,0,0,0,2.949,2.949c.622.258.7-.523.091-.766a4.082,4.082,0,0,1-1.987-1.85c-.061-.136-.137-.288-.182-.425a2.864,2.864,0,0,1-.243-1.494.977.977,0,0,1,.288-.569l.038-.038.076-.045.114-.03a.756.756,0,0,1,.432-.008,1.739,1.739,0,0,1,.751.387,3.858,3.858,0,0,1,.7.758c.114.129.2.281.311.425l.053.106a1.01,1.01,0,0,1,.091.152c.015.03.045.061.045.1l.872-.083a6.627,6.627,0,0,0-.978-1.441,3.363,3.363,0,0,0-2.517-1.266,1.355,1.355,0,0,0-1.251,1.387A3.623,3.623,0,0,0,102.236,149.434Z" transform="translate(-85.768 -142.492)"/><path d="M101.6,149.495a5.489,5.489,0,0,0,2.949,2.957c.614.258.7-.531.091-.766a4.117,4.117,0,0,1-1.987-1.85c-.061-.136-.136-.288-.182-.425a2.876,2.876,0,0,1-.243-1.494,1,1,0,0,1,.288-.576l.038-.038.076-.038.114-.03a.7.7,0,0,1,.432-.008,1.807,1.807,0,0,1,.751.379,4.114,4.114,0,0,1,.7.766c.114.129.2.281.311.425l.053.1a1.029,1.029,0,0,1,.083.152c.023.038.053.068.053.1l.872-.083a6.369,6.369,0,0,0-.986-1.433,3.345,3.345,0,0,0-2.51-1.274,1.367,1.367,0,0,0-1.251,1.4A3.593,3.593,0,0,0,101.6,149.495Z" transform="translate(-89.947 -142.083)"/><path d="M100.958,149.559a5.529,5.529,0,0,0,2.957,2.957c.614.25.7-.531.091-.773a4.082,4.082,0,0,1-1.987-1.85,2.908,2.908,0,0,1-.182-.417,2.876,2.876,0,0,1-.243-1.494.955.955,0,0,1,.288-.576l.038-.038.068-.045.121-.03a.756.756,0,0,1,.432-.008,1.739,1.739,0,0,1,.751.387,3.855,3.855,0,0,1,.7.758,4.856,4.856,0,0,1,.311.432l.045.1a.45.45,0,0,1,.091.152c.023.03.053.061.053.1l.872-.083a6.414,6.414,0,0,0-.986-1.441,3.337,3.337,0,0,0-2.51-1.266,1.357,1.357,0,0,0-1.251,1.4A3.6,3.6,0,0,0,100.958,149.559Z" transform="translate(-94.127 -141.669)"/><path d="M100.323,149.628a5.491,5.491,0,0,0,2.957,2.949c.614.258.7-.523.091-.766a4.085,4.085,0,0,1-1.987-1.85,3.408,3.408,0,0,1-.182-.425,2.865,2.865,0,0,1-.243-1.494.977.977,0,0,1,.288-.576l.038-.038.068-.038.114-.03a.722.722,0,0,1,.44-.008,1.74,1.74,0,0,1,.751.387,3.6,3.6,0,0,1,.69.758,4.43,4.43,0,0,1,.318.425l.046.106a.507.507,0,0,1,.091.144c.015.038.053.068.053.106l.872-.091a6.54,6.54,0,0,0-.986-1.433,3.371,3.371,0,0,0-2.51-1.274,1.367,1.367,0,0,0-1.251,1.4A3.614,3.614,0,0,0,100.323,149.628Z" transform="translate(-98.307 -141.26)"/></g><path class="h" d="M165.146,146.386c16.468,22.921,51.885,75.268,41.437,87.369-17.189,19.881-59.126,37.3-72.266,41.232-5.671,1.7-25.969-39.511-20.624-42.9,6.414-4.064,47.5-20.207,47.707-22.193.22-2.184-7.476-30.382-10-52.628C148.26,129.652,158.276,136.825,165.146,146.386Z" transform="translate(-13.844 -136.35)"/><g transform="translate(31.908 82.467)"><path class="h" d="M192.556,158.918s-17.28-5.072-28.736-7.855c-6.392-1.547-17.591-3.238-22.807-2.229-7.8,1.509-39.48,12.8-36.9,20.533,2.328,7.006,28.3-6.142,28.3-6.142S105.028,174.173,109.38,182.1s31.731-10.842,31.731-10.842S113.224,183.135,119,190.6c4.367,5.634,30.124-9.963,30.124-9.963s-23.9,10.38-19.661,16.37c4.693,6.619,29.373-6.286,29.373-6.286,13.345,13.405,24.93,15.195,33.688,13.981C194.565,204.418,192.556,158.918,192.556,158.918Z" transform="translate(-103.961 -148.529)"/><g transform="translate(7.679 10.854)"><path class="h" d="M133.7,149.966c-20.79,6.528-28.987,16.1-28.721,15.885,6.361-4.959,17.553-10.35,20.707-11.805,3.139-1.456,4.928-2.51,8.075-3.965C133.838,150.041,133.778,149.935,133.7,149.966Z" transform="translate(-104.974 -149.96)"/><path class="h" d="M130.433,151.376c-10.046,2.449-20.517,8.469-23.8,11.116-.265.212-.114.265.2.114,3.95-1.964,19.615-9.372,23.649-11.138C130.539,151.444,130.494,151.36,130.433,151.376Z" transform="translate(-94.957 -140.657)"/><path class="h" d="M126.382,152.545c-8.818,2.866-12.48,5.042-18.174,9.144-.273.2-.03.288.273.129,5.982-3.154,10.653-5.671,17.977-9.053C126.571,152.711,126.518,152.5,126.382,152.545Z" transform="translate(-84.476 -132.992)"/></g></g><path class="c" d="M114.589,227.021l23.133,49.33s55.145-29.715,59.308-43.688S163.691,157.28,152.3,144.754s-15.089-7.393-14.77,6.9,11.555,58.845,11.282,59.679S114.589,227.021,114.589,227.021Z" transform="translate(-2.101 -137.652)"/><g transform="translate(117.197 10.635)"><path class="i" d="M122.2,145.3a12.168,12.168,0,0,1-1,3.222,11.9,11.9,0,0,1-1.789,2.851,11.506,11.506,0,0,1,1-3.215A11.8,11.8,0,0,1,122.2,145.3Z" transform="translate(-87.545 -97.956)"/><path class="i" d="M124.134,149.2a13.12,13.12,0,0,1-2.783,6.073,13.011,13.011,0,0,1,2.783-6.073Z" transform="translate(-74.789 -72.266)"/><path class="i" d="M118.895,151.374a13.008,13.008,0,0,1-2.783,6.073,11.8,11.8,0,0,1,.993-3.222A12.142,12.142,0,0,1,118.895,151.374Z" transform="translate(-109.273 -57.969)"/><path class="i" d="M124.732,150.873a12.029,12.029,0,0,1-3.215-1,11.794,11.794,0,0,1-2.858-1.789,13.122,13.122,0,0,1,6.073,2.79Z" transform="translate(-92.508 -79.631)"/><path class="i" d="M124.19,156.372a12.921,12.921,0,0,1-6.073-2.783,11.5,11.5,0,0,1,3.215,1A12,12,0,0,1,124.19,156.372Z" transform="translate(-96.076 -43.39)"/><path class="i" d="M129.807,152.75a12.026,12.026,0,0,1-3.215-1,11.8,11.8,0,0,1-2.858-1.789,11.557,11.557,0,0,1,3.222,1A11.9,11.9,0,0,1,129.807,152.75Z" transform="translate(-59.104 -67.276)"/><path class="i" d="M128.168,146.553a13.011,13.011,0,0,1-6.073-2.783,11.794,11.794,0,0,1,3.222.993A12.14,12.14,0,0,1,128.168,146.553Z" transform="translate(-69.892 -108.02)"/><path class="i" d="M122.452,141.557a12.041,12.041,0,0,1-3.222-.978,15.853,15.853,0,0,1-1.615-.887c0-.22,0-.432.015-.637a12.755,12.755,0,0,1,1.971.72A12.2,12.2,0,0,1,122.452,141.557Z" transform="translate(-99.38 -139.055)"/><path class="i" d="M119.444,140.093a12.076,12.076,0,0,1,1.569,2.98,11.839,11.839,0,0,1,.751,3.283,12.987,12.987,0,0,1-2.32-6.263Z" transform="translate(-87.341 -132.223)"/><path class="i" d="M121.228,146.3a12.99,12.99,0,0,1,2.32,6.263,12.99,12.99,0,0,1-2.32-6.263Z" transform="translate(-75.599 -91.334)"/><path class="i" d="M121.075,151.9a12.255,12.255,0,0,1,1.569,2.987,11.773,11.773,0,0,1,.751,3.283,13.055,13.055,0,0,1-2.32-6.271Z" transform="translate(-76.606 -54.52)"/><path class="i" d="M116.685,148.7a12.1,12.1,0,0,1,1.577,2.98,11.835,11.835,0,0,1,.751,3.283,11.826,11.826,0,0,1-1.569-2.98A12.186,12.186,0,0,1,116.685,148.7Z" transform="translate(-105.501 -75.544)"/><path class="i" d="M118.606,153.073a12.074,12.074,0,0,1,2.98-1.57,11.894,11.894,0,0,1,3.283-.751,12.987,12.987,0,0,1-6.263,2.32Z" transform="translate(-92.857 -62.057)"/><path class="i" d="M120.089,145.06a12.284,12.284,0,0,1,2.987-1.577,11.776,11.776,0,0,1,3.283-.751,11.823,11.823,0,0,1-2.98,1.57A12.174,12.174,0,0,1,120.089,145.06Z" transform="translate(-83.096 -114.852)"/><path class="i" d="M123.592,149.581a12.074,12.074,0,0,1,2.98-1.569,11.838,11.838,0,0,1,3.283-.751,12.989,12.989,0,0,1-6.263,2.32Z" transform="translate(-60.038 -85.042)"/><path class="i" d="M115.915,150.753c-.19.136-.372.265-.569.387l-.136-.3A5.562,5.562,0,0,1,115.915,150.753Z" transform="translate(-115.21 -62.057)"/></g><path class="b" d="M145.1,162.386q-1.126-5.016-2.184-10.039c-.364-1.736-.728-3.48-1.122-5.217-.174-.8-.349-1.6-.531-2.4-.091-.394-.22-.788-.288-1.19a6.152,6.152,0,0,0-.4-1.585c-.023-.091-.174-.076-.167.023.1.925-.091.553.083,1.251a13.842,13.842,0,0,1,.273,1.585c.121.811.258,1.615.379,2.426.265,1.653.569,3.306.88,4.951.046.22.091.432.129.652l-.053-.182c-.614-1.782-1.251-3.564-1.88-5.345a.064.064,0,0,0-.121.038c.425,1.85.91,3.662,1.5,5.459.349,1.039.751,2.055,1.16,3.071.44,2.2.864,4.405,1.327,6.6,1.433,6.794,2.912,13.633,4.89,20.29-2.889,1.319-5.838,2.51-8.72,3.837s-5.77,2.707-8.644,4.072-5.755,2.722-8.606,4.132c-1.357.682-2.707,1.38-4.057,2.07-1.479.751-2.866,1.668-4.352,2.381-.152.076-.015.3.136.228,1.547-.713,3.192-1.228,4.754-1.9,1.372-.6,2.76-1.183,4.125-1.8,2.9-1.3,5.793-2.654,8.682-4s5.778-2.692,8.644-4.079c2.866-1.372,5.656-2.9,8.515-4.284a.314.314,0,0,0,.174-.212.354.354,0,0,0,.159-.379C148.36,175.981,146.631,169.2,145.1,162.386Z" transform="translate(-2.487 -109.746)"/><path class="b" d="M127.024,170.452c-1.721-3.571-8.712-17.818-10.721-21.223-.03-.053-.129-.023-.106.046,1.281,3.624,7.764,17.879,9.485,21.465,3.42,7.142,6.718,14.4,10.918,21.132.068.121.3.053.235-.1C134.053,184.464,130.421,177.5,127.024,170.452Z" transform="translate(8.461 -61.628)"/><path class="b" d="M135.848,152.742c-1.266.72-2.457,1.615-3.655,2.441-1.243.872-2.495,1.721-3.738,2.586-2.441,1.706-4.9,3.457-7.491,4.913-.144.083-.008.311.137.227,2.631-1.516,5.315-2.911,7.87-4.564a39.088,39.088,0,0,0,7.013-5.436A.109.109,0,0,0,135.848,152.742Z" transform="translate(39.459 -38.444)"/></g><g transform="translate(123.054)"><g transform="translate(13.053 41.714)"><path class="h" d="M121.2,169.986c5.126.864,14.353-8.136,17.371-14.618.2-.447-.751-4.921-1.653-10.418-.538-3.336-1.054-7.059-1.281-10.5-.046-.705-2.358.751-2.358.751l-4.375,1.365-14.474,4.542a54.785,54.785,0,0,1,2.949,13.056,7.23,7.23,0,0,1-.053,1.418c0,.068-.015.144-.015.235C117.051,158.522,116.24,169.152,121.2,169.986Z" transform="translate(-114.428 -134.256)"/><path class="h" d="M117.324,154.116c0,.068-.015.144-.015.235a12.935,12.935,0,0,0,2.222-.03c14.49-1.274,15.089-19.843,15.089-19.843l-5.717.622-14.474,4.542a54.784,54.784,0,0,1,2.949,13.056A7.231,7.231,0,0,1,117.324,154.116Z" transform="translate(-114.428 -132.792)"/></g><g transform="translate(0.14 6.634)"><path class="h" d="M148.953,141.784c2.441,7.628-1.312,29.8-6.687,34.8-7.8,7.256-20.722,8.113-26.917-1.3-6.013-9.121-.614-37.934,5.406-42.5C129.626,126.074,145.351,130.517,148.953,141.784Z" transform="translate(-112.725 -129.629)"/></g><path class="j" d="M116.692,135.8l.008-.008" transform="translate(-86.473 -82.428)"/><g transform="translate(2.409 24.69)"><g transform="translate(12.024 7.4)"><path class="b" d="M114.959,133.174c.023-.053.106.091.091.152-.288,1.486-.379,3.238.895,3.958.038.023.023.091-.023.076C114.307,136.859,114.443,134.531,114.959,133.174Z" transform="translate(-114.61 -131.827)"/><path class="b" d="M116.458,132.991c2.434.212,1.827,5.065-.425,4.868C113.811,137.662,114.418,132.809,116.458,132.991Z" transform="translate(-114.516 -132.986)"/></g><g transform="translate(0.456 5.635)"><path class="b" d="M115.4,133c-.008-.061-.129.061-.137.121-.137,1.509-.554,3.215-1.971,3.541-.046.015-.053.091,0,.083C114.981,136.724,115.5,134.457,115.4,133Z" transform="translate(-111.974 -131.231)"/><path class="b" d="M115.356,132.788c-2.388-.485-3.185,4.345-.963,4.792C116.577,138.019,117.366,133.2,115.356,132.788Z" transform="translate(-113.084 -132.753)"/></g><path class="b" d="M118.235,135.951a18.914,18.914,0,0,1-1.8-.895,3.238,3.238,0,0,1-1.661-1.266,1.024,1.024,0,0,1,.318-1.221,2.563,2.563,0,0,1,2.593.053,3.774,3.774,0,0,1,1.956,1.888A1.1,1.1,0,0,1,118.235,135.951Z" transform="translate(-102.079 -130.525)"/><path class="b" d="M114.183,135a17.944,17.944,0,0,0,1.994-.258,3.23,3.23,0,0,0,1.979-.652,1.038,1.038,0,0,0,.091-1.259,2.563,2.563,0,0,0-2.472-.8,3.754,3.754,0,0,0-2.464,1.145A1.1,1.1,0,0,0,114.183,135Z" transform="translate(-113.024 -132.01)"/><path class="b" d="M117.32,134.977c-.4.3-.819.743-1.372.72a3.931,3.931,0,0,1-1.569-.576.054.054,0,0,0-.076.068,2.036,2.036,0,0,0,1.812,1.054,1.612,1.612,0,0,0,1.342-1.183C117.495,134.977,117.381,134.931,117.32,134.977Z" transform="translate(-104.644 -112.604)"/><g transform="translate(3.058 0.551)"><path class="b" d="M122.03,149.2a5.183,5.183,0,0,1-3.7,1.858,6.614,6.614,0,0,1-1.85-.144,2.352,2.352,0,0,1-.349-.083c-.106-.03-.2-.053-.326-.091a.388.388,0,0,1-.258-.379v-.008l.038-.152v-.015l.015-.129c.114-1.16.447-2.9.447-2.9-.447.152-2.73.857-2.616.258.917-4.966,1.941-10.494,3.9-15.24a.142.142,0,0,1,.273.068c-.7,4.815-2.237,9.462-3.01,14.285a9.228,9.228,0,0,1,2.51-.432c.159.068-.705,3.366-.713,3.89a.242.242,0,0,0,.008.053c1.911.493,3.45.091,5.5-.986C122.022,148.983,122.128,149.1,122.03,149.2Z" transform="translate(-113.427 -132.083)"/></g><g transform="translate(6.861 17.634)"><path class="b" d="M113.929,135.587a6.148,6.148,0,0,0,2.2,2.184,2.752,2.752,0,0,0,1.645.311c1.243-.167,1.41-1.266,1.3-2.237a6.733,6.733,0,0,0-.356-1.509A7.925,7.925,0,0,1,113.929,135.587Z" transform="translate(-113.929 -134.336)"/><path class="k" d="M114.219,136.462a2.752,2.752,0,0,0,1.645.311c1.243-.167,1.41-1.266,1.3-2.237A2.843,2.843,0,0,0,114.219,136.462Z" transform="translate(-112.02 -133.027)"/></g></g><path class="b" d="M116.448,148.263c7.059,5.391,17.454-1.676,17.454-1.676a7.957,7.957,0,0,0,7.81,5.444s.8,12.457,4.072,12.6c4.974.228,7.377-16.582,5.975-19.979s-5.573-4.466-5.573-4.466-.174-2.586-3.132-5.1c-3.26-2.775-15.164.129-15.164.129a10.859,10.859,0,0,0-2.79-4.208,3.079,3.079,0,0,0-4.451.182,7.354,7.354,0,0,1,1.039,3.109c.4,3.655-2.563,3.5-2.366.212a5.126,5.126,0,0,1,1.327-3.321c-1.35-2.229-3.7-3.048-5.209-1.971C112.71,131.181,110.58,143.79,116.448,148.263Z" transform="translate(-112.706 -128.754)"/><g transform="translate(30.568 31.272)"><path class="h" d="M118.05,138.486s5.05-7.12,8.287-5.315-.6,12.147-4.42,13.542a3.872,3.872,0,0,1-5.179-2.115Z" transform="translate(-116.738 -132.878)"/><path class="b" d="M123.343,133.3a.056.056,0,0,1,.023.106c-2.684,1.062-4.1,3.533-5.11,6.1a2.141,2.141,0,0,1,3.207-.569c.068.053,0,.159-.076.144a2.383,2.383,0,0,0-2.623.811,11.519,11.519,0,0,0-1.274,2.115c-.129.243-.554.106-.463-.167l.023-.061C117,138.376,119.681,133.622,123.343,133.3Z" transform="translate(-114.919 -130.077)"/></g></g><g transform="translate(135.661 59.285)"><path class="i" d="M117.153,140.19l5.262,12.67,15.634-16.286,4.542,5.118S127.412,167.455,127.3,166.3l-5.376-10.911-7.484,7.719.394-19.175Z" transform="translate(-113.91 -136.573)"/><path class="b" d="M114.557,148.148c.174-3.162.258-6.354.576-9.508.008-.114.182-.167.212-.03.667,3.04-.053,15.134-.008,18.038l.038-.038c.311-.334,6.945-6.8,7.006-6.7,1.16,1.729,5.1,9.675,5.376,10.4,2.4-4.087,11.608-18.978,14.459-22.853a.112.112,0,0,1,.2.106c-2.115,4.322-14.3,24.362-14.489,24.309a123.113,123.113,0,0,1-5.618-11.54c-1.122,1.4-7.8,8.689-7.832,8.219A99.207,99.207,0,0,1,114.557,148.148Z" transform="translate(-114.369 -131.095)"/></g></g></g></svg>