<svg xmlns="http://www.w3.org/2000/svg" xmlns:xlink="http://www.w3.org/1999/xlink" width="1811.979" height="551.136" viewBox="0 0 1811.979 551.136"><defs><style>.a,.e{fill:none;}.b{fill:#24669a;}.c,.k{fill:#d3766a;}.d{fill:#263238;}.e{stroke:#f4a69d;stroke-linecap:round;stroke-linejoin:round;stroke-width:0;}.f{fill:#f392b9;}.g{fill:#ffc727;}.h{clip-path:url(#a);}.i{fill:#ff6e4a;}.j{fill:#dadada;}.k{stroke:rgba(0,0,0,0);stroke-miterlimit:10;}.l{fill:#2383c3;}.m{fill:#285a82;}.n{fill:#ecb4aa;}.o{fill:#272425;}.p{fill:#ff98b9;}</style><clipPath id="a"><path class="a" d="M0,62.5V579.8H1596.13V62.5Z" transform="translate(0 -62.5)"/></clipPath></defs><g transform="translate(22.999 -1492.726)"><g transform="translate(-22.999 1492.726)"><g transform="translate(0 258.65)"><path class="b" d="M-47.742,182.738c13.051,9.692,23.093,59.826-6.79,66.616S-112.127,208.945-116.2,193.7-76,161.762-47.742,182.738Z" transform="translate(121.084 38.795)"/><path class="b" d="M-103.736,182.738c-13.051,9.692-23.093,59.826,6.79,66.617s57.594-40.409,61.669-55.657S-75.483,161.762-103.736,182.738Z" transform="translate(1820.175 42.467)"/><g transform="translate(0 0)"><g transform="translate(7.747 154.424)"><g transform="translate(0)"><path class="c" d="M-62.984,282.215c-18.531,2.379-46.673-28.511-56.581-52.189-.67-1.627,3.382-17.564,7.388-37.161,2.385-11.9,4.758-25.211,6.049-37.514l75.184,26.838s-10.29,24.988-12.408,46.448a28.013,28.013,0,0,0,0,5.1c0,.235.039.523.023.846C-42.77,244.342-45.073,279.9-62.984,282.215Z" transform="translate(119.638 -155.351)"/></g><path class="d" d="M-119.643,155.742c.791,15.61,6.712,71.868,51.277,77.56a53.864,53.864,0,0,0,7.957.415,3.123,3.123,0,0,0-.036-.866,28.172,28.172,0,0,1,0-5.091C-58.3,206.307-48,181.306-48,181.306Z" transform="translate(136.715 -154.464)"/></g><g transform="translate(14.734 23.813)"><path class="c" d="M-129.032,153.809C-140,180.392-133.074,260.87-115.278,280.362c25.8,28.256,71.789,35.1,96.745,3.235,24.191-30.89,13.31-135.612-6.918-153.712C-55.243,103.227-112.837,114.537-129.032,153.809Z" transform="translate(134.296 -115.381)"/></g><path class="e" d="M-99.862,165.6c-.02,0-.02-.029,0-.029" transform="translate(131.729 22.24)"/><g transform="translate(73.336 90.32)"><g transform="translate(6.109 22.24)"><path class="d" d="M-113.387,144.186c-.062-.2-.405.291-.379.513.611,5.408.4,11.705-4.359,13.9-.147.069-.111.34.069.3C-112.135,157.574-111.943,149.212-113.387,144.186Z" transform="translate(124.987 -138.915)"/><path class="d" d="M-111.844,142.54c-8.774.046-8.039,17.594.091,17.551C-103.753,160.049-104.489,142.5-111.844,142.54Z" transform="translate(118.141 -142.54)"/></g><g transform="translate(47.914 20.472)"><path class="d" d="M-129.084,143.85c.033-.209.435.239.438.461.056,5.444,1.036,11.666,6.029,13.267.154.049.15.324-.033.3C-128.686,157.29-129.9,149.013-129.084,143.85Z" transform="translate(129.313 -137.924)"/><path class="d" d="M-126.213,142.042c8.715-1.029,10.137,16.476,2.062,17.43C-132.1,160.414-133.516,142.9-126.213,142.042Z" transform="translate(131.055 -141.999)"/></g><path class="d" d="M-113.11,149a68.89,68.89,0,0,0,6.7-2.68c2.559-1.055,4.7-1.634,6.307-4.036a3.72,3.72,0,0,0-.784-4.467c-2.732-2.219-6.186-1.7-9.316-.559a13.543,13.543,0,0,0-7.542,6.176C-119.541,146.445-116.231,149.928-113.11,149Z" transform="translate(118.256 -134.494)"/><path class="d" d="M-117.34,147.129a68.009,68.009,0,0,1-7.052-1.516c-2.7-.611-4.911-.82-6.895-2.918a3.717,3.717,0,0,1,.023-4.536c2.32-2.647,5.81-2.719,9.088-2.114a13.542,13.542,0,0,1,8.477,4.82C-111.432,143.531-114.111,147.518-117.34,147.129Z" transform="translate(176.514 -135.734)"/><path class="d" d="M-118.629,159.781c1.356,1.219,2.729,2.918,4.709,3,1.9.078,4.081-.866,5.787-1.611a.189.189,0,0,1,.245.268,7.321,7.321,0,0,1-6.774,3.242c-2.48-.327-3.787-2.405-4.477-4.63C-119.237,159.738-118.825,159.6-118.629,159.781Z" transform="translate(129.378 -81.38)"/><g transform="translate(15.654 1.909)"><path class="d" d="M-126.851,196.294a18.526,18.526,0,0,0,12.7,7.718,23.287,23.287,0,0,0,6.673.026,6.728,6.728,0,0,0,1.265-.2c.4-.065.752-.127,1.183-.235a1.351,1.351,0,0,0,1.039-1.261l0-.039a2.467,2.467,0,0,0-.072-.555l0-.039-.029-.477c-.062-4.189-.735-10.539-.735-10.539,1.562.7,9.506,3.882,9.29,1.7-1.84-18.058-3.885-38.135-9.529-55.715a.5.5,0,0,0-.987.18c1.082,17.424,5.219,34.54,6.585,52.023-2.529-.84-6.66-2.418-8.846-2.284-.588.2,1.519,12.244,1.4,14.13a.663.663,0,0,1-.026.2c-7,1.193-12.385-.709-19.41-5.147C-126.779,195.494-127.194,195.876-126.851,196.294Z" transform="translate(126.978 -136.318)"/></g><g transform="translate(13.292 61.336)"><path class="d" d="M-103.627,161.755s-3.9,4.794-9.022,6.356a9.807,9.807,0,0,1-5.964.1c-4.248-1.327-4.176-5.281-3.232-8.62a23.317,23.317,0,0,1,2.163-5.085A28.221,28.221,0,0,0-103.627,161.755Z" transform="translate(122.371 -154.504)"/><path class="f" d="M-109.889,164.582a9.807,9.807,0,0,1-5.964.1c-4.248-1.327-4.176-5.281-3.232-8.62C-114.5,156.743-110.075,160.083-109.889,164.582Z" transform="translate(119.61 -150.975)"/></g></g><path class="d" d="M-114,237.055c-1.967-7.029-20.113-82.772-18.113-91.03,1.823-7.519,10.045-4.444,10.169-4.872.137-.484.373-7.284,4.617-9.846,3.751-2.261,9.189.167,9.189.167s1.291-7.225,5.839-9.182,8.878,1.915,8.878,1.915,1.51-6.954,7.261-8.614,8.767,3.336,8.767,3.336,1.928-6.892,6.673-8.222,8.833,3.761,8.833,3.761,2.624-6.274,8.362-6.356c5.875-.085,7.993,6.212,7.993,6.212s3.412-6.075,8.82-6.228,7.277,6.581,7.277,6.581,2.209-6.013,7.294-5.617,6.294,7.516,6.294,7.516S-12.988,109.966-7,111.9c9.189,2.98,10.342,46.9,12.44,65.986,0,0-2.572-9.127-6.47-9.463s-6.82,5.872-14.087,7.48c-10.359,2.291-27.6-9.865-41.883-6.813-13.878,2.967-24.165,17.545-29.168,39.344C-91.813,233-109.328,253.741-114,237.055Z" transform="translate(132.264 -108.094)"/><g transform="translate(2.97 97.615)"><path class="g" d="M-96.212,183.215a22.427,22.427,0,0,0,18.058-26.021v0a22.417,22.417,0,0,0-26.021-18.054,22.424,22.424,0,0,0-18.058,26.021,22.431,22.431,0,0,0,20.459,18.358A22.392,22.392,0,0,0-96.212,183.215ZM-81.1,157.723a19.435,19.435,0,0,1-15.649,22.544,19.423,19.423,0,0,1-22.541-15.643,19.434,19.434,0,0,1,15.646-22.544,19.525,19.525,0,0,1,4.817-.261A19.441,19.441,0,0,1-81.1,157.723Z" transform="translate(180.919 -136.128)"/><path class="g" d="M-118.468,182.724c9.179-.428,16.182-10.81,15.613-23.146a26.755,26.755,0,0,0-5.447-15.421c-3.356-4.2-7.686-6.4-12.244-6.176-4.539.209-8.666,2.794-11.617,7.284a26.745,26.745,0,0,0-4,15.858c.542,11.672,7.679,20.976,16.228,21.584A12.968,12.968,0,0,0-118.468,182.724Zm7.823-36.7a23.755,23.755,0,0,1,4.8,13.692c.493,10.686-5.232,19.665-12.764,20.012-7.562.359-14.068-8.058-14.568-18.744a23.786,23.786,0,0,1,3.513-14.077c2.412-3.663,5.7-5.774,9.258-5.938a9.435,9.435,0,0,1,1.137.016C-116.116,141.21-113.09,142.968-110.645,146.027Z" transform="translate(250.413 -137.966)"/><path class="g" d="M-124.738,149.768l-2.029-2.2c3.261-3.006,10.931-7.2,16.662-1.611l-2.088,2.144C-117.323,143.079-124.437,149.493-124.738,149.768Z" transform="translate(226.871 -126.078)"/><path class="g" d="M-106.887,159.164l-2.719-1.248c.585-1.268,5.888-12.437,12.519-13.829,6.2-1.287,46.461.611,48.17.7l-.144,2.99c-11.542-.559-42.624-1.765-47.412-.755C-100.848,147.936-105.472,156.1-106.887,159.164Z" transform="translate(109.606 -125.099)"/></g><g transform="translate(2.702 103.997)"><path class="c" d="M-68.67,162.113s-16-26.966-28.1-21.449-1.421,43.67,11.849,49.774,19.159-6.065,19.159-6.065Z" transform="translate(102.06 -139.919)"/><path class="d" d="M-99.556,143.472c-.216-.036-.284.268-.1.363,9.28,4.591,13.653,13.845,16.489,23.312-2.578-3.755-6.31-5.987-11.31-2.954-.261.16-.052.565.222.529,3.983-.546,6.761.346,9.176,3.686a41.442,41.442,0,0,1,3.928,7.937c.386.892,1.964.549,1.712-.461-.02-.075-.042-.154-.062-.229C-78.342,163.474-86.547,145.684-99.556,143.472Z" transform="translate(108.18 -131.869)"/></g></g></g><g transform="translate(107.754 0)"><g transform="translate(0 0)"><g class="h" transform="translate(0 0)"><g transform="translate(222.793 445.216)"><path class="i" d="M268,587.8l.427,4.08c49.415-.5,98.555.286,147.137,2.3-2.373-1.474-4.754-2.947-7.163-4.413C362.007,587.994,315.125,587.332,268,587.8Z" transform="translate(-268 -584.691)"/><path class="j" d="M1260.662,589.681c-59.131,2.049-110.78,5.634-157.9,10.957-11.521,1.3-23.027,2.74-34.153,4.133-18.805,2.353-38.251,4.785-57.933,6.562-35.954,3.248-76.719,5.081-124.629,5.6-115.662,1.258-201.86-7.445-258.926-13.206q-8.643-.872-16.452-1.648c-56.795-5.594-114.895-9.478-173.784-11.639,2.41,1.4,4.791,2.813,7.164,4.224,55.025,2.185,109.332,5.888,162.473,11.123q7.764.765,16.359,1.638c54.137,5.465,134.1,13.537,240.55,13.537q11.346,0,23.1-.127c49.063-.534,90.926-2.422,127.984-5.77,20.332-1.836,40.1-4.309,59.211-6.7,11.022-1.379,22.418-2.805,33.724-4.082,44.585-5.037,93.431-8.481,149.111-10.521l10.7-4.3C1265.065,589.54,1262.859,589.6,1260.662,589.681Z" transform="translate(-296.489 -585.004)"/><path class="i" d="M1607.752,584.074l-59.226.953c-37.714.608-76.636,1.247-114.941,2.7l-10.7,5.021c1.875-.08,3.736-.164,5.627-.24,39.968-1.619,80.973-2.28,120.71-2.921l59.144-.952Z" transform="translate(-462.808 -584.074)"/></g><path class="k" d="M195.551,193.02c-23.1-.941-81.524-4.665-101.856-15.63C69.607,164.4,40.2,135.493,26.325,111.976A188.463,188.463,0,0,1,12.409,82.932,190.872,190.872,0,0,1,.326,4.345c4.9-4.366,12.19-5.419,18.4-3.262C38.829,8.071,55.855,20.514,71.177,35.238c-.065.366-.132.735-.2,1.1-1.685,9.377-3.186,19.141-.293,28.193,2.233,6.98,6.891,12.89,11.46,18.633,8.975,11.287,26.418,26.9,39.491,33.058,21.03,9.907,55.924,7.931,79.845,5.954,11.755-.971,20.862-1.943,24.368-1.5,20.617,2.578,23.553-4.358,44.279-5.811,3.688-.26,7.972-.321,10.373,2.478a11.563,11.563,0,0,1,2.1,5.424c1.347,6.807-.631,19.866.251,26.75.672,5.233,1.163,10.775-1,15.592-2.452,5.455-19.381,20.253-25.184,21.774-16.071,4.207-35.468,6.3-52.86,6.3C201,193.185,198.238,193.13,195.551,193.02Z" transform="translate(1390.155 426.581)"/><g transform="translate(1365.323 392.184)"><path class="l" d="M1647.348,543.741a4.337,4.337,0,0,1,1.021-2.074,4.433,4.433,0,0,1,2.51-.892q3.115-.425,6.235-.787-.226,1.071-.452,2.143a29.272,29.272,0,0,0-.94,9.264c.351,3.1,1.876,6.234,4.624,7.731,4.286,2.336,9.53,0,13.829-2.312,5.344,5.737,15.647,5.758,21.015.044a16.5,16.5,0,0,0,19.856-.018,2.242,2.242,0,0,1,1.622-.713,2.273,2.273,0,0,1,1.085.688,12.515,12.515,0,0,0,16.5-.218c2.63-2.534,3.947-6.086,5.35-9.451a112.812,112.812,0,0,1,5.157-10.719l.631,0q10.468.1,20.929.273c.038.241.069.486.106.728a203.56,203.56,0,0,0-2.965,79.394,31.687,31.687,0,0,0,1.491,6.268c.358.94.8,1.868,1.23,2.8q-19.866-1.957-39.708-4.139-2.712-7.781-5.807-15.421a30.865,30.865,0,0,0-4.275-8.009,2.532,2.532,0,0,0-1.733-1.136c-1.249-.035-1.86,1.483-2.083,2.706a70.409,70.409,0,0,0-.716,20.255q-30.87-3.473-61.682-7.423a6.288,6.288,0,0,1-3.14-.991,6.12,6.12,0,0,1-1.788-3.74A135.485,135.485,0,0,1,1647.348,543.741Z" transform="translate(-1642.361 -536.351)"/><path class="m" d="M1736.944,556.581a12.516,12.516,0,0,1-16.5.218,2.27,2.27,0,0,0-1.085-.688,2.242,2.242,0,0,0-1.622.712,16.5,16.5,0,0,1-19.856.018c-5.368,5.714-15.671,5.693-21.015-.044-4.3,2.314-9.543,4.648-13.829,2.313-2.748-1.5-4.273-4.633-4.624-7.731a29.271,29.271,0,0,1,.94-9.264q.227-1.071.452-2.143,2.61-.309,5.222-.59c27.328-2.932,54.887-3.233,82.424-2.971a112.848,112.848,0,0,0-5.157,10.719C1740.89,550.5,1739.574,554.047,1736.944,556.581Z" transform="translate(-1645.051 -536.336)"/><path class="m" d="M1726.594,612.542c.224-1.223.835-2.741,2.083-2.707a2.531,2.531,0,0,1,1.732,1.136,30.863,30.863,0,0,1,4.275,8.009q3.11,7.63,5.807,15.42-7.307-.795-14.613-1.6A70.409,70.409,0,0,1,1726.594,612.542Z" transform="translate(-1656.378 -549.001)"/></g><path class="b" d="M1787.511,617.034a203.558,203.558,0,0,1,2.965-79.394c4.419,28.578,4.069,59.9-.224,88.463l-.021,0c-.428-.93-.872-1.859-1.23-2.8A31.7,31.7,0,0,1,1787.511,617.034Z" transform="translate(-301.088 -144.376)"/><path class="k" d="M71.046,96.834A17.265,17.265,0,0,1,61.888,86.51c-.466-1.6-.65-3.286-1.176-4.871-.6-1.8-1.622-3.433-2.26-5.218-2.05-5.741.941-13.056,6.753-14.966,5.918-1.943,12.247,1.753,16.557,6.234,6.182,6.432,20.526,30.139,3.172,31.448-.858.063-1.72.1-2.582.1A25.721,25.721,0,0,1,71.046,96.834ZM66.48,23.976a8.348,8.348,0,0,1-2.974-6.767c-.878,1.208-1.675,2.295-2.22,3.184a11.645,11.645,0,0,1-3.512,4.115,10.027,10.027,0,0,1-4.637,1.181c-2.727.174-5.667-.048-7.827-1.713a8.358,8.358,0,0,1-2.973-6.768c-.878,1.209-1.675,2.3-2.22,3.185a11.665,11.665,0,0,1-3.51,4.115,10.04,10.04,0,0,1-4.639,1.181c-2.725.174-5.666-.048-7.827-1.713a8.354,8.354,0,0,1-2.972-6.769c-.879,1.209-1.676,2.3-2.221,3.185a11.657,11.657,0,0,1-3.51,4.115A10.033,10.033,0,0,1,10.8,25.689c-2.727.174-5.668-.048-7.829-1.713A8.445,8.445,0,0,1,.018,16.786,15.317,15.317,0,0,1,2.86,9.313C6.389,4.062,12.233.046,18.577,0a9.618,9.618,0,0,1,6.041,1.77,5.078,5.078,0,0,1,2.067,4.275A18.8,18.8,0,0,1,39.746,0a9.616,9.616,0,0,1,6.04,1.77,5.078,5.078,0,0,1,2.067,4.275A18.8,18.8,0,0,1,60.915,0a9.612,9.612,0,0,1,6.039,1.77,5.078,5.078,0,0,1,2.068,4.276A18.8,18.8,0,0,1,82.083,0a9.616,9.616,0,0,1,6.039,1.77c6.091,4.789-2.946,14.175-5.669,18.622a11.636,11.636,0,0,1-3.51,4.115,10.026,10.026,0,0,1-4.637,1.181c-.487.031-.981.048-1.476.048A10.239,10.239,0,0,1,66.48,23.976Z" transform="translate(1377.11 384.356)"/><path class="n" d="M1995.319,491.594c1.321-2.947,3.427-5.894,6.574-6.666s6.493.939,8.526,3.451,3,5.694,3.823,8.814c1.739,6.621,3.007,13.581,1.6,20.281s-6.012,13.108-12.647,14.894a7.792,7.792,0,0,1-5.159-.125c-3.618-1.614-4.187-6.412-4.14-10.358C1994.016,512.21,1991.283,500.6,1995.319,491.594Z" transform="translate(-336.202 -135.261)"/><path class="o" d="M1946,548.937a8.981,8.981,0,0,0-3.7-5.919,5.594,5.594,0,0,0-5.284-.339,4.438,4.438,0,0,0-3.822,2.917,13.089,13.089,0,0,0-1.113,6.955c-.148,4.555,1.55,9.1,6.577,9.217a9.179,9.179,0,0,0,3.874-.906C1946.214,558.575,1946.8,552.8,1946,548.937Z" transform="translate(-325.894 -145.158)"/><g transform="translate(-82.985 384.356)"><g transform="translate(0 53.812)"><path class="k" d="M26.754,186.88c-5.8-1.521-22.732-16.319-25.182-21.774-2.165-4.816-1.671-10.358-1-15.592.882-6.884-1.1-19.943.253-26.75a11.543,11.543,0,0,1,2.1-5.424c2.4-2.8,6.683-2.738,10.372-2.478,20.726,1.454,23.664,8.39,44.279,5.811,3.5-.441,12.611.532,24.366,1.5,23.921,1.977,58.817,3.953,79.849-5.954,13.07-6.16,30.513-21.77,39.488-33.058,4.569-5.742,9.226-11.653,11.46-18.633,2.893-9.052,1.394-18.815-.293-28.193-.067-.366-.132-.736-.2-1.1C227.571,20.514,244.6,8.071,264.7,1.083c6.207-2.157,13.5-1.1,18.4,3.262a190.9,190.9,0,0,1-12.085,78.586A188.441,188.441,0,0,1,257.1,111.976c-13.875,23.518-43.282,52.422-67.369,65.415-20.33,10.964-78.754,14.689-101.856,15.63-2.687.11-5.447.165-8.262.165C62.222,193.184,42.825,191.088,26.754,186.88Z" transform="translate(0 0)"/></g><g transform="translate(184.193 7.828)"><path class="l" d="M240.822,543.741a4.337,4.337,0,0,0-1.021-2.074,4.433,4.433,0,0,0-2.51-.892q-3.115-.425-6.235-.787.226,1.071.452,2.143a29.269,29.269,0,0,1,.94,9.264c-.35,3.1-1.876,6.234-4.624,7.731-4.286,2.336-9.53,0-13.829-2.312-5.344,5.737-15.647,5.758-21.015.044a16.5,16.5,0,0,1-19.856-.018,2.242,2.242,0,0,0-1.622-.713,2.271,2.271,0,0,0-1.085.688,12.516,12.516,0,0,1-16.5-.218c-2.629-2.534-3.946-6.086-5.35-9.451a112.812,112.812,0,0,0-5.157-10.719l-.631,0q-10.468.1-20.929.273c-.038.241-.069.486-.106.728a203.557,203.557,0,0,1,2.965,79.394,31.692,31.692,0,0,1-1.491,6.268c-.358.94-.8,1.868-1.23,2.8q19.866-1.957,39.708-4.139,2.712-7.781,5.807-15.421a30.863,30.863,0,0,1,4.275-8.009,2.531,2.531,0,0,1,1.732-1.136c1.249-.035,1.86,1.483,2.083,2.706a70.409,70.409,0,0,1,.716,20.255q30.87-3.473,61.682-7.423a6.288,6.288,0,0,0,3.14-.991,6.12,6.12,0,0,0,1.788-3.74A135.475,135.475,0,0,0,240.822,543.741Z" transform="translate(-121.744 -536.351)"/><path class="l" d="M158.313,556.581a12.516,12.516,0,0,0,16.5.218,2.271,2.271,0,0,1,1.085-.688,2.242,2.242,0,0,1,1.622.712,16.5,16.5,0,0,0,19.856.018c5.368,5.714,15.671,5.693,21.015-.044,4.3,2.314,9.543,4.648,13.829,2.313,2.747-1.5,4.274-4.633,4.624-7.731a29.268,29.268,0,0,0-.94-9.264q-.227-1.071-.452-2.143-2.61-.309-5.221-.59c-27.328-2.932-54.887-3.233-82.424-2.971a112.823,112.823,0,0,1,5.157,10.719C154.367,550.5,155.684,554.047,158.313,556.581Z" transform="translate(-126.14 -536.336)"/><path class="b" d="M183.7,612.542c-.224-1.223-.835-2.741-2.083-2.707a2.532,2.532,0,0,0-1.732,1.136,30.864,30.864,0,0,0-4.275,8.009q-3.11,7.63-5.807,15.42,7.307-.795,14.613-1.6A70.41,70.41,0,0,0,183.7,612.542Z" transform="translate(-129.851 -549.001)"/></g><path class="b" d="M124.068,617.034A203.557,203.557,0,0,0,121.1,537.64c-4.418,28.578-4.069,59.9.224,88.463l.021,0c.428-.93.872-1.859,1.23-2.8A31.691,31.691,0,0,0,124.068,617.034Z" transform="translate(63.09 -528.733)"/><path class="k" d="M232.44,547.273a11.652,11.652,0,0,0,3.511,4.114,10.009,10.009,0,0,0,4.637,1.18c2.727.175,5.667-.046,7.828-1.711a8.449,8.449,0,0,0,2.957-7.191,15.323,15.323,0,0,0-2.843-7.473c-3.529-5.251-9.372-9.266-15.718-9.313a9.616,9.616,0,0,0-6.04,1.77C220.682,533.438,229.718,542.825,232.44,547.273Z" transform="translate(45.081 -526.879)"/><path class="k" d="M206.977,547.273a11.644,11.644,0,0,0,3.511,4.114,10.009,10.009,0,0,0,4.637,1.18c2.726.175,5.666-.046,7.827-1.711a8.447,8.447,0,0,0,2.957-7.191,15.322,15.322,0,0,0-2.842-7.473c-3.529-5.251-9.372-9.266-15.718-9.313a9.617,9.617,0,0,0-6.04,1.77C195.218,533.438,204.254,542.825,206.977,547.273Z" transform="translate(49.377 -526.879)"/><path class="k" d="M181.513,547.273a11.652,11.652,0,0,0,3.511,4.114,10.009,10.009,0,0,0,4.637,1.18c2.727.175,5.667-.046,7.828-1.711a8.448,8.448,0,0,0,2.956-7.191,15.313,15.313,0,0,0-2.842-7.473c-3.529-5.251-9.372-9.266-15.718-9.313a9.614,9.614,0,0,0-6.04,1.77C169.754,533.438,178.791,542.825,181.513,547.273Z" transform="translate(53.672 -526.879)"/><path class="k" d="M156.05,547.273a11.65,11.65,0,0,0,3.51,4.114,10.011,10.011,0,0,0,4.637,1.18c2.727.175,5.667-.046,7.828-1.711a8.447,8.447,0,0,0,2.957-7.191,15.314,15.314,0,0,0-2.843-7.473c-3.529-5.251-9.372-9.266-15.718-9.313a9.616,9.616,0,0,0-6.04,1.77C144.291,533.438,153.327,542.825,156.05,547.273Z" transform="translate(57.967 -526.879)"/><path class="k" d="M156.128,607.253c4.309-4.483,10.639-8.179,16.557-6.234,5.812,1.91,8.8,9.224,6.753,14.965-.638,1.786-1.662,3.419-2.26,5.219-.526,1.586-.71,3.265-1.175,4.87a17.272,17.272,0,0,1-9.159,10.325,27.056,27.056,0,0,1-13.886,2.3C135.6,637.392,149.946,613.685,156.128,607.253Z" transform="translate(58.581 -539.563)"/></g></g></g><g transform="translate(1551.134 258.65)"><g transform="translate(46.265 167.241)"><path class="c" d="M477.236,271.478c18.246,5.465,51.665-20.947,65.551-43.126.945-1.521-.491-18.225-1.275-38.6-.432-12.371-.614-26.15.123-38.734.165-2.583-80.062,14.543-80.062,14.543s6.212,26.839,4.787,48.773a28.58,28.58,0,0,1-.843,5.134c-.043.235-.128.518-.166.849C463.174,230.039,459.6,266.19,477.236,271.478Z" transform="translate(-461.573 -150.757)"/><path class="c" d="M536.762,150.815c-4.91,21.064-21.16,71.7-63.342,70.178a47.515,47.515,0,0,1-8.048-.913,3.915,3.915,0,0,1,.149-.859,32,32,0,0,0,.865-5.113c1.414-21.977-4.814-48.81-4.814-48.81S519.45,152.944,536.762,150.815Z" transform="translate(-461.573 -150.507)"/></g><g transform="translate(0 0)"><g transform="translate(3.105 26.245)"><path class="c" d="M581.334,164.531c10.743,27.276,2.375,109.19-16.08,128.765-26.753,28.381-73.743,34.609-98.655,1.724-24.154-31.882-11.362-138.435,9.553-156.553C506.951,111.778,565.468,124.244,581.334,164.531Z" transform="translate(-453.486 -124.337)"/></g><g transform="translate(11.134 93.358)"><g transform="translate(45.646 23.299)"><path class="d" d="M464.4,142.31c.064-.208.406.3.373.528-.71,5.5-.6,11.922,4.222,14.244.144.069.1.347-.08.3C462.907,155.934,462.842,147.406,464.4,142.31Z" transform="translate(-463.543 -137.02)"/><path class="d" d="M469.666,141.28c8.939.192,7.9,18.065-.379,17.889C461.133,159,462.168,141.125,469.666,141.28Z" transform="translate(-463.318 -141.279)"/></g><g transform="translate(3.206 20.831)"><path class="d" d="M463.528,142.01c-.027-.214-.448.235-.454.464-.144,5.545-1.243,11.874-6.361,13.422-.16.048-.16.326.027.31C462.9,155.7,464.28,147.288,463.528,142.01Z" transform="translate(-451.231 -135.884)"/><path class="d" d="M463.282,140.874c-8.87-1.2-10.6,16.624-2.386,17.729C468.976,159.691,470.711,141.872,463.282,140.874Z" transform="translate(-455.591 -140.816)"/></g><path class="d" d="M477.168,150.467a72.491,72.491,0,0,1-6.783-2.839c-2.589-1.121-4.766-1.745-6.362-4.216a3.791,3.791,0,0,1,.875-4.542c2.818-2.22,6.329-1.638,9.5-.416a13.761,13.761,0,0,1,7.589,6.415C483.764,147.964,480.332,151.46,477.168,150.467Z" transform="translate(-417.648 -134.927)"/><path class="d" d="M459.494,148.4a68.6,68.6,0,0,0,7.21-1.43c2.764-.576,5.022-.758,7.076-2.861a3.78,3.78,0,0,0,.048-4.622c-2.316-2.738-5.876-2.866-9.227-2.305a13.776,13.776,0,0,0-8.715,4.776C453.532,144.635,456.2,148.745,459.494,148.4Z" transform="translate(-454.99 -136.913)"/><path class="d" d="M473.817,152.073c-1.4,1.217-2.829,2.93-4.846,2.978-1.937.053-4.141-.95-5.871-1.734a.193.193,0,0,0-.256.267A7.471,7.471,0,0,0,469.7,157c2.535-.293,3.9-2.386,4.638-4.643C474.441,152.035,474.025,151.9,473.817,152.073Z" transform="translate(-421.053 -71.504)"/><g transform="translate(16.057 2.177)"><path class="d" d="M489.849,198.8a18.9,18.9,0,0,1-13.07,7.658,23.611,23.611,0,0,1-6.8-.085,6.467,6.467,0,0,1-1.286-.224c-.4-.069-.763-.139-1.2-.256a1.376,1.376,0,0,1-1.041-1.3v-.043a2.834,2.834,0,0,1,.085-.56l.005-.043.037-.486c.128-4.269.923-10.727.923-10.727-1.606.688-9.756,3.8-9.5,1.58,2.172-18.374,4.584-38.8,10.62-56.628a.514.514,0,0,1,1,.2c-1.388,17.745-5.881,35.121-7.557,52.919,2.588-.817,6.826-2.359,9.051-2.188.6.208-1.745,12.456-1.654,14.377a.72.72,0,0,0,.027.208c7.109,1.329,12.632-.523,19.863-4.926C489.791,197.979,490.207,198.379,489.849,198.8Z" transform="translate(-457.999 -137.321)"/></g><g transform="translate(30.68 63.507)"><path class="d" d="M460.739,154.523s3.479,5.315,8.549,7.455a10.091,10.091,0,0,0,6.089.736c4.488-.907,4.835-4.958,4.227-8.475a23.949,23.949,0,0,0-1.676-5.427A29.017,29.017,0,0,1,460.739,154.523Z" transform="translate(-460.739 -148.813)"/><path class="p" d="M462.341,157.568a10.091,10.091,0,0,0,6.089.736c4.488-.907,4.835-4.958,4.227-8.475C467.891,150.043,463.013,152.984,462.341,157.568Z" transform="translate(-453.792 -144.402)"/></g></g><path class="d" d="M468.664,191.719c27.111,18.625,64.255-9.473,64.255-9.473,8.726,21.224,29.918,18.705,29.918,18.705s5.294,45.928,17.387,45.853c18.454-.1,24.213-62.717,18.406-75.029S577.176,156.3,577.176,156.3s-1.137-9.547-12.531-18.273c-12.584-9.654-56.079,3.293-56.079,3.293a40.417,40.417,0,0,0-11.122-15.044c-5.166-4.381-12.04-3.5-16.421,1.494a27.224,27.224,0,0,1,4.419,11.33c2.161,13.443-8.822,13.422-8.71,1.227.053-5.427,1.767-9.681,4.291-12.557-5.406-7.978-14.254-10.577-19.634-6.319C451.634,129.193,446.116,176.247,468.664,191.719Z" transform="translate(-452.904 -119.42)"/><g transform="translate(115.578 111.391)"><path class="c" d="M477.891,162.514s16.741-27.228,28.989-21.406.736,44.53-12.888,50.539-19.431-6.495-19.431-6.495Z" transform="translate(-474.561 -140.292)"/><path class="d" d="M497.064,142.511a.193.193,0,0,1,.1.368c-9.537,4.531-14.142,13.892-17.19,23.492,2.69-3.784,6.532-6,11.575-2.828.267.171.043.582-.235.539-4.051-.619-6.895.24-9.409,3.608-1.782,2.38-2.919,5.326-4.136,8.026-.405.9-2.012.528-1.734-.5l.064-.229C475.114,162.55,483.765,144.55,497.064,142.511Z" transform="translate(-468.32 -130.679)"/></g></g></g></g></g></g></svg>