<svg xmlns="http://www.w3.org/2000/svg" width="473.17" height="812.767" viewBox="0 0 473.17 812.767"><defs><style>.a{fill:#ff6e4a;}.b{fill:#dd6a57;}.c{fill:#fff;}.d{fill:#24669a;}.e{fill:#263238;}.f{fill:#333;}.g{fill:#d3766a;}.h{fill:#ffc727;}.i{fill:none;stroke:#f5a79e;stroke-linecap:round;stroke-linejoin:round;stroke-width:0;}.j{fill:#ff98b9;}.k{fill:#1f74a3;}</style></defs><g transform="translate(-530.872 -89.586)"><g transform="translate(556.027 583.733)"><path class="a" d="M987.522,284.638l-262.047-2.832L539.651,279.8V266.549l448.015,6.179Z" transform="translate(-539.651 -266.549)"/></g><g transform="translate(530.872 201.215)"><g transform="translate(0 241.004)"><g transform="translate(233.272 35.266)"><path class="b" d="M823.2,342.735c-1.66-5.025-90.635-122.584-96.709-124.849-.7-.3-40.469,28.007-40.469,28.007-1.641,2.189-77.241-13.787-77.241-13.787l-.756,91.2,137.72-2.93s18.6,10.936,35.617,19.846c.027,0,.042.021.057.009,10.471,5.518,19.74,10.168,22.383,10.857C810.693,352.858,824.894,347.736,823.2,342.735Z" transform="translate(-608.026 -217.876)"/><path class="c" d="M764.258,351.09c-2.655-.68-11.913-5.333-22.38-10.86-.021.021-.043,0-.067,0-17-8.91-35.608-19.858-35.608-19.858l-30.652.659L627.57,243.6c10.531,1.865,18.386,2.984,18.912,2.283,0,0,39.756-28.3,40.46-28,6.077,2.262,95.043,119.817,96.712,124.842C785.344,347.731,771.146,352.865,764.258,351.09Z" transform="translate(-568.479 -217.874)"/><g transform="translate(77.997)"><path class="d" d="M771.815,342.9c-1.748-5.149-91.125-122.641-97.365-124.969-2.362-.895-21.818,11.123-40.627,27.97l57.712,75.681S744.779,349.785,751.9,351.6C759,353.4,773.565,348.047,771.815,342.9Z" transform="translate(-633.823 -217.882)"/><g transform="translate(25.488 7.71)"><path class="e" d="M737.642,339.627c-15.465-19.326-76.019-98.741-89.84-119.022-.112-.163-.006-.245.124-.094,15.746,18.821,75.657,98.726,90.039,118.871C738.268,339.809,737.969,340.036,737.642,339.627Z" transform="translate(-631.119 -220.432)"/><path class="e" d="M672.523,279.32a19.87,19.87,0,0,1-4.151-15.441c.81-4.481,2.975-9.433,7.166-12.4.121-.085.287.13.181.239-6.851,6.987-8.29,19.148-2.948,27.417A.156.156,0,0,1,672.523,279.32Z" transform="translate(-589.913 -157.651)"/><path class="e" d="M660.744,273.187c-6.107-7.8-10.277-19.054-7.556-28.856.106-.381.644-.227.7.1a136.981,136.981,0,0,0,7.928,28.155A.622.622,0,0,1,660.744,273.187Z" transform="translate(-621.844 -172.525)"/><path class="e" d="M663.057,274.6c-6.1-7.8-10.274-19.054-7.553-28.859.1-.378.641-.224.7.1A136.788,136.788,0,0,0,664.133,274,.624.624,0,0,1,663.057,274.6Z" transform="translate(-617.158 -169.66)"/><path class="e" d="M665.375,276.02c-6.1-7.8-10.277-19.054-7.556-28.859.106-.381.644-.224.7.1a136.988,136.988,0,0,0,7.927,28.155A.622.622,0,0,1,665.375,276.02Z" transform="translate(-612.473 -166.796)"/><path class="e" d="M667.691,277.436c-6.107-7.8-10.277-19.057-7.556-28.859.106-.381.644-.224.7.1a136.967,136.967,0,0,0,7.927,28.155A.622.622,0,0,1,667.691,277.436Z" transform="translate(-607.787 -163.93)"/><path class="e" d="M644.046,236.088c-6.7-8.865,7.063-19.3,13.775-10.416C664.524,234.537,650.758,244.968,644.046,236.088Z" transform="translate(-642.253 -216.667)"/><path class="e" d="M665.463,276.913c2.252-8.429.777-17.539.39-26.1a1.206,1.206,0,0,0-1.714-.931.263.263,0,0,0-.414-.076,51.989,51.989,0,0,0-14.709,22.5c-1.563,5.073-.971,12.56,5.373,14.032C660.387,287.724,664.148,281.835,665.463,276.913Zm-6.252,5.333c-9.173,5.742-8.472-7.008-7.169-10.7a55.585,55.585,0,0,1,3.126-6.924,155.445,155.445,0,0,1,8.3-13.328c-.069,4.218.227,8.405.314,12.623C663.888,268.943,664.269,279.083,659.211,282.246Z" transform="translate(-630.043 -161.148)"/><path class="e" d="M646.21,243.153c-4.674,4.532-1.321,11.253,2.633,14.794a51.972,51.972,0,0,0,24.2,11.695.259.259,0,0,0,.314-.275,1.209,1.209,0,0,0,.989-1.684c-4.085-7.541-7.516-16.106-13.793-22.168C656.9,241.974,650.637,238.866,646.21,243.153Zm19.61,14.365c2.1,3.661,4,7.4,6.238,10.981a156.358,156.358,0,0,1-13.984-7.141,56.145,56.145,0,0,1-6.25-4.321c-3.02-2.5-10.2-13.058.626-12.868C658.416,244.271,663.317,253.154,665.821,257.517Z" transform="translate(-638.851 -178.67)"/></g></g></g><path class="f" d="M760.734,227.749H698.919s-64.654-31.081-116.737-18.558c-59.708,14.355-67.342,89.35-22.712,115.866,56.545,33.594,308.159,27.09,308.159,27.09l-54.4-92.195S729.562,242.341,653.682,244.9l107.052,14.591Z" transform="translate(-530.873 -206.217)"/><path class="e" d="M760.09,243.937a2.225,2.225,0,0,1-.115-.472l-.094-.387c-.075-.3-.154-.6-.239-.892a18.957,18.957,0,0,0-.629-1.8c-.236-.6-.493-1.176-.765-1.757A14.137,14.137,0,0,0,757.23,237c-.036-.057-.1-.066-.145-.1a.8.8,0,0,0-.1-.067.474.474,0,0,0-.136-.054.6.6,0,0,0-.136-.057c-9.2-1.711-71.729-10.658-81.026-11.719-9.373-1.07-18.773-1.941-28.173-2.73a559.68,559.68,0,0,0-56.427-2.032c-1.763.03-3.526.1-5.288.163-.372-.124-.771-.194-1.158-.284-.9-.218-1.8-.441-2.712-.617-1.7-.327-3.41-.574-5.119-.837-3.559-.544-7.133-.922-10.673-1.584-.218-.039-.3.284-.085.333,3.562.789,7.063,1.823,10.628,2.6q1.542.34,3.087.656c-6.9.363-13.79.895-20.677,1.518-.218.018-.224.357,0,.342,9.373-.55,18.815-.62,28.2-.46,9.321.157,18.637.363,27.943.895,18.827,1.079,37.639,2.767,56.391,4.729,10.522,1.1,74.272,10.407,84.842,10.848a.619.619,0,0,0,.13-.021,6.3,6.3,0,0,0,.29.723c.29.574.58,1.14.895,1.7.3.541.6,1.076.943,1.593.169.257.341.511.517.765l.263.381a1.952,1.952,0,0,1,.275.4C759.854,244.312,760.217,244.152,760.09,243.937Z" transform="translate(-474.107 -184.252)"/><path d="M668.938,309.2c-3.368-5.388-6.237-11.135-9.318-16.693q-4.64-8.358-9.291-16.708c-6.189-11.105-28.4-48.454-30.6-51.07-.139-.163-.423.024-.351.218,1.043,2.89,14.909,27.619,18.1,33.134,6.382,11.027,13.089,21.835,19.7,32.726,1.887,3.108,3.843,6.177,5.757,9.27s3.949,6.129,5.708,9.3C668.753,309.575,669.056,309.39,668.938,309.2Z" transform="translate(-351.803 -168.878)"/><path class="e" d="M735.823,244.176c-5.551-1.33-11.238-2.2-16.847-3.262s-11.25-2.119-16.877-3.166q-16.884-3.129-33.814-5.993c-22.516-3.788-45.125-6.936-67.853-9.116-12.832-1.231-25.693-2.041-38.546-2.984-.272-.018-.266.414.009.429,22.9,1.028,45.757,4.13,68.427,7.386q33.674,4.839,67.209,10.54,9.474,1.6,18.936,3.241c6.4,1.11,12.814,2.479,19.263,3.3C735.968,244.581,736.071,244.236,735.823,244.176Z" transform="translate(-468.525 -179.027)"/><g transform="translate(187.188 1.887)"><g transform="translate(0 256.93)"><path class="b" d="M736.841,493.123c-5.415-.541-140.211-61.126-143.89-66.686-1.406-2.1,6.271-22.247,16.242-46.326,2.153-5.2,4.405-10.558,6.727-15.985,15.018-35.251,31.78-72.306,31.78-72.306l90.284,40.267-34.265,71.2-7.507,15.634s41.231,46.28,44.614,52.811C744.179,478.248,742.259,493.665,736.841,493.123Z" transform="translate(-592.784 -291.82)"/><path class="c" d="M736.84,444.732c-5.415-.541-140.211-61.126-143.89-66.686-1.7-2.567,9.984-31.774,22.969-62.311l87.8,39.16-7.507,15.634s41.231,46.28,44.614,52.811C744.178,429.856,742.258,445.273,736.84,444.732Z" transform="translate(-592.783 -243.429)"/><g transform="translate(0 88.292)"><path class="d" d="M736.841,434.034c-5.415-.541-140.211-61.126-143.89-66.686-1.406-2.1,6.271-22.247,16.242-46.326l87.019,38.809s41.231,46.28,44.614,52.811C744.179,419.158,742.259,434.575,736.841,434.034Z" transform="translate(-592.784 -321.022)"/><g transform="translate(7.986 18.783)"><g transform="translate(0 7.592)"><path class="e" d="M731.989,396.961c-22.346-10.709-113.487-51.8-136.392-60.69-.184-.073-.242.051-.064.142,21.917,11.1,113.39,51.451,136.289,60.92C732.306,397.532,732.461,397.188,731.989,396.961Z" transform="translate(-595.425 -316.586)"/><path class="e" d="M657.32,349.752a19.9,19.9,0,0,0-16-.559c-4.184,1.805-8.523,5.04-10.47,9.8-.057.136.19.251.272.121,5.264-8.26,16.8-12.415,26.069-9.073A.156.156,0,0,0,657.32,349.752Z" transform="translate(-523.756 -293.253)"/><path class="e" d="M649.642,338.5c-8.986-4.191-20.907-5.711-29.851-.841-.348.19-.073.68.257.662a136.9,136.9,0,0,1,29.249,1.363A.625.625,0,0,0,649.642,338.5Z" transform="translate(-546.448 -319.877)"/><path class="e" d="M651.548,340.435c-8.989-4.191-20.907-5.711-29.854-.841-.345.191-.073.68.26.662a136.932,136.932,0,0,1,29.249,1.364A.625.625,0,0,0,651.548,340.435Z" transform="translate(-542.594 -315.956)"/><path class="e" d="M653.451,342.376c-8.986-4.194-20.907-5.714-29.851-.844-.348.19-.073.68.257.662a136.94,136.94,0,0,1,29.252,1.364A.622.622,0,0,0,653.451,342.376Z" transform="translate(-538.741 -312.034)"/><path class="e" d="M655.356,344.312c-8.989-4.191-20.907-5.711-29.851-.841-.348.187-.075.677.257.659a136.912,136.912,0,0,1,29.249,1.363A.623.623,0,0,0,655.356,344.312Z" transform="translate(-534.887 -308.111)"/><path class="e" d="M608.611,330.554c-10.162-4.532-17.222,11.253-7.045,15.792C611.728,350.878,618.787,335.093,608.611,330.554Z" transform="translate(-593.034 -329.745)"/></g><path class="e" d="M658.829,332.212c-2.869-5.853-10.3-4.735-14.9-2.062a52.038,52.038,0,0,0-18.612,19.432.262.262,0,0,0,.166.387c-.1.735.423,1.624,1.3,1.46,8.439-1.56,17.657-2.18,25.367-6.286C656.652,342.748,661.547,337.751,658.829,332.212Zm-19.734,14.235c-4.133.868-8.281,1.53-12.381,2.549a156,156,0,0,1,11.117-11.108,55.856,55.856,0,0,1,6.047-4.617c3.308-2.1,15.583-5.672,12.058,4.572C653.994,343.489,644.02,345.412,639.094,346.446Z" transform="translate(-535.015 -325.74)"/><path class="e" d="M621.8,344.331c7.332,4.75,16.46,6.156,24.738,8.435.859.236,1.451-.6,1.418-1.345a.26.26,0,0,0,.2-.369,52.029,52.029,0,0,0-16.88-20.956c-4.348-3.057-11.661-4.807-15.024.777C613.071,336.158,617.518,341.558,621.8,344.331Zm-3.148-7.6c-2.63-10.51,9.291-5.9,12.408-3.522a56.021,56.021,0,0,1,5.627,5.119,156.01,156.01,0,0,1,10.129,12.021c-4-1.37-8.076-2.382-12.121-3.6C629.872,345.292,620.1,342.523,618.649,336.73Z" transform="translate(-555.471 -327.234)"/></g></g></g><g transform="translate(25.195)"><path class="f" d="M601.117,527.8l101.54,45.915s120.861-231.979,124.02-302.986c2.688-60.433-39.384-83.756-175.38-44.666l-33.322.42v22.987c14.628,1.932,53.64,8.058,53.64,8.058,28.387,10.706,37.53,15.139,37.071,16.061C637.9,416.539,601.117,527.8,601.117,527.8Z" transform="translate(-601.117 -206.842)"/><path class="e" d="M709.816,222.543c-4.1,5.46-7.891,11.151-11.519,16.95-21.814-9.7-45.561-15.32-69.186-18.232q-10.032-1.238-20.13-1.793c-.275-.015-.26.411.012.426,23.961,1.482,47.481,6.358,70.4,13.4,6.325,1.944,12.529,4.2,18.758,6.425-4.36,6.978-8.466,14.123-12.411,21.316a426.007,426.007,0,0,0-19.858,41.449c-3.259,7.84-6.437,15.734-9.24,23.752-.079.227.3.375.4.154q18.6-41.488,40.623-81.211c4.148-7.477,8.469-14.845,12.517-22.377C710.291,222.592,709.974,222.335,709.816,222.543Z" transform="translate(-585.609 -181.293)"/><g transform="translate(13.55 51.567)"><path d="M695.8,345.66c-5.923-2.3-11.662-5.188-17.455-7.8q-8.717-3.923-17.442-7.831c-11.6-5.194-51.747-21.829-55.069-22.61-.212-.051-.324.272-.154.384,2.567,1.69,28.472,13.21,34.328,15.716,11.713,5.019,23.553,9.666,35.366,14.434,3.374,1.364,6.776,2.652,10.162,3.985s6.83,2.549,10.138,4.039C695.878,346.071,696.011,345.741,695.8,345.66Z" transform="translate(-605.599 -54.899)"/><path d="M706.677,224.06c-8.012,15.226-14.836,31.154-21.8,46.882q-10.4,23.5-20.212,47.251-19.538,47.293-36.412,95.636c-6.379,18.223-12.348,36.584-18.159,54.994-.085.266.329.363.414.106,10.761-32.551,22.41-64.82,34.58-96.866q18.213-47.955,38.679-95.031,5.746-13.211,11.677-26.344c3.955-8.756,8.073-17.461,11.773-26.328C707.372,224,706.867,223.7,706.677,224.06Z" transform="translate(-596.518 -223.897)"/></g></g></g></g><g transform="translate(168.434 93.616)"><path class="d" d="M586.8,333.77c2.3,2.277,143.476.913,144.156,0,1.853-2.491-19.281-91.424-35.139-125.157-20.33-43.257-31.078-46.858-37.494-49.262-8.2-3.078-22.906-1.811-26.416-.215-3.979,1.79-20.856,22-25.588,38.047C596.815,229.421,584.8,331.768,586.8,333.77Z" transform="translate(-586.581 -157.47)"/></g><g transform="translate(183.727 95.333)"><g transform="translate(0 1.758)"><path class="g" d="M633.578,168.143c62.32,43.738,116.99,105.468,112.594,125.716-4.65,21.409-45.93,46.549-82.9,52.605-7.574,1.24-32.917-53.763-25.213-56.578,6-2.2,33.349-10.939,36.523-14.83,2.21-2.709-42.583-61.567-57.54-92.57C601.387,150.041,616.894,156.433,633.578,168.143Z" transform="translate(-553.369 -158.619)"/><g transform="translate(0 129.063)"><path class="g" d="M691.951,201.306s-23.139,3.09-38.175,5.823c-8.387,1.524-22.534,5.421-28.185,9.361-8.451,5.89-40.034,35.928-32.917,43.744,6.443,7.072,15.438-4.747,15.438-4.747s-11.045,12-2.5,17.046c8.626,5.1,18.842-11.441,18.842-11.441s-12.608,11.925-2.969,16.445c8.366,3.927,22.2-13.838,22.2-13.838s-14.609,11.063-6.431,15.925c9.037,5.37,33.125-18.661,33.125-18.661,19.943,1.569,32.13-.181,46-4.565C718.933,255.593,691.951,201.306,691.951,201.306Z" transform="translate(-591.639 -201.306)"/><g transform="translate(14.2 31.638)"><path class="e" d="M602.767,238.2c.859-1.264,1.748-2.506,2.609-3.767a74.313,74.313,0,0,1,5.33-7.148c1.9-2.189,3.9-4.281,5.965-6.322,2.177-2.153,4.59-4.1,6.712-6.3a.171.171,0,1,1,.239.242,79.214,79.214,0,0,0-5.98,6.824c-1.911,2.271-3.788,4.568-5.666,6.866-1.835,2.246-3.81,4.348-5.708,6.54-.943,1.091-1.841,2.228-2.739,3.359a24.19,24.19,0,0,1-2.627,3.181c-.1.091-.242-.042-.2-.154A18.989,18.989,0,0,1,602.767,238.2Z" transform="translate(-587.513 -206.051)"/><path class="e" d="M596.358,236.856c1.037-2.364,7.743-11.3,9.593-13.488a83.292,83.292,0,0,1,11.888-11.562.171.171,0,0,1,.236.242c-3.559,4.245-7.184,8.448-10.8,12.647-1.772,2.053-9.521,11.619-10.458,12.52C596.59,237.43,596.246,237.109,596.358,236.856Z" transform="translate(-596.336 -211.77)"/><path class="e" d="M606.071,240.008c1.1-2.207,7.459-10.531,9.252-12.517a107.092,107.092,0,0,1,12.145-10.3c.163-.1.378.106.239.245-3.77,3.725-7.6,7.374-11.184,11.278-1.75,1.9-8.284,9.89-10.113,11.562C606.246,240.425,605.974,240.2,606.071,240.008Z" transform="translate(-576.679 -200.851)"/></g></g></g><g transform="translate(54.882)"><path class="f" d="M704.595,223.476l-45.346,31.538s-36.1-52.092-45.842-77.008.665-25.313,25.563-7.843S704.595,223.476,704.595,223.476Z" transform="translate(-609.791 -158.038)"/><path d="M662.994,177.81c-17.216,14.634-34.338,24.8-37.721,27.278-.16.118-.33-.151-.163-.263,3.447-2.256,21.884-16.762,37.7-27.3C663,177.4,663.157,177.671,662.994,177.81Z" transform="translate(-578.933 -118.673)"/><path d="M651.419,223.387a26.393,26.393,0,0,0-2.766,1.554c-5.439-8.72-11.28-17.542-16.8-26.214q-4.059-6.372-8.118-12.744c-2.806-4.423-5.382-9.061-8.426-13.325a.118.118,0,0,0-.2.124c1.932,4.257,4.387,8.324,6.73,12.381-.493-.614-.964-1.249-1.5-1.841-1.185-1.321-2.349-2.649-3.429-4.061-.166-.218-.532.006-.363.227,1.028,1.348,1.956,2.745,2.879,4.169s1.926,2.776,2.945,4.133c.986,1.309,2.056,2.54,3.129,3.773.13.151.26.305.39.457,1.5,2.537,2.96,5.095,4.517,7.6,5.442,8.774,17.724,26.407,17.881,26.35a25.622,25.622,0,0,0,3.281-2.334C651.7,223.523,651.549,223.363,651.419,223.387Z" transform="translate(-599.059 -128.563)"/></g></g><g transform="translate(84.147 95.334)"><g transform="translate(0 1.372)"><path class="g" d="M662.229,169.139c-48.542,27.269-93.885,59.971-101.879,81.924-5.031,13.817,2.528,38.307,8.523,53,2.921,7.154,70.287-23.248,64.418-29.062-14.516-14.383-16.94-20.266-15.538-23.317.9-1.95,53.4-50.616,67.868-72.255C705.782,149.278,683.466,157.211,662.229,169.139Z" transform="translate(-558.704 -158.492)"/><g transform="translate(5.957 98.918)"><path class="g" d="M657.277,274.931c-6.331,3.831-14.446-12.578-14.446-12.578a13.66,13.66,0,0,1-3.534,8.584c-3.973,3.979-11.955-.5-11.955-.5a16.836,16.836,0,0,1-5.17,8.46c-4.187,3.426-12.886.051-12.886.051a14.779,14.779,0,0,1-9.234,4.575c-9.461.6-17.9-11.163-23.338-18.585s-13.92-33.576-16.039-38.4l47.345-35.329s33.869,26.35,39.027,35.985C651.39,235.315,666.952,269.081,657.277,274.931Z" transform="translate(-560.674 -191.208)"/><g transform="translate(33.924 43.229)"><path class="e" d="M596.277,233.183c-2.549-9.742-7.423-18.851-12.221-27.592a.173.173,0,0,0-.3.169c4.877,8.638,7.559,18.785,12.079,27.6A.242.242,0,0,0,596.277,233.183Z" transform="translate(-547.944 -205.506)"/><path class="e" d="M593.478,233.452a26.1,26.1,0,0,0-3.19-6.077q-1.914-3.107-3.931-6.147-4.036-6.091-8.369-11.973c-.127-.172-.426-.018-.3.169,2.673,4.051,5.285,8.142,7.785,12.3q1.877,3.12,3.7,6.274a31.155,31.155,0,0,0,3.719,5.775A.347.347,0,0,0,593.478,233.452Z" transform="translate(-560.229 -198.07)"/><path class="e" d="M586.473,234.9c-.481-1.923-2.05-3.71-3.163-5.318q-1.9-2.735-3.761-5.494c-2.485-3.674-4.971-7.353-7.329-11.111-.118-.187-.417-.021-.3.169,2.373,3.831,4.7,7.7,7.105,11.507q1.778,2.807,3.58,5.6c1.025,1.578,2.122,3.67,3.689,4.783A.122.122,0,0,0,586.473,234.9Z" transform="translate(-571.894 -190.564)"/></g></g></g><g transform="translate(33.459)"><path class="h" d="M569.77,210.825l37.3,34.268s46.175-43.644,59.188-67.018,2.757-25.17-24.272-11.22S569.77,210.825,569.77,210.825Z" transform="translate(-569.77 -158.038)"/><path class="f" d="M569.77,210.825l37.3,34.268s46.175-43.644,59.188-67.018,2.757-25.17-24.272-11.22S569.77,210.825,569.77,210.825Z" transform="translate(-569.77 -158.038)"/><path d="M606.559,204.416c-17.158-13.639-29.944-27.979-32.926-30.728-.142-.13.094-.339.23-.2,2.778,2.848,20.018,17.663,32.95,30.706C606.961,204.346,606.722,204.546,606.559,204.416Z" transform="translate(-562.041 -126.866)"/></g><path d="M601.035,167.815c-1.7,3.93-3.383,7.855-4.774,11.9.015-.269.024-.538.036-.807a50.441,50.441,0,0,1,.874-7.314c.054-.269-.36-.372-.414-.1-.472,2.428-.883,4.883-1.194,7.338-.148,1.176-.218,2.367-.269,3.553-.006.121-.021.278-.036.426-.015.048-.033.1-.048.151-1.575,5.367-2.513,10.845-3.846,16.266a.214.214,0,0,0,.414.1c1.306-5.312,3.262-10.476,4.958-15.677s3.02-10.488,4.635-15.7C601.428,167.755,601.117,167.625,601.035,167.815Z" transform="translate(-492.633 -138.442)"/></g><g transform="translate(182.924)"><g transform="translate(25.677 66.01)"><path class="g" d="M609.118,201.969c8.009,1.929,21.82-10.262,27.3-20.167.372-.68-.641-7.858-1.457-16.638-.478-5.333-.88-11.281-.856-16.732.009-1.119-34.238,8.16-34.238,8.16s3.311,11.447,3.214,20.953a12.422,12.422,0,0,1-.245,2.237c-.012.1-.042.227-.051.369C602.073,184.4,601.378,200.1,609.118,201.969Z" transform="translate(-599.866 -148.339)"/><path class="e" d="M632,148.414c-1.627,9.213-7.456,31.462-25.709,31.795a20.543,20.543,0,0,1-3.5-.2,1.612,1.612,0,0,1,.045-.375,13.669,13.669,0,0,0,.251-2.231c.1-9.524-3.223-20.968-3.223-20.968S624.571,149.738,632,148.414Z" transform="translate(-599.866 -148.187)"/></g><g transform="translate(5.95 6.708)"><path class="g" d="M645.483,142.911c6.014,11.163,6.621,46.77-.3,56.125-10.035,13.56-29.893,18.646-42.283,5.8-12.006-12.451-11.976-58.873-3.925-67.726C610.831,124.068,636.6,126.421,645.483,142.911Z" transform="translate(-593.342 -128.725)"/></g><path class="i" d="M610.749,151.821l0-.012" transform="translate(-552.174 -75.308)"/><g transform="translate(9.324 39.194)"><g transform="translate(21.606 10.965)"><path class="e" d="M601.732,143.959c.018-.091.19.112.19.209-.024,2.4.354,5.152,2.543,5.9.067.021.061.142-.018.133C601.789,149.888,601.327,146.23,601.732,143.959Z" transform="translate(-601.603 -141.397)"/><path class="e" d="M603.79,143.11c3.849-.378,4.321,7.35.753,7.7C601.033,151.155,600.561,143.424,603.79,143.11Z" transform="translate(-601.573 -143.097)"/></g><g transform="translate(3.195 12.048)"><path class="e" d="M598.724,144.254c-.024-.091-.178.124-.169.221.221,2.389.072,5.164-2.044,6.092-.066.027-.051.148.027.133C599.16,150.165,599.317,146.479,598.724,144.254Z" transform="translate(-593.582 -141.883)"/><path class="e" d="M598.368,143.455c-3.87-.057-3.7,7.683-.115,7.737C601.778,151.244,601.609,143.5,598.368,143.455Z" transform="translate(-595.514 -143.455)"/></g><path class="e" d="M607.93,144.117a31.708,31.708,0,0,1-3.166-.321,5.15,5.15,0,0,1-3.162-.943,1.641,1.641,0,0,1-.212-1.989c.886-1.273,2.413-1.475,3.879-1.37a5.96,5.96,0,0,1,3.949,1.7A1.748,1.748,0,0,1,607.93,144.117Z" transform="translate(-580.917 -139.47)"/><path class="e" d="M596.615,145.263a29.441,29.441,0,0,0,3.023-.986,5.129,5.129,0,0,0,2.89-1.59,1.641,1.641,0,0,0-.215-1.989c-1.137-1.055-2.673-.928-4.082-.514a5.959,5.959,0,0,0-3.5,2.5A1.746,1.746,0,0,0,596.615,145.263Z" transform="translate(-594.458 -138.641)"/><path class="e" d="M606.533,151.253c-.541.6-1.065,1.4-1.929,1.53a6.327,6.327,0,0,1-2.612-.447.083.083,0,0,0-.094.13,3.236,3.236,0,0,0,3.117,1.116,2.557,2.557,0,0,0,1.753-2.234C606.8,151.207,606.611,151.165,606.533,151.253Z" transform="translate(-579.441 -115.721)"/><g transform="translate(10.228 3.177)"><path class="e" d="M611.75,165.862a8.179,8.179,0,0,1-5.222,3.961,10.292,10.292,0,0,1-2.924.311,2.9,2.9,0,0,1-.565-.03c-.175-.009-.333-.021-.529-.048a.6.6,0,0,1-.514-.5v-.018a1.14,1.14,0,0,1,.009-.248l0-.018-.006-.209c-.163-1.841-.157-4.656-.157-4.656-.653.378-3.991,2.135-4,1.167-.009-8-.021-16.9,1.657-24.865a.223.223,0,0,1,.441.033c.314,7.692-.726,15.383-.532,23.115a14.286,14.286,0,0,1,3.776-1.4c.266.057-.112,5.439.027,6.259a.382.382,0,0,0,.021.088c3.12.206,5.4-.871,8.278-3.135C611.68,165.514,611.88,165.662,611.75,165.862Z" transform="translate(-597.84 -140.521)"/></g><g transform="translate(17.023 28.454)"><path class="e" d="M600.088,152.216a9.714,9.714,0,0,0,4.055,2.767,4.369,4.369,0,0,0,2.655,0c1.881-.62,1.82-2.376,1.379-3.858a10.4,10.4,0,0,0-1-2.246A12.538,12.538,0,0,1,600.088,152.216Z" transform="translate(-600.088 -148.881)"/><path class="j" d="M601.429,153.479a4.37,4.37,0,0,0,2.655,0c1.881-.62,1.82-2.376,1.379-3.858C603.424,149.96,601.48,151.474,601.429,153.479Z" transform="translate(-597.375 -147.378)"/></g></g><path class="e" d="M600.4,157.529c12.6,6.609,27.112-7.362,27.112-7.362a12.755,12.755,0,0,0,13.805,6.5s4.632,19.456,9.82,18.8c7.921-.989,7.181-28.179,4.057-33.168s-10.008-5.548-10.008-5.548-.98-4.042-6.319-7.2c-5.9-3.5-23.916,4.29-23.916,4.29a17.464,17.464,0,0,0-5.548-5.89,4.927,4.927,0,0,0-6.975,1.481,11.829,11.829,0,0,1,2.479,4.641c1.617,5.663-3.1,6.216-3.68.974a8.216,8.216,0,0,1,1.2-5.615c-2.733-3.147-6.667-3.81-8.756-1.705C589.881,131.551,589.923,152.041,600.4,157.529Z" transform="translate(-591.374 -126.507)"/><g transform="translate(6.367 42.948)"><path class="h" d="M600.729,160.924c-3.586.257-6.824-3.949-7.211-9.373s2.219-10.047,5.805-10.3,6.824,3.949,7.211,9.373S604.317,160.667,600.729,160.924Zm-1.309-18.359c-2.863.206-4.919,4.194-4.583,8.892s2.939,8.351,5.8,8.145,4.916-4.191,4.581-8.889S602.279,142.36,599.419,142.566Z" transform="translate(-593.479 -139.65)"/><path class="h" d="M609.806,160.411c-5.064.36-9.5-3.758-9.887-9.182s3.417-10.135,8.481-10.495,9.506,3.758,9.893,9.182S614.873,160.048,609.806,160.411ZM608.5,142.052c-4.339.308-7.595,4.384-7.26,9.083s4.136,8.266,8.475,7.955,7.6-4.381,7.262-9.079S612.836,141.741,608.5,142.052Z" transform="translate(-580.504 -140.712)"/><path class="h" d="M605.422,145.126c-5.046-1.376-7.156.393-7.175.411l-.889-.98c.1-.1,2.591-2.3,8.414-.708Z" transform="translate(-585.631 -135.525)"/><path class="h" d="M605.964,148.133l-.336-1.276c.844-.221,20.657-5.361,22.833-5.639,2.295-.327,7.87,2.328,8.5,2.627l-.565,1.191c-1.581-.753-5.977-2.639-7.667-2.519l-.1.009C626.953,142.742,613.069,146.289,605.964,148.133Z" transform="translate(-568.897 -139.742)"/></g><g transform="translate(56.096 39.488)"><path class="g" d="M610.193,150.436s5.793-12.55,11.353-10.679,2.6,19.087-2.942,22.368a6.138,6.138,0,0,1-8.677-1.793Z" transform="translate(-609.927 -139.567)"/><path class="e" d="M618.508,141.257a.084.084,0,0,1,.061.154c-3.861,2.437-5.361,6.691-6.177,10.972.961-1.766,2.5-2.912,4.825-1.808.124.057.048.245-.073.242a3.781,3.781,0,0,0-3.858,2.032,18.347,18.347,0,0,0-1.363,3.658c-.127.408-.834.33-.771-.124l.018-.1C610.109,150.99,612.9,142.817,618.508,141.257Z" transform="translate(-607.86 -136.154)"/></g></g><path class="e" d="M640.771,161.8c-3.731,4.665-7.286,9.424-11.513,13.633-3.955,3.943-8.735,7.535-14.3,8.281-5.391.72-10.842-.157-13.119-6.7-1.8-5.185-1.766-10.6-1.119-17.361a.206.206,0,1,0-.405-.045c-.868,8.714-1.6,22.183,6.395,24.85,8.946,2.981,17.4-1.914,23.332-8.254a81.578,81.578,0,0,0,10.9-14.28C641,161.829,640.847,161.711,640.771,161.8Z" transform="translate(-391.402 -59.936)"/><g transform="translate(90.469 199.022)"><path class="k" d="M732.042,299.7H573.956L560.795,192.332H718.88Z" transform="translate(-560.795 -192.332)"/><path class="c" d="M605.178,216.526a9.422,9.422,0,0,1-9.455,9.624,9.826,9.826,0,0,1-9.79-9.624,9.42,9.42,0,0,1,9.451-9.621A9.831,9.831,0,0,1,605.178,216.526Z" transform="translate(-509.931 -162.844)"/></g></g><g transform="translate(812.251 89.586)"><path class="c" d="M787.471,172.555a74.92,74.92,0,0,1-125.208,47.4l-37.491,5.506,18.761-32.412a74.946,74.946,0,1,1,143.939-20.493Z" transform="translate(-622.248 -89.144)"/><path class="e" d="M789.161,173a75.45,75.45,0,0,1-15.124,37.99c-1.965,2.854-4.5,5.237-6.793,7.819a83.863,83.863,0,0,1-7.91,6.694,73.81,73.81,0,0,1-18.077,10.065c-6.407,2.7-13.3,3.985-20.176,4.813a73.851,73.851,0,0,1-10.41.2A65.63,65.63,0,0,1,700.3,239.5a75.6,75.6,0,0,1-37.077-18.3l.886.272-37.455,5.751-2.718.417,1.376-2.395,18.649-32.478-.088,1.282c-9.083-21.388-7.036-46.861,4.617-66.792a76.623,76.623,0,0,1,23.471-24.992,76.238,76.238,0,0,1,65.87-8.871,76.577,76.577,0,0,1,28.9,17.721C783.28,126.838,791.6,150.433,789.161,173Zm0,0c2.28-22.585-6.2-46.036-22.752-61.552a75.612,75.612,0,0,0-28.9-17.052,74.768,74.768,0,0,0-33.331-2.5,73.621,73.621,0,0,0-30.948,12.227A77.2,77.2,0,0,0,650.8,128.579c-5.678,9.621-8.62,20.644-9.512,31.71a74.875,74.875,0,0,0,5.276,32.645l.269.671-.357.614-18.87,32.345-1.339-1.977,37.527-5.255.517-.073.369.345A73.813,73.813,0,0,0,700.57,238.09a64.557,64.557,0,0,0,10.165,1.237,73.014,73.014,0,0,0,10.256-.015c6.788-.7,13.627-1.847,20.015-4.408a69.755,69.755,0,0,0,18.077-9.742A84.12,84.12,0,0,0,767,218.552c2.3-2.552,4.841-4.91,6.818-7.74A75.293,75.293,0,0,0,789.161,173Z" transform="translate(-623.937 -89.586)"/><path class="a" d="M672.453,185.617l-32.008-32.4L651.2,142.592l18.7,18.925,38.846-60.9,12.746,8.129Z" transform="translate(-590.535 -67.263)"/></g></g></svg>