<svg xmlns="http://www.w3.org/2000/svg" xmlns:xlink="http://www.w3.org/1999/xlink" width="2789.243" height="760.003" viewBox="0 0 2789.243 760.003"><defs><style>.a,.f{fill:#fdebeb;}.b,.c{fill:#f6d2df;}.c,.f{fill-rule:evenodd;}.d{clip-path:url(#a);}.e{clip-path:url(#b);}</style><clipPath id="a"><rect class="a" width="1920" height="760.003"/></clipPath><clipPath id="b"><rect class="a" width="899.955" height="209.703"/></clipPath></defs><g transform="translate(503)"><g transform="translate(0 0)"><g transform="translate(628.069 178.01)"><g transform="translate(0 358)"><path class="b" d="M290.619,124.732a2.266,2.266,0,1,0,2.266-2.268A2.267,2.267,0,0,0,290.619,124.732Z" transform="translate(16.023 -122.464)"/><path class="b" d="M302.477,124.732a2.266,2.266,0,1,0,2.266-2.268A2.267,2.267,0,0,0,302.477,124.732Z" transform="translate(-26.194 -122.464)"/><ellipse class="b" cx="2.266" cy="2.266" rx="2.266" ry="2.266" transform="translate(245.922 0.001)"/><path class="b" d="M326.194,124.732a2.266,2.266,0,1,0,2.266-2.268A2.267,2.267,0,0,0,326.194,124.732Z" transform="translate(-110.632 -122.464)"/><path class="b" d="M290.619,136.316a2.266,2.266,0,1,0,2.266-2.266A2.265,2.265,0,0,0,290.619,136.316Z" transform="translate(16.023 -104.387)"/><path class="b" d="M302.477,136.316a2.266,2.266,0,1,0,2.266-2.266A2.265,2.265,0,0,0,302.477,136.316Z" transform="translate(-26.194 -104.387)"/><path class="b" d="M314.336,136.316a2.266,2.266,0,1,0,2.266-2.266A2.265,2.265,0,0,0,314.336,136.316Z" transform="translate(-68.415 -104.387)"/><path class="b" d="M326.194,136.316a2.266,2.266,0,1,0,2.266-2.266A2.265,2.265,0,0,0,326.194,136.316Z" transform="translate(-110.632 -104.387)"/><path class="b" d="M290.619,147.9a2.266,2.266,0,1,0,2.266-2.266A2.265,2.265,0,0,0,290.619,147.9Z" transform="translate(16.023 -86.311)"/><path class="b" d="M302.477,147.9a2.266,2.266,0,1,0,2.266-2.266A2.265,2.265,0,0,0,302.477,147.9Z" transform="translate(-26.194 -86.311)"/><ellipse class="b" cx="2.266" cy="2.266" rx="2.266" ry="2.266" transform="translate(245.922 59.326)"/><path class="b" d="M326.194,147.9a2.266,2.266,0,1,0,2.266-2.266A2.265,2.265,0,0,0,326.194,147.9Z" transform="translate(-110.632 -86.311)"/><path class="b" d="M290.619,159.808a2.266,2.266,0,1,0,2.266-2.266A2.267,2.267,0,0,0,290.619,159.808Z" transform="translate(16.023 -67.735)"/><path class="b" d="M302.477,159.808a2.266,2.266,0,1,0,2.266-2.266A2.267,2.267,0,0,0,302.477,159.808Z" transform="translate(-26.194 -67.735)"/><ellipse class="b" cx="2.266" cy="2.266" rx="2.266" ry="2.266" transform="translate(245.922 89.806)"/><path class="b" d="M326.194,159.808a2.266,2.266,0,1,0,2.266-2.266A2.267,2.267,0,0,0,326.194,159.808Z" transform="translate(-110.632 -67.735)"/><path class="b" d="M290.619,171.393a2.266,2.266,0,1,0,2.266-2.266A2.267,2.267,0,0,0,290.619,171.393Z" transform="translate(16.023 -49.66)"/><path class="b" d="M302.477,171.393a2.266,2.266,0,1,0,2.266-2.266A2.267,2.267,0,0,0,302.477,171.393Z" transform="translate(-26.194 -49.66)"/><ellipse class="b" cx="2.266" cy="2.266" rx="2.266" ry="2.266" transform="translate(245.922 119.468)"/><path class="b" d="M326.194,171.393a2.266,2.266,0,1,0,2.266-2.266A2.267,2.267,0,0,0,326.194,171.393Z" transform="translate(-110.632 -49.66)"/><path class="b" d="M290.619,182.979a2.266,2.266,0,1,0,2.266-2.266A2.265,2.265,0,0,0,290.619,182.979Z" transform="translate(16.023 -31.583)"/><path class="b" d="M302.477,182.979a2.266,2.266,0,1,0,2.266-2.266A2.265,2.265,0,0,0,302.477,182.979Z" transform="translate(-26.194 -31.583)"/><ellipse class="b" cx="2.266" cy="2.266" rx="2.266" ry="2.266" transform="translate(245.922 149.13)"/><path class="b" d="M326.194,182.979a2.266,2.266,0,1,0,2.266-2.266A2.265,2.265,0,0,0,326.194,182.979Z" transform="translate(-110.632 -31.583)"/><ellipse class="b" cx="2.266" cy="2.266" rx="2.266" ry="2.266" transform="translate(183.681 0.001)"/><ellipse class="b" cx="2.266" cy="2.266" rx="2.266" ry="2.266" transform="translate(153.321 0.001)"/><path class="b" d="M362.363,124.732a2.266,2.266,0,1,0,2.266-2.268A2.267,2.267,0,0,0,362.363,124.732Z" transform="translate(-239.401 -122.464)"/><path class="b" d="M374.221,124.732a2.267,2.267,0,1,0,2.268-2.268A2.269,2.269,0,0,0,374.221,124.732Z" transform="translate(-281.62 -122.464)"/><path class="b" d="M338.646,136.316a2.266,2.266,0,1,0,2.266-2.266A2.265,2.265,0,0,0,338.646,136.316Z" transform="translate(-154.963 -104.387)"/><path class="b" d="M350.505,136.316a2.266,2.266,0,1,0,2.266-2.266A2.265,2.265,0,0,0,350.505,136.316Z" transform="translate(-197.184 -104.387)"/><path class="b" d="M362.363,136.316a2.266,2.266,0,1,0,2.266-2.266A2.265,2.265,0,0,0,362.363,136.316Z" transform="translate(-239.401 -104.387)"/><path class="b" d="M374.221,136.316a2.267,2.267,0,1,0,2.268-2.266A2.267,2.267,0,0,0,374.221,136.316Z" transform="translate(-281.62 -104.387)"/><ellipse class="b" cx="2.266" cy="2.266" rx="2.266" ry="2.266" transform="translate(183.681 59.326)"/><ellipse class="b" cx="2.266" cy="2.266" rx="2.266" ry="2.266" transform="translate(153.321 59.326)"/><path class="b" d="M362.363,147.9a2.266,2.266,0,1,0,2.266-2.266A2.265,2.265,0,0,0,362.363,147.9Z" transform="translate(-239.401 -86.311)"/><path class="b" d="M374.221,147.9a2.267,2.267,0,1,0,2.268-2.266A2.267,2.267,0,0,0,374.221,147.9Z" transform="translate(-281.62 -86.311)"/><ellipse class="b" cx="2.266" cy="2.266" rx="2.266" ry="2.266" transform="translate(183.681 89.806)"/><ellipse class="b" cx="2.266" cy="2.266" rx="2.266" ry="2.266" transform="translate(153.321 89.806)"/><path class="b" d="M362.363,159.808a2.266,2.266,0,1,0,2.266-2.266A2.267,2.267,0,0,0,362.363,159.808Z" transform="translate(-239.401 -67.735)"/><path class="b" d="M374.221,159.808a2.267,2.267,0,1,0,2.268-2.266A2.269,2.269,0,0,0,374.221,159.808Z" transform="translate(-281.62 -67.735)"/><ellipse class="b" cx="2.266" cy="2.266" rx="2.266" ry="2.266" transform="translate(183.681 119.468)"/><ellipse class="b" cx="2.266" cy="2.266" rx="2.266" ry="2.266" transform="translate(153.321 119.468)"/><path class="b" d="M362.363,171.393a2.266,2.266,0,1,0,2.266-2.266A2.267,2.267,0,0,0,362.363,171.393Z" transform="translate(-239.401 -49.66)"/><path class="b" d="M374.221,171.393a2.267,2.267,0,1,0,2.268-2.266A2.269,2.269,0,0,0,374.221,171.393Z" transform="translate(-281.62 -49.66)"/><ellipse class="b" cx="2.266" cy="2.266" rx="2.266" ry="2.266" transform="translate(183.681 149.13)"/><ellipse class="b" cx="2.266" cy="2.266" rx="2.266" ry="2.266" transform="translate(153.321 149.13)"/><path class="b" d="M362.363,182.979a2.266,2.266,0,1,0,2.266-2.266A2.265,2.265,0,0,0,362.363,182.979Z" transform="translate(-239.401 -31.583)"/><path class="b" d="M374.221,182.979a2.267,2.267,0,1,0,2.268-2.266A2.267,2.267,0,0,0,374.221,182.979Z" transform="translate(-281.62 -31.583)"/><path class="b" d="M386.674,124.732a2.266,2.266,0,1,0,2.266-2.268A2.267,2.267,0,0,0,386.674,124.732Z" transform="translate(-325.953 -122.464)"/><path class="b" d="M398.532,124.732a2.266,2.266,0,1,0,2.266-2.268A2.267,2.267,0,0,0,398.532,124.732Z" transform="translate(-368.17 -122.464)"/><ellipse class="b" cx="2.266" cy="2.266" rx="2.266" ry="2.266" transform="translate(0.001 0.001)"/><path class="b" d="M386.674,136.316a2.266,2.266,0,1,0,2.266-2.266A2.265,2.265,0,0,0,386.674,136.316Z" transform="translate(-325.953 -104.387)"/><path class="b" d="M398.532,136.316a2.266,2.266,0,1,0,2.266-2.266A2.265,2.265,0,0,0,398.532,136.316Z" transform="translate(-368.17 -104.387)"/><path class="b" d="M410.39,136.316a2.267,2.267,0,1,0,2.268-2.266A2.267,2.267,0,0,0,410.39,136.316Z" transform="translate(-410.39 -104.387)"/><path class="b" d="M386.674,147.9a2.266,2.266,0,1,0,2.266-2.266A2.265,2.265,0,0,0,386.674,147.9Z" transform="translate(-325.953 -86.311)"/><path class="b" d="M398.532,147.9a2.266,2.266,0,1,0,2.266-2.266A2.265,2.265,0,0,0,398.532,147.9Z" transform="translate(-368.17 -86.311)"/><ellipse class="b" cx="2.266" cy="2.266" rx="2.266" ry="2.266" transform="translate(0.001 59.326)"/><path class="b" d="M386.674,159.808a2.266,2.266,0,1,0,2.266-2.266A2.267,2.267,0,0,0,386.674,159.808Z" transform="translate(-325.953 -67.735)"/><path class="b" d="M398.532,159.808a2.266,2.266,0,1,0,2.266-2.266A2.267,2.267,0,0,0,398.532,159.808Z" transform="translate(-368.17 -67.735)"/><ellipse class="b" cx="2.266" cy="2.266" rx="2.266" ry="2.266" transform="translate(0.001 89.806)"/><path class="b" d="M386.674,171.393a2.266,2.266,0,1,0,2.266-2.266A2.267,2.267,0,0,0,386.674,171.393Z" transform="translate(-325.953 -49.66)"/><path class="b" d="M398.532,171.393a2.266,2.266,0,1,0,2.266-2.266A2.267,2.267,0,0,0,398.532,171.393Z" transform="translate(-368.17 -49.66)"/><ellipse class="b" cx="2.266" cy="2.266" rx="2.266" ry="2.266" transform="translate(0.001 119.468)"/><path class="b" d="M386.674,182.979a2.266,2.266,0,1,0,2.266-2.266A2.265,2.265,0,0,0,386.674,182.979Z" transform="translate(-325.953 -31.583)"/><path class="b" d="M398.532,182.979a2.266,2.266,0,1,0,2.266-2.266A2.265,2.265,0,0,0,398.532,182.979Z" transform="translate(-368.17 -31.583)"/><ellipse class="b" cx="2.266" cy="2.266" rx="2.266" ry="2.266" transform="translate(0.001 149.13)"/></g><g transform="translate(1347)"><path class="b" d="M290.619,124.732a2.266,2.266,0,1,0,2.266-2.268A2.267,2.267,0,0,0,290.619,124.732Z" transform="translate(16.023 -122.464)"/><path class="b" d="M302.477,124.732a2.266,2.266,0,1,0,2.266-2.268A2.267,2.267,0,0,0,302.477,124.732Z" transform="translate(-26.194 -122.464)"/><ellipse class="b" cx="2.266" cy="2.266" rx="2.266" ry="2.266" transform="translate(245.922 0.001)"/><path class="b" d="M326.194,124.732a2.266,2.266,0,1,0,2.266-2.268A2.267,2.267,0,0,0,326.194,124.732Z" transform="translate(-110.632 -122.464)"/><path class="b" d="M290.619,136.316a2.266,2.266,0,1,0,2.266-2.266A2.265,2.265,0,0,0,290.619,136.316Z" transform="translate(16.023 -104.387)"/><path class="b" d="M302.477,136.316a2.266,2.266,0,1,0,2.266-2.266A2.265,2.265,0,0,0,302.477,136.316Z" transform="translate(-26.194 -104.387)"/><path class="b" d="M314.336,136.316a2.266,2.266,0,1,0,2.266-2.266A2.265,2.265,0,0,0,314.336,136.316Z" transform="translate(-68.415 -104.387)"/><path class="b" d="M326.194,136.316a2.266,2.266,0,1,0,2.266-2.266A2.265,2.265,0,0,0,326.194,136.316Z" transform="translate(-110.632 -104.387)"/><path class="b" d="M290.619,147.9a2.266,2.266,0,1,0,2.266-2.266A2.265,2.265,0,0,0,290.619,147.9Z" transform="translate(16.023 -86.311)"/><path class="b" d="M302.477,147.9a2.266,2.266,0,1,0,2.266-2.266A2.265,2.265,0,0,0,302.477,147.9Z" transform="translate(-26.194 -86.311)"/><ellipse class="b" cx="2.266" cy="2.266" rx="2.266" ry="2.266" transform="translate(245.922 59.326)"/><path class="b" d="M326.194,147.9a2.266,2.266,0,1,0,2.266-2.266A2.265,2.265,0,0,0,326.194,147.9Z" transform="translate(-110.632 -86.311)"/><path class="b" d="M290.619,159.808a2.266,2.266,0,1,0,2.266-2.266A2.267,2.267,0,0,0,290.619,159.808Z" transform="translate(16.023 -67.735)"/><path class="b" d="M302.477,159.808a2.266,2.266,0,1,0,2.266-2.266A2.267,2.267,0,0,0,302.477,159.808Z" transform="translate(-26.194 -67.735)"/><ellipse class="b" cx="2.266" cy="2.266" rx="2.266" ry="2.266" transform="translate(245.922 89.806)"/><path class="b" d="M326.194,159.808a2.266,2.266,0,1,0,2.266-2.266A2.267,2.267,0,0,0,326.194,159.808Z" transform="translate(-110.632 -67.735)"/><path class="b" d="M290.619,171.393a2.266,2.266,0,1,0,2.266-2.266A2.267,2.267,0,0,0,290.619,171.393Z" transform="translate(16.023 -49.66)"/><path class="b" d="M302.477,171.393a2.266,2.266,0,1,0,2.266-2.266A2.267,2.267,0,0,0,302.477,171.393Z" transform="translate(-26.194 -49.66)"/><ellipse class="b" cx="2.266" cy="2.266" rx="2.266" ry="2.266" transform="translate(245.922 119.468)"/><path class="b" d="M326.194,171.393a2.266,2.266,0,1,0,2.266-2.266A2.267,2.267,0,0,0,326.194,171.393Z" transform="translate(-110.632 -49.66)"/><path class="b" d="M290.619,182.979a2.266,2.266,0,1,0,2.266-2.266A2.265,2.265,0,0,0,290.619,182.979Z" transform="translate(16.023 -31.583)"/><path class="b" d="M302.477,182.979a2.266,2.266,0,1,0,2.266-2.266A2.265,2.265,0,0,0,302.477,182.979Z" transform="translate(-26.194 -31.583)"/><ellipse class="b" cx="2.266" cy="2.266" rx="2.266" ry="2.266" transform="translate(245.922 149.13)"/><path class="b" d="M326.194,182.979a2.266,2.266,0,1,0,2.266-2.266A2.265,2.265,0,0,0,326.194,182.979Z" transform="translate(-110.632 -31.583)"/><ellipse class="b" cx="2.266" cy="2.266" rx="2.266" ry="2.266" transform="translate(183.681 0.001)"/><ellipse class="b" cx="2.266" cy="2.266" rx="2.266" ry="2.266" transform="translate(153.321 0.001)"/><path class="b" d="M362.363,124.732a2.266,2.266,0,1,0,2.266-2.268A2.267,2.267,0,0,0,362.363,124.732Z" transform="translate(-239.401 -122.464)"/><path class="b" d="M374.221,124.732a2.267,2.267,0,1,0,2.268-2.268A2.269,2.269,0,0,0,374.221,124.732Z" transform="translate(-281.62 -122.464)"/><path class="b" d="M338.646,136.316a2.266,2.266,0,1,0,2.266-2.266A2.265,2.265,0,0,0,338.646,136.316Z" transform="translate(-154.963 -104.387)"/><path class="b" d="M350.505,136.316a2.266,2.266,0,1,0,2.266-2.266A2.265,2.265,0,0,0,350.505,136.316Z" transform="translate(-197.184 -104.387)"/><path class="b" d="M362.363,136.316a2.266,2.266,0,1,0,2.266-2.266A2.265,2.265,0,0,0,362.363,136.316Z" transform="translate(-239.401 -104.387)"/><path class="b" d="M374.221,136.316a2.267,2.267,0,1,0,2.268-2.266A2.267,2.267,0,0,0,374.221,136.316Z" transform="translate(-281.62 -104.387)"/><ellipse class="b" cx="2.266" cy="2.266" rx="2.266" ry="2.266" transform="translate(183.681 59.326)"/><ellipse class="b" cx="2.266" cy="2.266" rx="2.266" ry="2.266" transform="translate(153.321 59.326)"/><path class="b" d="M362.363,147.9a2.266,2.266,0,1,0,2.266-2.266A2.265,2.265,0,0,0,362.363,147.9Z" transform="translate(-239.401 -86.311)"/><path class="b" d="M374.221,147.9a2.267,2.267,0,1,0,2.268-2.266A2.267,2.267,0,0,0,374.221,147.9Z" transform="translate(-281.62 -86.311)"/><ellipse class="b" cx="2.266" cy="2.266" rx="2.266" ry="2.266" transform="translate(183.681 89.806)"/><ellipse class="b" cx="2.266" cy="2.266" rx="2.266" ry="2.266" transform="translate(153.321 89.806)"/><path class="b" d="M362.363,159.808a2.266,2.266,0,1,0,2.266-2.266A2.267,2.267,0,0,0,362.363,159.808Z" transform="translate(-239.401 -67.735)"/><path class="b" d="M374.221,159.808a2.267,2.267,0,1,0,2.268-2.266A2.269,2.269,0,0,0,374.221,159.808Z" transform="translate(-281.62 -67.735)"/><ellipse class="b" cx="2.266" cy="2.266" rx="2.266" ry="2.266" transform="translate(183.681 119.468)"/><ellipse class="b" cx="2.266" cy="2.266" rx="2.266" ry="2.266" transform="translate(153.321 119.468)"/><path class="b" d="M362.363,171.393a2.266,2.266,0,1,0,2.266-2.266A2.267,2.267,0,0,0,362.363,171.393Z" transform="translate(-239.401 -49.66)"/><path class="b" d="M374.221,171.393a2.267,2.267,0,1,0,2.268-2.266A2.269,2.269,0,0,0,374.221,171.393Z" transform="translate(-281.62 -49.66)"/><ellipse class="b" cx="2.266" cy="2.266" rx="2.266" ry="2.266" transform="translate(183.681 149.13)"/><ellipse class="b" cx="2.266" cy="2.266" rx="2.266" ry="2.266" transform="translate(153.321 149.13)"/><path class="b" d="M362.363,182.979a2.266,2.266,0,1,0,2.266-2.266A2.265,2.265,0,0,0,362.363,182.979Z" transform="translate(-239.401 -31.583)"/><path class="b" d="M374.221,182.979a2.267,2.267,0,1,0,2.268-2.266A2.267,2.267,0,0,0,374.221,182.979Z" transform="translate(-281.62 -31.583)"/><path class="b" d="M386.674,124.732a2.266,2.266,0,1,0,2.266-2.268A2.267,2.267,0,0,0,386.674,124.732Z" transform="translate(-325.953 -122.464)"/><path class="b" d="M398.532,124.732a2.266,2.266,0,1,0,2.266-2.268A2.267,2.267,0,0,0,398.532,124.732Z" transform="translate(-368.17 -122.464)"/><ellipse class="b" cx="2.266" cy="2.266" rx="2.266" ry="2.266" transform="translate(0.001 0.001)"/><path class="b" d="M386.674,136.316a2.266,2.266,0,1,0,2.266-2.266A2.265,2.265,0,0,0,386.674,136.316Z" transform="translate(-325.953 -104.387)"/><path class="b" d="M398.532,136.316a2.266,2.266,0,1,0,2.266-2.266A2.265,2.265,0,0,0,398.532,136.316Z" transform="translate(-368.17 -104.387)"/><path class="b" d="M410.39,136.316a2.267,2.267,0,1,0,2.268-2.266A2.267,2.267,0,0,0,410.39,136.316Z" transform="translate(-410.39 -104.387)"/><path class="b" d="M386.674,147.9a2.266,2.266,0,1,0,2.266-2.266A2.265,2.265,0,0,0,386.674,147.9Z" transform="translate(-325.953 -86.311)"/><path class="b" d="M398.532,147.9a2.266,2.266,0,1,0,2.266-2.266A2.265,2.265,0,0,0,398.532,147.9Z" transform="translate(-368.17 -86.311)"/><ellipse class="b" cx="2.266" cy="2.266" rx="2.266" ry="2.266" transform="translate(0.001 59.326)"/><path class="b" d="M386.674,159.808a2.266,2.266,0,1,0,2.266-2.266A2.267,2.267,0,0,0,386.674,159.808Z" transform="translate(-325.953 -67.735)"/><path class="b" d="M398.532,159.808a2.266,2.266,0,1,0,2.266-2.266A2.267,2.267,0,0,0,398.532,159.808Z" transform="translate(-368.17 -67.735)"/><ellipse class="b" cx="2.266" cy="2.266" rx="2.266" ry="2.266" transform="translate(0.001 89.806)"/><path class="b" d="M386.674,171.393a2.266,2.266,0,1,0,2.266-2.266A2.267,2.267,0,0,0,386.674,171.393Z" transform="translate(-325.953 -49.66)"/><path class="b" d="M398.532,171.393a2.266,2.266,0,1,0,2.266-2.266A2.267,2.267,0,0,0,398.532,171.393Z" transform="translate(-368.17 -49.66)"/><ellipse class="b" cx="2.266" cy="2.266" rx="2.266" ry="2.266" transform="translate(0.001 119.468)"/><path class="b" d="M386.674,182.979a2.266,2.266,0,1,0,2.266-2.266A2.265,2.265,0,0,0,386.674,182.979Z" transform="translate(-325.953 -31.583)"/><path class="b" d="M398.532,182.979a2.266,2.266,0,1,0,2.266-2.266A2.265,2.265,0,0,0,398.532,182.979Z" transform="translate(-368.17 -31.583)"/><ellipse class="b" cx="2.266" cy="2.266" rx="2.266" ry="2.266" transform="translate(0.001 149.13)"/></g><path class="c" d="M1663.311,705.96a2.908,2.908,0,0,0-5.816,0v13.082a2.908,2.908,0,1,0,5.816,0V705.96Zm19.833,10.624a2.909,2.909,0,0,0-4.113-4.116l-9.255,9.253a2.91,2.91,0,0,0,4.113,4.117l9.255-9.254Zm6.51,21.537a2.911,2.911,0,1,0,0-5.823h-13.086a2.912,2.912,0,0,0,0,5.823Zm-10.623,19.835a2.909,2.909,0,0,0,4.113-4.116l-9.255-9.254a2.909,2.909,0,0,0-4.113,4.116l9.255,9.254Zm-21.536,6.508a2.908,2.908,0,0,0,5.816,0V751.372a2.908,2.908,0,0,0-5.816,0v13.092Zm-19.833-10.624a2.91,2.91,0,0,0,4.116,4.116l9.255-9.254a2.91,2.91,0,0,0-4.116-4.116l-9.255,9.254Zm-6.509-21.542a2.911,2.911,0,1,0,0,5.823h13.086a2.911,2.911,0,0,0,0-5.823Zm10.625-19.83a2.91,2.91,0,0,0-4.116,4.116l9.255,9.254a2.911,2.911,0,0,0,4.116-4.117Z" transform="translate(-72.024 -354.044)"/></g><g transform="translate(-503)"><g class="d" transform="translate(526.556 0)"><path class="a" d="M507.591,96.6c10.717,28.612,79.6,67.9,142.863,73.731,285.346,26.3,267.135,134.3,413.18,243.775,122.35,81.178,281.311,51.206,344.216-45.211C1856.3-155.175,391.344-324.138,507.591,96.6Z" transform="translate(879.497 -134.677)"/><path class="a" d="M363.073,525.221c23.393-43.568,86.005-77.126,146.111-105.727s151.147-41.543,213.494-14.684c25,10.768,42.9,26.8,69.21,36.394,51.545,18.806,117.394,8.041,177.766,5.687,69.016-2.691,141.086,7.414,194.74,33.323s85.737,68.789,72.439,109.08c-12.435,37.68-61.8,68.355-119.513,85.687s-123.249,23.055-187.748,25.943C682.091,712,289.815,661.662,363.073,525.221Z" transform="translate(818.317 302.899)"/><g transform="translate(487 960.108)"><g class="e" transform="translate(0 0)"><path class="f" d="M374.089,792.751H331.624c-22.855,0-41.554,12.391-41.554,27.534h0c0,15.144,18.7,27.534,41.554,27.534H690.692c37.009,0,67.288-20.063,67.288-44.584h0c0-24.522-30.279-44.585-67.287-44.585h0c-15.648,0-28.45-8.483-28.45-18.851h0c0-10.368,12.8-18.852,28.451-18.852h34.24c16.269,0,29.58-8.82,29.58-19.6h0c0-10.78-13.311-19.6-29.58-19.6h-43.3c-6.333,0-11.516-3.434-11.516-7.63h0c0-4.2,5.183-7.63,11.516-7.63h7.633c4.371,0,7.947-2.37,7.947-5.266h0c0-2.9-3.576-5.266-7.947-5.266H639.184c-10.548,0-11.722,8.257-38.366,8.257H524.05c-5.7,0-10.371,3.093-10.371,6.871h0c0,3.779,4.667,6.871,10.371,6.871h9.959c8.265,0,15.027,4.481,15.027,9.956h0c0,5.476-6.762,9.957-15.027,9.957H519.021c-40.474,0-46.19,7.008-53.279,20.947s-43.9,15.064-43.9,15.064H371.5c-12.455,0-22.645,6.752-22.645,15h0c0,8.252,10.19,15,22.645,15h2.592c11.979,0,21.781,6.495,21.781,14.432h0c0,7.937-9.8,14.431-21.781,14.431ZM711.571,666.487c-4.39,0-7.948-2.358-7.948-5.266s3.558-5.266,7.948-5.266,7.948,2.358,7.948,5.266S715.96,666.487,711.571,666.487Z" transform="translate(354.517 -639.059)"/><path class="f" d="M-641.36,778.251h-42.465c-22.856,0-41.554,12.391-41.554,27.534h0c0,15.144,18.7,27.534,41.554,27.534h359.068c37.009,0,67.288-20.063,67.288-44.584h0c0-24.522-30.279-44.584-67.287-44.584h0c-15.648,0-28.45-8.483-28.45-18.852h0c0-10.368,12.8-18.852,28.451-18.852h34.24c16.269,0,29.579-8.82,29.579-19.6h0c0-10.78-13.31-19.6-29.579-19.6h-43.3c-6.334,0-11.516-3.434-11.516-7.63h0c0-4.2,5.182-7.63,11.516-7.63h7.633c4.37,0,7.947-2.37,7.947-5.266h0c0-2.9-3.577-5.266-7.947-5.266h-50.084c-10.548,0-11.723,8.257-38.366,8.257H-491.4c-5.705,0-10.371,3.093-10.371,6.872h0c0,3.779,4.667,6.872,10.371,6.872h9.959c8.265,0,15.027,4.481,15.027,9.956h0c0,5.476-6.762,9.957-15.027,9.957h-14.988c-40.474,0-46.191,7.008-53.279,20.947s-43.905,15.064-43.905,15.064h-50.34c-12.455,0-22.645,6.752-22.645,15h0c0,8.252,10.19,15,22.645,15h2.592c11.979,0,21.78,6.495,21.78,14.432h0c0,7.937-9.8,14.432-21.78,14.432Zm337.482-126.264c-4.39,0-7.948-2.358-7.948-5.266s3.558-5.266,7.948-5.266,7.948,2.358,7.948,5.266S-299.49,651.987-303.878,651.987Z" transform="translate(354.517 -634.166)"/><path class="f" d="M-99.207,452.185l-41.365-.932-1.075-.024c-22.843-.514-40.9-13.318-40.12-28.453h0c.776-15.135,20.1-27.1,42.941-26.583l121.243,2.729,20.881.47,216.737,4.879c36.988.833,66.222,21.565,64.965,46.073h0c-1.256,24.508-32.546,43.877-69.533,43.045h0c-15.639-.352-28.868,7.838-29.4,18.2h0c-.531,10.362,11.829,19.129,27.468,19.481l34.221.77c16.259.366,29.11,9.48,28.558,20.254h0c-.553,10.773-14.307,19.288-30.567,18.923l-43.273-.974c-6.33-.142-11.685,3.173-11.9,7.367h0c-.215,4.194,4.788,7.743,11.118,7.885l7.629.172c4.368.1,7.821,2.547,7.672,5.442h0c-.148,2.895-3.844,5.183-8.212,5.085l-28.59-.644-21.465-.483c-10.542-.237-11.293-8.516-37.921-9.115l-76.723-1.727c-5.7-.129-10.207-3.324-10.013-7.1h0c.193-3.776,5.016-6.763,10.717-6.634l9.953.224c8.26.186,15.247-4.141,15.528-9.612h0c.281-5.472-6.248-10.1-14.508-10.289l-14.979-.337C.33,549.363-5.025,542.23-11.4,528.14S-54.5,512.1-54.5,512.1l-50.311-1.132c-12.447-.28-22.286-7.258-21.863-15.506h0c.423-8.247,10.953-14.766,23.4-14.486l2.59.058c11.973.27,22.1-6,22.508-13.933h0c.407-7.933-9.056-14.644-21.029-14.913ZM231.611,585.968c-4.387-.1-8.065,2.178-8.214,5.084s3.287,5.344,7.674,5.443,8.064-2.178,8.213-5.085S236,586.067,231.611,585.968Z" transform="translate(354.517 -551.41)"/></g></g></g><path class="f" d="M213.421,541.873H105.553C47.5,541.873,0,590.954,0,650.938H0C0,710.925,47.5,760,105.553,760h912.089c94.009,0,170.922-79.472,170.922-176.606h0c0-97.136-76.913-176.608-170.919-176.608h0c-39.748,0-72.267-33.6-72.267-74.671h0c0-41.071,32.522-74.675,72.27-74.675h86.975c41.326,0,75.138-34.937,75.138-77.635h0c0-42.7-33.812-77.638-75.138-77.638H994.636c-16.087,0-29.252-13.6-29.252-30.226h0c0-16.622,13.166-30.223,29.252-30.223h19.389c11.1,0,20.187-9.388,20.187-20.861h0c0-11.472-9.084-20.861-20.187-20.861H886.8c-26.794,0-29.776,32.706-97.456,32.706h-195C579.856,32.706,568,44.958,568,59.924v0c0,14.968,11.855,27.218,26.344,27.218h25.3c20.994,0,38.171,17.75,38.171,39.438v0c0,21.69-17.177,39.441-38.171,39.441H581.571c-102.81,0-117.33,27.761-135.337,82.976s-111.525,59.669-111.525,59.669H206.837c-31.638,0-57.522,26.745-57.522,59.433v0c0,32.688,25.884,59.433,57.522,59.433h6.584c30.428,0,55.327,25.727,55.327,57.168h0c0,31.441-24.9,57.165-55.327,57.165ZM1070.678,41.722c-11.151,0-20.189-9.341-20.189-20.861S1059.526,0,1070.678,0s20.189,9.341,20.189,20.861S1081.827,41.722,1070.678,41.722Z" transform="translate(0)"/></g></g><g transform="translate(1298.993 592.469)"><path class="b" d="M10.919,35.112a2.4,2.4,0,1,0,2.4-2.4A2.395,2.395,0,0,0,10.919,35.112Z" transform="translate(313.232 -32.716)"/><path class="b" d="M54.322,35.112a2.4,2.4,0,1,0,2.4-2.4A2.395,2.395,0,0,0,54.322,35.112Z" transform="translate(237.735 -32.716)"/><circle class="b" cx="2.395" cy="2.395" r="2.395" transform="translate(259.963 0)"/><path class="b" d="M141.126,35.112a2.4,2.4,0,1,0,2.4-2.4A2.395,2.395,0,0,0,141.126,35.112Z" transform="translate(86.744 -32.716)"/><path class="b" d="M10.919,77.516a2.4,2.4,0,1,0,2.4-2.4A2.4,2.4,0,0,0,10.919,77.516Z" transform="translate(313.232 -43.765)"/><path class="b" d="M54.322,77.516a2.4,2.4,0,1,0,2.4-2.4A2.4,2.4,0,0,0,54.322,77.516Z" transform="translate(237.735 -43.765)"/><path class="b" d="M97.724,77.516a2.4,2.4,0,1,0,2.4-2.4A2.4,2.4,0,0,0,97.724,77.516Z" transform="translate(162.239 -43.765)"/><path class="b" d="M141.126,77.516a2.4,2.4,0,1,0,2.4-2.4A2.4,2.4,0,0,0,141.126,77.516Z" transform="translate(86.744 -43.765)"/><path class="b" d="M10.919,119.921a2.4,2.4,0,1,0,2.4-2.4A2.4,2.4,0,0,0,10.919,119.921Z" transform="translate(313.232 -54.814)"/><path class="b" d="M54.322,119.921a2.4,2.4,0,1,0,2.4-2.4A2.4,2.4,0,0,0,54.322,119.921Z" transform="translate(237.735 -54.814)"/><circle class="b" cx="2.395" cy="2.395" r="2.395" transform="translate(259.963 62.712)"/><path class="b" d="M141.126,119.921a2.4,2.4,0,1,0,2.4-2.4A2.4,2.4,0,0,0,141.126,119.921Z" transform="translate(86.744 -54.814)"/><path class="b" d="M10.919,163.5a2.4,2.4,0,1,0,2.4-2.4A2.395,2.395,0,0,0,10.919,163.5Z" transform="translate(313.232 -66.167)"/><path class="b" d="M54.322,163.5a2.4,2.4,0,1,0,2.4-2.4A2.395,2.395,0,0,0,54.322,163.5Z" transform="translate(237.735 -66.167)"/><circle class="b" cx="2.395" cy="2.395" r="2.395" transform="translate(259.963 94.933)"/><path class="b" d="M141.126,163.5a2.4,2.4,0,1,0,2.4-2.4A2.395,2.395,0,0,0,141.126,163.5Z" transform="translate(86.744 -66.167)"/><path class="b" d="M10.919,205.9a2.4,2.4,0,1,0,2.4-2.4A2.395,2.395,0,0,0,10.919,205.9Z" transform="translate(313.232 -77.216)"/><path class="b" d="M54.322,205.9a2.4,2.4,0,1,0,2.4-2.4A2.395,2.395,0,0,0,54.322,205.9Z" transform="translate(237.735 -77.216)"/><circle class="b" cx="2.395" cy="2.395" r="2.395" transform="translate(259.963 126.289)"/><path class="b" d="M141.126,205.9a2.4,2.4,0,1,0,2.4-2.4A2.395,2.395,0,0,0,141.126,205.9Z" transform="translate(86.744 -77.216)"/><path class="b" d="M10.919,248.306a2.4,2.4,0,1,0,2.4-2.4A2.395,2.395,0,0,0,10.919,248.306Z" transform="translate(313.232 -88.265)"/><path class="b" d="M54.322,248.306a2.4,2.4,0,1,0,2.4-2.4A2.395,2.395,0,0,0,54.322,248.306Z" transform="translate(237.735 -88.265)"/><circle class="b" cx="2.395" cy="2.395" r="2.395" transform="translate(259.963 157.645)"/><path class="b" d="M141.126,248.306a2.4,2.4,0,1,0,2.4-2.4A2.395,2.395,0,0,0,141.126,248.306Z" transform="translate(86.744 -88.265)"/><circle class="b" cx="2.395" cy="2.395" r="2.395" transform="translate(194.169 0)"/><circle class="b" cx="2.395" cy="2.395" r="2.395" transform="translate(162.075 0)"/><path class="b" d="M273.507,35.112a2.4,2.4,0,1,0,2.4-2.4A2.4,2.4,0,0,0,273.507,35.112Z" transform="translate(-143.525 -32.716)"/><path class="b" d="M316.909,35.112a2.4,2.4,0,1,0,2.4-2.4A2.4,2.4,0,0,0,316.909,35.112Z" transform="translate(-219.021 -32.716)"/><path class="b" d="M186.7,77.516a2.4,2.4,0,1,0,2.4-2.4A2.4,2.4,0,0,0,186.7,77.516Z" transform="translate(7.467 -43.765)"/><path class="b" d="M230.1,77.516a2.4,2.4,0,1,0,2.4-2.4A2.4,2.4,0,0,0,230.1,77.516Z" transform="translate(-68.028 -43.765)"/><path class="b" d="M273.507,77.516a2.4,2.4,0,1,0,2.4-2.4A2.4,2.4,0,0,0,273.507,77.516Z" transform="translate(-143.525 -43.765)"/><path class="b" d="M316.909,77.516a2.4,2.4,0,1,0,2.4-2.4A2.4,2.4,0,0,0,316.909,77.516Z" transform="translate(-219.021 -43.765)"/><circle class="b" cx="2.395" cy="2.395" r="2.395" transform="translate(194.169 62.712)"/><circle class="b" cx="2.395" cy="2.395" r="2.395" transform="translate(162.075 62.712)"/><path class="b" d="M273.507,119.921a2.4,2.4,0,1,0,2.4-2.4A2.4,2.4,0,0,0,273.507,119.921Z" transform="translate(-143.525 -54.814)"/><path class="b" d="M316.909,119.921a2.4,2.4,0,1,0,2.4-2.4A2.4,2.4,0,0,0,316.909,119.921Z" transform="translate(-219.021 -54.814)"/><circle class="b" cx="2.395" cy="2.395" r="2.395" transform="translate(194.169 94.933)"/><circle class="b" cx="2.395" cy="2.395" r="2.395" transform="translate(162.075 94.933)"/><path class="b" d="M273.507,163.5a2.4,2.4,0,1,0,2.4-2.4A2.4,2.4,0,0,0,273.507,163.5Z" transform="translate(-143.525 -66.167)"/><path class="b" d="M316.909,163.5a2.4,2.4,0,1,0,2.4-2.4A2.4,2.4,0,0,0,316.909,163.5Z" transform="translate(-219.021 -66.167)"/><circle class="b" cx="2.395" cy="2.395" r="2.395" transform="translate(194.169 126.289)"/><circle class="b" cx="2.395" cy="2.395" r="2.395" transform="translate(162.075 126.289)"/><path class="b" d="M273.507,205.9a2.4,2.4,0,1,0,2.4-2.4A2.4,2.4,0,0,0,273.507,205.9Z" transform="translate(-143.525 -77.216)"/><path class="b" d="M316.909,205.9a2.4,2.4,0,1,0,2.4-2.4A2.4,2.4,0,0,0,316.909,205.9Z" transform="translate(-219.021 -77.216)"/><circle class="b" cx="2.395" cy="2.395" r="2.395" transform="translate(194.169 157.645)"/><circle class="b" cx="2.395" cy="2.395" r="2.395" transform="translate(162.075 157.645)"/><path class="b" d="M273.507,248.306a2.4,2.4,0,1,0,2.4-2.4A2.4,2.4,0,0,0,273.507,248.306Z" transform="translate(-143.525 -88.265)"/><path class="b" d="M316.909,248.306a2.4,2.4,0,1,0,2.4-2.4A2.4,2.4,0,0,0,316.909,248.306Z" transform="translate(-219.021 -88.265)"/><path class="b" d="M362.485,35.112a2.4,2.4,0,1,0,2.4-2.4A2.4,2.4,0,0,0,362.485,35.112Z" transform="translate(-298.298 -32.716)"/><path class="b" d="M405.887,35.112a2.4,2.4,0,1,0,2.4-2.4A2.395,2.395,0,0,0,405.887,35.112Z" transform="translate(-373.793 -32.716)"/><circle class="b" cx="2.395" cy="2.395" r="2.395" transform="translate(0 0)"/><path class="b" d="M362.485,77.516a2.4,2.4,0,1,0,2.4-2.4A2.4,2.4,0,0,0,362.485,77.516Z" transform="translate(-298.298 -43.765)"/><path class="b" d="M405.887,77.516a2.4,2.4,0,1,0,2.4-2.4A2.4,2.4,0,0,0,405.887,77.516Z" transform="translate(-373.793 -43.765)"/><path class="b" d="M449.29,77.516a2.4,2.4,0,1,0,2.4-2.4A2.4,2.4,0,0,0,449.29,77.516Z" transform="translate(-449.29 -43.765)"/><path class="b" d="M362.485,119.921a2.4,2.4,0,1,0,2.4-2.4A2.4,2.4,0,0,0,362.485,119.921Z" transform="translate(-298.298 -54.814)"/><path class="b" d="M405.887,119.921a2.4,2.4,0,1,0,2.4-2.4A2.4,2.4,0,0,0,405.887,119.921Z" transform="translate(-373.793 -54.814)"/><circle class="b" cx="2.395" cy="2.395" r="2.395" transform="translate(0 62.712)"/><path class="b" d="M362.485,163.5a2.4,2.4,0,1,0,2.4-2.4A2.4,2.4,0,0,0,362.485,163.5Z" transform="translate(-298.298 -66.167)"/><path class="b" d="M405.887,163.5a2.4,2.4,0,1,0,2.4-2.4A2.395,2.395,0,0,0,405.887,163.5Z" transform="translate(-373.793 -66.167)"/><circle class="b" cx="2.395" cy="2.395" r="2.395" transform="translate(0 94.933)"/><path class="b" d="M362.485,205.9a2.4,2.4,0,1,0,2.4-2.4A2.4,2.4,0,0,0,362.485,205.9Z" transform="translate(-298.298 -77.216)"/><path class="b" d="M405.887,205.9a2.4,2.4,0,1,0,2.4-2.4A2.395,2.395,0,0,0,405.887,205.9Z" transform="translate(-373.793 -77.216)"/><circle class="b" cx="2.395" cy="2.395" r="2.395" transform="translate(0 126.289)"/><path class="b" d="M362.485,248.306a2.4,2.4,0,1,0,2.4-2.4A2.4,2.4,0,0,0,362.485,248.306Z" transform="translate(-298.298 -88.265)"/><path class="b" d="M405.887,248.306a2.4,2.4,0,1,0,2.4-2.4A2.395,2.395,0,0,0,405.887,248.306Z" transform="translate(-373.793 -88.265)"/><circle class="b" cx="2.395" cy="2.395" r="2.395" transform="translate(0 157.645)"/></g></g></svg>