<svg xmlns="http://www.w3.org/2000/svg" width="467.626" height="271.261" viewBox="0 0 467.626 271.261"><defs><style>.a{fill:none;stroke:#333;stroke-miterlimit:10;stroke-dasharray:8;}.b{fill:#24669a;}.b,.c,.d{stroke:#707070;}.c{fill:#222221;opacity:0.2;}.d{fill:#263238;}</style></defs><g transform="translate(0.496 0.559)"><path class="a" d="M0,0A283.332,283.332,0,0,1,25.293,38.17c6.735,12.206,12.567,24.9,19.5,36.991,18,31.374,44.478,59.12,78.231,72.111s75.194,8.924,101.812-15.564c15.484-14.245,24.936-33.99,30.782-54.2,2.542-8.786,4.468-18.165,2.151-27.012l-.071-.265c-3.886-14.142-24.9-11.9-25.682,2.74-.621,11.679,3.632,24.06,10.851,33.511,11.47,15.015,28.763,24.263,45.672,32.7s34.448,16.846,47.131,30.851c18.053,19.932,23.486,50.4,13.437,75.344" transform="translate(87.628 46.78) rotate(-7)"/><g transform="matrix(0.985, 0.174, -0.174, 0.985, 10.935, 0)"><g transform="translate(0 0)"><path class="b" d="M84.832,16.769l9.3,25.532L74.613,27.06,0,0Z" transform="translate(0 3.25)"/><path class="c" d="M84.832,16.769l9.3,25.532L74.613,27.06,0,0Z" transform="translate(0 3.25)"/><path class="d" d="M0,5.949l22.02,9.293L2.5,0Z" transform="translate(72.109 30.31)"/><path class="b" d="M74.613,27.06,0,0,61.2,59.722Z" transform="translate(0 3.25)"/><path class="b" d="M84.832,20.019,115.84,0,0,3.25Z" transform="translate(0)"/></g></g></g></svg>