<svg xmlns="http://www.w3.org/2000/svg" width="386.449" height="908.375" viewBox="0 0 386.449 908.375"><defs><style>.a{fill:#d3766a;}.b{fill:#fff;}.c{fill:#24669a;}.d{fill:#1c262a;}.e{fill:#333;}.f{fill:#ff994d;}</style></defs><g transform="translate(0)"><g transform="translate(0 292.417)"><g transform="translate(159.498 7.742)"><g transform="translate(32.569 422.443)"><path class="a" d="M400.4,317.789c-5.336,1.773-157.6,1.33-163.4-2.343-2.2-1.377-3.436-23.575-4.148-50.413-.174-5.811-.285-11.764-.38-17.876-.111-7.188-.206-14.487-.253-21.565-.19-31.809.253-59.8.253-59.8H331.6l-.048,59.8-.016,21.565-.522,17.876s58.218,26.251,64.14,30.985C401.047,300.72,405.7,316.047,400.4,317.789Z" transform="translate(-231.981 -165.791)"/><path class="b" d="M400.35,261.764c-5.336,1.773-157.6,1.33-163.4-2.343-2.2-1.377-3.436-23.575-4.148-50.413-.174-5.811-.285-11.764-.38-17.876-.111-7.188-.206-14.487-.253-21.565h99.337l-.016,21.565-.522,17.876s58.218,26.251,64.14,30.985C401,244.7,405.654,260.023,400.35,261.764Z" transform="translate(-231.934 -109.767)"/><g transform="translate(0 66.953)"><path class="c" d="M401.017,241.947c-3.467,1.14-68.335,1.377-115.55.4-10.925-.238-20.915-.538-28.99-.887-11.1-.507-18.556-1.124-19.776-1.884-2.676-1.726-3.958-34.294-4.56-68.652h99.622l-.523,17.955s58.551,26.394,64.5,31.144C401.666,224.784,406.353,240.158,401.017,241.947Z" transform="translate(-232.142 -156.665)"/><g transform="translate(11.863)"><g transform="translate(0 25.767)"><path class="d" d="M387.229,175.653c-25.665-.712-129.245-1.124-154.673.127-.206.016-.206.143,0,.159,25.428,1.251,129.008.839,154.673.127C387.767,176.049,387.783,175.669,387.229,175.653Z" transform="translate(-232.401 -122.265)"/><path class="d" d="M266.731,172.406c-10.085-1.916-22.451-.4-30.194,6.777-.3.269.111.7.428.586a142.755,142.755,0,0,1,29.719-6.1A.64.64,0,0,0,266.731,172.406Z" transform="translate(-175.853 -171.647)"/><path class="d" d="M266.273,172.687c-10.1-1.916-22.451-.412-30.194,6.776-.3.269.095.7.427.586a142.766,142.766,0,0,1,29.719-6.1A.64.64,0,0,0,266.273,172.687Z" transform="translate(-168.112 -167.511)"/><path class="d" d="M265.814,172.966c-10.1-1.916-22.467-.412-30.194,6.761-.3.285.095.713.428.6a142.741,142.741,0,0,1,29.719-6.1A.642.642,0,0,0,265.814,172.966Z" transform="translate(-160.37 -163.373)"/><path class="d" d="M265.352,173.242c-10.086-1.916-22.451-.4-30.194,6.776-.3.285.111.7.428.6a141.762,141.762,0,0,1,29.719-6.1A.649.649,0,0,0,265.352,173.242Z" transform="translate(-152.64 -159.247)"/></g><g transform="translate(44.173)"><path class="d" d="M261.837,187.615c-7.156,5.526-16.466,7.774-24.81,10.83a1.253,1.253,0,0,1-1.583-1.267.267.267,0,0,1-.238-.364,53.917,53.917,0,0,1,15.627-23.085c4.227-3.531,11.621-5.969,15.58-.491C270.15,178.416,266.017,184.385,261.837,187.615Zm2.6-8.122c1.8-11.083-10.1-5.288-13.11-2.565a55.994,55.994,0,0,0-5.367,5.763,158.52,158.52,0,0,0-9.421,13.284c4.006-1.758,8.123-3.151,12.192-4.766C253.588,189.309,263.437,185.6,264.434,179.493Z" transform="translate(-200.978 -170.02)"/><path class="d" d="M237.649,175.459c2.47-6.286,10.244-5.779,15.216-3.4a53.657,53.657,0,0,1,20.884,18.461.27.27,0,0,1-.127.412,1.256,1.256,0,0,1-1.219,1.615c-8.85-.887-18.43-.728-26.742-4.307C240.815,186.147,235.321,181.413,237.649,175.459Zm21.612,13c4.338.538,8.677.871,13,1.568a160.294,160.294,0,0,0-12.429-10.513,56.238,56.238,0,0,0-6.65-4.244c-3.594-1.884-16.577-4.512-12.049,5.748C243.618,186.685,254.084,187.809,259.261,188.458Z" transform="translate(-237.097 -164.15)"/></g></g></g></g><g transform="translate(0)"><path class="e" d="M236.026,139.11s26.789,264.982,27.423,268.339c.095.443.269,5.542.538,13.854,1.441,45.615,5,187.844,5,187.844H378.3s-7.141-168.464-11.226-207.762C361.851,351.258,328.95,139.11,328.95,139.11Z" transform="translate(-236.026 -139.11)"/><g transform="translate(11.761 9.276)"><path class="d" d="M270.731,408.1q-5.059-86.116-15.2-171.837c-3.848-32.189-8.455-64.266-13.046-96.36-.048-.285-.491-.269-.443,0,8.455,57.126,14.455,114.679,19.617,172.185q7.718,86.164,11.1,172.6c1.345,32.648,2.343,65.311,3.4,97.959a.6.6,0,0,0,1.2-.016C275.813,524.426,274.151,466.224,270.731,408.1Z" transform="translate(-242.038 -139.696)"/><path class="d" d="M334.439,168.856c-2.866-.38-5.969-.269-8.882-.364-3.277-.111-6.571-.142-9.848-.269q-9.476-.356-18.984-.507c-12.761-.206-25.554-.127-38.3.269-3.515.111-7.03.253-10.545.38-3.737.142-7.489.475-11.226.459-.285,0-.269.332.016.332,6.428-.016,12.92.554,19.348.792,6.333.222,12.666.348,19,.428,12.745.174,25.554.063,38.284-.4,3.515-.143,7.03-.19,10.545-.285,1.868-.063,3.736-.174,5.605-.237,1.678-.064,3.341.047,5-.174A.214.214,0,0,0,334.439,168.856Z" transform="translate(-210.827 274.298)"/></g></g><path class="d" d="M239.992,139.11s26.789,264.982,27.423,268.339c.095.443.269,5.542.538,13.854L319.474,139.11Z" transform="translate(-239.992 -139.11)"/></g><g transform="translate(0)"><g transform="translate(0 437.99)"><path class="a" d="M405.895,343.947c-5.557.823-155.5-25.681-160.579-30.3-1.932-1.742.665-23.813,4.544-50.365.823-5.747,1.457-11.732,2.676-17.67,1.52-7.489,3.135-14.962,4.766-22.151,7.03-31.223,14.171-57.174,14.171-57.174l94.919,16.482-11.542,56.572-4.718,23.211-3.547,17.511s52.867,35.846,57.886,41.5C409.457,327.211,411.42,343.108,405.895,343.947Z" transform="translate(-244.18 -166.284)"/><path class="b" d="M405.895,290.385c-5.557.823-155.5-25.681-160.579-30.3-1.932-1.742.665-23.813,4.544-50.365.823-5.747,1.457-11.732,2.676-17.67,1.52-7.489,3.135-14.962,4.766-22.15,29.276,4.94,71.36,11.716,97.548,15.88l-4.718,23.211L346.584,226.5S399.45,262.344,404.47,268C409.457,273.649,411.42,289.546,405.895,290.385Z" transform="translate(-244.18 -112.722)"/><g transform="translate(0 79.07)"><path class="c" d="M406.76,270.156c-5.573.823-156.352-25.808-161.466-30.463-2.359-2.153,1.964-34.453,7.252-68.415l98.149,17.036-3.579,17.622s53.168,36.02,58.219,41.72C410.354,253.357,412.349,269.316,406.76,270.156Z" transform="translate(-244.633 -171.278)"/><g transform="translate(8.453 3.024)"><g transform="translate(0 23.876)"><path class="d" d="M397.472,201.8c-25.159-5.082-127.14-23.227-152.409-26.346-.206-.032-.238.111-.032.158,24.842,5.589,126.965,22.895,152.362,26.6C397.932,202.3,398.011,201.915,397.472,201.8Z" transform="translate(-244.892 -136.24)"/><path class="d" d="M279.341,175.748c-9.611-3.626-22.04-4.243-30.89,1.5-.348.222-.032.7.316.665A141.678,141.678,0,0,1,279.088,177,.646.646,0,0,0,279.341,175.748Z" transform="translate(-180.767 -172.977)"/><path class="d" d="M278.951,176.1c-9.626-3.61-22.055-4.243-30.906,1.5-.348.222-.032.713.316.665a141.711,141.711,0,0,1,30.321-.918A.647.647,0,0,0,278.951,176.1Z" transform="translate(-173.949 -167.735)"/><path class="d" d="M278.546,176.441c-9.626-3.61-22.056-4.227-30.906,1.52-.349.222-.032.7.316.649a142.738,142.738,0,0,1,30.321-.918A.647.647,0,0,0,278.546,176.441Z" transform="translate(-167.132 -162.492)"/><path class="d" d="M278.138,176.8c-9.626-3.61-22.055-4.243-30.906,1.5-.348.222-.016.713.316.665a141.693,141.693,0,0,1,30.321-.918A.648.648,0,0,0,278.138,176.8Z" transform="translate(-160.311 -157.248)"/></g><g transform="translate(54.585)"><path class="d" d="M274.712,189.421c-8.012,4.228-17.559,4.845-26.3,6.428-.918.174-1.456-.76-1.346-1.52a.269.269,0,0,1-.174-.4,53.981,53.981,0,0,1,19.348-20.076c4.766-2.755,12.476-3.895,15.421,2.185C284.466,181.79,279.383,186.951,274.712,189.421Zm3.942-7.552c3.689-10.608-9.041-6.951-12.476-4.782a57.521,57.521,0,0,0-6.286,4.766c-4.164,3.531-7.774,7.568-11.558,11.479,4.259-1.045,8.566-1.71,12.841-2.6C266.289,189.675,276.628,187.711,278.655,181.869Z" transform="translate(-215.239 -169.155)"/><path class="d" d="M250.077,175.221c3.5-5.779,11.067-3.942,15.564-.76a54.029,54.029,0,0,1,17.432,21.77.272.272,0,0,1-.206.38,1.27,1.27,0,0,1-1.488,1.393c-8.565-2.391-18.018-3.879-25.6-8.819C251.359,186.3,246.768,180.684,250.077,175.221Zm19.063,16.514c4.18,1.267,8.407,2.328,12.539,3.769a160.373,160.373,0,0,0-10.45-12.492,59.468,59.468,0,0,0-5.81-5.32c-3.23-2.47-15.564-7.283-12.873,3.61C254.035,187.3,264.152,190.215,269.14,191.735Z" transform="translate(-248.948 -171.469)"/></g></g></g></g><g transform="translate(3.447)"><path class="e" d="M489.379,144.907S484.6,173.343,469.113,192.8c-3.705,4.655-15.073,8.993-20.963,13.284,0,0-31.444,202.03-38.142,224.909-7.442,25.412-58.234,207.477-58.234,207.477l-112.716-19.3s49.336-173.657,62.731-209.82c3.325-9.009,35.735-187.242,35.181-191.343-6.571-48.956,16.783-79.387,16.783-79.387Z" transform="translate(-239.058 -138.621)"/><g transform="translate(13.518 10.455)"><path class="d" d="M283.505,139.545a36.57,36.57,0,0,1-13.379,19.206c-7.078,5.383-15.564,7.616-24.288,8.312-1.472.127-1.583,2.344-.047,2.359,17.828.095,35.83-11.289,38.443-29.766C284.3,139.229,283.616,139.134,283.505,139.545Z" transform="translate(-136.539 -139.281)"/><path class="d" d="M276.374,142.006c-6.555,2.328-12.524,6.127-18.414,9.769-6.112,3.784-11.764,8.218-17.67,12.3-.237.158-.047.538.206.4,6.191-3.578,12.651-6.666,18.778-10.355,5.953-3.562,12.128-7.03,17.369-11.637A.284.284,0,0,0,276.374,142.006Z" transform="translate(-57.715 -99.087)"/><path class="d" d="M263.341,139.791c-.95,4.085-2.138,8.107-3.214,12.16-1,3.8-1.789,7.695-2.976,11.447a19.727,19.727,0,0,1-5.827,9.436c-1.568,1.33-3.294,2.486-4.956,3.705-.9.649-1.868,1.267-2.787,1.932.143-.538.253-1.092.38-1.647.348-1.552.681-3.1,1.014-4.655q1.116-5.153,2.137-10.339c1.362-6.777,2.644-13.632,4.37-20.33a.215.215,0,1,0-.412-.127c-2.011,6.618-4.2,13.158-5.985,19.855-.887,3.278-4.227,19.538-4.386,20.678-.174,1.2-.332,2.391-.428,3.594a14.35,14.35,0,0,0-.174,3.674.3.3,0,0,0,.554.079h.016a14.075,14.075,0,0,0,1.2-3.5c.364-1.156.681-2.328.934-3.515.095-.428.174-.855.269-1.3,1.647-.9,3.214-2.122,4.766-3.151,1.678-1.093,3.388-2.169,4.987-3.388a18.5,18.5,0,0,0,6.286-8.914,67.008,67.008,0,0,0,2.47-11.685c.728-4.623,1.33-9.278,2.185-13.886C263.816,139.649,263.421,139.506,263.341,139.791Z" transform="translate(-42.181 -134.033)"/><path class="d" d="M344.207,186.128c-2.739-.9-5.827-1.362-8.661-2.011-3.2-.728-6.428-1.377-9.626-2.106q-9.239-2.137-18.557-4.069-18.738-3.9-37.667-6.919c-3.467-.538-6.951-1.076-10.418-1.6-3.7-.57-7.441-.934-11.115-1.663-.285-.048-.333.285-.063.333,6.317,1.187,12.6,2.976,18.873,4.417,6.175,1.409,12.366,2.707,18.572,3.974,12.493,2.565,25.1,4.861,37.7,6.792,3.468.523,6.919,1.14,10.4,1.694,1.837.285,3.705.539,5.558.823,1.646.238,3.261.665,4.924.776A.225.225,0,0,0,344.207,186.128Z" transform="translate(-247.922 283.096)"/></g></g></g></g><g transform="translate(103.274)"><g transform="translate(97.324 128.552)"><g transform="translate(1.958 3.002)"><path class="a" d="M235.508,143.454c4.148,30.637,23.75,91.183,44.032,108.061,18.6,15.5,58.567-40.818,67.544-54.672,4.813-7.41-34.279-75.809-39.171-67.718-8.312,13.727-21.9,55.843-24.715,53.627-5.557-4.37-9.674-16.593-19.839-31.951C240.48,116.189,233.576,129.141,235.508,143.454Z" transform="translate(-235.2 -128.461)"/></g><path class="d" d="M289.216,176.712l-35.783,32.775s-12.666-46.834-14.091-68.51C237.9,119.318,255.65,121.756,289.216,176.712Z" transform="translate(-239.261 -128.272)"/></g><path class="c" d="M384.929,246.061l9.31,76.7s-124.622-1.109-155.5-4.006c0,0,28.594-142.324,62.715-177.631,17.052-17.67,36.543-15.865,48.7-2.945,3.072,3.277,39.472,53.832,42.971,72.9C396.186,227.885,384.929,246.061,384.929,246.061Z" transform="translate(-238.742 -1.192)"/><g transform="translate(80.619 0.072)"><path class="e" d="M270.956,120.157,232.31,134.6,355.029,486.342l53.993-20.18Z" transform="translate(-232.31 -120.157)"/><path class="f" d="M235.38,215.765,287.06,269.8l2.707-1.013-20.092-53.785a9.375,9.375,0,1,1,3.531-1.314L293.3,267.46l2.707-1.014,3.578-74.684-31.1-34.295-5.684-15.2-32.125,12.017,5.684,15.184Z" transform="translate(-97.028 207.82)"/><rect class="d" width="64.006" height="5.449" transform="translate(140.974 241.297) rotate(159.507)"/><rect class="d" width="64.006" height="5.449" transform="translate(145.478 253.348) rotate(159.507)"/><path class="d" d="M241.652,131.855a7.495,7.495,0,1,0,4.4-9.642A7.5,7.5,0,0,0,241.652,131.855Z" transform="translate(-219.878 -96.672)"/></g><g transform="translate(31.915)"><g transform="translate(55.511)"><path class="d" d="M246.189,156.758c2.66,2.517,21.3-2.977,23.955-18.287,2.628-15.089-13.775-25.238-24.905-12.271C238.209,134.4,240.568,151.423,246.189,156.758Z" transform="translate(-236.368 -118.59)"/><path class="d" d="M268.4,123.71a21.518,21.518,0,0,0-14.092-1.187,12.973,12.973,0,0,0-9.421,8.851c-1.441,4.386-1.061,9.294,0,13.933a39.336,39.336,0,0,0,2.375,6.84,19.7,19.7,0,0,0,3.895,6.175,17.508,17.508,0,0,1-5.082-5.526,32.168,32.168,0,0,1-3.23-6.887c-1.568-4.829-2.169-10.244-.554-15.358a14.37,14.37,0,0,1,11.542-10.086A18.941,18.941,0,0,1,268.4,123.71Z" transform="translate(-241.332 -120.152)"/></g><g transform="translate(47.219 95.611)"><path class="a" d="M245.449,168.228c1.045,2.3,15.564,15.659,26.457,12.983,3.547-.871-.364-20.424-.364-20.424l.047-1.5.554-21.137-26.758-10.608-3.832-1.346s.222,5.779.57,13l.048,1.029c.016.4.016.792.048,1.172q.047,1.615.142,3.277c.048.823.1,1.631.174,2.518.063.871.142,1.726.206,2.6C243.518,158.427,245.038,167.246,245.449,168.228Z" transform="translate(-241.554 -126.191)"/><path class="d" d="M242.2,139.19a42.462,42.462,0,0,0,29.465,20.092l.554-21.137-26.758-10.608-3.832-1.346S241.855,131.97,242.2,139.19Z" transform="translate(-241.633 -126.191)"/></g><g transform="translate(24.891 25.308)"><path class="a" d="M307.6,163.44c5.3,36.717-16.1,44.048-24.019,45.188-7.188,1.029-31.793,3.61-40.865-32.363s6.318-50.048,22.641-53.278S302.3,126.724,307.6,163.44Z" transform="translate(-229.935 -113.847)"/><g transform="translate(37.937 37.919)"><path class="d" d="M246.32,127.793a22.951,22.951,0,0,1-2.549-.158,4.189,4.189,0,0,1-2.581-.665,1.32,1.32,0,0,1-.222-1.6,3.239,3.239,0,0,1,3.072-1.219,4.848,4.848,0,0,1,3.23,1.251A1.407,1.407,0,0,1,246.32,127.793Z" transform="translate(-219.417 -124.146)"/><path class="d" d="M243.9,128.784c.839-.238,1.583-.586,2.407-.887a4.158,4.158,0,0,0,2.28-1.377,1.3,1.3,0,0,0-.237-1.583,3.258,3.258,0,0,0-3.309-.3,4.825,4.825,0,0,0-2.739,2.122A1.415,1.415,0,0,0,243.9,128.784Z" transform="translate(-241.154 -121.368)"/><g transform="translate(0 13.724)"><g transform="translate(3.712)"><path class="d" d="M243.623,125.175c-.048-.1-.174.142-.158.253.507,2.47.649,5.4-1.456,6.6-.063.032-.032.158.048.143C244.731,131.318,244.494,127.439,243.623,125.175Z" transform="translate(-238.355 -122.933)"/><path class="d" d="M244.578,125.022c-4.053.38-3.008,8.471.76,8.122C249.027,132.8,247.982,124.7,244.578,125.022Z" transform="translate(-241.986 -125.012)"/></g><path class="d" d="M247.028,125.114c-.649.554-1.235,1.457-2.074,1.647-.982.222-1.837-.522-2.581-1.267-.079-.063-.143.016-.127.111.174,1.552.982,3.072,2.66,3.088,1.552.016,2.454-1.5,2.644-3.1C247.582,125.288,247.281,124.892,247.028,125.114Z" transform="translate(-242.244 -124.471)"/></g><g transform="translate(23.363 9.76)"><g transform="translate(0 0.8)"><path class="d" d="M240.9,125.022c.016-.1.222.095.222.206.222,2.517.9,5.367,3.277,5.922.079.016.079.142,0,.142C241.583,131.229,240.712,127.445,240.9,125.022Z" transform="translate(-240.877 -122.086)"/><path class="d" d="M242.683,124.867c3.99-.792,5.288,7.252,1.583,8C240.625,133.575,239.326,125.532,242.683,124.867Z" transform="translate(-240.726 -124.813)"/></g><path class="d" d="M240.952,125.87c.713.332,1.457,1,2.233.934.887-.095,1.393-1.061,1.82-1.995.048-.095.127-.032.143.063.285,1.536.048,3.23-1.393,3.752-1.3.491-2.5-.665-3.119-2.138C240.524,126.2,240.667,125.743,240.952,125.87Z" transform="translate(-237.237 -124.762)"/></g><path class="d" d="M241.708,126.444c.665.554,1.33,1.314,2.248,1.314a6.755,6.755,0,0,0,2.66-.871.09.09,0,0,1,.111.127,3.409,3.409,0,0,1-3.087,1.631,2.669,2.669,0,0,1-2.153-2.058A.137.137,0,0,1,241.708,126.444Z" transform="translate(-229.308 -90.513)"/><g transform="translate(13.198 1.199)"><path class="d" d="M249.33,148.44s1.045,3.657,1.3,5.431c.016.158-.4.3-.982.427h-.079A8.4,8.4,0,0,1,241,152.319c-.158-.158.048-.364.222-.285a12.843,12.843,0,0,0,7.964,1.124c.048-.507-1.995-6.222-1.725-6.286a16.012,16.012,0,0,1,4.132.348c-1.948-7.695-5.13-15.01-6.951-22.7a.241.241,0,0,1,.443-.174c3.863,7.426,6.3,16.229,8.518,24.13C253.906,149.453,250.09,148.646,249.33,148.44Z" transform="translate(-240.945 -124.221)"/></g></g><path class="d" d="M254.221,182.776c8.914-1.124,6.935-15.152,6.935-15.152s9.975-2.28,8.518-18.683c0,0,6.191,9.183,20.156,9.326,2.945.032-7.79-6.159-7.79-6.159s13.078,8.962,34.136,2.027c1.488-.491-3.483-25.27-21.486-30.732-18-5.478-34.057,3.436-43.1,15.548,0,0-11.637,7.394-11.432,19.348C240.351,170.252,250.753,183.219,254.221,182.776Z" transform="translate(-240.158 -121.751)"/><g transform="translate(3.452 55.908)"><path class="a" d="M259.174,133.772s-8.74-11.1-13.822-7.917,1.947,19.6,8.233,21.533a6.284,6.284,0,0,0,8.217-3.848Z" transform="translate(-243.608 -125.282)"/><path class="d" d="M243.909,125.612a.081.081,0,0,0-.032.158c4.418,1.5,6.919,5.383,8.756,9.453-1.378-1.536-3.183-2.312-5.225-.649-.111.079,0,.253.127.222a3.825,3.825,0,0,1,4.307,1.093,17.973,17.973,0,0,1,2.232,3.325c.222.364.918.127.744-.317l-.047-.095C254.564,133.291,249.846,125.834,243.909,125.612Z" transform="translate(-240.027 -120.384)"/></g></g><g transform="translate(0 20.446)"><path class="d" d="M281.38,143.8c-.047,3.658-16.973,13.2-29.814,4.433-12.651-8.629-8.5-27.47,8.566-26.409C270.914,122.488,281.459,136.057,281.38,143.8Z" transform="translate(-244.199 -116.45)"/><path class="d" d="M244.183,137.045A21.391,21.391,0,0,1,253.16,126.1a12.942,12.942,0,0,1,12.9-.586c4.164,2.011,7.41,5.7,9.99,9.706a40.5,40.5,0,0,1,3.262,6.46,19.925,19.925,0,0,1,1.71,7.109,17.452,17.452,0,0,0-.427-7.5,32.317,32.317,0,0,0-2.692-7.125c-2.359-4.481-5.827-8.692-10.624-11.083a14.958,14.958,0,0,0-7.869-1.583,15.309,15.309,0,0,0-7.41,2.818A18.948,18.948,0,0,0,244.183,137.045Z" transform="translate(-243.845 -121.444)"/></g></g><g transform="translate(42.053 143.03)"><g transform="translate(5.526 2.571)"><path class="a" d="M246.372,153.426c-13.49,61.068-8.233,106.193,1.3,116.009,10.466,10.8,65.106,38.142,95.426,44.032,8,1.568,16.245-62.272,7.758-64.282-16.308-3.863-61.622-20.045-67.211-26.378-5.162-5.858-6.855-35.229-13.537-70C262.886,115.252,251.914,128.331,246.372,153.426Z" transform="translate(-238.218 -129.348)"/><g transform="translate(104.878 111.521)"><path class="a" d="M319.125,151.864c2.169,6.4-3.468,10.529-3.468,10.529s4.275,3.293,5,8.408c.839,5.874-8,9.769-8,9.769a17.82,17.82,0,0,1,3.863,9.722c.238,5.7-8.122,10.893-8.122,10.893a15.559,15.559,0,0,1-2,10.687c-5.478,8.36-20.741,8.028-30.447,7.917-9.722-.111-37.145-9.531-42.544-10.8l.19-62.3s43.668-11.875,55.067-10.117C298.273,138.042,316.7,144.691,319.125,151.864Z" transform="translate(-233.421 -136.392)"/><g transform="translate(47.042 18.589)"><path class="a" d="M264.677,143.965c-9.832-4.022-20.314-4.908-30.716-6.4a.184.184,0,0,0-.048.364c10.371,1.362,20.33,4.75,30.637,6.523A.257.257,0,0,0,264.677,143.965Z" transform="translate(-229.91 -137.566)"/><path class="a" d="M264.341,141.236a27.788,27.788,0,0,0-7.141-1.156c-2.549-.238-5.114-.428-7.679-.57-5.13-.3-10.26-.491-15.39-.522-.238,0-.285.348-.047.348,5.1.317,10.212.712,15.295,1.235,2.549.253,5.1.538,7.647.839a32.556,32.556,0,0,0,7.22.522A.364.364,0,0,0,264.341,141.236Z" transform="translate(-232.345 -116.471)"/><path class="a" d="M261.929,142.234c-1.931-.807-4.417-.618-6.491-.7-2.328-.1-4.671-.19-7.014-.317-4.671-.222-9.341-.459-14.012-.855-.238-.016-.285.348-.048.364,4.734.427,9.468.918,14.218,1.3q3.491.285,6.982.522c1.979.142,4.433.538,6.365-.079C262.039,142.44,262.024,142.281,261.929,142.234Z" transform="translate(-234.207 -96.047)"/></g></g></g><path class="e" d="M289.635,193.644,242.959,206.96s1.8-43,15.849-68.3C269.353,119.672,285.075,125.071,289.635,193.644Z" transform="translate(-242.959 -129.186)"/></g><g transform="translate(147.279 98.298)"><path class="a" d="M261.083,127.925c9.057,5.621,25.191,9.436,30.241,15.532a9.1,9.1,0,0,1,.966,10.8s8.708-.966,12.381,5.32c1.884,3.246-1.631,9.1-1.631,9.1s7.03-.475,9.943,5.32c2.328,4.623-1.535,9.8-1.535,9.8s6.935,2.692,7.79,8.154c1.757,11.083-35.545,35.118-50.159,25.08-6.808-4.671,2.613-10.038,2.613-10.038s-15.421,4.449-20.567-3.119c-5.161-7.553,7.521-13.807,7.521-13.807s-14.994,4.2-19.538-4.18c-4.734-8.724,9.009-12.809,9.009-12.809s-11.922-.269-13.933-7.489c-3.325-11.906,20.425-9.547,27.36-16.767l-4.18-16.435Z" transform="translate(-233.865 -103.158)"/><path class="a" d="M258.864,158.063c-8.107-6.064-4.56-22.277-11.479-29.2-9.373-9.341-14.741,9.183-7.283,26.726l8.186,12.6Z" transform="translate(-216.605 -126.361)"/><g transform="translate(12.72 51.54)"><path class="d" d="M274.708,131.541c.111-.1.269.048.158.158-10.339,10.893-25.048,19.7-39.9,22.467-.491.1-.855-.665-.333-.855C249.407,147.517,262.042,141.215,274.708,131.541Z" transform="translate(-210.337 -101.521)"/><path class="d" d="M280.525,130.518c.142-.095.317.127.19.253C270,141.949,253.165,151.4,235.669,152.589c-.6.032-1.187-.538-.491-.633C246.753,150.293,269.172,139.289,280.525,130.518Z" transform="translate(-223.832 -116.583)"/><path class="d" d="M235.8,147.683c16.736-1.773,31.223-8.74,45.061-18.034.19-.127.333.142.222.285-5.542,6.4-14.978,11.4-22.657,14.677a44.25,44.25,0,0,1-22.562,3.657C235.56,148.237,235.449,147.73,235.8,147.683Z" transform="translate(-235.582 -129.616)"/></g></g></g></g></svg>