<svg xmlns="http://www.w3.org/2000/svg" width="679.355" height="393.99" viewBox="0 0 679.355 393.99"><defs><style>.a{fill:none;stroke:#333;stroke-miterlimit:10;stroke-dasharray:8;}.b{fill:#24669a;}.b,.c,.d{stroke:#707070;}.c{fill:#222221;opacity:0.2;}.d{fill:#263238;}</style></defs><g transform="translate(129.448 -4335.842)"><path class="a" d="M0,327.634a411.9,411.9,0,0,0,36.77-55.49c9.792-17.744,18.269-36.2,28.352-53.776,26.163-45.61,64.66-85.946,113.729-104.833s109.314-12.974,148.01,22.626c22.51,20.709,36.251,49.413,44.749,78.8,3.7,12.772,6.5,26.407,3.127,39.269-.034.129-.069.257-.1.385-5.649,20.56-36.2,17.307-37.336-3.984-.9-16.979,5.28-34.977,15.775-48.717,16.674-21.828,41.814-35.272,66.4-47.532s50.079-24.489,68.518-44.849C514.231,80.556,522.13,36.262,507.521,0" transform="translate(382.092 4729.599) rotate(-173)"/><g transform="matrix(-0.985, 0.174, -0.174, -0.985, 549.411, 4426.557)"><g transform="translate(0 0)"><path class="b" d="M123.326,37.117,136.841,0,108.47,22.157,0,61.5Z" transform="translate(0 25.327)"/><path class="c" d="M123.326,37.117,136.841,0,108.47,22.157,0,61.5Z" transform="translate(0 25.327)"/><path class="d" d="M0,13.509,32.012,0,3.641,22.157Z" transform="translate(104.829 25.327)"/><path class="b" d="M108.47,47.484,0,86.822,88.969,0Z" transform="translate(0 0)"/><path class="b" d="M123.326,0,168.4,29.1,0,24.379Z" transform="translate(0 62.444)"/></g></g></g></svg>