<svg xmlns="http://www.w3.org/2000/svg" width="641.127" height="685.52" viewBox="0 0 641.127 685.52"><defs><style>.a{fill:#333;}.b{fill:#9b3218;}.c{fill:#d23c17;}.d{fill:#f9461a;}.e{fill:#ff6e4a;}.f{fill:#ff994d;}.g{fill:#f3efef;}.h{fill:#1c262a;}.i{fill:#f4968e;}.j{fill:#d3766a;}.k{fill:#1f74a3;}.l,.q{fill:#fff;}.m{fill:#24669a;}.n{fill:#ffba11;}.o{fill:#bbbbba;}.p{fill:#ec84ac;}.q{stroke:#1c262b;stroke-miterlimit:10;stroke-width:0.164px;}</style></defs><g transform="translate(205.83 -3477.009)"><g transform="translate(-205.83 3819.727)"><g transform="translate(0 0)"><g transform="translate(0 0)"><path class="a" d="M0,0H177.614V558.425H0Z" transform="translate(0 177.614) rotate(-90)"/><g transform="translate(88.989 19.733)"><rect class="b" width="138.149" height="77.239" transform="translate(374.497 138.149) rotate(-90)"/><rect class="c" width="138.149" height="77.241" transform="translate(280.872 138.149) rotate(-90)"/><rect class="d" width="138.149" height="77.24" transform="translate(187.248 138.149) rotate(-90)"/><rect class="e" width="138.149" height="77.241" transform="translate(93.624 138.149) rotate(-90)"/><rect class="f" width="138.149" height="77.24" transform="translate(0 138.149) rotate(-90)"/></g><path class="g" d="M247.673,157.68A16.318,16.318,0,1,0,264,174,16.315,16.315,0,0,0,247.673,157.68Z" transform="translate(-212.834 -79.933)"/></g></g></g><g transform="translate(-182.056 3477.008)"><g transform="translate(196.907 0)"><path class="h" d="M283.68,138.716c-6.813-9.412-19.223-12.38-31.572-10.612s-27.282,7.2-29.881,28.22c-2.122,17.071,2,34.11.769,53.226-1.215,19.116-24.791,64.36,7.243,89.243,28.774,22.345,90.7,7.5,95.087-34.4,3.476-33.233-32.787-66.483-36.017-79.939C286.079,171.011,291.154,149.019,283.68,138.716Z" transform="translate(-209.475 -127.619)"/><path class="h" d="M213.542,129.586c-.338,9.55.4,19.285,3.691,28.543a27.35,27.35,0,0,0,3.4,6.551c1.369,2.03,2.83,3.937,4.275,5.844,2.953,3.768,5.859,7.52,8.6,11.4a100.155,100.155,0,0,1,13.257,24.9,78.07,78.07,0,0,1,4.167,27.974,66.043,66.043,0,0,0,.446-14.379,71.668,71.668,0,0,0-2.707-14.225c-2.707-9.32-7.489-17.916-13.01-25.806-2.784-3.922-5.783-7.689-8.751-11.427-2.984-3.752-6.013-7.32-7.736-11.611a62.4,62.4,0,0,1-3.829-13.58A120.669,120.669,0,0,1,213.542,129.586Z" transform="translate(-134.97 -99.343)"/><path class="h" d="M232.907,130.426c-.354,9.735-.338,19.485-1.169,29.128a123.126,123.126,0,0,1-2.03,14.3c-.969,4.629-2.6,9.227-4.014,13.9-1.4,4.675-2.707,9.412-3.737,14.21a87.121,87.121,0,0,0-1.8,14.671,54.45,54.45,0,0,0,1.768,14.7,37.112,37.112,0,0,0,7.09,12.81A39.653,39.653,0,0,1,223.188,231a52.917,52.917,0,0,1-.984-14.272c.707-9.581,3.168-18.946,6.028-28.2,1.353-4.66,2.984-9.258,3.922-14.179a98.456,98.456,0,0,0,1.6-14.656A247.518,247.518,0,0,0,232.907,130.426Z" transform="translate(-220.156 -87.265)"/></g><g transform="translate(224.666 2.43)"><path class="i" d="M217.655,193.856c15.7,9.519,89.658,48.812,115.525,35.725,31.357-15.855,64.452-46.49,75.617-64.929,6.259-10.35-45.459-39.985-52.241-31.419-10.7,13.533-36.709,33.4-41.753,37.217-5.06,3.8-61.5-2.584-92.088-4.66C195.141,163.9,206.614,187.136,217.655,193.856Z" transform="translate(-199.598 -71.387)"/><g transform="translate(145.259)"><path class="j" d="M276.554,181.93c-4.721,11.826-23.806,32.218-30.3,35.371-6.505,3.152-42.261-28.143-41.815-35.54s19.377-45.951,30.681-52.365C246.412,122.984,281.429,169.689,276.554,181.93Z" transform="translate(-194.59 -113.148)"/><g transform="translate(0)"><path class="j" d="M219.5,189.254s.185-16.547-4.521-30.342c-3.968-11.6-11.15-28.374-5-30.742,12.641-4.86,30.573,37,30.573,37s4.937,19.731-7.151,25.652C225.809,194.529,219.5,189.254,219.5,189.254Z" transform="translate(-207.59 -127.777)"/></g><g transform="translate(24.105 0.393)"><path class="j" d="M204.193,157.007c1.107,6.644,8.3,1.538,8.3,1.538s-8.6,9.858-4.8,16.271c3.66,6.167,12.149-.308,12.764-.769-.446.538-8.12,9.8-3.645,15.84,4.66,6.29,12.057-1.676,12.534-2.184-.262.631-3.691,9.012.754,12.826,7.643,6.582,16.978-14.61,24.7-17.24,0,0,5.952,12.58,6.213,12.9,0,0,9.289-19.977,5.167-30.188a7.035,7.035,0,0,0-7.628-4.429s3.706-6.1.338-10.98c-1.738-2.507-7.274-1.953-7.274-1.953s2.768-5.014-.508-9.166c-2.6-3.322-7.751-2.245-7.751-2.245s.415-6.044-3.337-8.581C232.459,123.527,201.84,142.766,204.193,157.007Z" transform="translate(-203.158 -127.803)"/><g transform="translate(8.859 9.284)"><path class="h" d="M236.168,128.6a.1.1,0,0,0-.062-.185c-11.627,3.876-23.191,11.688-30.373,21.684-.231.338.2.861.523.554C215.638,141.744,224.649,134.593,236.168,128.6Z" transform="translate(-205.668 -128.407)"/><path class="h" d="M236.949,129.37c.123-.062.015-.277-.123-.231-11.949,4.06-24.745,13.21-31.65,25.713-.246.431-.031,1.061.292.585C210.7,147.471,226.553,134.722,236.949,129.37Z" transform="translate(-197.237 -117.97)"/><path class="h" d="M205.073,157.276c7.1-11.734,17.239-20.008,28.881-27.021.154-.092.016-.292-.139-.261-6.628,1.877-13.579,7.12-18.654,11.657a36.242,36.242,0,0,0-10.488,15.379C204.581,157.276,204.919,157.522,205.073,157.276Z" transform="translate(-187.922 -105.63)"/></g><path class="h" d="M211.62,129.8c-.277.4.615.369.338.784-1.138,1.692-7.089,12.472-4.029,15.64,2.445,2.538,7.535,1.015,9.273-.354l4.352-3.4-2.907,4.706a22.813,22.813,0,0,0-2.829,6.751c-.523,2.353-.431,4.813.861,6.567a4.639,4.639,0,0,0,5.506,1.876,14.032,14.032,0,0,0,5.675-4.106l4.337-4.906-2.491,6.029a21.729,21.729,0,0,0-1.415,5.229,8.638,8.638,0,0,0,.584,5.014,4.148,4.148,0,0,0,3.706,2.353,9.223,9.223,0,0,0,4.691-2.122,71.577,71.577,0,0,0,8.151-7.889c1.322-1.4,2.645-2.8,4.029-4.137a13.724,13.724,0,0,1,4.706-3.291,14.938,14.938,0,0,0-4.322,3.66c-1.261,1.43-2.476,2.907-3.675,4.4a61.474,61.474,0,0,1-7.9,8.5,10.88,10.88,0,0,1-5.552,2.722,5.938,5.938,0,0,1-5.613-3.245,10.766,10.766,0,0,1-.892-6.213,23.344,23.344,0,0,1,1.507-5.844l1.845,1.123a15.987,15.987,0,0,1-6.659,4.906,6.616,6.616,0,0,1-4.521.016,7.636,7.636,0,0,1-3.506-2.8c-1.769-2.522-1.722-5.706-1.092-8.3A24.742,24.742,0,0,1,217,146.088l1.461,1.307c-2.261,1.646-7.782,3.983-12.072.538C201.47,142.6,209.944,131.694,211.62,129.8Z" transform="translate(-202.511 -99.06)"/><path class="h" d="M216.964,137.178a13.625,13.625,0,0,1-3.983,1.107,3.141,3.141,0,0,1-2.938-1.215,6.369,6.369,0,0,1-.784-3.522c.016-1.368.108-2.784.261-4.26a10.947,10.947,0,0,0-1.738,4.106,6.35,6.35,0,0,0,.723,4.767,4.524,4.524,0,0,0,2.184,1.569,4.794,4.794,0,0,0,2.553,0A7.243,7.243,0,0,0,216.964,137.178Z" transform="translate(-207.624 -106.437)"/></g></g><g transform="translate(0 61.431)"><path class="k" d="M415.344,177.108c-.584-.215-57.47-45.336-57.47-45.336s-32.649,34.71-39.262,36.171c-6.613,1.446-83.783-4.921-100.423-4.721-16.655.2-19.547,15.871,8.474,33.08,28,17.193,78.278,40.831,106.728,36.848C361.841,229.15,415.344,177.108,415.344,177.108Z" transform="translate(-205.606 -131.772)"/><g transform="translate(20.733 12.288)"><path class="l" d="M214.967,144.559a20.222,20.222,0,0,0,0-10.258,19.771,19.771,0,0,0,0,10.258Z" transform="translate(-160.172 -107.696)"/><path class="l" d="M211.274,146.339a18.893,18.893,0,0,0,.661-5.121,18.336,18.336,0,0,0-.661-5.136,20.215,20.215,0,0,0,0,10.258Z" transform="translate(-99.933 -82.102)"/><path class="l" d="M208.067,144.488a20.215,20.215,0,0,0,0-10.258,20.221,20.221,0,0,0,0,10.258Z" transform="translate(-47.406 -108.717)"/><path class="l" d="M223.24,136.894a20.221,20.221,0,0,0-10.258,0,19.771,19.771,0,0,0,10.258,0Z" transform="translate(-147.669 -79.916)"/><path class="l" d="M218.189,137.045a18.878,18.878,0,0,0-5.121-.661,18.411,18.411,0,0,0-5.136.661,20.222,20.222,0,0,0,10.258,0Z" transform="translate(-64.94 -77.745)"/><path class="l" d="M220.581,134.328a20.221,20.221,0,0,0-10.258,0,20.223,20.223,0,0,0,10.258,0Z" transform="translate(-104.118 -116.812)"/><path class="l" d="M226.959,134.919a18.3,18.3,0,0,0-5.121-.661,17.857,17.857,0,0,0-5.137.661,18.409,18.409,0,0,0,5.137.661A18.9,18.9,0,0,0,226.959,134.919Z" transform="translate(-208.581 -108.314)"/><path class="l" d="M215.742,142.431a18.82,18.82,0,0,0,4.091-3.153A18.418,18.418,0,0,0,223,135.188a18.1,18.1,0,0,0-4.106,3.153A18.824,18.824,0,0,0,215.742,142.431Z" transform="translate(-189.875 -94.942)"/><path class="l" d="M211.785,144.863a18.164,18.164,0,0,0,4.106-3.168,18.455,18.455,0,0,0,3.153-4.091,20.194,20.194,0,0,0-7.259,7.259Z" transform="translate(-125.064 -60.203)"/><path class="l" d="M208.9,141.91a17.921,17.921,0,0,0,4.091-3.153,18.826,18.826,0,0,0,3.153-4.091,18.817,18.817,0,0,0-4.091,3.152A18.351,18.351,0,0,0,208.9,141.91Z" transform="translate(-77.78 -102.433)"/><path class="l" d="M214.47,136.7a19.875,19.875,0,0,0,7.259,7.259,17.739,17.739,0,0,0-3.168-4.091A18.424,18.424,0,0,0,214.47,136.7Z" transform="translate(-169.041 -73.215)"/><path class="l" d="M217.424,135.486a19.871,19.871,0,0,0,7.259,7.259,18.08,18.08,0,0,0-3.168-4.091A17.739,17.739,0,0,0,217.424,135.486Z" transform="translate(-217.424 -90.657)"/><path class="l" d="M211.879,135.015a18.839,18.839,0,0,0,3.153,4.091,17.913,17.913,0,0,0,4.091,3.152,17.931,17.931,0,0,0-3.153-4.091A18.839,18.839,0,0,0,211.879,135.015Z" transform="translate(-126.589 -97.429)"/><path class="l" d="M208.362,132.571a20.307,20.307,0,0,0,7.259,7.244,18.814,18.814,0,0,0-3.153-4.091A18.105,18.105,0,0,0,208.362,132.571Z" transform="translate(-69 -132.571)"/></g><path class="h" d="M260.43,176.287c-22.438-21.253-49.1-40.015-53.518-43.629-.215-.169-.461.2-.231.369,4.506,3.306,32.741,28.22,53.487,43.66C260.415,176.871,260.645,176.5,260.43,176.287Z" transform="translate(-65.886 -119.663)"/></g></g><g transform="translate(110.546 229.369)"><g transform="translate(16.821 4.18)"><g transform="translate(75.805 273.157)"><path class="i" d="M367.641,338.669c-5.429.477-152.819-35.586-157.432-40.415-.569-.523,2.414-13.933,6.782-32.2l.092-.354c2.737-11.58,46.305-105.129,46.305-105.129l95.517,27.267-44,86.782s17.916,13.1,33.279,25.544l.031.046c9.489,7.644,17.67,14.5,19.393,16.717C372.1,322.722,373.054,338.223,367.641,338.669Z" transform="translate(-209.826 -160.568)"/><path class="l" d="M367.655,275.934c-5.413.492-152.8-35.586-157.447-40.385-.569-.554,2.43-13.933,6.8-32.218l.092-.338c1-4.322,7.72-20.054,15.717-38.063,15.717,4.322,72.065,19.931,92.534,26.39L314.922,211.9s17.932,13.118,33.3,25.544l.015.046c9.489,7.644,17.67,14.5,19.408,16.717C372.115,260,373.084,275.519,367.655,275.934Z" transform="translate(-209.841 -97.848)"/><g transform="translate(0 88.028)"><path class="m" d="M368.389,257.073c-5.567.446-153.065-36.032-157.817-40.984-1.815-1.861,1.6-25.16,9.842-49.8l95.056,23.622s48.4,38.8,53.01,44.783C373.079,240.664,373.971,256.611,368.389,257.073Z" transform="translate(-210.097 -166.292)"/><g transform="translate(8.336 1.14)"><g transform="translate(0 24.702)"><path class="h" d="M359.678,205.715c-24.575-6.72-124.337-31.511-149.143-36.293-.2-.031-.231.092-.031.154,24.206,7.2,124.168,31.188,149.066,36.54C360.094,206.238,360.186,205.854,359.678,205.715Z" transform="translate(-210.369 -147.204)"/><path class="h" d="M235.952,170.936a20.425,20.425,0,0,0-16.286,2.384c-3.906,2.6-7.7,6.659-8.8,11.842-.031.138.246.215.308.061,3.8-9.32,14.7-15.64,24.7-13.979A.159.159,0,0,0,235.952,170.936Z" transform="translate(-94.07 -136.032)"/><path class="h" d="M243.767,169.429c-9.858-2.584-22.207-1.922-30.358,4.644-.308.261.061.707.384.631a141.262,141.262,0,0,1,29.835-4.014A.642.642,0,0,0,243.767,169.429Z" transform="translate(-139.579 -167.25)"/><path class="h" d="M243.318,169.749c-9.873-2.584-22.207-1.938-30.357,4.644-.307.246.062.692.385.615a140.277,140.277,0,0,1,29.835-4A.642.642,0,0,0,243.318,169.749Z" transform="translate(-132.225 -162.695)"/><path class="h" d="M242.871,170.062c-9.873-2.584-22.207-1.922-30.357,4.644-.308.261.046.707.384.631a141.278,141.278,0,0,1,29.835-4.014A.642.642,0,0,0,242.871,170.062Z" transform="translate(-124.873 -158.149)"/><path class="h" d="M242.43,170.382c-9.873-2.584-22.207-1.937-30.358,4.644-.323.246.046.692.384.615a141.265,141.265,0,0,1,29.835-4A.643.643,0,0,0,242.43,170.382Z" transform="translate(-117.526 -153.594)"/><path class="h" d="M229.626,168.259c-11.119-2.707-15.348,14.548-4.229,17.27S240.744,170.982,229.626,168.259Z" transform="translate(-217.341 -167.972)"/></g><path class="h" d="M238.442,183.8c-7.043,5.567-16.255,7.889-24.5,11.026a1.244,1.244,0,0,1-1.584-1.246c-.169-.031-.307-.154-.231-.354a53.542,53.542,0,0,1,15.24-23.083c4.152-3.553,11.473-6.044,15.456-.661C246.593,174.592,242.564,180.543,238.442,183.8Zm2.492-8.089c1.676-11.011-10.073-5.136-13.041-2.4a55.053,55.053,0,0,0-5.26,5.782c-3.445,4.183-6.213,8.781-9.212,13.272,3.968-1.784,8.043-3.214,12.057-4.844C230.276,185.573,240.011,181.789,240.934,175.715Z" transform="translate(-121.413 -166.366)"/><path class="h" d="M214.56,171.9c2.368-6.259,10.088-5.844,15.055-3.552a53.533,53.533,0,0,1,20.931,18.1.265.265,0,0,1-.139.4,1.25,1.25,0,0,1-1.184,1.63c-8.8-.784-18.285-.523-26.574-3.983C217.8,182.481,212.314,177.836,214.56,171.9Zm21.576,12.672c4.306.477,8.627.754,12.918,1.4-4.091-3.506-8.012-7.2-12.457-10.289a54.833,54.833,0,0,0-6.628-4.137c-3.6-1.845-16.5-4.306-11.9,5.844C220.6,182.973,231,183.988,236.136,184.572Z" transform="translate(-157.431 -160.045)"/></g></g></g><g transform="translate(0)"><path class="a" d="M410.342,501.5,308.027,470.235s85.368-175.595,82.753-184.56c-1.738-5.982-128.382-7.059-165.321-40.569-38.247-34.694-7.982-102.3-7.982-102.3H323.959s-1.953,22.207,2.107,25.7c2.66,2.307,148.174,15.871,175.779,69.542C526.9,286.751,410.342,501.5,410.342,501.5Z" transform="translate(-206.112 -142.806)"/><path class="h" d="M340.537,285.675c.446,1.507-1.646,7.828-5.444,17.27l76.048,94.41c27.6-62.069,53.641-133.688,40.446-159.309-27.6-53.656-173.1-67.236-175.795-69.542-4.029-3.476-2.092-25.7-2.092-25.7H206.111L317.73,281.338C331.248,282.906,340.076,284.121,340.537,285.675Z" transform="translate(-155.853 -142.806)"/><g transform="translate(16.011 9.364)"><g transform="translate(99.51 301.115)"><path class="h" d="M303.477,189.542a64.877,64.877,0,0,0-8.335-3.152c-2.953-1.015-5.906-2.046-8.874-3.014-5.844-1.907-11.7-3.737-17.593-5.444-11.888-3.43-23.791-6.782-35.771-9.889-6.228-1.63-19.608-5.167-20.438-5.044-.4.062-.492.738-.139.861,11.565,4.2,23.314,7.813,35.048,11.457s23.468,7.243,35.356,10.319c3.291.846,6.613,1.6,9.919,2.414a74.12,74.12,0,0,0,10.519,2.307C303.508,190.388,303.847,189.742,303.477,189.542Z" transform="translate(-212.108 -162.995)"/></g><path class="h" d="M212.645,154.366c.354-3.553.769-7.105,1.184-10.642.046-.415.692-.415.646.015-1.492,14.379-3.03,29.112-.446,43.476a61.964,61.964,0,0,0,18.839,34.571c21.023,19.808,50.535,25.76,78.032,30.573,15.748,2.768,31.588,4.921,47.49,6.552q11.7,1.222,23.422,2c7.735.523,15.5.646,23.237,1.107,2.445.154,4.629,1.277,4.229,4.075a18.868,18.868,0,0,1-1.892,4.875c-.83,1.892-1.676,3.768-2.507,5.644q-4.729,10.519-9.489,21.023-9.85,21.638-19.946,43.138-20.07,42.723-41.63,84.706c-1.768,3.476-3.568,6.951-5.352,10.427-.123.23-.446.015-.338-.216q20.6-42.537,40.692-85.306c6.643-14.148,13.3-28.3,19.869-42.491q4.937-10.635,9.8-21.3c1.615-3.568,3.245-7.12,4.86-10.673.8-1.784,1.6-3.568,2.414-5.352.661-1.476,3.091-5.014,1.43-6.413-1.092-.938-3.4-.631-4.737-.677-2.061-.061-4.121-.154-6.182-.231-3.906-.154-7.813-.323-11.734-.538-7.9-.446-15.825-1.031-23.714-1.753-15.471-1.415-30.9-3.46-46.213-6.013-27.328-4.537-57.055-9.658-78.847-28.128-9.612-8.151-17.147-18.608-20.838-30.727C210.815,182.617,211.292,168.223,212.645,154.366Z" transform="translate(-211.678 -143.415)"/></g></g></g><g transform="translate(0)"><g transform="translate(289.348 220.759)"><path class="i" d="M409.544,259.927c-3.875,3.829-140.408,70.05-147.036,69.281-.784-.046-7.028-12.272-15.3-29.142l-.169-.323c-5.29-10.673-53.272-100.392-53.272-100.392l84.952-42.461,49.351,87.336s22.161-1.338,41.938-1.553l.046.015c12.18-.169,22.853-.092,25.606.508C402.793,244.794,413.435,256.128,409.544,259.927Z" transform="translate(-193.765 -156.889)"/><path class="l" d="M375.772,201.319c-3.875,3.829-140.408,70.05-147.051,69.281-.769-.046-7.013-12.272-15.3-29.127l-.154-.338c-.369-.738-.753-1.492-1.138-2.245-.261-.554-.554-1.092-.846-1.615-.4-.8-.83-1.6-1.261-2.415-3.645-7.013-9.658-18.362-16.255-30.788l86.613-43.107L294.3,185.617s22.161-1.323,41.938-1.553l.062.015c12.165-.154,22.853-.092,25.59.508C369.021,186.2,379.663,197.52,375.772,201.319Z" transform="translate(-159.993 -98.281)"/><g transform="translate(44.721 54.592)"><path class="m" d="M365.583,180.669c-4.014,3.906-140.885,69.881-147.7,69.1-2.584-.292-14.81-20.408-24.176-44.645L282,162.707s62.007-.984,69.389.677C358.739,165.06,369.6,176.778,365.583,180.669Z" transform="translate(-193.71 -131.993)"/><g transform="translate(19.753)"><g transform="translate(0 27.513)"><path class="h" d="M332.158,163.38c-23.222,10.488-115.863,55.01-138.024,67.143-.169.108-.108.231.077.154,23.237-9.9,115.525-55.164,138.132-66.928C332.819,163.5,332.65,163.149,332.158,163.38Z" transform="translate(-184.636 -146.739)"/><path class="h" d="M207.471,162.453a20.492,20.492,0,0,0-11.026,12.211c-1.353,4.491-1.676,10.042.784,14.733.062.123.323.015.277-.138-3.014-9.612,1.338-21.438,10.1-26.528A.155.155,0,0,0,207.471,162.453Z" transform="translate(-80.726 -159.253)"/><path class="h" d="M219.019,162.42c-9.243,4.291-18.331,12.672-20.408,22.93-.092.4.477.507.692.231a141.211,141.211,0,0,1,20.423-22.115A.638.638,0,0,0,219.019,162.42Z" transform="translate(-142.178 -160.388)"/><path class="h" d="M218.483,162.377c-9.243,4.306-18.331,12.672-20.423,22.93-.077.4.492.508.692.246a140.625,140.625,0,0,1,20.438-22.115A.646.646,0,0,0,218.483,162.377Z" transform="translate(-133.214 -161.006)"/><path class="h" d="M217.936,162.335c-9.258,4.291-18.332,12.672-20.423,22.93-.077.4.477.507.692.231a141.2,141.2,0,0,1,20.423-22.115A.634.634,0,0,0,217.936,162.335Z" transform="translate(-124.24 -161.61)"/><path class="h" d="M217.375,162.291c-9.242,4.306-18.331,12.672-20.407,22.93-.092.4.477.507.677.246a140.62,140.62,0,0,1,20.438-22.115A.646.646,0,0,0,217.375,162.291Z" transform="translate(-115.267 -162.228)"/><path class="h" d="M207.375,166.97c-10.289,5-2.553,20.992,7.751,15.994C225.415,177.965,217.679,161.971,207.375,166.97Z" transform="translate(-202.523 -107.79)"/></g><path class="h" d="M216.274,174.5c-1.876,8.8-7.489,16.455-11.842,24.129a1.245,1.245,0,0,1-2.015.046.268.268,0,0,1-.415-.123,53.513,53.513,0,0,1-2.968-27.5c.938-5.382,4.983-11.98,11.488-10.365C216.674,162.225,217.366,169.376,216.274,174.5Zm-3.245-7.812c-5.721-9.55-11.042,2.476-11.58,6.475a60.253,60.253,0,0,0-.369,7.812c.031,5.413.83,10.734,1.384,16.1,1.907-3.906,4.137-7.612,6.2-11.442C211.107,181.079,216.2,171.959,213.029,166.685Z" transform="translate(-135.558 -160.439)"/><path class="h" d="M199.631,176.527c-2.168-6.336,4.045-10.934,9.335-12.334a53.361,53.361,0,0,1,27.651.6.27.27,0,0,1,.169.4,1.24,1.24,0,0,1,.108,2c-7.259,5-14.41,11.257-23.007,13.887C208.874,182.6,201.692,182.54,199.631,176.527Zm24.7-4c3.63-2.384,7.136-4.921,10.858-7.151a157.413,157.413,0,0,0-16.163.016,56.879,56.879,0,0,0-7.751,1.03c-3.937.876-15.456,7.212-5.444,12.1C211.35,181.217,219.993,175.358,224.33,172.528Z" transform="translate(-168.619 -128.558)"/></g></g></g><path class="a" d="M607.152,409.9,504.714,460.423s-78.908-162.553-87.6-173.042C405.522,273.4,253.5,292.288,217.9,247.12c-36.817-46.705-4.767-104.314-4.767-104.314l115.648.523s.277,12.826-6.49,31.542c0,0,132.272-7.182,169.5,29.389C520.37,232.326,607.152,409.9,607.152,409.9Z" transform="translate(-200.203 -138.626)"/><g transform="translate(12.786)"><path d="M250.261,145.148a76.84,76.84,0,0,0-13.964,5.567,202.555,202.555,0,0,0-18.454,11.134c-.185.123.015.384.2.277,6.321-3.507,12.857-6.69,19.408-9.75,3.153-1.461,11.35-5.321,14.5-6.782C255.121,144.118,253.645,144.349,250.261,145.148Z" transform="translate(-129.686 -114.04)"/><path class="h" d="M233.811,142.931c-1.215,5.444-2.245,10.934-3.645,16.347-.63,2.476-1.261,5-2.122,7.413-.738,2.03-1.861,4.368-4.168,4.891-2.676.584-3.506-1.692-3.352-3.922.169-2.476.738-4.983,1.153-7.428.477-2.83.969-5.644,1.4-8.489.215-1.415.446-2.83.646-4.245.046-.369.231-3.076.4-3.845.031.062.077.123.154.108l.092-.015a.2.2,0,0,0,.169-.154.36.36,0,0,0-.154-.4.208.208,0,0,0-.246,0c-.508.292-.523,1-.677,1.523-.384,1.384-.8,2.753-1.153,4.152-.677,2.6-1.338,5.213-1.922,7.843-.584,2.615-1.138,5.244-1.707,7.874-.431,1.968-.938,4.045-.354,6.028a4.577,4.577,0,0,0,4.352,3.337c-.092.185-.2.354-.277.539-.215.538-.384,1.107-.569,1.661q-.276.853-.507,1.707a5.348,5.348,0,0,0-.123.846c-.031.323.046.615.016.938a.452.452,0,0,0,.846.277c.139-.292.338-.507.477-.769a4.275,4.275,0,0,0,.369-.923c.169-.538.307-1.092.43-1.645s.277-1.107.354-1.661a7.54,7.54,0,0,0,.077-1,6.363,6.363,0,0,0,3.091-1.276,10.689,10.689,0,0,0,3.091-5.044c.754-2.276,1.323-4.629,1.892-6.951a102.587,102.587,0,0,0,2.953-17.532A.5.5,0,0,0,233.811,142.931Z" transform="translate(-115.266 -142.534)"/><path d="M259.6,143.742c-.415,2.707-.646,5.429-1.184,8.1-.538,2.614-1.169,5.244-1.953,7.812a27.558,27.558,0,0,1-3.107,7.059,25.9,25.9,0,0,1-5.106,5.506,44.558,44.558,0,0,1-12.5,7.428,56.242,56.242,0,0,1-7,2.276c-1.246.323-2.491.569-3.752.769a8.1,8.1,0,0,0-3.03.784.622.622,0,0,0,.092,1.061c1.63.738,3.907.246,5.629.015a39.5,39.5,0,0,0,5.967-1.23,42.956,42.956,0,0,0,11.211-5.106,35.669,35.669,0,0,0,9.274-8.028,26.974,26.974,0,0,0,4.752-11.273,55.112,55.112,0,0,0,1.23-15.148A.266.266,0,0,0,259.6,143.742Z" transform="translate(-196.898 -128.105)"/><g transform="translate(289.058 252.563)"><path d="M285.983,158.971a66.329,66.329,0,0,0-8.228,3.43c-2.845,1.292-5.69,2.568-8.52,3.891-5.552,2.63-11.073,5.321-16.532,8.135-11,5.659-21.961,11.4-32.787,17.347-5.659,3.107-17.808,9.72-18.316,10.381-.261.323.139.861.477.723,11.3-4.891,22.315-10.319,33.357-15.732,11.026-5.4,22.038-10.842,32.787-16.778,2.968-1.646,5.906-3.368,8.858-5.044,3.091-1.769,6.413-3.353,9.243-5.552C286.583,159.556,286.383,158.848,285.983,158.971Z" transform="translate(-201.515 -158.957)"/></g><path d="M206.9,144.885a.385.385,0,0,1,.769.031c-.354,25.1,3.383,53.2,22.622,71.311,21.084,19.854,51.642,22.376,79.155,22.284,15.794-.046,31.557-.369,47.351.215,15.871.584,31.88,1.445,47.628,3.537,6.351.846,11.672,3.153,16.132,7.812,4.337,4.537,7.443,10.119,10.642,15.471q11.81,19.792,22.883,40.031,21.984,40.23,40.646,82.107c1.553,3.475,3.076,6.951,4.6,10.427.092.231-.246.415-.338.185Q480,356.289,458.107,315.666q-10.911-20.3-22.576-40.2c-3.645-6.244-7.182-12.611-11.273-18.578-3.6-5.275-8.12-10.242-14.394-12.18-3.8-1.169-7.843-1.4-11.765-1.769q-6.043-.6-12.1-1.061-11.811-.922-23.637-1.415c-15.917-.661-31.818-.554-47.735-.354-27.651.354-57.84-.754-80.661-18.455A65.087,65.087,0,0,1,212.8,191.79c-4.26-11.965-5.736-24.775-5.967-37.417C206.787,151.206,206.818,148.053,206.9,144.885Z" transform="translate(-206.812 -113.823)"/></g></g></g><path class="m" d="M369.654,250.123l-5.921,53.395s-122.246,5.536-147.667,4.152c0,0,61.038-143.069,101.823-167.782,20.392-12.38,38.262-5.844,46.459,9.3,2.092,3.83,23.114,51.319,21.684,70.1C384.741,235.851,369.654,250.123,369.654,250.123Z" transform="translate(-112.567 -44.639)"/><g transform="translate(201.429 2.599)"><g transform="translate(55.603 28.447)"><path class="n" d="M215.179,143.783c-.784,8.428,4.568,15.825,11.949,16.517,7.4.692,14.041-5.567,14.825-13.994.8-8.428-4.552-15.825-11.949-16.517C222.622,129.08,215.979,135.355,215.179,143.783Z" transform="translate(-210.711 -128.269)"/><path class="o" d="M215.277,145.275c-.876,9.366,5.075,17.593,13.3,18.378,8.212.769,15.594-6.2,16.486-15.579.877-9.366-5.075-17.593-13.3-18.378C223.551,128.927,216.169,135.894,215.277,145.275Z" transform="translate(-215.192 -129.638)"/></g><g transform="translate(7.166 0.458)"><g transform="translate(11.969 56.206)"><path class="j" d="M217.58,172.288c.554,2.384,11.949,17.808,22.822,17.27,3.537-.184,3.429-19.546,3.429-19.546l.308-1.446,4.445-20.039-23.576-15.056-3.4-2s-.861,5.567-1.846,12.518l-.154.984c-.062.385-.123.754-.169,1.123-.169,1.031-.323,2.092-.461,3.153-.108.8-.215,1.584-.308,2.43s-.184,1.676-.292,2.522C217.534,162.6,217.35,171.288,217.58,172.288Z" transform="translate(-217.489 -131.473)"/><path class="h" d="M217.489,143.991a41.145,41.145,0,0,0,24.375,24.575l4.445-20.039-23.576-15.056-3.4-2S218.473,137.04,217.489,143.991Z" transform="translate(-215.214 -131.473)"/></g><path class="h" d="M215.457,127.849c.615.092,21.561,4.921,26.851,18.808,5.29,13.871,0,31.849,0,31.849Z" transform="translate(-170.348 -127.376)"/><path class="j" d="M280.481,171.321c1.4,36.017-20.008,40.923-27.774,41.215-7.059.261-31.1.277-36.2-35.4-5.121-35.663,11.181-47.7,27.282-49.166C259.874,126.507,279.082,135.319,280.481,171.321Z" transform="translate(-207.614 -127.818)"/><g transform="translate(40.111 29.953)"><path class="h" d="M221,133.581c-.846-.062-1.63-.277-2.461-.415a3.992,3.992,0,0,1-2.414-.907,1.292,1.292,0,0,1-.062-1.569,3.214,3.214,0,0,1,3.107-.861,4.6,4.6,0,0,1,2.984,1.538A1.364,1.364,0,0,1,221,133.581Z" transform="translate(-193.946 -129.766)"/><path class="h" d="M218.724,133.858c.846-.139,1.6-.4,2.415-.615a4.039,4.039,0,0,0,2.353-1.092,1.273,1.273,0,0,0-.077-1.569,3.187,3.187,0,0,0-3.153-.615,4.667,4.667,0,0,0-2.86,1.769A1.367,1.367,0,0,0,218.724,133.858Z" transform="translate(-215.325 -128.966)"/><g transform="translate(0 11.365)"><g transform="translate(3.304)"><path class="h" d="M219.4,130.683c-.031-.092-.185.123-.185.231.231,2.445.092,5.275-2.076,6.228-.062.031-.046.154.031.139C219.85,136.727,220,132.959,219.4,130.683Z" transform="translate(-214.142 -128.268)"/><path class="h" d="M220.02,130.505c-3.953-.061-3.768,7.859-.108,7.9C223.526,138.456,223.342,130.536,220.02,130.505Z" transform="translate(-217.111 -130.505)"/></g><path class="h" d="M222.022,130.659c-.692.477-1.353,1.277-2.184,1.384-.953.108-1.707-.692-2.353-1.476-.077-.092-.139-.016-.139.092.016,1.522.631,3.06,2.276,3.245,1.477.169,2.522-1.2,2.861-2.737C222.544,130.889,222.283,130.474,222.022,130.659Z" transform="translate(-217.346 -130.212)"/></g><g transform="translate(22.512 10.152)"><g transform="translate(0 0.217)"><path class="h" d="M216.166,130.638c.015-.108.2.108.2.2-.046,2.461.323,5.275,2.568,6.059.062.031.062.154-.031.139C216.2,136.7,215.735,132.944,216.166,130.638Z" transform="translate(-216.025 -128.026)"/><path class="h" d="M218.1,130.453c3.937-.369,4.383,7.536.723,7.874C215.239,138.665,214.793,130.745,218.1,130.453Z" transform="translate(-215.805 -130.44)"/></g><path class="h" d="M216.074,131.086c.646.384,1.307,1.107,2.061,1.107.861.016,1.461-.877,1.968-1.722.046-.092.123-.031.123.077.123,1.507-.277,3.107-1.722,3.476-1.307.338-2.353-.907-2.8-2.384C215.628,131.363,215.813,130.932,216.074,131.086Z" transform="translate(-212.104 -130.426)"/></g><path class="h" d="M217.029,131.967c.584.6,1.153,1.4,2.045,1.492a6.354,6.354,0,0,0,2.645-.569.1.1,0,0,1,.108.138,3.313,3.313,0,0,1-3.153,1.261,2.593,2.593,0,0,1-1.876-2.214C216.768,131.936,216.952,131.89,217.029,131.967Z" transform="translate(-208.217 -98.655)"/><g transform="translate(10.267 0.239)"><path class="h" d="M224.672,153.626s.646,3.645.708,5.383c0,.154-.415.246-1,.308h-.062a8.2,8.2,0,0,1-8.089-2.784.176.176,0,0,1,.246-.246,12.481,12.481,0,0,0,7.582,1.876c.108-.477-1.307-6.2-1.031-6.228a15.031,15.031,0,0,1,3.953.738c-1.107-7.628-3.43-15.01-4.414-22.622a.237.237,0,0,1,.446-.139c2.983,7.582,4.444,16.333,5.8,24.176C228.978,155.072,225.379,153.9,224.672,153.626Z" transform="translate(-216.193 -129.781)"/></g><g transform="translate(9.952 26.714)"><path class="h" d="M224.911,133.395a9.978,9.978,0,0,1-3.522,3.645,4.516,4.516,0,0,1-2.676.553c-2.03-.231-2.337-2.014-2.2-3.614a11.07,11.07,0,0,1,.523-2.476A13.066,13.066,0,0,0,224.911,133.395Z" transform="translate(-216.486 -131.503)"/><path class="p" d="M221.619,134.729a4.516,4.516,0,0,1-2.676.553c-2.03-.231-2.337-2.014-2.2-3.614C218.866,131.577,221.157,132.715,221.619,134.729Z" transform="translate(-216.715 -129.193)"/></g></g><path class="h" d="M273.157,135.23s.723,6.813-4.506,14.256c-6.767,9.627-18.67,8.981-18.67,8.981a48.046,48.046,0,0,0,6.982-7.367s-9.335,10.319-23.453,14.256c0,0-6.474,13.426-12.211,13.426-5.721,0-8.812-31.849,3.245-39.739,0,0,9.166-13.349,31.726-10.919C267.821,129.371,273.157,135.23,273.157,135.23Z" transform="translate(-211.163 -127.652)"/><g transform="translate(0 42.444)"><path class="i" d="M233.953,140s-7.32-11.611-12.549-9.058c-5.229,2.568-.108,19.131,5.782,21.638a6.078,6.078,0,0,0,8.3-2.876Z" transform="translate(-219.232 -130.578)"/><path class="h" d="M219.533,130.91c-.092-.015-.123.108-.031.154,4.106,1.892,6.136,5.89,7.489,10.011-1.169-1.615-2.83-2.553-4.983-1.169-.123.077-.015.246.092.231a3.768,3.768,0,0,1,4.06,1.507,17.021,17.021,0,0,1,1.815,3.43c.185.384.877.215.753-.231l-.031-.092C229.052,139.4,225.253,131.71,219.533,130.91Z" transform="translate(-215.777 -125.823)"/></g></g><g transform="translate(0)"><path class="o" d="M216.224,166.136s.692-18.516,7.136-28.082c7.166-10.657,31.957-15.671,47.659-1.768,0,0-25.975-10.981-40.477,3.337-6.121,6.028-8.228,27.635-8.228,27.635Z" transform="translate(-201.335 -127.788)"/><path class="o" d="M248.584,148.226c-.876,9.381-8.259,16.348-16.486,15.579-8.212-.784-14.164-9-13.287-18.378.877-9.366,8.259-16.348,16.486-15.563C243.525,130.633,249.476,138.861,248.584,148.226Z" transform="translate(-217.455 -98.806)"/><path class="n" d="M245.857,146.433c-.8,8.428-7.428,14.7-14.825,13.995-7.4-.692-12.749-8.089-11.949-16.517s7.428-14.686,14.825-13.994C241.29,130.608,246.642,138.005,245.857,146.433Z" transform="translate(-219.004 -97.951)"/></g></g><g transform="translate(0 99.578)"><path class="j" d="M341.221,138.924c-45.66,47.521-112.2,167.859-120.431,185.114-5.6,11.719,55.64,42.6,58.239,34.079,3.337-10.919,56.686-145.591,70.85-196.4C357.692,133.7,350.648,129.113,341.221,138.924Z" transform="translate(-146.788 -132.304)"/><g transform="translate(0 184.814)"><path class="j" d="M360.2,179.053c-2.138,5.829-9.412,30.619-14.5,33.7-5.075,3.091-31.757,2.43-45.214,2.43s-16.1-3.752-15.886-8.381c.231-4.629,28.451-5.506,28.451-5.506s-37.693,10.8-47.182,12.565c-9.473,1.769-31.327,7.274-34.479-.584-1.43-3.552,4.552-7.136,4.552-7.136s-9.166,2.676-10.627-1.876c-1.661-5.183,5.629-8.043,5.629-8.043s-5.721,1.154-5.859-3.076c-.292-9.443,35.556-14.087,35.556-14.087s-27.451,13.364-28.328,5.659c-1.215-10.673,55.041-22.376,60.9-27.02a39.928,39.928,0,0,0,9.381-11.58Z" transform="translate(-225.066 -146.112)"/><g transform="translate(5.875 27.989)"><path class="h" d="M228.441,161.363a4.112,4.112,0,0,1,1.277-3.6,11.221,11.221,0,0,1,3.276-2.122,44.245,44.245,0,0,1,7.7-2.507c5.306-1.353,10.734-2.291,16.148-3.691a65.14,65.14,0,0,0-16.609,1.861,30.181,30.181,0,0,0-7.935,3.03,11.007,11.007,0,0,0-3.307,2.845A4.3,4.3,0,0,0,228.441,161.363Z" transform="translate(-174.569 -126.315)"/><path class="h" d="M230.176,162.755c3.875-.938,7.7-2.046,11.518-3.137,3.83-1.092,7.613-2.276,11.411-3.414l11.349-3.568q5.675-1.776,11.4-3.506a89.955,89.955,0,0,0-11.78,2.107c-3.891.892-7.7,2-11.519,3.153-3.8,1.2-7.582,2.445-11.3,3.845C237.511,159.633,233.805,161.078,230.176,162.755Z" transform="translate(-225.178 -130.721)"/><path class="h" d="M272.337,148.517a76.052,76.052,0,0,0-10.873,1.507,101.9,101.9,0,0,0-10.642,2.737,94,94,0,0,0-10.288,3.845,78.069,78.069,0,0,0-9.766,5.029c3.476-1.2,6.844-2.522,10.288-3.675,3.445-1.169,6.874-2.337,10.334-3.4,3.445-1.107,6.936-2.107,10.411-3.137C265.293,150.424,268.815,149.47,272.337,148.517Z" transform="translate(-230.768 -139.521)"/><path class="h" d="M264.361,147.932a67.388,67.388,0,0,0-17.316,3.66,66.492,66.492,0,0,0-15.917,7.7c5.567-1.984,10.981-4.075,16.532-5.921C253.166,151.469,258.733,149.747,264.361,147.932Z" transform="translate(-228.329 -147.932)"/></g></g><g transform="translate(69.943)"><path class="k" d="M352.948,176.67c-10.842,46.582-62.607,173.98-62.607,173.98l-46.505-22.422-23.468-11.319S300.245,192.11,332.91,151.28c2.522-3.137,4.814-5.829,6.936-8.074C360.069,121.568,361.3,140.761,352.948,176.67Z" transform="translate(-220.368 -134.094)"/><g transform="translate(24.82 3.621)"><path class="l" d="M227.9,154.787a20.371,20.371,0,0,0,.877-10.212,17.566,17.566,0,0,0-1.107,5.044A18.309,18.309,0,0,0,227.9,154.787Z" transform="translate(-227.595 12.98)"/><path class="l" d="M221.289,144.557a18.32,18.32,0,0,0,1.107-5.06,17.756,17.756,0,0,0-.231-5.167,18.292,18.292,0,0,0-1.092,5.06A18.891,18.891,0,0,0,221.289,144.557Z" transform="translate(-119.496 -134.33)"/><path class="l" d="M235.571,144.827a20.408,20.408,0,0,0-10.227-.876,17.782,17.782,0,0,0,5.06,1.107A18.3,18.3,0,0,0,235.571,144.827Z" transform="translate(-199.475 -0.298)"/><path class="l" d="M233.571,140.722a18.072,18.072,0,0,0-5.044-1.092,18.3,18.3,0,0,0-5.167.215,20.37,20.37,0,0,0,10.212.877Z" transform="translate(-166.948 -59.322)"/><path class="l" d="M225.578,148.009a17.972,17.972,0,0,0,4.352-2.783,18.377,18.377,0,0,0,3.491-3.814,18.011,18.011,0,0,0-4.352,2.8A18.29,18.29,0,0,0,225.578,148.009Z" transform="translate(-200.924 -32.5)"/><path class="l" d="M221.84,143.079a20.233,20.233,0,0,0,7.843-6.6,17.756,17.756,0,0,0-4.337,2.8A18.4,18.4,0,0,0,221.84,143.079Z" transform="translate(-139.701 -103.387)"/><path class="l" d="M223.562,151.587a18.483,18.483,0,0,0,4.352-2.8,17.987,17.987,0,0,0,3.491-3.814,20.4,20.4,0,0,0-7.843,6.613Z" transform="translate(-167.905 18.717)"/><path class="l" d="M223.459,141.9a20.1,20.1,0,0,0,6.613,7.843,20.1,20.1,0,0,0-6.613-7.843Z" transform="translate(-164.988 -25.497)"/><path class="l" d="M225.923,146.355a18.708,18.708,0,0,0,2.8,4.337,18.48,18.48,0,0,0,3.814,3.507,20.1,20.1,0,0,0-6.613-7.843Z" transform="translate(-205.345 38.574)"/><path class="l" d="M221.786,138.109a18.718,18.718,0,0,0,2.8,4.337,18.058,18.058,0,0,0,3.814,3.506,20.1,20.1,0,0,0-6.613-7.843Z" transform="translate(-137.586 -79.993)"/></g><path class="h" d="M288.6,176.266c-27.374-15.886-58.547-28.42-63.822-30.988-.246-.123-.415.292-.154.4,5.306,2.261,39.385,20.454,63.806,31.034C288.709,176.835,288.863,176.42,288.6,176.266Z" transform="translate(-214.753 26.387)"/></g></g></g><g transform="translate(-137.358 3539.003)"><path class="q" d="M301.026,169.064a24.192,24.192,0,0,0,4.145-13.378c0-16.943-18.62-30.694-41.562-30.694s-41.539,13.752-41.539,30.694,18.587,30.694,41.539,30.694c11.131,0,21.209-3.224,28.665-8.488l14.311,3.641Z" transform="translate(-222.07 -124.991)"/><g transform="translate(17.973 26.384)"><path class="h" d="M235.971,131.707a4.31,4.31,0,1,1-4.31-4.31A4.31,4.31,0,0,1,235.971,131.707Z" transform="translate(-227.352 -127.397)"/><ellipse class="h" cx="4.309" cy="4.309" rx="4.309" ry="4.309" transform="translate(19.261 0.001)"/><ellipse class="h" cx="4.309" cy="4.309" rx="4.309" ry="4.309" transform="translate(38.518 0.001)"/></g></g></g></svg>