<svg xmlns="http://www.w3.org/2000/svg" width="2704.748" height="459.495" viewBox="0 0 2704.748 459.495"><defs><style>.a{fill:#eeebfd;}.a,.c{fill-rule:evenodd;}.b,.c{fill:#d3cdec;}</style></defs><g transform="translate(0)"><path class="a" d="M1123.675,983.568h92.211c49.629,0,90.233,29.674,90.233,65.941h0c0,36.268-40.6,65.94-90.233,65.94h-779.7c-80.364,0-146.113-48.048-146.113-106.775h0c0-58.728,65.75-106.777,146.111-106.777h0c33.979,0,61.778-20.315,61.778-45.146h0c0-24.831-27.8-45.148-61.78-45.148H361.83c-35.328,0-64.232-21.123-64.232-46.938h0c0-25.817,28.9-46.939,64.232-46.939h94.02c13.752,0,25.006-8.225,25.006-18.274h0c0-10.049-11.255-18.273-25.006-18.273H439.275c-9.491,0-17.257-5.676-17.257-12.612h0c0-6.936,7.765-12.612,17.257-12.612H548.031c22.9,0,25.454,19.774,83.31,19.774h166.7c12.386,0,22.52,7.407,22.52,16.456v0c0,9.05-10.134,16.456-22.52,16.456H776.415c-17.947,0-32.631,10.732-32.631,23.844h0c0,13.114,14.683,23.846,32.631,23.846h32.546c87.888,0,100.3,16.784,115.693,50.167s95.338,36.076,95.338,36.076H1129.3c27.045,0,49.173,16.17,49.173,35.933v0c0,19.763-22.127,35.933-49.173,35.933h-5.629c-26.012,0-47.3,15.555-47.3,34.564h0c0,19.009,21.285,34.562,47.3,34.562ZM390.845,681.179c9.533,0,17.259-5.647,17.259-12.612s-7.726-12.612-17.259-12.612-17.259,5.648-17.259,12.612S381.315,681.179,390.845,681.179Z" transform="translate(-290.07 -655.954)"/><path class="a" d="M849.986,279.986l91.667.639,2.383.017c50.618.353,92.321,25.53,92.673,55.947h0c.353,30.419-40.773,55.017-91.391,54.664L676.641,389.38l-46.275-.322-480.3-3.347C68.1,385.14.575,344.374,0,295.118H0C-.567,245.862,66.026,206.03,147.99,206.6h0c34.656.241,62.812-16.6,62.571-37.426h0c-.242-20.827-28.795-38.064-63.451-38.306l-75.833-.528C35.246,130.09,5.56,112.168,5.309,90.517h0C5.058,68.864,34.333,51.353,70.365,51.6l95.895.668c14.026.1,25.425-6.721,25.327-15.149h0c-.1-8.429-11.657-15.406-25.683-15.5L149,21.5c-9.681-.067-17.656-4.883-17.723-10.7h0c-.067-5.818,7.8-10.523,17.478-10.456l63.356.441,47.569.331c23.361.163,26.154,16.766,85.164,17.177l170.023,1.185c12.633.088,23.041,6.373,23.129,13.962h0c.088,7.59-10.176,13.73-22.809,13.642l-22.057-.154c-18.3-.128-33.177,8.769-33.049,19.767h0c.128,11,15.208,20.1,33.513,20.232l33.195.231c89.64.625,102.463,14.79,118.488,42.9S742.864,161,742.864,161l111.491.777c27.585.192,50.311,13.912,50.5,30.487h0c.192,16.576-22.219,29.98-49.8,29.788l-5.741-.04c-26.53-.185-48.088,12.71-47.9,28.653h0c.185,15.943,22.045,29.139,48.576,29.324ZM99.6,21.157c9.723.068,17.548-4.614,17.48-10.456S109.081.068,99.358,0,81.81,4.615,81.878,10.456,89.883,21.09,99.6,21.157Z" transform="matrix(-1, 0.017, -0.017, -1, 2704.748, 416.286)"/></g><g transform="translate(123.846 45.756)"><g transform="translate(0 166.087)"><g transform="translate(1322.084 0)"><path class="b" d="M558.818,377.364a2.266,2.266,0,1,0-2.266,2.266A2.268,2.268,0,0,0,558.818,377.364Z" transform="translate(-554.286 -225.968)"/><ellipse class="b" cx="2.266" cy="2.266" rx="2.266" ry="2.266" transform="translate(30.358 149.13)"/><ellipse class="b" cx="2.266" cy="2.266" rx="2.266" ry="2.266" transform="translate(60.719 149.13)"/><ellipse class="b" cx="2.266" cy="2.266" rx="2.266" ry="2.266" transform="translate(91.079 149.13)"/><path class="b" d="M558.818,388.951a2.266,2.266,0,1,0-2.266,2.266A2.269,2.269,0,0,0,558.818,388.951Z" transform="translate(-554.286 -267.216)"/><ellipse class="b" cx="2.266" cy="2.266" rx="2.266" ry="2.266" transform="translate(30.358 119.468)"/><ellipse class="b" cx="2.266" cy="2.266" rx="2.266" ry="2.266" transform="translate(60.719 119.468)"/><ellipse class="b" cx="2.266" cy="2.266" rx="2.266" ry="2.266" transform="translate(91.079 119.468)"/><path class="b" d="M558.818,400.537a2.266,2.266,0,1,0-2.266,2.266A2.269,2.269,0,0,0,558.818,400.537Z" transform="translate(-554.286 -308.464)"/><ellipse class="b" cx="2.266" cy="2.266" rx="2.266" ry="2.266" transform="translate(30.358 89.806)"/><ellipse class="b" cx="2.266" cy="2.266" rx="2.266" ry="2.266" transform="translate(60.719 89.806)"/><ellipse class="b" cx="2.266" cy="2.266" rx="2.266" ry="2.266" transform="translate(91.079 89.806)"/><path class="b" d="M558.818,412.441a2.266,2.266,0,1,0-2.266,2.266A2.267,2.267,0,0,0,558.818,412.441Z" transform="translate(-554.286 -350.85)"/><ellipse class="b" cx="2.266" cy="2.266" rx="2.266" ry="2.266" transform="translate(30.358 59.325)"/><ellipse class="b" cx="2.266" cy="2.266" rx="2.266" ry="2.266" transform="translate(60.719 59.325)"/><ellipse class="b" cx="2.266" cy="2.266" rx="2.266" ry="2.266" transform="translate(91.079 59.325)"/><path class="b" d="M558.818,424.027a2.266,2.266,0,1,0-2.266,2.266A2.268,2.268,0,0,0,558.818,424.027Z" transform="translate(-554.286 -392.098)"/><ellipse class="b" cx="2.266" cy="2.266" rx="2.266" ry="2.266" transform="translate(30.358 29.663)"/><ellipse class="b" cx="2.266" cy="2.266" rx="2.266" ry="2.266" transform="translate(60.719 29.663)"/><ellipse class="b" cx="2.266" cy="2.266" rx="2.266" ry="2.266" transform="translate(91.079 29.663)"/><path class="b" d="M558.818,435.614a2.266,2.266,0,1,0-2.266,2.266A2.269,2.269,0,0,0,558.818,435.614Z" transform="translate(-554.286 -433.346)"/><ellipse class="b" cx="2.266" cy="2.266" rx="2.266" ry="2.266" transform="translate(30.358 0.001)"/><ellipse class="b" cx="2.266" cy="2.266" rx="2.266" ry="2.266" transform="translate(60.719 0.001)"/><ellipse class="b" cx="2.266" cy="2.266" rx="2.266" ry="2.266" transform="translate(91.079 0.001)"/><ellipse class="b" cx="2.266" cy="2.266" rx="2.266" ry="2.266" transform="translate(122.959 149.13)"/><path class="b" d="M618.7,377.364a2.266,2.266,0,1,0-2.266,2.266A2.267,2.267,0,0,0,618.7,377.364Z" transform="translate(-460.853 -225.968)"/><ellipse class="b" cx="2.266" cy="2.266" rx="2.266" ry="2.266" transform="translate(183.679 149.13)"/><ellipse class="b" cx="2.266" cy="2.266" rx="2.266" ry="2.266" transform="translate(214.039 149.13)"/><ellipse class="b" cx="2.266" cy="2.266" rx="2.266" ry="2.266" transform="translate(122.959 119.468)"/><path class="b" d="M618.7,388.951a2.266,2.266,0,1,0-2.266,2.266A2.267,2.267,0,0,0,618.7,388.951Z" transform="translate(-460.853 -267.216)"/><ellipse class="b" cx="2.266" cy="2.266" rx="2.266" ry="2.266" transform="translate(183.679 119.468)"/><ellipse class="b" cx="2.266" cy="2.266" rx="2.266" ry="2.266" transform="translate(214.039 119.468)"/><ellipse class="b" cx="2.266" cy="2.266" rx="2.266" ry="2.266" transform="translate(122.959 89.806)"/><path class="b" d="M618.7,400.537a2.266,2.266,0,1,0-2.266,2.266A2.267,2.267,0,0,0,618.7,400.537Z" transform="translate(-460.853 -308.464)"/><ellipse class="b" cx="2.266" cy="2.266" rx="2.266" ry="2.266" transform="translate(183.679 89.806)"/><ellipse class="b" cx="2.266" cy="2.266" rx="2.266" ry="2.266" transform="translate(214.039 89.806)"/><ellipse class="b" cx="2.266" cy="2.266" rx="2.266" ry="2.266" transform="translate(122.959 59.325)"/><path class="b" d="M618.7,412.441a2.266,2.266,0,1,0-2.266,2.266A2.265,2.265,0,0,0,618.7,412.441Z" transform="translate(-460.853 -350.85)"/><ellipse class="b" cx="2.266" cy="2.266" rx="2.266" ry="2.266" transform="translate(183.679 59.325)"/><ellipse class="b" cx="2.266" cy="2.266" rx="2.266" ry="2.266" transform="translate(214.039 59.325)"/><ellipse class="b" cx="2.266" cy="2.266" rx="2.266" ry="2.266" transform="translate(122.959 29.663)"/><path class="b" d="M618.7,424.027a2.266,2.266,0,1,0-2.266,2.266A2.267,2.267,0,0,0,618.7,424.027Z" transform="translate(-460.853 -392.098)"/><ellipse class="b" cx="2.266" cy="2.266" rx="2.266" ry="2.266" transform="translate(183.679 29.663)"/><ellipse class="b" cx="2.266" cy="2.266" rx="2.266" ry="2.266" transform="translate(214.039 29.663)"/><ellipse class="b" cx="2.266" cy="2.266" rx="2.266" ry="2.266" transform="translate(122.959 0.001)"/><path class="b" d="M618.7,435.614a2.266,2.266,0,1,0-2.266,2.266A2.267,2.267,0,0,0,618.7,435.614Z" transform="translate(-460.853 -433.346)"/><ellipse class="b" cx="2.266" cy="2.266" rx="2.266" ry="2.266" transform="translate(183.679 0.001)"/><ellipse class="b" cx="2.266" cy="2.266" rx="2.266" ry="2.266" transform="translate(214.039 0.001)"/><ellipse class="b" cx="2.266" cy="2.266" rx="2.266" ry="2.266" transform="translate(245.919 149.13)"/><ellipse class="b" cx="2.266" cy="2.266" rx="2.266" ry="2.266" transform="translate(276.279 149.13)"/><ellipse class="b" cx="2.266" cy="2.266" rx="2.266" ry="2.266" transform="translate(306.639 149.13)"/><ellipse class="b" cx="2.266" cy="2.266" rx="2.266" ry="2.266" transform="translate(245.919 119.468)"/><ellipse class="b" cx="2.266" cy="2.266" rx="2.266" ry="2.266" transform="translate(276.279 119.468)"/><ellipse class="b" cx="2.266" cy="2.266" rx="2.266" ry="2.266" transform="translate(306.639 119.468)"/><ellipse class="b" cx="2.266" cy="2.266" rx="2.266" ry="2.266" transform="translate(245.919 89.806)"/><ellipse class="b" cx="2.266" cy="2.266" rx="2.266" ry="2.266" transform="translate(276.279 89.806)"/><ellipse class="b" cx="2.266" cy="2.266" rx="2.266" ry="2.266" transform="translate(306.639 89.806)"/><ellipse class="b" cx="2.266" cy="2.266" rx="2.266" ry="2.266" transform="translate(245.919 59.325)"/><ellipse class="b" cx="2.266" cy="2.266" rx="2.266" ry="2.266" transform="translate(276.279 59.325)"/><ellipse class="b" cx="2.266" cy="2.266" rx="2.266" ry="2.266" transform="translate(306.639 59.325)"/><ellipse class="b" cx="2.266" cy="2.266" rx="2.266" ry="2.266" transform="translate(245.919 29.663)"/><ellipse class="b" cx="2.266" cy="2.266" rx="2.266" ry="2.266" transform="translate(276.279 29.663)"/><ellipse class="b" cx="2.266" cy="2.266" rx="2.266" ry="2.266" transform="translate(306.639 29.663)"/><ellipse class="b" cx="2.266" cy="2.266" rx="2.266" ry="2.266" transform="translate(245.919 0.001)"/><ellipse class="b" cx="2.266" cy="2.266" rx="2.266" ry="2.266" transform="translate(276.279 0.001)"/><ellipse class="b" cx="2.266" cy="2.266" rx="2.266" ry="2.266" transform="translate(306.639 0.001)"/></g><g transform="translate(0 47.169)"><path class="b" d="M42.422,358.94a2.266,2.266,0,1,0-2.266,2.266A2.265,2.265,0,0,0,42.422,358.94Z" transform="translate(-37.889 -207.544)"/><path class="b" d="M54.28,358.94a2.266,2.266,0,1,0-2.266,2.266A2.265,2.265,0,0,0,54.28,358.94Z" transform="translate(-19.388 -207.544)"/><path class="b" d="M66.139,358.94a2.266,2.266,0,1,0-2.266,2.266A2.267,2.267,0,0,0,66.139,358.94Z" transform="translate(-0.886 -207.544)"/><path class="b" d="M78,358.94a2.266,2.266,0,1,0-2.266,2.266A2.265,2.265,0,0,0,78,358.94Z" transform="translate(17.615 -207.544)"/><ellipse class="b" cx="2.266" cy="2.266" rx="2.266" ry="2.266" transform="translate(0 119.467)"/><path class="b" d="M54.28,370.526a2.266,2.266,0,1,0-2.266,2.266A2.265,2.265,0,0,0,54.28,370.526Z" transform="translate(-19.388 -248.793)"/><path class="b" d="M66.139,370.526a2.266,2.266,0,1,0-2.266,2.266A2.267,2.267,0,0,0,66.139,370.526Z" transform="translate(-0.886 -248.793)"/><ellipse class="b" cx="2.266" cy="2.266" rx="2.266" ry="2.266" transform="translate(91.08 119.467)"/><path class="b" d="M42.422,382.112a2.266,2.266,0,1,0-2.266,2.266A2.265,2.265,0,0,0,42.422,382.112Z" transform="translate(-37.889 -290.042)"/><path class="b" d="M54.28,382.112a2.266,2.266,0,1,0-2.266,2.266A2.265,2.265,0,0,0,54.28,382.112Z" transform="translate(-19.388 -290.042)"/><path class="b" d="M66.139,382.112a2.266,2.266,0,1,0-2.266,2.266A2.267,2.267,0,0,0,66.139,382.112Z" transform="translate(-0.886 -290.042)"/><path class="b" d="M78,382.112a2.266,2.266,0,1,0-2.266,2.266A2.265,2.265,0,0,0,78,382.112Z" transform="translate(17.615 -290.042)"/><path class="b" d="M42.422,394.017a2.266,2.266,0,1,0-2.266,2.266A2.265,2.265,0,0,0,42.422,394.017Z" transform="translate(-37.889 -332.426)"/><path class="b" d="M54.28,394.017a2.266,2.266,0,1,0-2.266,2.266A2.265,2.265,0,0,0,54.28,394.017Z" transform="translate(-19.388 -332.426)"/><path class="b" d="M66.139,394.017a2.266,2.266,0,1,0-2.266,2.266A2.267,2.267,0,0,0,66.139,394.017Z" transform="translate(-0.886 -332.426)"/><path class="b" d="M78,394.017a2.266,2.266,0,1,0-2.266,2.266A2.265,2.265,0,0,0,78,394.017Z" transform="translate(17.615 -332.426)"/><ellipse class="b" cx="2.266" cy="2.266" rx="2.266" ry="2.266" transform="translate(0 29.662)"/><path class="b" d="M54.28,405.6a2.266,2.266,0,1,0-2.266,2.266A2.265,2.265,0,0,0,54.28,405.6Z" transform="translate(-19.388 -373.674)"/><path class="b" d="M66.139,405.6a2.266,2.266,0,1,0-2.266,2.266A2.267,2.267,0,0,0,66.139,405.6Z" transform="translate(-0.886 -373.674)"/><ellipse class="b" cx="2.266" cy="2.266" rx="2.266" ry="2.266" transform="translate(91.08 29.662)"/><path class="b" d="M42.422,417.189a2.266,2.266,0,1,0-2.266,2.266A2.265,2.265,0,0,0,42.422,417.189Z" transform="translate(-37.889 -414.923)"/><path class="b" d="M54.28,417.189a2.266,2.266,0,1,0-2.266,2.266A2.265,2.265,0,0,0,54.28,417.189Z" transform="translate(-19.388 -414.923)"/><path class="b" d="M66.139,417.189a2.266,2.266,0,1,0-2.266,2.266A2.267,2.267,0,0,0,66.139,417.189Z" transform="translate(-0.886 -414.923)"/><path class="b" d="M78,417.189a2.266,2.266,0,1,0-2.266,2.266A2.265,2.265,0,0,0,78,417.189Z" transform="translate(17.615 -414.923)"/><path class="b" d="M90.449,358.94a2.266,2.266,0,1,0-2.266,2.266A2.265,2.265,0,0,0,90.449,358.94Z" transform="translate(37.043 -207.544)"/><path class="b" d="M102.309,358.94a2.267,2.267,0,1,0-2.266,2.266A2.267,2.267,0,0,0,102.309,358.94Z" transform="translate(55.544 -207.544)"/><path class="b" d="M114.166,358.94a2.266,2.266,0,1,0-2.266,2.266A2.265,2.265,0,0,0,114.166,358.94Z" transform="translate(74.046 -207.544)"/><path class="b" d="M126.024,358.94a2.266,2.266,0,1,0-2.266,2.266A2.265,2.265,0,0,0,126.024,358.94Z" transform="translate(92.547 -207.544)"/><path class="b" d="M90.449,370.526a2.266,2.266,0,1,0-2.266,2.266A2.265,2.265,0,0,0,90.449,370.526Z" transform="translate(37.043 -248.793)"/><ellipse class="b" cx="2.266" cy="2.266" rx="2.266" ry="2.266" transform="translate(153.32 119.467)"/><ellipse class="b" cx="2.266" cy="2.266" rx="2.266" ry="2.266" transform="translate(183.68 119.467)"/><path class="b" d="M126.024,370.526a2.266,2.266,0,1,0-2.266,2.266A2.265,2.265,0,0,0,126.024,370.526Z" transform="translate(92.547 -248.793)"/><path class="b" d="M90.449,382.112a2.266,2.266,0,1,0-2.266,2.266A2.265,2.265,0,0,0,90.449,382.112Z" transform="translate(37.043 -290.042)"/><path class="b" d="M102.309,382.112a2.267,2.267,0,1,0-2.266,2.266A2.267,2.267,0,0,0,102.309,382.112Z" transform="translate(55.544 -290.042)"/><path class="b" d="M114.166,382.112a2.266,2.266,0,1,0-2.266,2.266A2.265,2.265,0,0,0,114.166,382.112Z" transform="translate(74.046 -290.042)"/><path class="b" d="M126.024,382.112a2.266,2.266,0,1,0-2.266,2.266A2.265,2.265,0,0,0,126.024,382.112Z" transform="translate(92.547 -290.042)"/><path class="b" d="M90.449,394.017a2.266,2.266,0,1,0-2.266,2.266A2.265,2.265,0,0,0,90.449,394.017Z" transform="translate(37.043 -332.426)"/><path class="b" d="M102.309,394.017a2.267,2.267,0,1,0-2.266,2.266A2.267,2.267,0,0,0,102.309,394.017Z" transform="translate(55.544 -332.426)"/><path class="b" d="M114.166,394.017a2.266,2.266,0,1,0-2.266,2.266A2.265,2.265,0,0,0,114.166,394.017Z" transform="translate(74.046 -332.426)"/><path class="b" d="M126.024,394.017a2.266,2.266,0,1,0-2.266,2.266A2.265,2.265,0,0,0,126.024,394.017Z" transform="translate(92.547 -332.426)"/><path class="b" d="M90.449,405.6a2.266,2.266,0,1,0-2.266,2.266A2.265,2.265,0,0,0,90.449,405.6Z" transform="translate(37.043 -373.674)"/><ellipse class="b" cx="2.266" cy="2.266" rx="2.266" ry="2.266" transform="translate(153.32 29.662)"/><ellipse class="b" cx="2.266" cy="2.266" rx="2.266" ry="2.266" transform="translate(183.68 29.662)"/><path class="b" d="M126.024,405.6a2.266,2.266,0,1,0-2.266,2.266A2.265,2.265,0,0,0,126.024,405.6Z" transform="translate(92.547 -373.674)"/><path class="b" d="M90.449,417.189a2.266,2.266,0,1,0-2.266,2.266A2.265,2.265,0,0,0,90.449,417.189Z" transform="translate(37.043 -414.923)"/><path class="b" d="M102.309,417.189a2.267,2.267,0,1,0-2.266,2.266A2.267,2.267,0,0,0,102.309,417.189Z" transform="translate(55.544 -414.923)"/><path class="b" d="M114.166,417.189a2.266,2.266,0,1,0-2.266,2.266A2.265,2.265,0,0,0,114.166,417.189Z" transform="translate(74.046 -414.923)"/><path class="b" d="M126.024,417.189a2.266,2.266,0,1,0-2.266,2.266A2.265,2.265,0,0,0,126.024,417.189Z" transform="translate(92.547 -414.923)"/><path class="b" d="M138.478,358.94a2.267,2.267,0,1,0-2.266,2.266A2.267,2.267,0,0,0,138.478,358.94Z" transform="translate(111.975 -207.544)"/><path class="b" d="M150.335,358.94a2.266,2.266,0,1,0-2.266,2.266A2.265,2.265,0,0,0,150.335,358.94Z" transform="translate(130.478 -207.544)"/><path class="b" d="M162.193,358.94a2.266,2.266,0,1,0-2.266,2.266A2.265,2.265,0,0,0,162.193,358.94Z" transform="translate(148.979 -207.544)"/><path class="b" d="M138.478,370.526a2.267,2.267,0,1,0-2.266,2.266A2.267,2.267,0,0,0,138.478,370.526Z" transform="translate(111.975 -248.793)"/><path class="b" d="M150.335,370.526a2.266,2.266,0,1,0-2.266,2.266A2.265,2.265,0,0,0,150.335,370.526Z" transform="translate(130.478 -248.793)"/><path class="b" d="M162.193,370.526a2.266,2.266,0,1,0-2.266,2.266A2.265,2.265,0,0,0,162.193,370.526Z" transform="translate(148.979 -248.793)"/><path class="b" d="M138.478,382.112a2.267,2.267,0,1,0-2.266,2.266A2.267,2.267,0,0,0,138.478,382.112Z" transform="translate(111.975 -290.042)"/><path class="b" d="M150.335,382.112a2.266,2.266,0,1,0-2.266,2.266A2.265,2.265,0,0,0,150.335,382.112Z" transform="translate(130.478 -290.042)"/><path class="b" d="M162.193,382.112a2.266,2.266,0,1,0-2.266,2.266A2.265,2.265,0,0,0,162.193,382.112Z" transform="translate(148.979 -290.042)"/><path class="b" d="M138.478,394.017a2.267,2.267,0,1,0-2.266,2.266A2.267,2.267,0,0,0,138.478,394.017Z" transform="translate(111.975 -332.426)"/><path class="b" d="M150.335,394.017a2.266,2.266,0,1,0-2.266,2.266A2.265,2.265,0,0,0,150.335,394.017Z" transform="translate(130.478 -332.426)"/><path class="b" d="M162.193,394.017a2.266,2.266,0,1,0-2.266,2.266A2.265,2.265,0,0,0,162.193,394.017Z" transform="translate(148.979 -332.426)"/><path class="b" d="M138.478,405.6a2.267,2.267,0,1,0-2.266,2.266A2.267,2.267,0,0,0,138.478,405.6Z" transform="translate(111.975 -373.674)"/><path class="b" d="M150.335,405.6a2.266,2.266,0,1,0-2.266,2.266A2.265,2.265,0,0,0,150.335,405.6Z" transform="translate(130.478 -373.674)"/><path class="b" d="M162.193,405.6a2.266,2.266,0,1,0-2.266,2.266A2.265,2.265,0,0,0,162.193,405.6Z" transform="translate(148.979 -373.674)"/><path class="b" d="M138.478,417.189a2.267,2.267,0,1,0-2.266,2.266A2.267,2.267,0,0,0,138.478,417.189Z" transform="translate(111.975 -414.923)"/><path class="b" d="M150.335,417.189a2.266,2.266,0,1,0-2.266,2.266A2.265,2.265,0,0,0,150.335,417.189Z" transform="translate(130.478 -414.923)"/><path class="b" d="M162.193,417.189a2.266,2.266,0,1,0-2.266,2.266A2.265,2.265,0,0,0,162.193,417.189Z" transform="translate(148.979 -414.923)"/></g></g><path class="c" d="M1657.5,705.96a2.908,2.908,0,0,1,5.816,0v13.082a2.908,2.908,0,1,1-5.816,0V705.96Zm-19.833,10.624a2.909,2.909,0,1,1,4.113-4.116l9.255,9.253a2.91,2.91,0,1,1-4.113,4.117l-9.255-9.254Zm-6.51,21.537a2.911,2.911,0,1,1,0-5.823h13.086a2.912,2.912,0,0,1,0,5.823Zm10.623,19.835a2.909,2.909,0,0,1-4.113-4.116l9.255-9.254a2.909,2.909,0,0,1,4.113,4.116l-9.255,9.254Zm21.536,6.508a2.908,2.908,0,0,1-5.816,0V751.372a2.908,2.908,0,0,1,5.816,0v13.092Zm19.833-10.624a2.91,2.91,0,0,1-4.116,4.116l-9.255-9.254a2.91,2.91,0,0,1,4.116-4.116l9.255,9.254Zm6.509-21.542a2.911,2.911,0,1,1,0,5.823h-13.086a2.911,2.911,0,0,1,0-5.823Zm-10.625-19.83a2.91,2.91,0,0,1,4.116,4.116l-9.255,9.254a2.911,2.911,0,0,1-4.116-4.117Z" transform="translate(-1535.569 -703.053)"/><path class="c" d="M1657.5,705.96a2.908,2.908,0,0,1,5.816,0v13.082a2.908,2.908,0,1,1-5.816,0V705.96Zm-19.833,10.624a2.909,2.909,0,1,1,4.113-4.116l9.255,9.253a2.91,2.91,0,1,1-4.113,4.117l-9.255-9.254Zm-6.51,21.537a2.911,2.911,0,1,1,0-5.823h13.086a2.912,2.912,0,0,1,0,5.823Zm10.623,19.835a2.909,2.909,0,0,1-4.113-4.116l9.255-9.254a2.909,2.909,0,0,1,4.113,4.116l-9.255,9.254Zm21.536,6.508a2.908,2.908,0,0,1-5.816,0V751.372a2.908,2.908,0,0,1,5.816,0v13.092Zm19.833-10.624a2.91,2.91,0,0,1-4.116,4.116l-9.255-9.254a2.91,2.91,0,0,1,4.116-4.116l9.255,9.254Zm6.509-21.542a2.911,2.911,0,1,1,0,5.823h-13.086a2.911,2.911,0,0,1,0-5.823Zm-10.625-19.83a2.91,2.91,0,0,1,4.116,4.116l-9.255,9.254a2.911,2.911,0,0,1-4.116-4.117Z" transform="translate(35.431 -660.465)"/></g></svg>