<svg xmlns="http://www.w3.org/2000/svg" xmlns:xlink="http://www.w3.org/1999/xlink" width="1920" height="777" viewBox="0 0 1920 777"><defs><style>.a,.e{fill:#f9ebfd;}.b,.c{fill:#f1caef;}.c,.e{fill-rule:evenodd;}.d{clip-path:url(#a);}</style><clipPath id="a"><rect class="a" width="1920" height="777"/></clipPath></defs><g transform="translate(183.518 31.097)"><g transform="translate(1272.678 0)"><path class="b" d="M15.041,34.776a2.061,2.061,0,1,0-2.06,2.061A2.06,2.06,0,0,0,15.041,34.776Z" transform="translate(-10.919 102.904)"/><path class="b" d="M58.443,34.776a2.06,2.06,0,1,0-2.06,2.061A2.06,2.06,0,0,0,58.443,34.776Z" transform="translate(-26.712 102.904)"/><circle class="b" cx="2.061" cy="2.061" r="2.061" transform="translate(55.22 135.62)"/><path class="b" d="M145.248,34.776a2.061,2.061,0,1,0-2.06,2.061A2.06,2.06,0,0,0,145.248,34.776Z" transform="translate(-58.297 102.904)"/><path class="b" d="M15.041,77.182a2.061,2.061,0,1,0-2.06,2.06A2.06,2.06,0,0,0,15.041,77.182Z" transform="translate(-10.919 33.524)"/><path class="b" d="M58.443,77.182a2.06,2.06,0,1,0-2.06,2.06A2.06,2.06,0,0,0,58.443,77.182Z" transform="translate(-26.712 33.524)"/><path class="b" d="M101.846,77.182a2.061,2.061,0,1,0-2.061,2.06A2.061,2.061,0,0,0,101.846,77.182Z" transform="translate(-42.504 33.524)"/><path class="b" d="M145.248,77.182a2.061,2.061,0,1,0-2.06,2.06A2.06,2.06,0,0,0,145.248,77.182Z" transform="translate(-58.297 33.524)"/><path class="b" d="M15.041,119.587a2.061,2.061,0,1,0-2.06,2.06A2.061,2.061,0,0,0,15.041,119.587Z" transform="translate(-10.919 -35.856)"/><path class="b" d="M58.443,119.587a2.06,2.06,0,1,0-2.06,2.06A2.061,2.061,0,0,0,58.443,119.587Z" transform="translate(-26.712 -35.856)"/><circle class="b" cx="2.061" cy="2.061" r="2.061" transform="translate(55.22 81.67)"/><path class="b" d="M145.248,119.587a2.061,2.061,0,1,0-2.06,2.06A2.061,2.061,0,0,0,145.248,119.587Z" transform="translate(-58.297 -35.856)"/><path class="b" d="M15.041,163.16a2.061,2.061,0,1,0-2.06,2.061A2.06,2.06,0,0,0,15.041,163.16Z" transform="translate(-10.919 -107.149)"/><path class="b" d="M58.443,163.16a2.06,2.06,0,1,0-2.06,2.061A2.06,2.06,0,0,0,58.443,163.16Z" transform="translate(-26.712 -107.149)"/><circle class="b" cx="2.061" cy="2.061" r="2.061" transform="translate(55.22 53.951)"/><path class="b" d="M145.248,163.16a2.061,2.061,0,1,0-2.06,2.061A2.06,2.06,0,0,0,145.248,163.16Z" transform="translate(-58.297 -107.149)"/><path class="b" d="M15.041,205.565a2.061,2.061,0,1,0-2.06,2.061A2.06,2.06,0,0,0,15.041,205.565Z" transform="translate(-10.919 -176.53)"/><path class="b" d="M58.443,205.565a2.06,2.06,0,1,0-2.06,2.061A2.06,2.06,0,0,0,58.443,205.565Z" transform="translate(-26.712 -176.53)"/><circle class="b" cx="2.061" cy="2.061" r="2.061" transform="translate(55.22 26.975)"/><path class="b" d="M145.248,205.565a2.061,2.061,0,1,0-2.06,2.061A2.06,2.06,0,0,0,145.248,205.565Z" transform="translate(-58.297 -176.53)"/><path class="b" d="M15.041,247.97a2.061,2.061,0,1,0-2.06,2.061A2.06,2.06,0,0,0,15.041,247.97Z" transform="translate(-10.919 -245.91)"/><path class="b" d="M58.443,247.97a2.06,2.06,0,1,0-2.06,2.061A2.06,2.06,0,0,0,58.443,247.97Z" transform="translate(-26.712 -245.91)"/><circle class="b" cx="2.061" cy="2.061" r="2.061" transform="translate(55.22)"/><path class="b" d="M145.248,247.97a2.061,2.061,0,1,0-2.06,2.061A2.06,2.06,0,0,0,145.248,247.97Z" transform="translate(-58.297 -245.91)"/><circle class="b" cx="2.061" cy="2.061" r="2.061" transform="translate(111.822 135.62)"/><circle class="b" cx="2.061" cy="2.061" r="2.061" transform="translate(139.432 135.62)"/><path class="b" d="M277.629,34.776a2.061,2.061,0,1,0-2.061,2.061A2.061,2.061,0,0,0,277.629,34.776Z" transform="translate(-106.465 102.904)"/><path class="b" d="M321.031,34.776a2.061,2.061,0,1,0-2.061,2.061A2.06,2.06,0,0,0,321.031,34.776Z" transform="translate(-122.258 102.904)"/><path class="b" d="M190.824,77.182a2.061,2.061,0,1,0-2.061,2.06A2.061,2.061,0,0,0,190.824,77.182Z" transform="translate(-74.88 33.524)"/><path class="b" d="M234.226,77.182a2.061,2.061,0,1,0-2.06,2.06A2.06,2.06,0,0,0,234.226,77.182Z" transform="translate(-90.673 33.524)"/><path class="b" d="M277.629,77.182a2.061,2.061,0,1,0-2.061,2.06A2.061,2.061,0,0,0,277.629,77.182Z" transform="translate(-106.465 33.524)"/><path class="b" d="M321.031,77.182a2.061,2.061,0,1,0-2.061,2.06A2.061,2.061,0,0,0,321.031,77.182Z" transform="translate(-122.258 33.524)"/><circle class="b" cx="2.061" cy="2.061" r="2.061" transform="translate(111.822 81.67)"/><circle class="b" cx="2.061" cy="2.061" r="2.061" transform="translate(139.432 81.67)"/><path class="b" d="M277.629,119.587a2.061,2.061,0,1,0-2.061,2.06A2.061,2.061,0,0,0,277.629,119.587Z" transform="translate(-106.465 -35.856)"/><path class="b" d="M321.031,119.587a2.061,2.061,0,1,0-2.061,2.06A2.061,2.061,0,0,0,321.031,119.587Z" transform="translate(-122.258 -35.856)"/><circle class="b" cx="2.061" cy="2.061" r="2.061" transform="translate(111.822 53.951)"/><circle class="b" cx="2.061" cy="2.061" r="2.061" transform="translate(139.432 53.951)"/><path class="b" d="M277.629,163.16a2.061,2.061,0,1,0-2.061,2.061A2.061,2.061,0,0,0,277.629,163.16Z" transform="translate(-106.465 -107.149)"/><path class="b" d="M321.031,163.16a2.061,2.061,0,1,0-2.061,2.061A2.06,2.06,0,0,0,321.031,163.16Z" transform="translate(-122.258 -107.149)"/><circle class="b" cx="2.061" cy="2.061" r="2.061" transform="translate(111.822 26.975)"/><circle class="b" cx="2.061" cy="2.061" r="2.061" transform="translate(139.432 26.975)"/><path class="b" d="M277.629,205.565a2.061,2.061,0,1,0-2.061,2.061A2.061,2.061,0,0,0,277.629,205.565Z" transform="translate(-106.465 -176.53)"/><path class="b" d="M321.031,205.565a2.061,2.061,0,1,0-2.061,2.061A2.06,2.06,0,0,0,321.031,205.565Z" transform="translate(-122.258 -176.53)"/><circle class="b" cx="2.061" cy="2.061" r="2.061" transform="translate(111.822)"/><circle class="b" cx="2.061" cy="2.061" r="2.061" transform="translate(139.432)"/><path class="b" d="M277.629,247.97a2.061,2.061,0,1,0-2.061,2.061A2.061,2.061,0,0,0,277.629,247.97Z" transform="translate(-106.465 -245.91)"/><path class="b" d="M321.031,247.97a2.061,2.061,0,1,0-2.061,2.061A2.06,2.06,0,0,0,321.031,247.97Z" transform="translate(-122.258 -245.91)"/><path class="b" d="M366.607,34.776a2.061,2.061,0,1,0-2.061,2.061A2.06,2.06,0,0,0,366.607,34.776Z" transform="translate(-138.841 102.904)"/><path class="b" d="M410.009,34.776a2.061,2.061,0,1,0-2.06,2.061A2.06,2.06,0,0,0,410.009,34.776Z" transform="translate(-154.634 102.904)"/><circle class="b" cx="2.061" cy="2.061" r="2.061" transform="translate(278.863 135.62)"/><path class="b" d="M366.607,77.182a2.061,2.061,0,1,0-2.061,2.06A2.061,2.061,0,0,0,366.607,77.182Z" transform="translate(-138.841 33.524)"/><path class="b" d="M410.009,77.182a2.061,2.061,0,1,0-2.06,2.06A2.06,2.06,0,0,0,410.009,77.182Z" transform="translate(-154.634 33.524)"/><path class="b" d="M453.411,77.182a2.061,2.061,0,1,0-2.061,2.06A2.061,2.061,0,0,0,453.411,77.182Z" transform="translate(-170.427 33.524)"/><path class="b" d="M366.607,119.587a2.061,2.061,0,1,0-2.061,2.06A2.061,2.061,0,0,0,366.607,119.587Z" transform="translate(-138.841 -35.856)"/><path class="b" d="M410.009,119.587a2.061,2.061,0,1,0-2.06,2.06A2.061,2.061,0,0,0,410.009,119.587Z" transform="translate(-154.634 -35.856)"/><circle class="b" cx="2.061" cy="2.061" r="2.061" transform="translate(278.863 81.67)"/><path class="b" d="M366.607,163.16a2.061,2.061,0,1,0-2.061,2.061A2.06,2.06,0,0,0,366.607,163.16Z" transform="translate(-138.841 -107.149)"/><path class="b" d="M410.009,163.16a2.061,2.061,0,1,0-2.06,2.061A2.06,2.06,0,0,0,410.009,163.16Z" transform="translate(-154.634 -107.149)"/><circle class="b" cx="2.061" cy="2.061" r="2.061" transform="translate(278.863 53.951)"/><path class="b" d="M366.607,205.565a2.061,2.061,0,1,0-2.061,2.061A2.06,2.06,0,0,0,366.607,205.565Z" transform="translate(-138.841 -176.53)"/><path class="b" d="M410.009,205.565a2.061,2.061,0,1,0-2.06,2.061A2.06,2.06,0,0,0,410.009,205.565Z" transform="translate(-154.634 -176.53)"/><circle class="b" cx="2.061" cy="2.061" r="2.061" transform="translate(278.863 26.975)"/><path class="b" d="M366.607,247.97a2.061,2.061,0,1,0-2.061,2.061A2.06,2.06,0,0,0,366.607,247.97Z" transform="translate(-138.841 -245.91)"/><path class="b" d="M410.009,247.97a2.061,2.061,0,1,0-2.06,2.061A2.06,2.06,0,0,0,410.009,247.97Z" transform="translate(-154.634 -245.91)"/><circle class="b" cx="2.061" cy="2.061" r="2.061" transform="translate(278.863)"/></g><g transform="translate(0 70.453)"><g transform="translate(594.369 435.214)"><path class="b" d="M295.151,124.73A2.266,2.266,0,1,0,292.885,127,2.267,2.267,0,0,0,295.151,124.73Z" transform="translate(-290.619 26.664)"/><path class="b" d="M307.009,124.73A2.266,2.266,0,1,0,304.743,127,2.267,2.267,0,0,0,307.009,124.73Z" transform="translate(-272.118 26.664)"/><circle class="b" cx="2.266" cy="2.266" r="2.266" transform="translate(60.72 149.129)"/><path class="b" d="M330.725,124.73A2.266,2.266,0,1,0,328.46,127,2.267,2.267,0,0,0,330.725,124.73Z" transform="translate(-235.114 26.664)"/><path class="b" d="M295.151,136.316a2.266,2.266,0,1,0-2.266,2.266A2.265,2.265,0,0,0,295.151,136.316Z" transform="translate(-290.619 -14.582)"/><path class="b" d="M307.009,136.316a2.266,2.266,0,1,0-2.266,2.266A2.265,2.265,0,0,0,307.009,136.316Z" transform="translate(-272.118 -14.582)"/><path class="b" d="M318.868,136.316a2.266,2.266,0,1,0-2.266,2.266A2.265,2.265,0,0,0,318.868,136.316Z" transform="translate(-253.615 -14.582)"/><path class="b" d="M330.725,136.316a2.266,2.266,0,1,0-2.266,2.266A2.265,2.265,0,0,0,330.725,136.316Z" transform="translate(-235.114 -14.582)"/><path class="b" d="M295.151,147.9a2.266,2.266,0,1,0-2.266,2.266A2.265,2.265,0,0,0,295.151,147.9Z" transform="translate(-290.619 -55.83)"/><path class="b" d="M307.009,147.9a2.266,2.266,0,1,0-2.266,2.266A2.265,2.265,0,0,0,307.009,147.9Z" transform="translate(-272.118 -55.83)"/><circle class="b" cx="2.266" cy="2.266" r="2.266" transform="translate(60.72 89.805)"/><path class="b" d="M330.725,147.9a2.266,2.266,0,1,0-2.266,2.266A2.265,2.265,0,0,0,330.725,147.9Z" transform="translate(-235.114 -55.83)"/><path class="b" d="M295.151,159.808a2.266,2.266,0,1,0-2.266,2.266A2.267,2.267,0,0,0,295.151,159.808Z" transform="translate(-290.619 -98.218)"/><path class="b" d="M307.009,159.808a2.266,2.266,0,1,0-2.266,2.266A2.267,2.267,0,0,0,307.009,159.808Z" transform="translate(-272.118 -98.218)"/><circle class="b" cx="2.266" cy="2.266" r="2.266" transform="translate(60.72 59.324)"/><path class="b" d="M330.725,159.808a2.266,2.266,0,1,0-2.266,2.266A2.267,2.267,0,0,0,330.725,159.808Z" transform="translate(-235.114 -98.218)"/><path class="b" d="M295.151,171.4a2.266,2.266,0,1,0-2.266,2.266A2.267,2.267,0,0,0,295.151,171.4Z" transform="translate(-290.619 -139.466)"/><path class="b" d="M307.009,171.4a2.266,2.266,0,1,0-2.266,2.266A2.267,2.267,0,0,0,307.009,171.4Z" transform="translate(-272.118 -139.466)"/><circle class="b" cx="2.266" cy="2.266" r="2.266" transform="translate(60.72 29.662)"/><path class="b" d="M330.725,171.4a2.266,2.266,0,1,0-2.266,2.266A2.267,2.267,0,0,0,330.725,171.4Z" transform="translate(-235.114 -139.466)"/><path class="b" d="M295.151,182.979a2.266,2.266,0,1,0-2.266,2.266A2.265,2.265,0,0,0,295.151,182.979Z" transform="translate(-290.619 -180.712)"/><path class="b" d="M307.009,182.979a2.266,2.266,0,1,0-2.266,2.266A2.265,2.265,0,0,0,307.009,182.979Z" transform="translate(-272.118 -180.712)"/><circle class="b" cx="2.266" cy="2.266" r="2.266" transform="translate(60.72)"/><path class="b" d="M330.725,182.979a2.266,2.266,0,1,0-2.266,2.266A2.265,2.265,0,0,0,330.725,182.979Z" transform="translate(-235.114 -180.712)"/><circle class="b" cx="2.266" cy="2.266" r="2.266" transform="translate(122.96 149.129)"/><circle class="b" cx="2.266" cy="2.266" r="2.266" transform="translate(153.32 149.129)"/><path class="b" d="M366.895,124.73A2.266,2.266,0,1,0,364.629,127,2.267,2.267,0,0,0,366.895,124.73Z" transform="translate(-178.683 26.664)"/><path class="b" d="M378.755,124.73A2.267,2.267,0,1,0,376.487,127,2.269,2.269,0,0,0,378.755,124.73Z" transform="translate(-160.182 26.664)"/><path class="b" d="M343.177,136.316a2.266,2.266,0,1,0-2.266,2.266A2.265,2.265,0,0,0,343.177,136.316Z" transform="translate(-215.687 -14.582)"/><path class="b" d="M355.037,136.316a2.266,2.266,0,1,0-2.266,2.266A2.265,2.265,0,0,0,355.037,136.316Z" transform="translate(-197.184 -14.582)"/><path class="b" d="M366.895,136.316a2.266,2.266,0,1,0-2.266,2.266A2.265,2.265,0,0,0,366.895,136.316Z" transform="translate(-178.683 -14.582)"/><path class="b" d="M378.755,136.316a2.267,2.267,0,1,0-2.268,2.266A2.267,2.267,0,0,0,378.755,136.316Z" transform="translate(-160.182 -14.582)"/><circle class="b" cx="2.266" cy="2.266" r="2.266" transform="translate(122.96 89.805)"/><circle class="b" cx="2.266" cy="2.266" r="2.266" transform="translate(153.32 89.805)"/><path class="b" d="M366.895,147.9a2.266,2.266,0,1,0-2.266,2.266A2.265,2.265,0,0,0,366.895,147.9Z" transform="translate(-178.683 -55.83)"/><path class="b" d="M378.755,147.9a2.267,2.267,0,1,0-2.268,2.266A2.267,2.267,0,0,0,378.755,147.9Z" transform="translate(-160.182 -55.83)"/><circle class="b" cx="2.266" cy="2.266" r="2.266" transform="translate(122.96 59.324)"/><circle class="b" cx="2.266" cy="2.266" r="2.266" transform="translate(153.32 59.324)"/><path class="b" d="M366.895,159.808a2.266,2.266,0,1,0-2.266,2.266A2.267,2.267,0,0,0,366.895,159.808Z" transform="translate(-178.683 -98.218)"/><path class="b" d="M378.755,159.808a2.267,2.267,0,1,0-2.268,2.266A2.269,2.269,0,0,0,378.755,159.808Z" transform="translate(-160.182 -98.218)"/><circle class="b" cx="2.266" cy="2.266" r="2.266" transform="translate(122.96 29.662)"/><circle class="b" cx="2.266" cy="2.266" r="2.266" transform="translate(153.32 29.662)"/><path class="b" d="M366.895,171.4a2.266,2.266,0,1,0-2.266,2.266A2.267,2.267,0,0,0,366.895,171.4Z" transform="translate(-178.683 -139.466)"/><path class="b" d="M378.755,171.4a2.267,2.267,0,1,0-2.268,2.266A2.269,2.269,0,0,0,378.755,171.4Z" transform="translate(-160.182 -139.466)"/><circle class="b" cx="2.266" cy="2.266" r="2.266" transform="translate(122.96)"/><circle class="b" cx="2.266" cy="2.266" r="2.266" transform="translate(153.32)"/><path class="b" d="M366.895,182.979a2.266,2.266,0,1,0-2.266,2.266A2.265,2.265,0,0,0,366.895,182.979Z" transform="translate(-178.683 -180.712)"/><path class="b" d="M378.755,182.979a2.267,2.267,0,1,0-2.268,2.266A2.267,2.267,0,0,0,378.755,182.979Z" transform="translate(-160.182 -180.712)"/><path class="b" d="M391.205,124.73A2.266,2.266,0,1,0,388.94,127,2.267,2.267,0,0,0,391.205,124.73Z" transform="translate(-140.753 26.664)"/><path class="b" d="M403.064,124.73A2.266,2.266,0,1,0,400.8,127,2.267,2.267,0,0,0,403.064,124.73Z" transform="translate(-122.252 26.664)"/><circle class="b" cx="2.266" cy="2.266" r="2.266" transform="translate(306.64 149.129)"/><path class="b" d="M391.205,136.316a2.266,2.266,0,1,0-2.266,2.266A2.265,2.265,0,0,0,391.205,136.316Z" transform="translate(-140.753 -14.582)"/><path class="b" d="M403.064,136.316a2.266,2.266,0,1,0-2.266,2.266A2.265,2.265,0,0,0,403.064,136.316Z" transform="translate(-122.252 -14.582)"/><path class="b" d="M414.924,136.316a2.267,2.267,0,1,0-2.268,2.266A2.267,2.267,0,0,0,414.924,136.316Z" transform="translate(-103.751 -14.582)"/><path class="b" d="M391.205,147.9a2.266,2.266,0,1,0-2.266,2.266A2.265,2.265,0,0,0,391.205,147.9Z" transform="translate(-140.753 -55.83)"/><path class="b" d="M403.064,147.9a2.266,2.266,0,1,0-2.266,2.266A2.265,2.265,0,0,0,403.064,147.9Z" transform="translate(-122.252 -55.83)"/><circle class="b" cx="2.266" cy="2.266" r="2.266" transform="translate(306.64 89.805)"/><path class="b" d="M391.205,159.808a2.266,2.266,0,1,0-2.266,2.266A2.267,2.267,0,0,0,391.205,159.808Z" transform="translate(-140.753 -98.218)"/><path class="b" d="M403.064,159.808a2.266,2.266,0,1,0-2.266,2.266A2.267,2.267,0,0,0,403.064,159.808Z" transform="translate(-122.252 -98.218)"/><circle class="b" cx="2.266" cy="2.266" r="2.266" transform="translate(306.64 59.324)"/><path class="b" d="M391.205,171.4a2.266,2.266,0,1,0-2.266,2.266A2.267,2.267,0,0,0,391.205,171.4Z" transform="translate(-140.753 -139.466)"/><path class="b" d="M403.064,171.4a2.266,2.266,0,1,0-2.266,2.266A2.267,2.267,0,0,0,403.064,171.4Z" transform="translate(-122.252 -139.466)"/><circle class="b" cx="2.266" cy="2.266" r="2.266" transform="translate(306.64 29.662)"/><path class="b" d="M391.205,182.979a2.266,2.266,0,1,0-2.266,2.266A2.265,2.265,0,0,0,391.205,182.979Z" transform="translate(-140.753 -180.712)"/><path class="b" d="M403.064,182.979a2.266,2.266,0,1,0-2.266,2.266A2.265,2.265,0,0,0,403.064,182.979Z" transform="translate(-122.252 -180.712)"/><circle class="b" cx="2.266" cy="2.266" r="2.266" transform="translate(306.64)"/></g><path class="c" d="M1657.5,705.96a2.908,2.908,0,0,1,5.816,0v13.082a2.908,2.908,0,1,1-5.816,0V705.96Zm-19.833,10.624a2.909,2.909,0,1,1,4.113-4.116l9.255,9.253a2.91,2.91,0,0,1-4.113,4.117l-9.255-9.254Zm-6.51,21.537a2.911,2.911,0,1,1,0-5.823h13.086a2.912,2.912,0,0,1,0,5.823Zm10.623,19.835a2.909,2.909,0,0,1-4.113-4.116l9.255-9.254a2.909,2.909,0,0,1,4.113,4.116l-9.255,9.254Zm21.536,6.508a2.908,2.908,0,0,1-5.816,0V751.372a2.908,2.908,0,0,1,5.816,0v13.092Zm19.833-10.624a2.91,2.91,0,0,1-4.116,4.116l-9.255-9.254a2.91,2.91,0,0,1,4.116-4.116l9.255,9.254Zm6.509-21.542a2.911,2.911,0,1,1,0,5.823h-13.086a2.911,2.911,0,0,1,0-5.823Zm-10.625-19.83a2.91,2.91,0,0,1,4.116,4.116l-9.255,9.254a2.911,2.911,0,0,1-4.116-4.117Z" transform="translate(-22.241 -123.618)"/><path class="c" d="M1657.5,705.96a2.908,2.908,0,0,1,5.816,0v13.082a2.908,2.908,0,1,1-5.816,0V705.96Zm-19.833,10.624a2.909,2.909,0,1,1,4.113-4.116l9.255,9.253a2.91,2.91,0,0,1-4.113,4.117l-9.255-9.254Zm-6.51,21.537a2.911,2.911,0,1,1,0-5.823h13.086a2.912,2.912,0,0,1,0,5.823Zm10.623,19.835a2.909,2.909,0,0,1-4.113-4.116l9.255-9.254a2.909,2.909,0,0,1,4.113,4.116l-9.255,9.254Zm21.536,6.508a2.908,2.908,0,0,1-5.816,0V751.372a2.908,2.908,0,0,1,5.816,0v13.092Zm19.833-10.624a2.91,2.91,0,0,1-4.116,4.116l-9.255-9.254a2.91,2.91,0,0,1,4.116-4.116l9.255,9.254Zm6.509-21.542a2.911,2.911,0,1,1,0,5.823h-13.086a2.911,2.911,0,0,1,0-5.823Zm-10.625-19.83a2.91,2.91,0,0,1,4.116,4.116l-9.255,9.254a2.911,2.911,0,0,1-4.116-4.117Z" transform="translate(-1628.241 -703.053)"/></g></g><g transform="translate(0 0)"><g class="d"><path class="e" d="M873.092,1016.841h64.492c34.71,0,63.109,32.688,63.109,72.637h0c0,39.951-28.4,72.638-63.109,72.638H392.261c-56.206,0-102.191-52.928-102.191-117.619h0c0-64.693,45.985-117.621,102.19-117.621h0c23.765,0,43.208-22.378,43.208-49.731h0c0-27.353-19.444-49.733-43.209-49.733h-52c-24.708,0-44.924-23.268-44.924-51.7h0c0-28.439,20.216-51.707,44.924-51.707h65.757c9.618,0,17.49-9.06,17.49-20.13h0c0-11.07-7.872-20.128-17.49-20.128H394.424c-6.638,0-12.069-6.253-12.069-13.893h0c0-7.641,5.431-13.893,12.069-13.893h76.064c16.019,0,17.8,21.782,58.267,21.782h62.467c8.663,0-26.075,8.162-26.075,18.129l15.338-18.129c0,9.969,8.663,18.129,0,18.129L430.172,713.992c-12.552,0,177.225,11.822,177.225,26.266v0c0,14.446,10.27,26.268,22.822,26.268h22.762c61.469,0,70.15,18.489,80.916,55.262s66.679,39.74,66.679,39.74h76.452c18.916,0,34.391,17.812,34.391,39.582v0c0,21.77-15.476,39.582-34.391,39.582h-3.937c-18.193,0-33.079,17.134-33.079,38.074h0c0,20.94,14.886,38.072,33.079,38.072Zm-512.54-333.1c6.667,0,12.071-6.221,12.071-13.893s-5.4-13.893-12.071-13.893-12.071,6.221-12.071,13.893S353.886,683.741,360.552,683.741Z" transform="translate(-778.516 -366.874)"/><path class="e" d="M-14.337,1032.91H64.316c42.334,0,76.966,35.456,76.966,78.79h0c0,43.335-34.632,78.79-76.966,78.79H-600.749c-68.548,0-124.631-57.412-124.631-127.582h0c0-70.172,56.083-127.582,124.629-127.582h0c28.983,0,52.7-24.276,52.7-53.946h0c0-29.67-23.714-53.946-52.7-53.946H-664.17c-30.133,0-54.786-25.239-54.786-56.085h0c0-30.847,24.653-56.086,54.786-56.086h80.2c11.732,0,21.33-9.826,21.33-21.835h0c0-12.008-9.6-21.833-21.33-21.833h-14.138a14.943,14.943,0,0,1-14.719-15.07h0a14.943,14.943,0,0,1,14.719-15.07h92.766c19.537,0,21.713,23.627,71.061,23.627h142.189a19.5,19.5,0,0,1,19.209,19.664h0a19.5,19.5,0,0,1-19.209,19.664h-18.446c-15.308,0-27.833,12.821-27.833,28.491h0c0,15.669,12.525,28.493,27.833,28.493h27.761c74.966,0,85.555,20.055,98.683,59.943s81.321,43.106,81.321,43.106h93.24c23.069,0,41.943,19.321,41.943,42.935v0c0,23.614-18.874,42.935-41.943,42.935h-4.8c-22.187,0-40.341,18.586-40.341,41.3h0c0,22.713,18.153,41.3,40.341,41.3ZM-639.421,671.594a14.9,14.9,0,0,0,14.721-15.07,14.9,14.9,0,0,0-14.721-15.07,14.9,14.9,0,0,0-14.721,15.07A14.9,14.9,0,0,0-639.421,671.594Z" transform="translate(1901.054 -413.311)"/></g></g></svg>