<svg xmlns="http://www.w3.org/2000/svg" width="744.065" height="561.103" viewBox="0 0 744.065 561.103"><defs><style>.a{fill:#24669a;}.b{fill:#ffc727;}.c,.i{opacity:0.1;}.d{fill:#333;}.e{fill:#d3766a;}.f,.n{fill:#fff;}.g{fill:#263238;}.h,.i{fill:#2383c3;}.j{fill:#100e3a;}.k{fill:#ff9abb;}.l{fill:#dd6a57;}.m{fill:none;stroke:#f4a69d;stroke-linecap:round;stroke-linejoin:round;stroke-width:0;}.n{stroke:#263238;stroke-miterlimit:10;}.o{fill:#ff6e4a;}</style></defs><g transform="translate(-40.601 -96.932)"><g transform="translate(237.371 96.932)"><g transform="translate(167.852)"><path class="a" d="M339.061,279.271c0,6.439,10.248,11.854,10.248,24.074,0,6.272-4.741,18.478-18.983,18.478s-18.981-12.206-18.981-18.478c0-12.219,10.248-17.634,10.248-24.074,0-5.6-7.036-10.692-7.036-10.692H250.163V197.867s5.095-7.036,10.692-7.036c6.439,0,11.854,10.248,24.075,10.248,6.271,0,18.476-4.741,18.476-18.981S291.2,163.115,284.93,163.115c-12.221,0-17.636,10.248-24.075,10.248-5.6,0-10.692-7.036-10.692-7.036v-69.4c94.267,0,167.854,75.988,167.854,157.8q0,7.065-.628,13.843H346.1S339.061,273.672,339.061,279.271Z" transform="translate(-250.163 -96.932)"/></g><g transform="translate(0.626 118.404)"><path class="a" d="M268.034,288.1c0,14.24,12.206,18.981,18.476,18.981,12.221,0,17.636-10.248,24.075-10.248,5.6,0,10.692,7.036,10.692,7.036V467.742H256.854s7.464-58-21.7-100.982c-16.964-24.992-74.551-74.427-81.1-148.534h76.355s7.036-5.094,7.036-10.692c0-6.439-10.248-11.854-10.248-24.075,0-6.271,4.741-18.476,18.983-18.476s18.981,12.206,18.981,18.476c0,12.221-10.248,17.636-10.248,24.075,0,5.6,7.036,10.692,7.036,10.692h59.331v54.1s-5.093,7.036-10.692,7.036c-6.439,0-11.854-10.248-24.075-10.248C280.24,269.114,268.034,273.855,268.034,288.1Z" transform="translate(-154.052 -164.983)"/></g><g transform="translate(0)"><path class="b" d="M374.788,182.1c0,14.24-12.206,18.981-18.476,18.981-12.221,0-17.636-10.248-24.075-10.248-5.6,0-10.692,7.036-10.692,7.036v70.712H262.213s-7.036-5.095-7.036-10.692c0-6.439,10.248-11.854,10.248-24.075,0-6.271-4.741-18.476-18.981-18.476s-18.983,12.206-18.983,18.476c0,12.221,10.248,17.636,10.248,24.075,0,5.6-7.036,10.692-7.036,10.692H154.318q-.619-6.77-.626-13.843c0-81.816,73.587-157.8,167.852-157.8v69.4s5.095,7.036,10.692,7.036c6.439,0,11.854-10.248,24.075-10.248C362.582,163.115,374.788,167.857,374.788,182.1Z" transform="translate(-153.692 -96.932)"/><path class="c" d="M374.788,182.1c0,14.24-12.206,18.981-18.476,18.981-12.221,0-17.636-10.248-24.075-10.248-5.6,0-10.692,7.036-10.692,7.036v70.712H262.213s-7.036-5.095-7.036-10.692c0-6.439,10.248-11.854,10.248-24.075,0-6.271-4.741-18.476-18.981-18.476s-18.983,12.206-18.983,18.476c0,12.221,10.248,17.636,10.248,24.075,0,5.6-7.036,10.692-7.036,10.692H154.318q-.619-6.77-.626-13.843c0-81.816,73.587-157.8,167.852-157.8v69.4s5.095,7.036,10.692,7.036c6.439,0,11.854-10.248,24.075-10.248C362.582,163.115,374.788,167.857,374.788,182.1Z" transform="translate(-153.692 -96.932)"/></g><path class="d" d="M0,0H159.208V24.726H0Z" transform="translate(88.249 421.156)"/><rect class="d" width="159.208" height="24.726" transform="translate(88.249 450.277)"/><rect class="d" width="109.529" height="24.726" transform="translate(113.088 479.397)"/></g><g transform="translate(362.525 181.999)"><g transform="translate(171.363 143.796)"><g transform="translate(0 0.139)"><g transform="translate(0 243.52)"><path class="e" d="M325.608,456.138c3.074,1.021,90.852.766,94.2-1.357,1.263-.792,1.975-13.591,2.391-29.062q.141-5.016.216-10.3c.066-4.15.12-8.353.146-12.435.108-18.332-.146-34.475-.146-34.475H365.266l.026,34.475.014,12.435.3,10.3s-33.561,15.136-36.973,17.862C325.232,446.293,322.546,455.13,325.608,456.138Z" transform="translate(-323.996 -368.508)"/><path class="f" d="M325.608,441.477c3.074,1.021,90.852.766,94.2-1.357,1.263-.792,1.975-13.59,2.391-29.062q.141-5.016.216-10.3c.066-4.15.12-8.353.146-12.435H365.292l.014,12.435.3,10.3s-33.561,15.136-36.973,17.862C325.232,431.632,322.546,440.469,325.608,441.477Z" transform="translate(-323.996 -353.847)"/><g transform="translate(0 38.6)"><path class="a" d="M325.457,436.361c2,.658,39.39.792,66.613.228,6.3-.134,12.059-.31,16.707-.51,6.406-.3,10.7-.646,11.4-1.089,1.545-.993,2.283-19.767,2.632-39.576H365.385l.3,10.354s-33.749,15.216-37.187,17.954C325.081,426.463,322.383,435.326,325.457,436.361Z" transform="translate(-324.112 -387.199)"/><g transform="translate(2.369)"><g transform="translate(0 14.852)"><path class="g" d="M325.708,417.082c14.795-.407,74.507-.649,89.163.075.12.005.12.087,0,.092-14.655.724-74.368.48-89.163.075C325.4,417.315,325.394,417.091,325.708,417.082Z" transform="translate(-325.473 -386.306)"/><path class="g" d="M346.925,399.666c5.818-1.1,12.943-.23,17.4,3.906.172.16-.057.4-.247.344a81.7,81.7,0,0,0-17.133-3.515A.373.373,0,0,1,346.925,399.666Z" transform="translate(-309.825 -399.229)"/><path class="g" d="M344.514,401.129c5.818-1.1,12.943-.231,17.4,3.9.172.16-.057.4-.247.345a81.942,81.942,0,0,0-17.133-3.515A.372.372,0,0,1,344.514,401.129Z" transform="translate(-311.609 -398.147)"/><path class="g" d="M342.1,402.591c5.82-1.1,12.943-.23,17.4,3.906.174.16-.057.4-.245.345a81.936,81.936,0,0,0-17.133-3.515A.373.373,0,0,1,342.1,402.591Z" transform="translate(-313.393 -397.065)"/><path class="g" d="M339.691,404.054c5.82-1.1,12.943-.23,17.4,3.906.172.16-.057.4-.247.343a82.011,82.011,0,0,0-17.131-3.513A.373.373,0,0,1,339.691,404.054Z" transform="translate(-315.177 -395.982)"/></g><g transform="translate(25.464)"><path class="g" d="M343.584,400.834c4.127,3.191,9.493,4.482,14.306,6.248a.72.72,0,0,0,.91-.729.156.156,0,0,0,.137-.211,31.076,31.076,0,0,0-9.006-13.31c-2.436-2.036-6.7-3.442-8.98-.284C338.8,395.535,341.174,398.97,343.584,400.834Zm-1.494-4.68c-1.046-6.386,5.824-3.052,7.558-1.481a33.73,33.73,0,0,1,3.1,3.325,93.592,93.592,0,0,1,5.43,7.659c-2.312-1.013-4.689-1.818-7.034-2.744C348.345,401.808,342.666,399.673,342.09,396.153Z" transform="translate(-340.108 -390.693)"/><path class="g" d="M370.949,395.679c-1.418-3.628-5.9-3.332-8.766-1.968a31.055,31.055,0,0,0-12.044,10.641.156.156,0,0,0,.08.238.722.722,0,0,0,.7.934c5.1-.51,10.619-.423,15.412-2.481C369.129,401.841,372.29,399.108,370.949,395.679Zm-12.454,7.492c-2.5.311-5.006.5-7.5.9a92.783,92.783,0,0,1,7.17-6.06A33.49,33.49,0,0,1,362,395.565c2.072-1.089,9.556-2.6,6.951,3.318C367.511,402.149,361.479,402.8,358.495,403.171Z" transform="translate(-332.708 -389.157)"/></g></g></g></g><g transform="translate(40.684)"><path class="e" d="M424.284,228.548S405.734,381.3,405.371,383.233c-.052.254-.09,116.276-.09,116.276H348.1s-1.724-97.112.64-119.768c3.008-28.9,21.97-151.193,21.97-151.193Z" transform="translate(-347.494 -228.548)"/></g></g><g transform="translate(63.901)"><g transform="translate(97.654 210.009)"><path class="e" d="M420.48,467.73c3.222-.343,83.069-36.791,85.237-40.109.828-1.248-3.809-13.192-9.813-27.452-1.286-3.087-2.505-6.33-4.047-9.474-1.928-3.958-3.9-7.9-5.858-11.67-8.435-16.409-16.167-29.857-16.167-29.857l-50.583,22.908,14.608,29.906,5.985,12.27,4.51,9.26s-24.326,27.635-26.309,31.517S417.272,468.067,420.48,467.73Z" transform="translate(-416.872 -349.168)"/><path class="f" d="M420.48,455.033c3.222-.343,83.069-36.791,85.237-40.109.828-1.248-3.809-13.192-9.813-27.452-1.286-3.087-2.505-6.33-4.047-9.474-1.928-3.958-3.9-7.9-5.858-11.67-15.617,6.986-38.127,16.848-52.142,22.957l5.985,12.27,4.51,9.26s-24.326,27.635-26.309,31.517S417.272,455.37,420.48,455.033Z" transform="translate(-416.872 -336.471)"/><g transform="translate(0 41.32)"><path class="a" d="M420.378,450.378c3.234-.343,83.534-36.993,85.712-40.325,1.007-1.538-6.072-18.943-13.931-37.137l-52.306,23.691,4.538,9.312s-24.467,27.783-26.464,31.694C415.945,441.518,417.146,450.719,420.378,450.378Z" transform="translate(-416.963 -372.916)"/><g transform="translate(2.932 10.641)"><g transform="translate(0 15.887)"><path class="g" d="M418.818,430.909c13.309-6.474,67.6-31.331,81.251-36.719.111-.044.144.031.038.085-13.051,6.706-67.544,31.12-81.19,36.855C418.63,431.25,418.536,431.045,418.818,430.909Z" transform="translate(-418.648 -383.713)"/><path class="g" d="M430.921,392.513c4.846-3.407,11.694-5.55,17.464-3.624.224.075.115.392-.082.416a81.87,81.87,0,0,0-17.056,3.868A.372.372,0,0,1,430.921,392.513Z" transform="translate(-409.686 -388.162)"/><path class="g" d="M429.328,394.84c4.846-3.407,11.694-5.55,17.465-3.624.223.077.113.391-.084.418a81.763,81.763,0,0,0-17.056,3.866A.372.372,0,0,1,429.328,394.84Z" transform="translate(-410.865 -386.441)"/><path class="g" d="M427.735,397.166c4.846-3.405,11.694-5.549,17.464-3.623.224.075.115.391-.082.416a81.892,81.892,0,0,0-17.056,3.866A.372.372,0,0,1,427.735,397.166Z" transform="translate(-412.043 -384.718)"/><path class="g" d="M426.142,399.5c4.846-3.407,11.694-5.55,17.464-3.624.224.075.115.391-.082.416a81.872,81.872,0,0,0-17.056,3.866A.371.371,0,0,1,426.142,399.5Z" transform="translate(-413.222 -382.996)"/></g><g transform="translate(5.765)"><path class="g" d="M427.875,394.268c5.075,1.2,10.5.167,15.609-.209a.724.724,0,0,0,.529-1.041.156.156,0,0,0,.037-.249,31.064,31.064,0,0,0-13.695-8.409c-3.059-.851-7.523-.371-8.3,3.447C421.325,391.418,424.911,393.565,427.875,394.268Zm-3.294-3.647c-3.586-5.385,4.045-5.182,6.276-4.466a33.292,33.292,0,0,1,4.192,1.752,92.773,92.773,0,0,1,8.106,4.736c-2.523.03-5.021.277-7.539.4C432.612,393.191,426.557,393.591,424.581,390.621Z" transform="translate(-421.962 -375.354)"/><path class="g" d="M449.242,380.306c-2.787-2.72-6.747-.6-8.8,1.823a31.072,31.072,0,0,0-6.579,14.662.156.156,0,0,0,.171.184.723.723,0,0,0,1.023.562c4.437-2.568,9.5-4.766,13.015-8.618C450.127,386.671,451.879,382.878,449.242,380.306Zm-8.252,11.962c-2.151,1.317-4.355,2.519-6.457,3.915a93.05,93.05,0,0,1,4.031-8.479,33.274,33.274,0,0,1,2.478-3.809c1.439-1.846,7.631-6.314,7.7.157C448.781,387.619,443.554,390.7,440.989,392.268Z" transform="translate(-413.155 -379.031)"/></g></g></g></g><path class="e" d="M360.838,228.607s4.153,22.064,19.546,33.288c0,0,33.941,113.586,38.351,126.609,7.6,22.447,54.634,98.473,54.634,98.473l52.013-22.957s-47.128-86.031-52.831-95.336c-2.9-4.722-24.94-96.413-24.624-98.784,3.784-28.222-9.606-41.433-9.606-41.433Z" transform="translate(-360.838 -228.468)"/></g><path class="d" d="M370.712,228.548h79.469a60.474,60.474,0,0,1,9.114,41.4s22.864,90.808,25.306,96.667,14.89,25.633,14.89,25.633c-79.579,50.846-152,26.713-152,26.713s0-22.563,1.136-42.743C348.975,370.084,370.712,228.548,370.712,228.548Z" transform="translate(-306.81 -228.409)"/><g transform="translate(43.089 5.444)"><path class="f" d="M364.695,237.158a.719.719,0,1,1-.719-.719A.719.719,0,0,1,364.695,237.158Z" transform="translate(-338.237 -228.014)"/><path class="f" d="M371.885,237.158a.719.719,0,1,1-.719-.719A.719.719,0,0,1,371.885,237.158Z" transform="translate(-332.917 -228.014)"/><path class="f" d="M379.075,237.158a.719.719,0,1,1-.719-.719A.719.719,0,0,1,379.075,237.158Z" transform="translate(-327.597 -228.014)"/><path class="f" d="M386.265,237.158a.719.719,0,1,1-.72-.719A.72.72,0,0,1,386.265,237.158Z" transform="translate(-322.277 -228.014)"/><path class="f" d="M393.455,237.158a.719.719,0,1,1-.72-.719A.72.72,0,0,1,393.455,237.158Z" transform="translate(-316.957 -228.014)"/><path class="f" d="M400.646,237.158a.72.72,0,1,1-.72-.719A.721.721,0,0,1,400.646,237.158Z" transform="translate(-311.637 -228.014)"/><path class="f" d="M407.834,237.158a.719.719,0,1,1-.719-.719A.719.719,0,0,1,407.834,237.158Z" transform="translate(-306.317 -228.014)"/><path class="f" d="M360.668,232.242a.694.694,0,0,1-.418.644c.07-.418.122-.818.191-1.183A.763.763,0,0,1,360.668,232.242Z" transform="translate(-340.461 -231.519)"/><path class="f" d="M368.29,232.317a.719.719,0,1,1-.719-.72A.719.719,0,0,1,368.29,232.317Z" transform="translate(-335.577 -231.597)"/><path class="f" d="M375.48,232.317a.719.719,0,1,1-.719-.72A.719.719,0,0,1,375.48,232.317Z" transform="translate(-330.257 -231.597)"/><circle class="f" cx="0.72" cy="0.72" r="0.72" transform="translate(56.294)"/><circle class="f" cx="0.72" cy="0.72" r="0.72" transform="translate(68.804)"/><path class="f" d="M397.05,232.317a.719.719,0,1,1-.72-.72A.72.72,0,0,1,397.05,232.317Z" transform="translate(-314.297 -231.597)"/><path class="f" d="M404.239,232.317a.719.719,0,1,1-.719-.72A.719.719,0,0,1,404.239,232.317Z" transform="translate(-308.977 -231.597)"/><path class="f" d="M364.695,247a.719.719,0,1,1-.719-.72A.719.719,0,0,1,364.695,247Z" transform="translate(-338.237 -220.73)"/><path class="f" d="M371.885,247a.719.719,0,1,1-.719-.72A.719.719,0,0,1,371.885,247Z" transform="translate(-332.917 -220.73)"/><path class="f" d="M379.075,247a.719.719,0,1,1-.719-.72A.719.719,0,0,1,379.075,247Z" transform="translate(-327.597 -220.73)"/><path class="f" d="M386.265,247a.719.719,0,1,1-.72-.72A.719.719,0,0,1,386.265,247Z" transform="translate(-322.277 -220.73)"/><path class="f" d="M393.455,247a.719.719,0,1,1-.72-.72A.719.719,0,0,1,393.455,247Z" transform="translate(-316.957 -220.73)"/><path class="f" d="M400.646,247a.72.72,0,1,1-.72-.72A.72.72,0,0,1,400.646,247Z" transform="translate(-311.637 -220.73)"/><path class="f" d="M407.834,247a.719.719,0,1,1-.719-.72A.719.719,0,0,1,407.834,247Z" transform="translate(-306.317 -220.73)"/><path class="f" d="M361.1,242.162a.72.72,0,1,1-.72-.719A.722.722,0,0,1,361.1,242.162Z" transform="translate(-340.897 -224.312)"/><path class="f" d="M368.29,242.162a.719.719,0,1,1-.719-.719A.72.72,0,0,1,368.29,242.162Z" transform="translate(-335.577 -224.312)"/><path class="f" d="M375.48,242.162a.719.719,0,1,1-.719-.719A.72.72,0,0,1,375.48,242.162Z" transform="translate(-330.257 -224.312)"/><path class="f" d="M382.67,242.162a.719.719,0,1,1-.72-.719A.721.721,0,0,1,382.67,242.162Z" transform="translate(-324.937 -224.312)"/><path class="f" d="M389.86,242.162a.719.719,0,1,1-.72-.719A.721.721,0,0,1,389.86,242.162Z" transform="translate(-319.617 -224.312)"/><path class="f" d="M397.05,242.162a.719.719,0,1,1-.72-.719A.722.722,0,0,1,397.05,242.162Z" transform="translate(-314.297 -224.312)"/><path class="f" d="M404.239,242.162a.719.719,0,1,1-.719-.719A.72.72,0,0,1,404.239,242.162Z" transform="translate(-308.977 -224.312)"/><path class="f" d="M411.429,242.162a.719.719,0,1,1-.719-.719A.72.72,0,0,1,411.429,242.162Z" transform="translate(-303.657 -224.312)"/><path class="f" d="M357.179,256.824a.71.71,0,0,1-.679.713c.07-.452.139-.922.209-1.375A.68.68,0,0,1,357.179,256.824Z" transform="translate(-343.236 -213.42)"/><path class="f" d="M364.695,256.849a.719.719,0,1,1-.719-.72A.72.72,0,0,1,364.695,256.849Z" transform="translate(-338.237 -213.445)"/><path class="f" d="M371.885,256.849a.719.719,0,1,1-.719-.72A.72.72,0,0,1,371.885,256.849Z" transform="translate(-332.917 -213.445)"/><path class="f" d="M379.075,256.849a.719.719,0,1,1-.719-.72A.72.72,0,0,1,379.075,256.849Z" transform="translate(-327.597 -213.445)"/><path class="f" d="M386.265,256.849a.719.719,0,1,1-.72-.72A.721.721,0,0,1,386.265,256.849Z" transform="translate(-322.277 -213.445)"/><path class="f" d="M393.455,256.849a.719.719,0,1,1-.72-.72A.721.721,0,0,1,393.455,256.849Z" transform="translate(-316.957 -213.445)"/><path class="f" d="M400.646,256.849a.72.72,0,1,1-.72-.72A.722.722,0,0,1,400.646,256.849Z" transform="translate(-311.637 -213.445)"/><path class="f" d="M407.834,256.849a.719.719,0,1,1-.719-.72A.72.72,0,0,1,407.834,256.849Z" transform="translate(-306.317 -213.445)"/><path class="f" d="M361.1,252.007a.72.72,0,1,1-.72-.719A.721.721,0,0,1,361.1,252.007Z" transform="translate(-340.897 -217.027)"/><path class="f" d="M368.29,252.007a.719.719,0,1,1-.719-.719A.719.719,0,0,1,368.29,252.007Z" transform="translate(-335.577 -217.027)"/><path class="f" d="M375.48,252.007a.719.719,0,1,1-.719-.719A.719.719,0,0,1,375.48,252.007Z" transform="translate(-330.257 -217.027)"/><path class="f" d="M382.67,252.007a.719.719,0,1,1-.72-.719A.72.72,0,0,1,382.67,252.007Z" transform="translate(-324.937 -217.027)"/><path class="f" d="M389.86,252.007a.719.719,0,1,1-.72-.719A.72.72,0,0,1,389.86,252.007Z" transform="translate(-319.617 -217.027)"/><path class="f" d="M397.05,252.007a.719.719,0,1,1-.72-.719A.721.721,0,0,1,397.05,252.007Z" transform="translate(-314.297 -217.027)"/><path class="f" d="M404.239,252.007a.719.719,0,1,1-.719-.719A.719.719,0,0,1,404.239,252.007Z" transform="translate(-308.977 -217.027)"/><path class="f" d="M411.429,252.007a.719.719,0,1,1-.719-.719A.719.719,0,0,1,411.429,252.007Z" transform="translate(-303.657 -217.027)"/><path class="f" d="M357.507,266.694a.72.72,0,1,1-.72-.719A.721.721,0,0,1,357.507,266.694Z" transform="translate(-343.557 -206.16)"/><path class="f" d="M364.695,266.694a.719.719,0,1,1-.719-.719A.719.719,0,0,1,364.695,266.694Z" transform="translate(-338.237 -206.16)"/><path class="f" d="M371.885,266.694a.719.719,0,1,1-.719-.719A.719.719,0,0,1,371.885,266.694Z" transform="translate(-332.917 -206.16)"/><path class="f" d="M379.075,266.694a.719.719,0,1,1-.719-.719A.719.719,0,0,1,379.075,266.694Z" transform="translate(-327.597 -206.16)"/><path class="f" d="M386.265,266.694a.719.719,0,1,1-.72-.719A.72.72,0,0,1,386.265,266.694Z" transform="translate(-322.277 -206.16)"/><path class="f" d="M393.455,266.694a.719.719,0,1,1-.72-.719A.72.72,0,0,1,393.455,266.694Z" transform="translate(-316.957 -206.16)"/><path class="f" d="M400.646,266.694a.72.72,0,1,1-.72-.719A.721.721,0,0,1,400.646,266.694Z" transform="translate(-311.637 -206.16)"/><path class="f" d="M407.834,266.694a.719.719,0,1,1-.719-.719A.719.719,0,0,1,407.834,266.694Z" transform="translate(-306.317 -206.16)"/><path class="f" d="M415.024,266.694a.719.719,0,1,1-.719-.719A.719.719,0,0,1,415.024,266.694Z" transform="translate(-300.997 -206.16)"/><path class="f" d="M361.1,261.853a.72.72,0,1,1-.72-.72A.72.72,0,0,1,361.1,261.853Z" transform="translate(-340.897 -209.743)"/><path class="f" d="M368.29,261.853a.719.719,0,1,1-.719-.72A.719.719,0,0,1,368.29,261.853Z" transform="translate(-335.577 -209.743)"/><path class="f" d="M375.48,261.853a.719.719,0,1,1-.719-.72A.719.719,0,0,1,375.48,261.853Z" transform="translate(-330.257 -209.743)"/><path class="f" d="M382.67,261.853a.719.719,0,1,1-.72-.72A.719.719,0,0,1,382.67,261.853Z" transform="translate(-324.937 -209.743)"/><path class="f" d="M389.86,261.853a.719.719,0,1,1-.72-.72A.719.719,0,0,1,389.86,261.853Z" transform="translate(-319.617 -209.743)"/><path class="f" d="M397.05,261.853a.719.719,0,1,1-.72-.72A.72.72,0,0,1,397.05,261.853Z" transform="translate(-314.297 -209.743)"/><path class="f" d="M404.239,261.853a.719.719,0,1,1-.719-.72A.719.719,0,0,1,404.239,261.853Z" transform="translate(-308.977 -209.743)"/><path class="f" d="M411.429,261.853a.719.719,0,1,1-.719-.72A.719.719,0,0,1,411.429,261.853Z" transform="translate(-303.657 -209.743)"/><path class="f" d="M357.507,276.54a.72.72,0,1,1-.72-.72A.72.72,0,0,1,357.507,276.54Z" transform="translate(-343.557 -198.875)"/><path class="f" d="M364.695,276.54a.719.719,0,1,1-.719-.72A.719.719,0,0,1,364.695,276.54Z" transform="translate(-338.237 -198.875)"/><path class="f" d="M371.885,276.54a.719.719,0,1,1-.719-.72A.719.719,0,0,1,371.885,276.54Z" transform="translate(-332.917 -198.875)"/><path class="f" d="M379.075,276.54a.719.719,0,1,1-.719-.72A.719.719,0,0,1,379.075,276.54Z" transform="translate(-327.597 -198.875)"/><path class="f" d="M386.265,276.54a.719.719,0,1,1-.72-.72A.719.719,0,0,1,386.265,276.54Z" transform="translate(-322.277 -198.875)"/><path class="f" d="M393.455,276.54a.719.719,0,1,1-.72-.72A.719.719,0,0,1,393.455,276.54Z" transform="translate(-316.957 -198.875)"/><path class="f" d="M400.646,276.54a.72.72,0,1,1-.72-.72A.72.72,0,0,1,400.646,276.54Z" transform="translate(-311.637 -198.875)"/><path class="f" d="M407.834,276.54a.719.719,0,1,1-.719-.72A.719.719,0,0,1,407.834,276.54Z" transform="translate(-306.317 -198.875)"/><path class="f" d="M415.024,276.54a.719.719,0,1,1-.719-.72A.719.719,0,0,1,415.024,276.54Z" transform="translate(-300.997 -198.875)"/><path class="f" d="M361.1,271.7a.72.72,0,1,1-.72-.719A.721.721,0,0,1,361.1,271.7Z" transform="translate(-340.897 -202.457)"/><path class="f" d="M368.29,271.7a.719.719,0,1,1-.719-.719A.719.719,0,0,1,368.29,271.7Z" transform="translate(-335.577 -202.457)"/><path class="f" d="M375.48,271.7a.719.719,0,1,1-.719-.719A.719.719,0,0,1,375.48,271.7Z" transform="translate(-330.257 -202.457)"/><circle class="f" cx="0.72" cy="0.72" r="0.72" transform="translate(56.294 68.521)"/><circle class="f" cx="0.72" cy="0.72" r="0.72" transform="translate(68.804 68.521)"/><path class="f" d="M397.05,271.7a.719.719,0,1,1-.72-.719A.721.721,0,0,1,397.05,271.7Z" transform="translate(-314.297 -202.457)"/><path class="f" d="M404.239,271.7a.719.719,0,1,1-.719-.719A.719.719,0,0,1,404.239,271.7Z" transform="translate(-308.977 -202.457)"/><circle class="f" cx="0.72" cy="0.72" r="0.72" transform="translate(106.333 68.521)"/><circle class="f" cx="0.72" cy="0.72" r="0.72" transform="translate(12.51 94.075)"/><path class="f" d="M364.695,286.385a.719.719,0,1,1-.719-.719A.719.719,0,0,1,364.695,286.385Z" transform="translate(-338.237 -191.59)"/><path class="f" d="M371.885,286.385a.719.719,0,1,1-.719-.719A.719.719,0,0,1,371.885,286.385Z" transform="translate(-332.917 -191.59)"/><path class="f" d="M379.075,286.385a.719.719,0,1,1-.719-.719A.719.719,0,0,1,379.075,286.385Z" transform="translate(-327.597 -191.59)"/><path class="f" d="M386.265,286.385a.719.719,0,1,1-.72-.719A.72.72,0,0,1,386.265,286.385Z" transform="translate(-322.277 -191.59)"/><path class="f" d="M393.455,286.385a.719.719,0,1,1-.72-.719A.72.72,0,0,1,393.455,286.385Z" transform="translate(-316.957 -191.59)"/><path class="f" d="M400.646,286.385a.72.72,0,1,1-.72-.719A.721.721,0,0,1,400.646,286.385Z" transform="translate(-311.637 -191.59)"/><path class="f" d="M407.834,286.385a.719.719,0,1,1-.719-.719A.719.719,0,0,1,407.834,286.385Z" transform="translate(-306.317 -191.59)"/><circle class="f" cx="0.72" cy="0.72" r="0.72" transform="translate(112.588 94.075)"/><path class="f" d="M353.7,281.536a.732.732,0,0,1-.713.731.882.882,0,0,1-.226-.035l.209-1.409h.017A.728.728,0,0,1,353.7,281.536Z" transform="translate(-346.003 -195.173)"/><path class="f" d="M361.1,281.544a.72.72,0,1,1-.72-.72A.72.72,0,0,1,361.1,281.544Z" transform="translate(-340.897 -195.173)"/><path class="f" d="M368.29,281.544a.719.719,0,1,1-.719-.72A.719.719,0,0,1,368.29,281.544Z" transform="translate(-335.577 -195.173)"/><path class="f" d="M375.48,281.544a.719.719,0,1,1-.719-.72A.719.719,0,0,1,375.48,281.544Z" transform="translate(-330.257 -195.173)"/><circle class="f" cx="0.72" cy="0.72" r="0.72" transform="translate(56.294 85.651)"/><circle class="f" cx="0.72" cy="0.72" r="0.72" transform="translate(68.804 85.651)"/><path class="f" d="M397.05,281.544a.719.719,0,1,1-.72-.72A.72.72,0,0,1,397.05,281.544Z" transform="translate(-314.297 -195.173)"/><path class="f" d="M404.239,281.544a.719.719,0,1,1-.719-.72A.719.719,0,0,1,404.239,281.544Z" transform="translate(-308.977 -195.173)"/><circle class="f" cx="0.72" cy="0.72" r="0.72" transform="translate(106.333 85.651)"/><path class="f" d="M418.619,281.544a.719.719,0,1,1-.719-.72A.719.719,0,0,1,418.619,281.544Z" transform="translate(-298.337 -195.173)"/><circle class="f" cx="0.72" cy="0.72" r="0.72" transform="translate(12.51 111.206)"/><path class="f" d="M364.695,296.231a.719.719,0,1,1-.719-.72A.719.719,0,0,1,364.695,296.231Z" transform="translate(-338.237 -184.305)"/><path class="f" d="M371.885,296.231a.719.719,0,1,1-.719-.72A.719.719,0,0,1,371.885,296.231Z" transform="translate(-332.917 -184.305)"/><path class="f" d="M379.075,296.231a.719.719,0,1,1-.719-.72A.719.719,0,0,1,379.075,296.231Z" transform="translate(-327.597 -184.305)"/><path class="f" d="M386.265,296.231a.719.719,0,1,1-.72-.72A.719.719,0,0,1,386.265,296.231Z" transform="translate(-322.277 -184.305)"/><path class="f" d="M393.455,296.231a.719.719,0,1,1-.72-.72A.719.719,0,0,1,393.455,296.231Z" transform="translate(-316.957 -184.305)"/><path class="f" d="M400.646,296.231a.72.72,0,1,1-.72-.72A.72.72,0,0,1,400.646,296.231Z" transform="translate(-311.637 -184.305)"/><path class="f" d="M407.834,296.231a.719.719,0,1,1-.719-.72A.719.719,0,0,1,407.834,296.231Z" transform="translate(-306.317 -184.305)"/><circle class="f" cx="0.72" cy="0.72" r="0.72" transform="translate(112.588 111.206)"/><circle class="f" cx="0.72" cy="0.72" r="0.72" transform="translate(125.097 111.206)"/><path class="f" d="M353.911,291.389a.719.719,0,1,1-.72-.719A.721.721,0,0,1,353.911,291.389Z" transform="translate(-346.216 -187.887)"/><path class="f" d="M361.1,291.389a.72.72,0,1,1-.72-.719A.722.722,0,0,1,361.1,291.389Z" transform="translate(-340.897 -187.887)"/><path class="f" d="M368.29,291.389a.719.719,0,1,1-.719-.719A.72.72,0,0,1,368.29,291.389Z" transform="translate(-335.577 -187.887)"/><path class="f" d="M375.48,291.389a.719.719,0,1,1-.719-.719A.72.72,0,0,1,375.48,291.389Z" transform="translate(-330.257 -187.887)"/><path class="f" d="M382.67,291.389a.719.719,0,1,1-.72-.719A.721.721,0,0,1,382.67,291.389Z" transform="translate(-324.937 -187.887)"/><path class="f" d="M389.86,291.389a.719.719,0,1,1-.72-.719A.721.721,0,0,1,389.86,291.389Z" transform="translate(-319.617 -187.887)"/><path class="f" d="M397.05,291.389a.719.719,0,1,1-.72-.719A.722.722,0,0,1,397.05,291.389Z" transform="translate(-314.297 -187.887)"/><path class="f" d="M404.239,291.389a.719.719,0,1,1-.719-.719A.72.72,0,0,1,404.239,291.389Z" transform="translate(-308.977 -187.887)"/><path class="f" d="M411.429,291.389a.719.719,0,1,1-.719-.719A.72.72,0,0,1,411.429,291.389Z" transform="translate(-303.657 -187.887)"/><path class="f" d="M418.619,291.389a.719.719,0,1,1-.719-.719A.72.72,0,0,1,418.619,291.389Z" transform="translate(-298.337 -187.887)"/><path class="f" d="M350.129,306.084a.706.706,0,0,1-.713.713.813.813,0,0,1-.3-.052v-.017q.1-.652.209-1.357a.13.13,0,0,1,.087-.018A.72.72,0,0,1,350.129,306.084Z" transform="translate(-348.697 -177.023)"/><path class="f" d="M357.507,306.076a.72.72,0,1,1-.72-.72A.722.722,0,0,1,357.507,306.076Z" transform="translate(-343.557 -177.021)"/><path class="f" d="M364.695,306.076a.719.719,0,1,1-.719-.72A.72.72,0,0,1,364.695,306.076Z" transform="translate(-338.237 -177.021)"/><path class="f" d="M371.885,306.076a.719.719,0,1,1-.719-.72A.72.72,0,0,1,371.885,306.076Z" transform="translate(-332.917 -177.021)"/><path class="f" d="M379.075,306.076a.719.719,0,1,1-.719-.72A.72.72,0,0,1,379.075,306.076Z" transform="translate(-327.597 -177.021)"/><path class="f" d="M386.265,306.076a.719.719,0,1,1-.72-.72A.721.721,0,0,1,386.265,306.076Z" transform="translate(-322.277 -177.021)"/><path class="f" d="M393.455,306.076a.719.719,0,1,1-.72-.72A.721.721,0,0,1,393.455,306.076Z" transform="translate(-316.957 -177.021)"/><path class="f" d="M400.646,306.076a.72.72,0,1,1-.72-.72A.722.722,0,0,1,400.646,306.076Z" transform="translate(-311.637 -177.021)"/><path class="f" d="M407.834,306.076a.719.719,0,1,1-.719-.72A.72.72,0,0,1,407.834,306.076Z" transform="translate(-306.317 -177.021)"/><path class="f" d="M415.024,306.076a.719.719,0,1,1-.719-.72A.72.72,0,0,1,415.024,306.076Z" transform="translate(-300.997 -177.021)"/><path class="f" d="M422.214,306.076a.719.719,0,1,1-.72-.72A.721.721,0,0,1,422.214,306.076Z" transform="translate(-295.677 -177.021)"/><path class="f" d="M353.911,301.235a.719.719,0,1,1-.72-.72A.719.719,0,0,1,353.911,301.235Z" transform="translate(-346.216 -180.603)"/><path class="f" d="M361.1,301.235a.72.72,0,1,1-.72-.72A.72.72,0,0,1,361.1,301.235Z" transform="translate(-340.897 -180.603)"/><path class="f" d="M368.29,301.235a.719.719,0,1,1-.719-.72A.719.719,0,0,1,368.29,301.235Z" transform="translate(-335.577 -180.603)"/><path class="f" d="M375.48,301.235a.719.719,0,1,1-.719-.72A.719.719,0,0,1,375.48,301.235Z" transform="translate(-330.257 -180.603)"/><path class="f" d="M382.67,301.235a.719.719,0,1,1-.72-.72A.719.719,0,0,1,382.67,301.235Z" transform="translate(-324.937 -180.603)"/><path class="f" d="M389.86,301.235a.719.719,0,1,1-.72-.72A.719.719,0,0,1,389.86,301.235Z" transform="translate(-319.617 -180.603)"/><path class="f" d="M397.05,301.235a.719.719,0,1,1-.72-.72A.72.72,0,0,1,397.05,301.235Z" transform="translate(-314.297 -180.603)"/><path class="f" d="M404.239,301.235a.719.719,0,1,1-.719-.72A.719.719,0,0,1,404.239,301.235Z" transform="translate(-308.977 -180.603)"/><path class="f" d="M411.429,301.235a.719.719,0,1,1-.719-.72A.719.719,0,0,1,411.429,301.235Z" transform="translate(-303.657 -180.603)"/><path class="f" d="M418.619,301.235a.719.719,0,1,1-.719-.72A.719.719,0,0,1,418.619,301.235Z" transform="translate(-298.337 -180.603)"/><path class="f" d="M350.316,315.921a.719.719,0,1,1-.72-.719A.719.719,0,0,1,350.316,315.921Z" transform="translate(-348.876 -169.736)"/><path class="f" d="M357.507,315.921a.72.72,0,1,1-.72-.719A.721.721,0,0,1,357.507,315.921Z" transform="translate(-343.557 -169.736)"/><path class="f" d="M364.695,315.921a.719.719,0,1,1-.719-.719A.719.719,0,0,1,364.695,315.921Z" transform="translate(-338.237 -169.736)"/><path class="f" d="M371.885,315.921a.719.719,0,1,1-.719-.719A.719.719,0,0,1,371.885,315.921Z" transform="translate(-332.917 -169.736)"/><path class="f" d="M379.075,315.921a.719.719,0,1,1-.719-.719A.719.719,0,0,1,379.075,315.921Z" transform="translate(-327.597 -169.736)"/><path class="f" d="M386.265,315.921a.719.719,0,1,1-.72-.719A.72.72,0,0,1,386.265,315.921Z" transform="translate(-322.277 -169.736)"/><path class="f" d="M393.455,315.921a.719.719,0,1,1-.72-.719A.719.719,0,0,1,393.455,315.921Z" transform="translate(-316.957 -169.736)"/><path class="f" d="M400.646,315.921a.72.72,0,1,1-.72-.719A.721.721,0,0,1,400.646,315.921Z" transform="translate(-311.637 -169.736)"/><path class="f" d="M407.834,315.921a.719.719,0,1,1-.719-.719A.719.719,0,0,1,407.834,315.921Z" transform="translate(-306.317 -169.736)"/><path class="f" d="M415.024,315.921a.719.719,0,1,1-.719-.719A.719.719,0,0,1,415.024,315.921Z" transform="translate(-300.997 -169.736)"/><path class="f" d="M422.214,315.921a.719.719,0,1,1-.72-.719A.719.719,0,0,1,422.214,315.921Z" transform="translate(-295.677 -169.736)"/><path class="f" d="M429.4,315.921a.719.719,0,1,1-.72-.719A.719.719,0,0,1,429.4,315.921Z" transform="translate(-290.357 -169.736)"/><path class="f" d="M353.911,311.08a.719.719,0,1,1-.72-.72A.721.721,0,0,1,353.911,311.08Z" transform="translate(-346.216 -173.318)"/><path class="f" d="M361.1,311.08a.72.72,0,1,1-.72-.72A.722.722,0,0,1,361.1,311.08Z" transform="translate(-340.897 -173.318)"/><path class="f" d="M368.29,311.08a.719.719,0,1,1-.719-.72A.72.72,0,0,1,368.29,311.08Z" transform="translate(-335.577 -173.318)"/><path class="f" d="M375.48,311.08a.719.719,0,1,1-.719-.72A.72.72,0,0,1,375.48,311.08Z" transform="translate(-330.257 -173.318)"/><path class="f" d="M382.67,311.08a.719.719,0,1,1-.72-.72A.721.721,0,0,1,382.67,311.08Z" transform="translate(-324.937 -173.318)"/><path class="f" d="M389.86,311.08a.719.719,0,1,1-.72-.72A.721.721,0,0,1,389.86,311.08Z" transform="translate(-319.617 -173.318)"/><path class="f" d="M397.05,311.08a.719.719,0,1,1-.72-.72A.722.722,0,0,1,397.05,311.08Z" transform="translate(-314.297 -173.318)"/><path class="f" d="M404.239,311.08a.719.719,0,1,1-.719-.72A.72.72,0,0,1,404.239,311.08Z" transform="translate(-308.977 -173.318)"/><path class="f" d="M411.429,311.08a.719.719,0,1,1-.719-.72A.72.72,0,0,1,411.429,311.08Z" transform="translate(-303.657 -173.318)"/><path class="f" d="M418.619,311.08a.719.719,0,1,1-.719-.72A.72.72,0,0,1,418.619,311.08Z" transform="translate(-298.337 -173.318)"/><path class="f" d="M425.809,311.08a.719.719,0,1,1-.72-.72A.721.721,0,0,1,425.809,311.08Z" transform="translate(-293.017 -173.318)"/><path class="f" d="M350.316,325.767a.719.719,0,1,1-.72-.72A.719.719,0,0,1,350.316,325.767Z" transform="translate(-348.876 -162.451)"/><path class="f" d="M357.507,325.767a.72.72,0,1,1-.72-.72A.72.72,0,0,1,357.507,325.767Z" transform="translate(-343.557 -162.451)"/><path class="f" d="M364.695,325.767a.719.719,0,1,1-.719-.72A.719.719,0,0,1,364.695,325.767Z" transform="translate(-338.237 -162.451)"/><path class="f" d="M371.885,325.767a.719.719,0,1,1-.719-.72A.719.719,0,0,1,371.885,325.767Z" transform="translate(-332.917 -162.451)"/><path class="f" d="M379.075,325.767a.719.719,0,1,1-.719-.72A.719.719,0,0,1,379.075,325.767Z" transform="translate(-327.597 -162.451)"/><path class="f" d="M386.265,325.767a.719.719,0,1,1-.72-.72A.719.719,0,0,1,386.265,325.767Z" transform="translate(-322.277 -162.451)"/><path class="f" d="M393.455,325.767a.719.719,0,1,1-.72-.72A.719.719,0,0,1,393.455,325.767Z" transform="translate(-316.957 -162.451)"/><path class="f" d="M400.646,325.767a.72.72,0,1,1-.72-.72A.72.72,0,0,1,400.646,325.767Z" transform="translate(-311.637 -162.451)"/><path class="f" d="M407.834,325.767a.719.719,0,1,1-.719-.72A.719.719,0,0,1,407.834,325.767Z" transform="translate(-306.317 -162.451)"/><path class="f" d="M415.024,325.767a.719.719,0,1,1-.719-.72A.719.719,0,0,1,415.024,325.767Z" transform="translate(-300.997 -162.451)"/><path class="f" d="M422.214,325.767a.719.719,0,1,1-.72-.72A.719.719,0,0,1,422.214,325.767Z" transform="translate(-295.677 -162.451)"/><path class="f" d="M429.4,325.767a.719.719,0,1,1-.72-.72A.719.719,0,0,1,429.4,325.767Z" transform="translate(-290.357 -162.451)"/><circle class="f" cx="0.72" cy="0.72" r="0.72" transform="translate(6.255 154.173)"/><path class="f" d="M361.1,320.925a.72.72,0,1,1-.72-.719A.721.721,0,0,1,361.1,320.925Z" transform="translate(-340.897 -166.033)"/><path class="f" d="M368.29,320.925a.719.719,0,1,1-.719-.719A.719.719,0,0,1,368.29,320.925Z" transform="translate(-335.577 -166.033)"/><path class="f" d="M375.48,320.925a.719.719,0,1,1-.719-.719A.719.719,0,0,1,375.48,320.925Z" transform="translate(-330.257 -166.033)"/><circle class="f" cx="0.72" cy="0.72" r="0.72" transform="translate(56.294 154.173)"/><circle class="f" cx="0.72" cy="0.72" r="0.72" transform="translate(68.804 154.173)"/><path class="f" d="M397.05,320.925a.719.719,0,1,1-.72-.719A.721.721,0,0,1,397.05,320.925Z" transform="translate(-314.297 -166.033)"/><path class="f" d="M404.239,320.925a.719.719,0,1,1-.719-.719A.719.719,0,0,1,404.239,320.925Z" transform="translate(-308.977 -166.033)"/><circle class="f" cx="0.72" cy="0.72" r="0.72" transform="translate(106.333 154.173)"/><path class="f" d="M418.619,320.925a.719.719,0,1,1-.719-.719A.719.719,0,0,1,418.619,320.925Z" transform="translate(-298.337 -166.033)"/><path class="f" d="M425.809,320.925a.719.719,0,1,1-.72-.719A.72.72,0,0,1,425.809,320.925Z" transform="translate(-293.017 -166.033)"/><path class="f" d="M433,320.925a.719.719,0,1,1-.72-.719A.72.72,0,0,1,433,320.925Z" transform="translate(-287.697 -166.033)"/><circle class="f" cx="0.72" cy="0.72" r="0.72" transform="translate(0 179.727)"/><circle class="f" cx="0.72" cy="0.72" r="0.72" transform="translate(12.51 179.727)"/><path class="f" d="M364.695,335.612a.719.719,0,1,1-.719-.719A.719.719,0,0,1,364.695,335.612Z" transform="translate(-338.237 -155.166)"/><path class="f" d="M371.885,335.612a.719.719,0,1,1-.719-.719A.719.719,0,0,1,371.885,335.612Z" transform="translate(-332.917 -155.166)"/><path class="f" d="M379.075,335.612a.719.719,0,1,1-.719-.719A.719.719,0,0,1,379.075,335.612Z" transform="translate(-327.597 -155.166)"/><path class="f" d="M386.265,335.612a.719.719,0,1,1-.72-.719A.72.72,0,0,1,386.265,335.612Z" transform="translate(-322.277 -155.166)"/><path class="f" d="M393.455,335.612a.719.719,0,1,1-.72-.719A.72.72,0,0,1,393.455,335.612Z" transform="translate(-316.957 -155.166)"/><path class="f" d="M400.646,335.612a.72.72,0,1,1-.72-.719A.721.721,0,0,1,400.646,335.612Z" transform="translate(-311.637 -155.166)"/><path class="f" d="M407.834,335.612a.719.719,0,1,1-.719-.719A.719.719,0,0,1,407.834,335.612Z" transform="translate(-306.317 -155.166)"/><circle class="f" cx="0.72" cy="0.72" r="0.72" transform="translate(6.255 171.303)"/><path class="f" d="M361.1,330.771a.72.72,0,1,1-.72-.72A.72.72,0,0,1,361.1,330.771Z" transform="translate(-340.897 -158.748)"/><path class="f" d="M368.29,330.771a.719.719,0,1,1-.719-.72A.719.719,0,0,1,368.29,330.771Z" transform="translate(-335.577 -158.748)"/><path class="f" d="M375.48,330.771a.719.719,0,1,1-.719-.72A.719.719,0,0,1,375.48,330.771Z" transform="translate(-330.257 -158.748)"/><circle class="f" cx="0.72" cy="0.72" r="0.72" transform="translate(56.294 171.303)"/><circle class="f" cx="0.72" cy="0.72" r="0.72" transform="translate(68.804 171.303)"/><path class="f" d="M397.05,330.771a.719.719,0,1,1-.72-.72A.72.72,0,0,1,397.05,330.771Z" transform="translate(-314.297 -158.748)"/><path class="f" d="M404.239,330.771a.719.719,0,1,1-.719-.72A.719.719,0,0,1,404.239,330.771Z" transform="translate(-308.977 -158.748)"/><circle class="f" cx="0.72" cy="0.72" r="0.72" transform="translate(106.333 171.303)"/><path class="f" d="M418.619,330.771a.719.719,0,1,1-.719-.72A.719.719,0,0,1,418.619,330.771Z" transform="translate(-298.337 -158.748)"/><path class="f" d="M361.1,340.624a.708.708,0,0,1-.139.418l-1.253-.157a.638.638,0,0,1-.052-.261.722.722,0,1,1,1.444,0Z" transform="translate(-340.898 -151.466)"/><path class="f" d="M368.29,340.616a.719.719,0,1,1-.719-.719A.719.719,0,0,1,368.29,340.616Z" transform="translate(-335.577 -151.463)"/><path class="f" d="M375.48,340.616a.719.719,0,1,1-.719-.719A.719.719,0,0,1,375.48,340.616Z" transform="translate(-330.257 -151.463)"/><path class="f" d="M382.67,340.616a.719.719,0,1,1-.72-.719A.72.72,0,0,1,382.67,340.616Z" transform="translate(-324.937 -151.463)"/><path class="f" d="M389.661,340.154c-.4.07-.8.122-1.2.174a.7.7,0,0,1,.644-.435A.739.739,0,0,1,389.661,340.154Z" transform="translate(-319.588 -151.466)"/></g></g><g transform="translate(187.624)"><path class="g" d="M376.936,149.691c-12.62,10.821-9.107,26.6-14.379,35.157-3.222,5.234-13.721,10.761-15.807,16.794-3.429,9.909,4.971,13.467,3.092,18.852-2.66,7.631-12.877,7.038-14.718,19.52s11.894,25.761,44.492,29.36,50.507-8.339,51.674-18.929-9.676-14.116-10.414-22.026c-.471-5.055,6.224-8.573,6.563-17.874s-8.726-12.327-10.024-20.225c-1.3-7.936,2.883-27.1-8.726-36.9S383.163,144.351,376.936,149.691Z" transform="translate(-332.345 -145.823)"/><path class="g" d="M379.512,148.217a26.879,26.879,0,0,0-8.379,9.667,58.933,58.933,0,0,0-4.66,12.813,35.537,35.537,0,0,1-2.53,7.671,19.608,19.608,0,0,1-4.378,5.4c-3.525,3.189-7.734,5.613-10.9,9.2-3,3.393-5.333,7.934-4.136,12.561.651,2.514,2.311,4.567,3.341,6.916.976,2.224,1.369,4.988-.539,6.836-1.63,1.578-3.993,2.3-5.844,3.6a20.566,20.566,0,0,0-4.755,4.613,15.946,15.946,0,0,0-3,12.536c1.917,10.14,11.431,15.908,20.214,19.539,1.225.506,2.457,1,3.687,1.489.19.075.351-.2.158-.285-8.814-3.944-19.045-8.574-22.431-18.429a14.875,14.875,0,0,1,1.521-13.084,18.851,18.851,0,0,1,4.656-4.9c1.773-1.31,3.821-2.112,5.623-3.356a6,6,0,0,0,2.772-5.355c-.113-2.38-1.275-4.459-2.427-6.481-1.218-2.138-2.251-4.3-2.079-6.827a13.135,13.135,0,0,1,2.608-6.514c2.742-3.887,6.8-6.436,10.447-9.378,3.664-2.96,6.6-6.373,7.934-10.972.675-2.325,1.094-4.717,1.679-7.066a62.059,62.059,0,0,1,1.943-6.441,30.759,30.759,0,0,1,6.892-11.36,17.548,17.548,0,0,1,2.693-2.211C379.728,148.316,379.62,148.14,379.512,148.217Z" transform="translate(-333.458 -144.066)"/><path class="g" d="M400.177,237.407a12.22,12.22,0,0,0-2.257-4.745c-1.134-1.435-2.5-2.65-3.76-3.974a9.26,9.26,0,0,1-2.666-4.4c-.418-2.084.458-4.082,1.435-5.874a44.293,44.293,0,0,0,2.918-5.681,20.611,20.611,0,0,0,1.24-6.076,20.927,20.927,0,0,0-3.28-12.122c-1.112-1.82-2.363-3.551-3.487-5.362a26.135,26.135,0,0,1-2.89-6.332c-1.469-4.908-1.785-10.086-2.984-15.061a77.755,77.755,0,0,0-5.295-14.784c-.056-.118-.23-.01-.174.108a67.62,67.62,0,0,1,4.63,13.356c1.035,4.362,1.434,8.806,2.2,13.213a33.309,33.309,0,0,0,1.655,6.352,34.063,34.063,0,0,0,2.829,5.449c2.2,3.591,4.479,7.137,5.086,11.395a19.927,19.927,0,0,1-2.1,12.2c-1.714,3.24-4.113,6.812-2.615,10.608,1.267,3.21,4.331,5.136,6.365,7.8a12.877,12.877,0,0,1,2.206,10.3c-1.756,9.128-10.9,13.655-19.466,14.106a.209.209,0,0,0,.01.418c7.445-.089,15.544-3.361,19.036-10.332A15.772,15.772,0,0,0,400.177,237.407Z" transform="translate(-299.783 -140.554)"/></g><g transform="translate(143.942 59.095)"><path class="e" d="M423.062,189.06c-2.01,9.945-24.423,45.838-46.578,60.849-8.127,5.505-49.111,6.112-59.239,4.585-11.863-1.79-10.544-33.354-3.7-35.08,8.541-2.152,46.376.325,54.162-1.865,9.464-2.664,27.813-22.866,44.73-34.96C421.145,176.362,424.611,181.4,423.062,189.06Z" transform="translate(-308.352 -179.787)"/></g><g transform="translate(225.248 56.978)"><path class="a" d="M362.014,244.692l.531,37.824s70.617-5.081,86.424-8.94c0,0-25.05-69.531-47.117-89.15q-.754-.681-1.509-1.265c-.1-.1-.193-.162-.29-.242-10.135-7.962-20.263-3.964-25.8,3.743-3.158,4.4-18.791,30.322-19.165,40.488C354.783,236.116,362.014,244.692,362.014,244.692Z" transform="translate(-355.081 -178.571)"/></g><g transform="translate(0 81.648)"><path class="h" d="M375.371,351.663c-22.476,46.828-6.5,103.082-6.5,103.082l-63.713,9.547L280.873,302.225s-6.079-6.2-11.616-5.373c-6.368.954-10.2,11.891-22.29,13.7-6.2.929-18.977-1.95-21.086-16.033s9.258-20.582,15.459-21.511c12.086-1.811,18.96,7.522,25.328,6.566,5.536-.828,9.531-8.541,9.531-8.541l-8.018-53.5,63.683-9.542s7.713,3.995,8.543,9.53c.953,6.37-8.378,13.243-6.568,25.328.931,6.2,7.428,17.572,21.511,15.461s16.964-14.885,16.035-21.086c-1.811-12.086-12.748-15.922-13.7-22.29-.83-5.536,5.375-11.616,5.375-11.616l70.505-10.567C438.07,267.009,388.443,324.432,375.371,351.663Z" transform="translate(-225.623 -192.749)"/><path class="i" d="M375.371,351.663c-22.476,46.828-6.5,103.082-6.5,103.082l-63.713,9.547L280.873,302.225s-6.079-6.2-11.616-5.373c-6.368.954-10.2,11.891-22.29,13.7-6.2.929-18.977-1.95-21.086-16.033s9.258-20.582,15.459-21.511c12.086-1.811,18.96,7.522,25.328,6.566,5.536-.828,9.531-8.541,9.531-8.541l-8.018-53.5,63.683-9.542s7.713,3.995,8.543,9.53c.953,6.37-8.378,13.243-6.568,25.328.931,6.2,7.428,17.572,21.511,15.461s16.964-14.885,16.035-21.086c-1.811-12.086-12.748-15.922-13.7-22.29-.83-5.536,5.375-11.616,5.375-11.616l70.505-10.567C438.07,267.009,388.443,324.432,375.371,351.663Z" transform="translate(-225.623 -192.749)"/></g><g transform="translate(154.635 62.081)"><path class="e" d="M417.684,195.739c1.051,21.417,1.681,62.2-8.252,74.606-13.036,16.275-48.368,25.085-58.818,27.728-4.553,1.152-14-28.665-11.193-32.832s39.249-11.863,42.19-14.2,15.344-38.35,20.364-55.846C408.306,173.127,416.962,181.045,417.684,195.739Z" transform="translate(-296.434 -181.503)"/><g transform="translate(0 78.335)"><path class="e" d="M330.321,242.193c-5.761,1.143-14.29-2.117-14.737,2.229-.4,3.871,5.73,5.557,5.73,5.557s-7.518.332-6.763,4.619,7.849,4.76,7.849,4.76-6.9.673-5.838,4.9S324.2,269.3,324.2,269.3s-1.794,1.23.3,3.875c2.991,3.788,13.417,3.76,18.857,2.453s24.4-10.111,27.277-11.513l-8.084-35s-10.749-2.142-16.331-2.563-24.361,3.3-23.752,8.021,13.824,1.869,17.211,1.877,3.964.8,2.432,1.978C341.107,239.211,332.87,241.686,330.321,242.193Z" transform="translate(-314.497 -226.525)"/><g transform="translate(6.771 21.249)"><path class="j" d="M318.758,240.875c8.7,1.742,12.813,1,20.975-2.126.158-.061.285.162.125.242-7.713,3.786-12.733,5.462-21.206,2.3C318.238,241.137,318.344,240.791,318.758,240.875Z" transform="translate(-318.389 -238.738)"/><path class="j" d="M318.964,246.321c9.2,1.02,13.664.252,22.45-2.391.125-.038.2.169.078.217-8.4,3.315-13.45,4.872-22.506,2.646C318.576,246.693,318.544,246.274,318.964,246.321Z" transform="translate(-318.186 -234.9)"/><path class="j" d="M320.311,252.761c8.976.343,13.907-.287,22.109-3.948a.165.165,0,0,1,.151.292c-8,4.548-14.147,5.38-22.241,3.93C319.777,252.935,319.746,252.74,320.311,252.761Z" transform="translate(-317.27 -231.296)"/></g></g></g><g transform="translate(118.412 72.645)"><path class="e" d="M324.8,241.515c2.464-3.783-3.407-4.522-3.407-4.522s8.707-.973,9.738-5.857c.981-4.71-6.14-5.352-6.65-5.4.459-.056,8.435-1.161,8.968-6.175.548-5.211-6.713-4.628-7.182-4.588.419-.188,5.9-2.779,5.441-6.68-.8-6.7-15-.468-20.009-2.666l2.671-8.326c.04-.285.085-.581.111-.856l-4.193-1.561a57.573,57.573,0,0,1-6.137,6.627c-2.692,2.655-5.188,5.246-5.893,7.506a4.948,4.948,0,0,0,1.764,5.636s-4.6,1.338-5.141,5.274c-.273,2.02,2.716,4.256,2.716,4.256s-3.638,1.225-3.9,4.755c-.219,2.815,2.812,4.619,2.812,4.619s-2.946,2.8-2.236,5.747C295.684,245.256,319.512,249.615,324.8,241.515Z" transform="translate(-293.678 -182.168)"/><path class="e" d="M307.463,209.829l2.782-7.123c.04-.285.085-.581.111-.856.99-9.728-7.924-18.53-10.613-12.052-2.053,4.926,3.1,12.376.27,17.116l.014,0Z" transform="translate(-289.559 -187.575)"/><g transform="translate(3.173 32.364)"><path class="g" d="M295.589,217.316a.064.064,0,0,0-.047.118c7.487,3.346,16.738,4.727,24.811,3.036.264-.056.291-.51-.014-.5A86,86,0,0,1,295.589,217.316Z" transform="translate(-295.502 -197.935)"/><path class="g" d="M295.895,211.737c-.092-.026-.134.125-.042.167,7.734,3.405,18.2,4.673,27.273,1.629.311-.106.485-.512.118-.418C317.056,214.683,303.448,213.8,295.895,211.737Z" transform="translate(-295.281 -202.063)"/><path class="g" d="M324.039,206.183c-8.816,2.584-17.573,2.083-26.494.273-.117-.023-.138.144-.045.19,4.122,2.074,9.928,2.634,14.483,2.686a24.218,24.218,0,0,0,12.146-2.841C324.279,206.411,324.228,206.127,324.039,206.183Z" transform="translate(-294.067 -206.176)"/></g></g><g transform="translate(225.261 0.622)"><path class="e" d="M367.365,184.93s-2.786,7.868.579,8.51,11.475-2.94,21.34-12.213C389.285,181.228,379.226,173.189,367.365,184.93Z" transform="translate(-346.806 -122.235)"/><g transform="translate(18.19 35.288)"><path class="e" d="M383.671,190.61c-.351,1.4-7.2,10.42-13.627,10.017-2.091-.134-1.863-11.581-1.863-11.581L368,188.2l-2.46-11.884,14.052-8.7,2.029-1.15s.458,3.3.988,7.4c.026.191.05.381.075.586.037.231.073.449.1.668.087.612.174,1.239.245,1.863.059.477.117.938.158,1.441s.1.99.153,1.493A77.892,77.892,0,0,1,383.671,190.61Z" transform="translate(-365.543 -166.462)"/><path class="g" d="M382.612,173.865A24.348,24.348,0,0,1,368,188.2l-2.46-11.884,14.052-8.7,2.029-1.15S382.081,169.757,382.612,173.865Z" transform="translate(-365.543 -166.462)"/></g><path class="e" d="M356.566,171.462c-2.267,21.177,10.159,24.926,14.727,25.41,4.144.438,18.318,1.409,22.762-19.419s-4.686-28.577-14.113-30.083S358.835,150.285,356.566,171.462Z" transform="translate(-354.198 -145.5)"/><g transform="translate(4.499 20.567)"><path class="g" d="M359.269,160.259a14.083,14.083,0,0,0,1.449-.251,2.378,2.378,0,0,0,1.428-.538.757.757,0,0,0,.033-.924,1.878,1.878,0,0,0-1.834-.506,2.757,2.757,0,0,0-1.768.912A.809.809,0,0,0,359.269,160.259Z" transform="translate(-357.147 -158.001)"/><path class="g" d="M368.118,161.028a13.918,13.918,0,0,1-1.428-.357,2.378,2.378,0,0,1-1.385-.64.755.755,0,0,1,.035-.924,1.877,1.877,0,0,1,1.867-.372,2.764,2.764,0,0,1,1.695,1.04A.807.807,0,0,1,368.118,161.028Z" transform="translate(-352.133 -157.521)"/><g transform="translate(12.78 7.339)"><path class="g" d="M365.191,163.048c.014-.054.108.075.1.136-.132,1.444-.042,3.12,1.239,3.68.04.017.031.09-.017.08C364.932,166.622,364.832,164.4,365.191,163.048Z" transform="translate(-365.02 -161.615)"/><path class="g" d="M366.55,162.219c2.338-.037,2.239,4.644.073,4.677C364.492,166.929,364.589,162.25,366.55,162.219Z" transform="translate(-364.995 -162.219)"/><path class="g" d="M366.557,162.409c.4.273.793.75,1.286.809.569.068,1.009-.412,1.392-.877.04-.047.08-.005.08.056-.007.9-.371,1.81-1.335,1.924-.88.1-1.493-.7-1.7-1.611C366.244,162.543,366.4,162.3,366.557,162.409Z" transform="translate(-364.089 -162.143)"/></g><g transform="translate(0 6.344)"><g transform="translate(1.558 0.116)"><path class="g" d="M361.094,162.605c-.01-.056-.113.066-.113.125.028,1.451-.186,3.116-1.505,3.581-.04.014-.037.087.012.082C361.09,166.188,361.353,163.974,361.094,162.605Z" transform="translate(-357.92 -161.065)"/><path class="g" d="M360.47,161.721c-2.33-.207-2.575,4.466-.418,4.66C362.177,166.57,362.422,161.9,360.47,161.721Z" transform="translate(-358.57 -161.714)"/></g><path class="g" d="M360.141,162.028c-.381.228-.771.658-1.213.665-.513.007-.865-.519-1.167-1.021-.031-.05-.07-.014-.075.047-.071.893.176,1.839,1.025,2.055.774.2,1.39-.538,1.649-1.416C360.409,162.193,360.3,161.936,360.141,162.028Z" transform="translate(-357.674 -161.647)"/></g><path class="g" d="M366.288,169.4c-.3.383-.579.893-1.094,1.006a3.815,3.815,0,0,1-1.594-.153.051.051,0,0,0-.052.083,1.955,1.955,0,0,0,1.93.534,1.542,1.542,0,0,0,.957-1.425C366.446,169.361,366.332,169.345,366.288,169.4Z" transform="translate(-353.338 -149.59)"/><g transform="translate(4.523 0.422)"><path class="g" d="M362.717,172.343s-.371,2.154-.405,3.175c0,.1.244.15.59.181.016.005.026.012.04,0a4.849,4.849,0,0,0,4.773-1.658c.075-.1-.052-.205-.146-.146a7.312,7.312,0,0,1-4.475,1.124c-.063-.284.759-3.668.6-3.685a8.877,8.877,0,0,0-2.337.449c.642-4.512,2-8.882,2.572-13.383a.139.139,0,0,0-.264-.075c-1.749,4.48-2.6,9.655-3.382,14.3C360.175,173.2,362.3,172.5,362.717,172.343Z" transform="translate(-360.274 -158.244)"/></g><g transform="translate(7.325 16.139)"><path class="g" d="M361.884,168.624a5.915,5.915,0,0,0,2.185,2.044,2.658,2.658,0,0,0,1.6.249c1.19-.2,1.319-1.261,1.19-2.194a6.413,6.413,0,0,0-.392-1.446A7.647,7.647,0,0,1,361.884,168.624Z" transform="translate(-361.884 -167.277)"/><path class="k" d="M363.14,170.053a2.658,2.658,0,0,0,1.6.249c1.19-.2,1.319-1.262,1.19-2.194A2.745,2.745,0,0,0,363.14,170.053Z" transform="translate(-360.955 -166.662)"/></g></g><path class="g" d="M391.415,178.227c-4.844-.331-4.216-7.962-4.216-7.962s-5.453-.924-5.169-9.818c0,0-3.057,5.145-10.586,5.658-1.592.11,4.005-3.565,4.005-3.565s-6.774,5.239-18.351,2.154c-.818-.219,1.1-13.742,10.638-17.255s18.48.8,23.731,7.054c0,0,6.513,3.637,6.775,10.09S393.3,178.356,391.415,178.227Z" transform="translate(-353.728 -146.181)"/><g transform="translate(0 22.005)"><path class="b" d="M368.112,173.391a6.882,6.882,0,0,1-5.018-8.32h0a6.87,6.87,0,1,1,6.714,8.522A6.949,6.949,0,0,1,368.112,173.391Zm-4.127-8.1a5.954,5.954,0,1,0,5.738-4.522A5.961,5.961,0,0,0,363.984,165.292Z" transform="translate(-349.315 -158.071)"/><path class="b" d="M359.47,172.509c-2.8-.31-4.741-3.626-4.325-7.391a8.21,8.21,0,0,1,1.97-4.614,4.279,4.279,0,0,1,7.282.807,8.186,8.186,0,0,1,.915,4.933c-.395,3.563-2.761,6.271-5.39,6.29A3.93,3.93,0,0,1,359.47,172.509Zm-1.676-11.386a7.278,7.278,0,0,0-1.738,4.1c-.36,3.261,1.216,6.121,3.516,6.375s4.465-2.191,4.827-5.453a7.307,7.307,0,0,0-.8-4.378,3.663,3.663,0,0,0-2.718-2,2.913,2.913,0,0,0-.348-.017A3.777,3.777,0,0,0,357.795,161.123Z" transform="translate(-355.089 -158.828)"/><path class="b" d="M364.964,164.243l.663-.635c-.94-.983-3.2-2.418-5.068-.818l.6.7C362.823,162.051,364.876,164.155,364.964,164.243Z" transform="translate(-351.042 -156.427)"/><path class="b" d="M387.9,168.62l.858-.331c-.155-.4-1.559-3.922-3.562-4.479-1.872-.515-14.236-.722-14.761-.729l-.014.917c3.546.056,13.084.3,14.528.7C386.269,165.064,387.525,167.653,387.9,168.62Z" transform="translate(-343.746 -155.68)"/></g><g transform="translate(33.553 28.097)"><path class="e" d="M375.669,167.451s4.781-6.553,7.763-4.835-.706,11.282-4.273,12.527a3.6,3.6,0,0,1-4.787-2.032Z" transform="translate(-374.373 -162.329)"/><path class="g" d="M381.48,164.055c.057-.005.066.075.017.094-2.5.955-3.857,3.231-4.82,5.6a1.986,1.986,0,0,1,2.984-.482c.064.047,0,.146-.07.13a2.216,2.216,0,0,0-2.453.724,10.718,10.718,0,0,0-1.207,1.949c-.12.219-.518.092-.428-.162l.021-.057C375.526,168.683,378.075,164.3,381.48,164.055Z" transform="translate(-373.546 -161.052)"/></g></g></g><g transform="translate(40.601 96.932)"><g transform="translate(136.417 84.246)"><path class="e" d="M123.4,213.215c7.309,7.924,35.662,28.749,52.328,25.238,14.936-3.146,39.665-70.33,42-90.393.821-7.052-28.474,1.4-33.267,5.679-4.122,3.675-19.264,52.577-21.457,52.781-3.7.343-14.119-2.462-30.87-6.6C116.385,196.024,118.254,207.633,123.4,213.215Z" transform="translate(-118.481 -145.351)"/><g transform="translate(0 19.887)"><path class="a" d="M176.6,157.948l40.034-1.167S197.737,225.851,176.5,231.4c-4.889,1.277-31.9-4.162-51.519-23.8-6.076-6.078-13.119-21.467,10.045-16.178s27.62,5.655,28.234,5.274S176.6,157.948,176.6,157.948Z" transform="translate(-119.005 -156.781)"/><path class="g" d="M189.253,161.236c-3.141-.235-6.337-.028-9.483.05q-4.651.117-9.3.3c-6.255.238-12.562.329-18.791.976a.116.116,0,0,0,0,.231c6.3.379,12.67.106,18.976-.1q4.742-.151,9.483-.435a82.057,82.057,0,0,0,9.149-.785C189.427,161.45,189.382,161.245,189.253,161.236Z" transform="translate(-94.912 -153.565)"/></g></g><g transform="translate(0 222.806)"><g transform="translate(0 0.001)"><g transform="translate(0 211.4)"><path class="l" d="M77.268,346.487S52.1,398.961,52.08,399c-4.867,10.01-8.954,18.873-10.641,23.654a.2.2,0,0,0-.026.078c-.637,1.8-.927,3.012-.764,3.45a.3.3,0,0,0,.028.092c2,3.466,80.856,44.685,84.091,45.2,3.24.529,4.947-8.665,3.163-12.707C126.123,454.707,103,425.429,103,425.429l24.662-52.69Z" transform="translate(-40.598 -346.487)"/><path class="f" d="M57.231,370.475s-5.148,10.737-5.168,10.772C47.2,391.257,43.11,400.12,41.422,404.9a.2.2,0,0,0-.026.078,15.146,15.146,0,0,0-.764,3.45.3.3,0,0,0,.028.092c2,3.466,80.856,44.685,84.091,45.2,3.24.529,4.947-8.665,3.163-12.707-1.808-4.054-24.931-33.332-24.931-33.332l5.4-10.862Z" transform="translate(-40.581 -328.738)"/><g transform="translate(0 52.072)"><g transform="translate(49.474 24.807)"><path class="g" d="M86.843,395.162c-4.891-3.483-11.819-5.7-17.681-3.783-.226.075-.118.4.082.421a83.035,83.035,0,0,1,17.264,4.028A.377.377,0,0,0,86.843,395.162Z" transform="translate(-69.035 -390.673)"/><path class="g" d="M88.443,397.532c-4.891-3.483-11.819-5.7-17.681-3.783-.226.073-.117.4.082.421A83.036,83.036,0,0,1,88.107,398.2.377.377,0,0,0,88.443,397.532Z" transform="translate(-67.851 -388.92)"/><path class="g" d="M90.043,399.9c-4.891-3.483-11.819-5.7-17.679-3.783-.228.075-.12.395.08.421a83.016,83.016,0,0,1,17.264,4.028A.377.377,0,0,0,90.043,399.9Z" transform="translate(-66.667 -387.167)"/></g><path class="a" d="M124.77,449.325c-3.24-.51-82.091-41.725-84.092-45.2-.785-1.308,4.552-13.147,11.409-27.268l.219-.44,51.168,26.022-.47.853s23.125,29.276,24.926,33.332C129.711,440.655,128,449.85,124.77,449.325Z" transform="translate(-40.601 -376.415)"/><path class="g" d="M123.556,433.978C110.434,426.705,56.825,398.6,43.3,392.411c-.111-.05-.15.023-.044.084,12.848,7.494,66.683,35.159,80.184,41.7C123.727,434.335,123.833,434.133,123.556,433.978Z" transform="translate(-38.681 -364.592)"/></g></g><g transform="translate(11.078)"><path class="d" d="M104.894,510.954c.605-.306,38.675-77.785,50.821-110.5,12.181-32.813,27.1-102.471,30.007-116.759,0,0,9.74-31.823,12.237-58.705,0-.049-68.838,1.334-68.838,1.334s-10.93,27.976-7.6,66.51c.207,2.385-18.729,82.118-24.315,92.78-8.566,16.345-49.115,95.633-50.24,96.237Z" transform="translate(-46.968 -224.987)"/><g transform="translate(8.234 21.432)"><path d="M150.85,237.575c-3.323,15.678-6.158,31.47-9.173,47.211q-4.544,23.729-9.089,47.462c-1.495,7.8-2.934,15.611-4.5,23.395a139.942,139.942,0,0,1-6.29,22.579c-2.773,7.229-5.992,14.294-9.154,21.358q-4.768,10.661-9.683,21.253c-6.6,14.186-19.059,39.15-26.048,53.146q-1.292,2.586-2.6,5.168a.116.116,0,0,0,.205.108c7.384-13.784,20.214-38.56,27.009-52.645,6.782-14.055,13.465-28.2,19.506-42.592a131.624,131.624,0,0,0,7.128-21.994c1.736-7.675,3.062-15.447,4.515-23.179q4.486-23.862,8.971-47.726c2.975-15.835,5.963-31.667,8.863-47.514.358-1.956.71-3.91,1.039-5.869C151.625,237.284,150.948,237.121,150.85,237.575Z" transform="translate(-34.979 -237.305)"/><path d="M103.579,393.341c-1.608-1.035-16.642-8.863-20.028-10.584q-10.032-5.1-20.119-10.1c-3.823-1.886-7.684-3.659-11.579-5.383a.106.106,0,0,0-.1.19c6.56,3.755,13.262,7.217,19.992,10.659,6.681,3.417,29.661,14.807,31.654,15.569A.2.2,0,0,0,103.579,393.341Z" transform="translate(-51.7 -141.145)"/></g><path d="M159.366,224.99c-2.505,26.882-12.232,58.705-12.232,58.705-2.036,9.987-9.935,47.048-18.687,79.654L99.13,226.139C117.608,225.773,159.366,224.956,159.366,224.99Z" transform="translate(-8.372 -224.986)"/></g></g><g transform="translate(94.932)"><g transform="translate(43.27 248.397)"><path class="l" d="M120.031,367.75s1.627,58.176,1.627,58.216c.252,11.127.673,20.877,1.361,25.9a.184.184,0,0,0,.012.08c.257,1.9.553,3.1.9,3.419.026.028.04.056.066.068,3.363,2.168,92.343,2.742,95.452,1.717s.433-9.968-3-12.745c-3.462-2.779-37.419-18.234-37.419-18.234l-2.177-58.134Z" transform="translate(-120.031 -367.75)"/><path class="f" d="M120.775,394.345s.332,11.9.332,11.943c.252,11.127.673,20.877,1.361,25.9a.184.184,0,0,0,.012.08,15.146,15.146,0,0,0,.9,3.419c.026.028.04.056.066.068,3.363,2.168,92.343,2.742,95.452,1.717s.433-9.968-3-12.745c-3.462-2.779-37.419-18.234-37.419-18.234l-.172-12.126Z" transform="translate(-119.48 -348.072)"/><g transform="translate(1.625 57.454)"><g transform="translate(45.315 0.636)"><path class="g" d="M164.518,401.4c-5.942-.859-13.119.339-17.453,4.726-.167.169.077.405.264.338a82.836,82.836,0,0,1,17.2-4.317A.378.378,0,0,0,164.518,401.4Z" transform="translate(-147.009 -401.137)"/><path class="g" d="M167.023,402.77c-5.942-.86-13.117.341-17.451,4.726-.169.17.077.405.264.338a83.061,83.061,0,0,1,17.194-4.317A.378.378,0,0,0,167.023,402.77Z" transform="translate(-145.154 -400.12)"/><path class="g" d="M169.531,404.146c-5.942-.861-13.117.339-17.453,4.726-.167.169.077.405.266.338a82.9,82.9,0,0,1,17.194-4.318A.377.377,0,0,0,169.531,404.146Z" transform="translate(-143.3 -399.103)"/></g><path class="a" d="M218.759,432.721c-3.114,1.028-92.087.456-95.458-1.719-1.295-.806-1.968-13.775-2.33-29.467l-.007-.492,57.405-.271-.03.974s33.958,15.45,37.415,18.233C219.185,422.75,221.874,431.707,218.759,432.721Z" transform="translate(-120.965 -400.771)"/><path class="g" d="M215.079,417.4c-15-.465-75.521-.924-90.38-.245-.122.007-.122.089,0,.094,14.852.786,75.381.755,90.379.4C215.394,417.635,215.4,417.407,215.079,417.4Z" transform="translate(-118.27 -388.903)"/></g></g><path class="d" d="M124.273,287.44c.014.04,11.684,96.042,11.887,98.313.085.889-1.084,140.668-1.084,140.668l64.395.539s-3.034-131.589-4.282-145.164c-.151-1.578-8.011-101.791-27.975-156.809l-72.052,1.406s1.261,32.53,16.521,55.775A121.884,121.884,0,0,1,124.273,287.44Z" transform="translate(-95.162 -224.987)"/><g transform="translate(16.342 6.987)"><path d="M154.831,392.711c-.628-17.791-1.707-35.559-3.45-53.278q-2.589-26.308-7.454-52.3A430.125,430.125,0,0,0,131.472,235.5c-.672-2.119-1.345-4.237-2.05-6.344a.231.231,0,0,0-.44.141c4.922,16.961,9.223,34.078,12.562,51.42,3.355,17.429,5.669,35.032,7.508,52.678,1.846,17.692,3.038,35.454,3.83,53.223.79,17.746,2.453,96.846,2.749,114.588.038,2.222.063,4.442.047,6.666,0,.157.24.144.244-.01.141-8.912.508-17.82.628-26.734S155.462,410.558,154.831,392.711Z" transform="translate(-86.487 -229.002)"/><path d="M127.03,267.364c-3.579-1.862-7.242-3.532-10.984-5.044-3.758-1.519-7.579-2.881-11.313-4.465-.143-.059-.256.146-.113.216,3.671,1.806,7.283,3.751,11,5.456a87.016,87.016,0,0,0,11.256,4.244C127.121,267.844,127.248,267.477,127.03,267.364Z" transform="translate(-104.554 -207.661)"/><path d="M117.98,303.344c-1.074-9.062-2.227-18.107-3.52-27.139-.365-2.549-.75-5.093-1.138-7.638a58.951,58.951,0,0,0-1.348-7.29.116.116,0,0,0-.226.04,58.553,58.553,0,0,0,.6,6.927c.258,2.185.5,4.372.757,6.556.524,4.494,1.013,8.992,1.555,13.483,1.089,8.992,2.062,18,3.161,26.984.625,5.119,1.2,10.231,2.036,15.318.061.371.616.371.6-.028C120.1,321.467,119.051,312.375,117.98,303.344Z" transform="translate(-99.231 -205.181)"/><path d="M178.195,391.453c-1.9-.2-18.85-.461-22.647-.482-7.5-.04-15.007-.056-22.511-.007-4.261.028-8.51.174-12.764.379a.107.107,0,0,0,0,.214c7.546.416,15.089.5,22.649.564,7.5.059,33.151-.063,35.274-.275A.2.2,0,0,0,178.195,391.453Z" transform="translate(-93 -109.186)"/></g></g></g><g transform="translate(196.77)"><path class="h" d="M374.788,182.1c0,14.24-12.206,18.981-18.476,18.981-12.221,0-17.636-10.248-24.075-10.248-5.6,0-10.692,7.036-10.692,7.036v70.712H262.213s-7.036-5.095-7.036-10.692c0-6.439,10.248-11.854,10.248-24.075,0-6.271-4.741-18.476-18.981-18.476s-18.983,12.206-18.983,18.476c0,12.221,10.248,17.636,10.248,24.075,0,5.6-7.036,10.692-7.036,10.692H154.318q-.619-6.77-.626-13.843c0-81.816,73.587-157.8,167.852-157.8v69.4s5.095,7.036,10.692,7.036c6.439,0,11.854-10.248,24.075-10.248C362.582,163.115,374.788,167.857,374.788,182.1Z" transform="translate(-153.692 -96.932)"/><path class="i" d="M374.788,182.1c0,14.24-12.206,18.981-18.476,18.981-12.221,0-17.636-10.248-24.075-10.248-5.6,0-10.692,7.036-10.692,7.036v70.712H262.213s-7.036-5.095-7.036-10.692c0-6.439,10.248-11.854,10.248-24.075,0-6.271-4.741-18.476-18.981-18.476s-18.983,12.206-18.983,18.476c0,12.221,10.248,17.636,10.248,24.075,0,5.6-7.036,10.692-7.036,10.692H154.318q-.619-6.77-.626-13.843c0-81.816,73.587-157.8,167.852-157.8v69.4s5.095,7.036,10.692,7.036c6.439,0,11.854-10.248,24.075-10.248C362.582,163.115,374.788,167.857,374.788,182.1Z" transform="translate(-153.692 -96.932)"/></g><g transform="translate(83.246 72.425)"><g transform="translate(27.288)"><g transform="translate(12.711 48.162)"><path class="e" d="M130.006,197.341c-3.81.825-13.009-4.992-17.15-10.511-.282-.379-.277-4.8-.524-10.17-.162-3.257-.419-6.881-.894-10.173-.1-.675,2.378.235,2.378.235l4.405.416,14.575,1.39a53,53,0,0,0-.174,12.921,7.5,7.5,0,0,0,.338,1.329c.016.063.044.134.061.221C133.809,185.5,135.972,196.048,130.006,197.341Z" transform="translate(-111.434 -166.238)"/><path class="g" d="M132.424,182.4c.016.063.043.134.061.221a13.155,13.155,0,0,1-2.1.418c-13.94,1.691-18.222-15.725-18.222-15.725l5.526-.553,14.575,1.39a53,53,0,0,0-.174,12.921A7.5,7.5,0,0,0,132.424,182.4Z" transform="translate(-110.898 -165.855)"/></g><path class="m" d="M115.306,172.687l0-.007" transform="translate(-95.86 -113.309)"/><g transform="translate(7.792 8.22)"><path class="e" d="M109.141,155.639c-2.091,7.44,2.283,28.705,7.644,33.349,7.774,6.734,20.265,7.118,25.927-2.171,5.488-9.006-.7-36.618-6.669-40.813C127.252,139.822,112.233,144.648,109.141,155.639Z" transform="translate(-108.607 -143.281)"/></g><g transform="translate(25.213 23.727)"><g transform="translate(2.445 7.59)"><path class="g" d="M122.02,157.242c-.024-.05-.094.1-.078.153.395,1.409.609,3.088-.559,3.877-.037.024-.014.1.031.077C122.928,160.741,122.62,158.514,122.02,157.242Z" transform="translate(-119.034 -156.057)"/><path class="g" d="M121.377,156.573c-2.326.388-1.376,5.013.779,4.653C124.277,160.871,123.327,156.246,121.377,156.573Z" transform="translate(-120.025 -156.557)"/></g><g transform="translate(13.001 5.058)"><path class="g" d="M126.092,156.155c0-.057.125.044.136.1.249,1.442.776,3.052,2.17,3.261.043.007.054.08.005.083C126.776,159.7,126.1,157.561,126.092,156.155Z" transform="translate(-126.091 -154.334)"/><path class="g" d="M127.065,155.164c2.267-.647,3.4,3.936,1.294,4.536C126.292,160.289,125.163,155.706,127.065,155.164Z" transform="translate(-126.092 -155.101)"/></g><path class="g" d="M120.158,157.154a18.031,18.031,0,0,0,1.662-1c.633-.39,1.178-.635,1.5-1.341a1,1,0,0,0-.4-1.15,2.471,2.471,0,0,0-2.5.251,3.637,3.637,0,0,0-1.736,1.963A1.065,1.065,0,0,0,120.158,157.154Z" transform="translate(-118.62 -151.288)"/><path class="g" d="M129.15,154.929a17.921,17.921,0,0,1-1.935-.1,3.136,3.136,0,0,1-1.956-.478,1,1,0,0,1-.188-1.2,2.473,2.473,0,0,1,2.319-.952,3.628,3.628,0,0,1,2.455.915A1.064,1.064,0,0,1,129.15,154.929Z" transform="translate(-113.937 -152.194)"/><path class="g" d="M122.121,165.152c.412.264.849.656,1.378.593a3.864,3.864,0,0,0,1.467-.677.051.051,0,0,1,.077.061,1.966,1.966,0,0,1-1.658,1.15A1.553,1.553,0,0,1,122,165.244C121.959,165.166,122.062,165.114,122.121,165.152Z" transform="translate(-116.126 -142.674)"/><g transform="translate(6.573 1.049)"><path class="g" d="M122.446,169.627a4.971,4.971,0,0,0,3.7,1.5,6.242,6.242,0,0,0,1.771-.278,1.847,1.847,0,0,0,.327-.108c.1-.035.193-.066.3-.113a.365.365,0,0,0,.221-.379l0-.01a.625.625,0,0,0-.044-.144l0-.01-.028-.125c-.2-1.108-.649-2.763-.649-2.763.445.118,2.69.621,2.539.05-1.263-4.71-2.669-9.951-4.922-14.372a.136.136,0,0,0-.254.09c1.035,4.576,2.869,8.94,3.983,13.519a8.687,8.687,0,0,0-2.446-.226c-.146.078.931,3.184.978,3.689a.17.17,0,0,1,0,.054c-1.8.618-3.316.344-5.369-.529C122.43,169.411,122.336,169.531,122.446,169.627Z" transform="translate(-122.397 -152.797)"/></g><g transform="translate(6.392 17.839)"><path class="g" d="M127.229,163.284a5.911,5.911,0,0,1-1.949,2.271,2.653,2.653,0,0,1-1.561.423c-1.206-.064-1.449-1.108-1.425-2.05a6.366,6.366,0,0,1,.231-1.481A7.643,7.643,0,0,0,127.229,163.284Z" transform="translate(-122.293 -162.447)"/><path class="k" d="M125.28,164.932a2.653,2.653,0,0,1-1.561.423c-1.206-.064-1.449-1.108-1.425-2.05A2.747,2.747,0,0,1,125.28,164.932Z" transform="translate(-122.293 -161.824)"/></g></g><path class="g" d="M115.538,175.5c3.583-.858,1.662-9.643,1.662-9.643s5.347-1.973,6.7-10.029c0,0,7.9,3.2,13.664,1.058,9.039-3.355,6.631-15.445,2.7-17.3-5.575-2.626-13.495,4.045-13.495,4.045s-14.015-1.35-16.387,8.388a6.958,6.958,0,0,0-5.152,7.971C105.989,166.642,112.869,176.139,115.538,175.5Z" transform="translate(-103.362 -138.247)"/><path class="g" d="M111.479,161.013a12.5,12.5,0,0,0,6.3-5.053,9.351,9.351,0,0,0,.675-8.55c-.071-.143.169-.245.23-.1,1.211,2.968,1.592,6.172.091,9.124a8.707,8.707,0,0,1-7.228,4.837C111.4,161.281,111.326,161.072,111.479,161.013Z" transform="translate(-98.753 -132.132)"/><path class="g" d="M104.839,150.554c1.423-2.657,4.169-3.522,6.961-3.917.158-.023.19.238.03.247-2.787.172-5.215,2.485-6.241,4.974-1.006,2.439-.2,5.143.793,7.463a19.727,19.727,0,0,0,9.8,10.182.062.062,0,0,1-.049.115,19.7,19.7,0,0,1-10.939-11.111C104.265,156.047,103.527,153.006,104.839,150.554Z" transform="translate(-104.129 -132.579)"/><path class="g" d="M117.423,144.448a9.262,9.262,0,0,1,4.432-4.842,11.082,11.082,0,0,1,7.889-.586,6.255,6.255,0,0,1,4.165,4.673,11.065,11.065,0,0,1-1.221,7.327.055.055,0,0,1-.1-.045,11.038,11.038,0,0,0,.8-6.6,5.76,5.76,0,0,0-4.23-4.425c-4.132-1.023-9.69.252-11.506,4.6A.123.123,0,0,1,117.423,144.448Z" transform="translate(-94.301 -138.557)"/><g transform="translate(4.023 32.71)"><path class="e" d="M115.692,162.525s-5.115-6.7-8.174-4.844.992,11.7,4.726,12.915a3.743,3.743,0,0,0,4.924-2.222Z" transform="translate(-106.441 -157.357)"/><path class="g" d="M107.788,159.149c-.059,0-.066.08-.014.1,2.62.934,4.078,3.268,5.133,5.705a2.066,2.066,0,0,0-3.111-.433c-.066.05,0,.153.075.134a2.3,2.3,0,0,1,2.565.7,11.064,11.064,0,0,1,1.3,2c.131.226.541.085.444-.177l-.024-.057C114.079,163.821,111.33,159.33,107.788,159.149Z" transform="translate(-105.48 -156.031)"/></g></g><g transform="translate(0 62.712)"><path class="a" d="M88.537,293.715c.216.24,92.574.211,93.411-.739,1.171-1.34-14.6-92-29.674-111.886-3.769-4.973-17.436-9.053-23.4-4.539-11.611,8.781-18.579,27.67-22.5,37.937-2.9,7.605-6.34,20.554-9.406,33.821C91.89,270.167,87.773,292.85,88.537,293.715Z" transform="translate(-88.445 -174.6)"/></g><g transform="translate(44.389 52.618)"><path class="e" d="M117.191,191.352c7.858,10.217,42.837,46.439,59.756,44.483,20.5-2.37,44.975-12.536,54.877-20.43,5.55-4.423-17.436-31.265-22.918-27.915-8.647,5.282-26.518,10.935-30.076,12.009s-33.368-13.914-49.811-21.284C114.209,171.575,112.562,185.332,117.191,191.352Z" transform="translate(-113.26 -163.141)"/><g transform="translate(95.04)"><path class="e" d="M186.466,223.093c16.808-9.216,28.075-27.259,29.307-30.713,1.058-2.937,1.575-4.463,1.575-4.463,2-5.232.472-8.183.472-8.183s4.094-5.369,1.26-8.383c-3.17-3.389-8.3,4.816-13.881,7.6-12.787,6.386-32.747,11.885-36.618,13.361Z" transform="translate(-168.58 -167.507)"/><path class="g" d="M184.665,191.168a92.155,92.155,0,0,0,10.878-6.225,92.5,92.5,0,0,0,10.281-9.1.111.111,0,0,1,.165.148,48.722,48.722,0,0,1-21.17,15.506C184.628,191.567,184.477,191.266,184.665,191.168Z" transform="translate(-156.742 -163.613)"/><path class="g" d="M186.24,195.995c3.52-2.1,9.681-5.837,18.012-15.511.028-.033.09,0,.064.042a43.7,43.7,0,0,1-17.853,15.818C186.231,196.456,186.007,196.136,186.24,195.995Z" transform="translate(-155.586 -160.162)"/><path class="e" d="M189.3,186.964c-1.994.172-2.1-.873.5-3.306,2.624-2.465,14.948-9.851,12-13.94-2.956-4.108-20.223,6.631-24.241,11.012s-8.978,12.875-8.978,12.875C172.361,192.193,181.854,189.64,189.3,186.964Z" transform="translate(-168.58 -168.799)"/></g><g transform="translate(0 12.579)"><path class="a" d="M202.027,189.631l22.057,34.684s-33.906,15.433-49.367,13.272-40.585-26-53.176-40.394-10.975-29.213,16.077-16.08,39.71,17.681,41.395,17.648S202.027,189.631,202.027,189.631Z" transform="translate(-113.957 -176.028)"/><path class="g" d="M147.233,214.955c-1.538-1.375-6.8-5.9-8.016-7q-3.716-3.343-7.381-6.746c-4.914-4.59-9.749-9.295-14.955-13.554a.064.064,0,0,0-.087.094c2.786,3.294,5.785,6.413,8.888,9.427l-.632-.338a61.4,61.4,0,0,1-5.364-3.021c-.124-.082-.235.127-.108.205,1.728,1.067,3.344,2.309,5.041,3.424.821.541,1.639,1.075,2.5,1.549.324.177.677.371,1.037.552.978.915,1.956,1.827,2.947,2.721,2.521,2.274,5.075,4.5,7.73,6.624,1.289,1.027,6.96,5.237,8.268,6.246C147.232,215.242,147.36,215.068,147.233,214.955Z" transform="translate(-111.87 -167.436)"/><path class="g" d="M181.218,218.386c-1.375-2.833-3.16-5.491-4.809-8.171q-2.435-3.964-4.927-7.9c-3.351-5.288-6.6-10.7-10.286-15.755a.116.116,0,0,0-.2.117c2.84,5.637,6.276,11.007,9.617,16.357q2.516,4.024,5.141,7.981a82.36,82.36,0,0,0,5.274,7.515C181.121,218.645,181.274,218.5,181.218,218.386Z" transform="translate(-79.163 -168.271)"/><path class="g" d="M194.621,188.359c-3.459,1.152-17.025,6.921-20.488,8.063a7.536,7.536,0,0,1-4.755.08c-1.724-.524-41.763-17.611-45.05-19.1-.136-.063-.244.146-.108.2,3.426,1.446,37.163,17.107,40.674,18.537a34.09,34.09,0,0,0,4.833,1.778,6.885,6.885,0,0,0,4.562-.491c3.409-1.5,16.874-7.052,20.218-8.687,0,0,.646,1,.941,1.413.118.16.054-.083.05-.1A11.589,11.589,0,0,0,194.621,188.359Z" transform="translate(-106.409 -175.022)"/><path class="g" d="M192.759,204.877s-5.881,2.888-8.769,4.176q-4.332,1.905-8.821,3.515c-2.975,1.061-5.985,2.071-9.065,2.836a59.734,59.734,0,0,1-8.86,1.811c-.371.033-.741,0-.5-.176a86.018,86.018,0,0,0,9.1-2.558c2.975-.992,5.951-2.036,8.891-3.132l8.839-3.323,8.647-3.323c-.418-.748-.793-1.42-1.211-2.185-.05-.1-.014-.2.1-.047C191.475,202.955,192.759,204.877,192.759,204.877Z" transform="translate(-82.356 -156.521)"/></g></g></g><g transform="translate(192.241 50.975)"><path class="e" d="M158.529,172.085c.626-6.046-1.434-15.283.438-19.395a5.18,5.18,0,0,1,5.3-3.181s-2.662-4.232-.348-7.684c1.19-1.777,5.074-1.434,5.074-1.434s-1.985-3.485.261-6.427c1.79-2.344,5.413-1.651,5.413-1.651s-.346-4.231,2.243-6.034c5.251-3.657,26.88,9.5,25.373,19.5-.7,4.661-5.811,1.159-5.811,1.159s6.13,6.81,3.53,11.339-8.962-.423-8.962-.423,5.883,6.652,2.714,11.075c-3.3,4.6-8.814-1.437-8.814-1.437s2.826,6.187-.376,9.018c-5.286,4.673-9.985-8.11-15.426-9.874l-7.391,6.241Z" transform="translate(-145.857 -125.655)"/><path class="e" d="M163.571,146.908c-1.094,5.67-10.3,7.9-12.124,13.169-2.471,7.135,8.385,5.274,15.532-2.921l4.43-7.336Z" transform="translate(-151.089 -109.929)"/><g transform="translate(18.717 6.557)"><path class="g" d="M168,129.551a.066.066,0,0,1,.047-.124c8.169,2.594,16.348,7.95,21.472,14.885.167.228-.129.6-.362.385A89.958,89.958,0,0,0,168,129.551Z" transform="translate(-157.32 -129.423)"/><path class="g" d="M164.359,134.131c-.087-.044-.016-.191.085-.158,8.4,2.721,17.45,9.006,22.414,17.7.171.3.026.736-.2.407C182.922,146.547,171.687,137.777,164.359,134.131Z" transform="translate(-160.016 -126.061)"/><path class="g" d="M182.377,158.137c-5.082-8.148-12.266-13.846-20.484-18.64-.108-.061-.009-.207.1-.179,4.66,1.249,9.58,4.851,13.171,7.976a25.334,25.334,0,0,1,7.5,10.666C182.721,158.124,182.485,158.312,182.377,158.137Z" transform="translate(-161.846 -122.105)"/></g></g></g><g transform="translate(500.542 147.425)"><path class="n" d="M373.814,164.392a21.118,21.118,0,0,0,3.614-11.67c0-14.784-16.235-26.771-36.248-26.771s-36.234,11.986-36.234,26.771,16.22,26.77,36.234,26.77c9.7,0,18.5-2.812,25-7.407l12.486,3.174Z" transform="translate(-304.946 -125.952)"/><g transform="translate(15.684 23.011)"><path class="o" d="M321.476,142.935a3.758,3.758,0,1,1-3.758-3.758A3.758,3.758,0,0,1,321.476,142.935Z" transform="translate(-313.96 -139.177)"/><path class="o" d="M331.13,142.935a3.758,3.758,0,1,1-3.758-3.758A3.758,3.758,0,0,1,331.13,142.935Z" transform="translate(-306.817 -139.177)"/><path class="o" d="M340.782,142.935a3.758,3.758,0,1,1-3.758-3.758A3.758,3.758,0,0,1,340.782,142.935Z" transform="translate(-299.675 -139.177)"/></g></g></g></svg>