<svg xmlns="http://www.w3.org/2000/svg" width="333.519" height="193.526" viewBox="0 0 333.519 193.526"><defs><style>.a{fill:none;stroke:#333;stroke-miterlimit:10;stroke-dasharray:8;}.b{fill:#24669a;}.b,.c,.d{stroke:#707070;}.c{fill:#222221;opacity:0.2;}.d{fill:#263238;}</style></defs><g transform="translate(0.496 0.559)"><path class="a" d="M0,0A201.9,201.9,0,0,1,18.024,27.2c4.8,8.7,8.955,17.743,13.9,26.359,12.824,22.357,31.695,42.128,55.747,51.386s53.583,6.359,72.55-11.091C171.252,83.7,177.987,69.633,182.153,55.23c1.811-6.261,3.184-12.944,1.533-19.249l-.051-.189c-2.769-10.078-17.745-8.483-18.3,1.953a37.269,37.269,0,0,0,7.732,23.88c8.173,10.7,20.5,17.29,32.545,23.3s24.547,12,33.586,21.984a52.553,52.553,0,0,1,9.575,53.69" transform="translate(62.443 33.335) rotate(-7)"/><g transform="matrix(0.985, 0.174, -0.174, 0.985, 7.792, 0)"><g transform="translate(0 0)"><path class="b" d="M60.451,11.95l6.625,18.194L53.169,19.283,0,0Z" transform="translate(0 2.316)"/><path class="c" d="M60.451,11.95l6.625,18.194L53.169,19.283,0,0Z" transform="translate(0 2.316)"/><path class="d" d="M0,4.239l15.691,6.622L1.785,0Z" transform="translate(51.384 21.599)"/><path class="b" d="M53.169,19.283,0,0,43.61,42.558Z" transform="translate(0 2.316)"/><path class="b" d="M60.451,14.266,82.547,0,0,2.316Z" transform="translate(0 0)"/></g></g></g></svg>