<svg xmlns="http://www.w3.org/2000/svg" width="333.519" height="193.526" viewBox="0 0 333.519 193.526"><defs><style>.a{fill:none;stroke:#333;stroke-miterlimit:10;stroke-dasharray:8;}.b{fill:#24669a;}.b,.c,.d{stroke:#707070;}.c{fill:#222221;opacity:0.2;}.d{fill:#263238;}</style></defs><g transform="translate(0.557 0.558)"><path class="a" d="M0,160.6a201.9,201.9,0,0,0,18.024-27.2c4.8-8.7,8.955-17.743,13.9-26.359C44.745,84.681,63.616,64.91,87.668,55.652s53.583-6.359,72.55,11.091c11.034,10.151,17.769,24.221,21.935,38.624,1.811,6.261,3.184,12.944,1.533,19.249l-.051.189c-2.769,10.078-17.745,8.483-18.3-1.953a37.269,37.269,0,0,1,7.732-23.88c8.173-10.7,20.5-17.29,32.545-23.3s24.547-12,33.586-21.984A52.553,52.553,0,0,0,248.772,0" transform="translate(250.451 192.734) rotate(-173)"/><g transform="matrix(-0.985, 0.174, -0.174, -0.985, 332.466, 44.192)"><g transform="translate(0 0)"><path class="b" d="M60.451,18.194,67.076,0,53.169,10.861,0,30.143Z" transform="translate(0 12.414)"/><path class="c" d="M60.451,18.194,67.076,0,53.169,10.861,0,30.143Z" transform="translate(0 12.414)"/><path class="d" d="M0,6.622,15.691,0,1.785,10.861Z" transform="translate(51.384 12.414)"/><path class="b" d="M53.169,23.275,0,42.558,43.61,0Z" transform="translate(0 0)"/><path class="b" d="M60.451,0l22.1,14.266L0,11.95Z" transform="translate(0 30.608)"/></g></g></g></svg>