<svg xmlns="http://www.w3.org/2000/svg" width="2707.716" height="749.449" viewBox="0 0 2707.716 749.449"><defs><style>.a{fill:#eeebfd;}.a,.c{fill-rule:evenodd;}.b,.c{fill:#d3cdec;}</style></defs><g transform="translate(0 -15.852)"><path class="a" d="M1123.675,1155.26h92.211c49.629,0,90.233,45.225,90.233,100.5h0c0,55.274-40.6,100.5-90.233,100.5h-779.7c-80.364,0-146.113-73.229-146.113-162.732h0c0-89.506,65.75-162.735,146.111-162.735h0c33.979,0,61.778-30.961,61.778-68.806h0c0-37.844-27.8-68.808-61.78-68.808H361.83c-35.328,0-64.232-32.192-64.232-71.536h0c0-39.346,28.9-71.539,64.232-71.539h94.02c13.752,0,25.006-12.535,25.006-27.851h0c0-15.316-11.255-27.849-25.006-27.849H439.275c-9.491,0-17.257-8.651-17.257-19.222h0c0-10.571,7.765-19.222,17.257-19.222H548.031c22.9,0,25.454,30.137,83.31,30.137h166.7c12.386,0,22.52,11.29,22.52,25.08v0c0,13.793-10.134,25.08-22.52,25.08H776.415c-17.947,0-32.631,16.356-32.631,36.34v0c0,19.987,14.683,36.343,32.631,36.343h32.546c87.888,0,100.3,25.58,115.693,76.458s95.338,54.982,95.338,54.982H1129.3c27.045,0,49.173,24.644,49.173,54.764v0c0,30.12-22.127,54.764-49.173,54.764h-5.629c-26.012,0-47.3,23.706-47.3,52.677h0c0,28.971,21.285,52.675,47.3,52.675ZM390.845,694.4c9.533,0,17.259-8.607,17.259-19.222s-7.726-19.222-17.259-19.222-17.259,8.608-17.259,19.222S381.315,694.4,390.845,694.4Z" transform="translate(-290.07 -590.954)"/><path class="a" d="M846.944,431.915,938.62,432,941,432c50.623.048,92.081,39.254,92.129,87.121h0c.048,47.87-41.331,86.995-91.954,86.947l-268.705-.255-46.28-.044-480.348-.456C63.871,605.239-3.26,541.756-3.338,464.243h0c-.078-77.515,66.926-140.87,148.9-140.792h0c34.66.033,62.99-26.754,62.957-59.528h0c-.033-32.775-28.418-59.617-63.079-59.65L69.6,204.2c-36.036-.034-65.547-27.942-65.582-62.015h0C3.983,108.11,33.439,80.259,69.475,80.293l95.9.091c14.028.013,25.5-10.831,25.484-24.1h0c-.013-13.264-11.5-24.129-25.532-24.142l-16.907-.016c-9.682-.009-17.61-7.509-17.619-16.664h0c-.009-9.155,7.9-16.64,17.586-16.63l63.362.06,47.574.045c23.364.022,25.99,26.124,85.007,26.18l170.04.162c12.634.012,22.982,9.8,22.994,21.742v0c.012,11.945-10.315,21.71-22.95,21.7L492.358,68.7c-18.307-.017-33.271,14.133-33.253,31.44v0c.017,17.309,15.009,31.488,33.316,31.506l33.2.032c89.65.085,102.333,22.251,118.079,66.327S741,245.719,741,245.719l111.5.106c27.588.026,50.18,21.391,50.206,47.475v0c.026,26.085-22.523,47.406-50.111,47.38l-5.741-.006c-26.533-.025-48.224,20.484-48.2,45.574h0c.025,25.09,21.757,45.639,48.29,45.664ZM99.023,32.083c9.724.009,17.6-7.437,17.588-16.63S108.713-1.2,98.99-1.211,81.392,6.226,81.4,15.419,89.3,32.073,99.023,32.083Z" transform="matrix(-1, 0.017, -0.017, -1, 2704.357, 657.777)"/></g><g transform="translate(123.846 0)"><g transform="translate(0 139.345)"><g transform="translate(1322.084)"><path class="b" d="M558.818,377.364a2.266,2.266,0,1,0-2.266,2.266A2.268,2.268,0,0,0,558.818,377.364Z" transform="translate(-554.286 -225.968)"/><circle class="b" cx="2.266" cy="2.266" r="2.266" transform="translate(30.358 149.13)"/><circle class="b" cx="2.266" cy="2.266" r="2.266" transform="translate(60.718 149.13)"/><circle class="b" cx="2.266" cy="2.266" r="2.266" transform="translate(91.079 149.13)"/><path class="b" d="M558.818,388.951a2.266,2.266,0,1,0-2.266,2.266A2.269,2.269,0,0,0,558.818,388.951Z" transform="translate(-554.286 -267.216)"/><circle class="b" cx="2.266" cy="2.266" r="2.266" transform="translate(30.358 119.468)"/><circle class="b" cx="2.266" cy="2.266" r="2.266" transform="translate(60.718 119.468)"/><circle class="b" cx="2.266" cy="2.266" r="2.266" transform="translate(91.079 119.468)"/><path class="b" d="M558.818,400.537a2.266,2.266,0,1,0-2.266,2.266A2.269,2.269,0,0,0,558.818,400.537Z" transform="translate(-554.286 -308.464)"/><circle class="b" cx="2.266" cy="2.266" r="2.266" transform="translate(30.358 89.806)"/><circle class="b" cx="2.266" cy="2.266" r="2.266" transform="translate(60.718 89.806)"/><circle class="b" cx="2.266" cy="2.266" r="2.266" transform="translate(91.079 89.806)"/><path class="b" d="M558.818,412.441a2.266,2.266,0,1,0-2.266,2.266A2.267,2.267,0,0,0,558.818,412.441Z" transform="translate(-554.286 -350.85)"/><circle class="b" cx="2.266" cy="2.266" r="2.266" transform="translate(30.358 59.325)"/><circle class="b" cx="2.266" cy="2.266" r="2.266" transform="translate(60.718 59.325)"/><circle class="b" cx="2.266" cy="2.266" r="2.266" transform="translate(91.079 59.325)"/><path class="b" d="M558.818,424.027a2.266,2.266,0,1,0-2.266,2.266A2.268,2.268,0,0,0,558.818,424.027Z" transform="translate(-554.286 -392.098)"/><circle class="b" cx="2.266" cy="2.266" r="2.266" transform="translate(30.358 29.663)"/><circle class="b" cx="2.266" cy="2.266" r="2.266" transform="translate(60.718 29.663)"/><circle class="b" cx="2.266" cy="2.266" r="2.266" transform="translate(91.079 29.663)"/><path class="b" d="M558.818,435.614a2.266,2.266,0,1,0-2.266,2.266A2.269,2.269,0,0,0,558.818,435.614Z" transform="translate(-554.286 -433.346)"/><circle class="b" cx="2.266" cy="2.266" r="2.266" transform="translate(30.358 0.001)"/><circle class="b" cx="2.266" cy="2.266" r="2.266" transform="translate(60.718 0.001)"/><circle class="b" cx="2.266" cy="2.266" r="2.266" transform="translate(91.079 0.001)"/><circle class="b" cx="2.266" cy="2.266" r="2.266" transform="translate(122.959 149.13)"/><path class="b" d="M618.7,377.364a2.266,2.266,0,1,0-2.266,2.266A2.267,2.267,0,0,0,618.7,377.364Z" transform="translate(-460.853 -225.968)"/><circle class="b" cx="2.266" cy="2.266" r="2.266" transform="translate(183.679 149.13)"/><circle class="b" cx="2.266" cy="2.266" r="2.266" transform="translate(214.039 149.13)"/><circle class="b" cx="2.266" cy="2.266" r="2.266" transform="translate(122.959 119.468)"/><path class="b" d="M618.7,388.951a2.266,2.266,0,1,0-2.266,2.266A2.267,2.267,0,0,0,618.7,388.951Z" transform="translate(-460.853 -267.216)"/><circle class="b" cx="2.266" cy="2.266" r="2.266" transform="translate(183.679 119.468)"/><circle class="b" cx="2.266" cy="2.266" r="2.266" transform="translate(214.039 119.468)"/><circle class="b" cx="2.266" cy="2.266" r="2.266" transform="translate(122.959 89.806)"/><path class="b" d="M618.7,400.537a2.266,2.266,0,1,0-2.266,2.266A2.267,2.267,0,0,0,618.7,400.537Z" transform="translate(-460.853 -308.464)"/><circle class="b" cx="2.266" cy="2.266" r="2.266" transform="translate(183.679 89.806)"/><circle class="b" cx="2.266" cy="2.266" r="2.266" transform="translate(214.039 89.806)"/><circle class="b" cx="2.266" cy="2.266" r="2.266" transform="translate(122.959 59.325)"/><path class="b" d="M618.7,412.441a2.266,2.266,0,1,0-2.266,2.266A2.265,2.265,0,0,0,618.7,412.441Z" transform="translate(-460.853 -350.85)"/><circle class="b" cx="2.266" cy="2.266" r="2.266" transform="translate(183.679 59.325)"/><circle class="b" cx="2.266" cy="2.266" r="2.266" transform="translate(214.039 59.325)"/><circle class="b" cx="2.266" cy="2.266" r="2.266" transform="translate(122.959 29.663)"/><path class="b" d="M618.7,424.027a2.266,2.266,0,1,0-2.266,2.266A2.267,2.267,0,0,0,618.7,424.027Z" transform="translate(-460.853 -392.098)"/><circle class="b" cx="2.266" cy="2.266" r="2.266" transform="translate(183.679 29.663)"/><circle class="b" cx="2.266" cy="2.266" r="2.266" transform="translate(214.039 29.663)"/><circle class="b" cx="2.266" cy="2.266" r="2.266" transform="translate(122.959 0.001)"/><path class="b" d="M618.7,435.614a2.266,2.266,0,1,0-2.266,2.266A2.267,2.267,0,0,0,618.7,435.614Z" transform="translate(-460.853 -433.346)"/><circle class="b" cx="2.266" cy="2.266" r="2.266" transform="translate(183.679 0.001)"/><circle class="b" cx="2.266" cy="2.266" r="2.266" transform="translate(214.039 0.001)"/><circle class="b" cx="2.266" cy="2.266" r="2.266" transform="translate(245.919 149.13)"/><circle class="b" cx="2.266" cy="2.266" r="2.266" transform="translate(276.279 149.13)"/><circle class="b" cx="2.266" cy="2.266" r="2.266" transform="translate(306.639 149.13)"/><circle class="b" cx="2.266" cy="2.266" r="2.266" transform="translate(245.919 119.468)"/><circle class="b" cx="2.266" cy="2.266" r="2.266" transform="translate(276.279 119.468)"/><circle class="b" cx="2.266" cy="2.266" r="2.266" transform="translate(306.639 119.468)"/><circle class="b" cx="2.266" cy="2.266" r="2.266" transform="translate(245.919 89.806)"/><circle class="b" cx="2.266" cy="2.266" r="2.266" transform="translate(276.279 89.806)"/><circle class="b" cx="2.266" cy="2.266" r="2.266" transform="translate(306.639 89.806)"/><circle class="b" cx="2.266" cy="2.266" r="2.266" transform="translate(245.919 59.325)"/><circle class="b" cx="2.266" cy="2.266" r="2.266" transform="translate(276.279 59.325)"/><circle class="b" cx="2.266" cy="2.266" r="2.266" transform="translate(306.639 59.325)"/><circle class="b" cx="2.266" cy="2.266" r="2.266" transform="translate(245.919 29.663)"/><circle class="b" cx="2.266" cy="2.266" r="2.266" transform="translate(276.279 29.663)"/><circle class="b" cx="2.266" cy="2.266" r="2.266" transform="translate(306.639 29.663)"/><circle class="b" cx="2.266" cy="2.266" r="2.266" transform="translate(245.919 0.001)"/><circle class="b" cx="2.266" cy="2.266" r="2.266" transform="translate(276.279 0.001)"/><circle class="b" cx="2.266" cy="2.266" r="2.266" transform="translate(306.639 0.001)"/></g><g transform="translate(0 47.169)"><path class="b" d="M42.422,358.94a2.266,2.266,0,1,0-2.266,2.266A2.265,2.265,0,0,0,42.422,358.94Z" transform="translate(-37.889 -207.544)"/><path class="b" d="M54.28,358.94a2.266,2.266,0,1,0-2.266,2.266A2.265,2.265,0,0,0,54.28,358.94Z" transform="translate(-19.388 -207.544)"/><path class="b" d="M66.139,358.94a2.266,2.266,0,1,0-2.266,2.266A2.267,2.267,0,0,0,66.139,358.94Z" transform="translate(-0.886 -207.544)"/><path class="b" d="M78,358.94a2.266,2.266,0,1,0-2.266,2.266A2.265,2.265,0,0,0,78,358.94Z" transform="translate(17.615 -207.544)"/><circle class="b" cx="2.266" cy="2.266" r="2.266" transform="translate(0 119.467)"/><path class="b" d="M54.28,370.526a2.266,2.266,0,1,0-2.266,2.266A2.265,2.265,0,0,0,54.28,370.526Z" transform="translate(-19.388 -248.793)"/><path class="b" d="M66.139,370.526a2.266,2.266,0,1,0-2.266,2.266A2.267,2.267,0,0,0,66.139,370.526Z" transform="translate(-0.886 -248.793)"/><circle class="b" cx="2.266" cy="2.266" r="2.266" transform="translate(91.08 119.467)"/><path class="b" d="M42.422,382.112a2.266,2.266,0,1,0-2.266,2.266A2.265,2.265,0,0,0,42.422,382.112Z" transform="translate(-37.889 -290.042)"/><path class="b" d="M54.28,382.112a2.266,2.266,0,1,0-2.266,2.266A2.265,2.265,0,0,0,54.28,382.112Z" transform="translate(-19.388 -290.042)"/><path class="b" d="M66.139,382.112a2.266,2.266,0,1,0-2.266,2.266A2.267,2.267,0,0,0,66.139,382.112Z" transform="translate(-0.886 -290.042)"/><path class="b" d="M78,382.112a2.266,2.266,0,1,0-2.266,2.266A2.265,2.265,0,0,0,78,382.112Z" transform="translate(17.615 -290.042)"/><path class="b" d="M42.422,394.017a2.266,2.266,0,1,0-2.266,2.266A2.265,2.265,0,0,0,42.422,394.017Z" transform="translate(-37.889 -332.426)"/><path class="b" d="M54.28,394.017a2.266,2.266,0,1,0-2.266,2.266A2.265,2.265,0,0,0,54.28,394.017Z" transform="translate(-19.388 -332.426)"/><path class="b" d="M66.139,394.017a2.266,2.266,0,1,0-2.266,2.266A2.267,2.267,0,0,0,66.139,394.017Z" transform="translate(-0.886 -332.426)"/><path class="b" d="M78,394.017a2.266,2.266,0,1,0-2.266,2.266A2.265,2.265,0,0,0,78,394.017Z" transform="translate(17.615 -332.426)"/><circle class="b" cx="2.266" cy="2.266" r="2.266" transform="translate(0 29.662)"/><path class="b" d="M54.28,405.6a2.266,2.266,0,1,0-2.266,2.266A2.265,2.265,0,0,0,54.28,405.6Z" transform="translate(-19.388 -373.674)"/><path class="b" d="M66.139,405.6a2.266,2.266,0,1,0-2.266,2.266A2.267,2.267,0,0,0,66.139,405.6Z" transform="translate(-0.886 -373.674)"/><circle class="b" cx="2.266" cy="2.266" r="2.266" transform="translate(91.08 29.662)"/><path class="b" d="M42.422,417.189a2.266,2.266,0,1,0-2.266,2.266A2.265,2.265,0,0,0,42.422,417.189Z" transform="translate(-37.889 -414.923)"/><path class="b" d="M54.28,417.189a2.266,2.266,0,1,0-2.266,2.266A2.265,2.265,0,0,0,54.28,417.189Z" transform="translate(-19.388 -414.923)"/><path class="b" d="M66.139,417.189a2.266,2.266,0,1,0-2.266,2.266A2.267,2.267,0,0,0,66.139,417.189Z" transform="translate(-0.886 -414.923)"/><path class="b" d="M78,417.189a2.266,2.266,0,1,0-2.266,2.266A2.265,2.265,0,0,0,78,417.189Z" transform="translate(17.615 -414.923)"/><path class="b" d="M90.449,358.94a2.266,2.266,0,1,0-2.266,2.266A2.265,2.265,0,0,0,90.449,358.94Z" transform="translate(37.043 -207.544)"/><path class="b" d="M102.309,358.94a2.267,2.267,0,1,0-2.266,2.266A2.267,2.267,0,0,0,102.309,358.94Z" transform="translate(55.544 -207.544)"/><path class="b" d="M114.166,358.94a2.266,2.266,0,1,0-2.266,2.266A2.265,2.265,0,0,0,114.166,358.94Z" transform="translate(74.046 -207.544)"/><path class="b" d="M126.024,358.94a2.266,2.266,0,1,0-2.266,2.266A2.265,2.265,0,0,0,126.024,358.94Z" transform="translate(92.547 -207.544)"/><path class="b" d="M90.449,370.526a2.266,2.266,0,1,0-2.266,2.266A2.265,2.265,0,0,0,90.449,370.526Z" transform="translate(37.043 -248.793)"/><circle class="b" cx="2.266" cy="2.266" r="2.266" transform="translate(153.32 119.467)"/><circle class="b" cx="2.266" cy="2.266" r="2.266" transform="translate(183.68 119.467)"/><path class="b" d="M126.024,370.526a2.266,2.266,0,1,0-2.266,2.266A2.265,2.265,0,0,0,126.024,370.526Z" transform="translate(92.547 -248.793)"/><path class="b" d="M90.449,382.112a2.266,2.266,0,1,0-2.266,2.266A2.265,2.265,0,0,0,90.449,382.112Z" transform="translate(37.043 -290.042)"/><path class="b" d="M102.309,382.112a2.267,2.267,0,1,0-2.266,2.266A2.267,2.267,0,0,0,102.309,382.112Z" transform="translate(55.544 -290.042)"/><path class="b" d="M114.166,382.112a2.266,2.266,0,1,0-2.266,2.266A2.265,2.265,0,0,0,114.166,382.112Z" transform="translate(74.046 -290.042)"/><path class="b" d="M126.024,382.112a2.266,2.266,0,1,0-2.266,2.266A2.265,2.265,0,0,0,126.024,382.112Z" transform="translate(92.547 -290.042)"/><path class="b" d="M90.449,394.017a2.266,2.266,0,1,0-2.266,2.266A2.265,2.265,0,0,0,90.449,394.017Z" transform="translate(37.043 -332.426)"/><path class="b" d="M102.309,394.017a2.267,2.267,0,1,0-2.266,2.266A2.267,2.267,0,0,0,102.309,394.017Z" transform="translate(55.544 -332.426)"/><path class="b" d="M114.166,394.017a2.266,2.266,0,1,0-2.266,2.266A2.265,2.265,0,0,0,114.166,394.017Z" transform="translate(74.046 -332.426)"/><path class="b" d="M126.024,394.017a2.266,2.266,0,1,0-2.266,2.266A2.265,2.265,0,0,0,126.024,394.017Z" transform="translate(92.547 -332.426)"/><path class="b" d="M90.449,405.6a2.266,2.266,0,1,0-2.266,2.266A2.265,2.265,0,0,0,90.449,405.6Z" transform="translate(37.043 -373.674)"/><circle class="b" cx="2.266" cy="2.266" r="2.266" transform="translate(153.32 29.662)"/><circle class="b" cx="2.266" cy="2.266" r="2.266" transform="translate(183.68 29.662)"/><path class="b" d="M126.024,405.6a2.266,2.266,0,1,0-2.266,2.266A2.265,2.265,0,0,0,126.024,405.6Z" transform="translate(92.547 -373.674)"/><path class="b" d="M90.449,417.189a2.266,2.266,0,1,0-2.266,2.266A2.265,2.265,0,0,0,90.449,417.189Z" transform="translate(37.043 -414.923)"/><path class="b" d="M102.309,417.189a2.267,2.267,0,1,0-2.266,2.266A2.267,2.267,0,0,0,102.309,417.189Z" transform="translate(55.544 -414.923)"/><path class="b" d="M114.166,417.189a2.266,2.266,0,1,0-2.266,2.266A2.265,2.265,0,0,0,114.166,417.189Z" transform="translate(74.046 -414.923)"/><path class="b" d="M126.024,417.189a2.266,2.266,0,1,0-2.266,2.266A2.265,2.265,0,0,0,126.024,417.189Z" transform="translate(92.547 -414.923)"/><path class="b" d="M138.478,358.94a2.267,2.267,0,1,0-2.266,2.266A2.267,2.267,0,0,0,138.478,358.94Z" transform="translate(111.975 -207.544)"/><path class="b" d="M150.335,358.94a2.266,2.266,0,1,0-2.266,2.266A2.265,2.265,0,0,0,150.335,358.94Z" transform="translate(130.478 -207.544)"/><path class="b" d="M162.193,358.94a2.266,2.266,0,1,0-2.266,2.266A2.265,2.265,0,0,0,162.193,358.94Z" transform="translate(148.979 -207.544)"/><path class="b" d="M138.478,370.526a2.267,2.267,0,1,0-2.266,2.266A2.267,2.267,0,0,0,138.478,370.526Z" transform="translate(111.975 -248.793)"/><path class="b" d="M150.335,370.526a2.266,2.266,0,1,0-2.266,2.266A2.265,2.265,0,0,0,150.335,370.526Z" transform="translate(130.478 -248.793)"/><path class="b" d="M162.193,370.526a2.266,2.266,0,1,0-2.266,2.266A2.265,2.265,0,0,0,162.193,370.526Z" transform="translate(148.979 -248.793)"/><path class="b" d="M138.478,382.112a2.267,2.267,0,1,0-2.266,2.266A2.267,2.267,0,0,0,138.478,382.112Z" transform="translate(111.975 -290.042)"/><path class="b" d="M150.335,382.112a2.266,2.266,0,1,0-2.266,2.266A2.265,2.265,0,0,0,150.335,382.112Z" transform="translate(130.478 -290.042)"/><path class="b" d="M162.193,382.112a2.266,2.266,0,1,0-2.266,2.266A2.265,2.265,0,0,0,162.193,382.112Z" transform="translate(148.979 -290.042)"/><path class="b" d="M138.478,394.017a2.267,2.267,0,1,0-2.266,2.266A2.267,2.267,0,0,0,138.478,394.017Z" transform="translate(111.975 -332.426)"/><path class="b" d="M150.335,394.017a2.266,2.266,0,1,0-2.266,2.266A2.265,2.265,0,0,0,150.335,394.017Z" transform="translate(130.478 -332.426)"/><path class="b" d="M162.193,394.017a2.266,2.266,0,1,0-2.266,2.266A2.265,2.265,0,0,0,162.193,394.017Z" transform="translate(148.979 -332.426)"/><path class="b" d="M138.478,405.6a2.267,2.267,0,1,0-2.266,2.266A2.267,2.267,0,0,0,138.478,405.6Z" transform="translate(111.975 -373.674)"/><path class="b" d="M150.335,405.6a2.266,2.266,0,1,0-2.266,2.266A2.265,2.265,0,0,0,150.335,405.6Z" transform="translate(130.478 -373.674)"/><path class="b" d="M162.193,405.6a2.266,2.266,0,1,0-2.266,2.266A2.265,2.265,0,0,0,162.193,405.6Z" transform="translate(148.979 -373.674)"/><path class="b" d="M138.478,417.189a2.267,2.267,0,1,0-2.266,2.266A2.267,2.267,0,0,0,138.478,417.189Z" transform="translate(111.975 -414.923)"/><path class="b" d="M150.335,417.189a2.266,2.266,0,1,0-2.266,2.266A2.265,2.265,0,0,0,150.335,417.189Z" transform="translate(130.478 -414.923)"/><path class="b" d="M162.193,417.189a2.266,2.266,0,1,0-2.266,2.266A2.265,2.265,0,0,0,162.193,417.189Z" transform="translate(148.979 -414.923)"/></g></g><path class="c" d="M1657.5,705.96a2.908,2.908,0,0,1,5.816,0v13.082a2.908,2.908,0,1,1-5.816,0V705.96Zm-19.833,10.624a2.909,2.909,0,1,1,4.113-4.116l9.255,9.253a2.91,2.91,0,0,1-4.113,4.117l-9.255-9.254Zm-6.51,21.537a2.911,2.911,0,1,1,0-5.823h13.086a2.912,2.912,0,0,1,0,5.823Zm10.623,19.835a2.909,2.909,0,0,1-4.113-4.116l9.255-9.254a2.909,2.909,0,0,1,4.113,4.116l-9.255,9.254Zm21.536,6.508a2.908,2.908,0,0,1-5.816,0V751.372a2.908,2.908,0,0,1,5.816,0v13.092Zm19.833-10.624a2.91,2.91,0,0,1-4.116,4.116l-9.255-9.254a2.91,2.91,0,0,1,4.116-4.116l9.255,9.254Zm6.509-21.542a2.911,2.911,0,1,1,0,5.823h-13.086a2.911,2.911,0,0,1,0-5.823Zm-10.625-19.83a2.91,2.91,0,0,1,4.116,4.116l-9.255,9.254a2.911,2.911,0,0,1-4.116-4.117Z" transform="translate(-1535.569 -703.053)"/><path class="c" d="M1657.5,705.96a2.908,2.908,0,0,1,5.816,0v13.082a2.908,2.908,0,1,1-5.816,0V705.96Zm-19.833,10.624a2.909,2.909,0,1,1,4.113-4.116l9.255,9.253a2.91,2.91,0,0,1-4.113,4.117l-9.255-9.254Zm-6.51,21.537a2.911,2.911,0,1,1,0-5.823h13.086a2.912,2.912,0,0,1,0,5.823Zm10.623,19.835a2.909,2.909,0,0,1-4.113-4.116l9.255-9.254a2.909,2.909,0,0,1,4.113,4.116l-9.255,9.254Zm21.536,6.508a2.908,2.908,0,0,1-5.816,0V751.372a2.908,2.908,0,0,1,5.816,0v13.092Zm19.833-10.624a2.91,2.91,0,0,1-4.116,4.116l-9.255-9.254a2.91,2.91,0,0,1,4.116-4.116l9.255,9.254Zm6.509-21.542a2.911,2.911,0,1,1,0,5.823h-13.086a2.911,2.911,0,0,1,0-5.823Zm-10.625-19.83a2.91,2.91,0,0,1,4.116,4.116l-9.255,9.254a2.911,2.911,0,0,1-4.116-4.117Z" transform="translate(35.431 -633.053)"/></g></svg>