<svg xmlns="http://www.w3.org/2000/svg" xmlns:xlink="http://www.w3.org/1999/xlink" width="2855.546" height="575.55" viewBox="0 0 2855.546 575.55"><defs><style>.a,.b{fill:#e4f3ff;}.b,.f{fill-rule:evenodd;}.c{clip-path:url(#a);}.d{clip-path:url(#b);}.e,.f{fill:#c8e2f6;}.f{opacity:0.35;}</style><clipPath id="a"><rect class="a" width="1920" height="182.609"/></clipPath><clipPath id="b"><rect class="a" width="899.955" height="50.421"/></clipPath></defs><g transform="translate(0 333.915)"><g transform="translate(30.119 -333.915)"><path class="b" d="M-122.283,499.887c18.774,0,34.138,22.2,34.138,49.327h0c0,49.5,28.027,90.008,62.283,90.008H392.889c44.5,0,80.911-52.617,80.911-116.925h0c0-64.308-36.411-116.922-80.911-116.922h-2.127c-8.932,0-16.237-10.563-16.237-23.467h0c0-12.9,7.3-23.465,16.237-23.465h8.931c21.709,0,39.472-25.666,39.472-57.04h0c0-31.337-17.722-56.984-39.4-57.04H361.254c-18.774,0-34.137-22.2-34.137-49.33h0c0-49.5-28.028-90.008-62.283-90.008H-53.447c-44.5,0-80.909,52.617-80.909,116.925h0c0,64.306,36.409,116.923,80.909,116.923h0c8.933,0,16.24,10.563,16.24,23.467h0c0,12.9-7.307,23.461-16.24,23.461h-68.836C-173.931,385.8-173.934,499.887-122.283,499.887Z" transform="translate(301.52 -105.025)"/><g transform="translate(0 155.28)"><g class="c" transform="translate(0 49.112)"><path class="a" d="M1486.871-83.5c-10.717,6.879-79.6,16.326-142.863,17.728-285.346,6.324-267.135,32.29-413.18,58.613C808.478,12.355,649.517,5.149,586.613-18.033,138.158-144.041,1603.117-184.666,1486.871-83.5Z" transform="translate(-942.958 70.965)"/><g transform="translate(510.046 230.445)"><g class="d" transform="translate(0 0)"><path class="b" d="M673.961,688.845h42.465c22.855,0,41.554,2.979,41.554,6.62h0c0,3.641-18.7,6.62-41.554,6.62H357.358c-37.009,0-67.288-4.824-67.288-10.72h0c0-5.9,30.279-10.72,67.287-10.72h0c15.648,0,28.45-2.039,28.45-4.533h0c0-2.493-12.8-4.533-28.451-4.533h-34.24c-16.269,0-29.58-2.121-29.58-4.712h0c0-2.592,13.311-4.713,29.58-4.713h43.3c6.333,0,11.516-.826,11.516-1.835h0c0-1.009-5.183-1.835-11.516-1.835h-7.633c-4.371,0-7.947-.57-7.947-1.266h0c0-.7,3.576-1.266,7.947-1.266h50.084c10.548,0,11.722,1.985,38.366,1.985H524c5.7,0,10.371.744,10.371,1.652h0c0,.909-4.667,1.652-10.371,1.652h-9.959c-8.265,0-15.027,1.077-15.027,2.394h0c0,1.317,6.762,2.394,15.027,2.394h14.988c40.474,0,46.19,1.685,53.279,5.037s43.9,3.622,43.9,3.622h50.34c12.455,0,22.645,1.623,22.645,3.608h0c0,1.984-10.19,3.608-22.645,3.608h-2.592c-11.979,0-21.781,1.562-21.781,3.47h0c0,1.908,9.8,3.47,21.781,3.47ZM336.479,658.487c4.39,0,7.948-.567,7.948-1.266s-3.558-1.266-7.948-1.266-7.948.567-7.948,1.266S332.09,658.487,336.479,658.487Z" transform="translate(-502.612 -651.892)"/><path class="b" d="M-341.488,674.345h42.465c22.856,0,41.554,2.979,41.554,6.62h0c0,3.641-18.7,6.62-41.554,6.62H-658.091c-37.009,0-67.288-4.824-67.288-10.72h0c0-5.9,30.279-10.72,67.287-10.72h0c15.648,0,28.45-2.04,28.45-4.533h0c0-2.493-12.8-4.533-28.451-4.533h-34.24c-16.269,0-29.579-2.121-29.579-4.712h0c0-2.592,13.31-4.713,29.579-4.713h43.3c6.334,0,11.516-.826,11.516-1.835h0c0-1.009-5.182-1.835-11.516-1.835h-7.633c-4.37,0-7.947-.57-7.947-1.266h0c0-.7,3.577-1.266,7.947-1.266h50.084c10.548,0,11.723,1.985,38.366,1.985h76.768c5.705,0,10.371.744,10.371,1.652h0c0,.909-4.667,1.652-10.371,1.652h-9.959c-8.265,0-15.027,1.077-15.027,2.394h0c0,1.317,6.762,2.394,15.027,2.394h14.988c40.474,0,46.191,1.685,53.279,5.037s43.905,3.622,43.905,3.622h50.34c12.455,0,22.645,1.623,22.645,3.608h0c0,1.984-10.19,3.608-22.645,3.608h-2.592c-11.979,0-21.78,1.562-21.78,3.47h0c0,1.908,9.8,3.47,21.78,3.47ZM-678.97,643.986c4.39,0,7.948-.567,7.948-1.266s-3.558-1.266-7.948-1.266-7.948.567-7.948,1.266S-683.358,643.986-678.97,643.986Z" transform="translate(1528.286 -639.702)"/><path class="b" d="M202.455,409.644l41.365-.224,1.075-.006c22.843-.124,40.9-3.2,40.12-6.841h0c-.776-3.639-20.1-6.515-42.941-6.392l-121.243.656-20.881.113-216.737,1.173c-36.988.2-66.222,5.185-64.965,11.078h0c1.256,5.893,32.546,10.55,69.533,10.35h0c15.639-.085,28.868,1.885,29.4,4.376h0c.531,2.492-11.829,4.6-27.468,4.684l-34.221.185c-16.259.088-29.11,2.279-28.558,4.87h0c.553,2.59,14.307,4.638,30.567,4.55l43.273-.234c6.33-.034,11.685.763,11.9,1.771h0c.215,1.008-4.788,1.862-11.118,1.9l-7.629.041c-4.368.024-7.821.612-7.672,1.308h0c.148.7,3.844,1.246,8.212,1.223l28.59-.155,21.465-.116c10.542-.057,11.293-2.047,37.921-2.192l76.723-.415c5.7-.031,10.207-.8,10.013-1.707h0c-.193-.908-5.016-1.626-10.717-1.6l-9.953.054c-8.26.045-15.247-1-15.528-2.311h0c-.281-1.316,6.248-2.429,14.508-2.474l14.979-.081c40.45-.219,45.805-1.934,52.175-5.322s43.108-3.857,43.108-3.857l50.311-.272c12.447-.067,22.286-1.745,21.863-3.728h0c-.423-1.983-10.953-3.55-23.4-3.483l-2.59.014c-11.973.065-22.1-1.443-22.508-3.35h0c-.407-1.907,9.056-3.521,21.029-3.586Zm-330.818,32.167c4.387-.024,8.065.524,8.214,1.222s-3.287,1.285-7.674,1.309-8.064-.524-8.213-1.223S-132.749,441.835-128.363,441.811Z" transform="translate(442.19 -433.502)"/></g></g></g><path class="b" d="M850.33,120.623h94.061c50.624,0,92.043-27.141,92.043-60.311h0C1036.434,27.14,995.015,0,944.391,0H149.045C67.069,0,0,43.947,0,97.66H0c0,53.715,67.069,97.662,149.043,97.662h0c34.661,0,63.018,18.581,63.018,41.292h0c0,22.712-28.359,41.294-63.02,41.294H73.2c-36.036,0-65.52,19.319-65.52,42.931h0c0,23.613,29.484,42.932,65.52,42.932h95.906c14.028,0,25.508,7.523,25.508,16.714h0c0,9.192-11.48,16.713-25.508,16.713H152.2c-9.682,0-17.6,5.191-17.6,11.536h0c0,6.344,7.921,11.536,17.6,11.536H263.137c23.364,0,25.965-18.086,84.982-18.086H518.162c12.635,0,22.972-6.775,22.972-15.051v0c0-8.277-10.337-15.051-22.972-15.051H496.1c-18.307,0-33.285-9.816-33.285-21.809h0c0-11.994,14.978-21.81,33.285-21.81h33.2c89.651,0,102.312-15.351,118.015-45.884s97.251-33,97.251-33h111.5c27.588,0,50.159-14.79,50.159-32.866h0c0-18.076-22.571-32.865-50.159-32.865H850.33c-26.534,0-48.245-14.227-48.245-31.613h0c0-17.386,21.712-31.612,48.245-31.612ZM102.8,397.2c9.724,0,17.6,5.165,17.6,11.536s-7.881,11.536-17.6,11.536S85.192,415.1,85.192,408.734,93.075,397.2,102.8,397.2Z" transform="translate(2825.427 420.27) rotate(180)"/></g></g><g transform="translate(0 -317.89)"><g transform="translate(134.018)"><g transform="translate(1490.041)"><path class="e" d="M290.619,124.732a2.266,2.266,0,1,0,2.266-2.268A2.267,2.267,0,0,0,290.619,124.732Z" transform="translate(16.023 -122.464)"/><path class="e" d="M302.477,124.732a2.266,2.266,0,1,0,2.266-2.268A2.267,2.267,0,0,0,302.477,124.732Z" transform="translate(-26.194 -122.464)"/><circle class="e" cx="2.266" cy="2.266" r="2.266" transform="translate(245.922 0.001)"/><path class="e" d="M326.194,124.732a2.266,2.266,0,1,0,2.266-2.268A2.267,2.267,0,0,0,326.194,124.732Z" transform="translate(-110.632 -122.464)"/><path class="e" d="M290.619,136.316a2.266,2.266,0,1,0,2.266-2.266A2.265,2.265,0,0,0,290.619,136.316Z" transform="translate(16.023 -104.387)"/><path class="e" d="M302.477,136.316a2.266,2.266,0,1,0,2.266-2.266A2.265,2.265,0,0,0,302.477,136.316Z" transform="translate(-26.194 -104.387)"/><path class="e" d="M314.336,136.316a2.266,2.266,0,1,0,2.266-2.266A2.265,2.265,0,0,0,314.336,136.316Z" transform="translate(-68.415 -104.387)"/><path class="e" d="M326.194,136.316a2.266,2.266,0,1,0,2.266-2.266A2.265,2.265,0,0,0,326.194,136.316Z" transform="translate(-110.632 -104.387)"/><path class="e" d="M290.619,147.9a2.266,2.266,0,1,0,2.266-2.266A2.265,2.265,0,0,0,290.619,147.9Z" transform="translate(16.023 -86.311)"/><path class="e" d="M302.477,147.9a2.266,2.266,0,1,0,2.266-2.266A2.265,2.265,0,0,0,302.477,147.9Z" transform="translate(-26.194 -86.311)"/><circle class="e" cx="2.266" cy="2.266" r="2.266" transform="translate(245.922 59.326)"/><path class="e" d="M326.194,147.9a2.266,2.266,0,1,0,2.266-2.266A2.265,2.265,0,0,0,326.194,147.9Z" transform="translate(-110.632 -86.311)"/><path class="e" d="M290.619,159.808a2.266,2.266,0,1,0,2.266-2.266A2.267,2.267,0,0,0,290.619,159.808Z" transform="translate(16.023 -67.735)"/><path class="e" d="M302.477,159.808a2.266,2.266,0,1,0,2.266-2.266A2.267,2.267,0,0,0,302.477,159.808Z" transform="translate(-26.194 -67.735)"/><circle class="e" cx="2.266" cy="2.266" r="2.266" transform="translate(245.922 89.806)"/><path class="e" d="M326.194,159.808a2.266,2.266,0,1,0,2.266-2.266A2.267,2.267,0,0,0,326.194,159.808Z" transform="translate(-110.632 -67.735)"/><path class="e" d="M290.619,171.393a2.266,2.266,0,1,0,2.266-2.266A2.267,2.267,0,0,0,290.619,171.393Z" transform="translate(16.023 -49.66)"/><path class="e" d="M302.477,171.393a2.266,2.266,0,1,0,2.266-2.266A2.267,2.267,0,0,0,302.477,171.393Z" transform="translate(-26.194 -49.66)"/><circle class="e" cx="2.266" cy="2.266" r="2.266" transform="translate(245.922 119.468)"/><path class="e" d="M326.194,171.393a2.266,2.266,0,1,0,2.266-2.266A2.267,2.267,0,0,0,326.194,171.393Z" transform="translate(-110.632 -49.66)"/><path class="e" d="M290.619,182.979a2.266,2.266,0,1,0,2.266-2.266A2.265,2.265,0,0,0,290.619,182.979Z" transform="translate(16.023 -31.583)"/><path class="e" d="M302.477,182.979a2.266,2.266,0,1,0,2.266-2.266A2.265,2.265,0,0,0,302.477,182.979Z" transform="translate(-26.194 -31.583)"/><circle class="e" cx="2.266" cy="2.266" r="2.266" transform="translate(245.922 149.13)"/><path class="e" d="M326.194,182.979a2.266,2.266,0,1,0,2.266-2.266A2.265,2.265,0,0,0,326.194,182.979Z" transform="translate(-110.632 -31.583)"/><circle class="e" cx="2.266" cy="2.266" r="2.266" transform="translate(183.681 0.001)"/><circle class="e" cx="2.266" cy="2.266" r="2.266" transform="translate(153.321 0.001)"/><path class="e" d="M362.363,124.732a2.266,2.266,0,1,0,2.266-2.268A2.267,2.267,0,0,0,362.363,124.732Z" transform="translate(-239.401 -122.464)"/><path class="e" d="M374.221,124.732a2.267,2.267,0,1,0,2.268-2.268A2.269,2.269,0,0,0,374.221,124.732Z" transform="translate(-281.621 -122.464)"/><path class="e" d="M338.646,136.316a2.266,2.266,0,1,0,2.266-2.266A2.265,2.265,0,0,0,338.646,136.316Z" transform="translate(-154.963 -104.387)"/><path class="e" d="M350.505,136.316a2.266,2.266,0,1,0,2.266-2.266A2.265,2.265,0,0,0,350.505,136.316Z" transform="translate(-197.184 -104.387)"/><path class="e" d="M362.363,136.316a2.266,2.266,0,1,0,2.266-2.266A2.265,2.265,0,0,0,362.363,136.316Z" transform="translate(-239.401 -104.387)"/><path class="e" d="M374.221,136.316a2.267,2.267,0,1,0,2.268-2.266A2.267,2.267,0,0,0,374.221,136.316Z" transform="translate(-281.621 -104.387)"/><circle class="e" cx="2.266" cy="2.266" r="2.266" transform="translate(183.681 59.326)"/><circle class="e" cx="2.266" cy="2.266" r="2.266" transform="translate(153.321 59.326)"/><path class="e" d="M362.363,147.9a2.266,2.266,0,1,0,2.266-2.266A2.265,2.265,0,0,0,362.363,147.9Z" transform="translate(-239.401 -86.311)"/><path class="e" d="M374.221,147.9a2.267,2.267,0,1,0,2.268-2.266A2.267,2.267,0,0,0,374.221,147.9Z" transform="translate(-281.621 -86.311)"/><circle class="e" cx="2.266" cy="2.266" r="2.266" transform="translate(183.681 89.806)"/><circle class="e" cx="2.266" cy="2.266" r="2.266" transform="translate(153.321 89.806)"/><path class="e" d="M362.363,159.808a2.266,2.266,0,1,0,2.266-2.266A2.267,2.267,0,0,0,362.363,159.808Z" transform="translate(-239.401 -67.735)"/><path class="e" d="M374.221,159.808a2.267,2.267,0,1,0,2.268-2.266A2.269,2.269,0,0,0,374.221,159.808Z" transform="translate(-281.621 -67.735)"/><circle class="e" cx="2.266" cy="2.266" r="2.266" transform="translate(183.681 119.468)"/><circle class="e" cx="2.266" cy="2.266" r="2.266" transform="translate(153.321 119.468)"/><path class="e" d="M362.363,171.393a2.266,2.266,0,1,0,2.266-2.266A2.267,2.267,0,0,0,362.363,171.393Z" transform="translate(-239.401 -49.66)"/><path class="e" d="M374.221,171.393a2.267,2.267,0,1,0,2.268-2.266A2.269,2.269,0,0,0,374.221,171.393Z" transform="translate(-281.621 -49.66)"/><circle class="e" cx="2.266" cy="2.266" r="2.266" transform="translate(183.681 149.13)"/><circle class="e" cx="2.266" cy="2.266" r="2.266" transform="translate(153.321 149.13)"/><path class="e" d="M362.363,182.979a2.266,2.266,0,1,0,2.266-2.266A2.265,2.265,0,0,0,362.363,182.979Z" transform="translate(-239.401 -31.583)"/><path class="e" d="M374.221,182.979a2.267,2.267,0,1,0,2.268-2.266A2.267,2.267,0,0,0,374.221,182.979Z" transform="translate(-281.621 -31.583)"/><path class="e" d="M386.674,124.732a2.266,2.266,0,1,0,2.266-2.268A2.267,2.267,0,0,0,386.674,124.732Z" transform="translate(-325.953 -122.464)"/><path class="e" d="M398.532,124.732a2.266,2.266,0,1,0,2.266-2.268A2.267,2.267,0,0,0,398.532,124.732Z" transform="translate(-368.17 -122.464)"/><circle class="e" cx="2.266" cy="2.266" r="2.266" transform="translate(0.001 0.001)"/><path class="e" d="M386.674,136.316a2.266,2.266,0,1,0,2.266-2.266A2.265,2.265,0,0,0,386.674,136.316Z" transform="translate(-325.953 -104.387)"/><path class="e" d="M398.532,136.316a2.266,2.266,0,1,0,2.266-2.266A2.265,2.265,0,0,0,398.532,136.316Z" transform="translate(-368.17 -104.387)"/><path class="e" d="M410.39,136.316a2.267,2.267,0,1,0,2.268-2.266A2.267,2.267,0,0,0,410.39,136.316Z" transform="translate(-410.39 -104.387)"/><path class="e" d="M386.674,147.9a2.266,2.266,0,1,0,2.266-2.266A2.265,2.265,0,0,0,386.674,147.9Z" transform="translate(-325.953 -86.311)"/><path class="e" d="M398.532,147.9a2.266,2.266,0,1,0,2.266-2.266A2.265,2.265,0,0,0,398.532,147.9Z" transform="translate(-368.17 -86.311)"/><circle class="e" cx="2.266" cy="2.266" r="2.266" transform="translate(0.001 59.326)"/><path class="e" d="M386.674,159.808a2.266,2.266,0,1,0,2.266-2.266A2.267,2.267,0,0,0,386.674,159.808Z" transform="translate(-325.953 -67.735)"/><path class="e" d="M398.532,159.808a2.266,2.266,0,1,0,2.266-2.266A2.267,2.267,0,0,0,398.532,159.808Z" transform="translate(-368.17 -67.735)"/><circle class="e" cx="2.266" cy="2.266" r="2.266" transform="translate(0.001 89.806)"/><path class="e" d="M386.674,171.393a2.266,2.266,0,1,0,2.266-2.266A2.267,2.267,0,0,0,386.674,171.393Z" transform="translate(-325.953 -49.66)"/><path class="e" d="M398.532,171.393a2.266,2.266,0,1,0,2.266-2.266A2.267,2.267,0,0,0,398.532,171.393Z" transform="translate(-368.17 -49.66)"/><circle class="e" cx="2.266" cy="2.266" r="2.266" transform="translate(0.001 119.468)"/><path class="e" d="M386.674,182.979a2.266,2.266,0,1,0,2.266-2.266A2.265,2.265,0,0,0,386.674,182.979Z" transform="translate(-325.953 -31.583)"/><path class="e" d="M398.532,182.979a2.266,2.266,0,1,0,2.266-2.266A2.265,2.265,0,0,0,398.532,182.979Z" transform="translate(-368.17 -31.583)"/><circle class="e" cx="2.266" cy="2.266" r="2.266" transform="translate(0.001 149.13)"/></g><g transform="translate(0 225.049)"><path class="e" d="M554.286,377.364a2.266,2.266,0,1,0,2.266-2.266A2.268,2.268,0,0,0,554.286,377.364Z" transform="translate(-247.647 -375.097)"/><circle class="e" cx="2.266" cy="2.266" r="2.266" transform="translate(276.281)"/><circle class="e" cx="2.266" cy="2.266" r="2.266" transform="translate(245.92)"/><circle class="e" cx="2.266" cy="2.266" r="2.266" transform="translate(215.56)"/><path class="e" d="M554.286,388.949a2.266,2.266,0,1,0,2.266-2.266A2.269,2.269,0,0,0,554.286,388.949Z" transform="translate(-247.647 -357.022)"/><circle class="e" cx="2.266" cy="2.266" r="2.266" transform="translate(276.281 29.662)"/><circle class="e" cx="2.266" cy="2.266" r="2.266" transform="translate(245.92 29.662)"/><circle class="e" cx="2.266" cy="2.266" r="2.266" transform="translate(215.56 29.662)"/><path class="e" d="M554.286,400.535a2.266,2.266,0,1,0,2.266-2.266A2.269,2.269,0,0,0,554.286,400.535Z" transform="translate(-247.647 -338.945)"/><circle class="e" cx="2.266" cy="2.266" r="2.266" transform="translate(276.281 59.324)"/><circle class="e" cx="2.266" cy="2.266" r="2.266" transform="translate(245.92 59.324)"/><circle class="e" cx="2.266" cy="2.266" r="2.266" transform="translate(215.56 59.324)"/><path class="e" d="M554.286,412.441a2.266,2.266,0,1,0,2.266-2.266A2.267,2.267,0,0,0,554.286,412.441Z" transform="translate(-247.647 -320.369)"/><circle class="e" cx="2.266" cy="2.266" r="2.266" transform="translate(276.281 89.805)"/><circle class="e" cx="2.266" cy="2.266" r="2.266" transform="translate(245.92 89.805)"/><circle class="e" cx="2.266" cy="2.266" r="2.266" transform="translate(215.56 89.805)"/><path class="e" d="M554.286,424.027a2.266,2.266,0,1,0,2.266-2.266A2.268,2.268,0,0,0,554.286,424.027Z" transform="translate(-247.647 -302.293)"/><circle class="e" cx="2.266" cy="2.266" r="2.266" transform="translate(276.281 119.467)"/><circle class="e" cx="2.266" cy="2.266" r="2.266" transform="translate(245.92 119.467)"/><circle class="e" cx="2.266" cy="2.266" r="2.266" transform="translate(215.56 119.467)"/><path class="e" d="M554.286,435.612a2.266,2.266,0,1,0,2.266-2.266A2.269,2.269,0,0,0,554.286,435.612Z" transform="translate(-247.647 -284.218)"/><circle class="e" cx="2.266" cy="2.266" r="2.266" transform="translate(276.281 149.129)"/><circle class="e" cx="2.266" cy="2.266" r="2.266" transform="translate(245.92 149.129)"/><circle class="e" cx="2.266" cy="2.266" r="2.266" transform="translate(215.56 149.129)"/><circle class="e" cx="2.266" cy="2.266" r="2.266" transform="translate(183.68)"/><path class="e" d="M614.171,377.364a2.266,2.266,0,1,0,2.266-2.266A2.267,2.267,0,0,0,614.171,377.364Z" transform="translate(-460.85 -375.097)"/><circle class="e" cx="2.266" cy="2.266" r="2.266" transform="translate(122.96)"/><circle class="e" cx="2.266" cy="2.266" r="2.266" transform="translate(92.6)"/><circle class="e" cx="2.266" cy="2.266" r="2.266" transform="translate(183.68 29.662)"/><path class="e" d="M614.171,388.949a2.266,2.266,0,1,0,2.266-2.266A2.267,2.267,0,0,0,614.171,388.949Z" transform="translate(-460.85 -357.022)"/><circle class="e" cx="2.266" cy="2.266" r="2.266" transform="translate(122.96 29.662)"/><circle class="e" cx="2.266" cy="2.266" r="2.266" transform="translate(92.6 29.662)"/><circle class="e" cx="2.266" cy="2.266" r="2.266" transform="translate(183.68 59.324)"/><path class="e" d="M614.171,400.535a2.266,2.266,0,1,0,2.266-2.266A2.267,2.267,0,0,0,614.171,400.535Z" transform="translate(-460.85 -338.945)"/><circle class="e" cx="2.266" cy="2.266" r="2.266" transform="translate(122.96 59.324)"/><circle class="e" cx="2.266" cy="2.266" r="2.266" transform="translate(92.6 59.324)"/><circle class="e" cx="2.266" cy="2.266" r="2.266" transform="translate(183.68 89.805)"/><path class="e" d="M614.171,412.441a2.266,2.266,0,1,0,2.266-2.266A2.265,2.265,0,0,0,614.171,412.441Z" transform="translate(-460.85 -320.369)"/><circle class="e" cx="2.266" cy="2.266" r="2.266" transform="translate(122.96 89.805)"/><circle class="e" cx="2.266" cy="2.266" r="2.266" transform="translate(92.6 89.805)"/><circle class="e" cx="2.266" cy="2.266" r="2.266" transform="translate(183.68 119.467)"/><path class="e" d="M614.171,424.027a2.266,2.266,0,1,0,2.266-2.266A2.267,2.267,0,0,0,614.171,424.027Z" transform="translate(-460.85 -302.293)"/><circle class="e" cx="2.266" cy="2.266" r="2.266" transform="translate(122.96 119.467)"/><circle class="e" cx="2.266" cy="2.266" r="2.266" transform="translate(92.6 119.467)"/><circle class="e" cx="2.266" cy="2.266" r="2.266" transform="translate(183.68 149.129)"/><path class="e" d="M614.171,435.612a2.266,2.266,0,1,0,2.266-2.266A2.267,2.267,0,0,0,614.171,435.612Z" transform="translate(-460.85 -284.218)"/><circle class="e" cx="2.266" cy="2.266" r="2.266" transform="translate(122.96 149.129)"/><circle class="e" cx="2.266" cy="2.266" r="2.266" transform="translate(92.6 149.129)"/><circle class="e" cx="2.266" cy="2.266" r="2.266" transform="translate(60.72)"/><circle class="e" cx="2.266" cy="2.266" r="2.266" transform="translate(30.36)"/><circle class="e" cx="2.266" cy="2.266" r="2.266"/><circle class="e" cx="2.266" cy="2.266" r="2.266" transform="translate(60.72 29.662)"/><circle class="e" cx="2.266" cy="2.266" r="2.266" transform="translate(30.36 29.662)"/><circle class="e" cx="2.266" cy="2.266" r="2.266" transform="translate(0 29.662)"/><circle class="e" cx="2.266" cy="2.266" r="2.266" transform="translate(60.72 59.324)"/><circle class="e" cx="2.266" cy="2.266" r="2.266" transform="translate(30.36 59.324)"/><circle class="e" cx="2.266" cy="2.266" r="2.266" transform="translate(0 59.324)"/><circle class="e" cx="2.266" cy="2.266" r="2.266" transform="translate(60.72 89.805)"/><circle class="e" cx="2.266" cy="2.266" r="2.266" transform="translate(30.36 89.805)"/><circle class="e" cx="2.266" cy="2.266" r="2.266" transform="translate(0 89.805)"/><circle class="e" cx="2.266" cy="2.266" r="2.266" transform="translate(60.72 119.467)"/><circle class="e" cx="2.266" cy="2.266" r="2.266" transform="translate(30.36 119.467)"/><circle class="e" cx="2.266" cy="2.266" r="2.266" transform="translate(0 119.467)"/><circle class="e" cx="2.266" cy="2.266" r="2.266" transform="translate(60.72 149.129)"/><circle class="e" cx="2.266" cy="2.266" r="2.266" transform="translate(30.36 149.129)"/><circle class="e" cx="2.266" cy="2.266" r="2.266" transform="translate(0 149.129)"/></g><g transform="translate(1499 278.285)"><path class="e" d="M554.286,377.488a2.39,2.39,0,1,0,2.39-2.39A2.393,2.393,0,0,0,554.286,377.488Z" transform="translate(-230.835 -375.097)"/><circle class="e" cx="2.39" cy="2.39" r="2.39" transform="translate(291.428)"/><circle class="e" cx="2.39" cy="2.39" r="2.39" transform="translate(259.403)"/><circle class="e" cx="2.39" cy="2.39" r="2.39" transform="translate(227.379)"/><path class="e" d="M554.286,389.073a2.39,2.39,0,1,0,2.39-2.39A2.393,2.393,0,0,0,554.286,389.073Z" transform="translate(-230.835 -355.396)"/><circle class="e" cx="2.39" cy="2.39" r="2.39" transform="translate(291.428 31.288)"/><circle class="e" cx="2.39" cy="2.39" r="2.39" transform="translate(259.403 31.288)"/><circle class="e" cx="2.39" cy="2.39" r="2.39" transform="translate(227.379 31.288)"/><path class="e" d="M554.286,400.659a2.39,2.39,0,1,0,2.39-2.39A2.393,2.393,0,0,0,554.286,400.659Z" transform="translate(-230.835 -335.693)"/><circle class="e" cx="2.39" cy="2.39" r="2.39" transform="translate(291.428 62.577)"/><circle class="e" cx="2.39" cy="2.39" r="2.39" transform="translate(259.403 62.577)"/><circle class="e" cx="2.39" cy="2.39" r="2.39" transform="translate(227.379 62.577)"/><path class="e" d="M554.286,412.565a2.39,2.39,0,1,0,2.39-2.39A2.391,2.391,0,0,0,554.286,412.565Z" transform="translate(-230.835 -315.446)"/><circle class="e" cx="2.39" cy="2.39" r="2.39" transform="translate(291.428 94.728)"/><circle class="e" cx="2.39" cy="2.39" r="2.39" transform="translate(259.403 94.728)"/><circle class="e" cx="2.39" cy="2.39" r="2.39" transform="translate(227.379 94.728)"/><path class="e" d="M554.286,424.151a2.39,2.39,0,1,0,2.39-2.39A2.393,2.393,0,0,0,554.286,424.151Z" transform="translate(-230.835 -295.743)"/><circle class="e" cx="2.39" cy="2.39" r="2.39" transform="translate(291.428 126.017)"/><circle class="e" cx="2.39" cy="2.39" r="2.39" transform="translate(259.403 126.017)"/><circle class="e" cx="2.39" cy="2.39" r="2.39" transform="translate(227.379 126.017)"/><path class="e" d="M554.286,435.736a2.39,2.39,0,1,0,2.39-2.39A2.393,2.393,0,0,0,554.286,435.736Z" transform="translate(-230.835 -276.042)"/><circle class="e" cx="2.39" cy="2.39" r="2.39" transform="translate(291.428 157.305)"/><circle class="e" cx="2.39" cy="2.39" r="2.39" transform="translate(259.403 157.305)"/><circle class="e" cx="2.39" cy="2.39" r="2.39" transform="translate(227.379 157.305)"/><circle class="e" cx="2.39" cy="2.39" r="2.39" transform="translate(193.75)"/><path class="e" d="M614.171,377.488a2.39,2.39,0,1,0,2.39-2.39A2.391,2.391,0,0,0,614.171,377.488Z" transform="translate(-452.444 -375.097)"/><circle class="e" cx="2.39" cy="2.39" r="2.39" transform="translate(129.702)"/><circle class="e" cx="2.39" cy="2.39" r="2.39" transform="translate(97.677)"/><circle class="e" cx="2.39" cy="2.39" r="2.39" transform="translate(193.75 31.288)"/><path class="e" d="M614.171,389.073a2.39,2.39,0,1,0,2.39-2.39A2.391,2.391,0,0,0,614.171,389.073Z" transform="translate(-452.444 -355.396)"/><circle class="e" cx="2.39" cy="2.39" r="2.39" transform="translate(129.702 31.288)"/><circle class="e" cx="2.39" cy="2.39" r="2.39" transform="translate(97.677 31.288)"/><circle class="e" cx="2.39" cy="2.39" r="2.39" transform="translate(193.75 62.577)"/><path class="e" d="M614.171,400.659a2.39,2.39,0,1,0,2.39-2.39A2.391,2.391,0,0,0,614.171,400.659Z" transform="translate(-452.444 -335.693)"/><circle class="e" cx="2.39" cy="2.39" r="2.39" transform="translate(129.702 62.577)"/><circle class="e" cx="2.39" cy="2.39" r="2.39" transform="translate(97.677 62.577)"/><circle class="e" cx="2.39" cy="2.39" r="2.39" transform="translate(193.75 94.728)"/><path class="e" d="M614.171,412.565a2.39,2.39,0,1,0,2.39-2.39A2.389,2.389,0,0,0,614.171,412.565Z" transform="translate(-452.444 -315.446)"/><circle class="e" cx="2.39" cy="2.39" r="2.39" transform="translate(129.702 94.728)"/><circle class="e" cx="2.39" cy="2.39" r="2.39" transform="translate(97.677 94.728)"/><circle class="e" cx="2.39" cy="2.39" r="2.39" transform="translate(193.75 126.017)"/><path class="e" d="M614.171,424.151a2.39,2.39,0,1,0,2.39-2.39A2.391,2.391,0,0,0,614.171,424.151Z" transform="translate(-452.444 -295.743)"/><circle class="e" cx="2.39" cy="2.39" r="2.39" transform="translate(129.702 126.017)"/><circle class="e" cx="2.39" cy="2.39" r="2.39" transform="translate(97.677 126.017)"/><circle class="e" cx="2.39" cy="2.39" r="2.39" transform="translate(193.75 157.305)"/><path class="e" d="M614.171,435.736a2.39,2.39,0,1,0,2.39-2.39A2.391,2.391,0,0,0,614.171,435.736Z" transform="translate(-452.444 -276.042)"/><circle class="e" cx="2.39" cy="2.39" r="2.39" transform="translate(129.702 157.305)"/><circle class="e" cx="2.39" cy="2.39" r="2.39" transform="translate(97.677 157.305)"/><circle class="e" cx="2.39" cy="2.39" r="2.39" transform="translate(64.049)"/><circle class="e" cx="2.39" cy="2.39" r="2.39" transform="translate(32.025)"/><circle class="e" cx="2.39" cy="2.39" r="2.39"/><circle class="e" cx="2.39" cy="2.39" r="2.39" transform="translate(64.049 31.288)"/><circle class="e" cx="2.39" cy="2.39" r="2.39" transform="translate(32.025 31.288)"/><circle class="e" cx="2.39" cy="2.39" r="2.39" transform="translate(0 31.288)"/><circle class="e" cx="2.39" cy="2.39" r="2.39" transform="translate(64.049 62.577)"/><circle class="e" cx="2.39" cy="2.39" r="2.39" transform="translate(32.025 62.577)"/><circle class="e" cx="2.39" cy="2.39" r="2.39" transform="translate(0 62.577)"/><circle class="e" cx="2.39" cy="2.39" r="2.39" transform="translate(64.049 94.728)"/><circle class="e" cx="2.39" cy="2.39" r="2.39" transform="translate(32.025 94.728)"/><circle class="e" cx="2.39" cy="2.39" r="2.39" transform="translate(0 94.728)"/><circle class="e" cx="2.39" cy="2.39" r="2.39" transform="translate(64.049 126.017)"/><circle class="e" cx="2.39" cy="2.39" r="2.39" transform="translate(32.025 126.017)"/><circle class="e" cx="2.39" cy="2.39" r="2.39" transform="translate(0 126.017)"/><circle class="e" cx="2.39" cy="2.39" r="2.39" transform="translate(64.049 157.305)"/><circle class="e" cx="2.39" cy="2.39" r="2.39" transform="translate(32.025 157.305)"/><circle class="e" cx="2.39" cy="2.39" r="2.39" transform="translate(0 157.305)"/></g><path class="f" d="M500.588,511.318a2.908,2.908,0,1,0-5.816,0V524.4a2.908,2.908,0,1,0,5.816,0V511.318Zm19.833,10.625a2.91,2.91,0,0,0-4.113-4.117l-9.254,9.254a2.909,2.909,0,1,0,4.113,4.116l9.254-9.253Zm6.51,21.539a2.911,2.911,0,1,0,0-5.823H513.845a2.912,2.912,0,0,0,0,5.823Zm-10.623,19.832a2.909,2.909,0,0,0,4.113-4.116l-9.254-9.254a2.909,2.909,0,1,0-4.113,4.114l9.254,9.256Zm-21.536,6.508a2.908,2.908,0,0,0,5.816,0V556.731a2.908,2.908,0,1,0-5.816,0v13.091ZM474.939,559.2a2.91,2.91,0,0,0,4.116,4.116l9.255-9.256a2.91,2.91,0,0,0-4.116-4.114l-9.255,9.254Zm-6.51-21.539a2.911,2.911,0,0,0,0,5.823h13.088a2.911,2.911,0,0,0,0-5.823Zm10.626-19.833a2.911,2.911,0,0,0-4.116,4.117l9.255,9.253a2.91,2.91,0,0,0,4.116-4.116Z" transform="translate(-204.536 -482.036)"/><path class="f" d="M500.588,511.318a2.908,2.908,0,1,0-5.816,0V524.4a2.908,2.908,0,1,0,5.816,0V511.318Zm19.833,10.625a2.91,2.91,0,0,0-4.113-4.117l-9.254,9.254a2.909,2.909,0,1,0,4.113,4.116l9.254-9.253Zm6.51,21.539a2.911,2.911,0,1,0,0-5.823H513.845a2.912,2.912,0,0,0,0,5.823Zm-10.623,19.832a2.909,2.909,0,0,0,4.113-4.116l-9.254-9.254a2.909,2.909,0,1,0-4.113,4.114l9.254,9.256Zm-21.536,6.508a2.908,2.908,0,0,0,5.816,0V556.731a2.908,2.908,0,1,0-5.816,0v13.091ZM474.939,559.2a2.91,2.91,0,0,0,4.116,4.116l9.255-9.256a2.91,2.91,0,0,0-4.116-4.114l-9.255,9.254Zm-6.51-21.539a2.911,2.911,0,0,0,0,5.823h13.088a2.911,2.911,0,0,0,0-5.823Zm10.626-19.833a2.911,2.911,0,0,0-4.116,4.117l9.255,9.253a2.91,2.91,0,0,0,4.116-4.116Z" transform="translate(631.464 -251.385)"/><path class="f" d="M500.588,511.318a2.908,2.908,0,1,0-5.816,0V524.4a2.908,2.908,0,1,0,5.816,0V511.318Zm19.833,10.625a2.91,2.91,0,0,0-4.113-4.117l-9.254,9.254a2.909,2.909,0,1,0,4.113,4.116l9.254-9.253Zm6.51,21.539a2.911,2.911,0,1,0,0-5.823H513.845a2.912,2.912,0,0,0,0,5.823Zm-10.623,19.832a2.909,2.909,0,0,0,4.113-4.116l-9.254-9.254a2.909,2.909,0,1,0-4.113,4.114l9.254,9.256Zm-21.536,6.508a2.908,2.908,0,0,0,5.816,0V556.731a2.908,2.908,0,1,0-5.816,0v13.091ZM474.939,559.2a2.91,2.91,0,0,0,4.116,4.116l9.255-9.256a2.91,2.91,0,0,0-4.116-4.114l-9.255,9.254Zm-6.51-21.539a2.911,2.911,0,0,0,0,5.823h13.088a2.911,2.911,0,0,0,0-5.823Zm10.626-19.833a2.911,2.911,0,0,0-4.116,4.117l9.255,9.253a2.91,2.91,0,0,0,4.116-4.116Z" transform="translate(1147.464 -29.23)"/></g><path class="f" d="M500.588,511.318a2.908,2.908,0,1,0-5.816,0V524.4a2.908,2.908,0,1,0,5.816,0V511.318Zm19.833,10.625a2.91,2.91,0,0,0-4.113-4.117l-9.254,9.254a2.909,2.909,0,1,0,4.113,4.116l9.254-9.253Zm6.51,21.539a2.911,2.911,0,1,0,0-5.823H513.845a2.912,2.912,0,0,0,0,5.823Zm-10.623,19.832a2.909,2.909,0,0,0,4.113-4.116l-9.254-9.254a2.909,2.909,0,1,0-4.113,4.114l9.254,9.256Zm-21.536,6.508a2.908,2.908,0,0,0,5.816,0V556.731a2.908,2.908,0,1,0-5.816,0v13.091ZM474.939,559.2a2.91,2.91,0,0,0,4.116,4.116l9.255-9.256a2.91,2.91,0,0,0-4.116-4.114l-9.255,9.254Zm-6.51-21.539a2.911,2.911,0,0,0,0,5.823h13.088a2.911,2.911,0,0,0,0-5.823Zm10.626-19.833a2.911,2.911,0,0,0-4.116,4.117l9.255,9.253a2.91,2.91,0,0,0,4.116-4.116Z" transform="translate(-465.518 -298.63)"/></g></g></svg>