<svg xmlns="http://www.w3.org/2000/svg" width="68.832" height="45.123" viewBox="0 0 68.832 45.123"><defs><style>.a{fill:#e5646e;}.b{fill:#db4655;}.c{fill:#ffe07d;}.d{fill:#ffd064;}.e{fill:#fff;}.f{fill:#ffc269;}.g{fill:#333;}</style></defs><g transform="translate(0 0)"><g transform="translate(1.008 1.008)"><path class="a" d="M72.16,96.677H9.655A2.155,2.155,0,0,0,7.5,98.832v38.8a2.155,2.155,0,0,0,2.155,2.155h62.5a2.155,2.155,0,0,0,2.155-2.155v-38.8a2.155,2.155,0,0,0-2.155-2.155Z" transform="translate(-7.5 -96.677)"/><path class="b" d="M10.733,131.162V96.677H9.655A2.155,2.155,0,0,0,7.5,98.832v38.8a2.155,2.155,0,0,0,2.155,2.155h62.5a2.155,2.155,0,0,0,2.155-2.155v-1.078H16.121a5.394,5.394,0,0,1-5.388-5.388Z" transform="translate(-7.5 -96.677)"/><path class="c" d="M7.5,160.806H74.315V186.67H7.5Z" transform="translate(-7.5 -152.185)"/><path class="b" d="M137.913,192.871a2.155,2.155,0,0,0-2.155,2.155v3.233h4.311v-3.233A2.155,2.155,0,0,0,137.913,192.871Z" transform="translate(-118.515 -179.939)"/><path class="a" d="M117.1,236.789a5.388,5.388,0,0,1-5.388-5.388v-5.388a1.078,1.078,0,0,1,1.078-1.078h8.621a1.078,1.078,0,0,1,1.078,1.078V231.4A5.388,5.388,0,0,1,117.1,236.789Z" transform="translate(-97.7 -207.692)"/><path class="d" d="M7.5,160.806h3.233V186.67H7.5Z" transform="translate(-7.5 -152.185)"/><path class="e" d="M156.1,224.935H151.79v5.388h5.388v-4.311a1.078,1.078,0,0,0-1.078-1.078Z" transform="translate(-132.392 -207.692)"/><path class="f" d="M111.71,265.016v1.078a5.388,5.388,0,0,0,5.388,5.388v-6.466Z" transform="translate(-97.7 -242.385)"/></g><path class="g" d="M65.668,89.178H3.164A3.167,3.167,0,0,0,0,92.342v38.8A3.167,3.167,0,0,0,3.164,134.3h62.5a3.167,3.167,0,0,0,3.164-3.164v-38.8A3.167,3.167,0,0,0,65.668,89.178Zm0,43.106H3.164a1.148,1.148,0,0,1-1.147-1.147V125.68H4.241a1.008,1.008,0,0,0,0-2.017H2.017V99.816H60.28a1.008,1.008,0,0,0,0-2.017H2.017V92.342a1.148,1.148,0,0,1,1.147-1.147h62.5a1.148,1.148,0,0,1,1.147,1.147V97.8H64.591a1.008,1.008,0,0,0,0,2.017h2.224v23.847H8.552a1.008,1.008,0,1,0,0,2.017H66.815v5.458a1.148,1.148,0,0,1-1.147,1.147Z" transform="translate(0 -89.178)"/><path class="g" d="M110.608,203.552a6.4,6.4,0,0,0,6.4-6.4V190.69A1.008,1.008,0,0,0,116,189.682h-2.225v-1.147a3.164,3.164,0,1,0-6.327,0v1.147h-2.225a1.008,1.008,0,0,0-1.008,1.008v6.466a6.4,6.4,0,0,0,6.4,6.4Zm-4.38-6.4v-.069H109.6v4.331A4.387,4.387,0,0,1,106.227,197.156Zm5.388,4.262v-4.331h3.372v.069A4.387,4.387,0,0,1,111.616,201.418Zm3.372-6.348h-3.372V191.7h3.372Zm-5.527-6.535a1.147,1.147,0,0,1,2.294,0v1.147H109.46Zm.139,3.164v3.372h-3.372V191.7Z" transform="translate(-90.201 -172.439)"/><path class="g" d="M73.153,230.229a1.008,1.008,0,0,0,1.008-1.008V218.444a1.008,1.008,0,1,0-2.017,0v10.777A1.008,1.008,0,0,0,73.153,230.229Z" transform="translate(-62.446 -200.193)"/><path class="g" d="M217.444,230.229a1.008,1.008,0,0,0,1.008-1.008V218.444a1.008,1.008,0,1,0-2.017,0v10.777A1.008,1.008,0,0,0,217.444,230.229Z" transform="translate(-187.339 -200.193)"/></g></svg>