<svg xmlns="http://www.w3.org/2000/svg" width="68.832" height="45.123" viewBox="0 0 68.832 45.123"><defs><style>.a{fill:#5055a0;}.b{fill:#3f3f8f;}.c{fill:#e5646e;}.d{fill:#db4655;}.e{fill:#f2f2f6;}.f{fill:#e1e1e6;}.g{fill:#333;}</style></defs><g transform="translate(0 0)"><g transform="translate(1.008 1.008)"><path class="a" d="M29.772,96.677H9.655A2.155,2.155,0,0,0,7.5,98.832v38.8a2.155,2.155,0,0,0,2.155,2.155H29.772l2.515-3.233V99.91Z" transform="translate(-7.5 -96.677)"/><path class="b" d="M31.448,136.551H16.121a5.394,5.394,0,0,1-5.388-5.388V96.677H9.655A2.155,2.155,0,0,0,7.5,98.832v38.8a2.155,2.155,0,0,0,2.155,2.155H29.772l2.514-3.233Z" transform="translate(-7.5 -96.677)"/><path class="c" d="M322.644,139.784H342.76a2.155,2.155,0,0,0,2.155-2.155v-38.8a2.155,2.155,0,0,0-2.155-2.155H322.644l-2.514,3.233v36.64Z" transform="translate(-278.1 -96.678)"/><path class="d" d="M344.917,394.352v-1.078H320.131l2.514,3.233h20.116a2.155,2.155,0,0,0,2.155-2.155Z" transform="translate(-278.102 -353.401)"/><path class="e" d="M173.167,96.677h22.272v43.106H173.167Z" transform="translate(-150.895 -96.677)"/><path class="f" d="M173.167,393.274h22.272v3.233H173.167Z" transform="translate(-150.895 -353.401)"/></g><path class="g" d="M65.668,89.178H3.164A3.167,3.167,0,0,0,0,92.342v38.8A3.167,3.167,0,0,0,3.164,134.3h62.5a3.167,3.167,0,0,0,3.164-3.164v-38.8A3.167,3.167,0,0,0,65.668,89.178Zm1.147,41.959a1.148,1.148,0,0,1-1.147,1.147H46.56V98.807a1.008,1.008,0,1,0-2.017,0v33.477H24.288v-3.3a1.008,1.008,0,1,0-2.017,0v3.3H3.164a1.148,1.148,0,0,1-1.147-1.147v-38.8a1.148,1.148,0,0,1,1.147-1.147H22.272v33.477a1.008,1.008,0,1,0,2.017,0V91.195H44.543v3.3a1.008,1.008,0,0,0,2.017,0v-3.3H65.668a1.148,1.148,0,0,1,1.147,1.147v38.8Z" transform="translate(0 -89.178)"/></g></svg>