<svg xmlns="http://www.w3.org/2000/svg" width="68.832" height="45.123" viewBox="0 0 68.832 45.123"><defs><style>.a{fill:#95cc81;}.b{fill:#7dbd80;}.c{fill:#e5646e;}.d{fill:#db4655;}.e{fill:#f2f2f6;}.f{fill:#e1e1e6;}.g{fill:#333;}</style></defs><g transform="translate(1.008 1.008)"><path class="a" d="M29.772,95.677H9.655A2.155,2.155,0,0,0,7.5,97.832v38.8a2.155,2.155,0,0,0,2.155,2.155H29.772l2.515-3.233V98.91Z" transform="translate(-7.5 -95.677)"/><path class="b" d="M31.448,135.551H16.121a5.394,5.394,0,0,1-5.388-5.388V95.677H9.655A2.155,2.155,0,0,0,7.5,97.832v38.8a2.155,2.155,0,0,0,2.155,2.155H29.772l2.514-3.233Z" transform="translate(-7.5 -95.677)"/><path class="c" d="M322.644,138.784H342.76a2.155,2.155,0,0,0,2.155-2.155v-38.8a2.155,2.155,0,0,0-2.155-2.155H322.644l-2.514,3.233v36.64Z" transform="translate(-278.1 -95.678)"/><path class="d" d="M344.917,393.352v-1.078H320.131l2.514,3.233h20.116a2.155,2.155,0,0,0,2.155-2.155Z" transform="translate(-278.102 -352.401)"/><path class="e" d="M173.167,95.677h22.272v43.106H173.167Z" transform="translate(-150.895 -95.677)"/><path class="f" d="M173.167,392.274h22.272v3.233H173.167Z" transform="translate(-150.895 -352.401)"/></g><path class="g" d="M65.668,88.178H3.164A3.167,3.167,0,0,0,0,91.342v38.8A3.167,3.167,0,0,0,3.164,133.3h62.5a3.167,3.167,0,0,0,3.164-3.164v-38.8A3.167,3.167,0,0,0,65.668,88.178Zm1.147,41.959a1.148,1.148,0,0,1-1.147,1.147H46.56v-3.3a1.008,1.008,0,1,0-2.017,0v3.3H24.288V97.807a1.008,1.008,0,1,0-2.017,0v33.477H3.164a1.148,1.148,0,0,1-1.147-1.147v-38.8a1.148,1.148,0,0,1,1.147-1.147H22.272v3.3a1.008,1.008,0,1,0,2.017,0v-3.3H44.543v33.477a1.008,1.008,0,1,0,2.017,0V90.195H65.668a1.148,1.148,0,0,1,1.147,1.147v38.8Z" transform="translate(0 -88.178)"/></svg>