<svg xmlns="http://www.w3.org/2000/svg" width="68.832" height="45.123" viewBox="0 0 68.832 45.123"><defs><style>.a{fill:#f2f2f6;}.b{fill:#e5646e;}.c{fill:#e1e1e6;}.d{fill:#333;}</style></defs><g transform="translate(0 0)"><g transform="translate(1.008 1.008)"><path class="a" d="M72.16,96.677H9.655A2.155,2.155,0,0,0,7.5,98.832v38.8a2.155,2.155,0,0,0,2.155,2.155h62.5a2.155,2.155,0,0,0,2.155-2.155v-38.8a2.155,2.155,0,0,0-2.155-2.155Z" transform="translate(-7.5 -96.677)"/><circle class="b" cx="10.777" cy="10.777" r="10.777" transform="translate(22.631 10.777)"/><path class="c" d="M10.733,131.162V96.677H9.655A2.155,2.155,0,0,0,7.5,98.832v38.8a2.155,2.155,0,0,0,2.155,2.155h62.5a2.155,2.155,0,0,0,2.155-2.155v-1.078H16.121a5.394,5.394,0,0,1-5.388-5.388Z" transform="translate(-7.5 -96.677)"/></g><path class="d" d="M65.668,89.178H3.164A3.167,3.167,0,0,0,0,92.342v38.8A3.167,3.167,0,0,0,3.164,134.3h62.5a3.167,3.167,0,0,0,3.164-3.164v-38.8A3.167,3.167,0,0,0,65.668,89.178Zm1.147,41.959a1.148,1.148,0,0,1-1.147,1.147H3.164a1.148,1.148,0,0,1-1.147-1.147v-38.8a1.148,1.148,0,0,1,1.147-1.147h62.5a1.148,1.148,0,0,1,1.147,1.147Z" transform="translate(0 -89.178)"/><path class="d" d="M188.555,174.343a1.008,1.008,0,0,0-.284,1.4,9.776,9.776,0,1,1-2.764-2.764,1.008,1.008,0,1,0,1.113-1.681,11.793,11.793,0,1,0,3.332,3.332A1.008,1.008,0,0,0,188.555,174.343Z" transform="translate(-145.708 -158.562)"/></g></svg>