<svg xmlns="http://www.w3.org/2000/svg" width="187.07" height="129.509" viewBox="0 0 187.07 129.509"><defs><style>.a{fill:#e5646e;}.b{fill:#db4655;}.c{fill:#ffe07d;}.d{fill:#ffd064;}.e{fill:#fff;}.f{fill:#ffc269;}.g{fill:#f2f2f6;}.h{fill:#5055a0;}.i{fill:#3f3f8f;}.j{fill:#e1e1e6;}</style></defs><g transform="translate(0 0)"><g transform="translate(2.444 2.444)"><path class="a" d="M164.257,95.677H12.725A5.225,5.225,0,0,0,7.5,100.9v94.054a5.225,5.225,0,0,0,5.225,5.225H164.256a5.225,5.225,0,0,0,5.225-5.225V100.9a5.225,5.225,0,0,0-5.225-5.225Z" transform="translate(-7.5 -95.677)"/><path class="b" d="M15.338,179.281v-83.6H12.725A5.225,5.225,0,0,0,7.5,100.9v94.054a5.225,5.225,0,0,0,5.225,5.225H164.256a5.225,5.225,0,0,0,5.225-5.225v-2.613H28.4a13.078,13.078,0,0,1-13.063-13.063Z" transform="translate(-7.5 -95.677)"/><path class="c" d="M7.5,159.806H169.482v62.7H7.5Z" transform="translate(-7.5 -138.905)"/><path class="b" d="M140.983,191.871a5.225,5.225,0,0,0-5.225,5.225v7.838h10.451V197.1A5.225,5.225,0,0,0,140.983,191.871Z" transform="translate(-93.956 -160.52)"/><path class="a" d="M124.772,252.674a13.063,13.063,0,0,1-13.063-13.063V226.548a2.613,2.613,0,0,1,2.613-2.613h20.9a2.613,2.613,0,0,1,2.613,2.613v13.063A13.063,13.063,0,0,1,124.772,252.674Z" transform="translate(-77.745 -182.133)"/><path class="d" d="M7.5,159.806h7.838v62.7H7.5Z" transform="translate(-7.5 -138.905)"/><path class="e" d="M162.241,223.935H151.79V237h13.063V226.548a2.613,2.613,0,0,0-2.613-2.613Z" transform="translate(-104.763 -182.133)"/><path class="f" d="M111.71,264.016v2.613a13.063,13.063,0,0,0,13.063,13.063V264.016Z" transform="translate(-77.746 -209.151)"/></g><path d="M159.2,88.178H7.67A7.678,7.678,0,0,0,0,95.848V189.9a7.678,7.678,0,0,0,7.67,7.67H159.2a7.678,7.678,0,0,0,7.67-7.67V95.848A7.678,7.678,0,0,0,159.2,88.178Zm0,104.5H7.67A2.784,2.784,0,0,1,4.889,189.9V176.67h5.392a2.444,2.444,0,1,0,0-4.889H4.889V113.968h141.25a2.444,2.444,0,1,0,0-4.889H4.889V95.848A2.784,2.784,0,0,1,7.67,93.067H159.2a2.784,2.784,0,0,1,2.781,2.781v13.231H156.59a2.444,2.444,0,1,0,0,4.889h5.392v57.814H20.732a2.444,2.444,0,0,0,0,4.889h141.25V189.9a2.784,2.784,0,0,1-2.781,2.78Z" transform="translate(0 -88.178)"/><path d="M119.718,228.449a15.525,15.525,0,0,0,15.508-15.508V197.266a2.444,2.444,0,0,0-2.444-2.444h-5.393v-2.781a7.67,7.67,0,1,0-15.339,0v2.781h-5.394a2.444,2.444,0,0,0-2.444,2.444v15.676a15.524,15.524,0,0,0,15.507,15.508ZM109.1,212.941v-.168h8.174v10.5A10.635,10.635,0,0,1,109.1,212.941Zm13.063,10.332v-10.5h8.174v.168A10.636,10.636,0,0,1,122.163,223.273Zm8.174-15.389h-8.174V199.71h8.174Zm-13.4-15.844a2.781,2.781,0,1,1,5.561,0v2.781h-5.561Zm.337,7.67v8.174H109.1V199.71Z" transform="translate(-70.247 -153.02)"/><path d="M74.589,247.451a2.444,2.444,0,0,0,2.444-2.444V218.88a2.444,2.444,0,1,0-4.889,0v26.126A2.444,2.444,0,0,0,74.589,247.451Z" transform="translate(-48.632 -174.634)"/><path d="M218.88,247.451a2.444,2.444,0,0,0,2.444-2.444V218.88a2.444,2.444,0,0,0-4.889,0v26.126A2.444,2.444,0,0,0,218.88,247.451Z" transform="translate(-145.895 -174.634)"/></g><g transform="translate(104.777 75.562)"><g transform="translate(1.205 1.205)"><path class="a" d="M84.8,95.677H10.077A2.577,2.577,0,0,0,7.5,98.254v46.383a2.577,2.577,0,0,0,2.577,2.577H84.8a2.577,2.577,0,0,0,2.577-2.577V98.254A2.577,2.577,0,0,0,84.8,95.677Z" transform="translate(-7.5 -95.677)"/><path class="g" d="M264.016,141.484h38.652v7.362H264.016Z" transform="translate(-222.787 -134.122)"/><path class="g" d="M256,233.1l1.288,7.362h38.652V233.1Z" transform="translate(-216.059 -211.009)"/><path class="b" d="M11.365,136.906V95.677H10.077A2.577,2.577,0,0,0,7.5,98.254v46.383a2.577,2.577,0,0,0,2.577,2.577H84.8a2.577,2.577,0,0,0,2.577-2.577v-1.288H17.807a6.449,6.449,0,0,1-6.442-6.442Z" transform="translate(-7.5 -95.677)"/><path class="h" d="M48.729,95.677H10.077A2.577,2.577,0,0,0,7.5,98.254v26.873H48.729Z" transform="translate(-7.5 -95.677)"/><path class="g" d="M7.5,324.71H87.382v7.362H7.5Z" transform="translate(-7.5 -287.898)"/><path class="i" d="M11.365,95.677H10.077A2.577,2.577,0,0,0,7.5,98.254v26.873h3.865Z" transform="translate(-7.5 -95.677)"/><path class="j" d="M11.365,329.127V324.71H7.5v7.362h4.611A6.358,6.358,0,0,1,11.365,329.127Z" transform="translate(-7.5 -287.898)"/></g><path d="M78.51,88.178H3.782A3.787,3.787,0,0,0,0,91.96v46.383a3.787,3.787,0,0,0,3.782,3.782H78.51a3.786,3.786,0,0,0,3.782-3.782V91.96A3.787,3.787,0,0,0,78.51,88.178ZM2.411,127.4H6.359a1.205,1.205,0,0,0,0-2.411H2.411v-4.952H79.882v4.952H11.512a1.205,1.205,0,0,0,0,2.411h68.37v4.951H2.411ZM43.64,105.313H79.882v4.952H43.64Zm0,7.362H79.882v4.952H43.64ZM79.882,91.96v3.58h-2.66a1.205,1.205,0,0,0,0,2.411h2.66V102.9H43.64V97.951H72.068a1.205,1.205,0,1,0,0-2.411H43.64V90.589H78.51A1.373,1.373,0,0,1,79.882,91.96Zm-76.1-1.371H41.229v27.039H2.411V91.96a1.373,1.373,0,0,1,1.371-1.371ZM78.51,139.714H3.782a1.373,1.373,0,0,1-1.371-1.371v-3.58H79.882v3.58a1.373,1.373,0,0,1-1.371,1.371Z" transform="translate(0 -88.178)"/><path d="M33.317,118.311a1.205,1.205,0,1,0,0-2.411H33.3a1.205,1.205,0,0,0,.013,2.411Z" transform="translate(-26.945 -111.444)"/><path d="M33.317,182.44a1.205,1.205,0,0,0,0-2.411H33.3a1.205,1.205,0,0,0,.013,2.411Z" transform="translate(-26.945 -165.266)"/><path d="M33.317,246.569a1.205,1.205,0,1,0,0-2.411H33.3a1.205,1.205,0,0,0,.013,2.411Z" transform="translate(-26.945 -219.088)"/><path d="M33.317,150.375a1.205,1.205,0,0,0,0-2.411H33.3a1.205,1.205,0,0,0,.013,2.411Z" transform="translate(-26.945 -138.355)"/><path d="M33.317,214.5a1.205,1.205,0,0,0,0-2.411H33.3a1.205,1.205,0,0,0,.013,2.411Z" transform="translate(-26.945 -192.177)"/><path d="M225.7,118.311a1.205,1.205,0,1,0,0-2.411h-.013a1.205,1.205,0,0,0,.013,2.411Z" transform="translate(-188.41 -111.444)"/><path d="M225.7,182.44a1.205,1.205,0,0,0,0-2.411h-.013a1.205,1.205,0,0,0,.013,2.411Z" transform="translate(-188.41 -165.266)"/><path d="M225.7,246.569a1.205,1.205,0,1,0,0-2.411h-.013a1.205,1.205,0,0,0,.013,2.411Z" transform="translate(-188.41 -219.088)"/><path d="M225.7,150.375a1.205,1.205,0,1,0,0-2.411h-.013a1.205,1.205,0,0,0,.013,2.411Z" transform="translate(-188.41 -138.355)"/><path d="M225.7,214.5a1.205,1.205,0,1,0,0-2.411h-.013a1.205,1.205,0,0,0,.013,2.411Z" transform="translate(-188.41 -192.177)"/><path d="M81.413,118.311a1.205,1.205,0,0,0,0-2.411H81.4a1.205,1.205,0,0,0,.013,2.411Z" transform="translate(-67.31 -111.444)"/><path d="M81.413,182.44a1.205,1.205,0,0,0,0-2.411H81.4a1.205,1.205,0,0,0,.013,2.411Z" transform="translate(-67.31 -165.266)"/><path d="M81.413,246.569a1.205,1.205,0,1,0,0-2.411H81.4a1.205,1.205,0,0,0,.013,2.411Z" transform="translate(-67.31 -219.088)"/><path d="M81.413,150.375a1.205,1.205,0,0,0,0-2.411H81.4a1.205,1.205,0,0,0,.013,2.411Z" transform="translate(-67.31 -138.355)"/><path d="M81.413,214.5a1.205,1.205,0,0,0,0-2.411H81.4a1.205,1.205,0,0,0,.013,2.411Z" transform="translate(-67.31 -192.177)"/><path d="M57.365,134.343a1.205,1.205,0,1,0,0-2.411h-.013a1.205,1.205,0,0,0,.013,2.411Z" transform="translate(-47.128 -124.9)"/><path d="M57.365,198.472a1.205,1.205,0,1,0,0-2.411h-.013a1.205,1.205,0,0,0,.013,2.411Z" transform="translate(-47.128 -178.721)"/><path d="M57.365,166.408a1.205,1.205,0,1,0,0-2.411h-.013a1.205,1.205,0,0,0,.013,2.411Z" transform="translate(-47.128 -151.811)"/><path d="M57.365,230.537a1.205,1.205,0,0,0,0-2.411h-.013a1.205,1.205,0,0,0,.013,2.411Z" transform="translate(-47.128 -205.632)"/><path d="M129.51,118.311a1.205,1.205,0,1,0,0-2.411H129.5a1.205,1.205,0,0,0,.013,2.411Z" transform="translate(-107.677 -111.444)"/><path d="M129.51,182.44a1.205,1.205,0,0,0,0-2.411H129.5a1.205,1.205,0,0,0,.013,2.411Z" transform="translate(-107.677 -165.266)"/><path d="M129.51,246.569a1.205,1.205,0,1,0,0-2.411H129.5a1.205,1.205,0,0,0,.013,2.411Z" transform="translate(-107.677 -219.088)"/><path d="M129.51,150.375a1.205,1.205,0,1,0,0-2.411H129.5a1.205,1.205,0,0,0,.013,2.411Z" transform="translate(-107.677 -138.355)"/><path d="M129.51,214.5a1.205,1.205,0,1,0,0-2.411H129.5a1.205,1.205,0,0,0,.013,2.411Z" transform="translate(-107.677 -192.177)"/><path d="M105.462,134.343a1.205,1.205,0,0,0,0-2.411h-.013a1.205,1.205,0,0,0,.013,2.411Z" transform="translate(-87.494 -124.9)"/><path d="M105.462,198.472a1.205,1.205,0,1,0,0-2.411h-.013a1.205,1.205,0,0,0,.013,2.411Z" transform="translate(-87.494 -178.721)"/><path d="M105.462,166.408a1.205,1.205,0,1,0,0-2.411h-.013a1.205,1.205,0,0,0,.013,2.411Z" transform="translate(-87.494 -151.811)"/><path d="M105.462,230.537a1.205,1.205,0,0,0,0-2.411h-.013a1.205,1.205,0,0,0,.013,2.411Z" transform="translate(-87.494 -205.632)"/><path d="M177.527,118.311a1.205,1.205,0,0,0,0-2.411h-.013a1.205,1.205,0,0,0,.013,2.411Z" transform="translate(-147.976 -111.444)"/><path d="M177.527,182.44a1.205,1.205,0,0,0,0-2.411h-.013a1.205,1.205,0,0,0,.013,2.411Z" transform="translate(-147.976 -165.266)"/><path d="M177.527,246.569a1.205,1.205,0,0,0,0-2.411h-.013a1.205,1.205,0,0,0,.013,2.411Z" transform="translate(-147.976 -219.088)"/><path d="M177.527,150.375a1.205,1.205,0,0,0,0-2.411h-.013a1.205,1.205,0,0,0,.013,2.411Z" transform="translate(-147.976 -138.355)"/><path d="M177.527,214.5a1.205,1.205,0,0,0,0-2.411h-.013a1.205,1.205,0,0,0,.013,2.411Z" transform="translate(-147.976 -192.177)"/><path d="M153.479,134.343a1.205,1.205,0,0,0,0-2.411h-.013a1.205,1.205,0,0,0,.013,2.411Z" transform="translate(-127.794 -124.9)"/><path d="M153.479,198.472a1.205,1.205,0,1,0,0-2.411h-.013a1.205,1.205,0,0,0,.013,2.411Z" transform="translate(-127.794 -178.721)"/><path d="M153.479,166.408a1.205,1.205,0,1,0,0-2.411h-.013a1.205,1.205,0,0,0,.013,2.411Z" transform="translate(-127.794 -151.811)"/><path d="M153.479,230.537a1.205,1.205,0,0,0,0-2.411h-.013a1.205,1.205,0,0,0,.013,2.411Z" transform="translate(-127.794 -205.632)"/><path d="M201.655,134.343a1.205,1.205,0,0,0,0-2.411h-.013a1.205,1.205,0,0,0,.013,2.411Z" transform="translate(-168.226 -124.9)"/><path d="M201.655,198.472a1.205,1.205,0,1,0,0-2.411h-.013a1.205,1.205,0,0,0,.013,2.411Z" transform="translate(-168.226 -178.721)"/><path d="M201.655,166.408a1.205,1.205,0,1,0,0-2.411h-.013a1.205,1.205,0,0,0,.013,2.411Z" transform="translate(-168.226 -151.811)"/><path d="M201.655,230.537a1.205,1.205,0,0,0,0-2.411h-.013a1.205,1.205,0,0,0,.013,2.411Z" transform="translate(-168.226 -205.632)"/></g></svg>