<svg xmlns="http://www.w3.org/2000/svg" width="68.832" height="45.123" viewBox="0 0 68.832 45.123"><defs><style>.a{fill:#e5646e;}.b{fill:#db4655;}.c{fill:#5055a0;}.d{fill:#3f3f8f;}.e{fill:#f2f2f6;}.f{fill:#e1e1e6;}.g{fill:#333;}</style></defs><g transform="translate(1.008 1.008)"><path class="a" d="M74.315,111.047V98.833a2.155,2.155,0,0,0-2.155-2.155H9.655A2.155,2.155,0,0,0,7.5,98.833v12.213l3.233,2.874h60.35Z" transform="translate(-7.5 -96.678)"/><path class="b" d="M10.733,96.677H9.655A2.155,2.155,0,0,0,7.5,98.832v12.213l3.232,2.874h0Z" transform="translate(-7.5 -96.677)"/><path class="c" d="M7.5,291.939v12.213a2.155,2.155,0,0,0,2.155,2.155h62.5a2.155,2.155,0,0,0,2.155-2.155V291.939l-3.233-2.874H10.733Z" transform="translate(-7.5 -263.201)"/><path class="d" d="M10.733,297.686v-8.621L7.5,291.939v12.213a2.155,2.155,0,0,0,2.155,2.155h62.5a2.155,2.155,0,0,0,2.155-2.155v-1.078H16.121a5.394,5.394,0,0,1-5.388-5.388Z" transform="translate(-7.5 -263.201)"/><path class="e" d="M7.5,203.559H74.315v14.369H7.5Z" transform="translate(-7.5 -189.19)"/><path class="f" d="M7.5,203.559h3.233v14.369H7.5Z" transform="translate(-7.5 -189.19)"/></g><path class="g" d="M65.668,89.177H3.164A3.167,3.167,0,0,0,0,92.341v38.8A3.167,3.167,0,0,0,3.164,134.3h62.5a3.167,3.167,0,0,0,3.164-3.164v-38.8a3.167,3.167,0,0,0-3.164-3.164Zm0,43.107H3.164a1.148,1.148,0,0,1-1.147-1.147V119.931H60.28a1.008,1.008,0,0,0,0-2.017H2.017V105.562h3.3a1.008,1.008,0,0,0,0-2.017h-3.3V92.341a1.148,1.148,0,0,1,1.147-1.147h62.5a1.148,1.148,0,0,1,1.147,1.147v11.205H9.63a1.008,1.008,0,0,0,0,2.017H66.815v12.352H64.59a1.008,1.008,0,1,0,0,2.017h2.225v11.205A1.148,1.148,0,0,1,65.668,132.284Z" transform="translate(0 -89.177)"/></svg>