<svg xmlns="http://www.w3.org/2000/svg" width="68.832" height="45.123" viewBox="0 0 68.832 45.123"><defs><style>.a{fill:#95cc81;}.b{fill:#ffe07d;}.c{fill:#5055a0;}.d{fill:#7dbd80;}.e{fill:#333;}</style></defs><g transform="translate(1.008 1.008)"><path class="a" d="M72.16,96.677H9.655A2.155,2.155,0,0,0,7.5,98.832v38.8a2.155,2.155,0,0,0,2.155,2.155h62.5a2.155,2.155,0,0,0,2.155-2.155v-38.8a2.155,2.155,0,0,0-2.155-2.155Z" transform="translate(-7.5 -96.677)"/><path class="b" d="M123.649,161.769,100.74,147.825a2.155,2.155,0,0,0-2.241,0L75.589,161.769a.539.539,0,0,0,0,.921L98.5,176.635a2.155,2.155,0,0,0,2.241,0l22.909-13.945A.539.539,0,0,0,123.649,161.769Z" transform="translate(-66.211 -140.676)"/><circle class="c" cx="8.621" cy="8.621" r="8.621" transform="translate(24.786 12.932)"/><path class="d" d="M10.733,131.162V96.677H9.655A2.155,2.155,0,0,0,7.5,98.832v38.8a2.155,2.155,0,0,0,2.155,2.155h62.5a2.155,2.155,0,0,0,2.155-2.155v-1.078H16.121a5.394,5.394,0,0,1-5.388-5.388Z" transform="translate(-7.5 -96.677)"/></g><g transform="translate(0 0)"><path class="e" d="M65.668,89.177H3.164A3.167,3.167,0,0,0,0,92.341v38.8A3.167,3.167,0,0,0,3.164,134.3h62.5a3.167,3.167,0,0,0,3.164-3.164v-38.8a3.167,3.167,0,0,0-3.164-3.164Zm1.147,41.959a1.148,1.148,0,0,1-1.147,1.147H3.164a1.148,1.148,0,0,1-1.147-1.147v-38.8a1.148,1.148,0,0,1,1.147-1.147h62.5a1.148,1.148,0,0,1,1.147,1.147Z" transform="translate(0 -89.177)"/><path class="e" d="M117.681,154.4,94.772,140.46a3.152,3.152,0,0,0-3.29,0L68.573,154.4a1.547,1.547,0,0,0,0,2.643l3.555,2.164a1.008,1.008,0,0,0,1.048-1.723l-2.9-1.763,22.251-13.544a1.143,1.143,0,0,1,1.193,0l22.25,13.544L93.723,169.27a1.143,1.143,0,0,1-1.193,0l-15.37-9.356a1.008,1.008,0,0,0-1.048,1.723l15.37,9.356a3.152,3.152,0,0,0,3.29,0l22.909-13.945a1.547,1.547,0,0,0,0-2.643Z" transform="translate(-58.711 -133.165)"/><path class="e" d="M194,187.387a7.6,7.6,0,0,1,3.86,1.06,1.008,1.008,0,0,0,1.025-1.736,9.652,9.652,0,1,0,3.4,3.4,1.008,1.008,0,1,0-1.736,1.025,7.6,7.6,0,0,1,1.06,3.86c0,.073,0,.146-.006.218a27.7,27.7,0,0,0-13.943-4.433,7.611,7.611,0,0,1,6.336-3.4Zm7.227,10a7.612,7.612,0,0,1-14.508-4.612A25.728,25.728,0,0,1,201.227,197.389Z" transform="translate(-159.585 -172.438)"/></g></svg>