<svg xmlns="http://www.w3.org/2000/svg" xmlns:xlink="http://www.w3.org/1999/xlink" width="2553.546" height="757" viewBox="0 0 2553.546 757"><defs><style>.a,.b{fill:#e4f3ff;}.b,.f{fill-rule:evenodd;}.c{clip-path:url(#a);}.d{clip-path:url(#b);}.e,.f{fill:#c8e2f6;}.f{opacity:0.35;}</style><clipPath id="a"><rect class="a" width="1920" height="420"/></clipPath><clipPath id="b"><rect class="a" width="899.955" height="115.876"/></clipPath></defs><g transform="translate(569.427 -1864)"><g transform="translate(-569.427 1864)"><path class="b" d="M435.063,421.966c-18.774,0-34.138,17.818-34.138,39.593h0c0,39.734-28.027,72.246-62.283,72.246H-80.109c-44.5,0-80.911-42.234-80.911-93.851h0c0-51.618,36.411-93.849,80.911-93.849h2.127c8.932,0,16.237-8.479,16.237-18.836h0c0-10.357-7.3-18.835-16.237-18.835h-8.931c-21.709,0-39.472-20.6-39.472-45.784h0c0-25.153,17.722-45.739,39.4-45.784h38.515c18.774,0,34.137-17.819,34.137-39.6h0c0-39.735,28.028-72.246,62.283-72.246H366.227c44.5,0,80.909,42.234,80.909,93.851h0c0,51.616-36.409,93.85-80.909,93.85h0c-8.933,0-16.24,8.479-16.24,18.836h0c0,10.357,7.307,18.831,16.24,18.831h68.836C486.711,330.394,486.714,421.966,435.063,421.966Z" transform="translate(1648.127 223.195)"/><g transform="translate(0 0)"><g class="c" transform="translate(570.427)"><path class="a" d="M507.59-9.491c10.717,15.81,79.6,37.519,142.862,40.742,285.346,14.533,267.135,74.208,413.18,134.7,122.35,44.857,281.311,28.3,344.216-24.982C1856.3-148.617,391.344-241.98,507.59-9.491Z" transform="translate(885.498 -18.326)"/><g transform="translate(510 530.601)"><g class="d" transform="translate(0 0)"><path class="b" d="M374.089,731.544H331.624c-22.855,0-41.554,6.847-41.554,15.214h0c0,8.368,18.7,15.214,41.554,15.214H690.692c37.009,0,67.288-11.086,67.288-24.636h0c0-13.55-30.279-24.636-67.287-24.636h0c-15.648,0-28.45-4.687-28.45-10.417h0c0-5.729,12.8-10.417,28.451-10.417h34.24c16.269,0,29.58-4.874,29.58-10.83h0c0-5.957-13.311-10.83-29.58-10.83h-43.3c-6.333,0-11.516-1.9-11.516-4.216h0c0-2.319,5.183-4.216,11.516-4.216h7.633c4.371,0,7.947-1.31,7.947-2.91h0c0-1.6-3.576-2.91-7.947-2.91H639.184c-10.548,0-11.722,4.562-38.366,4.562H524.05c-5.7,0-10.371,1.709-10.371,3.8h0c0,2.088,4.667,3.8,10.371,3.8h9.959c8.265,0,15.027,2.476,15.027,5.5h0c0,3.026-6.762,5.5-15.027,5.5H519.021c-40.474,0-46.19,3.873-53.279,11.575s-43.9,8.324-43.9,8.324H371.5c-12.455,0-22.645,3.731-22.645,8.291h0c0,4.56,10.19,8.291,22.645,8.291h2.592c11.979,0,21.781,3.589,21.781,7.975h0c0,4.386-9.8,7.974-21.781,7.974Zm337.482-69.77c-4.39,0-7.948-1.3-7.948-2.91s3.558-2.91,7.948-2.91,7.948,1.3,7.948,2.91S715.96,661.774,711.571,661.774Z" transform="translate(354.517 -646.618)"/><path class="b" d="M-641.36,717.044h-42.465c-22.856,0-41.554,6.847-41.554,15.214h0c0,8.368,18.7,15.214,41.554,15.214h359.068c37.009,0,67.288-11.086,67.288-24.636h0c0-13.55-30.279-24.636-67.287-24.636h0c-15.648,0-28.45-4.688-28.45-10.417h0c0-5.729,12.8-10.417,28.451-10.417h34.24c16.269,0,29.579-4.874,29.579-10.83h0c0-5.957-13.31-10.83-29.579-10.83h-43.3c-6.334,0-11.516-1.9-11.516-4.216h0c0-2.319,5.182-4.216,11.516-4.216h7.633c4.37,0,7.947-1.31,7.947-2.91h0c0-1.6-3.577-2.91-7.947-2.91h-50.084c-10.548,0-11.723,4.562-38.366,4.562H-491.4c-5.705,0-10.371,1.709-10.371,3.8h0c0,2.088,4.667,3.8,10.371,3.8h9.959c8.265,0,15.027,2.476,15.027,5.5h0c0,3.026-6.762,5.5-15.027,5.5h-14.988c-40.474,0-46.191,3.873-53.279,11.575s-43.905,8.324-43.905,8.324h-50.34c-12.455,0-22.645,3.731-22.645,8.291h0c0,4.56,10.19,8.291,22.645,8.291h2.592c11.979,0,21.78,3.589,21.78,7.975h0c0,4.386-9.8,7.974-21.78,7.974Zm337.482-69.77c-4.39,0-7.948-1.3-7.948-2.91s3.558-2.91,7.948-2.91,7.948,1.3,7.948,2.91S-299.49,647.274-303.878,647.274Z" transform="translate(354.517 -637.427)"/><path class="b" d="M-99.207,427.126l-41.365-.515-1.075-.013c-22.843-.284-40.9-7.359-40.12-15.722h0c.776-8.363,20.1-14.973,42.941-14.689l121.243,1.508,20.881.26,216.737,2.7c36.988.46,66.222,11.916,64.965,25.458h0c-1.256,13.542-32.546,24.245-69.533,23.786h0c-15.639-.194-28.868,4.331-29.4,10.057h0c-.531,5.726,11.829,10.57,27.468,10.765l34.221.425c16.259.2,29.11,5.238,28.558,11.192h0c-.553,5.953-14.307,10.658-30.567,10.456l-43.273-.538c-6.33-.079-11.685,1.753-11.9,4.071h0c-.215,2.318,4.788,4.278,11.118,4.357l7.629.095c4.368.054,7.821,1.407,7.672,3.007h0c-.148,1.6-3.844,2.864-8.212,2.81l-28.59-.356-21.465-.267c-10.542-.131-11.293-4.706-37.921-5.036l-76.723-.955c-5.7-.071-10.207-1.837-10.013-3.923h0c.193-2.087,5.016-3.737,10.717-3.666l9.953.124c8.26.1,15.247-2.288,15.528-5.311h0c.281-3.024-6.248-5.582-14.508-5.685l-14.979-.186c-40.45-.5-45.8-4.444-52.175-12.231S-54.5,460.232-54.5,460.232l-50.311-.626c-12.447-.155-22.286-4.01-21.863-8.568h0c.423-4.557,10.953-8.159,23.4-8l2.59.032c11.973.149,22.1-3.316,22.508-7.7h0c.407-4.384-9.056-8.092-21.029-8.241ZM231.611,501.05c-4.387-.055-8.065,1.2-8.214,2.809s3.287,2.953,7.674,3.007,8.064-1.2,8.213-2.81S236,501.1,231.611,501.05Z" transform="translate(354.517 -481.955)"/></g></g></g><path class="b" d="M850.33,223.5h94.061c50.624,0,92.043,20.244,92.043,44.985h0c0,24.742-41.419,44.985-92.043,44.985H149.045C67.069,313.471,0,280.691,0,240.628H0c0-40.065,67.069-72.844,149.043-72.844h0c34.661,0,63.018-13.859,63.018-30.8h0c0-16.94-28.359-30.8-63.02-30.8H73.2c-36.036,0-65.52-14.41-65.52-32.021h0c0-17.612,29.484-32.022,65.52-32.022h95.906c14.028,0,25.508-5.611,25.508-12.467h0c0-6.856-11.48-12.466-25.508-12.466H152.2c-9.682,0-17.6-3.872-17.6-8.6h0c0-4.732,7.921-8.6,17.6-8.6H263.137C286.5,0,289.1,13.49,348.118,13.49H518.162c12.635,0,22.972,5.053,22.972,11.226h0c0,6.174-10.337,11.226-22.972,11.226H496.1c-18.307,0-33.285,7.321-33.285,16.267h0c0,8.946,14.978,16.268,33.285,16.268h33.2c89.651,0,102.312,11.45,118.015,34.224s97.251,24.611,97.251,24.611h111.5c27.588,0,50.159,11.031,50.159,24.514h0c0,13.482-22.571,24.514-50.159,24.514H850.33c-26.534,0-48.245,10.611-48.245,23.579h0c0,12.968,21.712,23.578,48.245,23.578ZM102.8,17.208c9.724,0,17.6-3.853,17.6-8.6S112.521,0,102.8,0,85.192,3.853,85.192,8.6,93.075,17.208,102.8,17.208Z" transform="translate(0 106.516)"/></g></g><g transform="translate(22.87 1965.992)"><g transform="translate(26.016)"><path class="e" d="M295.151,124.732a2.266,2.266,0,1,1-2.266-2.268A2.267,2.267,0,0,1,295.151,124.732Z" transform="translate(-290.619 -122.464)"/><path class="e" d="M307.009,124.732a2.266,2.266,0,1,1-2.266-2.268A2.267,2.267,0,0,1,307.009,124.732Z" transform="translate(-272.118 -122.464)"/><circle class="e" cx="2.266" cy="2.266" r="2.266" transform="translate(60.72 0.001)"/><path class="e" d="M330.725,124.732a2.266,2.266,0,1,1-2.266-2.268A2.267,2.267,0,0,1,330.725,124.732Z" transform="translate(-235.114 -122.464)"/><path class="e" d="M295.151,136.316a2.266,2.266,0,1,1-2.266-2.266A2.265,2.265,0,0,1,295.151,136.316Z" transform="translate(-290.619 -104.387)"/><path class="e" d="M307.009,136.316a2.266,2.266,0,1,1-2.266-2.266A2.265,2.265,0,0,1,307.009,136.316Z" transform="translate(-272.118 -104.387)"/><path class="e" d="M318.868,136.316a2.266,2.266,0,1,1-2.266-2.266A2.265,2.265,0,0,1,318.868,136.316Z" transform="translate(-253.615 -104.387)"/><path class="e" d="M330.725,136.316a2.266,2.266,0,1,1-2.266-2.266A2.265,2.265,0,0,1,330.725,136.316Z" transform="translate(-235.114 -104.387)"/><path class="e" d="M295.151,147.9a2.266,2.266,0,1,1-2.266-2.266A2.265,2.265,0,0,1,295.151,147.9Z" transform="translate(-290.619 -86.311)"/><path class="e" d="M307.009,147.9a2.266,2.266,0,1,1-2.266-2.266A2.265,2.265,0,0,1,307.009,147.9Z" transform="translate(-272.118 -86.311)"/><circle class="e" cx="2.266" cy="2.266" r="2.266" transform="translate(60.72 59.326)"/><path class="e" d="M330.725,147.9a2.266,2.266,0,1,1-2.266-2.266A2.265,2.265,0,0,1,330.725,147.9Z" transform="translate(-235.114 -86.311)"/><path class="e" d="M295.151,159.808a2.266,2.266,0,1,1-2.266-2.266A2.267,2.267,0,0,1,295.151,159.808Z" transform="translate(-290.619 -67.735)"/><path class="e" d="M307.009,159.808a2.266,2.266,0,1,1-2.266-2.266A2.267,2.267,0,0,1,307.009,159.808Z" transform="translate(-272.118 -67.735)"/><circle class="e" cx="2.266" cy="2.266" r="2.266" transform="translate(60.72 89.806)"/><path class="e" d="M330.725,159.808a2.266,2.266,0,1,1-2.266-2.266A2.267,2.267,0,0,1,330.725,159.808Z" transform="translate(-235.114 -67.735)"/><path class="e" d="M295.151,171.393a2.266,2.266,0,1,1-2.266-2.266A2.267,2.267,0,0,1,295.151,171.393Z" transform="translate(-290.619 -49.66)"/><path class="e" d="M307.009,171.393a2.266,2.266,0,1,1-2.266-2.266A2.267,2.267,0,0,1,307.009,171.393Z" transform="translate(-272.118 -49.66)"/><circle class="e" cx="2.266" cy="2.266" r="2.266" transform="translate(60.72 119.468)"/><path class="e" d="M330.725,171.393a2.266,2.266,0,1,1-2.266-2.266A2.267,2.267,0,0,1,330.725,171.393Z" transform="translate(-235.114 -49.66)"/><path class="e" d="M295.151,182.979a2.266,2.266,0,1,1-2.266-2.266A2.265,2.265,0,0,1,295.151,182.979Z" transform="translate(-290.619 -31.583)"/><path class="e" d="M307.009,182.979a2.266,2.266,0,1,1-2.266-2.266A2.265,2.265,0,0,1,307.009,182.979Z" transform="translate(-272.118 -31.583)"/><circle class="e" cx="2.266" cy="2.266" r="2.266" transform="translate(60.72 149.13)"/><path class="e" d="M330.725,182.979a2.266,2.266,0,1,1-2.266-2.266A2.265,2.265,0,0,1,330.725,182.979Z" transform="translate(-235.114 -31.583)"/><circle class="e" cx="2.266" cy="2.266" r="2.266" transform="translate(122.96 0.001)"/><circle class="e" cx="2.266" cy="2.266" r="2.266" transform="translate(153.32 0.001)"/><path class="e" d="M366.895,124.732a2.266,2.266,0,1,1-2.266-2.268A2.267,2.267,0,0,1,366.895,124.732Z" transform="translate(-178.683 -122.464)"/><path class="e" d="M378.755,124.732a2.267,2.267,0,1,1-2.268-2.268A2.269,2.269,0,0,1,378.755,124.732Z" transform="translate(-160.182 -122.464)"/><path class="e" d="M343.177,136.316a2.266,2.266,0,1,1-2.266-2.266A2.265,2.265,0,0,1,343.177,136.316Z" transform="translate(-215.687 -104.387)"/><path class="e" d="M355.037,136.316a2.266,2.266,0,1,1-2.266-2.266A2.265,2.265,0,0,1,355.037,136.316Z" transform="translate(-197.184 -104.387)"/><path class="e" d="M366.895,136.316a2.266,2.266,0,1,1-2.266-2.266A2.265,2.265,0,0,1,366.895,136.316Z" transform="translate(-178.683 -104.387)"/><path class="e" d="M378.755,136.316a2.267,2.267,0,1,1-2.268-2.266A2.267,2.267,0,0,1,378.755,136.316Z" transform="translate(-160.182 -104.387)"/><circle class="e" cx="2.266" cy="2.266" r="2.266" transform="translate(122.96 59.326)"/><circle class="e" cx="2.266" cy="2.266" r="2.266" transform="translate(153.32 59.326)"/><path class="e" d="M366.895,147.9a2.266,2.266,0,1,1-2.266-2.266A2.265,2.265,0,0,1,366.895,147.9Z" transform="translate(-178.683 -86.311)"/><path class="e" d="M378.755,147.9a2.267,2.267,0,1,1-2.268-2.266A2.267,2.267,0,0,1,378.755,147.9Z" transform="translate(-160.182 -86.311)"/><circle class="e" cx="2.266" cy="2.266" r="2.266" transform="translate(122.96 89.806)"/><circle class="e" cx="2.266" cy="2.266" r="2.266" transform="translate(153.32 89.806)"/><path class="e" d="M366.895,159.808a2.266,2.266,0,1,1-2.266-2.266A2.267,2.267,0,0,1,366.895,159.808Z" transform="translate(-178.683 -67.735)"/><path class="e" d="M378.755,159.808a2.267,2.267,0,1,1-2.268-2.266A2.269,2.269,0,0,1,378.755,159.808Z" transform="translate(-160.182 -67.735)"/><circle class="e" cx="2.266" cy="2.266" r="2.266" transform="translate(122.96 119.468)"/><circle class="e" cx="2.266" cy="2.266" r="2.266" transform="translate(153.32 119.468)"/><path class="e" d="M366.895,171.393a2.266,2.266,0,1,1-2.266-2.266A2.267,2.267,0,0,1,366.895,171.393Z" transform="translate(-178.683 -49.66)"/><path class="e" d="M378.755,171.393a2.267,2.267,0,1,1-2.268-2.266A2.269,2.269,0,0,1,378.755,171.393Z" transform="translate(-160.182 -49.66)"/><circle class="e" cx="2.266" cy="2.266" r="2.266" transform="translate(122.96 149.13)"/><circle class="e" cx="2.266" cy="2.266" r="2.266" transform="translate(153.32 149.13)"/><path class="e" d="M366.895,182.979a2.266,2.266,0,1,1-2.266-2.266A2.265,2.265,0,0,1,366.895,182.979Z" transform="translate(-178.683 -31.583)"/><path class="e" d="M378.755,182.979a2.267,2.267,0,1,1-2.268-2.266A2.267,2.267,0,0,1,378.755,182.979Z" transform="translate(-160.182 -31.583)"/><path class="e" d="M391.205,124.732a2.266,2.266,0,1,1-2.266-2.268A2.267,2.267,0,0,1,391.205,124.732Z" transform="translate(-140.753 -122.464)"/><path class="e" d="M403.064,124.732a2.266,2.266,0,1,1-2.266-2.268A2.267,2.267,0,0,1,403.064,124.732Z" transform="translate(-122.252 -122.464)"/><circle class="e" cx="2.266" cy="2.266" r="2.266" transform="translate(306.64 0.001)"/><path class="e" d="M391.205,136.316a2.266,2.266,0,1,1-2.266-2.266A2.265,2.265,0,0,1,391.205,136.316Z" transform="translate(-140.753 -104.387)"/><path class="e" d="M403.064,136.316a2.266,2.266,0,1,1-2.266-2.266A2.265,2.265,0,0,1,403.064,136.316Z" transform="translate(-122.252 -104.387)"/><path class="e" d="M414.924,136.316a2.267,2.267,0,1,1-2.268-2.266A2.267,2.267,0,0,1,414.924,136.316Z" transform="translate(-103.751 -104.387)"/><path class="e" d="M391.205,147.9a2.266,2.266,0,1,1-2.266-2.266A2.265,2.265,0,0,1,391.205,147.9Z" transform="translate(-140.753 -86.311)"/><path class="e" d="M403.064,147.9a2.266,2.266,0,1,1-2.266-2.266A2.265,2.265,0,0,1,403.064,147.9Z" transform="translate(-122.252 -86.311)"/><circle class="e" cx="2.266" cy="2.266" r="2.266" transform="translate(306.64 59.326)"/><path class="e" d="M391.205,159.808a2.266,2.266,0,1,1-2.266-2.266A2.267,2.267,0,0,1,391.205,159.808Z" transform="translate(-140.753 -67.735)"/><path class="e" d="M403.064,159.808a2.266,2.266,0,1,1-2.266-2.266A2.267,2.267,0,0,1,403.064,159.808Z" transform="translate(-122.252 -67.735)"/><circle class="e" cx="2.266" cy="2.266" r="2.266" transform="translate(306.64 89.806)"/><path class="e" d="M391.205,171.393a2.266,2.266,0,1,1-2.266-2.266A2.267,2.267,0,0,1,391.205,171.393Z" transform="translate(-140.753 -49.66)"/><path class="e" d="M403.064,171.393a2.266,2.266,0,1,1-2.266-2.266A2.267,2.267,0,0,1,403.064,171.393Z" transform="translate(-122.252 -49.66)"/><circle class="e" cx="2.266" cy="2.266" r="2.266" transform="translate(306.64 119.468)"/><path class="e" d="M391.205,182.979a2.266,2.266,0,1,1-2.266-2.266A2.265,2.265,0,0,1,391.205,182.979Z" transform="translate(-140.753 -31.583)"/><path class="e" d="M403.064,182.979a2.266,2.266,0,1,1-2.266-2.266A2.265,2.265,0,0,1,403.064,182.979Z" transform="translate(-122.252 -31.583)"/><circle class="e" cx="2.266" cy="2.266" r="2.266" transform="translate(306.64 149.13)"/></g><g transform="translate(1516.06 289.422)"><path class="e" d="M558.818,377.364a2.266,2.266,0,1,1-2.266-2.266A2.268,2.268,0,0,1,558.818,377.364Z" transform="translate(-554.286 -375.097)"/><circle class="e" cx="2.266" cy="2.266" r="2.266" transform="translate(30.358)"/><circle class="e" cx="2.266" cy="2.266" r="2.266" transform="translate(60.718)"/><circle class="e" cx="2.266" cy="2.266" r="2.266" transform="translate(91.079)"/><path class="e" d="M558.818,388.949a2.266,2.266,0,1,1-2.266-2.266A2.269,2.269,0,0,1,558.818,388.949Z" transform="translate(-554.286 -357.022)"/><circle class="e" cx="2.266" cy="2.266" r="2.266" transform="translate(30.358 29.662)"/><circle class="e" cx="2.266" cy="2.266" r="2.266" transform="translate(60.718 29.662)"/><circle class="e" cx="2.266" cy="2.266" r="2.266" transform="translate(91.079 29.662)"/><path class="e" d="M558.818,400.535a2.266,2.266,0,1,1-2.266-2.266A2.269,2.269,0,0,1,558.818,400.535Z" transform="translate(-554.286 -338.945)"/><circle class="e" cx="2.266" cy="2.266" r="2.266" transform="translate(30.358 59.324)"/><circle class="e" cx="2.266" cy="2.266" r="2.266" transform="translate(60.718 59.324)"/><circle class="e" cx="2.266" cy="2.266" r="2.266" transform="translate(91.079 59.324)"/><path class="e" d="M558.818,412.441a2.266,2.266,0,1,1-2.266-2.266A2.267,2.267,0,0,1,558.818,412.441Z" transform="translate(-554.286 -320.369)"/><circle class="e" cx="2.266" cy="2.266" r="2.266" transform="translate(30.358 89.805)"/><circle class="e" cx="2.266" cy="2.266" r="2.266" transform="translate(60.718 89.805)"/><circle class="e" cx="2.266" cy="2.266" r="2.266" transform="translate(91.079 89.805)"/><path class="e" d="M558.818,424.027a2.266,2.266,0,1,1-2.266-2.266A2.268,2.268,0,0,1,558.818,424.027Z" transform="translate(-554.286 -302.293)"/><circle class="e" cx="2.266" cy="2.266" r="2.266" transform="translate(30.358 119.467)"/><circle class="e" cx="2.266" cy="2.266" r="2.266" transform="translate(60.718 119.467)"/><circle class="e" cx="2.266" cy="2.266" r="2.266" transform="translate(91.079 119.467)"/><path class="e" d="M558.818,435.612a2.266,2.266,0,1,1-2.266-2.266A2.269,2.269,0,0,1,558.818,435.612Z" transform="translate(-554.286 -284.218)"/><circle class="e" cx="2.266" cy="2.266" r="2.266" transform="translate(30.358 149.129)"/><circle class="e" cx="2.266" cy="2.266" r="2.266" transform="translate(60.718 149.129)"/><circle class="e" cx="2.266" cy="2.266" r="2.266" transform="translate(91.079 149.129)"/><circle class="e" cx="2.266" cy="2.266" r="2.266" transform="translate(122.959)"/><path class="e" d="M618.7,377.364a2.266,2.266,0,1,1-2.266-2.266A2.267,2.267,0,0,1,618.7,377.364Z" transform="translate(-460.853 -375.097)"/><circle class="e" cx="2.266" cy="2.266" r="2.266" transform="translate(183.679)"/><circle class="e" cx="2.266" cy="2.266" r="2.266" transform="translate(214.039)"/><circle class="e" cx="2.266" cy="2.266" r="2.266" transform="translate(122.959 29.662)"/><path class="e" d="M618.7,388.949a2.266,2.266,0,1,1-2.266-2.266A2.267,2.267,0,0,1,618.7,388.949Z" transform="translate(-460.853 -357.022)"/><circle class="e" cx="2.266" cy="2.266" r="2.266" transform="translate(183.679 29.662)"/><circle class="e" cx="2.266" cy="2.266" r="2.266" transform="translate(214.039 29.662)"/><circle class="e" cx="2.266" cy="2.266" r="2.266" transform="translate(122.959 59.324)"/><path class="e" d="M618.7,400.535a2.266,2.266,0,1,1-2.266-2.266A2.267,2.267,0,0,1,618.7,400.535Z" transform="translate(-460.853 -338.945)"/><circle class="e" cx="2.266" cy="2.266" r="2.266" transform="translate(183.679 59.324)"/><circle class="e" cx="2.266" cy="2.266" r="2.266" transform="translate(214.039 59.324)"/><circle class="e" cx="2.266" cy="2.266" r="2.266" transform="translate(122.959 89.805)"/><path class="e" d="M618.7,412.441a2.266,2.266,0,1,1-2.266-2.266A2.265,2.265,0,0,1,618.7,412.441Z" transform="translate(-460.853 -320.369)"/><circle class="e" cx="2.266" cy="2.266" r="2.266" transform="translate(183.679 89.805)"/><circle class="e" cx="2.266" cy="2.266" r="2.266" transform="translate(214.039 89.805)"/><circle class="e" cx="2.266" cy="2.266" r="2.266" transform="translate(122.959 119.467)"/><path class="e" d="M618.7,424.027a2.266,2.266,0,1,1-2.266-2.266A2.267,2.267,0,0,1,618.7,424.027Z" transform="translate(-460.853 -302.293)"/><circle class="e" cx="2.266" cy="2.266" r="2.266" transform="translate(183.679 119.467)"/><circle class="e" cx="2.266" cy="2.266" r="2.266" transform="translate(214.039 119.467)"/><circle class="e" cx="2.266" cy="2.266" r="2.266" transform="translate(122.959 149.129)"/><path class="e" d="M618.7,435.612a2.266,2.266,0,1,1-2.266-2.266A2.267,2.267,0,0,1,618.7,435.612Z" transform="translate(-460.853 -284.218)"/><circle class="e" cx="2.266" cy="2.266" r="2.266" transform="translate(183.679 149.129)"/><circle class="e" cx="2.266" cy="2.266" r="2.266" transform="translate(214.039 149.129)"/><circle class="e" cx="2.266" cy="2.266" r="2.266" transform="translate(245.919)"/><circle class="e" cx="2.266" cy="2.266" r="2.266" transform="translate(276.279)"/><circle class="e" cx="2.266" cy="2.266" r="2.266" transform="translate(306.639)"/><circle class="e" cx="2.266" cy="2.266" r="2.266" transform="translate(245.919 29.662)"/><circle class="e" cx="2.266" cy="2.266" r="2.266" transform="translate(276.279 29.662)"/><circle class="e" cx="2.266" cy="2.266" r="2.266" transform="translate(306.639 29.662)"/><circle class="e" cx="2.266" cy="2.266" r="2.266" transform="translate(245.919 59.324)"/><circle class="e" cx="2.266" cy="2.266" r="2.266" transform="translate(276.279 59.324)"/><circle class="e" cx="2.266" cy="2.266" r="2.266" transform="translate(306.639 59.324)"/><circle class="e" cx="2.266" cy="2.266" r="2.266" transform="translate(245.919 89.805)"/><circle class="e" cx="2.266" cy="2.266" r="2.266" transform="translate(276.279 89.805)"/><circle class="e" cx="2.266" cy="2.266" r="2.266" transform="translate(306.639 89.805)"/><circle class="e" cx="2.266" cy="2.266" r="2.266" transform="translate(245.919 119.467)"/><circle class="e" cx="2.266" cy="2.266" r="2.266" transform="translate(276.279 119.467)"/><circle class="e" cx="2.266" cy="2.266" r="2.266" transform="translate(306.639 119.467)"/><circle class="e" cx="2.266" cy="2.266" r="2.266" transform="translate(245.919 149.129)"/><circle class="e" cx="2.266" cy="2.266" r="2.266" transform="translate(276.279 149.129)"/><circle class="e" cx="2.266" cy="2.266" r="2.266" transform="translate(306.639 149.129)"/></g><g transform="translate(0 364.687)"><path class="e" d="M559.066,377.488a2.39,2.39,0,1,1-2.39-2.39A2.393,2.393,0,0,1,559.066,377.488Z" transform="translate(-554.286 -375.097)"/><circle class="e" cx="2.39" cy="2.39" r="2.39" transform="translate(32.023)"/><circle class="e" cx="2.39" cy="2.39" r="2.39" transform="translate(64.047)"/><circle class="e" cx="2.39" cy="2.39" r="2.39" transform="translate(96.072)"/><path class="e" d="M559.066,389.073a2.39,2.39,0,1,1-2.39-2.39A2.393,2.393,0,0,1,559.066,389.073Z" transform="translate(-554.286 -355.396)"/><circle class="e" cx="2.39" cy="2.39" r="2.39" transform="translate(32.023 31.288)"/><circle class="e" cx="2.39" cy="2.39" r="2.39" transform="translate(64.047 31.288)"/><circle class="e" cx="2.39" cy="2.39" r="2.39" transform="translate(96.072 31.288)"/><path class="e" d="M559.066,400.659a2.39,2.39,0,1,1-2.39-2.39A2.393,2.393,0,0,1,559.066,400.659Z" transform="translate(-554.286 -335.693)"/><circle class="e" cx="2.39" cy="2.39" r="2.39" transform="translate(32.023 62.577)"/><circle class="e" cx="2.39" cy="2.39" r="2.39" transform="translate(64.047 62.577)"/><circle class="e" cx="2.39" cy="2.39" r="2.39" transform="translate(96.072 62.577)"/><path class="e" d="M559.066,412.565a2.39,2.39,0,1,1-2.39-2.39A2.391,2.391,0,0,1,559.066,412.565Z" transform="translate(-554.286 -315.446)"/><circle class="e" cx="2.39" cy="2.39" r="2.39" transform="translate(32.023 94.728)"/><circle class="e" cx="2.39" cy="2.39" r="2.39" transform="translate(64.047 94.728)"/><circle class="e" cx="2.39" cy="2.39" r="2.39" transform="translate(96.072 94.728)"/><path class="e" d="M559.066,424.151a2.39,2.39,0,1,1-2.39-2.39A2.393,2.393,0,0,1,559.066,424.151Z" transform="translate(-554.286 -295.743)"/><circle class="e" cx="2.39" cy="2.39" r="2.39" transform="translate(32.023 126.017)"/><circle class="e" cx="2.39" cy="2.39" r="2.39" transform="translate(64.047 126.017)"/><circle class="e" cx="2.39" cy="2.39" r="2.39" transform="translate(96.072 126.017)"/><path class="e" d="M559.066,435.736a2.39,2.39,0,1,1-2.39-2.39A2.393,2.393,0,0,1,559.066,435.736Z" transform="translate(-554.286 -276.042)"/><circle class="e" cx="2.39" cy="2.39" r="2.39" transform="translate(32.023 157.305)"/><circle class="e" cx="2.39" cy="2.39" r="2.39" transform="translate(64.047 157.305)"/><circle class="e" cx="2.39" cy="2.39" r="2.39" transform="translate(96.072 157.305)"/><circle class="e" cx="2.39" cy="2.39" r="2.39" transform="translate(129.7)"/><path class="e" d="M618.951,377.488a2.39,2.39,0,1,1-2.39-2.39A2.391,2.391,0,0,1,618.951,377.488Z" transform="translate(-452.447 -375.097)"/><circle class="e" cx="2.39" cy="2.39" r="2.39" transform="translate(193.749)"/><circle class="e" cx="2.39" cy="2.39" r="2.39" transform="translate(225.773)"/><circle class="e" cx="2.39" cy="2.39" r="2.39" transform="translate(129.7 31.288)"/><path class="e" d="M618.951,389.073a2.39,2.39,0,1,1-2.39-2.39A2.391,2.391,0,0,1,618.951,389.073Z" transform="translate(-452.447 -355.396)"/><circle class="e" cx="2.39" cy="2.39" r="2.39" transform="translate(193.749 31.288)"/><circle class="e" cx="2.39" cy="2.39" r="2.39" transform="translate(225.773 31.288)"/><circle class="e" cx="2.39" cy="2.39" r="2.39" transform="translate(129.7 62.577)"/><path class="e" d="M618.951,400.659a2.39,2.39,0,1,1-2.39-2.39A2.391,2.391,0,0,1,618.951,400.659Z" transform="translate(-452.447 -335.693)"/><circle class="e" cx="2.39" cy="2.39" r="2.39" transform="translate(193.749 62.577)"/><circle class="e" cx="2.39" cy="2.39" r="2.39" transform="translate(225.773 62.577)"/><circle class="e" cx="2.39" cy="2.39" r="2.39" transform="translate(129.7 94.728)"/><path class="e" d="M618.951,412.565a2.39,2.39,0,1,1-2.39-2.39A2.389,2.389,0,0,1,618.951,412.565Z" transform="translate(-452.447 -315.446)"/><circle class="e" cx="2.39" cy="2.39" r="2.39" transform="translate(193.749 94.728)"/><circle class="e" cx="2.39" cy="2.39" r="2.39" transform="translate(225.773 94.728)"/><circle class="e" cx="2.39" cy="2.39" r="2.39" transform="translate(129.7 126.017)"/><path class="e" d="M618.951,424.151a2.39,2.39,0,1,1-2.39-2.39A2.391,2.391,0,0,1,618.951,424.151Z" transform="translate(-452.447 -295.743)"/><circle class="e" cx="2.39" cy="2.39" r="2.39" transform="translate(193.749 126.017)"/><circle class="e" cx="2.39" cy="2.39" r="2.39" transform="translate(225.773 126.017)"/><circle class="e" cx="2.39" cy="2.39" r="2.39" transform="translate(129.7 157.305)"/><path class="e" d="M618.951,435.736a2.39,2.39,0,1,1-2.39-2.39A2.391,2.391,0,0,1,618.951,435.736Z" transform="translate(-452.447 -276.042)"/><circle class="e" cx="2.39" cy="2.39" r="2.39" transform="translate(193.749 157.305)"/><circle class="e" cx="2.39" cy="2.39" r="2.39" transform="translate(225.773 157.305)"/><circle class="e" cx="2.39" cy="2.39" r="2.39" transform="translate(259.401)"/><circle class="e" cx="2.39" cy="2.39" r="2.39" transform="translate(291.426)"/><circle class="e" cx="2.39" cy="2.39" r="2.39" transform="translate(323.451)"/><circle class="e" cx="2.39" cy="2.39" r="2.39" transform="translate(259.401 31.288)"/><circle class="e" cx="2.39" cy="2.39" r="2.39" transform="translate(291.426 31.288)"/><circle class="e" cx="2.39" cy="2.39" r="2.39" transform="translate(323.451 31.288)"/><circle class="e" cx="2.39" cy="2.39" r="2.39" transform="translate(259.401 62.577)"/><circle class="e" cx="2.39" cy="2.39" r="2.39" transform="translate(291.426 62.577)"/><circle class="e" cx="2.39" cy="2.39" r="2.39" transform="translate(323.451 62.577)"/><circle class="e" cx="2.39" cy="2.39" r="2.39" transform="translate(259.401 94.728)"/><circle class="e" cx="2.39" cy="2.39" r="2.39" transform="translate(291.426 94.728)"/><circle class="e" cx="2.39" cy="2.39" r="2.39" transform="translate(323.451 94.728)"/><circle class="e" cx="2.39" cy="2.39" r="2.39" transform="translate(259.401 126.017)"/><circle class="e" cx="2.39" cy="2.39" r="2.39" transform="translate(291.426 126.017)"/><circle class="e" cx="2.39" cy="2.39" r="2.39" transform="translate(323.451 126.017)"/><circle class="e" cx="2.39" cy="2.39" r="2.39" transform="translate(259.401 157.305)"/><circle class="e" cx="2.39" cy="2.39" r="2.39" transform="translate(291.426 157.305)"/><circle class="e" cx="2.39" cy="2.39" r="2.39" transform="translate(323.451 157.305)"/></g><path class="f" d="M494.773,511.318a2.908,2.908,0,1,1,5.816,0V524.4a2.908,2.908,0,1,1-5.816,0V511.318ZM474.94,521.943a2.91,2.91,0,1,1,4.113-4.117l9.254,9.254a2.909,2.909,0,0,1-4.113,4.116l-9.254-9.253Zm-6.51,21.539a2.911,2.911,0,1,1,0-5.823h13.086a2.912,2.912,0,0,1,0,5.823Zm10.623,19.832a2.909,2.909,0,1,1-4.113-4.116l9.254-9.254a2.909,2.909,0,0,1,4.113,4.114l-9.254,9.256Zm21.536,6.508a2.908,2.908,0,0,1-5.816,0V556.731a2.908,2.908,0,1,1,5.816,0v13.091ZM520.422,559.2a2.91,2.91,0,1,1-4.116,4.116l-9.255-9.256a2.91,2.91,0,0,1,4.116-4.114l9.255,9.254Zm6.51-21.539a2.911,2.911,0,0,1,0,5.823H513.844a2.911,2.911,0,0,1,0-5.823Zm-10.626-19.833a2.911,2.911,0,0,1,4.116,4.117l-9.255,9.253a2.91,2.91,0,0,1-4.116-4.116Z" transform="translate(1036.406 -482.036)"/><path class="f" d="M494.773,511.318a2.908,2.908,0,1,1,5.816,0V524.4a2.908,2.908,0,1,1-5.816,0V511.318ZM474.94,521.943a2.91,2.91,0,1,1,4.113-4.117l9.254,9.254a2.909,2.909,0,0,1-4.113,4.116l-9.254-9.253Zm-6.51,21.539a2.911,2.911,0,1,1,0-5.823h13.086a2.912,2.912,0,0,1,0,5.823Zm10.623,19.832a2.909,2.909,0,1,1-4.113-4.116l9.254-9.254a2.909,2.909,0,0,1,4.113,4.114l-9.254,9.256Zm21.536,6.508a2.908,2.908,0,0,1-5.816,0V556.731a2.908,2.908,0,1,1,5.816,0v13.091ZM520.422,559.2a2.91,2.91,0,1,1-4.116,4.116l-9.255-9.256a2.91,2.91,0,0,1,4.116-4.114l9.255,9.254Zm6.51-21.539a2.911,2.911,0,0,1,0,5.823H513.844a2.911,2.911,0,0,1,0-5.823Zm-10.626-19.833a2.911,2.911,0,0,1,4.116,4.117l-9.255,9.253a2.91,2.91,0,0,1-4.116-4.116Z" transform="translate(200.406 -191.573)"/><path class="f" d="M494.773,511.318a2.908,2.908,0,1,1,5.816,0V524.4a2.908,2.908,0,1,1-5.816,0V511.318ZM474.94,521.943a2.91,2.91,0,1,1,4.113-4.117l9.254,9.254a2.909,2.909,0,0,1-4.113,4.116l-9.254-9.253Zm-6.51,21.539a2.911,2.911,0,1,1,0-5.823h13.086a2.912,2.912,0,0,1,0,5.823Zm10.623,19.832a2.909,2.909,0,1,1-4.113-4.116l9.254-9.254a2.909,2.909,0,0,1,4.113,4.114l-9.254,9.256Zm21.536,6.508a2.908,2.908,0,0,1-5.816,0V556.731a2.908,2.908,0,1,1,5.816,0v13.091ZM520.422,559.2a2.91,2.91,0,1,1-4.116,4.116l-9.255-9.256a2.91,2.91,0,0,1,4.116-4.114l9.255,9.254Zm6.51-21.539a2.911,2.911,0,0,1,0,5.823H513.844a2.911,2.911,0,0,1,0-5.823Zm-10.626-19.833a2.911,2.911,0,0,1,4.116,4.117l-9.255,9.253a2.91,2.91,0,0,1-4.116-4.116Z" transform="translate(-315.594 82.279)"/><path class="f" d="M494.773,511.318a2.908,2.908,0,1,1,5.816,0V524.4a2.908,2.908,0,1,1-5.816,0V511.318ZM474.94,521.943a2.91,2.91,0,1,1,4.113-4.117l9.254,9.254a2.909,2.909,0,0,1-4.113,4.116l-9.254-9.253Zm-6.51,21.539a2.911,2.911,0,1,1,0-5.823h13.086a2.912,2.912,0,0,1,0,5.823Zm10.623,19.832a2.909,2.909,0,1,1-4.113-4.116l9.254-9.254a2.909,2.909,0,0,1,4.113,4.114l-9.254,9.256Zm21.536,6.508a2.908,2.908,0,0,1-5.816,0V556.731a2.908,2.908,0,1,1,5.816,0v13.091ZM520.422,559.2a2.91,2.91,0,1,1-4.116,4.116l-9.255-9.256a2.91,2.91,0,0,1,4.116-4.114l9.255,9.254Zm6.51-21.539a2.911,2.911,0,0,1,0,5.823H513.844a2.911,2.911,0,0,1,0-5.823Zm-10.626-19.833a2.911,2.911,0,0,1,4.116,4.117l-9.255,9.253a2.91,2.91,0,0,1-4.116-4.116Z" transform="translate(1431.406 -249.813)"/></g></g></svg>