<svg xmlns="http://www.w3.org/2000/svg" width="1727.668" height="659.379" viewBox="0 0 1727.668 659.379"><defs><style>.a{fill:#eeebfd;}.a,.b{fill-rule:evenodd;}.b{fill:#d3cdec;}</style></defs><g transform="translate(-959.518 -3122.359)"><g transform="translate(-282 3122.617)"><path class="a" d="M850.33,457.3h94.061c50.624,0,92.043,41.421,92.043,92.043h0c0,50.625-41.419,92.043-92.043,92.043H149.045C67.069,641.388,0,574.319,0,492.346H0C0,410.37,67.069,343.3,149.043,343.3h0a63.2,63.2,0,0,0,63.018-63.017h0a63.205,63.205,0,0,0-63.02-63.02H73.2A65.712,65.712,0,0,1,7.68,151.745h0A65.713,65.713,0,0,1,73.2,86.225h95.906a25.585,25.585,0,0,0,25.508-25.508h0A25.584,25.584,0,0,0,169.106,35.21H152.2a17.656,17.656,0,0,1-17.6-17.6h0A17.656,17.656,0,0,1,152.2,0H263.137C286.5,0,289.1,27.6,348.118,27.6H518.162a23.041,23.041,0,0,1,22.972,22.97v0a23.039,23.039,0,0,1-22.972,22.97H496.1a33.384,33.384,0,0,0-33.285,33.283v0A33.384,33.384,0,0,0,496.1,140.114h33.2c89.651,0,102.312,23.428,118.015,70.026S744.566,260.5,744.566,260.5h111.5a50.306,50.306,0,0,1,50.159,50.157v0a50.306,50.306,0,0,1-50.159,50.157H850.33a48.389,48.389,0,0,0-48.245,48.245h0A48.387,48.387,0,0,0,850.33,457.3ZM102.8,35.21a17.605,17.605,0,1,0-17.605-17.6A17.605,17.605,0,0,0,102.8,35.21Z" transform="matrix(-1, 0.017, -0.017, -1, 2969.186, 641.033)"/></g><g transform="translate(0 173)"><path class="b" d="M1657.5,705.96a2.908,2.908,0,0,1,5.816,0v13.082a2.908,2.908,0,1,1-5.816,0V705.96Zm-19.833,10.624a2.909,2.909,0,1,1,4.113-4.116l9.255,9.253a2.91,2.91,0,0,1-4.113,4.117l-9.255-9.254Zm-6.51,21.537a2.911,2.911,0,1,1,0-5.823h13.086a2.912,2.912,0,0,1,0,5.823Zm10.623,19.835a2.909,2.909,0,0,1-4.113-4.116l9.255-9.254a2.909,2.909,0,0,1,4.113,4.116l-9.255,9.254Zm21.536,6.508a2.908,2.908,0,0,1-5.816,0V751.372a2.908,2.908,0,0,1,5.816,0v13.092Zm19.833-10.624a2.91,2.91,0,0,1-4.116,4.116l-9.255-9.254a2.91,2.91,0,0,1,4.116-4.116l9.255,9.254Zm6.509-21.542a2.911,2.911,0,1,1,0,5.823h-13.086a2.911,2.911,0,0,1,0-5.823Zm-10.625-19.83a2.91,2.91,0,0,1,4.116,4.116l-9.255,9.254a2.911,2.911,0,0,1-4.116-4.117Z" transform="translate(-668.723 2548.498)"/><path class="b" d="M1657.5,705.96a2.908,2.908,0,0,1,5.816,0v13.082a2.908,2.908,0,1,1-5.816,0V705.96Zm-19.833,10.624a2.909,2.909,0,1,1,4.113-4.116l9.255,9.253a2.91,2.91,0,0,1-4.113,4.117l-9.255-9.254Zm-6.51,21.537a2.911,2.911,0,1,1,0-5.823h13.086a2.912,2.912,0,0,1,0,5.823Zm10.623,19.835a2.909,2.909,0,0,1-4.113-4.116l9.255-9.254a2.909,2.909,0,0,1,4.113,4.116l-9.255,9.254Zm21.536,6.508a2.908,2.908,0,0,1-5.816,0V751.372a2.908,2.908,0,0,1,5.816,0v13.092Zm19.833-10.624a2.91,2.91,0,0,1-4.116,4.116l-9.255-9.254a2.91,2.91,0,0,1,4.116-4.116l9.255,9.254Zm6.509-21.542a2.911,2.911,0,1,1,0,5.823h-13.086a2.911,2.911,0,0,1,0-5.823Zm-10.625-19.83a2.91,2.91,0,0,1,4.116,4.116l-9.255,9.254a2.911,2.911,0,0,1-4.116-4.117Z" transform="translate(160.277 2360.498)"/></g></g></svg>