<svg xmlns="http://www.w3.org/2000/svg" xmlns:xlink="http://www.w3.org/1999/xlink" width="1920" height="902" viewBox="0 0 1920 902"><defs><style>.a,.e{fill:#f9ebfd;}.b,.c{fill:#f1caef;}.c,.e{fill-rule:evenodd;}.d{clip-path:url(#a);}</style><clipPath id="a"><rect class="a" width="1920" height="902"/></clipPath></defs><g transform="translate(0 -3907)"><g transform="translate(183.518 3994.097)"><g transform="translate(1272.678)"><path class="b" d="M15.041,34.776a2.061,2.061,0,1,0-2.06,2.061A2.06,2.06,0,0,0,15.041,34.776Z" transform="translate(-10.919 102.904)"/><path class="b" d="M58.443,34.776a2.06,2.06,0,1,0-2.06,2.061A2.06,2.06,0,0,0,58.443,34.776Z" transform="translate(-26.712 102.904)"/><circle class="b" cx="2.061" cy="2.061" r="2.061" transform="translate(55.22 135.62)"/><path class="b" d="M145.248,34.776a2.061,2.061,0,1,0-2.06,2.061A2.06,2.06,0,0,0,145.248,34.776Z" transform="translate(-58.297 102.904)"/><path class="b" d="M15.041,77.182a2.061,2.061,0,1,0-2.06,2.06A2.06,2.06,0,0,0,15.041,77.182Z" transform="translate(-10.919 33.524)"/><path class="b" d="M58.443,77.182a2.06,2.06,0,1,0-2.06,2.06A2.06,2.06,0,0,0,58.443,77.182Z" transform="translate(-26.712 33.524)"/><path class="b" d="M101.846,77.182a2.061,2.061,0,1,0-2.061,2.06A2.061,2.061,0,0,0,101.846,77.182Z" transform="translate(-42.504 33.524)"/><path class="b" d="M145.248,77.182a2.061,2.061,0,1,0-2.06,2.06A2.06,2.06,0,0,0,145.248,77.182Z" transform="translate(-58.297 33.524)"/><path class="b" d="M15.041,119.587a2.061,2.061,0,1,0-2.06,2.06A2.061,2.061,0,0,0,15.041,119.587Z" transform="translate(-10.919 -35.856)"/><path class="b" d="M58.443,119.587a2.06,2.06,0,1,0-2.06,2.06A2.061,2.061,0,0,0,58.443,119.587Z" transform="translate(-26.712 -35.856)"/><circle class="b" cx="2.061" cy="2.061" r="2.061" transform="translate(55.22 81.67)"/><path class="b" d="M145.248,119.587a2.061,2.061,0,1,0-2.06,2.06A2.061,2.061,0,0,0,145.248,119.587Z" transform="translate(-58.297 -35.856)"/><path class="b" d="M15.041,163.16a2.061,2.061,0,1,0-2.06,2.061A2.06,2.06,0,0,0,15.041,163.16Z" transform="translate(-10.919 -107.149)"/><path class="b" d="M58.443,163.16a2.06,2.06,0,1,0-2.06,2.061A2.06,2.06,0,0,0,58.443,163.16Z" transform="translate(-26.712 -107.149)"/><circle class="b" cx="2.061" cy="2.061" r="2.061" transform="translate(55.22 53.951)"/><path class="b" d="M145.248,163.16a2.061,2.061,0,1,0-2.06,2.061A2.06,2.06,0,0,0,145.248,163.16Z" transform="translate(-58.297 -107.149)"/><path class="b" d="M15.041,205.565a2.061,2.061,0,1,0-2.06,2.061A2.06,2.06,0,0,0,15.041,205.565Z" transform="translate(-10.919 -176.53)"/><path class="b" d="M58.443,205.565a2.06,2.06,0,1,0-2.06,2.061A2.06,2.06,0,0,0,58.443,205.565Z" transform="translate(-26.712 -176.53)"/><circle class="b" cx="2.061" cy="2.061" r="2.061" transform="translate(55.22 26.975)"/><path class="b" d="M145.248,205.565a2.061,2.061,0,1,0-2.06,2.061A2.06,2.06,0,0,0,145.248,205.565Z" transform="translate(-58.297 -176.53)"/><path class="b" d="M15.041,247.97a2.061,2.061,0,1,0-2.06,2.061A2.06,2.06,0,0,0,15.041,247.97Z" transform="translate(-10.919 -245.91)"/><path class="b" d="M58.443,247.97a2.06,2.06,0,1,0-2.06,2.061A2.06,2.06,0,0,0,58.443,247.97Z" transform="translate(-26.712 -245.91)"/><circle class="b" cx="2.061" cy="2.061" r="2.061" transform="translate(55.22)"/><path class="b" d="M145.248,247.97a2.061,2.061,0,1,0-2.06,2.061A2.06,2.06,0,0,0,145.248,247.97Z" transform="translate(-58.297 -245.91)"/><circle class="b" cx="2.061" cy="2.061" r="2.061" transform="translate(111.822 135.62)"/><circle class="b" cx="2.061" cy="2.061" r="2.061" transform="translate(139.432 135.62)"/><path class="b" d="M277.629,34.776a2.061,2.061,0,1,0-2.061,2.061A2.061,2.061,0,0,0,277.629,34.776Z" transform="translate(-106.465 102.904)"/><path class="b" d="M321.031,34.776a2.061,2.061,0,1,0-2.061,2.061A2.06,2.06,0,0,0,321.031,34.776Z" transform="translate(-122.258 102.904)"/><path class="b" d="M190.824,77.182a2.061,2.061,0,1,0-2.061,2.06A2.061,2.061,0,0,0,190.824,77.182Z" transform="translate(-74.88 33.524)"/><path class="b" d="M234.226,77.182a2.061,2.061,0,1,0-2.06,2.06A2.06,2.06,0,0,0,234.226,77.182Z" transform="translate(-90.673 33.524)"/><path class="b" d="M277.629,77.182a2.061,2.061,0,1,0-2.061,2.06A2.061,2.061,0,0,0,277.629,77.182Z" transform="translate(-106.465 33.524)"/><path class="b" d="M321.031,77.182a2.061,2.061,0,1,0-2.061,2.06A2.061,2.061,0,0,0,321.031,77.182Z" transform="translate(-122.258 33.524)"/><circle class="b" cx="2.061" cy="2.061" r="2.061" transform="translate(111.822 81.67)"/><circle class="b" cx="2.061" cy="2.061" r="2.061" transform="translate(139.432 81.67)"/><path class="b" d="M277.629,119.587a2.061,2.061,0,1,0-2.061,2.06A2.061,2.061,0,0,0,277.629,119.587Z" transform="translate(-106.465 -35.856)"/><path class="b" d="M321.031,119.587a2.061,2.061,0,1,0-2.061,2.06A2.061,2.061,0,0,0,321.031,119.587Z" transform="translate(-122.258 -35.856)"/><circle class="b" cx="2.061" cy="2.061" r="2.061" transform="translate(111.822 53.951)"/><circle class="b" cx="2.061" cy="2.061" r="2.061" transform="translate(139.432 53.951)"/><path class="b" d="M277.629,163.16a2.061,2.061,0,1,0-2.061,2.061A2.061,2.061,0,0,0,277.629,163.16Z" transform="translate(-106.465 -107.149)"/><path class="b" d="M321.031,163.16a2.061,2.061,0,1,0-2.061,2.061A2.06,2.06,0,0,0,321.031,163.16Z" transform="translate(-122.258 -107.149)"/><circle class="b" cx="2.061" cy="2.061" r="2.061" transform="translate(111.822 26.975)"/><circle class="b" cx="2.061" cy="2.061" r="2.061" transform="translate(139.432 26.975)"/><path class="b" d="M277.629,205.565a2.061,2.061,0,1,0-2.061,2.061A2.061,2.061,0,0,0,277.629,205.565Z" transform="translate(-106.465 -176.53)"/><path class="b" d="M321.031,205.565a2.061,2.061,0,1,0-2.061,2.061A2.06,2.06,0,0,0,321.031,205.565Z" transform="translate(-122.258 -176.53)"/><circle class="b" cx="2.061" cy="2.061" r="2.061" transform="translate(111.822)"/><circle class="b" cx="2.061" cy="2.061" r="2.061" transform="translate(139.432)"/><path class="b" d="M277.629,247.97a2.061,2.061,0,1,0-2.061,2.061A2.061,2.061,0,0,0,277.629,247.97Z" transform="translate(-106.465 -245.91)"/><path class="b" d="M321.031,247.97a2.061,2.061,0,1,0-2.061,2.061A2.06,2.06,0,0,0,321.031,247.97Z" transform="translate(-122.258 -245.91)"/><path class="b" d="M366.607,34.776a2.061,2.061,0,1,0-2.061,2.061A2.06,2.06,0,0,0,366.607,34.776Z" transform="translate(-138.841 102.904)"/><path class="b" d="M410.009,34.776a2.061,2.061,0,1,0-2.06,2.061A2.06,2.06,0,0,0,410.009,34.776Z" transform="translate(-154.634 102.904)"/><circle class="b" cx="2.061" cy="2.061" r="2.061" transform="translate(278.863 135.62)"/><path class="b" d="M366.607,77.182a2.061,2.061,0,1,0-2.061,2.06A2.061,2.061,0,0,0,366.607,77.182Z" transform="translate(-138.841 33.524)"/><path class="b" d="M410.009,77.182a2.061,2.061,0,1,0-2.06,2.06A2.06,2.06,0,0,0,410.009,77.182Z" transform="translate(-154.634 33.524)"/><path class="b" d="M453.411,77.182a2.061,2.061,0,1,0-2.061,2.06A2.061,2.061,0,0,0,453.411,77.182Z" transform="translate(-170.427 33.524)"/><path class="b" d="M366.607,119.587a2.061,2.061,0,1,0-2.061,2.06A2.061,2.061,0,0,0,366.607,119.587Z" transform="translate(-138.841 -35.856)"/><path class="b" d="M410.009,119.587a2.061,2.061,0,1,0-2.06,2.06A2.061,2.061,0,0,0,410.009,119.587Z" transform="translate(-154.634 -35.856)"/><circle class="b" cx="2.061" cy="2.061" r="2.061" transform="translate(278.863 81.67)"/><path class="b" d="M366.607,163.16a2.061,2.061,0,1,0-2.061,2.061A2.06,2.06,0,0,0,366.607,163.16Z" transform="translate(-138.841 -107.149)"/><path class="b" d="M410.009,163.16a2.061,2.061,0,1,0-2.06,2.061A2.06,2.06,0,0,0,410.009,163.16Z" transform="translate(-154.634 -107.149)"/><circle class="b" cx="2.061" cy="2.061" r="2.061" transform="translate(278.863 53.951)"/><path class="b" d="M366.607,205.565a2.061,2.061,0,1,0-2.061,2.061A2.06,2.06,0,0,0,366.607,205.565Z" transform="translate(-138.841 -176.53)"/><path class="b" d="M410.009,205.565a2.061,2.061,0,1,0-2.06,2.061A2.06,2.06,0,0,0,410.009,205.565Z" transform="translate(-154.634 -176.53)"/><circle class="b" cx="2.061" cy="2.061" r="2.061" transform="translate(278.863 26.975)"/><path class="b" d="M366.607,247.97a2.061,2.061,0,1,0-2.061,2.061A2.06,2.06,0,0,0,366.607,247.97Z" transform="translate(-138.841 -245.91)"/><path class="b" d="M410.009,247.97a2.061,2.061,0,1,0-2.06,2.061A2.06,2.06,0,0,0,410.009,247.97Z" transform="translate(-154.634 -245.91)"/><circle class="b" cx="2.061" cy="2.061" r="2.061" transform="translate(278.863)"/></g><g transform="translate(0 70.453)"><g transform="translate(594.369 450.183)"><path class="b" d="M295.151,124.73A2.266,2.266,0,1,0,292.885,127,2.267,2.267,0,0,0,295.151,124.73Z" transform="translate(-290.619 26.664)"/><path class="b" d="M307.009,124.73A2.266,2.266,0,1,0,304.743,127,2.267,2.267,0,0,0,307.009,124.73Z" transform="translate(-272.118 26.664)"/><circle class="b" cx="2.266" cy="2.266" r="2.266" transform="translate(60.72 149.129)"/><path class="b" d="M330.725,124.73A2.266,2.266,0,1,0,328.46,127,2.267,2.267,0,0,0,330.725,124.73Z" transform="translate(-235.114 26.664)"/><path class="b" d="M295.151,136.316a2.266,2.266,0,1,0-2.266,2.266A2.265,2.265,0,0,0,295.151,136.316Z" transform="translate(-290.619 -14.582)"/><path class="b" d="M307.009,136.316a2.266,2.266,0,1,0-2.266,2.266A2.265,2.265,0,0,0,307.009,136.316Z" transform="translate(-272.118 -14.582)"/><path class="b" d="M318.868,136.316a2.266,2.266,0,1,0-2.266,2.266A2.265,2.265,0,0,0,318.868,136.316Z" transform="translate(-253.615 -14.582)"/><path class="b" d="M330.725,136.316a2.266,2.266,0,1,0-2.266,2.266A2.265,2.265,0,0,0,330.725,136.316Z" transform="translate(-235.114 -14.582)"/><path class="b" d="M295.151,147.9a2.266,2.266,0,1,0-2.266,2.266A2.265,2.265,0,0,0,295.151,147.9Z" transform="translate(-290.619 -55.83)"/><path class="b" d="M307.009,147.9a2.266,2.266,0,1,0-2.266,2.266A2.265,2.265,0,0,0,307.009,147.9Z" transform="translate(-272.118 -55.83)"/><circle class="b" cx="2.266" cy="2.266" r="2.266" transform="translate(60.72 89.805)"/><path class="b" d="M330.725,147.9a2.266,2.266,0,1,0-2.266,2.266A2.265,2.265,0,0,0,330.725,147.9Z" transform="translate(-235.114 -55.83)"/><path class="b" d="M295.151,159.808a2.266,2.266,0,1,0-2.266,2.266A2.267,2.267,0,0,0,295.151,159.808Z" transform="translate(-290.619 -98.218)"/><path class="b" d="M307.009,159.808a2.266,2.266,0,1,0-2.266,2.266A2.267,2.267,0,0,0,307.009,159.808Z" transform="translate(-272.118 -98.218)"/><circle class="b" cx="2.266" cy="2.266" r="2.266" transform="translate(60.72 59.324)"/><path class="b" d="M330.725,159.808a2.266,2.266,0,1,0-2.266,2.266A2.267,2.267,0,0,0,330.725,159.808Z" transform="translate(-235.114 -98.218)"/><path class="b" d="M295.151,171.4a2.266,2.266,0,1,0-2.266,2.266A2.267,2.267,0,0,0,295.151,171.4Z" transform="translate(-290.619 -139.466)"/><path class="b" d="M307.009,171.4a2.266,2.266,0,1,0-2.266,2.266A2.267,2.267,0,0,0,307.009,171.4Z" transform="translate(-272.118 -139.466)"/><circle class="b" cx="2.266" cy="2.266" r="2.266" transform="translate(60.72 29.662)"/><path class="b" d="M330.725,171.4a2.266,2.266,0,1,0-2.266,2.266A2.267,2.267,0,0,0,330.725,171.4Z" transform="translate(-235.114 -139.466)"/><path class="b" d="M295.151,182.979a2.266,2.266,0,1,0-2.266,2.266A2.265,2.265,0,0,0,295.151,182.979Z" transform="translate(-290.619 -180.712)"/><path class="b" d="M307.009,182.979a2.266,2.266,0,1,0-2.266,2.266A2.265,2.265,0,0,0,307.009,182.979Z" transform="translate(-272.118 -180.712)"/><circle class="b" cx="2.266" cy="2.266" r="2.266" transform="translate(60.72)"/><path class="b" d="M330.725,182.979a2.266,2.266,0,1,0-2.266,2.266A2.265,2.265,0,0,0,330.725,182.979Z" transform="translate(-235.114 -180.712)"/><circle class="b" cx="2.266" cy="2.266" r="2.266" transform="translate(122.96 149.129)"/><circle class="b" cx="2.266" cy="2.266" r="2.266" transform="translate(153.32 149.129)"/><path class="b" d="M366.895,124.73A2.266,2.266,0,1,0,364.629,127,2.267,2.267,0,0,0,366.895,124.73Z" transform="translate(-178.683 26.664)"/><path class="b" d="M378.755,124.73A2.267,2.267,0,1,0,376.487,127,2.269,2.269,0,0,0,378.755,124.73Z" transform="translate(-160.182 26.664)"/><path class="b" d="M343.177,136.316a2.266,2.266,0,1,0-2.266,2.266A2.265,2.265,0,0,0,343.177,136.316Z" transform="translate(-215.687 -14.582)"/><path class="b" d="M355.037,136.316a2.266,2.266,0,1,0-2.266,2.266A2.265,2.265,0,0,0,355.037,136.316Z" transform="translate(-197.184 -14.582)"/><path class="b" d="M366.895,136.316a2.266,2.266,0,1,0-2.266,2.266A2.265,2.265,0,0,0,366.895,136.316Z" transform="translate(-178.683 -14.582)"/><path class="b" d="M378.755,136.316a2.267,2.267,0,1,0-2.268,2.266A2.267,2.267,0,0,0,378.755,136.316Z" transform="translate(-160.182 -14.582)"/><circle class="b" cx="2.266" cy="2.266" r="2.266" transform="translate(122.96 89.805)"/><circle class="b" cx="2.266" cy="2.266" r="2.266" transform="translate(153.32 89.805)"/><path class="b" d="M366.895,147.9a2.266,2.266,0,1,0-2.266,2.266A2.265,2.265,0,0,0,366.895,147.9Z" transform="translate(-178.683 -55.83)"/><path class="b" d="M378.755,147.9a2.267,2.267,0,1,0-2.268,2.266A2.267,2.267,0,0,0,378.755,147.9Z" transform="translate(-160.182 -55.83)"/><circle class="b" cx="2.266" cy="2.266" r="2.266" transform="translate(122.96 59.324)"/><circle class="b" cx="2.266" cy="2.266" r="2.266" transform="translate(153.32 59.324)"/><path class="b" d="M366.895,159.808a2.266,2.266,0,1,0-2.266,2.266A2.267,2.267,0,0,0,366.895,159.808Z" transform="translate(-178.683 -98.218)"/><path class="b" d="M378.755,159.808a2.267,2.267,0,1,0-2.268,2.266A2.269,2.269,0,0,0,378.755,159.808Z" transform="translate(-160.182 -98.218)"/><circle class="b" cx="2.266" cy="2.266" r="2.266" transform="translate(122.96 29.662)"/><circle class="b" cx="2.266" cy="2.266" r="2.266" transform="translate(153.32 29.662)"/><path class="b" d="M366.895,171.4a2.266,2.266,0,1,0-2.266,2.266A2.267,2.267,0,0,0,366.895,171.4Z" transform="translate(-178.683 -139.466)"/><path class="b" d="M378.755,171.4a2.267,2.267,0,1,0-2.268,2.266A2.269,2.269,0,0,0,378.755,171.4Z" transform="translate(-160.182 -139.466)"/><circle class="b" cx="2.266" cy="2.266" r="2.266" transform="translate(122.96)"/><circle class="b" cx="2.266" cy="2.266" r="2.266" transform="translate(153.32)"/><path class="b" d="M366.895,182.979a2.266,2.266,0,1,0-2.266,2.266A2.265,2.265,0,0,0,366.895,182.979Z" transform="translate(-178.683 -180.712)"/><path class="b" d="M378.755,182.979a2.267,2.267,0,1,0-2.268,2.266A2.267,2.267,0,0,0,378.755,182.979Z" transform="translate(-160.182 -180.712)"/><path class="b" d="M391.205,124.73A2.266,2.266,0,1,0,388.94,127,2.267,2.267,0,0,0,391.205,124.73Z" transform="translate(-140.753 26.664)"/><path class="b" d="M403.064,124.73A2.266,2.266,0,1,0,400.8,127,2.267,2.267,0,0,0,403.064,124.73Z" transform="translate(-122.252 26.664)"/><circle class="b" cx="2.266" cy="2.266" r="2.266" transform="translate(306.64 149.129)"/><path class="b" d="M391.205,136.316a2.266,2.266,0,1,0-2.266,2.266A2.265,2.265,0,0,0,391.205,136.316Z" transform="translate(-140.753 -14.582)"/><path class="b" d="M403.064,136.316a2.266,2.266,0,1,0-2.266,2.266A2.265,2.265,0,0,0,403.064,136.316Z" transform="translate(-122.252 -14.582)"/><path class="b" d="M414.924,136.316a2.267,2.267,0,1,0-2.268,2.266A2.267,2.267,0,0,0,414.924,136.316Z" transform="translate(-103.751 -14.582)"/><path class="b" d="M391.205,147.9a2.266,2.266,0,1,0-2.266,2.266A2.265,2.265,0,0,0,391.205,147.9Z" transform="translate(-140.753 -55.83)"/><path class="b" d="M403.064,147.9a2.266,2.266,0,1,0-2.266,2.266A2.265,2.265,0,0,0,403.064,147.9Z" transform="translate(-122.252 -55.83)"/><circle class="b" cx="2.266" cy="2.266" r="2.266" transform="translate(306.64 89.805)"/><path class="b" d="M391.205,159.808a2.266,2.266,0,1,0-2.266,2.266A2.267,2.267,0,0,0,391.205,159.808Z" transform="translate(-140.753 -98.218)"/><path class="b" d="M403.064,159.808a2.266,2.266,0,1,0-2.266,2.266A2.267,2.267,0,0,0,403.064,159.808Z" transform="translate(-122.252 -98.218)"/><circle class="b" cx="2.266" cy="2.266" r="2.266" transform="translate(306.64 59.324)"/><path class="b" d="M391.205,171.4a2.266,2.266,0,1,0-2.266,2.266A2.267,2.267,0,0,0,391.205,171.4Z" transform="translate(-140.753 -139.466)"/><path class="b" d="M403.064,171.4a2.266,2.266,0,1,0-2.266,2.266A2.267,2.267,0,0,0,403.064,171.4Z" transform="translate(-122.252 -139.466)"/><circle class="b" cx="2.266" cy="2.266" r="2.266" transform="translate(306.64 29.662)"/><path class="b" d="M391.205,182.979a2.266,2.266,0,1,0-2.266,2.266A2.265,2.265,0,0,0,391.205,182.979Z" transform="translate(-140.753 -180.712)"/><path class="b" d="M403.064,182.979a2.266,2.266,0,1,0-2.266,2.266A2.265,2.265,0,0,0,403.064,182.979Z" transform="translate(-122.252 -180.712)"/><circle class="b" cx="2.266" cy="2.266" r="2.266" transform="translate(306.64)"/></g><path class="c" d="M1657.5,705.96a2.908,2.908,0,0,1,5.816,0v13.082a2.908,2.908,0,1,1-5.816,0V705.96Zm-19.833,10.624a2.909,2.909,0,1,1,4.113-4.116l9.255,9.253a2.91,2.91,0,0,1-4.113,4.117l-9.255-9.254Zm-6.51,21.537a2.911,2.911,0,1,1,0-5.823h13.086a2.912,2.912,0,0,1,0,5.823Zm10.623,19.835a2.909,2.909,0,0,1-4.113-4.116l9.255-9.254a2.909,2.909,0,0,1,4.113,4.116l-9.255,9.254Zm21.536,6.508a2.908,2.908,0,0,1-5.816,0V751.372a2.908,2.908,0,0,1,5.816,0v13.092Zm19.833-10.624a2.91,2.91,0,0,1-4.116,4.116l-9.255-9.254a2.91,2.91,0,0,1,4.116-4.116l9.255,9.254Zm6.509-21.542a2.911,2.911,0,1,1,0,5.823h-13.086a2.911,2.911,0,0,1,0-5.823Zm-10.625-19.83a2.91,2.91,0,0,1,4.116,4.116l-9.255,9.254a2.911,2.911,0,0,1-4.116-4.117Z" transform="translate(-22.241 -108.649)"/><path class="c" d="M1657.5,705.96a2.908,2.908,0,0,1,5.816,0v13.082a2.908,2.908,0,1,1-5.816,0V705.96Zm-19.833,10.624a2.909,2.909,0,1,1,4.113-4.116l9.255,9.253a2.91,2.91,0,0,1-4.113,4.117l-9.255-9.254Zm-6.51,21.537a2.911,2.911,0,1,1,0-5.823h13.086a2.912,2.912,0,0,1,0,5.823Zm10.623,19.835a2.909,2.909,0,0,1-4.113-4.116l9.255-9.254a2.909,2.909,0,0,1,4.113,4.116l-9.255,9.254Zm21.536,6.508a2.908,2.908,0,0,1-5.816,0V751.372a2.908,2.908,0,0,1,5.816,0v13.092Zm19.833-10.624a2.91,2.91,0,0,1-4.116,4.116l-9.255-9.254a2.91,2.91,0,0,1,4.116-4.116l9.255,9.254Zm6.509-21.542a2.911,2.911,0,1,1,0,5.823h-13.086a2.911,2.911,0,0,1,0-5.823Zm-10.625-19.83a2.91,2.91,0,0,1,4.116,4.116l-9.255,9.254a2.911,2.911,0,0,1-4.116-4.117Z" transform="translate(-1628.241 -703.053)"/></g></g><g transform="translate(0 3907)"><g class="d"><path class="e" d="M1109.078,1244.666h90.6c48.76,0,88.653,53.324,88.653,118.493h0c0,65.172-39.893,118.493-88.653,118.493H433.625c-78.956,0-143.555-86.342-143.555-191.871h0c0-105.533,64.6-191.875,143.553-191.875h0c33.384,0,60.7-36.505,60.7-81.126h0c0-44.621-27.314-81.129-60.7-81.129H360.574c-34.709,0-63.107-37.957-63.107-84.346h0c0-46.392,28.4-84.349,63.107-84.349h92.374c13.511,0,24.569-14.779,24.569-32.838h0c0-18.059-11.058-32.835-24.569-32.835H436.663c-9.325,0-16.954-10.2-16.954-22.664h0c0-12.464,7.629-22.664,16.954-22.664H543.514c22.5,0,25.008,35.533,81.852,35.533h87.751c12.169,0-36.629,13.314-36.629,29.573l21.546-29.573c0,16.262,12.169,29.573,0,29.573L486.88,750.631c-17.633,0,248.959,19.285,248.959,42.847v0c0,23.565,14.426,42.85,32.059,42.85h31.976c86.349,0,98.544,30.161,113.668,90.148s93.669,64.827,93.669,64.827h107.4c26.572,0,48.312,29.057,48.312,64.57v0c0,35.513-21.74,64.57-48.312,64.57h-5.53c-25.556,0-46.468,27.951-46.468,62.11h0c0,34.158,20.912,62.106,46.468,62.106Zm-720-543.384c9.366,0,16.957-10.149,16.957-22.664s-7.591-22.664-16.957-22.664-16.957,10.149-16.957,22.664S379.717,701.282,389.081,701.282Z" transform="translate(-743.516 -580.57)"/><path class="e" d="M-14.337,1096.035H64.316c42.334,0,76.966,41.174,76.966,91.5h0c0,50.323-34.632,91.5-76.966,91.5H-600.749c-68.548,0-124.631-66.67-124.631-148.156h0c0-81.488,56.083-148.156,124.629-148.156h0c28.983,0,52.7-28.19,52.7-62.645h0c0-34.454-23.714-62.645-52.7-62.645H-664.17c-30.133,0-54.786-29.309-54.786-65.128h0c0-35.822,24.653-65.131,54.786-65.131h80.2c11.732,0,21.33-11.41,21.33-25.357h0c0-13.944-9.6-25.354-21.33-25.354h-14.138c-8.094,0-14.719-7.876-14.719-17.5h0c0-9.624,6.625-17.5,14.719-17.5h92.766c19.537,0,21.713,27.437,71.061,27.437h142.189c10.567,0,19.209,10.278,19.209,22.835h0c0,12.557-8.644,22.835-19.209,22.835h-18.446c-15.308,0-27.833,14.889-27.833,33.085h0c0,18.2,12.525,33.087,27.833,33.087h27.761c74.966,0,85.555,23.289,98.683,69.609s81.321,50.057,81.321,50.057h93.24c23.069,0,41.943,22.437,41.943,49.859v0c0,27.422-18.874,49.859-41.943,49.859h-4.8c-22.187,0-40.341,21.583-40.341,47.959h0c0,26.376,18.153,47.956,40.341,47.956Zm-625.083-419.58c8.131,0,14.721-7.834,14.721-17.5s-6.59-17.5-14.721-17.5-14.721,7.836-14.721,17.5S-647.548,676.455-639.421,676.455Z" transform="translate(1901.054 -376.741)"/></g></g></g></svg>