<svg xmlns="http://www.w3.org/2000/svg" xmlns:xlink="http://www.w3.org/1999/xlink" width="1937" height="1152.227" viewBox="0 0 1937 1152.227"><defs><style>.a,.e{fill:#ddfafd;}.b,.c{fill:#b5e9eb;}.c,.e{fill-rule:evenodd;}.d{clip-path:url(#a);}</style><clipPath id="a"><rect class="a" width="1937" height="967"/></clipPath></defs><g transform="translate(17 -582)"><g transform="translate(78.887 1239.903)"><g transform="translate(1493 92.631)"><path class="b" d="M295.151,124.732a2.266,2.266,0,1,1-2.266-2.268A2.267,2.267,0,0,1,295.151,124.732Z" transform="translate(-290.619 -122.464)"/><path class="b" d="M307.009,124.732a2.266,2.266,0,1,1-2.266-2.268A2.267,2.267,0,0,1,307.009,124.732Z" transform="translate(-272.118 -122.464)"/><circle class="b" cx="2.266" cy="2.266" r="2.266" transform="translate(60.72 0.001)"/><path class="b" d="M330.725,124.732a2.266,2.266,0,1,1-2.266-2.268A2.267,2.267,0,0,1,330.725,124.732Z" transform="translate(-235.114 -122.464)"/><path class="b" d="M295.151,136.316a2.266,2.266,0,1,1-2.266-2.266A2.265,2.265,0,0,1,295.151,136.316Z" transform="translate(-290.619 -104.387)"/><path class="b" d="M307.009,136.316a2.266,2.266,0,1,1-2.266-2.266A2.265,2.265,0,0,1,307.009,136.316Z" transform="translate(-272.118 -104.387)"/><path class="b" d="M318.868,136.316a2.266,2.266,0,1,1-2.266-2.266A2.265,2.265,0,0,1,318.868,136.316Z" transform="translate(-253.615 -104.387)"/><path class="b" d="M330.725,136.316a2.266,2.266,0,1,1-2.266-2.266A2.265,2.265,0,0,1,330.725,136.316Z" transform="translate(-235.114 -104.387)"/><path class="b" d="M295.151,147.9a2.266,2.266,0,1,1-2.266-2.266A2.265,2.265,0,0,1,295.151,147.9Z" transform="translate(-290.619 -86.311)"/><path class="b" d="M307.009,147.9a2.266,2.266,0,1,1-2.266-2.266A2.265,2.265,0,0,1,307.009,147.9Z" transform="translate(-272.118 -86.311)"/><circle class="b" cx="2.266" cy="2.266" r="2.266" transform="translate(60.72 59.326)"/><path class="b" d="M330.725,147.9a2.266,2.266,0,1,1-2.266-2.266A2.265,2.265,0,0,1,330.725,147.9Z" transform="translate(-235.114 -86.311)"/><path class="b" d="M295.151,159.808a2.266,2.266,0,1,1-2.266-2.266A2.267,2.267,0,0,1,295.151,159.808Z" transform="translate(-290.619 -67.735)"/><path class="b" d="M307.009,159.808a2.266,2.266,0,1,1-2.266-2.266A2.267,2.267,0,0,1,307.009,159.808Z" transform="translate(-272.118 -67.735)"/><circle class="b" cx="2.266" cy="2.266" r="2.266" transform="translate(60.72 89.806)"/><path class="b" d="M330.725,159.808a2.266,2.266,0,1,1-2.266-2.266A2.267,2.267,0,0,1,330.725,159.808Z" transform="translate(-235.114 -67.735)"/><path class="b" d="M295.151,171.393a2.266,2.266,0,1,1-2.266-2.266A2.267,2.267,0,0,1,295.151,171.393Z" transform="translate(-290.619 -49.66)"/><path class="b" d="M307.009,171.393a2.266,2.266,0,1,1-2.266-2.266A2.267,2.267,0,0,1,307.009,171.393Z" transform="translate(-272.118 -49.66)"/><circle class="b" cx="2.266" cy="2.266" r="2.266" transform="translate(60.72 119.468)"/><path class="b" d="M330.725,171.393a2.266,2.266,0,1,1-2.266-2.266A2.267,2.267,0,0,1,330.725,171.393Z" transform="translate(-235.114 -49.66)"/><path class="b" d="M295.151,182.979a2.266,2.266,0,1,1-2.266-2.266A2.265,2.265,0,0,1,295.151,182.979Z" transform="translate(-290.619 -31.583)"/><path class="b" d="M307.009,182.979a2.266,2.266,0,1,1-2.266-2.266A2.265,2.265,0,0,1,307.009,182.979Z" transform="translate(-272.118 -31.583)"/><circle class="b" cx="2.266" cy="2.266" r="2.266" transform="translate(60.72 149.13)"/><path class="b" d="M330.725,182.979a2.266,2.266,0,1,1-2.266-2.266A2.265,2.265,0,0,1,330.725,182.979Z" transform="translate(-235.114 -31.583)"/><circle class="b" cx="2.266" cy="2.266" r="2.266" transform="translate(122.96 0.001)"/><circle class="b" cx="2.266" cy="2.266" r="2.266" transform="translate(153.32 0.001)"/><path class="b" d="M366.895,124.732a2.266,2.266,0,1,1-2.266-2.268A2.267,2.267,0,0,1,366.895,124.732Z" transform="translate(-178.683 -122.464)"/><path class="b" d="M378.755,124.732a2.267,2.267,0,1,1-2.268-2.268A2.269,2.269,0,0,1,378.755,124.732Z" transform="translate(-160.182 -122.464)"/><path class="b" d="M343.177,136.316a2.266,2.266,0,1,1-2.266-2.266A2.265,2.265,0,0,1,343.177,136.316Z" transform="translate(-215.687 -104.387)"/><path class="b" d="M355.037,136.316a2.266,2.266,0,1,1-2.266-2.266A2.265,2.265,0,0,1,355.037,136.316Z" transform="translate(-197.184 -104.387)"/><path class="b" d="M366.895,136.316a2.266,2.266,0,1,1-2.266-2.266A2.265,2.265,0,0,1,366.895,136.316Z" transform="translate(-178.683 -104.387)"/><path class="b" d="M378.755,136.316a2.267,2.267,0,1,1-2.268-2.266A2.267,2.267,0,0,1,378.755,136.316Z" transform="translate(-160.182 -104.387)"/><circle class="b" cx="2.266" cy="2.266" r="2.266" transform="translate(122.96 59.326)"/><circle class="b" cx="2.266" cy="2.266" r="2.266" transform="translate(153.32 59.326)"/><path class="b" d="M366.895,147.9a2.266,2.266,0,1,1-2.266-2.266A2.265,2.265,0,0,1,366.895,147.9Z" transform="translate(-178.683 -86.311)"/><path class="b" d="M378.755,147.9a2.267,2.267,0,1,1-2.268-2.266A2.267,2.267,0,0,1,378.755,147.9Z" transform="translate(-160.182 -86.311)"/><circle class="b" cx="2.266" cy="2.266" r="2.266" transform="translate(122.96 89.806)"/><circle class="b" cx="2.266" cy="2.266" r="2.266" transform="translate(153.32 89.806)"/><path class="b" d="M366.895,159.808a2.266,2.266,0,1,1-2.266-2.266A2.267,2.267,0,0,1,366.895,159.808Z" transform="translate(-178.683 -67.735)"/><path class="b" d="M378.755,159.808a2.267,2.267,0,1,1-2.268-2.266A2.269,2.269,0,0,1,378.755,159.808Z" transform="translate(-160.182 -67.735)"/><circle class="b" cx="2.266" cy="2.266" r="2.266" transform="translate(122.96 119.468)"/><circle class="b" cx="2.266" cy="2.266" r="2.266" transform="translate(153.32 119.468)"/><path class="b" d="M366.895,171.393a2.266,2.266,0,1,1-2.266-2.266A2.267,2.267,0,0,1,366.895,171.393Z" transform="translate(-178.683 -49.66)"/><path class="b" d="M378.755,171.393a2.267,2.267,0,1,1-2.268-2.266A2.269,2.269,0,0,1,378.755,171.393Z" transform="translate(-160.182 -49.66)"/><circle class="b" cx="2.266" cy="2.266" r="2.266" transform="translate(122.96 149.13)"/><circle class="b" cx="2.266" cy="2.266" r="2.266" transform="translate(153.32 149.13)"/><path class="b" d="M366.895,182.979a2.266,2.266,0,1,1-2.266-2.266A2.265,2.265,0,0,1,366.895,182.979Z" transform="translate(-178.683 -31.583)"/><path class="b" d="M378.755,182.979a2.267,2.267,0,1,1-2.268-2.266A2.267,2.267,0,0,1,378.755,182.979Z" transform="translate(-160.182 -31.583)"/><path class="b" d="M391.205,124.732a2.266,2.266,0,1,1-2.266-2.268A2.267,2.267,0,0,1,391.205,124.732Z" transform="translate(-140.753 -122.464)"/><path class="b" d="M403.064,124.732a2.266,2.266,0,1,1-2.266-2.268A2.267,2.267,0,0,1,403.064,124.732Z" transform="translate(-122.252 -122.464)"/><circle class="b" cx="2.266" cy="2.266" r="2.266" transform="translate(306.64 0.001)"/><path class="b" d="M391.205,136.316a2.266,2.266,0,1,1-2.266-2.266A2.265,2.265,0,0,1,391.205,136.316Z" transform="translate(-140.753 -104.387)"/><path class="b" d="M403.064,136.316a2.266,2.266,0,1,1-2.266-2.266A2.265,2.265,0,0,1,403.064,136.316Z" transform="translate(-122.252 -104.387)"/><path class="b" d="M414.924,136.316a2.267,2.267,0,1,1-2.268-2.266A2.267,2.267,0,0,1,414.924,136.316Z" transform="translate(-103.751 -104.387)"/><path class="b" d="M391.205,147.9a2.266,2.266,0,1,1-2.266-2.266A2.265,2.265,0,0,1,391.205,147.9Z" transform="translate(-140.753 -86.311)"/><path class="b" d="M403.064,147.9a2.266,2.266,0,1,1-2.266-2.266A2.265,2.265,0,0,1,403.064,147.9Z" transform="translate(-122.252 -86.311)"/><circle class="b" cx="2.266" cy="2.266" r="2.266" transform="translate(306.64 59.326)"/><path class="b" d="M391.205,159.808a2.266,2.266,0,1,1-2.266-2.266A2.267,2.267,0,0,1,391.205,159.808Z" transform="translate(-140.753 -67.735)"/><path class="b" d="M403.064,159.808a2.266,2.266,0,1,1-2.266-2.266A2.267,2.267,0,0,1,403.064,159.808Z" transform="translate(-122.252 -67.735)"/><circle class="b" cx="2.266" cy="2.266" r="2.266" transform="translate(306.64 89.806)"/><path class="b" d="M391.205,171.393a2.266,2.266,0,1,1-2.266-2.266A2.267,2.267,0,0,1,391.205,171.393Z" transform="translate(-140.753 -49.66)"/><path class="b" d="M403.064,171.393a2.266,2.266,0,1,1-2.266-2.266A2.267,2.267,0,0,1,403.064,171.393Z" transform="translate(-122.252 -49.66)"/><circle class="b" cx="2.266" cy="2.266" r="2.266" transform="translate(306.64 119.468)"/><path class="b" d="M391.205,182.979a2.266,2.266,0,1,1-2.266-2.266A2.265,2.265,0,0,1,391.205,182.979Z" transform="translate(-140.753 -31.583)"/><path class="b" d="M403.064,182.979a2.266,2.266,0,1,1-2.266-2.266A2.265,2.265,0,0,1,403.064,182.979Z" transform="translate(-122.252 -31.583)"/><circle class="b" cx="2.266" cy="2.266" r="2.266" transform="translate(306.64 149.13)"/></g><g transform="translate(0 333.631)"><path class="b" d="M295.151,124.732a2.266,2.266,0,1,1-2.266-2.268A2.267,2.267,0,0,1,295.151,124.732Z" transform="translate(-290.619 -122.464)"/><path class="b" d="M307.009,124.732a2.266,2.266,0,1,1-2.266-2.268A2.267,2.267,0,0,1,307.009,124.732Z" transform="translate(-272.118 -122.464)"/><circle class="b" cx="2.266" cy="2.266" r="2.266" transform="translate(60.72 0.001)"/><path class="b" d="M330.725,124.732a2.266,2.266,0,1,1-2.266-2.268A2.267,2.267,0,0,1,330.725,124.732Z" transform="translate(-235.114 -122.464)"/><path class="b" d="M295.151,136.316a2.266,2.266,0,1,1-2.266-2.266A2.265,2.265,0,0,1,295.151,136.316Z" transform="translate(-290.619 -104.387)"/><path class="b" d="M307.009,136.316a2.266,2.266,0,1,1-2.266-2.266A2.265,2.265,0,0,1,307.009,136.316Z" transform="translate(-272.118 -104.387)"/><path class="b" d="M318.868,136.316a2.266,2.266,0,1,1-2.266-2.266A2.265,2.265,0,0,1,318.868,136.316Z" transform="translate(-253.615 -104.387)"/><path class="b" d="M330.725,136.316a2.266,2.266,0,1,1-2.266-2.266A2.265,2.265,0,0,1,330.725,136.316Z" transform="translate(-235.114 -104.387)"/><path class="b" d="M295.151,147.9a2.266,2.266,0,1,1-2.266-2.266A2.265,2.265,0,0,1,295.151,147.9Z" transform="translate(-290.619 -86.311)"/><path class="b" d="M307.009,147.9a2.266,2.266,0,1,1-2.266-2.266A2.265,2.265,0,0,1,307.009,147.9Z" transform="translate(-272.118 -86.311)"/><circle class="b" cx="2.266" cy="2.266" r="2.266" transform="translate(60.72 59.326)"/><path class="b" d="M330.725,147.9a2.266,2.266,0,1,1-2.266-2.266A2.265,2.265,0,0,1,330.725,147.9Z" transform="translate(-235.114 -86.311)"/><path class="b" d="M295.151,159.808a2.266,2.266,0,1,1-2.266-2.266A2.267,2.267,0,0,1,295.151,159.808Z" transform="translate(-290.619 -67.735)"/><path class="b" d="M307.009,159.808a2.266,2.266,0,1,1-2.266-2.266A2.267,2.267,0,0,1,307.009,159.808Z" transform="translate(-272.118 -67.735)"/><circle class="b" cx="2.266" cy="2.266" r="2.266" transform="translate(60.72 89.806)"/><path class="b" d="M330.725,159.808a2.266,2.266,0,1,1-2.266-2.266A2.267,2.267,0,0,1,330.725,159.808Z" transform="translate(-235.114 -67.735)"/><path class="b" d="M295.151,171.393a2.266,2.266,0,1,1-2.266-2.266A2.267,2.267,0,0,1,295.151,171.393Z" transform="translate(-290.619 -49.66)"/><path class="b" d="M307.009,171.393a2.266,2.266,0,1,1-2.266-2.266A2.267,2.267,0,0,1,307.009,171.393Z" transform="translate(-272.118 -49.66)"/><circle class="b" cx="2.266" cy="2.266" r="2.266" transform="translate(60.72 119.468)"/><path class="b" d="M330.725,171.393a2.266,2.266,0,1,1-2.266-2.266A2.267,2.267,0,0,1,330.725,171.393Z" transform="translate(-235.114 -49.66)"/><path class="b" d="M295.151,182.979a2.266,2.266,0,1,1-2.266-2.266A2.265,2.265,0,0,1,295.151,182.979Z" transform="translate(-290.619 -31.583)"/><path class="b" d="M307.009,182.979a2.266,2.266,0,1,1-2.266-2.266A2.265,2.265,0,0,1,307.009,182.979Z" transform="translate(-272.118 -31.583)"/><circle class="b" cx="2.266" cy="2.266" r="2.266" transform="translate(60.72 149.13)"/><path class="b" d="M330.725,182.979a2.266,2.266,0,1,1-2.266-2.266A2.265,2.265,0,0,1,330.725,182.979Z" transform="translate(-235.114 -31.583)"/><circle class="b" cx="2.266" cy="2.266" r="2.266" transform="translate(122.96 0.001)"/><circle class="b" cx="2.266" cy="2.266" r="2.266" transform="translate(153.32 0.001)"/><path class="b" d="M366.895,124.732a2.266,2.266,0,1,1-2.266-2.268A2.267,2.267,0,0,1,366.895,124.732Z" transform="translate(-178.683 -122.464)"/><path class="b" d="M378.755,124.732a2.267,2.267,0,1,1-2.268-2.268A2.269,2.269,0,0,1,378.755,124.732Z" transform="translate(-160.182 -122.464)"/><path class="b" d="M343.177,136.316a2.266,2.266,0,1,1-2.266-2.266A2.265,2.265,0,0,1,343.177,136.316Z" transform="translate(-215.687 -104.387)"/><path class="b" d="M355.037,136.316a2.266,2.266,0,1,1-2.266-2.266A2.265,2.265,0,0,1,355.037,136.316Z" transform="translate(-197.184 -104.387)"/><path class="b" d="M366.895,136.316a2.266,2.266,0,1,1-2.266-2.266A2.265,2.265,0,0,1,366.895,136.316Z" transform="translate(-178.683 -104.387)"/><path class="b" d="M378.755,136.316a2.267,2.267,0,1,1-2.268-2.266A2.267,2.267,0,0,1,378.755,136.316Z" transform="translate(-160.182 -104.387)"/><circle class="b" cx="2.266" cy="2.266" r="2.266" transform="translate(122.96 59.326)"/><circle class="b" cx="2.266" cy="2.266" r="2.266" transform="translate(153.32 59.326)"/><path class="b" d="M366.895,147.9a2.266,2.266,0,1,1-2.266-2.266A2.265,2.265,0,0,1,366.895,147.9Z" transform="translate(-178.683 -86.311)"/><path class="b" d="M378.755,147.9a2.267,2.267,0,1,1-2.268-2.266A2.267,2.267,0,0,1,378.755,147.9Z" transform="translate(-160.182 -86.311)"/><circle class="b" cx="2.266" cy="2.266" r="2.266" transform="translate(122.96 89.806)"/><circle class="b" cx="2.266" cy="2.266" r="2.266" transform="translate(153.32 89.806)"/><path class="b" d="M366.895,159.808a2.266,2.266,0,1,1-2.266-2.266A2.267,2.267,0,0,1,366.895,159.808Z" transform="translate(-178.683 -67.735)"/><path class="b" d="M378.755,159.808a2.267,2.267,0,1,1-2.268-2.266A2.269,2.269,0,0,1,378.755,159.808Z" transform="translate(-160.182 -67.735)"/><circle class="b" cx="2.266" cy="2.266" r="2.266" transform="translate(122.96 119.468)"/><circle class="b" cx="2.266" cy="2.266" r="2.266" transform="translate(153.32 119.468)"/><path class="b" d="M366.895,171.393a2.266,2.266,0,1,1-2.266-2.266A2.267,2.267,0,0,1,366.895,171.393Z" transform="translate(-178.683 -49.66)"/><path class="b" d="M378.755,171.393a2.267,2.267,0,1,1-2.268-2.266A2.269,2.269,0,0,1,378.755,171.393Z" transform="translate(-160.182 -49.66)"/><circle class="b" cx="2.266" cy="2.266" r="2.266" transform="translate(122.96 149.13)"/><circle class="b" cx="2.266" cy="2.266" r="2.266" transform="translate(153.32 149.13)"/><path class="b" d="M366.895,182.979a2.266,2.266,0,1,1-2.266-2.266A2.265,2.265,0,0,1,366.895,182.979Z" transform="translate(-178.683 -31.583)"/><path class="b" d="M378.755,182.979a2.267,2.267,0,1,1-2.268-2.266A2.267,2.267,0,0,1,378.755,182.979Z" transform="translate(-160.182 -31.583)"/><path class="b" d="M391.205,124.732a2.266,2.266,0,1,1-2.266-2.268A2.267,2.267,0,0,1,391.205,124.732Z" transform="translate(-140.753 -122.464)"/><path class="b" d="M403.064,124.732a2.266,2.266,0,1,1-2.266-2.268A2.267,2.267,0,0,1,403.064,124.732Z" transform="translate(-122.252 -122.464)"/><circle class="b" cx="2.266" cy="2.266" r="2.266" transform="translate(306.64 0.001)"/><path class="b" d="M391.205,136.316a2.266,2.266,0,1,1-2.266-2.266A2.265,2.265,0,0,1,391.205,136.316Z" transform="translate(-140.753 -104.387)"/><path class="b" d="M403.064,136.316a2.266,2.266,0,1,1-2.266-2.266A2.265,2.265,0,0,1,403.064,136.316Z" transform="translate(-122.252 -104.387)"/><path class="b" d="M414.924,136.316a2.267,2.267,0,1,1-2.268-2.266A2.267,2.267,0,0,1,414.924,136.316Z" transform="translate(-103.751 -104.387)"/><path class="b" d="M391.205,147.9a2.266,2.266,0,1,1-2.266-2.266A2.265,2.265,0,0,1,391.205,147.9Z" transform="translate(-140.753 -86.311)"/><path class="b" d="M403.064,147.9a2.266,2.266,0,1,1-2.266-2.266A2.265,2.265,0,0,1,403.064,147.9Z" transform="translate(-122.252 -86.311)"/><circle class="b" cx="2.266" cy="2.266" r="2.266" transform="translate(306.64 59.326)"/><path class="b" d="M391.205,159.808a2.266,2.266,0,1,1-2.266-2.266A2.267,2.267,0,0,1,391.205,159.808Z" transform="translate(-140.753 -67.735)"/><path class="b" d="M403.064,159.808a2.266,2.266,0,1,1-2.266-2.266A2.267,2.267,0,0,1,403.064,159.808Z" transform="translate(-122.252 -67.735)"/><circle class="b" cx="2.266" cy="2.266" r="2.266" transform="translate(306.64 89.806)"/><path class="b" d="M391.205,171.393a2.266,2.266,0,1,1-2.266-2.266A2.267,2.267,0,0,1,391.205,171.393Z" transform="translate(-140.753 -49.66)"/><path class="b" d="M403.064,171.393a2.266,2.266,0,1,1-2.266-2.266A2.267,2.267,0,0,1,403.064,171.393Z" transform="translate(-122.252 -49.66)"/><circle class="b" cx="2.266" cy="2.266" r="2.266" transform="translate(306.64 119.468)"/><path class="b" d="M391.205,182.979a2.266,2.266,0,1,1-2.266-2.266A2.265,2.265,0,0,1,391.205,182.979Z" transform="translate(-140.753 -31.583)"/><path class="b" d="M403.064,182.979a2.266,2.266,0,1,1-2.266-2.266A2.265,2.265,0,0,1,403.064,182.979Z" transform="translate(-122.252 -31.583)"/><circle class="b" cx="2.266" cy="2.266" r="2.266" transform="translate(306.64 149.13)"/></g><path class="c" d="M494.773,511.318a2.908,2.908,0,1,1,5.816,0V524.4a2.908,2.908,0,1,1-5.816,0V511.318ZM474.94,521.943a2.91,2.91,0,1,1,4.113-4.117l9.254,9.254a2.909,2.909,0,0,1-4.113,4.116l-9.254-9.253Zm-6.51,21.539a2.911,2.911,0,1,1,0-5.823h13.086a2.912,2.912,0,0,1,0,5.823Zm10.623,19.832a2.909,2.909,0,1,1-4.113-4.116l9.254-9.254a2.909,2.909,0,0,1,4.113,4.114l-9.254,9.256Zm21.536,6.508a2.908,2.908,0,0,1-5.816,0V556.731a2.908,2.908,0,1,1,5.816,0v13.091ZM520.422,559.2a2.91,2.91,0,1,1-4.116,4.116l-9.255-9.256a2.91,2.91,0,0,1,4.116-4.114l9.255,9.254Zm6.51-21.539a2.911,2.911,0,0,1,0,5.823H513.844a2.911,2.911,0,0,1,0-5.823Zm-10.626-19.833a2.911,2.911,0,0,1,4.116,4.117l-9.255,9.253a2.91,2.91,0,0,1-4.116-4.116Z" transform="translate(326.39 -78.405)"/></g><g transform="translate(0 1199)"><g class="d" transform="translate(-17 -617)"><path class="e" d="M401.372,1044.207H345.118c-30.277,0-55.048,35.167-55.048,78.145h0c0,42.981,24.771,78.146,55.048,78.146H820.783c49.027,0,89.138-56.942,89.138-126.538h0c0-69.6-40.111-126.54-89.137-126.54h0c-20.729,0-37.688-24.075-37.688-53.5h0c0-29.427,16.96-53.5,37.69-53.5h45.359c21.552,0,39.185-25.032,39.185-55.625h0c0-30.6-17.633-55.627-39.185-55.627H808.785c-8.389,0-15.255-9.747-15.255-21.657h0c0-11.91,6.866-21.655,15.255-21.655H818.9c5.79,0,10.528-6.727,10.528-14.947h0c0-8.22-4.737-14.947-10.528-14.947H752.549c-13.973,0-15.528,23.434-50.824,23.434H647.238c-7.556,0,22.744,8.781,22.744,19.5l-13.379-19.5c0,10.725-7.556,19.5,0,19.5l131.112,19.5c10.949,0-154.587,12.718-154.587,28.258v0c0,15.541-8.958,28.259-19.907,28.259H593.367c-53.617,0-61.189,19.891-70.58,59.452s-58.162,42.753-58.162,42.753H397.938c-16.5,0-30,19.163-30,42.584v0c0,23.421,13.5,42.584,30,42.584h3.434c15.869,0,28.854,18.433,28.854,40.961h0c0,22.527-12.985,40.959-28.854,40.959Zm447.07-358.359c-5.816,0-10.529-6.693-10.529-14.947s4.713-14.947,10.529-14.947,10.529,6.693,10.529,14.947S854.257,685.848,848.442,685.848Z" transform="translate(1148.746 -237.847)"/><path class="e" d="M-544.542,1272.263h-91.4c-49.194,0-89.438,57.136-89.438,126.966h0c0,69.832,40.244,126.966,89.438,126.966H136.892c79.656,0,144.826-92.516,144.826-205.592h0c0-113.079-65.17-205.592-144.824-205.592h0c-33.68,0-61.234-39.119-61.234-86.93h0c0-47.812,27.556-86.931,61.236-86.931h73.7c35.016,0,63.664-40.671,63.664-90.377h0c0-49.709-28.647-90.38-63.664-90.38H117.4c-13.633,0-24.786-15.833-24.786-35.187h0c0-19.35,11.153-35.183,24.786-35.183h16.429c9.406,0,17.1-10.929,17.1-24.285h0c0-13.355-7.7-24.285-17.1-24.285H26.029c-22.7,0-25.232,38.074-82.576,38.074h-165.23c-12.279,0-22.322,14.263-22.322,31.688h0c0,17.425,10.045,31.688,22.322,31.688h21.435c17.789,0,32.343,20.661,32.343,45.911h0c0,25.25-14.554,45.914-32.343,45.914H-232.6c-87.113,0-99.418,32.317-114.674,96.595s-94.5,69.463-94.5,69.463H-550.121c-26.807,0-48.739,31.135-48.739,69.188v0c0,38.052,21.932,69.187,48.739,69.187h5.579c25.783,0,46.878,29.949,46.878,66.551h0c0,36.6-21.095,66.548-46.878,66.548ZM181.83,690.023c-9.449,0-17.107-10.871-17.107-24.285s7.658-24.285,17.107-24.285,17.107,10.874,17.107,24.285S191.275,690.023,181.83,690.023Z" transform="translate(-55.687 -607.848)"/></g></g></g></svg>