<svg xmlns="http://www.w3.org/2000/svg" width="119.305" height="119.138" viewBox="0 0 119.305 119.138"><defs><style>.a{fill:#fafafa;}.b{fill:#2383c3;}.c{fill:#24669a;}.d{fill:#f3efef;}.e{fill:#dadada;}.f{fill:#ffef87;}.g{fill:#ff994d;}.h{fill:#fd0;}.i{fill:#ff6e4a;}</style></defs><path class="a" d="M49.635,184.593a49.647,49.647,0,1,1,49.658-49.635A49.7,49.7,0,0,1,49.635,184.593Z" transform="translate(0 -65.455)"/><g transform="translate(0 19.845)"><path class="b" d="M49.635,184.593a49.647,49.647,0,1,1,49.658-49.635A49.7,49.7,0,0,1,49.635,184.593Zm0-91.847a42.2,42.2,0,1,0,42.189,42.212A42.227,42.227,0,0,0,49.635,92.746Z" transform="translate(0 -85.3)"/><path class="b" d="M106.875,224.528a32.264,32.264,0,1,1,32.276-32.252A32.306,32.306,0,0,1,106.875,224.528Zm0-57.081A24.829,24.829,0,1,0,131.7,192.276,24.868,24.868,0,0,0,106.875,167.446Z" transform="translate(-57.241 -142.617)"/><path class="b" d="M164.193,264.486a14.893,14.893,0,1,1,14.893-14.893A14.907,14.907,0,0,1,164.193,264.486Zm0-22.339a7.446,7.446,0,1,0,7.446,7.446A7.468,7.468,0,0,0,164.193,242.146Z" transform="translate(-114.558 -199.935)"/></g><path class="c" d="M214,85.3a49.647,49.647,0,0,1,0,99.293v-7.446a42.2,42.2,0,0,0,0-84.4Z" transform="translate(-164.202 -65.455)"/><path class="c" d="M74.6,160a32.276,32.276,0,0,1,0,64.551V217.1a24.829,24.829,0,0,0,0-49.658Z" transform="translate(-24.908 -122.772)"/><path class="c" d="M149.3,234.7a14.893,14.893,0,1,1,0,29.786v-7.446a7.446,7.446,0,1,0,0-14.893Z" transform="translate(-99.469 -180.09)"/><g transform="translate(7.377 27.291)"><path class="d" d="M188.746,266.7a7.446,7.446,0,1,0,0,14.893Z" transform="translate(-146.488 -231.935)"/><path class="d" d="M132.429,192a24.829,24.829,0,0,0,0,49.658v-9.936a14.893,14.893,0,0,1,0-29.786V192Z" transform="translate(-89.938 -174.617)"/><path class="d" d="M73.889,117.3a42.2,42.2,0,0,0,0,84.4v-9.936a32.264,32.264,0,1,1,0-64.528Z" transform="translate(-31.7 -117.3)"/></g><g transform="translate(49.495 27.291)"><path class="e" d="M213.7,266.7a7.446,7.446,0,0,1,0,14.893Z" transform="translate(-213.467 -231.935)"/><path class="e" d="M212.7,192a24.829,24.829,0,0,1,0,49.658v-9.936a14.893,14.893,0,0,0,0-29.786V192Z" transform="translate(-212.7 -174.617)"/><path class="e" d="M213,117.3a42.2,42.2,0,0,1,0,84.4v-9.936a32.264,32.264,0,1,0,0-64.528Z" transform="translate(-212.93 -117.3)"/></g><path class="f" d="M201,167.359a3.723,3.723,0,0,1-2.629-6.353l37.232-37.232a3.719,3.719,0,0,1,5.259,5.259l-37.232,37.232a3.72,3.72,0,0,1-2.63,1.094Z" transform="translate(-151.369 -94.133)"/><path class="g" d="M378.826,34.756h-12.4a3.734,3.734,0,0,1-3.723-3.723V18.63A3.737,3.737,0,0,1,363.794,16L378.686,1.108a3.718,3.718,0,0,1,6.353,2.63v8.68h8.68a3.725,3.725,0,0,1,3.444,2.3,3.684,3.684,0,0,1-.815,4.049L381.456,33.663a3.737,3.737,0,0,1-2.629,1.094Z" transform="translate(-278.3 -0.018)"/><path class="h" d="M245.27,144.717l-.14.14-37.372,37.092a3.715,3.715,0,0,1-5.259-.023L241.1,143.6a3.712,3.712,0,0,0,2.63,1.094Z" transform="translate(-155.378 -110.189)"/><path class="i" d="M401.672,56.523a3.641,3.641,0,0,1-1.094,2.63l-14.916,14.87a3.737,3.737,0,0,1-2.63,1.094h-12.4A3.712,3.712,0,0,1,368,74.022L389.269,52.8h8.68a3.725,3.725,0,0,1,3.444,2.3,3.852,3.852,0,0,1,.279,1.419Z" transform="translate(-282.366 -40.518)"/></svg>