<svg xmlns="http://www.w3.org/2000/svg" width="89.292" height="115.877" viewBox="0 0 89.292 115.877"><defs><style>.a{fill:#ffeb3a;}.b{fill:#fdd834;}.c{fill:#2383c3;}.c,.d{stroke:rgba(0,0,0,0);stroke-miterlimit:10;}.d{fill:#24669a;}.e{fill:#dadada;}.f{fill:#f3efef;}.g{fill:#ff994d;}.h{fill:#ff6e4a;}.i{fill:#ffef87;}.j{fill:#fd0;}</style></defs><g transform="translate(0 0.5)"><g transform="translate(0)"><path class="a" d="M115.646,431.277c-4.364-4.364-8.567-8.915-12.518-13.672C84.564,419.012,71,423.465,71,428.744c0,6.408,19.989,11.6,44.646,11.6h.165v-9.235Z" transform="translate(-71 -324.969)"/><path class="b" d="M301.481,428.744c0-5.279-13.564-9.732-32.127-11.139-3.9,4.7-8.049,9.192-12.354,13.506v9.235C281.581,440.323,301.481,435.137,301.481,428.744Z" transform="translate(-212.189 -324.969)"/><path class="c" d="M26.071,93.589h0a140.743,140.743,0,0,1-12.1-15.507C1.264,59.062-8.07,30.739,10.317,11.723A39.571,39.571,0,0,1,38.59,0l.165,0V7.619l-.165,0C22,7.617,8.557,20.125,8.557,35.554S22,63.492,38.59,63.492l.165,0V93.16h0v12.993l-.165.155C34.225,102.247,30.022,98.014,26.071,93.589Z" transform="translate(6.056)"/><path class="d" d="M0,93.147H0V63.481C16.51,63.4,29.868,50.925,29.868,35.549S16.51,7.7,0,7.616V0A39.559,39.559,0,0,1,28.108,11.72c18.387,19.014,9.053,47.333-3.652,66.352a140.714,140.714,0,0,1-12.1,15.505C8.452,97.945,4.3,102.127,0,106.14Z" transform="translate(44.811 0.002)"/><path class="e" d="M286.868,64.027A30.032,30.032,0,0,0,257,34V94.058A30.032,30.032,0,0,0,286.868,64.027Z" transform="translate(-212.189 -25.807)"/><path class="f" d="M161.689,33.988a30.033,30.033,0,0,0,0,60.065l.165,0V33.99Z" transform="translate(-117.043 -25.8)"/><g transform="translate(32.65 20.387)"><path class="g" d="M25.287,229.941v8.533a1.7,1.7,0,0,1-1.7,1.7H1.7a1.7,1.7,0,0,1-1.7-1.7v-8.532a9.714,9.714,0,0,1,9.713-9.714h5.861A9.713,9.713,0,0,1,25.287,229.941Z" transform="translate(0 -208.809)"/><path class="h" d="M124.411,229.941v8.533a1.7,1.7,0,0,1-1.7,1.7H111.767v-19.95H114.7A9.713,9.713,0,0,1,124.411,229.941Z" transform="translate(-99.124 -208.809)"/><path class="i" d="M67.568,125.746a6.463,6.463,0,0,1-6.462,6.463h0a6.462,6.462,0,0,1,0-12.925h0A6.462,6.462,0,0,1,67.568,125.746Z" transform="translate(-48.462 -119.284)"/><path class="j" d="M118.23,125.746a6.463,6.463,0,0,1-6.462,6.463h0V119.284h0a6.462,6.462,0,0,1,6.462,6.462Z" transform="translate(-99.124 -119.284)"/></g></g></g></svg>