<svg xmlns="http://www.w3.org/2000/svg" width="411.772" height="52.459" viewBox="0 0 411.772 52.459"><g transform="translate(-1346 -5851.705)"><path d="M48.676,0H3.783A3.783,3.783,0,0,0,0,3.783V48.676a3.783,3.783,0,0,0,3.783,3.783H48.676a3.783,3.783,0,0,0,3.783-3.783V3.783A3.783,3.783,0,0,0,48.676,0ZM38.206,20.451q.017.387.017.778c0,7.956-6.056,17.129-17.13,17.13h0a17.041,17.041,0,0,1-9.228-2.7,12.244,12.244,0,0,0,1.436.083,12.081,12.081,0,0,0,7.478-2.577,6.027,6.027,0,0,1-5.625-4.182,6,6,0,0,0,2.719-.1,6.022,6.022,0,0,1-4.83-5.9c0-.027,0-.052,0-.077a5.98,5.98,0,0,0,2.727.753,6.026,6.026,0,0,1-1.864-8.037,17.093,17.093,0,0,0,12.41,6.29,6.024,6.024,0,0,1,10.259-5.49A12.075,12.075,0,0,0,40.4,14.952a6.044,6.044,0,0,1-2.648,3.33,12.006,12.006,0,0,0,3.457-.948A12.236,12.236,0,0,1,38.206,20.451Z" transform="translate(1705.313 5851.705)"/><path d="M48.676,0H3.783A3.783,3.783,0,0,0,0,3.783V48.676a3.783,3.783,0,0,0,3.783,3.783H48.676a3.783,3.783,0,0,0,3.783-3.783V3.783A3.783,3.783,0,0,0,48.676,0ZM18.608,39.652H12.22V20.433h6.388ZM15.414,17.809h-.042a3.329,3.329,0,1,1,.084-6.641,3.331,3.331,0,1,1-.043,6.641ZM41.642,39.652H35.254V29.37c0-2.584-.925-4.346-3.236-4.346a3.5,3.5,0,0,0-3.277,2.336,4.374,4.374,0,0,0-.21,1.559V39.652H22.143s.084-17.416,0-19.219h6.388v2.721a6.342,6.342,0,0,1,5.757-3.172c4.2,0,7.354,2.747,7.354,8.65Z" transform="translate(1489.431 5851.705)"/><g transform="translate(1633.833 5851.705)"><path d="M224.113,217.867l8.532-4.914-8.532-4.914Z" transform="translate(-202.011 -186.723)"/><path d="M48.676,0H3.783A3.783,3.783,0,0,0,0,3.783V48.676a3.783,3.783,0,0,0,3.783,3.783H48.676a3.783,3.783,0,0,0,3.783-3.783V3.783A3.783,3.783,0,0,0,48.676,0ZM42.619,26.257a43.291,43.291,0,0,1-.675,7.885,4.107,4.107,0,0,1-2.889,2.889c-2.565.675-12.825.675-12.825.675S16,37.705,13.4,37a4.107,4.107,0,0,1-2.889-2.889A43.1,43.1,0,0,1,9.84,26.23a43.262,43.262,0,0,1,.675-7.884A4.19,4.19,0,0,1,13.4,15.429c2.565-.675,12.825-.675,12.825-.675s10.26,0,12.825.7a4.107,4.107,0,0,1,2.889,2.889A41.079,41.079,0,0,1,42.619,26.257Z" transform="translate(0)"/></g><path d="M48.676,0H3.783A3.783,3.783,0,0,0,0,3.783V48.676a3.783,3.783,0,0,0,3.783,3.783H28.023V32.172H21.209V24.232h6.814V18.388c0-6.777,4.137-10.465,10.182-10.465a56.044,56.044,0,0,1,6.109.312v7.083H40.145c-3.289,0-3.926,1.563-3.926,3.857v5.057h7.864l-1.025,7.941H36.219V52.459H48.676a3.783,3.783,0,0,0,3.783-3.783V3.783A3.783,3.783,0,0,0,48.676,0Z" transform="translate(1417.657 5851.705)"/><g transform="translate(1561.676 5851.705)"><path d="M159.573,138.953a4.987,4.987,0,0,0-2.859-2.859,8.335,8.335,0,0,0-2.8-.518c-1.589-.072-2.065-.088-6.086-.088s-4.5.015-6.086.088a8.34,8.34,0,0,0-2.8.519,4.989,4.989,0,0,0-2.859,2.859,8.336,8.336,0,0,0-.518,2.8c-.072,1.588-.088,2.064-.088,6.086s.016,4.5.088,6.086a8.334,8.334,0,0,0,.518,2.8,4.987,4.987,0,0,0,2.859,2.859,8.324,8.324,0,0,0,2.8.519c1.588.072,2.064.088,6.086.088s4.5-.015,6.086-.088a8.324,8.324,0,0,0,2.8-.519,4.988,4.988,0,0,0,2.859-2.859,8.342,8.342,0,0,0,.519-2.8c.072-1.589.088-2.065.088-6.086s-.015-4.5-.088-6.086A8.325,8.325,0,0,0,159.573,138.953ZM147.832,155.57a7.734,7.734,0,1,1,7.734-7.734A7.734,7.734,0,0,1,147.832,155.57Zm8.04-13.967a1.807,1.807,0,1,1,1.807-1.807A1.808,1.808,0,0,1,155.872,141.6Z" transform="translate(-121.602 -121.606)"/><path d="M217.041,212.021A5.021,5.021,0,1,1,212.021,207,5.021,5.021,0,0,1,217.041,212.021Z" transform="translate(-185.791 -185.791)"/><path d="M48.676,0H3.783A3.783,3.783,0,0,0,0,3.783V48.676a3.783,3.783,0,0,0,3.783,3.783H48.676a3.783,3.783,0,0,0,3.783-3.783V3.783A3.783,3.783,0,0,0,48.676,0ZM41.2,32.439a11.05,11.05,0,0,1-.7,3.656,7.7,7.7,0,0,1-4.4,4.4,11.058,11.058,0,0,1-3.656.7c-1.606.073-2.119.091-6.21.091s-4.6-.018-6.21-.091a11.057,11.057,0,0,1-3.656-.7,7.7,7.7,0,0,1-4.4-4.4,11.048,11.048,0,0,1-.7-3.656c-.074-1.606-.091-2.12-.091-6.21s.017-4.6.091-6.21a11.051,11.051,0,0,1,.7-3.656,7.707,7.707,0,0,1,4.405-4.4,11.06,11.06,0,0,1,3.656-.7c1.606-.073,2.119-.091,6.21-.091s4.6.018,6.21.091a11.063,11.063,0,0,1,3.656.7,7.7,7.7,0,0,1,4.4,4.405,11.048,11.048,0,0,1,.7,3.656c.073,1.606.09,2.119.09,6.21S41.274,30.833,41.2,32.439Z" transform="translate(0)"/></g><path d="M48.676,52.459H3.784A3.788,3.788,0,0,1,0,48.676V3.784A3.788,3.788,0,0,1,3.784,0H48.676a3.788,3.788,0,0,1,3.784,3.784V48.676A3.788,3.788,0,0,1,48.676,52.459ZM18.467,10.395a8.206,8.206,0,0,0-8.107,8.3c0,.054,0,.109,0,.162v14.33A8.206,8.206,0,0,0,18.3,41.656l.163,0h13.6c5.452,0,9.564-3.815,9.564-8.874V26.027c0-2.922-.986-3.908-3.907-3.908-.676,0-1.3-.217-1.3-1.791V18.862a8.737,8.737,0,0,0-8.765-8.467H18.467Zm13.39,23.448H20.133a1.954,1.954,0,0,1,0-3.907H31.858a1.954,1.954,0,0,1,0,3.907ZM26.647,22.119H20.133a1.954,1.954,0,0,1,0-3.908h6.514a1.954,1.954,0,0,1,0,3.908Z" transform="translate(1346 5851.705)"/></g></svg>