<svg xmlns="http://www.w3.org/2000/svg" width="97.199" height="115.148" viewBox="0 0 97.199 115.148"><defs><style>.a{fill:#2383c3;}.b{fill:#24669a;}.c{fill:#f3efef;}.d{fill:#dadada;}.e{fill:#42a6e9;}.f{fill:#ff6e4a;}.g{fill:#f76937;}.h{fill:#ff994d;}.i{fill:#fd0;}.j{fill:#ffef87;}</style></defs><g transform="translate(0 0)"><g transform="translate(0 5.829)"><path class="a" d="M129.552,123.647H62.711a8.753,8.753,0,0,1-8.743-8.743V32.914a2.914,2.914,0,0,1,3.147-2.905l72.67,5.829a2.914,2.914,0,0,1,2.681,2.905v81.99a2.914,2.914,0,0,1-2.914,2.914Z" transform="translate(-53.968 -29.999)"/></g><g transform="translate(39.249 8.734)"><path class="b" d="M292.551,47.885l-36.568-2.933v90.743h36.335a2.914,2.914,0,0,0,2.914-2.914V50.79A2.915,2.915,0,0,0,292.551,47.885Z" transform="translate(-255.983 -44.952)"/></g><path class="c" d="M89.863,26.657H156.7V15H89.863a5.829,5.829,0,0,0,0,11.657Z" transform="translate(-78.192 -12.086)"/><path class="d" d="M255.983,15h39.256V26.657H255.983Z" transform="translate(-216.734 -12.086)"/><g transform="translate(0)"><path class="e" d="M129.548,17.486H62.713A8.743,8.743,0,0,1,62.713,0h66.835a2.914,2.914,0,0,1,0,5.829H62.713a2.914,2.914,0,0,0,0,5.829h66.835a2.914,2.914,0,0,1,0,5.829Z" transform="translate(-53.97)"/></g><g transform="translate(39.249)"><path class="a" d="M255.983,5.829h36.329a2.914,2.914,0,0,0,0-5.829H255.983Z" transform="translate(-255.983)"/><path class="a" d="M292.312,60H255.983v5.829h36.329a2.914,2.914,0,0,0,0-5.829Z" transform="translate(-255.983 -48.343)"/></g></g><g transform="translate(35.255 30.779)"><path class="f" d="M287.582,121.039l-14.338-24.83a2.3,2.3,0,0,0-1.992-1.149h-6.961l-.32.9-5.551,15.669a2.307,2.307,0,0,0,2.176,3.079h15.712a2.308,2.308,0,0,1,1.832,3.712L257,146.05v3.27h14.253a2.3,2.3,0,0,0,1.992-1.149l14.338-24.83A2.311,2.311,0,0,0,287.582,121.039Z" transform="translate(-225.945 -80.005)"/><path class="g" d="M242.294,398h2.5v-3.27Z" transform="translate(-213.741 -328.681)"/><path class="h" d="M99.335,128.162H86.073a2.308,2.308,0,0,1-1.944-3.552l18.905-29.55H91.129a2.3,2.3,0,0,0-1.992,1.149L74.8,121.039a2.311,2.311,0,0,0,0,2.3l14.338,24.83a2.3,2.3,0,0,0,1.992,1.149H92.9l8.522-17.855A2.309,2.309,0,0,0,99.335,128.162Z" transform="translate(-74.492 -80.005)"/><path class="i" d="M278.141,45a2.308,2.308,0,0,0-1.832-3.712H260.6a2.307,2.307,0,0,1-2.176-3.079l5.551-15.669.32-.9,4.07-11.486a2.812,2.812,0,0,0-5.074-2.269l-7.681,11.965V74.766Z" transform="translate(-225.945 -6.583)"/><path class="j" d="M150.751,71.979l-2.513,3.927-18.905,29.55a2.308,2.308,0,0,0,1.944,3.552H144.54a2.308,2.308,0,0,1,2.083,3.3L138.1,130.167l-5.2,10.887a2.813,2.813,0,0,0,4.5,3.289l10.62-13.878.228-.3,2.5-3.27V71.979Z" transform="translate(-119.697 -60.851)"/></g></svg>