<svg xmlns="http://www.w3.org/2000/svg" width="102.384" height="135.899" viewBox="0 0 102.384 135.899"><defs><style>.a{fill:#24669a;}.b{fill:#2383c3;}.c{fill:#dadada;}.d{fill:#c2c0c0;}.e{fill:#fd0;}.f{fill:#ffef87;}.g{fill:none;}.h{fill:#ff6e4a;}.i{fill:#ff994d;}.j{fill:#fafafa;}</style></defs><g transform="translate(0)"><g transform="translate(0 47.297)"><path class="a" d="M93.524,34.462H8.86A8.87,8.87,0,0,0,0,43.322v55.13a8.87,8.87,0,0,0,8.86,8.86H37.9l10.928,14.57a2.953,2.953,0,0,0,4.725,0l10.928-14.57H93.524a8.87,8.87,0,0,0,8.86-8.86V43.322A8.87,8.87,0,0,0,93.524,34.462Z" transform="translate(0 -34.462)"/><path class="b" d="M51.192,34.462H8.86A8.87,8.87,0,0,0,0,43.322v55.13a8.87,8.87,0,0,0,8.86,8.86H37.9l10.928,14.57a2.953,2.953,0,0,0,2.363,1.181h0Z" transform="translate(0 -34.462)"/></g><path class="c" d="M79.954,20.221a1.937,1.937,0,0,0,1.2-3.457L71.447,8.994a1.935,1.935,0,0,0-2.409,3.03l9.712,7.769A1.941,1.941,0,0,0,79.954,20.221Z" transform="translate(-62.111 12.526)"/><g transform="translate(49.975 0)"><path class="d" d="M387.148,19.793l9.712-7.769a1.935,1.935,0,0,0-2.409-3.03l-9.712,7.769a1.935,1.935,0,1,0,2.409,3.03Z" transform="translate(-351.362 12.526)"/><path class="d" d="M1.942,3.885H7.77A1.942,1.942,0,0,0,7.77,0H1.942a1.942,1.942,0,0,0,0,3.885Z" transform="translate(3.885) rotate(90)"/></g><g transform="translate(20.778 9.935)"><path class="e" d="M239.342,0l-3.358,67.849,19.409-3.358V57.057A30.787,30.787,0,0,0,239.342,0Z" transform="translate(-208.558)"/><path class="f" d="M72.5,30.784A30.765,30.765,0,0,0,87.23,57.057v7.434l16.051,3.358V0A30.784,30.784,0,0,0,72.5,30.784Z" transform="translate(-72.497)"/><path class="g" d="M305.726,166.61a2.834,2.834,0,1,0,2.834,2.834A2.837,2.837,0,0,0,305.726,166.61Z" transform="translate(-264.241 -138.66)"/><path class="g" d="M178.156,166.61a2.834,2.834,0,1,0,2.834,2.834A2.837,2.837,0,0,0,178.156,166.61Z" transform="translate(-158.072 -138.66)"/><path class="h" d="M253.126,136.61a4.531,4.531,0,0,0-4.228,6.167H246.96l-.968,1.4.968,1.5h1.633v17.794h2.9V145.677h1.633a4.534,4.534,0,0,0,0-9.067Zm0,6.167a1.633,1.633,0,1,1,1.633-1.633A1.635,1.635,0,0,1,253.126,142.777Z" transform="translate(-216.175 -98.951)"/><path class="i" d="M154.084,142.776a4.533,4.533,0,1,0-4.228,2.9h1.633v17.794h2.9V145.676h1.633v-2.9Zm-4.228,0a1.633,1.633,0,1,1,1.633-1.633A1.635,1.635,0,0,1,149.856,142.776Z" transform="translate(-125.238 -98.95)"/><path class="c" d="M239.342,384.429l-3.358,14.058,19.409-3.358v-10.7Z" transform="translate(-208.558 -319.938)"/><path class="j" d="M176.373,384.429H160.322v10.7l16.051,3.358Z" transform="translate(-145.589 -319.938)"/><path class="h" d="M239.342,458.916h16.051v-10.7H239.342l-3.358,5.35Z" transform="translate(-208.558 -373.023)"/><path class="i" d="M160.322,448.215h16.051v10.7H160.322Z" transform="translate(-145.589 -373.023)"/></g></g></svg>