<svg xmlns="http://www.w3.org/2000/svg" width="59.011" height="78.328" viewBox="0 0 59.011 78.328"><defs><style>.a{fill:#24669a;}.b{fill:#2383c3;}.c{fill:#dadada;}.d{fill:#c2c0c0;}.e{fill:#fd0;}.f{fill:#ffef87;}.g{fill:none;}.h{fill:#ff6e4a;}.i{fill:#ff994d;}.j{fill:#fafafa;}</style></defs><g transform="translate(0 27.261)"><path class="a" d="M53.9,34.462H5.107A5.112,5.112,0,0,0,0,39.569V71.344a5.113,5.113,0,0,0,5.107,5.107H21.846l6.3,8.4a1.7,1.7,0,0,0,2.724,0l6.3-8.4H53.9a5.113,5.113,0,0,0,5.107-5.107V39.569A5.112,5.112,0,0,0,53.9,34.462Z" transform="translate(0 -34.462)"/><path class="b" d="M29.506,34.462H5.107A5.112,5.112,0,0,0,0,39.569V71.344a5.113,5.113,0,0,0,5.107,5.107H21.846l6.3,8.4a1.7,1.7,0,0,0,1.362.681h0Z" transform="translate(0 -34.462)"/></g><path class="c" d="M75.021,15.288a1.116,1.116,0,0,0,.694-1.993l-5.6-4.478a1.116,1.116,0,0,0-1.388,1.746l5.6,4.478A1.119,1.119,0,0,0,75.021,15.288Z" transform="translate(-64.737 3.586)"/><g transform="translate(28.804 0)"><path class="d" d="M385.815,15.041l5.6-4.478a1.116,1.116,0,0,0-1.388-1.746l-5.6,4.478a1.116,1.116,0,1,0,1.388,1.746Z" transform="translate(-365.189 3.586)"/><path class="d" d="M1.12,2.239H4.478A1.12,1.12,0,0,0,4.478,0H1.12a1.12,1.12,0,0,0,0,2.239Z" transform="translate(2.239) rotate(90)"/></g><g transform="translate(11.976 5.726)"><path class="e" d="M237.919,0l-1.935,39.106,11.186-1.935V32.886A17.745,17.745,0,0,0,237.919,0Z" transform="translate(-220.176)"/><path class="f" d="M72.5,17.743a17.732,17.732,0,0,0,8.492,15.143v4.285l9.251,1.935V0A17.743,17.743,0,0,0,72.5,17.743Z" transform="translate(-72.497)"/><path class="g" d="M304.525,166.61a1.633,1.633,0,1,0,1.633,1.633A1.635,1.635,0,0,0,304.525,166.61Z" transform="translate(-280.615 -150.5)"/><path class="g" d="M176.955,166.61a1.633,1.633,0,1,0,1.633,1.633A1.635,1.635,0,0,0,176.955,166.61Z" transform="translate(-165.38 -150.5)"/><path class="h" d="M250.1,136.61a2.612,2.612,0,0,0-2.437,3.554H246.55l-.558.806.558.865h.941v10.256h1.672V141.836h.941a2.613,2.613,0,0,0,0-5.226Zm0,3.554a.941.941,0,1,1,.941-.941A.942.942,0,0,1,250.1,140.164Z" transform="translate(-228.807 -114.904)"/><path class="i" d="M150.372,140.163a2.613,2.613,0,1,0-2.437,1.672h.941v10.256h1.672V141.835h.941v-1.672Zm-2.437,0a.941.941,0,1,1,.941-.941A.942.942,0,0,1,147.935,140.163Z" transform="translate(-133.746 -114.903)"/><path class="c" d="M237.919,384.429l-1.935,8.1L247.17,390.6v-6.168Z" transform="translate(-220.176 -347.258)"/><path class="j" d="M169.573,384.429h-9.251V390.6l9.251,1.935Z" transform="translate(-151.83 -347.258)"/><path class="h" d="M237.919,454.382h9.251v-6.167h-9.251l-1.935,3.084Z" transform="translate(-220.176 -404.877)"/><path class="i" d="M160.322,448.215h9.251v6.167h-9.251Z" transform="translate(-151.83 -404.877)"/></g></svg>