<svg xmlns="http://www.w3.org/2000/svg" width="119.234" height="116.741" viewBox="0 0 119.234 116.741"><defs><style>.a{fill:#ffeb3a;stroke:#ffeb3a;}.a,.b,.c,.d{stroke-width:5px;}.b{fill:#fdd834;stroke:#fdd834;}.c{fill:#24669a;stroke:#24669a;}.d{fill:#2383c3;stroke:#2383c3;}.e{fill:#d8d7da;}.f{fill:#ff994d;}.g{fill:#ff6e4a;}</style></defs><g transform="translate(2.5 2.507)"><path class="a" d="M7.6,326.361c0,6.452,5.741,11.683,12.822,11.683V310.749H7.6Z" transform="translate(-7.604 -241.043)"/><path class="b" d="M448.634,338.044c7.082,0,12.822-5.23,12.822-11.683V310.749H448.634Z" transform="translate(-347.222 -241.043)"/><path class="c" d="M255.23,7.6c-.077,0-.153,0-.23,0V22.342c24.462,0,44.292,20.9,44.292,46.67V76.87a14.537,14.537,0,0,1,.233,2.582v1.6h12.822V67.784C312.347,34.547,286.775,7.6,255.23,7.6Z" transform="translate(-198.113 -7.604)"/><path class="d" d="M7.6,67.794V81.058H20.193V69.022c0-25.775,19.831-46.671,44.295-46.671h0V7.617C33.052,7.748,7.6,34.638,7.6,67.794Z" transform="translate(-7.604 -7.614)"/><path class="e" d="M447.62,293.5v3.966h.233v-1.516A13.108,13.108,0,0,0,447.62,293.5Z" transform="translate(-346.441 -227.762)"/><path class="f" d="M76.422,247.382a13.055,13.055,0,0,0-13.055,13.055v32.988a13.055,13.055,0,1,0,26.111,0V260.437A13.055,13.055,0,0,0,76.422,247.382Z" transform="translate(-50.545 -192.247)"/><path class="g" d="M360.959,257.987a13.055,13.055,0,0,0-25.878,2.45v32.988a13.055,13.055,0,1,0,26.111,0V261.953h-.233Z" transform="translate(-259.78 -192.247)"/></g></svg>