<svg xmlns="http://www.w3.org/2000/svg" width="91.251" height="115.192" viewBox="0 0 91.251 115.192"><defs><style>.a{fill:#ff6e4a;}.b{fill:#ff994d;}.c{fill:#2383c3;}.d{fill:#24669a;}.e{fill:#f3efef;}.f{fill:#dadada;}.g{fill:#ffeb3a;}.h{fill:#fdd834;}</style></defs><g transform="translate(0)"><g transform="translate(7.852 67.299)"><path class="a" d="M11.64,42.331a3.475,3.475,0,0,1-.459-.03A3.51,3.51,0,0,1,8.249,39.73L.12,9.4A3.51,3.51,0,0,1,2.577,5.1L20.622.126A3.51,3.51,0,0,1,24.945,2.6l8.164,30.467a3.51,3.51,0,0,1-5.145,3.948l-8.423-4.863-4.863,8.423a3.509,3.509,0,0,1-3.038,1.755Z" transform="matrix(0.985, -0.174, 0.174, 0.985, 35.162, 5.987)"/><path class="b" d="M21.589,42.331a3.509,3.509,0,0,1-3.038-1.755l-4.863-8.423L5.265,37.016A3.509,3.509,0,0,1,.12,33.068L8.283,2.6A3.509,3.509,0,0,1,12.606.126L30.651,5.1a3.51,3.51,0,0,1,2.457,4.292L24.98,39.729a3.509,3.509,0,0,1-3.391,2.6Z" transform="translate(8.077 0) rotate(11)"/></g><path class="c" d="M106.625,91.251c-3.215,0-5.748-1.946-7.783-3.508a11.543,11.543,0,0,0-2.99-1.911,11.86,11.86,0,0,0-3.735.144c-2.633.34-5.617.726-8.312-.834-2.729-1.579-3.94-4.5-4.913-6.849A11.713,11.713,0,0,0,77.2,75.051a11.708,11.708,0,0,0-3.242-1.693c-2.347-.973-5.269-2.183-6.848-4.912-1.559-2.7-1.174-5.68-.834-8.312a11.882,11.882,0,0,0,.144-3.735,11.537,11.537,0,0,0-1.911-2.99C62.946,51.373,61,48.841,61,45.625s1.945-5.748,3.508-7.783a11.533,11.533,0,0,0,1.911-2.99,11.873,11.873,0,0,0-.144-3.735c-.34-2.633-.726-5.617.834-8.313,1.579-2.729,4.5-3.94,6.849-4.912A11.726,11.726,0,0,0,77.2,16.2a11.722,11.722,0,0,0,1.693-3.242c.973-2.347,2.183-5.269,4.913-6.848,2.7-1.56,5.68-1.174,8.312-.834a11.9,11.9,0,0,0,3.735.144,11.536,11.536,0,0,0,2.99-1.911C100.878,1.945,103.41,0,106.625,0s5.748,1.945,7.783,3.508a11.544,11.544,0,0,0,2.99,1.911,11.874,11.874,0,0,0,3.735-.144c2.633-.34,5.617-.726,8.313.834,2.729,1.579,3.94,4.5,4.913,6.848a11.714,11.714,0,0,0,1.693,3.242,11.707,11.707,0,0,0,3.242,1.693c2.348.973,5.269,2.183,6.848,4.912,1.56,2.7,1.174,5.68.834,8.312a11.882,11.882,0,0,0-.144,3.735,11.535,11.535,0,0,0,1.911,2.99c1.563,2.036,3.508,4.568,3.508,7.783s-1.945,5.748-3.508,7.783a11.542,11.542,0,0,0-1.911,2.99,11.874,11.874,0,0,0,.144,3.735c.34,2.633.726,5.617-.834,8.313-1.579,2.729-4.5,3.94-6.848,4.912a11.731,11.731,0,0,0-3.242,1.693,11.721,11.721,0,0,0-1.693,3.242c-.973,2.347-2.183,5.269-4.913,6.848-2.7,1.56-5.68,1.174-8.312.834a11.9,11.9,0,0,0-3.735-.144,11.536,11.536,0,0,0-2.99,1.911c-2.035,1.563-4.567,3.509-7.782,3.509Z" transform="translate(-61)"/><path class="d" d="M263.783,87.742a11.537,11.537,0,0,1,2.99-1.911,11.9,11.9,0,0,1,3.735.144c2.632.34,5.616.726,8.312-.834,2.729-1.579,3.94-4.5,4.913-6.848a11.713,11.713,0,0,1,1.693-3.242,11.709,11.709,0,0,1,3.242-1.693c2.348-.973,5.27-2.183,6.848-4.912,1.56-2.7,1.174-5.68.834-8.313a11.871,11.871,0,0,1-.144-3.735,11.536,11.536,0,0,1,1.911-2.99c1.563-2.036,3.508-4.568,3.508-7.783s-1.945-5.748-3.508-7.783a11.533,11.533,0,0,1-1.911-2.99,11.867,11.867,0,0,1,.144-3.735c.34-2.633.726-5.617-.834-8.312-1.579-2.729-4.5-3.939-6.848-4.912a11.722,11.722,0,0,1-3.242-1.693,11.714,11.714,0,0,1-1.693-3.242c-.973-2.347-2.183-5.269-4.913-6.848-2.7-1.56-5.68-1.174-8.312-.834a11.875,11.875,0,0,1-3.735.144,11.538,11.538,0,0,1-2.99-1.911C261.748,1.945,259.215,0,256,0V91.251c3.215,0,5.748-1.946,7.783-3.508Z" transform="translate(-210.375)"/><path class="b" d="M28.029,0A28.029,28.029,0,1,1,0,28.029,28.029,28.029,0,0,1,28.029,0Z" transform="translate(17.931 17.222)"/><path class="a" d="M284.077,103.077A28.077,28.077,0,0,0,256,75v56.154A28.077,28.077,0,0,0,284.077,103.077Z" transform="translate(-210.375 -57.452)"/><path class="e" d="M152.587,123.174a31.587,31.587,0,1,1,31.587-31.587A31.623,31.623,0,0,1,152.587,123.174Zm0-56.154a24.568,24.568,0,1,0,24.568,24.568A24.6,24.6,0,0,0,152.587,67.019Z" transform="translate(-106.961 -45.961)"/><path class="f" d="M280.568,91.587A24.6,24.6,0,0,1,256,116.154v7.019A31.587,31.587,0,0,0,256,60v7.019A24.6,24.6,0,0,1,280.568,91.587Z" transform="translate(-210.375 -45.961)"/><g transform="translate(27.355 25.737)"><path class="g" d="M205.305,145.1a3.5,3.5,0,0,1-1.633-.4l-7.49-3.938-7.49,3.938a3.51,3.51,0,0,1-5.092-3.7l1.43-8.34-6.059-5.906a3.51,3.51,0,0,1,1.945-5.986l8.374-1.217,3.745-7.588a3.51,3.51,0,0,1,6.294,0l3.745,7.588,8.374,1.217a3.51,3.51,0,0,1,1.945,5.986l-6.059,5.906,1.43,8.34a3.51,3.51,0,0,1-3.459,4.1Z" transform="translate(-177.912 -109.999)"/></g></g><g transform="translate(45.625 25.737)"><path class="h" d="M263.49,144.693a3.509,3.509,0,0,0,5.092-3.7l-1.43-8.34,6.059-5.906a3.51,3.51,0,0,0-1.945-5.986l-8.374-1.217-3.745-7.588A3.509,3.509,0,0,0,256,110v30.756Z" transform="translate(-256 -110)"/></g></svg>