<svg xmlns="http://www.w3.org/2000/svg" width="566.977" height="621.85" viewBox="0 0 566.977 621.85"><defs><style>.a,.h{fill:#2383c3;}.b{fill:#333;}.c,.k{fill:#24669a;}.d{fill:#455a64;}.e{fill:#fff;}.f{fill:#dbdbdb;}.g{fill:#a6a6a6;}.h,.k,.o{opacity:0.1;}.i{fill:#c7c7c7;}.j{fill:#d3766a;}.l{fill:#263238;}.m{fill:none;stroke:#f5a79e;stroke-linecap:round;stroke-linejoin:round;stroke-width:0;}.n{fill:#ff98b9;}.p{fill:#100e3a;}.q{fill:#ff6e4a;}</style></defs><g transform="translate(-65.079)"><g transform="translate(65.079)"><g transform="translate(0 329.657)"><g transform="translate(133.309 218.052)"><rect class="a" width="375.792" height="74.141" transform="translate(0 0)"/><g transform="translate(34.163 0)"><rect class="a" width="36.72" height="74.141" transform="translate(271.469)"/><rect class="a" width="15.323" height="74.141" transform="translate(242.531)"/><rect class="a" width="36.719" height="74.141"/></g></g><g transform="translate(22.087 29.584)"><rect class="b" width="261.531" height="38.358" transform="translate(0 252.756) rotate(-75.116)"/><g transform="translate(5.978 22.978)"><rect class="c" width="25.555" height="38.358" transform="translate(0 207.287) rotate(-75.116)"/><rect class="c" width="25.555" height="38.358" transform="translate(48.529 24.697) rotate(-75.116)"/></g></g><g transform="translate(94.8 162.729)"><rect class="d" width="260.673" height="55.323" transform="translate(0)"/><rect class="b" width="148.613" height="55.323" transform="translate(260.673)"/><rect class="e" width="260.673" height="43.842" transform="translate(0 5.741)"/><path class="f" d="M186.672,316.553q30.476-.466,60.95-.647l60.95-.2,60.95.194q30.476.17,60.95.65-30.473.469-60.95.65l-60.95.194-60.95-.2Q217.146,317.03,186.672,316.553Z" transform="translate(-169.801 -301.792)"/><path class="f" d="M186.672,321.261q30.476-.463,60.95-.647l60.95-.2,60.95.194q30.476.17,60.95.65-30.473.468-60.95.65l-60.95.194-60.95-.2Q217.146,321.741,186.672,321.261Z" transform="translate(-169.801 -297.9)"/><path class="f" d="M186.672,325.969q30.476-.463,60.95-.647l60.95-.2,60.95.194q30.476.173,60.95.65-30.473.469-60.95.65l-60.95.194-60.95-.2Q217.146,326.448,186.672,325.969Z" transform="translate(-169.801 -294.007)"/><path class="f" d="M186.672,330.678q30.476-.466,60.95-.648l60.95-.2,60.95.194q30.476.17,60.95.65-30.473.469-60.95.649l-60.95.2-60.95-.2Q217.146,331.155,186.672,330.678Z" transform="translate(-169.801 -290.114)"/></g><g transform="translate(120.205)"><rect class="g" width="213.348" height="39.719" transform="translate(0)"/><rect class="g" width="121.632" height="39.719" transform="translate(213.347)"/><rect class="e" width="213.348" height="31.476" transform="translate(0 4.121)"/><path class="f" d="M198.9,225.086q24.941-.334,49.884-.464l49.885-.142,49.884.139q24.944.123,49.885.468-24.944.337-49.885.466l-49.884.141-49.885-.142Q223.846,225.43,198.9,225.086Z" transform="translate(-185.094 -214.489)"/><path class="f" d="M198.9,228.466q24.941-.334,49.884-.464l49.885-.143,49.884.141q24.944.121,49.885.466-24.944.337-49.885.468l-49.884.139-49.885-.143Q223.846,228.81,198.9,228.466Z" transform="translate(-185.094 -211.695)"/><path class="f" d="M198.9,231.846q24.941-.332,49.884-.464l49.885-.141,49.884.139q24.944.123,49.885.466-24.944.337-49.885.468l-49.884.139-49.885-.141Q223.846,232.188,198.9,231.846Z" transform="translate(-185.094 -208.9)"/><path class="f" d="M198.9,235.227q24.941-.334,49.884-.464l49.885-.142,49.884.139q24.944.123,49.885.468-24.944.337-49.885.466l-49.884.139-49.885-.141Q223.846,235.571,198.9,235.227Z" transform="translate(-185.094 -206.105)"/></g><g transform="translate(0 73.59)"><g transform="translate(0 0)"><path class="a" d="M172,275.121,135.845,410.963l-20.621,77.45-19.9-5.3,20.621-77.45L152.1,269.819Z" transform="translate(-95.327 -269.819)"/><path class="h" d="M172,275.121,135.845,410.963l-20.621,77.45-19.9-5.3,20.621-77.45L152.1,269.819Z" transform="translate(-95.327 -269.819)"/></g><rect class="e" width="140.574" height="16.319" transform="translate(74.615 4.75) rotate(104.907)"/><path class="f" d="M156.843,279.792q-4.062,15.925-8.223,31.825L140.236,343.4l-8.526,31.744q-4.289,15.864-8.688,31.7,4.058-15.927,8.222-31.825l8.384-31.781,8.527-31.744Q152.444,295.628,156.843,279.792Z" transform="translate(-87.812 -267.113)"/><path class="f" d="M154.409,279.144q-4.06,15.927-8.222,31.825L137.8,342.75l-8.526,31.744q-4.289,15.866-8.69,31.7,4.06-15.925,8.222-31.825l8.386-31.781,8.527-31.744Q150.009,294.98,154.409,279.144Z" transform="translate(-88.473 -267.289)"/><path class="f" d="M151.976,278.5q-4.06,15.925-8.223,31.824L135.369,342.1l-8.524,31.743q-4.289,15.866-8.69,31.7,4.06-15.925,8.222-31.824l8.386-31.782,8.526-31.743Q147.577,294.331,151.976,278.5Z" transform="translate(-89.133 -267.465)"/><path class="f" d="M149.543,277.849q-4.062,15.925-8.223,31.824l-8.384,31.782L124.41,373.2q-4.289,15.864-8.688,31.7,4.058-15.925,8.222-31.824l8.384-31.781,8.527-31.744Q145.144,293.683,149.543,277.849Z" transform="translate(-89.793 -267.641)"/></g><g transform="translate(109.409 111.138)"><rect class="i" width="400.838" height="51.816"/><rect class="e" width="154.168" height="31.095" transform="translate(37.686 10.586)"/><rect class="e" width="144.716" height="4.81" transform="translate(229.052 10.586)"/><rect class="e" width="144.716" height="4.81" transform="translate(229.052 23.503)"/><rect class="e" width="144.716" height="4.81" transform="translate(229.052 36.42)"/></g><g transform="translate(137.106 39.719)"><rect class="c" width="295.565" height="71.194"/><rect class="b" width="27.548" height="71.194" transform="translate(236.685)"/><rect class="b" width="10.682" height="71.194" transform="translate(207.922)"/></g><g transform="translate(490.335 99.127)"><rect class="c" width="192.274" height="28.2" transform="translate(49.388 193.066) rotate(-104.884)"/><g transform="translate(4.49 16.893)"><rect class="b" width="18.787" height="28.2" transform="translate(40.504 159.638) rotate(-104.884)"/><rect class="b" width="18.788" height="28.2" transform="translate(4.826 25.401) rotate(-104.884)"/></g></g></g><g transform="translate(77.235 41.198)"><g transform="translate(0 92.922)"><g transform="translate(159.408)"><g transform="translate(100.728 88.446)"><path class="j" d="M462.66,266.09c-3.829,1.388-117.268,3.622-121.539,1.019-.5-.265-2.345-37.8-2.345-37.8.135-.532-1.761-4.15-4.651-9.174-8.089-14.115-23.9-39.394-23.9-39.394l67.326-20.358,27.657,55.4,7.05,14.136s15.462,6.045,28.951,12.073c.02.018.038.018.038.037,8.31,3.7,15.537,7.084,17.223,8.35C462.808,253.718,466.489,264.739,462.66,266.09Z" transform="translate(-310.223 -160.388)"/><path class="e" d="M451.842,241.017c-3.829,1.388-117.268,3.622-121.539,1.019-.5-.265-2.346-37.8-2.346-37.8.135-.532-1.761-4.15-4.651-9.174l71.081-4.351,7.05,14.136s15.462,6.045,28.951,12.073c.02.018.038.018.038.037,8.31,3.7,15.537,7.084,17.223,8.35C451.99,228.644,455.671,239.665,451.842,241.017Z" transform="translate(-299.405 -135.314)"/><g transform="translate(28.172 47.813)"><g transform="translate(0 19.947)"><path class="c" d="M450.381,235.847c-3.944,1.4-117.531,3.343-121.91.68-1.666-1-3.67-18.485-2.446-37.878l73.23-1.167s42.41,18.744,46.9,22.181C450.621,223.1,454.327,234.451,450.381,235.847Z" transform="translate(-325.642 -197.481)"/><path class="k" d="M358.191,237.3c-16.167-.073-28.333-.457-29.721-1.279-1.662-1-3.672-18.487-2.448-37.887l1.79-.036Z" transform="translate(-325.645 -196.969)"/></g><g transform="translate(6.556)"><g transform="translate(0 21.754)"><path class="l" d="M444.972,216.016c-19.048-.141-95.891,1.089-114.73,2.4-.153.009-.152.115,0,.119,18.876.552,95.706-1.3,114.734-2.2C445.379,216.308,445.374,216.018,444.972,216.016Z" transform="translate(-328.495 -183.973)"/><path class="l" d="M394.551,207.457a15.3,15.3,0,0,0-11.311,4.845c-2.322,2.625-4.282,6.293-4.081,10.239.005.113.216.113.23,0,.959-7.47,7.625-14.132,15.166-14.841A.12.12,0,0,0,394.551,207.457Z" transform="translate(-287.969 -191.043)"/><path class="l" d="M378.775,198.47c-7.623.024-16.412,2.866-21.041,9.179-.179.245.17.5.395.376a105.348,105.348,0,0,1,20.794-8.621A.479.479,0,0,0,378.775,198.47Z" transform="translate(-305.711 -198.47)"/><path class="l" d="M382.017,199.67c-7.623.026-16.412,2.866-21.041,9.18-.179.245.17.5.395.376a105.344,105.344,0,0,1,20.794-8.62A.479.479,0,0,0,382.017,199.67Z" transform="translate(-303.031 -197.478)"/><path class="l" d="M385.259,200.87c-7.623.026-16.412,2.866-21.041,9.181-.181.245.172.5.395.374a105.338,105.338,0,0,1,20.794-8.619A.48.48,0,0,0,385.259,200.87Z" transform="translate(-300.35 -196.486)"/><path class="l" d="M388.5,202.071c-7.623.024-16.412,2.866-21.041,9.18-.179.245.17.5.395.376a105.344,105.344,0,0,1,20.794-8.621A.479.479,0,0,0,388.5,202.071Z" transform="translate(-297.67 -195.493)"/><path class="l" d="M335.52,207.378c-8.549.172-8.3,13.46.267,13.288C344.336,220.494,344.084,207.206,335.52,207.378Z" transform="translate(-329.234 -191.107)"/></g><path class="l" d="M381.528,187.837c-3.913-3.131-8.719.077-11.041,3.44a39.987,39.987,0,0,0-6.591,19.607.2.2,0,0,0,.241.214.931.931,0,0,0,1.381.592c5.361-3.847,11.571-7.294,15.591-12.671C383.459,195.881,385.227,190.8,381.528,187.837ZM372.455,204.2c-2.59,1.955-5.261,3.772-7.78,5.822a119.906,119.906,0,0,1,4.1-11.364,42.858,42.858,0,0,1,2.7-5.19c1.611-2.545,8.984-9.043,9.883-.765C381.851,197.263,375.542,201.865,372.455,204.2Z" transform="translate(-300.576 -186.562)"/><path class="l" d="M357.312,207.569c6.651.906,13.465-1.1,19.967-2.223a.931.931,0,0,0,.548-1.4.2.2,0,0,0,.016-.323,39.98,39.98,0,0,0-18.6-9.055c-4.026-.705-9.684.469-10.2,5.455C348.567,204.739,353.428,207.041,357.312,207.569Zm-4.677-4.258c-5.268-6.448,4.534-7.144,7.479-6.507a42.908,42.908,0,0,1,5.588,1.717,119.751,119.751,0,0,1,10.979,5.051c-3.228.356-6.4.985-9.609,1.46C363.245,205.6,355.54,206.866,352.635,203.311Z" transform="translate(-312.877 -180.097)"/></g></g></g><g transform="translate(0)"><path class="b" d="M374.592,259.435l79.87-12.1S416.069,170.813,392.3,129.29c-13.215-23.087-49.363-24.218-66.946,3.443-23.489,36.956-41.713,71.58-52.158,90.78l-18.118,1.551,3.909,29.6,60.21,13.485c23.065,2.76,39.252-38.3,39.628-37.608C361.75,235.933,374.592,259.435,374.592,259.435Z" transform="translate(-255.083 -111.972)"/><g transform="translate(7.479 42.462)"><path d="M325.954,209.641c-2.272-4.651-4.043-9.587-6.061-14.355-1.953-4.611-3.918-9.218-5.857-13.834-3.917-9.331-7.976-18.617-11.775-28-2.134-5.267-4.092-10.6-6.085-15.917a.107.107,0,0,0-.2.062q2.313,7.541,4.83,15.016c-.448-.859-.893-1.719-1.359-2.556-1.282-2.293-2.607-4.558-3.935-6.823a.079.079,0,0,0-.135.082c1.226,2.274,2.452,4.547,3.723,6.8.634,1.118,1.326,2.223,1.995,3.341a351.022,351.022,0,0,0,16.567,40.929c2.539,5.212,5.513,10.2,8.054,15.405C325.791,209.957,326.034,209.805,325.954,209.641Z" transform="translate(-229.261 -133.353)"/><path d="M341.466,226.019c-3.851-5.941-13.021-23.927-16.306-30.145-6.644-12.576-12.725-25.41-18.472-38.417-3.248-7.349-6.288-14.764-9.295-22.214-.02-.049-.1-.027-.082.026a422.285,422.285,0,0,0,15.761,39.455c5.857,12.91,24.749,47.686,28.151,51.446C341.345,226.306,341.567,226.175,341.466,226.019Z" transform="translate(-227.651 -135.216)"/><path d="M323.408,140.677c-6.881,12.289-13.915,24.5-20.827,36.767q-5.239,9.3-10.44,18.628c-1.626,2.93-3.2,5.891-4.892,8.787a16.5,16.5,0,0,1-6.311,6.547c-3.093,1.7-6.653,2.512-10.014,3.495-3.886,1.138-7.744,2.36-11.647,3.431a.143.143,0,0,0,.082.274c3.482-.93,6.993-1.732,10.491-2.594a91.317,91.317,0,0,0,9.519-2.568,15.452,15.452,0,0,0,7.059-4.872,56.805,56.805,0,0,0,4.941-8.253q10.358-18.935,20.524-37.973c3.856-7.212,7.68-14.444,11.578-21.633A.036.036,0,0,0,323.408,140.677Z" transform="translate(-259.177 -130.715)"/><path d="M319.578,191.726c4.786-.871,9.687-1.286,14.512-1.907s9.678-1.248,14.515-1.878c9.651-1.262,42.507-6.494,44.986-7.316a.165.165,0,0,0-.053-.312c-2.353-.075-23.867,2.791-28.693,3.5-9.651,1.419-19.238,3.131-28.856,4.753-2.746.464-5.482.986-8.224,1.472s-5.477,1.074-8.233,1.429C319.366,191.491,319.411,191.757,319.578,191.726Z" transform="translate(-209.363 -97.932)"/></g></g></g><g transform="translate(0 102.806)"><g transform="translate(159.408 20.305)"><path class="j" d="M420.669,275.447c-1.277-3.866-69.748-94.333-74.423-96.077-.537-.228-31.143,21.552-31.143,21.552-1.262,1.686-59.441-10.608-59.441-10.608l-.579,70.183,105.98-2.252s14.315,8.416,27.407,15.27c.024,0,.033.016.046.007,8.056,4.247,15.191,7.824,17.225,8.356C411.042,283.236,421.973,279.294,420.669,275.447Z" transform="translate(-255.083 -179.361)"/><path class="e" d="M385.162,281.876c-2.042-.524-9.169-4.1-17.221-8.357-.018.016-.035,0-.051,0-13.085-6.856-27.4-15.281-27.4-15.281l-23.587.506-36.924-59.584c8.1,1.436,14.148,2.3,14.554,1.757,0,0,30.595-21.781,31.134-21.545,4.677,1.739,73.142,92.2,74.425,96.07C401.388,279.293,390.464,283.242,385.162,281.876Z" transform="translate(-234.503 -179.36)"/><g transform="translate(60.021)"><path class="c" d="M394.131,275.571C392.785,271.608,324,181.192,319.2,179.4c-1.818-.687-16.792,8.56-31.265,21.525l44.412,58.239s40.974,21.706,46.451,23.1C384.266,283.649,395.475,279.533,394.131,275.571Z" transform="translate(-287.939 -179.364)"/><g transform="translate(19.614 5.933)"><path class="l" d="M374.856,274.339c-11.9-14.874-58.5-75.986-69.136-91.593-.086-.126,0-.19.1-.073,12.119,14.485,58.221,75.974,69.289,91.478C375.339,274.478,375.107,274.654,374.856,274.339Z" transform="translate(-292.882 -182.612)"/><path class="l" d="M335.011,243.569a15.3,15.3,0,0,1-3.2-11.881c.625-3.449,2.293-7.26,5.517-9.543.091-.066.221.1.139.183-5.274,5.378-6.379,14.737-2.269,21.1A.119.119,0,0,1,335.011,243.569Z" transform="translate(-271.437 -149.94)"/><path class="l" d="M317.99,235.147c-4.7-6-7.908-14.665-5.815-22.208.08-.292.495-.173.539.079a105.437,105.437,0,0,0,6.1,21.666A.479.479,0,0,1,317.99,235.147Z" transform="translate(-288.055 -157.681)"/><path class="l" d="M320.939,236.949c-4.7-6-7.908-14.663-5.815-22.208.082-.292.5-.172.541.079a105.366,105.366,0,0,0,6.1,21.667A.48.48,0,0,1,320.939,236.949Z" transform="translate(-285.616 -156.19)"/><path class="l" d="M323.889,238.754c-4.7-6-7.908-14.665-5.815-22.208.08-.294.5-.174.539.077a105.371,105.371,0,0,0,6.1,21.667A.479.479,0,0,1,323.889,238.754Z" transform="translate(-283.177 -154.699)"/><path class="l" d="M326.837,240.557c-4.7-6-7.906-14.665-5.813-22.208.08-.292.5-.174.539.079a105.325,105.325,0,0,0,6.1,21.666A.48.48,0,0,1,326.837,240.557Z" transform="translate(-280.738 -153.208)"/><path class="l" d="M300.055,195.6c-5.157-6.821,5.435-14.848,10.6-8.016S305.221,202.431,300.055,195.6Z" transform="translate(-298.676 -180.653)"/><path class="l" d="M319.579,240.849c1.733-6.487.6-13.5.3-20.089a.929.929,0,0,0-1.319-.718.2.2,0,0,0-.318-.059A40,40,0,0,0,306.923,237.3c-1.2,3.9-.749,9.665,4.132,10.8C315.673,249.17,318.567,244.636,319.579,240.849Zm-4.812,4.1c-7.059,4.417-6.518-5.393-5.517-8.235a43.2,43.2,0,0,1,2.406-5.329,119.729,119.729,0,0,1,6.388-10.257c-.051,3.248.175,6.47.243,9.715C318.368,234.714,318.66,242.517,314.767,244.952Z" transform="translate(-292.321 -151.761)"/><path class="l" d="M302.57,210.5c-3.6,3.487-1.019,8.659,2.026,11.384a39.992,39.992,0,0,0,18.624,9,.2.2,0,0,0,.243-.214.93.93,0,0,0,.76-1.3c-3.144-5.8-5.784-12.395-10.614-17.06C310.791,209.6,305.974,207.2,302.57,210.5Zm15.089,11.054c1.615,2.817,3.082,5.694,4.8,8.449A119.453,119.453,0,0,1,311.7,224.51a43.053,43.053,0,0,1-4.81-3.325c-2.322-1.92-7.844-10.049.482-9.9C311.962,211.363,315.734,218.2,317.66,221.556Z" transform="translate(-296.905 -160.878)"/></g></g></g><path class="b" d="M358.222,183.289S242.1,162.9,209.064,169.6c-46.077,9.344-54.536,63.822-20.369,84.123,43.289,25.721,217.654,20.741,217.654,20.741l-41.645-70.583S300.647,190.4,242.554,192.353l116.174,17.74Z" transform="translate(-167.821 -168.249)"/><g transform="translate(45.649 19.621)"><path d="M346.818,199.556a1.586,1.586,0,0,1-.086-.362c-.026-.1-.049-.2-.073-.294-.057-.228-.119-.457-.183-.683-.133-.473-.3-.924-.482-1.381s-.376-.9-.586-1.345a10.452,10.452,0,0,0-.778-1.246c-.029-.044-.075-.051-.112-.079a.561.561,0,0,0-.075-.053.42.42,0,0,0-.1-.042.615.615,0,0,0-.106-.044c-7.046-1.31-54.913-8.16-62.032-8.971-7.176-.818-14.373-1.487-21.57-2.092a429.377,429.377,0,0,0-43.2-1.555c-1.352.024-2.7.079-4.05.124-.283-.095-.592-.146-.886-.217-.69-.166-1.379-.338-2.077-.471-1.3-.25-2.61-.44-3.918-.641-2.726-.417-5.46-.705-8.173-1.213-.164-.029-.228.219-.064.256,2.727.6,5.407,1.394,8.136,1.989.787.172,1.575.342,2.364.5-5.283.276-10.559.685-15.831,1.162-.166.015-.172.272,0,.263,7.176-.422,14.4-.475,21.589-.354,7.137.121,14.267.278,21.4.687,14.411.826,28.814,2.117,43.17,3.621,8.056.842,56.862,7.965,64.955,8.3a.554.554,0,0,0,.1-.016,4.775,4.775,0,0,0,.225.553c.221.44.444.873.683,1.3.232.413.46.822.723,1.218.13.2.261.393.4.586l.2.29a1.534,1.534,0,0,1,.21.305C346.639,199.843,346.917,199.722,346.818,199.556Z" transform="translate(-192.809 -178.99)"/><path d="M307.348,253.334c-2.578-4.125-4.777-8.526-7.136-12.78s-4.737-8.531-7.112-12.793c-4.739-8.5-21.744-37.094-23.425-39.1-.108-.126-.325.018-.27.166.8,2.212,11.415,21.145,13.858,25.367,4.888,8.443,10.022,16.719,15.084,25.054,1.445,2.382,2.941,4.731,4.408,7.1s3.022,4.691,4.37,7.123C307.207,253.619,307.438,253.479,307.348,253.334Z" transform="translate(-129.489 -171.03)"/><path d="M329.625,201.034c-4.251-1.019-8.6-1.684-12.9-2.5s-8.611-1.624-12.921-2.422q-12.925-2.4-25.889-4.589c-17.236-2.9-34.546-5.31-51.946-6.978-9.824-.943-19.671-1.564-29.512-2.285-.208-.015-.2.318.009.327,17.528.787,35.03,3.164,52.385,5.658q25.782,3.7,51.457,8.069,7.25,1.222,14.5,2.481c4.9.849,9.812,1.9,14.749,2.525C329.736,201.343,329.813,201.08,329.625,201.034Z" transform="translate(-189.919 -176.284)"/></g></g></g><g transform="translate(75.499)"><g transform="translate(92.919 73.433)"><path class="j" d="M261.914,129.053c3.359,20.959,21.183,86.032,40.107,92.961,12.417,4.547,77.167.817,87.765-10.19,4.618-4.8-.974-45.77-8.072-45.247s-57.488,9.03-62.379,6.845c-4.859-2.172-27.886-44.845-40.361-60.839C259.749,87.936,259.272,112.584,261.914,129.053Z" transform="translate(-259.399 -100.597)"/><path class="b" d="M270.064,168.915l35.646-20.783s-14.545-23.026-26.3-36.667-21.808-16.821-18.88,11.28C263.356,149.888,270.064,168.915,270.064,168.915Z" transform="translate(-260.015 -101.303)"/></g><g transform="translate(13.65 71.051)"><path class="c" d="M326.564,238.781c-1.913,1.573-109.44-9.45-109.893-10.2-1.237-2.03,21.165-68.33,35.639-92.924,18.558-31.536,27.005-33.519,32.065-34.9,6.472-1.767,17.053-.356,21.914,3.142,2.709,1.949,9.976,17.855,12.449,30.427C323.7,159.577,328.23,237.4,326.564,238.781Z" transform="translate(-216.622 -99.999)"/></g><g transform="translate(70.727)"><g transform="translate(0)"><g transform="translate(8.964 48.912)"><path class="j" d="M273.735,128.939c-6.131,1.478-16.706-7.855-20.9-15.438-.285-.521.491-6.017,1.116-12.74.365-4.081.674-8.633.656-12.809-.007-.857,26.213,6.249,26.213,6.249s-2.537,8.763-2.461,16.041a9.213,9.213,0,0,0,.188,1.712c.009.079.031.174.038.283C279.129,115.49,279.661,127.507,273.735,128.939Z" transform="translate(-252.774 -87.88)"/><path class="l" d="M254.658,87.975c1.246,7.053,5.711,24.088,19.684,24.344a15.825,15.825,0,0,0,2.678-.157,1.255,1.255,0,0,0-.035-.287,10.66,10.66,0,0,1-.194-1.706c-.073-7.292,2.47-16.054,2.47-16.054S260.347,88.989,254.658,87.975Z" transform="translate(-251.216 -87.801)"/></g><g transform="translate(8.593 3.511)"><path class="j" d="M256.168,73.887c-4.6,8.546-5.067,35.808.232,42.969,7.683,10.382,22.888,14.274,32.372,4.439,9.192-9.532,9.17-45.072,3-51.849C282.7,59.461,262.967,61.262,256.168,73.887Z" transform="translate(-252.571 -63.027)"/></g><path class="m" d="M254.339,92.286v-.009" transform="translate(-242.516 -35.332)"/><g transform="translate(27.485 28.383)"><g transform="translate(1.37 8.393)"><path class="l" d="M266.833,82.32c-.015-.071-.146.084-.146.159.018,1.838-.27,3.944-1.946,4.518-.051.018-.047.11.013.1C266.789,86.86,267.143,84.057,266.833,82.32Z" transform="translate(-262.801 -80.355)"/><path class="l" d="M266.1,81.247c-2.948-.289-3.31,5.63-.577,5.9C268.206,87.406,268.568,81.49,266.1,81.247Z" transform="translate(-263.663 -81.236)"/></g><g transform="translate(15.44 9.223)"><path class="l" d="M271.582,82.693c.018-.069.139.1.132.17-.17,1.829-.057,3.953,1.565,4.662.049.024.038.115-.022.1C271.252,87.219,271.129,84.4,271.582,82.693Z" transform="translate(-271.365 -80.877)"/><path class="l" d="M273.3,81.691c2.963-.044,2.833,5.884.09,5.924C270.691,87.656,270.821,81.728,273.3,81.691Z" transform="translate(-271.333 -81.691)"/></g><path class="l" d="M264.274,80.2a23.391,23.391,0,0,0,2.422-.245,3.931,3.931,0,0,0,2.422-.722,1.253,1.253,0,0,0,.161-1.522,3.106,3.106,0,0,0-2.97-1.05,4.572,4.572,0,0,0-3.021,1.3A1.337,1.337,0,0,0,264.274,80.2Z" transform="translate(-262.913 -76.642)"/><path class="l" d="M276.209,81.282a22.651,22.651,0,0,1-2.314-.753,3.928,3.928,0,0,1-2.214-1.22,1.256,1.256,0,0,1,.164-1.522,3.114,3.114,0,0,1,3.126-.395,4.565,4.565,0,0,1,2.678,1.913A1.337,1.337,0,0,1,276.209,81.282Z" transform="translate(-255.818 -76.213)"/><path class="l" d="M263.708,91.549c.413.457.815,1.074,1.476,1.171a4.85,4.85,0,0,0,2-.34.064.064,0,0,1,.075.1,2.477,2.477,0,0,1-2.388.853,1.953,1.953,0,0,1-1.343-1.71C263.505,91.514,263.648,91.483,263.708,91.549Z" transform="translate(-262.407 -64.346)"/><g transform="translate(3.53 2.432)"><path class="l" d="M264.878,97.373a6.252,6.252,0,0,0,4,3.032,7.856,7.856,0,0,0,2.24.239,2.385,2.385,0,0,0,.431-.022c.135-.009.256-.016.406-.038a.459.459,0,0,0,.393-.387v-.013a.83.83,0,0,0-.006-.19v-.013l.007-.161c.124-1.41.119-3.564.119-3.564.5.29,3.056,1.633,3.06.893.009-6.127.018-12.941-1.268-19.037a.17.17,0,0,0-.338.026c-.241,5.888.555,11.777.407,17.7a10.885,10.885,0,0,0-2.892-1.074c-.2.046.086,4.163-.02,4.792a.273.273,0,0,1-.016.068c-2.39.157-4.134-.667-6.339-2.4C264.929,97.107,264.777,97.222,264.878,97.373Z" transform="translate(-264.845 -77.973)"/></g><g transform="translate(2.619 21.784)"><path class="l" d="M270.737,91.121a7.44,7.44,0,0,1-3.106,2.117,3.337,3.337,0,0,1-2.031,0c-1.441-.475-1.4-1.819-1.056-2.952a7.99,7.99,0,0,1,.764-1.721A9.609,9.609,0,0,0,270.737,91.121Z" transform="translate(-264.347 -88.567)"/><path class="n" d="M267.632,92.459a3.337,3.337,0,0,1-2.031,0c-1.441-.475-1.4-1.819-1.056-2.952C266.1,89.765,267.591,90.925,267.632,92.459Z" transform="translate(-264.347 -87.788)"/></g></g><path class="b" d="M255.685,99.931c5.652,1.62,11.414-22.754,11.414-22.754s4.987,4.366,9.638,6.065a51.978,51.978,0,0,0,11.246,2.612c.851,0-7.883-6.662-7.883-6.662s8.834,3.876,17.006,3.405c4.37-.252,4.134-2.119,4.306-3.537S296.035,62.9,278.357,61.2c-11.931-1.145-18.717,8.392-18.717,8.392s-8.122,5.491-8.973,9.528C249.525,84.534,249.7,98.214,255.685,99.931Z" transform="translate(-246.009 -61.105)"/><g transform="translate(0 31.864)"><path class="d" d="M270.935,86.4c.3-4.154,2.773-7.373,5.519-7.177s4.742,3.736,4.446,7.888-2.775,7.373-5.522,7.176S270.637,90.55,270.935,86.4Zm1.008.071c-.256,3.6,1.315,6.649,3.507,6.807s4.183-2.642,4.439-6.238-1.317-6.649-3.507-6.807S272.2,82.873,271.944,86.469Z" transform="translate(-228.819 -77.998)"/><path class="d" d="M260.565,85.594a7.068,7.068,0,1,1,6.5,8.034A7.323,7.323,0,0,1,260.565,85.594Zm1.01.073a6.058,6.058,0,1,0,6.49-6.092A6.307,6.307,0,0,0,261.576,85.667Z" transform="translate(-237.385 -78.548)"/><path class="d" d="M268.219,83.213c3.865-1.056,5.482.3,5.495.314l.679-.751c-.077-.073-1.984-1.757-6.441-.541Z" transform="translate(-231.261 -75.862)"/><path class="d" d="M271.6,84.471l.256-.979c-.645-.168-15.814-4.1-17.482-4.315-1.756-.25-6.025,1.781-6.507,2.011l.435.913c1.211-.577,4.574-2.022,5.871-1.929l.075.007C255.53,80.342,266.158,83.059,271.6,84.471Z" transform="translate(-247.867 -78.045)"/></g><g transform="translate(2.547 28.608)"><path class="j" d="M260.229,85.087s-4.435-9.609-8.692-8.177-1.989,14.614,2.254,17.124a4.7,4.7,0,0,0,6.642-1.374Z" transform="translate(-249.261 -76.765)"/><path class="l" d="M250.948,78.9a.065.065,0,0,0-.046.119c2.958,1.863,4.1,5.122,4.73,8.4-.736-1.35-1.913-2.229-3.7-1.385-.093.044-.037.188.057.186a2.89,2.89,0,0,1,2.952,1.555,13.993,13.993,0,0,1,1.045,2.8c.1.312.639.252.59-.1l-.013-.079C257.378,86.356,255.239,80.1,250.948,78.9Z" transform="translate(-247.929 -74.998)"/></g></g></g><g transform="translate(0 74.781)"><g transform="translate(89.271 88.914)"><path class="j" d="M315.349,158.359c-.024,6.739-19.11,5.04-23.876,5.626-4.762.614-5.46,1.819-3.076,3.217a7.817,7.817,0,0,0,1.565.55c-7.418-1.531-31.945-10.086-31.945-10.086s14.727-4.87,22.524-6.441C288.311,149.658,315.369,151.593,315.349,158.359Z" transform="translate(-258.018 -150.714)"/></g><g transform="translate(114.365 40.685)"><path class="e" d="M348.348,145.031s6.531-5.944,12.49-9.011,19.24-8.533,21.509-10.2l4.127-.928-13.379,90.33-35.428,15.721-64.127-6.653,9-85.263,4.185-1.01s8.2,1.165,14.866,1.46S330.709,136.973,348.348,145.031Z" transform="translate(-270.281 -123.832)"/><path class="c" d="M334.016,227.86l11.032-86.707-63.806-8.729-9.486,88.188Z" transform="translate(-271.755 -117.606)"/><path class="o" d="M334.016,227.86l11.032-86.707-63.806-8.729-9.486,88.188Z" transform="translate(-271.755 -116.434)"/><path class="c" d="M305.837,224.367l8.933-1,11.123-86.718-9.024,1.011Z" transform="translate(-243.577 -114.112)"/><path class="c" d="M310.727,233.566l11.123-86.718,35.55-22.536-13.94,92.031Z" transform="translate(-239.534 -124.312)"/><path class="o" d="M310.727,233.566l11.123-86.718,35.55-22.536-13.94,92.031Z" transform="translate(-239.534 -123.141)"/></g><g transform="translate(0 1.808)"><path class="j" d="M260.647,120.282c-13.469,15.056-56.758,77.965-50.967,97.266,3.8,12.665,74.393,30.293,89.556,32.186,6.607.824,15.29-44.628,10.617-50s-47.171-5.526-48.351-10.749c-1.173-5.194,20.869-52.611,24.486-70.373C292.283,87.7,269.216,110.7,260.647,120.282Z" transform="translate(-209.15 -103.03)"/></g><path class="j" d="M332.358,181.973c-.3,5.966-9.552,7.941-10.182,8.065.557-.062,8.787-.877,8.052,5.031-.764,6.123-8.864,9.287-8.864,9.287s2.735,1.41.267,5.5c-3.56,5.848-18.231,7.625-26.114,6.737-7.881-.862-36.088-9.943-40.388-11.421l5.278-50.651s24.526,8.555,31.945,10.086c.026,0,.082.016.108.015A128.269,128.269,0,0,0,308,167.28c8.308.6,19.735-5.458,21.134.559,1.248,5.389-7.091,8.82-7.091,8.82S332.688,175.816,332.358,181.973Z" transform="translate(-171.136 -58.652)"/><g transform="translate(117.963 117.932)"><path class="l" d="M305.145,166.642c-11.94,3.971-17.851,3.643-29.877.674-.234-.058-.373.278-.133.362,11.51,3.979,18.865,5.46,30.233-.468C305.923,166.921,305.713,166.453,305.145,166.642Z" transform="translate(-272.662 -166.598)"/><path class="l" d="M306.641,173.82c-12.762,3.042-19.176,2.74-32,.559-.181-.031-.252.272-.071.318,12.4,3.2,19.771,4.5,32.124-.208C307.251,174.275,307.224,173.682,306.641,173.82Z" transform="translate(-273.112 -160.644)"/><path class="l" d="M305.825,182.532c-12.566,2.051-19.614,2.026-31.791-1.69a.233.233,0,0,0-.163.437c12.049,5,20.842,5.1,31.976,1.642C306.607,182.684,306.616,182.4,305.825,182.532Z" transform="translate(-273.724 -154.832)"/></g><g transform="translate(203.474 50.378)"><path class="j" d="M348.651,138.046c4,5.7,12.734,12.135,14.207,17.1a5.939,5.939,0,0,1-2.192,6.739s5.486,1.657,6.081,6.381c.305,2.431-3.308,5.055-3.308,5.055s4.339,1.522,4.609,5.754c.214,3.374-3.44,5.5-3.44,5.5s3.482,3.4,2.6,6.905c-1.79,7.112-30.39,12-36.609,2.218-2.9-4.558,4.152-5.373,4.152-5.373s-10.422-1.277-11.58-7.148,8.065-6.375,8.065-6.375-10.087-1.326-10.674-7.534c-.612-6.461,8.7-5.387,8.7-5.387s-7.1-3.224-6.456-8.08c1.054-8.016,14.731-.5,20.761-3.065l1.7-10.957Z" transform="translate(-320.534 -122.65)"/><path class="j" d="M344.73,153.044c-3.321-5.729,2.963-14.576.575-20.507-3.23-8.027-11.214,1.746-11.233,14.207l1.688,9.676Z" transform="translate(-309.341 -129.618)"/><g transform="translate(7.813 38.696)"><path class="p" d="M357.928,163.746a.076.076,0,0,1,.053.143c-9.015,3.9-20.116,5.422-29.762,3.279-.316-.071-.34-.616.024-.6C338.608,166.87,347.829,166.318,357.928,163.746Z" transform="translate(-322.194 -140.1)"/><path class="p" d="M359.049,157.376c.11-.027.159.153.046.2-9.311,3.968-21.861,5.338-32.688,1.558-.371-.13-.575-.617-.135-.5C333.661,160.6,349.972,159.738,359.049,157.376Z" transform="translate(-323.81 -145.367)"/><path class="p" d="M325.025,150.81c10.524,3.222,21.021,2.747,31.731.709.141-.027.163.174.053.228-4.969,2.424-11.932,3.01-17.387,3.01a29.014,29.014,0,0,1-14.508-3.58C324.736,151.081,324.8,150.741,325.025,150.81Z" transform="translate(-324.811 -150.801)"/></g></g><path class="b" d="M223.633,148.132l38.119,15.794s9.527-25.514,13.266-43.13.192-27.54-20.405-8.2C234.72,131.275,223.633,148.132,223.633,148.132Z" transform="translate(-197.176 -102.041)"/></g></g></g><g transform="translate(282.401)"><path class="q" d="M319.914,67.447c-1.312,8.219-8.39,15.06-8.39,15.06S301.811,80.9,296.07,74.88c-4.79-5.02-4.927-12.018-.725-14.864,6.023-4.085,11.341,6.964,11.341,6.964s-1.9-12.113,5.38-12.175C317.14,54.758,321,60.595,319.914,67.447Z" transform="translate(-270.049 -25.116)"/><path class="q" d="M297.053,88.006c-4.461,4.066-11.569,4.74-11.569,4.74s-4.779-5.3-5.311-11.315c-.444-5.013,2.645-9.043,6.315-8.756,5.263.411,3.277,9.079,3.277,9.079s4.4-7.727,8.558-4.468C301.222,79.559,300.771,84.615,297.053,88.006Z" transform="translate(-280.132 -10.352)"/><path class="q" d="M292.163,44.774c-1.386,3.356-5.08,5.542-5.08,5.542s-3.959-1.662-5.787-4.8c-1.525-2.614-.877-5.6,1.193-6.379,2.969-1.125,4.108,4.1,4.108,4.1s.415-5.332,3.511-4.624C292.267,39.111,293.316,41.977,292.163,44.774Z" transform="translate(-279.863 -38.552)"/></g></g></g></svg>