<svg xmlns="http://www.w3.org/2000/svg" width="343.144" height="656.709" viewBox="0 0 343.144 656.709"><defs><style>.a{fill:#333;}.b{fill:none;stroke:#000;stroke-miterlimit:10;}.c{fill:#24669a;}.d{fill:#dbdbdb;}.e{fill:#c7c7c7;}.f{fill:#ebebeb;}.g{fill:#2383c3;}.h{fill:#fff;}</style></defs><g transform="translate(747.657 -71.642)"><g transform="translate(-684.827 405.006)"><g transform="translate(0 101.442)"><path class="a" d="M342.185,450.255H605.556l8.471-167.118H333.713Z" transform="translate(-333.713 -283.138)"/><g transform="translate(18.483 19.51)"><path class="b" d="M342.7,292.628H579.389L575.8,348.59H345.784Z" transform="translate(-342.704 -292.628)"/><path class="b" d="M346.231,327.84l2.5,50.315H568.927l3.144-50.315Z" transform="translate(-338.979 -255.448)"/><path class="b" d="M437.791,314.929H390.429l-1.54-11.937h50.443Z" transform="translate(-293.939 -281.685)"/><path class="b" d="M437.791,349.111H390.429l-1.54-11.937h50.443Z" transform="translate(-293.939 -245.593)"/></g><g transform="translate(27.236 167.117)"><path class="a" d="M364.721,364.425l-2.557,18.206-5.144,36.581H346.961V364.425Z" transform="translate(-346.961 -364.425)"/><path d="M364.721,364.425l-2.557,18.206h-15.2V364.425Z" transform="translate(-346.961 -364.425)"/></g><g transform="translate(235.318 167.117)"><path class="a" d="M448.175,364.425l2.557,18.206,5.144,36.581h10.058V364.425Z" transform="translate(-448.175 -364.425)"/><path d="M448.175,364.425l2.557,18.206h15.2V364.425Z" transform="translate(-448.175 -364.425)"/></g></g><g transform="translate(125.516)"><g transform="translate(30.397 21.448)"><rect class="c" width="103.664" height="19.375"/><rect class="d" width="11.392" height="19.375" transform="translate(62.895)"/><rect class="d" width="4.227" height="19.375" transform="translate(20.445)"/></g><g transform="translate(6.29)"><path class="a" d="M0,0H131.23V21.448H0Z"/><rect class="e" width="12.231" height="21.448" transform="translate(105.088)"/><rect class="e" width="12.231" height="21.448" transform="translate(27.05)"/><rect class="e" width="4.742" height="21.448" transform="translate(47.659)"/></g><g transform="translate(32.045 55.309)"><rect class="a" width="111.3" height="18.964" transform="translate(111.3 18.964) rotate(180)"/><rect class="f" width="10.374" height="18.964" transform="translate(22.172 18.964) rotate(180)"/><rect class="f" width="10.374" height="18.964" transform="translate(88.358 18.964) rotate(180)"/><rect class="f" width="4.022" height="18.964" transform="translate(70.879 18.964) rotate(180)"/></g><g transform="translate(0 74.273)"><path class="g" d="M0,0H137.7V27.169H0Z"/><rect class="h" width="87.694" height="21.538" transform="translate(0.009 2.81)"/><path class="d" d="M397.531,273.656q10.253-.228,20.505-.317l20.505-.1,20.5.095q10.254.083,20.505.319-10.254.231-20.505.321l-20.5.095-20.505-.1Q407.783,273.892,397.531,273.656Z" transform="translate(-391.847 -266.416)"/><path class="d" d="M397.531,275.711q10.253-.228,20.505-.317l20.505-.1,20.5.095q10.254.083,20.505.319-10.254.231-20.505.321l-20.5.095-20.505-.1Q407.783,275.947,397.531,275.711Z" transform="translate(-391.847 -264.246)"/><path class="d" d="M397.531,277.768q10.253-.228,20.505-.319l20.505-.1,20.5.095q10.254.086,20.505.321-10.254.228-20.505.319l-20.5.095-20.505-.1Q407.783,278,397.531,277.768Z" transform="translate(-391.847 -262.076)"/><path class="d" d="M397.531,279.823q10.253-.228,20.505-.319l20.505-.1,20.5.1q10.254.083,20.505.319-10.254.231-20.505.319l-20.5.1-20.505-.1Q407.783,280.059,397.531,279.823Z" transform="translate(-391.847 -259.906)"/></g><g transform="translate(1.535 40.823)"><rect class="f" width="125.058" height="14.488"/><rect class="h" width="73.467" height="11.483" transform="translate(125.066 12.988) rotate(180)"/><path class="d" d="M489.324,258.9q-8.592.089-17.179.123l-17.179.037-17.177-.037q-8.591-.031-17.179-.123,8.588-.089,17.179-.123l17.177-.037,17.179.037Q480.734,258.81,489.324,258.9Z" transform="translate(-369.012 -248.277)"/><path class="d" d="M489.324,257.806q-8.592.089-17.179.123l-17.179.037-17.177-.037q-8.591-.031-17.179-.123,8.588-.089,17.179-.123l17.177-.037,17.179.037Q480.734,257.714,489.324,257.806Z" transform="translate(-369.012 -249.434)"/><path class="d" d="M489.324,256.71q-8.592.09-17.179.123l-17.179.039-17.177-.037q-8.591-.034-17.179-.125,8.588-.089,17.179-.123l17.177-.037,17.179.037Q480.734,256.621,489.324,256.71Z" transform="translate(-369.012 -250.591)"/><path class="d" d="M489.324,255.616q-8.592.086-17.179.123l-17.179.037-17.177-.037q-8.591-.034-17.179-.123,8.588-.089,17.179-.125l17.177-.037,17.179.039Q480.734,255.524,489.324,255.616Z" transform="translate(-369.012 -251.748)"/></g></g></g><g transform="translate(-747.657 71.642)"><g transform="translate(105.649 84.013)"><rect class="a" width="68.324" height="68.324" transform="translate(68.324 68.324) rotate(180)"/><rect class="g" width="47.136" height="47.136" transform="translate(57.73 57.73) rotate(180)"/><path class="c" d="M395.021,117.66V164.8H347.885Z" transform="translate(-337.291 -107.066)"/></g><g transform="translate(105.649 0)"><rect class="a" width="68.324" height="68.323" transform="translate(68.324 68.323) rotate(180)"/><rect class="g" width="47.136" height="47.136" transform="translate(57.73 57.73) rotate(180)"/><path class="c" d="M387.913,83.527v33.3h-33.3Z" transform="translate(-330.183 -59.093)"/></g><g transform="translate(0)"><rect class="a" width="89.294" height="152.904" transform="translate(89.294 152.904) rotate(180)"/><rect class="g" width="67.212" height="130.582" transform="translate(78.253 141.743) rotate(180)"/><path class="c" d="M352.034,98.951v85.6H307.975Z" transform="translate(-273.781 -42.808)"/></g><g transform="translate(189.905)"><rect class="a" width="152.904" height="152.904" transform="translate(152.904 152.904) rotate(180)"/><rect class="g" width="130.57" height="130.594" transform="translate(11.173 11.157)"/><path class="c" d="M406.933,188.959c19.736-19.853,75.705-76.1,94.01-94.175v94.175Z" transform="translate(-359.2 -47.208)"/></g></g></g></svg>