<svg xmlns="http://www.w3.org/2000/svg" width="1063.376" height="389.112" viewBox="0 0 1063.376 389.112"><defs><style>.a{fill:#fff;stroke:#fff;stroke-dasharray:5;}</style></defs><g transform="translate(-5405.362 2406.851)"><g transform="translate(5637.605 -2396.04) rotate(90)"><path class="a" d="M140.775-106.821H13.337C5.983-106.821,0-98.258,0-87.732V172.194c0,10.526,5.983,19.089,13.337,19.089H57.051L73.5,222.675a3.757,3.757,0,0,0,7.113,0l16.448-31.392h43.714c7.354,0,13.337-8.563,13.337-19.089V-87.732C154.112-98.258,148.129-106.821,140.775-106.821Z" transform="translate(66.689 6.524)"/></g><g transform="translate(6468.238 -2172.351) rotate(90)"><path class="a" d="M140.775,312.312H13.337C5.983,312.312,0,304.258,0,294.358V49.876c0-9.9,5.983-17.955,13.337-17.955H57.051L73.5,2.394a3.838,3.838,0,0,1,7.113,0L97.061,31.921h43.714c7.354,0,13.337,8.054,13.337,17.955V294.358C154.112,304.258,148.129,312.312,140.775,312.312Z" transform="translate(0 0)"/></g><g transform="translate(6247.238 -2406.351) rotate(90)"><path class="a" d="M140.775,237.551H13.337A13.515,13.515,0,0,1,0,223.894V37.937A13.515,13.515,0,0,1,13.337,24.279H57.051L73.5,1.821a4.383,4.383,0,0,1,7.113,0L97.061,24.279h43.714a13.515,13.515,0,0,1,13.337,13.657V223.894A13.515,13.515,0,0,1,140.775,237.551Z" transform="translate(0 0)"/></g></g></svg>