<svg xmlns="http://www.w3.org/2000/svg" width="3347.786" height="1097.729" viewBox="0 0 3347.786 1097.729"><defs><style>.a{fill:#1d5f92;}.a,.b,.d,.e{fill-rule:evenodd;}.b{fill:none;stroke:#1f74a3;stroke-width:3px;}.c{fill:#0673b8;}.d,.g{fill:#1f74a3;}.e,.f{fill:#256aa0;}.f{stroke:#256aa0;stroke-width:2px;}.h{fill:#1671b9;}</style></defs><g transform="translate(856.203 283.177)"><path class="a" d="M446.143,348.51H294.433c-81.653,0-148.456-63.392-148.456-140.869h0c0-77.48,66.8-140.87,148.456-140.87H1699.566c132.219,0,118.063,102.647,118.063,228.106h0c0,125.461-108.173,228.107-240.389,228.107h0c-55.9,0-101.64,43.4-101.64,96.449h0c0,53.047,45.738,96.449,101.643,96.449h122.327c58.121,0,105.675,45.124,105.675,100.274h0c0,55.153-47.555,100.275-105.675,100.275H1544.879c-22.627,0-41.14,17.571-41.14,39.04h0c0,21.471,18.513,39.038,41.14,39.038h27.269c15.615,0,28.392,12.125,28.392,26.942v0c0,14.818-12.777,26.943-28.392,26.943H1393.219c-37.684,0-41.879-42.243-137.066-42.243H981.893c-20.38,0-37.051-15.823-37.051-35.155v0c0-19.333,16.674-35.156,37.051-35.156h35.579c29.527,0,53.685-22.926,53.685-50.939v0c0-28.015-24.158-50.941-53.685-50.941H963.927c-144.6,0-165.021-35.857-190.345-107.175s-156.854-77.068-156.854-77.068H436.882c-44.495,0-80.9-34.545-80.9-76.766h0c0-42.221,36.4-76.765,80.9-76.765h9.26c42.8,0,77.813-33.229,77.813-73.839h0c0-40.609-35.016-73.835-77.813-73.835Zm1205.686,646c-15.684,0-28.4,12.063-28.4,26.942s12.713,26.945,28.4,26.945,28.394-12.063,28.394-26.945S1667.507,994.511,1651.829,994.511Z" transform="translate(-1002.18 -349.948)"/><path class="a" d="M1037.7,820.976l33.34-22.123c-49.268,0,246.728-139.692,246.728-204.888h0c0-65.195,40.309-118.536,89.577-118.536h107.806c51.222,0,93.131-55.456,93.131-123.237h0c0-67.783-41.91-123.238-93.131-123.238H1378.823c-19.941,0-36.257-21.594-36.257-47.98h0c0-26.388,16.315-47.978,36.257-47.978h24.032c13.761,0,25.022-14.9,25.022-33.111v0c0-18.212-11.261-33.113-25.022-33.113h-157.69c-33.211,0-36.907,51.917-120.8,51.917h-241.7c-17.961,0-32.653,19.447-32.653,43.205v0c0,23.76,14.7,43.207,32.653,43.207h31.356c26.022,0,47.312,28.176,47.312,62.6v0c0,34.431-21.29,62.606-47.312,62.606H866.832c-127.432,0-145.432,44.068-167.75,131.717s-138.235,94.716-138.235,94.716H402.35c-39.213,0-71.3,42.456-71.3,94.345h0c0,51.889,32.083,94.344,71.3,94.344h8.161c36.359,0,68.47,73.741,68.47,75.538h0C551.141,815.974,1154.218,820.976,1037.7,820.976ZM1473.077,133c-13.822,0-25.026-14.826-25.026-33.111s11.2-33.115,25.026-33.115S1498.1,81.6,1498.1,99.886,1486.894,133,1473.077,133Z" transform="translate(883.305 -6.425)"/><g transform="translate(25.489 16.439)"><path class="b" d="M828.357,239.025ZM843.2,182.511a28.551,28.551,0,1,1-8.362,20.189,28.467,28.467,0,0,1,8.362-20.189Zm6.167-28.3a50.267,50.267,0,0,0-11.189,4.765,50.82,50.82,0,0,0-9.82,7.4,1.748,1.748,0,0,1-2.09.255L813,158.972l-.07-.042a3.309,3.309,0,0,0-4.419,1.247l-.057.091-9.333,16.166a3.314,3.314,0,0,0,1.208,4.5l.09.057,13.159,7.593a1.748,1.748,0,0,1,.825,1.935h0a50.73,50.73,0,0,0,0,24.366,1.752,1.752,0,0,1-.929,1.987l-13.154,7.6,0,0a3.311,3.311,0,0,0-1.208,4.5l9.387,16.262,0,0A3.3,3.3,0,0,0,813,246.43l.1-.054,13.175-7.608a1.756,1.756,0,0,1,2.083.254,50.594,50.594,0,0,0,9.818,7.4,50.041,50.041,0,0,0,11.262,4.786,1.759,1.759,0,0,1,1.277,1.686V268.2A3.3,3.3,0,0,0,854,271.48h18.779a3.3,3.3,0,0,0,3.282-3.28V252.894a1.763,1.763,0,0,1,1.348-1.709,50.027,50.027,0,0,0,11.189-4.762,50.769,50.769,0,0,0,9.82-7.4,1.745,1.745,0,0,1,2.178-.2l13.176,7.6a3.306,3.306,0,0,0,4.49-1.208l.058-.089,9.335-16.172h0a3.316,3.316,0,0,0-1.2-4.49L913.2,216.817a1.752,1.752,0,0,1-.826-1.934h0a50.85,50.85,0,0,0,0-24.366,1.75,1.75,0,0,1,.925-1.989l13.16-7.6a3.316,3.316,0,0,0,1.2-4.49l-.052-.1-9.335-16.166h0a3.31,3.31,0,0,0-4.492-1.207l0,0-13.266,7.66a1.752,1.752,0,0,1-2.129-.289,50.806,50.806,0,0,0-9.782-7.366,50.115,50.115,0,0,0-11.261-4.786,1.751,1.751,0,0,1-1.275-1.685V137.2a3.3,3.3,0,0,0-3.282-3.282H854a3.3,3.3,0,0,0-3.284,3.282v15.3A1.752,1.752,0,0,1,849.368,154.212Z" transform="translate(-505.227 243.671)"/><g transform="translate(852.998 88.711)"><path class="c" d="M1063.578,925.139A2.138,2.138,0,1,1,1061.44,923,2.138,2.138,0,0,1,1063.578,925.139Z" transform="translate(-1059.301 -923)"/><path class="c" d="M1090.5,925.139a2.138,2.138,0,1,1-2.138-2.139A2.138,2.138,0,0,1,1090.5,925.139Z" transform="translate(-1057.576 -923)"/><circle class="c" cx="2.138" cy="2.138" r="2.138" transform="translate(57.298 0)"/><path class="c" d="M1144.35,925.139a2.139,2.139,0,1,1-2.139-2.139A2.138,2.138,0,0,1,1144.35,925.139Z" transform="translate(-1054.127 -923)"/><path class="c" d="M1063.578,951.444a2.138,2.138,0,1,1-2.138-2.138A2.139,2.139,0,0,1,1063.578,951.444Z" transform="translate(-1059.301 -921.315)"/><path class="c" d="M1090.5,951.444a2.138,2.138,0,1,1-2.138-2.138A2.138,2.138,0,0,1,1090.5,951.444Z" transform="translate(-1057.576 -921.315)"/><path class="c" d="M1117.425,951.444a2.138,2.138,0,1,1-2.137-2.138A2.138,2.138,0,0,1,1117.425,951.444Z" transform="translate(-1055.851 -921.315)"/><path class="c" d="M1144.35,951.444a2.139,2.139,0,1,1-2.139-2.138A2.139,2.139,0,0,1,1144.35,951.444Z" transform="translate(-1054.127 -921.315)"/><path class="c" d="M1063.578,977.749a2.138,2.138,0,1,1-2.138-2.138A2.139,2.139,0,0,1,1063.578,977.749Z" transform="translate(-1059.301 -919.629)"/><path class="c" d="M1090.5,977.749a2.138,2.138,0,1,1-2.138-2.138A2.138,2.138,0,0,1,1090.5,977.749Z" transform="translate(-1057.576 -919.629)"/><circle class="c" cx="2.138" cy="2.138" r="2.138" transform="translate(57.298 55.981)"/><path class="c" d="M1144.35,977.749a2.139,2.139,0,1,1-2.139-2.138A2.139,2.139,0,0,1,1144.35,977.749Z" transform="translate(-1054.127 -919.629)"/><path class="c" d="M1063.578,1004.78a2.138,2.138,0,1,1-2.138-2.137A2.139,2.139,0,0,1,1063.578,1004.78Z" transform="translate(-1059.301 -917.898)"/><path class="c" d="M1090.5,1004.78a2.138,2.138,0,1,1-2.138-2.137A2.138,2.138,0,0,1,1090.5,1004.78Z" transform="translate(-1057.576 -917.898)"/><circle class="c" cx="2.138" cy="2.138" r="2.138" transform="translate(57.298 84.744)"/><path class="c" d="M1144.35,1004.78a2.139,2.139,0,1,1-2.139-2.137A2.139,2.139,0,0,1,1144.35,1004.78Z" transform="translate(-1054.127 -917.898)"/><path class="c" d="M1063.578,1031.086a2.138,2.138,0,1,1-2.138-2.139A2.138,2.138,0,0,1,1063.578,1031.086Z" transform="translate(-1059.301 -916.213)"/><path class="c" d="M1090.5,1031.086a2.138,2.138,0,1,1-2.138-2.139A2.137,2.137,0,0,1,1090.5,1031.086Z" transform="translate(-1057.576 -916.213)"/><circle class="c" cx="2.138" cy="2.138" r="2.138" transform="translate(57.298 112.734)"/><path class="c" d="M1144.35,1031.086a2.139,2.139,0,1,1-2.139-2.139A2.138,2.138,0,0,1,1144.35,1031.086Z" transform="translate(-1054.127 -916.213)"/><path class="c" d="M1063.578,1057.391a2.138,2.138,0,1,1-2.138-2.138A2.139,2.139,0,0,1,1063.578,1057.391Z" transform="translate(-1059.301 -914.527)"/><path class="c" d="M1090.5,1057.391a2.138,2.138,0,1,1-2.138-2.138A2.138,2.138,0,0,1,1090.5,1057.391Z" transform="translate(-1057.576 -914.527)"/><circle class="c" cx="2.138" cy="2.138" r="2.138" transform="translate(57.298 140.725)"/><path class="c" d="M1144.35,1057.391a2.139,2.139,0,1,1-2.139-2.138A2.139,2.139,0,0,1,1144.35,1057.391Z" transform="translate(-1054.127 -914.527)"/><circle class="c" cx="2.138" cy="2.138" r="2.138" transform="translate(116.031 0)"/><circle class="c" cx="2.138" cy="2.138" r="2.138" transform="translate(144.68 0)"/><path class="c" d="M1226.471,925.139a2.139,2.139,0,1,1-2.139-2.139A2.139,2.139,0,0,1,1226.471,925.139Z" transform="translate(-1048.866 -923)"/><path class="c" d="M1253.4,925.139a2.138,2.138,0,1,1-2.139-2.139A2.138,2.138,0,0,1,1253.4,925.139Z" transform="translate(-1047.141 -923)"/><path class="c" d="M1172.623,951.444a2.138,2.138,0,1,1-2.138-2.138A2.139,2.139,0,0,1,1172.623,951.444Z" transform="translate(-1052.315 -921.315)"/><path class="c" d="M1199.547,951.444a2.138,2.138,0,1,1-2.138-2.138A2.138,2.138,0,0,1,1199.547,951.444Z" transform="translate(-1050.59 -921.315)"/><path class="c" d="M1226.471,951.444a2.139,2.139,0,1,1-2.139-2.138A2.139,2.139,0,0,1,1226.471,951.444Z" transform="translate(-1048.866 -921.315)"/><path class="c" d="M1253.4,951.444a2.138,2.138,0,1,1-2.139-2.138A2.139,2.139,0,0,1,1253.4,951.444Z" transform="translate(-1047.141 -921.315)"/><circle class="c" cx="2.138" cy="2.138" r="2.138" transform="translate(116.031 55.981)"/><circle class="c" cx="2.138" cy="2.138" r="2.138" transform="translate(144.68 55.981)"/><path class="c" d="M1226.471,977.749a2.139,2.139,0,1,1-2.139-2.138A2.139,2.139,0,0,1,1226.471,977.749Z" transform="translate(-1048.866 -919.629)"/><path class="c" d="M1253.4,977.749a2.138,2.138,0,1,1-2.139-2.138A2.139,2.139,0,0,1,1253.4,977.749Z" transform="translate(-1047.141 -919.629)"/><circle class="c" cx="2.138" cy="2.138" r="2.138" transform="translate(116.031 84.744)"/><circle class="c" cx="2.138" cy="2.138" r="2.138" transform="translate(144.68 84.744)"/><path class="c" d="M1226.471,1004.78a2.139,2.139,0,1,1-2.139-2.137A2.139,2.139,0,0,1,1226.471,1004.78Z" transform="translate(-1048.866 -917.898)"/><path class="c" d="M1253.4,1004.78a2.138,2.138,0,1,1-2.139-2.137A2.139,2.139,0,0,1,1253.4,1004.78Z" transform="translate(-1047.141 -917.898)"/><circle class="c" cx="2.138" cy="2.138" r="2.138" transform="translate(116.031 112.734)"/><circle class="c" cx="2.138" cy="2.138" r="2.138" transform="translate(144.68 112.734)"/><path class="c" d="M1226.471,1031.086a2.139,2.139,0,1,1-2.139-2.139A2.138,2.138,0,0,1,1226.471,1031.086Z" transform="translate(-1048.866 -916.213)"/><path class="c" d="M1253.4,1031.086a2.138,2.138,0,1,1-2.139-2.139A2.138,2.138,0,0,1,1253.4,1031.086Z" transform="translate(-1047.141 -916.213)"/><circle class="c" cx="2.138" cy="2.138" r="2.138" transform="translate(116.031 140.725)"/><circle class="c" cx="2.138" cy="2.138" r="2.138" transform="translate(144.68 140.725)"/><path class="c" d="M1226.471,1057.391a2.139,2.139,0,1,1-2.139-2.138A2.139,2.139,0,0,1,1226.471,1057.391Z" transform="translate(-1048.866 -914.527)"/><path class="c" d="M1253.4,1057.391a2.138,2.138,0,1,1-2.139-2.138A2.139,2.139,0,0,1,1253.4,1057.391Z" transform="translate(-1047.141 -914.527)"/><path class="c" d="M1281.668,925.139A2.138,2.138,0,1,1,1279.53,923,2.138,2.138,0,0,1,1281.668,925.139Z" transform="translate(-1045.33 -923)"/><path class="c" d="M1308.591,925.139a2.138,2.138,0,1,1-2.138-2.139A2.138,2.138,0,0,1,1308.591,925.139Z" transform="translate(-1043.605 -923)"/><circle class="c" cx="2.138" cy="2.138" r="2.138" transform="translate(289.36 0)"/><path class="c" d="M1281.668,951.444a2.138,2.138,0,1,1-2.138-2.138A2.138,2.138,0,0,1,1281.668,951.444Z" transform="translate(-1045.33 -921.315)"/><path class="c" d="M1308.591,951.444a2.138,2.138,0,1,1-2.138-2.138A2.138,2.138,0,0,1,1308.591,951.444Z" transform="translate(-1043.605 -921.315)"/><path class="c" d="M1335.517,951.444a2.139,2.139,0,1,1-2.139-2.138A2.139,2.139,0,0,1,1335.517,951.444Z" transform="translate(-1041.88 -921.315)"/><path class="c" d="M1281.668,977.749a2.138,2.138,0,1,1-2.138-2.138A2.138,2.138,0,0,1,1281.668,977.749Z" transform="translate(-1045.33 -919.629)"/><path class="c" d="M1308.591,977.749a2.138,2.138,0,1,1-2.138-2.138A2.138,2.138,0,0,1,1308.591,977.749Z" transform="translate(-1043.605 -919.629)"/><circle class="c" cx="2.138" cy="2.138" r="2.138" transform="translate(289.36 55.981)"/><path class="c" d="M1281.668,1004.78a2.138,2.138,0,1,1-2.138-2.137A2.138,2.138,0,0,1,1281.668,1004.78Z" transform="translate(-1045.33 -917.898)"/><path class="c" d="M1308.591,1004.78a2.138,2.138,0,1,1-2.138-2.137A2.138,2.138,0,0,1,1308.591,1004.78Z" transform="translate(-1043.605 -917.898)"/><circle class="c" cx="2.138" cy="2.138" r="2.138" transform="translate(289.36 84.744)"/><path class="c" d="M1281.668,1031.086a2.138,2.138,0,1,1-2.138-2.139A2.137,2.137,0,0,1,1281.668,1031.086Z" transform="translate(-1045.33 -916.213)"/><path class="c" d="M1308.591,1031.086a2.138,2.138,0,1,1-2.138-2.139A2.137,2.137,0,0,1,1308.591,1031.086Z" transform="translate(-1043.605 -916.213)"/><circle class="c" cx="2.138" cy="2.138" r="2.138" transform="translate(289.36 112.734)"/><path class="c" d="M1281.668,1057.391a2.138,2.138,0,1,1-2.138-2.138A2.138,2.138,0,0,1,1281.668,1057.391Z" transform="translate(-1045.33 -914.527)"/><path class="c" d="M1308.591,1057.391a2.138,2.138,0,1,1-2.138-2.138A2.138,2.138,0,0,1,1308.591,1057.391Z" transform="translate(-1043.605 -914.527)"/><circle class="c" cx="2.138" cy="2.138" r="2.138" transform="translate(289.36 140.725)"/></g><path class="d" d="M631.638,394.171a2.925,2.925,0,1,0-5.849,0v6.878h-6.878a2.925,2.925,0,1,0,0,5.85h6.878v6.879a2.925,2.925,0,0,0,5.849,0V406.9h6.88a2.925,2.925,0,0,0,0-5.85h-6.88Z" transform="translate(315.956 98.343)"/><g transform="translate(115.69 113.23)"><path class="e" d="M493.938,511.235a2.825,2.825,0,1,1,5.65,0v12.711a2.825,2.825,0,1,1-5.65,0V511.235Zm-19.267,10.322a2.827,2.827,0,1,1,4-4l8.99,8.99a2.826,2.826,0,0,1-4,4l-8.99-8.989Zm-6.324,20.924a2.828,2.828,0,1,1,0-5.657h12.712a2.828,2.828,0,0,1,0,5.657Zm10.32,19.266a2.826,2.826,0,1,1-4-4l8.99-8.99a2.826,2.826,0,0,1,4,4l-8.99,8.992Zm20.921,6.322a2.825,2.825,0,0,1-5.65,0V555.352a2.825,2.825,0,1,1,5.65,0v12.717Zm19.267-10.321a2.827,2.827,0,0,1-4,4l-8.991-8.992a2.827,2.827,0,0,1,4-4l8.991,8.99Zm6.324-20.924a2.828,2.828,0,0,1,0,5.657H512.465a2.828,2.828,0,0,1,0-5.657Zm-10.323-19.267a2.828,2.828,0,1,1,4,4l-8.991,8.989a2.827,2.827,0,0,1-4-4Z" transform="translate(839.894 49.99)"/><path class="e" d="M1803.852,119.124a2.924,2.924,0,1,0-5.848,0V126h-6.878a2.926,2.926,0,1,0,0,5.851H1798v6.879a2.924,2.924,0,1,0,5.848,0v-6.879h6.881a2.926,2.926,0,0,0,0-5.851h-6.881Z" transform="translate(-101.313 -116.198)"/><path class="e" d="M272.313,348.533a2.926,2.926,0,0,0-5.851,0v6.878h-6.878a2.926,2.926,0,1,0,0,5.851h6.878v6.878a2.926,2.926,0,0,0,5.851,0v-6.878h6.878a2.926,2.926,0,0,0,0-5.851h-6.878Z" transform="translate(-190.691 -66.23)"/><path class="f" d="M96.526,85.476H74.389L66.96,67.5H29.085L21.656,85.476H0L38.1,0h20.21Zm-21.068-1.6h18.6L57.269,1.6H39.135L2.462,83.878H20.587l7.429-17.973H68.028ZM62.579,52.764H33.586l14.5-35Zm-26.6-1.6H60.188L48.082,21.94Z" transform="translate(0 486.901) rotate(-14)"/></g><g transform="translate(542.634 100.299)"><path class="d" d="M1601.64,499.811a2.926,2.926,0,0,0-5.851,0v6.878h-6.875a2.926,2.926,0,1,0,0,5.851h6.875v6.877a2.926,2.926,0,0,0,5.851,0V512.54h6.878a2.926,2.926,0,1,0,0-5.851h-6.878Z" transform="translate(-1054.846 -320.082)"/><path class="d" d="M1601.64,499.811a2.926,2.926,0,0,0-5.851,0v6.878h-6.875a2.926,2.926,0,1,0,0,5.851h6.875v6.877a2.926,2.926,0,0,0,5.851,0V512.54h6.878a2.926,2.926,0,1,0,0-5.851h-6.878Z" transform="translate(-892.612 -496.887)"/><path class="d" d="M1656.661,705.877a2.825,2.825,0,0,1,5.65,0v12.708a2.825,2.825,0,1,1-5.65,0V705.877ZM1637.394,716.2a2.826,2.826,0,0,1,4-4l8.991,8.989a2.827,2.827,0,1,1-4,4l-8.991-8.99Zm-6.324,20.922a2.828,2.828,0,1,1,0-5.657h12.713a2.828,2.828,0,0,1,0,5.657Zm10.32,19.269a2.826,2.826,0,0,1-4-4l8.991-8.99a2.826,2.826,0,0,1,4,4l-8.991,8.99Zm20.921,6.322a2.825,2.825,0,0,1-5.65,0V749.993a2.825,2.825,0,0,1,5.65,0v12.718Zm19.267-10.321a2.827,2.827,0,0,1-4,4l-8.991-8.99a2.827,2.827,0,0,1,4-4l8.991,8.99Zm6.323-20.927a2.828,2.828,0,1,1,0,5.657h-12.713a2.828,2.828,0,0,1,0-5.657ZM1677.579,712.2a2.827,2.827,0,0,1,4,4l-8.991,8.99a2.828,2.828,0,0,1-4-4Z" transform="translate(-1628.241 -677.634)"/><g transform="translate(679.518 596.886)"><path class="g" d="M75.432,69.03H39.773V33.371A1.372,1.372,0,0,0,38.4,32,38.4,38.4,0,1,0,76.8,70.4,1.372,1.372,0,0,0,75.432,69.03ZM38.4,106.061A35.659,35.659,0,0,1,37.03,34.769V70.4A1.372,1.372,0,0,0,38.4,71.773H74.035A35.7,35.7,0,0,1,38.4,106.061Z" transform="translate(0 -32)"/><g transform="translate(46.501)"><path class="g" d="M249.114,0A1.114,1.114,0,0,0,248,1.114V31.182a1.114,1.114,0,0,0,1.114,1.114h30.068a1.114,1.114,0,0,0,1.114-1.114A31.217,31.217,0,0,0,249.114,0Zm1.114,30.068V2.248a29,29,0,0,1,27.82,27.82Z" transform="translate(-248)"/></g></g></g><g transform="translate(2.016 63.346)"><g transform="translate(1574.056 305.68)"><path class="h" d="M1731.533,454.372a2.165,2.165,0,1,1-2.165-2.165A2.164,2.164,0,0,1,1731.533,454.372Z" transform="translate(-1727.204 -452.207)"/><path class="h" d="M1765.369,454.372a2.164,2.164,0,1,1-2.164-2.165A2.164,2.164,0,0,1,1765.369,454.372Z" transform="translate(-1732.04 -452.207)"/><circle class="h" cx="2.165" cy="2.165" r="2.165" transform="translate(58 0)"/><path class="h" d="M1833.042,454.372a2.165,2.165,0,1,1-2.165-2.165A2.164,2.164,0,0,1,1833.042,454.372Z" transform="translate(-1741.713 -452.207)"/><path class="h" d="M1731.533,487.431a2.165,2.165,0,1,1-2.165-2.165A2.164,2.164,0,0,1,1731.533,487.431Z" transform="translate(-1727.204 -456.932)"/><path class="h" d="M1765.369,487.431a2.164,2.164,0,1,1-2.164-2.165A2.163,2.163,0,0,1,1765.369,487.431Z" transform="translate(-1732.04 -456.932)"/><path class="h" d="M1799.2,487.431a2.165,2.165,0,1,1-2.164-2.165A2.164,2.164,0,0,1,1799.2,487.431Z" transform="translate(-1736.876 -456.932)"/><path class="h" d="M1833.042,487.431a2.165,2.165,0,1,1-2.165-2.165A2.164,2.164,0,0,1,1833.042,487.431Z" transform="translate(-1741.713 -456.932)"/><path class="h" d="M1731.533,520.489a2.165,2.165,0,1,1-2.165-2.164A2.165,2.165,0,0,1,1731.533,520.489Z" transform="translate(-1727.204 -461.657)"/><path class="h" d="M1765.369,520.489a2.164,2.164,0,1,1-2.164-2.164A2.164,2.164,0,0,1,1765.369,520.489Z" transform="translate(-1732.04 -461.657)"/><circle class="h" cx="2.165" cy="2.165" r="2.165" transform="translate(58 56.667)"/><path class="h" d="M1833.042,520.489a2.165,2.165,0,1,1-2.165-2.164A2.165,2.165,0,0,1,1833.042,520.489Z" transform="translate(-1741.713 -461.657)"/><path class="h" d="M1731.533,554.46a2.165,2.165,0,1,1-2.165-2.165A2.164,2.164,0,0,1,1731.533,554.46Z" transform="translate(-1727.204 -466.513)"/><path class="h" d="M1765.369,554.46a2.164,2.164,0,1,1-2.164-2.165A2.164,2.164,0,0,1,1765.369,554.46Z" transform="translate(-1732.04 -466.513)"/><circle class="h" cx="2.165" cy="2.165" r="2.165" transform="translate(58 85.782)"/><path class="h" d="M1833.042,554.46a2.165,2.165,0,1,1-2.165-2.165A2.164,2.164,0,0,1,1833.042,554.46Z" transform="translate(-1741.713 -466.513)"/><path class="h" d="M1731.533,587.518a2.165,2.165,0,1,1-2.165-2.164A2.165,2.165,0,0,1,1731.533,587.518Z" transform="translate(-1727.204 -471.238)"/><path class="h" d="M1765.369,587.518a2.164,2.164,0,1,1-2.164-2.164A2.164,2.164,0,0,1,1765.369,587.518Z" transform="translate(-1732.04 -471.238)"/><circle class="h" cx="2.165" cy="2.165" r="2.165" transform="translate(58 114.116)"/><path class="h" d="M1833.042,587.518a2.165,2.165,0,1,1-2.165-2.164A2.165,2.165,0,0,1,1833.042,587.518Z" transform="translate(-1741.713 -471.238)"/><path class="h" d="M1731.533,620.577a2.165,2.165,0,1,1-2.165-2.164A2.165,2.165,0,0,1,1731.533,620.577Z" transform="translate(-1727.204 -475.963)"/><path class="h" d="M1765.369,620.577a2.164,2.164,0,1,1-2.164-2.164A2.164,2.164,0,0,1,1765.369,620.577Z" transform="translate(-1732.04 -475.963)"/><circle class="h" cx="2.165" cy="2.165" r="2.165" transform="translate(58 142.449)"/><path class="h" d="M1833.042,620.577a2.165,2.165,0,1,1-2.165-2.164A2.165,2.165,0,0,1,1833.042,620.577Z" transform="translate(-1741.713 -475.963)"/><circle class="h" cx="2.165" cy="2.165" r="2.165" transform="translate(117.452 0)"/><circle class="h" cx="2.165" cy="2.165" r="2.165" transform="translate(146.452 0)"/><path class="h" d="M1936.245,454.372a2.165,2.165,0,1,1-2.164-2.165A2.164,2.164,0,0,1,1936.245,454.372Z" transform="translate(-1756.464 -452.207)"/><path class="h" d="M1970.081,454.372a2.164,2.164,0,1,1-2.164-2.165A2.164,2.164,0,0,1,1970.081,454.372Z" transform="translate(-1761.3 -452.207)"/><path class="h" d="M1868.573,487.431a2.165,2.165,0,1,1-2.165-2.165A2.164,2.164,0,0,1,1868.573,487.431Z" transform="translate(-1746.791 -456.932)"/><path class="h" d="M1902.409,487.431a2.165,2.165,0,1,1-2.165-2.165A2.164,2.164,0,0,1,1902.409,487.431Z" transform="translate(-1751.628 -456.932)"/><path class="h" d="M1936.245,487.431a2.165,2.165,0,1,1-2.164-2.165A2.164,2.164,0,0,1,1936.245,487.431Z" transform="translate(-1756.464 -456.932)"/><path class="h" d="M1970.081,487.431a2.164,2.164,0,1,1-2.164-2.165A2.164,2.164,0,0,1,1970.081,487.431Z" transform="translate(-1761.3 -456.932)"/><circle class="h" cx="2.165" cy="2.165" r="2.165" transform="translate(117.452 56.667)"/><circle class="h" cx="2.165" cy="2.165" r="2.165" transform="translate(146.452 56.667)"/><path class="h" d="M1936.245,520.489a2.165,2.165,0,1,1-2.164-2.164A2.164,2.164,0,0,1,1936.245,520.489Z" transform="translate(-1756.464 -461.657)"/><path class="h" d="M1970.081,520.489a2.164,2.164,0,1,1-2.164-2.164A2.164,2.164,0,0,1,1970.081,520.489Z" transform="translate(-1761.3 -461.657)"/><circle class="h" cx="2.165" cy="2.165" r="2.165" transform="translate(117.452 85.782)"/><circle class="h" cx="2.165" cy="2.165" r="2.165" transform="translate(146.452 85.782)"/><path class="h" d="M1936.245,554.46a2.165,2.165,0,1,1-2.164-2.165A2.164,2.164,0,0,1,1936.245,554.46Z" transform="translate(-1756.464 -466.513)"/><path class="h" d="M1970.081,554.46a2.164,2.164,0,1,1-2.164-2.165A2.164,2.164,0,0,1,1970.081,554.46Z" transform="translate(-1761.3 -466.513)"/><circle class="h" cx="2.165" cy="2.165" r="2.165" transform="translate(117.452 114.116)"/><circle class="h" cx="2.165" cy="2.165" r="2.165" transform="translate(146.452 114.116)"/><path class="h" d="M1936.245,587.518a2.165,2.165,0,1,1-2.164-2.164A2.164,2.164,0,0,1,1936.245,587.518Z" transform="translate(-1756.464 -471.238)"/><path class="h" d="M1970.081,587.518a2.164,2.164,0,1,1-2.164-2.164A2.164,2.164,0,0,1,1970.081,587.518Z" transform="translate(-1761.3 -471.238)"/><circle class="h" cx="2.165" cy="2.165" r="2.165" transform="translate(117.452 142.449)"/><circle class="h" cx="2.165" cy="2.165" r="2.165" transform="translate(146.452 142.449)"/><path class="h" d="M1936.245,620.577a2.165,2.165,0,1,1-2.164-2.164A2.164,2.164,0,0,1,1936.245,620.577Z" transform="translate(-1756.464 -475.963)"/><path class="h" d="M1970.081,620.577a2.164,2.164,0,1,1-2.164-2.164A2.164,2.164,0,0,1,1970.081,620.577Z" transform="translate(-1761.3 -475.963)"/><path class="h" d="M2005.612,454.372a2.165,2.165,0,1,1-2.164-2.165A2.164,2.164,0,0,1,2005.612,454.372Z" transform="translate(-1766.379 -452.207)"/><path class="h" d="M2039.449,454.372a2.165,2.165,0,1,1-2.165-2.165A2.164,2.164,0,0,1,2039.449,454.372Z" transform="translate(-1771.215 -452.207)"/><circle class="h" cx="2.165" cy="2.165" r="2.165" transform="translate(292.904 0)"/><path class="h" d="M2005.612,487.431a2.165,2.165,0,1,1-2.164-2.165A2.164,2.164,0,0,1,2005.612,487.431Z" transform="translate(-1766.379 -456.932)"/><path class="h" d="M2039.449,487.431a2.165,2.165,0,1,1-2.165-2.165A2.164,2.164,0,0,1,2039.449,487.431Z" transform="translate(-1771.215 -456.932)"/><path class="h" d="M2073.285,487.431a2.165,2.165,0,1,1-2.165-2.165A2.164,2.164,0,0,1,2073.285,487.431Z" transform="translate(-1776.052 -456.932)"/><path class="h" d="M2005.612,520.489a2.165,2.165,0,1,1-2.164-2.164A2.164,2.164,0,0,1,2005.612,520.489Z" transform="translate(-1766.379 -461.657)"/><path class="h" d="M2039.449,520.489a2.165,2.165,0,1,1-2.165-2.164A2.165,2.165,0,0,1,2039.449,520.489Z" transform="translate(-1771.215 -461.657)"/><circle class="h" cx="2.165" cy="2.165" r="2.165" transform="translate(292.904 56.667)"/><path class="h" d="M2005.612,554.46a2.165,2.165,0,1,1-2.164-2.165A2.164,2.164,0,0,1,2005.612,554.46Z" transform="translate(-1766.379 -466.513)"/><path class="h" d="M2039.449,554.46a2.165,2.165,0,1,1-2.165-2.165A2.164,2.164,0,0,1,2039.449,554.46Z" transform="translate(-1771.215 -466.513)"/><circle class="h" cx="2.165" cy="2.165" r="2.165" transform="translate(292.904 85.782)"/><path class="h" d="M2005.612,587.518a2.165,2.165,0,1,1-2.164-2.164A2.164,2.164,0,0,1,2005.612,587.518Z" transform="translate(-1766.379 -471.238)"/><path class="h" d="M2039.449,587.518a2.165,2.165,0,1,1-2.165-2.164A2.165,2.165,0,0,1,2039.449,587.518Z" transform="translate(-1771.215 -471.238)"/><circle class="h" cx="2.165" cy="2.165" r="2.165" transform="translate(292.904 114.116)"/><path class="h" d="M2005.612,620.577a2.165,2.165,0,1,1-2.164-2.164A2.164,2.164,0,0,1,2005.612,620.577Z" transform="translate(-1766.379 -475.963)"/><path class="h" d="M2039.449,620.577a2.165,2.165,0,1,1-2.165-2.164A2.165,2.165,0,0,1,2039.449,620.577Z" transform="translate(-1771.215 -475.963)"/><circle class="h" cx="2.165" cy="2.165" r="2.165" transform="translate(292.904 142.449)"/></g><path class="h" d="M599.484,362.722a2.873,2.873,0,1,1-2.872-2.873A2.872,2.872,0,0,1,599.484,362.722Z" transform="translate(-593.739 -359.849)"/><path class="h" d="M631.69,362.722a2.873,2.873,0,1,1-2.873-2.873A2.873,2.873,0,0,1,631.69,362.722Z" transform="translate(-587.452 -359.849)"/><circle class="h" cx="2.873" cy="2.873" r="2.873" transform="translate(76.983)"/><path class="h" d="M696.1,362.722a2.873,2.873,0,1,1-2.872-2.873A2.872,2.872,0,0,1,696.1,362.722Z" transform="translate(-574.878 -359.849)"/><path class="h" d="M599.484,394.186a2.873,2.873,0,1,1-2.872-2.873A2.872,2.872,0,0,1,599.484,394.186Z" transform="translate(-593.739 -353.706)"/><path class="h" d="M631.69,394.186a2.873,2.873,0,1,1-2.873-2.873A2.873,2.873,0,0,1,631.69,394.186Z" transform="translate(-587.452 -353.706)"/><path class="h" d="M663.893,394.186a2.873,2.873,0,1,1-2.873-2.873A2.873,2.873,0,0,1,663.893,394.186Z" transform="translate(-581.165 -353.706)"/><path class="h" d="M696.1,394.186a2.873,2.873,0,1,1-2.872-2.873A2.872,2.872,0,0,1,696.1,394.186Z" transform="translate(-574.878 -353.706)"/><path class="h" d="M599.484,425.65a2.873,2.873,0,1,1-2.872-2.873A2.873,2.873,0,0,1,599.484,425.65Z" transform="translate(-593.739 -347.564)"/><path class="h" d="M631.69,425.65a2.873,2.873,0,1,1-2.873-2.873A2.874,2.874,0,0,1,631.69,425.65Z" transform="translate(-587.452 -347.564)"/><circle class="h" cx="2.873" cy="2.873" r="2.873" transform="translate(76.983 75.214)"/><path class="h" d="M696.1,425.65a2.873,2.873,0,1,1-2.872-2.873A2.873,2.873,0,0,1,696.1,425.65Z" transform="translate(-574.878 -347.564)"/><path class="h" d="M599.484,457.982a2.873,2.873,0,1,1-2.872-2.873A2.873,2.873,0,0,1,599.484,457.982Z" transform="translate(-593.739 -341.252)"/><path class="h" d="M631.69,457.982a2.873,2.873,0,1,1-2.873-2.873A2.873,2.873,0,0,1,631.69,457.982Z" transform="translate(-587.452 -341.252)"/><circle class="h" cx="2.873" cy="2.873" r="2.873" transform="translate(76.983 113.858)"/><path class="h" d="M696.1,457.982a2.873,2.873,0,1,1-2.872-2.873A2.873,2.873,0,0,1,696.1,457.982Z" transform="translate(-574.878 -341.252)"/><path class="h" d="M599.484,489.446a2.873,2.873,0,1,1-2.872-2.872A2.873,2.873,0,0,1,599.484,489.446Z" transform="translate(-593.739 -335.109)"/><path class="h" d="M631.69,489.446a2.873,2.873,0,1,1-2.873-2.872A2.873,2.873,0,0,1,631.69,489.446Z" transform="translate(-587.452 -335.109)"/><circle class="h" cx="2.873" cy="2.873" r="2.873" transform="translate(76.983 151.464)"/><path class="h" d="M696.1,489.446a2.873,2.873,0,1,1-2.872-2.872A2.873,2.873,0,0,1,696.1,489.446Z" transform="translate(-574.878 -335.109)"/><path class="h" d="M599.484,520.911a2.873,2.873,0,1,1-2.872-2.873A2.872,2.872,0,0,1,599.484,520.911Z" transform="translate(-593.739 -328.966)"/><path class="h" d="M631.69,520.911a2.873,2.873,0,1,1-2.873-2.873A2.873,2.873,0,0,1,631.69,520.911Z" transform="translate(-587.452 -328.966)"/><circle class="h" cx="2.873" cy="2.873" r="2.873" transform="translate(76.983 189.072)"/><path class="h" d="M696.1,520.911a2.873,2.873,0,1,1-2.872-2.873A2.872,2.872,0,0,1,696.1,520.911Z" transform="translate(-574.878 -328.966)"/><circle class="h" cx="2.873" cy="2.873" r="2.873" transform="translate(155.893)"/><circle class="h" cx="2.873" cy="2.873" r="2.873" transform="translate(194.385)"/><path class="h" d="M794.323,362.722a2.873,2.873,0,1,1-2.872-2.873A2.872,2.872,0,0,1,794.323,362.722Z" transform="translate(-555.702 -359.849)"/><path class="h" d="M826.529,362.722a2.873,2.873,0,1,1-2.873-2.873A2.873,2.873,0,0,1,826.529,362.722Z" transform="translate(-549.415 -359.849)"/><path class="h" d="M729.916,394.186a2.873,2.873,0,1,1-2.873-2.873A2.873,2.873,0,0,1,729.916,394.186Z" transform="translate(-568.276 -353.706)"/><path class="h" d="M762.119,394.186a2.873,2.873,0,1,1-2.873-2.873A2.873,2.873,0,0,1,762.119,394.186Z" transform="translate(-561.989 -353.706)"/><path class="h" d="M794.323,394.186a2.873,2.873,0,1,1-2.872-2.873A2.872,2.872,0,0,1,794.323,394.186Z" transform="translate(-555.702 -353.706)"/><path class="h" d="M826.529,394.186a2.873,2.873,0,1,1-2.873-2.873A2.873,2.873,0,0,1,826.529,394.186Z" transform="translate(-549.415 -353.706)"/><circle class="h" cx="2.873" cy="2.873" r="2.873" transform="translate(155.893 75.214)"/><circle class="h" cx="2.873" cy="2.873" r="2.873" transform="translate(194.385 75.214)"/><path class="h" d="M794.323,425.65a2.873,2.873,0,1,1-2.872-2.873A2.873,2.873,0,0,1,794.323,425.65Z" transform="translate(-555.702 -347.564)"/><path class="h" d="M826.529,425.65a2.873,2.873,0,1,1-2.873-2.873A2.874,2.874,0,0,1,826.529,425.65Z" transform="translate(-549.415 -347.564)"/><circle class="h" cx="2.873" cy="2.873" r="2.873" transform="translate(155.893 113.858)"/><circle class="h" cx="2.873" cy="2.873" r="2.873" transform="translate(194.385 113.858)"/><path class="h" d="M794.323,457.982a2.873,2.873,0,1,1-2.872-2.873A2.873,2.873,0,0,1,794.323,457.982Z" transform="translate(-555.702 -341.252)"/><path class="h" d="M826.529,457.982a2.873,2.873,0,1,1-2.873-2.873A2.873,2.873,0,0,1,826.529,457.982Z" transform="translate(-549.415 -341.252)"/><circle class="h" cx="2.873" cy="2.873" r="2.873" transform="translate(155.893 151.464)"/><circle class="h" cx="2.873" cy="2.873" r="2.873" transform="translate(194.385 151.464)"/><path class="h" d="M794.323,489.446a2.873,2.873,0,1,1-2.872-2.872A2.873,2.873,0,0,1,794.323,489.446Z" transform="translate(-555.702 -335.109)"/><path class="h" d="M826.529,489.446a2.873,2.873,0,1,1-2.873-2.872A2.873,2.873,0,0,1,826.529,489.446Z" transform="translate(-549.415 -335.109)"/><circle class="h" cx="2.873" cy="2.873" r="2.873" transform="translate(155.893 189.072)"/><circle class="h" cx="2.873" cy="2.873" r="2.873" transform="translate(194.385 189.072)"/><path class="h" d="M794.323,520.911a2.873,2.873,0,1,1-2.872-2.873A2.872,2.872,0,0,1,794.323,520.911Z" transform="translate(-555.702 -328.966)"/><path class="h" d="M826.529,520.911a2.873,2.873,0,1,1-2.873-2.873A2.873,2.873,0,0,1,826.529,520.911Z" transform="translate(-549.415 -328.966)"/><path class="h" d="M860.346,362.722a2.873,2.873,0,1,1-2.873-2.873A2.873,2.873,0,0,1,860.346,362.722Z" transform="translate(-542.813 -359.849)"/><path class="h" d="M892.549,362.722a2.873,2.873,0,1,1-2.873-2.873A2.873,2.873,0,0,1,892.549,362.722Z" transform="translate(-536.526 -359.849)"/><circle class="h" cx="2.873" cy="2.873" r="2.873" transform="translate(388.77)"/><path class="h" d="M860.346,394.186a2.873,2.873,0,1,1-2.873-2.873A2.873,2.873,0,0,1,860.346,394.186Z" transform="translate(-542.813 -353.706)"/><path class="h" d="M892.549,394.186a2.873,2.873,0,1,1-2.873-2.873A2.873,2.873,0,0,1,892.549,394.186Z" transform="translate(-536.526 -353.706)"/><path class="h" d="M924.754,394.186a2.873,2.873,0,1,1-2.872-2.873A2.872,2.872,0,0,1,924.754,394.186Z" transform="translate(-530.239 -353.706)"/><path class="h" d="M860.346,425.65a2.873,2.873,0,1,1-2.873-2.873A2.874,2.874,0,0,1,860.346,425.65Z" transform="translate(-542.813 -347.564)"/><path class="h" d="M892.549,425.65a2.873,2.873,0,1,1-2.873-2.873A2.874,2.874,0,0,1,892.549,425.65Z" transform="translate(-536.526 -347.564)"/><circle class="h" cx="2.873" cy="2.873" r="2.873" transform="translate(388.77 75.214)"/><path class="h" d="M860.346,457.982a2.873,2.873,0,1,1-2.873-2.873A2.873,2.873,0,0,1,860.346,457.982Z" transform="translate(-542.813 -341.252)"/><path class="h" d="M892.549,457.982a2.873,2.873,0,1,1-2.873-2.873A2.873,2.873,0,0,1,892.549,457.982Z" transform="translate(-536.526 -341.252)"/><circle class="h" cx="2.873" cy="2.873" r="2.873" transform="translate(388.77 113.858)"/><path class="h" d="M860.346,489.446a2.873,2.873,0,1,1-2.873-2.872A2.873,2.873,0,0,1,860.346,489.446Z" transform="translate(-542.813 -335.109)"/><path class="h" d="M892.549,489.446a2.873,2.873,0,1,1-2.873-2.872A2.873,2.873,0,0,1,892.549,489.446Z" transform="translate(-536.526 -335.109)"/><circle class="h" cx="2.873" cy="2.873" r="2.873" transform="translate(388.77 151.464)"/><path class="h" d="M860.346,520.911a2.873,2.873,0,1,1-2.873-2.873A2.873,2.873,0,0,1,860.346,520.911Z" transform="translate(-542.813 -328.966)"/><path class="h" d="M892.549,520.911a2.873,2.873,0,1,1-2.873-2.873A2.873,2.873,0,0,1,892.549,520.911Z" transform="translate(-536.526 -328.966)"/><circle class="h" cx="2.873" cy="2.873" r="2.873" transform="translate(388.77 189.072)"/></g></g></g></svg>