<svg xmlns="http://www.w3.org/2000/svg" width="179.587" height="150" viewBox="0 0 179.587 150"><defs><style>.a{fill:#2383c3;}.b{fill:#24669a;}.c{fill:#fae0bd;}.d{fill:#fbf1cf;}.e{fill:#e0b799;}.f{fill:#eda1ab;}.g{fill:#e58996;}.h{fill:#f6ee86;}.i{fill:#8ee2e1;}.j{fill:#4e5660;}.k{fill:#f2d98d;}.l{fill:#6ad7be;}</style></defs><g transform="translate(-260.045 -135.259)"><path class="a" d="M8.812,213.275H170.775a8.812,8.812,0,0,1,8.812,8.812v72.363a8.812,8.812,0,0,1-8.812,8.812H8.812A8.812,8.812,0,0,1,0,294.449V222.087a8.812,8.812,0,0,1,8.812-8.812Z" transform="translate(260.045 -18.002)"/><path class="b" d="M4.429,213.275h81.4c2.446,0,4.429,3.945,4.429,8.812v72.363c0,4.866-1.983,8.812-4.429,8.812H4.429c-2.446,0-4.429-3.945-4.429-8.812V222.087c0-4.866,1.983-8.812,4.429-8.812Z" transform="translate(349.37 -18.002)"/><path class="b" d="M209.986,481.68h0Z" transform="translate(139.853 -196.421)"/><path class="c" d="M105.945,175.051c-19.794-7.678-46.527-7.388-68.991,5.282v70.039c25.595-14.436,56.73-12.8,76.831-1.62V186.586a12.355,12.355,0,0,0-7.84-11.535Z" transform="translate(312.884 10.148)"/><path class="d" d="M263.84,175.051c19.794-7.678,46.527-7.388,68.991,5.282v70.039c-25.595-14.436-56.73-12.8-76.831-1.62V186.586a12.355,12.355,0,0,1,7.84-11.535Z" transform="translate(17.007 10.148)"/><path class="e" d="M113.785,380.014c25.595-14.436,56.73-12.8,76.831-1.62v8.57a4.828,4.828,0,0,1-4.828,4.828H41.782a4.828,4.828,0,0,1-4.828-4.828v-8.57C57.055,367.213,88.191,365.578,113.785,380.014Z" transform="translate(236.053 -119.494)"/><path class="f" d="M72.893,108.084h8a53.4,53.4,0,1,1,106.792,0h8a4.36,4.36,0,0,0,4.34-4.683,65.907,65.907,0,0,0-131.481,0A4.361,4.361,0,0,0,72.893,108.084Z" transform="translate(215.545 93.084)"/><path class="g" d="M35.1,58.42c45.967,0,65.015,38.688,66.6,61.144a4.361,4.361,0,0,1-4.34,4.683h-8A53.339,53.339,0,0,0,68.541,81.975c-34.578,6.7-33.949,1.716-33.444-7.9C35.22,71.755,35.1,71.218,35.1,58.42Z" transform="translate(313.883 76.92)"/><path class="h" d="M103.767,131.239h12.509a40.887,40.887,0,1,1,81.774,0h12.509a53.4,53.4,0,1,0-106.792,0Z" transform="translate(192.675 69.929)"/><path class="i" d="M139.431,154.393H147.4a4.864,4.864,0,0,0,4.833-4.121,28.382,28.382,0,0,1,56.162,0,4.864,4.864,0,0,0,4.833,4.121h7.973a40.887,40.887,0,1,0-81.774,0Z" transform="translate(169.52 46.775)"/><g transform="translate(291.071 215.132)"><path class="j" d="M121.584,275.156h-30.5a2.631,2.631,0,1,1,0-5.261h30.5a2.631,2.631,0,1,1,0,5.261Z" transform="translate(-88.455 -269.895)"/><path class="j" d="M354.722,275.156h-30.5a2.631,2.631,0,1,1,0-5.261h30.5a2.631,2.631,0,1,1,0,5.261Z" transform="translate(-239.819 -269.895)"/><path class="j" d="M121.584,311.451h-30.5a2.631,2.631,0,1,1,0-5.261h30.5a2.631,2.631,0,1,1,0,5.261Z" transform="translate(-88.455 -293.459)"/></g><path class="k" d="M75.326,98.408c41.354-.1,54.054,36.239,54.054,53.425H116.871c0-11.828-33.185-33.266-41.238-40.739.111-2.006,18.015,1.01,0,0C75.614,109.793,75.012,99.841,75.326,98.408Z" transform="translate(273.854 49.334)"/><path class="l" d="M160.7,174.606h-7.973a4.864,4.864,0,0,1-4.833-4.121c-.931-6.4-4.017-20.454-28.432-24.158,1.075-.828-.015.1,0,0,.015-.186-.271-12.129,0-12.589C152.964,133.737,160.7,162.777,160.7,174.606Z" transform="translate(230.029 26.562)"/></g></svg>