<svg xmlns="http://www.w3.org/2000/svg" width="691.172" height="553.389" viewBox="0 0 691.172 553.389"><defs><style>.a{fill:#333;}.b{fill:#ebebeb;}.c{fill:#fff;}.d{fill:#dbdbdb;}.e{fill:#24669a;}.f{fill:#c7c7c7;}.g{fill:#ad6359;}.h{fill:#d3766a;}.i{fill:#263238;}.j{fill:#1f74a3;}.k{fill:#455a64;}.l{fill:#ff6e4a;}.m{fill:#37474f;}.n,.o{fill:#ff994d;}.o{opacity:0.1;}</style></defs><g transform="translate(18.037 -261.611)"><g transform="translate(12.311 693.853)"><g transform="translate(0 3.809)"><path class="a" d="M326.718,0c180.441,0,382.03,117.339,323.92,117.338s-143.479,0-323.92,0-215.969,0-329.516,0S146.277,0,326.718,0Z"/></g><ellipse class="b" cx="70.197" cy="13.862" rx="70.197" ry="13.862" transform="translate(101.993 25)"/></g><g transform="translate(224.178 661.299)"><g transform="translate(276.046 51.997)"><path class="c" d="M346.308,420.178,396.8,390.364l64.158,21.476-52.677,32.017Z" transform="translate(-346.308 -390.364)"/><g transform="translate(42.809 11.534)"><path class="d" d="M382.136,427c3.107-2.291,6.307-4.425,9.522-6.538s6.477-4.141,9.751-6.156c3.3-1.98,6.591-3.957,9.954-5.823l5.048-2.8c1.716-.88,3.4-1.808,5.14-2.645-1.543,1.16-3.143,2.228-4.713,3.346l-4.805,3.194c-3.205,2.126-6.479,4.141-9.755,6.153-3.3,1.98-6.591,3.957-9.955,5.823S385.6,425.3,382.136,427Z" transform="translate(-364.978 -393.353)"/><path class="d" d="M387.121,415.861a100.246,100.246,0,0,1,11.3-7.845,98.887,98.887,0,0,1,12.168-6.417,99.178,99.178,0,0,1-11.3,7.847A100.25,100.25,0,0,1,387.121,415.861Z" transform="translate(-361.62 -394.328)"/><path class="d" d="M373.047,424.107c3.1-2.291,6.3-4.425,9.52-6.536,3.205-2.127,6.479-4.143,9.753-6.156,3.294-1.982,6.59-3.958,9.954-5.825l5.048-2.8c1.714-.879,3.4-1.808,5.14-2.644-1.543,1.16-3.143,2.228-4.713,3.346l-4.807,3.194c-3.205,2.126-6.477,4.141-9.753,6.154-3.3,1.978-6.591,3.955-9.955,5.821C379.879,420.547,376.51,422.407,373.047,424.107Z" transform="translate(-371.102 -395.304)"/><path class="d" d="M371.885,419.218c5.284-3.982,10.831-7.53,16.443-10.971,5.637-3.4,11.341-6.69,17.31-9.544-5.281,3.985-10.827,7.534-16.441,10.971C383.556,413.072,377.854,416.361,371.885,419.218Z" transform="translate(-371.885 -396.279)"/><path class="d" d="M375.829,409.135a69.608,69.608,0,0,1,9.338-6.655,68.88,68.88,0,0,1,10.208-5.225,68.817,68.817,0,0,1-9.339,6.655A69.6,69.6,0,0,1,375.829,409.135Z" transform="translate(-369.228 -397.255)"/></g></g><g transform="translate(169.425 72.615)"><path class="c" d="M282.606,433.842l79.778-31.16L439.36,449.1l-79.374,32.27Z" transform="translate(-282.606 -402.682)"/><path class="d" d="M328.168,454.5c5.2-2.486,10.463-4.8,15.738-7.09,5.269-2.308,10.588-4.492,15.906-6.678,5.334-2.147,10.668-4.293,16.053-6.318l8.078-3.031c2.715-.954,5.41-1.962,8.144-2.869-2.593,1.259-5.225,2.417-7.836,3.629l-7.9,3.465c-5.269,2.306-10.586,4.492-15.906,6.675-5.336,2.146-10.67,4.292-16.055,6.315C339.012,450.643,333.624,452.658,328.168,454.5Z" transform="translate(-251.908 -385.275)"/><path class="d" d="M340.385,440c5.686-3.023,11.564-5.575,17.487-8.014,5.943-2.39,11.935-4.663,18.12-6.462-5.686,3.026-11.564,5.579-17.489,8.012C352.558,435.923,346.566,438.2,340.385,440Z" transform="translate(-243.677 -387.294)"/><path class="d" d="M323.47,445.315c4.541-2.218,9.152-4.268,13.773-6.29,4.613-2.042,9.276-3.96,13.939-5.88,4.678-1.881,9.358-3.759,14.086-5.518l7.1-2.633c2.388-.82,4.755-1.694,7.162-2.469-2.265,1.126-4.569,2.151-6.852,3.229l-6.919,3.066c-4.614,2.039-9.278,3.958-13.941,5.875-4.68,1.88-9.36,3.759-14.088,5.517C333,441.986,328.272,443.736,323.47,445.315Z" transform="translate(-255.074 -389.313)"/><path class="d" d="M321.252,440.632c4.194-2.079,8.459-3.987,12.734-5.87,4.268-1.9,8.586-3.679,12.9-5.456,4.333-1.741,8.667-3.48,13.048-5.1l6.576-2.422c2.214-.751,4.409-1.555,6.643-2.258-2.092,1.055-4.225,2.01-6.333,3.018l-6.4,2.854c-4.268,1.9-8.586,3.679-12.9,5.455-4.333,1.739-8.667,3.476-13.049,5.093C330.093,437.584,325.707,439.192,321.252,440.632Z" transform="translate(-256.568 -391.331)"/><path class="d" d="M309.376,442.519c5.2-2.486,10.463-4.8,15.738-7.09,5.269-2.306,10.588-4.492,15.906-6.678,5.334-2.147,10.668-4.293,16.053-6.317l8.077-3.033c2.715-.954,5.41-1.962,8.144-2.869-2.593,1.259-5.225,2.417-7.836,3.629l-7.9,3.465c-5.269,2.306-10.586,4.492-15.906,6.675-5.334,2.146-10.67,4.292-16.053,6.315C320.22,438.657,314.832,440.672,309.376,442.519Z" transform="translate(-264.569 -393.351)"/><path class="d" d="M308.983,436.593c4.6-2.241,9.261-4.313,13.936-6.359,4.67-2.062,9.386-4,14.1-5.945,4.733-1.9,9.468-3.8,14.252-5.585l7.177-2.666c2.415-.832,4.809-1.717,7.244-2.5-2.291,1.136-4.625,2.173-6.934,3.262l-7,3.1c-4.67,2.062-9.388,4-14.106,5.943-4.735,1.9-9.468,3.8-14.252,5.582C318.625,433.219,313.839,434.992,308.983,436.593Z" transform="translate(-264.834 -395.369)"/><path class="d" d="M299.98,436.525c5.2-2.486,10.463-4.8,15.738-7.09,5.269-2.306,10.588-4.492,15.906-6.678,5.334-2.147,10.669-4.293,16.053-6.317l8.078-3.033c2.715-.954,5.41-1.962,8.144-2.867-2.593,1.257-5.225,2.415-7.835,3.627l-7.9,3.465c-5.269,2.306-10.586,4.492-15.906,6.675-5.334,2.147-10.67,4.291-16.053,6.317C310.824,432.664,305.436,434.679,299.98,436.525Z" transform="translate(-270.9 -397.388)"/><path class="d" d="M310.9,422.9c6.049-3.168,12.289-5.868,18.574-8.454,6.3-2.537,12.658-4.958,19.2-6.9-6.047,3.173-12.287,5.873-18.574,8.454C323.8,418.531,317.444,420.951,310.9,422.9Z" transform="translate(-263.543 -399.407)"/></g><g transform="translate(0 0)"><path class="e" d="M181.381,419.59,410.352,359.3l106.525,57.1L292.9,491.027Z" transform="translate(-181.381 -359.297)"/><path class="c" d="M189.865,418.391,291.97,484.027l209.908-69.782-102.987-54.7s-62.819,8.268-65.741,9.175-30.628,12.414-30.628,12.414-38.864,6.76-41.5,7.646S189.865,418.391,189.865,418.391Z" transform="translate(-175.664 -359.129)"/><g transform="translate(99.52 7.456)"><path class="d" d="M257.173,372.446l12.465,8.083,12.393,8.191,24.67,16.55,24.507,16.791,12.2,8.481,12.122,8.59-12.467-8.081-12.393-8.19L306,406.308l-24.506-16.792-12.2-8.481Z" transform="translate(-229.836 -357.895)"/><path class="d" d="M268.822,404c2.646-.864,5.333-1.6,8.027-2.31s5.408-1.359,8.124-1.992c2.725-.6,5.45-1.2,8.2-1.707s5.49-1.016,8.265-1.378c-2.661.87-5.351,1.6-8.042,2.316s-5.4,1.357-8.111,1.985c-2.718.6-5.436,1.2-8.181,1.7C274.359,403.133,271.61,403.63,268.822,404Z" transform="translate(-221.987 -341.614)"/><path class="d" d="M240.84,429.618c6.918-3.291,13.887-6.466,20.872-9.6,6.974-3.165,14.013-6.179,21.036-9.237,3.512-1.533,7.047-2.988,10.625-4.407a17.84,17.84,0,0,1,2.82-.84L299,404.88l5.609-1.244c7.5-1.573,15-3.12,22.535-4.487-7.416,1.927-14.866,3.692-22.306,5.5l-5.587,1.319a42.911,42.911,0,0,0-5.45,1.5c-3.535,1.416-7.038,2.978-10.571,4.442l-21.148,8.955C255.02,423.825,247.952,426.769,240.84,429.618Z" transform="translate(-240.84 -339.903)"/><path class="d" d="M245.113,432.386c6.7-3.255,13.445-6.405,20.212-9.512,6.747-3.148,13.571-6.128,20.371-9.162q5.1-2.277,10.273-4.405c.87-.35,1.714-.71,2.653-1.033.922-.293,1.833-.475,2.74-.7l5.451-1.23c7.288-1.538,14.582-3.033,21.916-4.343-7.206,1.893-14.449,3.617-21.678,5.383l-5.426,1.292c-.9.231-1.813.428-2.66.71-.82.293-1.687.668-2.541,1.021l-10.242,4.417c-6.842,2.927-13.633,5.98-20.492,8.874C258.853,426.64,252,429.556,245.113,432.386Z" transform="translate(-237.961 -337.981)"/><path class="d" d="M249.35,434.445c6.836-2.993,13.713-5.88,20.607-8.724,6.879-2.887,13.825-5.6,20.749-8.377,3.486-1.369,6.9-2.758,10.523-3.952L312,410.371c7.2-1.936,14.4-3.885,21.653-5.657-7.088,2.34-14.225,4.5-21.36,6.677l-10.735,3.145c-3.443,1.175-6.933,2.64-10.407,3.94-6.963,2.666-13.879,5.456-20.858,8.086C263.331,429.236,256.358,431.884,249.35,434.445Z" transform="translate(-235.106 -336.154)"/><path class="d" d="M310.786,412.374q9.52-4.647,19.325-8.638c1.637-.663,3.26-1.352,4.924-1.965.837-.3,1.655-.608,2.558-.867l2.559-.683,10.22-2.715c6.809-1.834,13.648-3.55,20.472-5.326s13.668-3.47,20.518-5.15q-10.15,2.983-20.331,5.856c-6.792,1.893-13.569,3.848-20.376,5.682l-10.2,2.788-2.546.7c-.788.244-1.62.564-2.434.877l-4.924,1.891C324,407.423,317.436,410,310.786,412.374Z" transform="translate(-193.714 -348.069)"/><path class="d" d="M306.663,408.5q9.45-3.974,19.1-7.4c3.222-1.143,6.4-2.348,9.76-3.229l9.875-2.7c6.576-1.821,13.181-3.537,19.775-5.291s13.207-3.443,19.827-5.11c-6.533,1.978-13.072,3.94-19.633,5.826s-13.107,3.821-19.685,5.646l-9.857,2.772c-1.644.433-3.2,1.009-4.834,1.547l-4.849,1.627Q316.473,405.521,306.663,408.5Z" transform="translate(-196.492 -349.595)"/><path class="d" d="M302.685,404.989c6.27-2.593,12.593-5.041,18.985-7.3,3.205-1.121,6.36-2.311,9.652-3.28L341.215,392c6.583-1.613,13.189-3.137,19.789-4.678s13.214-3.031,19.834-4.486c-6.541,1.779-13.085,3.537-19.648,5.219s-13.115,3.406-19.693,5.028c-3.277.832-6.594,1.622-9.837,2.485l-9.616,3.2Q312.433,402.06,302.685,404.989Z" transform="translate(-199.172 -350.895)"/><path class="d" d="M299.284,402.653c6.014-3.24,12.2-6.091,18.5-8.745.79-.333,1.585-.641,2.407-.926a18.141,18.141,0,0,1,2.529-.7l5-1.091,10-2.134c13.34-2.775,26.693-5.493,40.081-8.034-13.261,3.142-26.557,6.119-39.854,9.09l-9.977,2.2-4.979,1.125a27.715,27.715,0,0,0-4.738,1.613C311.939,397.57,305.694,400.3,299.284,402.653Z" transform="translate(-201.464 -352.116)"/><path class="d" d="M295.554,400.06c6.015-3.239,12.2-6.089,18.5-8.745.79-.333,1.587-.641,2.407-.924a18.1,18.1,0,0,1,2.531-.7l5-1.091,10-2.132c13.341-2.777,26.693-5.493,40.083-8.036-13.261,3.142-26.559,6.119-39.855,9.092l-9.977,2.2-4.979,1.123a27.7,27.7,0,0,0-4.737,1.613C308.211,394.978,301.966,397.713,295.554,400.06Z" transform="translate(-203.977 -353.863)"/><path class="d" d="M291.824,397.466c6.015-3.239,12.2-6.089,18.5-8.745.79-.333,1.587-.639,2.408-.924a18,18,0,0,1,2.529-.7l5-1.091,10-2.134c13.341-2.775,26.693-5.493,40.083-8.034-13.261,3.142-26.557,6.119-39.855,9.09l-9.977,2.2-4.978,1.123a27.813,27.813,0,0,0-4.738,1.613C304.481,392.385,298.236,395.119,291.824,397.466Z" transform="translate(-206.49 -355.609)"/><path class="d" d="M288.1,394.875c6.014-3.24,12.2-6.089,18.5-8.745.79-.333,1.585-.641,2.407-.926a18.068,18.068,0,0,1,2.529-.7l5-1.091,10-2.134c13.34-2.775,26.693-5.492,40.083-8.034-13.263,3.142-26.559,6.119-39.855,9.09l-9.977,2.2-4.979,1.125a27.712,27.712,0,0,0-4.738,1.614C300.75,389.793,294.505,392.528,288.1,394.875Z" transform="translate(-209.002 -357.356)"/><path class="d" d="M283.285,392.792c6.014-3.24,12.2-6.089,18.5-8.745.79-.333,1.585-.641,2.407-.926a18.14,18.14,0,0,1,2.529-.7l5-1.091,10-2.132c13.34-2.777,26.693-5.493,40.083-8.036-13.263,3.142-26.559,6.119-39.855,9.09l-9.977,2.2-4.979,1.123a27.72,27.72,0,0,0-4.738,1.614C295.94,387.71,289.7,390.445,283.285,392.792Z" transform="translate(-212.243 -358.76)"/><path class="d" d="M278.6,390.729c6.015-3.239,12.2-6.089,18.5-8.744.79-.335,1.587-.643,2.407-.926a17.863,17.863,0,0,1,2.531-.7l5-1.091,10-2.134c13.341-2.775,26.693-5.493,40.083-8.034-13.261,3.142-26.559,6.119-39.855,9.09l-9.977,2.2-4.979,1.123a27.564,27.564,0,0,0-4.737,1.615C291.26,385.648,285.017,388.383,278.6,390.729Z" transform="translate(-215.396 -360.148)"/><path class="d" d="M274.875,387.726c6.005-3.234,12.182-6.081,18.47-8.732.788-.333,1.582-.643,2.4-.926a15.985,15.985,0,0,1,2.534-.693l5.008-1.014L313.3,374.4c13.367-2.534,26.745-5,40.156-7.286-13.294,2.889-26.623,5.615-39.947,8.345l-10,2.025-4.986,1.044a26.644,26.644,0,0,0-4.723,1.6C287.512,382.653,281.277,385.383,274.875,387.726Z" transform="translate(-217.909 -361.484)"/><path class="d" d="M271.146,384.667c6-3.229,12.161-6.071,18.438-8.719.788-.333,1.578-.644,2.4-.926a14.645,14.645,0,0,1,2.542-.688l5.018-.924,10.036-1.759c13.395-2.26,26.8-4.439,40.238-6.434-13.333,2.6-26.695,5.041-40.049,7.5l-10.017,1.826-4.993.956a25.545,25.545,0,0,0-4.708,1.593C283.761,379.6,277.536,382.327,271.146,384.667Z" transform="translate(-220.422 -362.764)"/><path class="d" d="M267.416,381.315c5.984-3.22,12.138-6.061,18.4-8.7.785-.331,1.573-.644,2.39-.926a12.669,12.669,0,0,1,2.551-.673l5.04-.783,10.068-1.433c6.715-.931,13.442-1.764,20.165-2.633q10.088-1.268,20.19-2.412c-13.388,2.132-26.8,4.106-40.2,6.114l-10.051,1.5-5,.812a23.848,23.848,0,0,0-4.688,1.575C280.008,376.263,273.793,378.98,267.416,381.315Z" transform="translate(-222.935 -363.752)"/><path class="d" d="M253.68,437.888c6.988-2.837,14.018-5.559,21.059-8.245,7.033-2.715,14.121-5.281,21.188-7.9,3.548-1.307,7.065-2.559,10.7-3.763l10.824-3.257c7.234-2.106,14.469-4.213,21.755-6.161-7.118,2.489-14.292,4.815-21.464,7.145l-10.786,3.4c-3.515,1.18-7.065,2.556-10.61,3.794l-21.288,7.616C267.95,433.021,260.835,435.506,253.68,437.888Z" transform="translate(-232.189 -333.564)"/><path class="d" d="M313.857,416.436c7.072-2.693,14.182-5.271,21.305-7.811,7.113-2.571,14.279-4.991,21.426-7.468,3.587-1.235,7.144-2.414,10.814-3.543l10.928-3.036c7.3-1.958,14.6-3.918,21.954-5.716-7.2,2.342-14.441,4.522-21.685,6.705l-10.891,3.178c-3.552,1.11-7.142,2.41-10.725,3.577L335.462,409.5C328.278,411.862,321.086,414.2,313.857,416.436Z" transform="translate(-191.645 -346.835)"/></g></g></g><g transform="translate(58.881 714.936)"><g transform="translate(143.929 35.171)"><path class="c" d="M204.032,412.8c5.584-.8,12.761-.8,13.159,2.393s-2.126,4.917-1.329,6.513,5.317,4.519,7.443,6.646,3.722,5.848,3.722,6.645,1.329,2.127,0,3.722-2.077,3.994-3.165,5.187-1.568,2.522,0,4.648.239,8.242-2.154,10.369-9.3-2.924-11.43-2.393-2.392,1.583-4.253,2.917-6.38,4.526-11.166,4.526-7.177-4.253-10.1-6.114-5.584-2.126-8.242-3.19-5.582-3.455-6.114-4.519-2.392-1.329-1.6-4.253,2.127-3.722,2.127-6.114.033-2.81.017-5.525-2.144-7.5-.283-9.627,3.19-5.316,6.114-5.316,12.228,1.6,12.228,1.6a24.825,24.825,0,0,0,2.658-3.456c1.6-2.393,4.382-3.988,6.444-3.722S204.032,412.8,204.032,412.8Z" transform="translate(-168.614 -412.357)"/><path class="f" d="M170,436.453c3.8,1.752,7.671,3.327,11.559,4.857,3.853,1.6,7.721,3.16,11.622,4.594a107.065,107.065,0,0,0,11.683,3.791,9.227,9.227,0,0,0,2.43.283l2.347-1.175a37.133,37.133,0,0,0,5.093-3.135,14.136,14.136,0,0,0,3.866-3.958,8.108,8.108,0,0,0,.566-1.131l.174-.584.079-.263c-.013.015,0,.042-.007.017a4.753,4.753,0,0,0-1.024-1.778c-2.427-2.937-5.871-5.436-9.107-7.942-3.314-2.474-6.772-4.792-10.3-6.986-1.746-1.135-3.515-2.234-5.323-3.264-.9-.514-1.821-1.006-2.753-1.46-.464-.233-.932-.455-1.414-.643-.444-.12-1.063-.5-1.414-.1.316-.494,1.019-.2,1.488-.157.521.107,1.031.253,1.538.407,1,.331,1.987.716,2.961,1.116,1.95.8,3.863,1.684,5.761,2.6q5.619,2.88,10.983,6.263a49.168,49.168,0,0,1,10.131,8.042,6.767,6.767,0,0,1,1.849,3.691,3.267,3.267,0,0,1-.038.8l-.124.494-.266.921a11.7,11.7,0,0,1-.8,1.682,17.343,17.343,0,0,1-4.737,5.043,40.465,40.465,0,0,1-5.614,3.364l-1.436.708-.713.343-.4.181a6.354,6.354,0,0,1-.782.231,10.076,10.076,0,0,1-3.769-.39,78.747,78.747,0,0,1-11.951-4.532A160.088,160.088,0,0,1,170,436.453Z" transform="translate(-167.679 -409.028)"/><path class="f" d="M179.478,440.076a70.642,70.642,0,0,1,6.906-9.191c1.242-1.464,2.6-2.824,3.967-4.2.691-.681,1.441-1.317,2.2-1.96a12.455,12.455,0,0,1,2.8-1.85,5.155,5.155,0,0,1,.526-.2,3.691,3.691,0,0,1,1.121-.032,2.872,2.872,0,0,1,1.465.787,10.6,10.6,0,0,1,1.091,1.334,26.518,26.518,0,0,1,1.6,2.536c.924,1.719,1.828,3.413,2.579,5.184a46.6,46.6,0,0,1,3.624,10.936l-6.039-9.657c-1.021-1.585-1.96-3.21-3-4.74-.507-.763-1-1.553-1.518-2.219a8.038,8.038,0,0,0-.721-.857c.008.06.017-.007.259.119a.523.523,0,0,0,.412-.008.678.678,0,0,1-.131.075,10.3,10.3,0,0,0-1.942,1.264l-2.119,1.742-4.261,3.669C185.46,435.294,182.581,437.776,179.478,440.076Z" transform="translate(-161.295 -405.442)"/></g><g transform="translate(62.085 33.561)"><path class="c" d="M133.9,439.922c-3.018.723-6.951,1.091-7.333-.636s.912-2.8.393-3.637-3.145-2.2-4.419-3.259a8.545,8.545,0,0,1-2.38-3.45c-.042-.437-.837-1.1-.191-2.039s.932-2.3,1.468-3.006a1.742,1.742,0,0,0-.239-2.546c-.969-1.085-.554-4.5.648-5.791s5.247,1.125,6.385.725,1.229-.991,2.181-1.818,3.262-2.807,5.885-3.053,4.149,1.962,5.848,2.832,3.167.879,4.678,1.324a8.292,8.292,0,0,1,3.582,2.162c.346.556,1.379.606,1.093,2.248s-.974,2.149-.852,3.46.126,1.542.275,3.028,1.56,4,.649,5.261-1.475,3.076-3.076,3.227-6.782-.246-6.782-.246a13.517,13.517,0,0,0-1.279,2.03,4.243,4.243,0,0,1-3.341,2.37A10.639,10.639,0,0,0,133.9,439.922Z" transform="translate(-119.715 -411.395)"/><path class="f" d="M121.282,421.363c1.613-1.729,3.344-3.267,4.989-4.886l1.277-1.16.651-.584a3.532,3.532,0,0,1,1.285-.628,18.763,18.763,0,0,1,3.727-.469,36.636,36.636,0,0,1,7.244.4,11.762,11.762,0,0,1,3.886,1.2,3.947,3.947,0,0,1,1.721,2.388,7.376,7.376,0,0,1,.283,2.214,23.073,23.073,0,0,1-1.64,7.349,30.82,30.82,0,0,1-1.555,3.347,15.082,15.082,0,0,1-1.033,1.652,4.311,4.311,0,0,1-1.95,1.513c-2.758.919-5.058.623-7.453.482a50.323,50.323,0,0,1-6.969-1.227c2.35-.171,4.676-.2,6.971-.489a20.787,20.787,0,0,0,6.317-1.252c.447-.233.326-.229.668-.7a14.71,14.71,0,0,0,.713-1.371,27.482,27.482,0,0,0,1.17-3.075,21.34,21.34,0,0,0,1.262-6.25,2.525,2.525,0,0,1,.79-1.664,23.6,23.6,0,0,0-3.809-.875,47.842,47.842,0,0,0-6.641-.929,22.222,22.222,0,0,0-3.23-.017c-.213.02-.41.1-.333-.007l-.738.474-1.5.961C125.334,418.976,123.366,420.266,121.282,421.363Z" transform="translate(-118.66 -409.911)"/><path class="f" d="M126.667,415.57c.131,2.238.067,4.385.211,6.35.087.909.29,2.027.529,2.092.032.05.007-.07-.085-.07.062-.037.01,0,.2-.008a7.958,7.958,0,0,0,1.208-.137c1.881-.31,3.917-.874,5.977-1.309a44.079,44.079,0,0,1,6.417-1.046,26.734,26.734,0,0,1-11.833,5.81,10.436,10.436,0,0,1-1.98.094,4.618,4.618,0,0,1-1.357-.313,2.97,2.97,0,0,1-1.259-1.125,5.9,5.9,0,0,1-.539-4.112A15.71,15.71,0,0,1,126.667,415.57Z" transform="translate(-116.816 -408.582)"/></g><g transform="translate(0)"><path class="c" d="M129.294,409.284c-1.56-4.725-1.282-10.19-6.6-9.614S114.189,393.6,111.8,392s-10.9,0-12.759,1.6-2.658,4.7-4.519,6.071S90,403.169,87.6,405.3s-5.848,5.05-4.785,10.367,3.456,7.134,5.051,9.813-1.063,7.465,1.063,13.579,12.494,8.508,15.154,7.445,9.756-5.584,13.651-5.584,4.956,3.19,8.412,1.329,8.506-5.848,8.772-7.443-2.924-3-1.861-5.486,5.317-7.157,4.787-10.273S130.488,412.9,129.294,409.284Z" transform="translate(-82.622 -391.343)"/><path class="f" d="M114.971,395.98c-6.513,2.273-13.147,4.531-19.179,7.646a10.833,10.833,0,0,0-1.916,1.267c-.239.062-.4,1.215-.551,1.948-.291,1.662-.492,3.373-.676,5.075-.346,3.408-.6,6.846-.624,10.238a31.263,31.263,0,0,0,.268,4.936,4.187,4.187,0,0,0,.348,1.324,6.25,6.25,0,0,0,1.875.571,51.627,51.627,0,0,0,10.009.49,48.093,48.093,0,0,0,4.988-.392c1.436-.234,3.389-.713,5.009-1.008,3.388-.68,6.789-1.332,10.041-2.176.79-.213,1.629-.42,2.283-.673a2.065,2.065,0,0,0,.4-.167s.176-.08.077-.025a.566.566,0,0,0-.246.336,1.678,1.678,0,0,0-.125,1.26,1.5,1.5,0,0,0,.333.584,1.265,1.265,0,0,0,.208.182c.06.032-.012-.005-.047-.023l-.464-.176c-1.475-.49-3.2-.889-4.847-1.284l-10.113-2.246c-3.384-.746-6.772-1.5-10.161-2.355-1.7-.438-3.389-.875-5.107-1.473a8.59,8.59,0,0,1-2.857-1.481,2.439,2.439,0,0,1-.3-.365,1.961,1.961,0,0,1-.254-.648,6.057,6.057,0,0,1-.012-.629,3.133,3.133,0,0,1,.189-.969,8.257,8.257,0,0,1,.611-1.421,43.894,43.894,0,0,1,6.584-8.449c.619-.633,1.25-1.255,1.923-1.856.338-.3.675-.6,1.051-.88a5.878,5.878,0,0,1,.582-.423,2.171,2.171,0,0,1,2.84.033,8.589,8.589,0,0,1,1.141.911,20.964,20.964,0,0,1,1.841,1.98,132.75,132.75,0,0,1,11.3,17.527c-4.025-5.617-7.949-11.393-12.588-16.389a24.328,24.328,0,0,0-1.783-1.732,4.6,4.6,0,0,0-1.367-.874c.191-.121-.154.114-.246.186a4.611,4.611,0,0,0-.449.363c-.3.251-.6.541-.9.829-.593.581-1.167,1.2-1.729,1.831a42,42,0,0,0-5.8,8.151,5.836,5.836,0,0,0-.373.974c-.018.11-.1.335-.054.3,0,0,0,.01-.02.018a1.015,1.015,0,0,0-.136-.348.474.474,0,0,0-.087-.119,10.512,10.512,0,0,0,1.818.7c1.568.492,3.23.917,4.892,1.312,3.332.788,6.713,1.485,10.1,2.178l12.975,2.487c1.719.385.6.345,2.419.914.229.074.475.162.752.278a3.851,3.851,0,0,1,.529.276,2.49,2.49,0,0,1,.464.378,2.106,2.106,0,0,1,.42.721,1.962,1.962,0,0,1-.137,1.416,3.564,3.564,0,0,1-.718.78,2.87,2.87,0,0,1-.485.293,4.794,4.794,0,0,1-.787.358,24.076,24.076,0,0,1-2.68.837c-3.463.839-6.874,1.434-10.282,2.067-1.789.3-3.2.648-5.182.956a50.683,50.683,0,0,1-5.361.343,54.235,54.235,0,0,1-10.684-.706,8.232,8.232,0,0,1-3-1.1,3.374,3.374,0,0,1-1.215-1.823,6.478,6.478,0,0,1-.3-1.525,33.551,33.551,0,0,1-.059-5.428c.186-3.525.608-6.986,1.121-10.443.268-1.729.549-3.446.936-5.179.321-.884.114-1.679,1.168-2.86a10.423,10.423,0,0,1,2.455-1.493,87.022,87.022,0,0,1,9.887-3.48C108.233,397.622,111.575,396.685,114.971,395.98Z" transform="translate(-78.149 -388.219)"/></g></g><g transform="translate(152.561 261.611)"><g transform="translate(0)"><g transform="translate(179.904 163.136)"><path class="g" d="M278.962,235.934c54.383,55.126,122.8,171.085,110.047,194.593-14.207,26.184-89.937-51.093-89.646-55.607.221-3.411-26.422-73.847-46.63-125.077C232.543,198.661,265.514,222.3,278.962,235.934Z" transform="translate(-245.894 -217.64)"/><path class="a" d="M299.04,375.331c-2.315-7.532-38.565-100.413-48.929-129.784s-.758-38.463,28.842-11.561,94.458,116.775,109.264,164.472c14.26,45.948-9.395,45.948-40.608,24.768C322.052,405.887,299.04,375.331,299.04,375.331Z" transform="translate(-246.078 -217.966)"/><g transform="translate(18.381 19.064)"><path class="c" d="M264.729,229.356a22.034,22.034,0,0,1-1.844,5.949,21.713,21.713,0,0,1-3.307,5.277,21.706,21.706,0,0,1,1.844-5.948A21.953,21.953,0,0,1,264.729,229.356Z" transform="translate(-255.364 -229.356)"/><path class="c" d="M320.28,302.511a24.075,24.075,0,0,1-5.15,11.226,21.762,21.762,0,0,1,1.843-5.948A21.985,21.985,0,0,1,320.28,302.511Z" transform="translate(-217.936 -180.068)"/><path class="c" d="M301.125,273.356a24.075,24.075,0,0,1-5.15,11.226,24.055,24.055,0,0,1,5.15-11.226Z" transform="translate(-230.841 -199.711)"/><path class="c" d="M284.851,273.239a24.118,24.118,0,0,1-11.226-5.15,21.713,21.713,0,0,1,5.95,1.843A21.977,21.977,0,0,1,284.851,273.239Z" transform="translate(-245.899 -203.26)"/><path class="c" d="M302.787,302.721a22.092,22.092,0,0,1-5.949-1.844,21.715,21.715,0,0,1-5.277-3.307,21.7,21.7,0,0,1,5.948,1.844A21.983,21.983,0,0,1,302.787,302.721Z" transform="translate(-233.815 -183.398)"/><path class="c" d="M288.2,252.224a22.031,22.031,0,0,1-5.948-1.843,21.807,21.807,0,0,1-5.276-3.307,24.059,24.059,0,0,1,11.224,5.15Z" transform="translate(-243.64 -217.419)"/><path class="c" d="M268.578,283.911a22.053,22.053,0,0,1,2.9,5.51,21.776,21.776,0,0,1,1.393,6.071,21.672,21.672,0,0,1-2.9-5.51A21.976,21.976,0,0,1,268.578,283.911Z" transform="translate(-249.3 -192.6)"/><path class="c" d="M306.107,319.045a22,22,0,0,1,2.9,5.51,21.76,21.76,0,0,1,1.393,6.069,24.086,24.086,0,0,1-4.295-11.579Z" transform="translate(-224.015 -168.929)"/><path class="c" d="M287.8,315.93a20.484,20.484,0,0,1-5.122,2.745c-.385-.452-.736-.887-1.088-1.306.05-.017.084-.034.134-.05A21.708,21.708,0,0,1,287.8,315.93Z" transform="translate(-240.533 -171.027)"/><path class="c" d="M322.515,340.284a22.027,22.027,0,0,1,5.51-2.9,21.712,21.712,0,0,1,6.069-1.393,24.087,24.087,0,0,1-11.579,4.295Z" transform="translate(-212.96 -157.513)"/><path class="c" d="M267.069,255.58a21.813,21.813,0,0,1-5.523,2.9,23.81,23.81,0,0,1-4.184,1.155c-.1-.268-.2-.552-.3-.82a24.717,24.717,0,0,1,3.933-1.841A21.575,21.575,0,0,1,267.069,255.58Z" transform="translate(-257.06 -211.688)"/></g></g><g transform="translate(19.602 150.637)"><path class="e" d="M357.069,448.6H150.3s32.866-162.167,112.161-232.361c9.8-8.675,31.908-6.7,46.331.464,5.152,2.561,23.637,28.424,28.914,52.877C342.946,294.011,357.646,447.873,357.069,448.6Z" transform="translate(-150.303 -210.498)"/><path class="e" d="M263.492,251.9c1.622,5.458,2.963,11.124,4.062,16.816.008-.221.025-.442.03-.661.084-3.2.111-6.456.447-9.632.018-.167.286-.216.315-.028a49.364,49.364,0,0,1,.263,9.706c-.084,1.525-.177,3.053-.308,4.579.435,2.554.823,5.108,1.143,7.642.608,4.827,2.229,22.791,2.368,26.363.028.751-.837.872-1.046.094-.972-3.61-3.552-22.134-4.375-26.9a260.646,260.646,0,0,1-3.265-27.943C263.112,251.712,263.435,251.709,263.492,251.9Z" transform="translate(-74.29 -182.698)"/><path class="e" d="M272.729,251.051A21.971,21.971,0,0,1,270.886,257a21.682,21.682,0,0,1-3.307,5.277,21.705,21.705,0,0,1,1.844-5.948A22.029,22.029,0,0,1,272.729,251.051ZM244.712,333.4a21.717,21.717,0,0,0-1.844,5.95,21.744,21.744,0,0,0,3.307-5.277,22.031,22.031,0,0,0,1.844-5.948A21.975,21.975,0,0,0,244.712,333.4Zm-67.166,29.481a21.759,21.759,0,0,0-1.843,5.948,21.723,21.723,0,0,0,3.306-5.277,21.955,21.955,0,0,0,1.844-5.948A21.985,21.985,0,0,0,177.547,362.878Zm49.372,52.792a21.819,21.819,0,0,0-1.844,5.949,21.68,21.68,0,0,0,3.307-5.277,21.974,21.974,0,0,0,1.844-5.948A21.985,21.985,0,0,0,226.919,415.67Zm86.2-102.01a21.7,21.7,0,0,0-1.844,5.948,21.68,21.68,0,0,0,3.307-5.277,22.032,22.032,0,0,0,1.844-5.948A21.982,21.982,0,0,0,313.123,313.66Zm27.156,56.027a21.76,21.76,0,0,0-1.843,5.948,21.766,21.766,0,0,0,3.307-5.277,22.031,22.031,0,0,0,1.843-5.949A22.034,22.034,0,0,0,340.28,369.687Zm-65.723,40.371a21.759,21.759,0,0,0-1.843,5.949,21.765,21.765,0,0,0,3.307-5.277,22.03,22.03,0,0,0,1.843-5.948A22.035,22.035,0,0,0,274.557,410.058ZM211.564,300.839a21.82,21.82,0,0,0-1.844,5.948,21.761,21.761,0,0,0,3.309-5.276,22.03,22.03,0,0,0,1.843-5.949A21.974,21.974,0,0,0,211.564,300.839Zm78.169-18.426a21.759,21.759,0,0,0-5.948-1.843,21.712,21.712,0,0,0,5.277,3.307,22.03,22.03,0,0,0,5.948,1.843A22.089,22.089,0,0,0,289.733,282.413Zm13.04,66.531a21.644,21.644,0,0,0-5.948-1.843,21.725,21.725,0,0,0,5.277,3.306,22.032,22.032,0,0,0,5.948,1.844A21.984,21.984,0,0,0,302.773,348.944Zm-121.582,70.5a21.759,21.759,0,0,0-5.948-1.843,24.081,24.081,0,0,0,11.224,5.15A21.973,21.973,0,0,0,181.19,419.443Zm123.721,13.479a21.579,21.579,0,0,0-5.957-1.853,22.478,22.478,0,0,0,5.277,3.3c.434.186.834.37,1.265.556,1.111.062,2.193.154,3.3.216A23.168,23.168,0,0,0,304.912,432.921ZM227.67,365.58a21.761,21.761,0,0,0-5.949-1.843A21.748,21.748,0,0,0,227,367.043a22.046,22.046,0,0,0,5.95,1.845A21.982,21.982,0,0,0,227.67,365.58Zm62.062-142.067a21.7,21.7,0,0,0-5.948-1.844,21.713,21.713,0,0,0,5.277,3.307,22.032,22.032,0,0,0,5.948,1.844A21.951,21.951,0,0,0,289.733,223.512Zm13.39,30.862a21.734,21.734,0,0,0,2.9,5.51,21.833,21.833,0,0,0-1.393-6.071,22.117,22.117,0,0,0-2.9-5.51A22.113,22.113,0,0,0,303.123,254.375Zm32.839,153.9a21.78,21.78,0,0,0,2.9,5.51,21.717,21.717,0,0,0-1.393-6.069,22,22,0,0,0-2.9-5.51A21.981,21.981,0,0,0,335.961,408.272Zm-88.7-115.214a21.7,21.7,0,0,0,2.9,5.51,21.715,21.715,0,0,0-1.393-6.069,22.025,22.025,0,0,0-2.9-5.51A21.967,21.967,0,0,0,247.265,293.058ZM272.8,360.8a21.782,21.782,0,0,0,2.9,5.51,21.741,21.741,0,0,0-1.393-6.071,22.016,22.016,0,0,0-2.9-5.508A21.966,21.966,0,0,0,272.8,360.8ZM154.31,440.229c.017.285.033.569.067.854h.536Q154.636,440.656,154.31,440.229Zm58.213-.268a22.428,22.428,0,0,0-2.912-5.523A22.168,22.168,0,0,0,211,440.513c.067.184.151.385.218.569h1.674C212.774,440.714,212.657,440.329,212.523,439.961Zm-11.89-47.745a21.78,21.78,0,0,0,2.9,5.51,21.741,21.741,0,0,0-1.393-6.071,22.017,22.017,0,0,0-2.9-5.508A21.966,21.966,0,0,0,200.632,392.216Zm50.073-159.411a21.727,21.727,0,0,0,2.9,5.51,21.773,21.773,0,0,0-1.393-6.069,22.051,22.051,0,0,0-2.9-5.51A21.966,21.966,0,0,0,250.706,232.805ZM306.04,389.049a21.781,21.781,0,0,0,5.51-2.9,21.714,21.714,0,0,0-6.071,1.393,22.054,22.054,0,0,0-5.51,2.9A21.977,21.977,0,0,0,306.04,389.049Zm-54.127,49.794a21.752,21.752,0,0,0,5.51-2.9,21.719,21.719,0,0,0-6.069,1.393,22,22,0,0,0-5.51,2.9A21.966,21.966,0,0,0,251.913,438.843ZM159.85,393.749c-.134.469-.285.954-.418,1.406a16.91,16.91,0,0,0,2.812-1.724A16.138,16.138,0,0,0,159.85,393.749Zm47.2-57.346a21.752,21.752,0,0,0,5.51-2.9,21.717,21.717,0,0,0-6.069,1.393,22,22,0,0,0-5.51,2.9A21.963,21.963,0,0,0,207.051,336.4Zm43.4,54.793a21.782,21.782,0,0,0,5.51-2.9,21.729,21.729,0,0,0-6.071,1.393,22.015,22.015,0,0,0-5.508,2.9A22.039,22.039,0,0,0,250.446,391.2ZM276.224,312.6a21.673,21.673,0,0,0,5.51-2.9,24.049,24.049,0,0,0-11.579,4.3A22.028,22.028,0,0,0,276.224,312.6Zm54.557-31.277a21.741,21.741,0,0,0,5.508-2.9,21.716,21.716,0,0,0-6.069,1.393,22.054,22.054,0,0,0-5.51,2.9A21.979,21.979,0,0,0,330.781,281.325Zm-97.554-18.294a21.78,21.78,0,0,0,5.51-2.9,21.727,21.727,0,0,0-6.071,1.393,22.015,22.015,0,0,0-5.508,2.9A21.982,21.982,0,0,0,233.227,263.031Z" transform="translate(-147.603 -202.973)"/></g><g transform="translate(120.833)"><g transform="translate(15.364 106.511)"><path class="h" d="M260.905,268.728c-12.513,2.445-33.053-17.337-40.856-33.02-.529-1.078,1.521-12.111,3.376-25.633,1.093-8.211,2.117-17.38,2.449-25.814.059-1.731,52.392,14.925,52.392,14.925s-5.893,17.476-6.379,32.183a19.072,19.072,0,0,0,.228,3.475c.012.159.05.353.055.576C272.983,242.035,273,266.356,260.905,268.728Z" transform="translate(-219.964 -184.135)"/><path class="i" d="M263.764,235.441a31.746,31.746,0,0,0,5.438-.074c-.007-.224-.04-.408-.054-.579a18.008,18.008,0,0,1-.218-3.473c.487-14.694,6.369-32.173,6.369-32.173s-42.476-13.522-50.937-14.94C225.614,194.013,232.593,233.528,263.764,235.441Z" transform="translate(-217.002 -184.089)"/></g><g transform="translate(7.569 20.554)"><path class="h" d="M216,167.108c-4.079,19.2,10.5,72.356,24.845,83.244,20.8,15.783,52.514,14.705,65.331-9.763,12.426-23.719-7.8-92.662-23.6-102.314C259.289,124.057,222.029,138.751,216,167.108Z" transform="translate(-215.307 -132.779)"/></g><g transform="translate(50.182 61.699)"><g transform="translate(5.079 20.875)"><path class="i" d="M248.886,171.6c-.064-.129-.234.246-.189.392,1.078,3.555,1.712,7.808-1.212,9.87-.09.064-.03.241.085.192C251.378,180.43,250.477,174.793,248.886,171.6Z" transform="translate(-241.349 -168.662)"/><path class="i" d="M247.128,169.886c-5.883,1.113-3.224,12.8,2.228,11.768C254.721,180.64,252.063,168.952,247.128,169.886Z" transform="translate(-243.801 -169.833)"/></g><g transform="translate(34.705 13.574)"><path class="i" d="M261.505,168.3c0-.146.323.105.351.254.71,3.647,2.134,7.7,5.682,8.161.111.013.142.2.017.208C263.431,177.268,261.592,171.863,261.505,168.3Z" transform="translate(-261.5 -163.596)"/><path class="i" d="M263.881,165.654c5.721-1.766,8.834,9.808,3.533,11.443C262.2,178.709,259.084,167.135,263.881,165.654Z" transform="translate(-261.502 -165.471)"/></g><path class="i" d="M243.936,172.408a46.468,46.468,0,0,0,4.765-1.227c1.824-.49,3.327-.693,4.623-2.178a2.535,2.535,0,0,0-.141-3.091c-1.654-1.742-4.037-1.7-6.256-1.2a9.24,9.24,0,0,0-5.644,3.518C239.808,170.117,241.745,172.761,243.936,172.408Z" transform="translate(-240.767 -152.608)"/><path class="i" d="M269.144,164.2a46.365,46.365,0,0,1-4.919-.149c-1.886-.077-3.4.055-4.988-1.108a2.532,2.532,0,0,1-.542-3.046c1.229-2.062,3.563-2.541,5.838-2.541a9.229,9.229,0,0,1,6.282,2.189C272.666,161.06,271.36,164.068,269.144,164.2Z" transform="translate(-228.88 -157.361)"/><path class="i" d="M251.008,191.529c1.059.649,2.191,1.62,3.528,1.431a9.787,9.787,0,0,0,3.686-1.8.131.131,0,0,1,.2.151,5,5,0,0,1-4.149,3.011c-1.7.087-2.835-1.145-3.575-2.554C250.593,191.574,250.852,191.434,251.008,191.529Z" transform="translate(-234.093 -134.602)"/><g transform="translate(18.127 2.333)"><path class="i" d="M251.724,201.645a12.642,12.642,0,0,0,9.475,3.612,15.874,15.874,0,0,0,4.481-.807,4.483,4.483,0,0,0,.825-.29c.258-.092.489-.177.765-.3a.924.924,0,0,0,.542-.976l-.007-.027a1.776,1.776,0,0,0-.119-.363l0-.027-.079-.316c-.559-2.8-1.794-6.981-1.794-6.981,1.135.278,6.859,1.433,6.446-.005-3.463-11.892-7.313-25.116-13.269-36.218a.344.344,0,0,0-.639.243c2.874,11.561,7.765,22.537,10.838,34.1-1.8-.253-4.769-.8-6.221-.442-.37.2,2.531,8.031,2.681,9.311a.46.46,0,0,1,.007.137c-4.548,1.665-8.4,1.053-13.661-1.058C251.673,201.1,251.442,201.406,251.724,201.645Z" transform="translate(-251.597 -158.755)"/></g></g><path class="i" d="M229.439,222.5s-19.449-28.785-18.629-46.023c.372-7.793,10.678-13.544,10.678-13.544s-3.629-9.276,4.661-17.9c8.737-9.09,31.043-8.26,31.043-8.26s13.358-21.521,34.138-14.285,8.66,30.984,8.66,30.984,8,10.233-9.84,19.434c-17.372,8.96-54.109,2.83-54.109,2.83s3.863,18.475,1.312,37.661C236.408,220.5,229.439,222.5,229.439,222.5Z" transform="translate(-210.785 -120.163)"/><path class="i" d="M257.37,131.271a35.794,35.794,0,0,0-14.459-1.9,38.6,38.6,0,0,0-12.8,2.661c-7.194,3-13.442,8.719-14.272,16.828a14.945,14.945,0,0,0,3.406,11.132c.1.127.293-.064.179-.189-5-5.6-2.976-14.788,1.647-19.913,5.229-5.8,13.542-8.31,21.1-9.008a63.03,63.03,0,0,1,15.1.837A.23.23,0,0,0,257.37,131.271Z" transform="translate(-207.436 -114.568)"/><path class="i" d="M286.855,131.924c-1.977-5.615-7.046-9.038-12.623-10.516a29.752,29.752,0,0,0-19.248,1.632A37.5,37.5,0,0,0,239.8,135.516c-.087.119.119.271.209.152,7.209-9.437,18.938-15.194,30.9-13.279,5.351.857,10.784,3.321,13.489,8.257,2.486,4.538,2.293,10.474.3,15.149-2.467,5.776-7.346,10.294-12.439,13.778a.111.111,0,0,0,.115.189c4.958-3,9.554-6.713,12.5-11.788C287.642,143.184,288.728,137.242,286.855,131.924Z" transform="translate(-191.253 -120.498)"/><path class="i" d="M288.324,152.488c-7.883,3.876-16.664,5.453-25.391,5.712a125.606,125.606,0,0,1-27.141-2.352c-5.209-.984-10.382-2.164-15.526-3.438a.13.13,0,0,0-.064.253c9.115,3.185,18.4,5.933,28.012,7.142a68.914,68.914,0,0,0,26.6-1.568,58.547,58.547,0,0,0,13.611-5.582C288.538,152.592,288.436,152.433,288.324,152.488Z" transform="translate(-204.502 -99.001)"/><g transform="translate(10.704 68.797)"><path class="e" d="M255.859,196.208a14.852,14.852,0,1,1,11.689-20.333v0a14.86,14.86,0,0,1-11.689,20.331Zm-3.838-27.454a12.866,12.866,0,1,0,13.69,7.873A12.842,12.842,0,0,0,252.021,168.754Z" transform="translate(-202.512 -158.204)"/><path class="e" d="M274.422,190.81c-5.629.785-11.539-4.265-13.5-11.761a17.723,17.723,0,0,1,.41-10.839,9.251,9.251,0,0,1,15.323-4.007,17.727,17.727,0,0,1,5.661,9.251c2.069,7.922-1.043,15.623-6.938,17.166A8.61,8.61,0,0,1,274.422,190.81ZM269.1,163.657a6.646,6.646,0,0,0-.74.147,7.919,7.919,0,0,0-5.185,5.127,15.776,15.776,0,0,0-.338,9.614c1.8,6.864,7.177,11.427,12.033,10.153,4.839-1.265,7.314-7.88,5.522-14.741a15.768,15.768,0,0,0-5-8.22A8.174,8.174,0,0,0,269.1,163.657Z" transform="translate(-188.147 -161.602)"/><path class="e" d="M256.661,175.444l-1.62-1.148c1.7-2.4,6.1-6.178,10.586-3.341l-1.061,1.677C260.548,170.084,256.819,175.226,256.661,175.444Z" transform="translate(-191.671 -155.983)"/><path class="e" d="M219.117,192.412l-1.937-.435c.2-.9,2.106-8.878,6.213-10.7,3.843-1.689,30.221-6.009,31.342-6.191l.318,1.96c-7.564,1.232-27.891,4.733-30.855,6.047C221.485,184.3,219.612,190.227,219.117,192.412Z" transform="translate(-217.18 -152.515)"/></g><g transform="translate(3.099 87.383)"><path class="h" d="M236.48,184.67s-14.061-16.128-21.506-10.931,4.435,29.486,14.093,31.947,12.111-6.436,12.111-6.436Z" transform="translate(-212.637 -172.707)"/><path class="i" d="M216.219,177.432a.129.129,0,0,0-.022.254c6.8,1.94,10.871,7.611,13.944,13.613-2.2-2.2-4.974-3.239-7.955-.587-.156.139.035.388.214.33,2.606-.857,4.579-.6,6.611,1.341a28.228,28.228,0,0,1,3.617,4.844c.368.551,1.386.126,1.091-.52-.02-.049-.045-.1-.069-.146C232.924,188.24,225.223,177.312,216.219,177.432Z" transform="translate(-210.303 -169.523)"/></g></g><g transform="translate(53.711 319.75)"><g transform="translate(0 0.001)"><path class="g" d="M399.265,367.809c-12.242,17.509-45.563,20.847-128.676,37.129-11.5,2.253-49.235-74.634-37.077-77.672,15.313-3.825,75.57-15.352,80.084-15.638C351.659,309.21,407.567,355.934,399.265,367.809Z" transform="translate(-129.957 -311.538)"/><g transform="translate(0 11.937)"><path class="h" d="M290.862,318.67s-35.211,5.322-52.843,13.844C214.4,343.925,198.717,363.5,192.64,372.1c-12.69,17.949-30.959,70.125-16.851,78.01,12.772,7.135,28.753-47.141,28.753-47.141s-25.426,52.651-8.467,58.417S228,403.089,228,403.089s-24.91,54.683-6.481,57.861c13.926,2.4,30.75-54.855,30.75-54.855s-21.086,47.149-6.869,50.236c15.708,3.413,34.554-48.465,34.554-48.465,37.455,1.766,56.012-12.715,67.987-24.587C350.839,380.4,290.862,318.67,290.862,318.67Z" transform="translate(-170.682 -318.67)"/><g transform="translate(19.583 65.45)"><path class="h" d="M204.286,357.849c-3.21,6.077-6.5,12.207-9.16,18.547s-5.1,12.781-7.157,19.34c-5.045,16.09-5.687,26.954-5.575,26.288,2.668-15.768,11.837-38.615,14.5-44.959,2.653-6.328,4.989-12.791,7.639-19.122C204.6,357.784,204.363,357.705,204.286,357.849Z" transform="translate(-182.382 -357.774)"/><path class="h" d="M217.309,363.333c-3.763,7.935-7.79,15.676-11.2,23.782-3.4,8.066-5.915,16.016-8.749,24.293-.218.638.2.546.44-.085,3.162-8.158,6.715-15.457,9.971-23.578,3.247-8.091,6.2-16.371,9.738-24.338C217.56,363.283,217.368,363.213,217.309,363.333Z" transform="translate(-172.335 -354.07)"/><path class="h" d="M227.724,365.933c-6.374,11.835-10.555,24.832-14.352,37.676-.187.641.333.462.564-.181,4.536-12.615,8-22.542,14.2-37.274C228.233,365.925,227.858,365.684,227.724,365.933Z" transform="translate(-161.53 -352.347)"/></g></g></g><g transform="translate(112.833)"><path class="a" d="M238.1,323.463l72.821,81.091s73.633-16.9,84.482-35.791c7.14-12.431-48.351-62.6-90.206-56.732Z" transform="translate(-238.096 -311.524)"/><path class="c" d="M300.573,371.115a22.021,22.021,0,0,1-1.843,5.95,21.706,21.706,0,0,1-3.307,5.276,21.707,21.707,0,0,1,1.844-5.948A22.062,22.062,0,0,1,300.573,371.115Zm50.589-4.543a21.7,21.7,0,0,0-1.844,5.948,21.681,21.681,0,0,0,3.307-5.277,22.072,22.072,0,0,0,1.844-5.949A21.984,21.984,0,0,0,351.162,366.572Zm-36.081-17.029a21.759,21.759,0,0,0-5.948-1.843,24.12,24.12,0,0,0,11.226,5.15A22.017,22.017,0,0,0,315.081,349.543Zm36.057-22.329a21.779,21.779,0,0,0,2.9,5.51,21.76,21.76,0,0,0-1.393-6.069,22,22,0,0,0-2.9-5.51A21.98,21.98,0,0,0,351.139,327.214Zm-73.81,17.551a21.78,21.78,0,0,0,2.9,5.51,21.717,21.717,0,0,0-1.393-6.069,22,22,0,0,0-2.9-5.51A21.981,21.981,0,0,0,277.328,344.765Zm-29.922-19.223a21.781,21.781,0,0,0,5.51-2.9,21.714,21.714,0,0,0-6.071,1.393,22.054,22.054,0,0,0-5.51,2.9A21.977,21.977,0,0,0,247.407,325.542Zm62.006-6.712a21.779,21.779,0,0,0,5.51-2.9,21.74,21.74,0,0,0-6.071,1.393,22.015,22.015,0,0,0-5.508,2.9A21.977,21.977,0,0,0,309.412,318.83Zm22.937,71.3a21.779,21.779,0,0,0,5.51-2.9,21.717,21.717,0,0,0-6.069,1.393,22.025,22.025,0,0,0-5.51,2.9A21.967,21.967,0,0,0,332.349,390.127Zm54.743-40.436a25.938,25.938,0,0,0-4.369,1.205,22.429,22.429,0,0,0-5.523,2.912,22.184,22.184,0,0,0,6.076-1.406,23.805,23.805,0,0,0,4.318-2.075C387.427,350.126,387.26,349.908,387.092,349.691Z" transform="translate(-235.913 -308.579)"/><g transform="translate(30.327)"><path class="j" d="M328.237,325.3c-6.75-4.891-25.754-16.294-49.988-13.256-.212.027-.219.373,0,.367,18.271-.516,42.928,9.037,49.827,13.191C328.257,325.71,328.408,325.422,328.237,325.3Z" transform="translate(-241.479 -311.537)"/><path class="j" d="M318.62,386.558c-7.53-9.344-15.551-18.279-23.6-27.19s-16.086-17.854-24.36-26.571c-4.675-4.924-9.323-9.88-14.167-14.64-.127-.126-.368.055-.251.2,7.513,9.331,15.507,18.309,23.479,27.259q11.988,13.457,24.256,26.678,6.924,7.472,14.167,14.642C318.389,387.172,318.841,386.831,318.62,386.558Z" transform="translate(-256.215 -307.105)"/></g></g></g><g transform="translate(125.941 148.658)"><path class="i" d="M279.674,222.758a.093.093,0,0,0-.182.03c1.465,11.182,4.124,37.164-13.594,36.787-7.138-.152-13.91-4.138-19.61-8.106A99.345,99.345,0,0,1,230.3,237.336c-5.373-5.8-10.908-11.887-15.249-18.5-.186-.281-.608.055-.41.335,4.648,6.576,8.62,13.47,13.9,19.606a86.3,86.3,0,0,0,17.275,15.67c6.087,4.062,13.279,8.009,20.815,7.811,7.167-.189,12.068-4.958,13.711-11.7C282.5,241.7,281.664,231.553,279.674,222.758Z" transform="translate(-213.33 -202.976)"/><path class="c" d="M276.266,218.194l-12.908,31.1-38.374-39.981-11.147,12.56s37.261,63.247,37.532,60.412L264.556,255.5l18.374,18.952-.971-47.059Z" transform="translate(-213.837 -209.316)"/><path class="i" d="M283.148,244.928c-.42-7.765-.628-15.6-1.408-23.332-.027-.274-.455-.4-.526-.08-1.642,7.475.126,37.159.01,44.269-.025-.025-.055-.055-.08-.082-.767-.818-17.04-16.684-17.206-16.438-2.842,4.245-12.518,23.75-13.184,25.526-5.892-10.046-28.5-46.579-35.5-56.1a.269.269,0,0,0-.469.264c5.185,10.6,35.09,59.788,35.559,59.657.316.249,12.337-23.774,13.793-28.321,2.745,3.448,19.149,21.329,19.22,20.175A243.97,243.97,0,0,0,283.148,244.928Z" transform="translate(-213.219 -203.08)"/></g><g transform="translate(0 128.392)"><g transform="translate(190.461)"><path class="k" d="M302.042,285.771s7.982,18.09-4.794,22.532-17.737-14.7-17.737-14.7Z" transform="translate(-234.108 -137.539)"/><path class="l" d="M252.385,222.685l0-.017,2.845-19.138.9-6.32,4.688,4.365,14.106,13.263h.017l0,.033,45.64,131.312-22.54,7.831L252.4,222.687Z" transform="translate(-252.385 -197.206)"/><path class="l" d="M254.081,203.527l.915-6.319,4.687,4.372Z" transform="translate(-251.242 -197.208)"/><rect class="m" width="27.853" height="5.527" transform="matrix(-0.945, 0.328, -0.328, -0.945, 70.325, 149.018)"/><rect class="m" width="27.853" height="5.527" transform="translate(68.319 143.248) rotate(160.832)"/><path class="m" d="M300.3,298.63l-8.488,2.951-11.835-49.135,3.191-.907Z" transform="translate(-233.795 -160.603)"/></g><g transform="translate(2.968 41.878)"><path class="g" d="M232.853,247.441c-52.954,66.121-100.972,161.29-91.219,195.706,3.568,12.588,26.3,33.51,60.469,22.179,38.476-12.757,86.445-44.12,131.131-77.437,9.483-7.07-68.242-66.041-78.5-58.641-4.774,3.445-17.8,15.6-19.755,14.665-2.968-1.418,12.689-33.979,25.973-85.026C274.941,205.15,255.872,218.7,232.853,247.441Z" transform="translate(-140.365 -222.229)"/><g transform="translate(109.56 16.026)"><path class="h" d="M322.024,235.123c7.177,8.764-15.931,24.624-15.931,24.624s7.759-1.011,13.778,3.493c6.892,5.158,1.826,18.229,1.826,18.229s8.066.6,13.944,6c6.1,5.6,2.869,19.518,2.869,19.518s7.2,4.69,8.938,13c2.968,14.207-13.032,29.55-23.1,39.4s-47.867,28.378-54.713,32.636l-63.81-64.091s32.588-57.043,46.073-66.95C263.258,252.639,311.056,221.73,322.024,235.123Z" transform="translate(-205.823 -231.804)"/><g transform="translate(60.619 27.812)"><path class="i" d="M281.309,248.45c-14.208,5.974-26.961,15.337-39.166,24.507a.265.265,0,0,0,.321.42c12.033-9.262,26.832-15.527,39.207-24.291A.371.371,0,0,0,281.309,248.45Z" transform="translate(-242.041 -248.421)"/><path class="i" d="M287.876,261.115c-3.173,1.449-5.86,3.94-8.519,6.153q-4.293,3.575-8.462,7.291-8.353,7.437-16.329,15.281c-.234.231.062.649.321.418,5.56-4.929,11.192-9.776,16.955-14.468q4.323-3.522,8.705-6.974c2.715-2.142,5.758-4.178,7.947-6.887A.533.533,0,0,0,287.876,261.115Z" transform="translate(-233.66 -239.898)"/><path class="i" d="M297.125,276.848c-2.81,1.148-5.179,3.912-7.375,5.948q-3.733,3.467-7.508,6.891c-5.031,4.566-10.064,9.129-15.253,13.515-.258.219.06.639.323.42,5.292-4.432,10.645-8.789,15.9-13.268q3.871-3.3,7.7-6.638c2.173-1.895,5.1-4.014,6.449-6.625C297.44,276.945,297.266,276.791,297.125,276.848Z" transform="translate(-225.296 -229.276)"/></g></g><path class="i" d="M243.671,335.776a81.161,81.161,0,0,1,9.488-7.96,80.211,80.211,0,0,1,10.473-6.611,80.26,80.26,0,0,1-9.487,7.962A81.157,81.157,0,0,1,243.671,335.776Z" transform="translate(-70.763 -155.545)"/></g><g transform="translate(0 38.347)"><path class="a" d="M238.344,341.6s14.408-42.185,24.3-76.415,13.023-66.024-23.416-27.374C202.912,276.338,137.646,390.357,138.6,435.208c.278,13.052,14.269,38.165,50.371,37.335S323.3,412.107,323.3,412.107l-72.93-79.356Z" transform="translate(-138.592 -220.119)"/><path class="c" d="M253.5,334.919a14.882,14.882,0,0,1-1.757,2.393,16.275,16.275,0,0,1,.837-3.4Zm-67.079,25.92a21.758,21.758,0,0,0-1.843,5.948,21.724,21.724,0,0,0,3.306-5.277,21.955,21.955,0,0,0,1.844-5.948A21.986,21.986,0,0,0,186.418,360.838ZM235.79,413.63a21.819,21.819,0,0,0-1.844,5.949,21.681,21.681,0,0,0,3.307-5.277,21.973,21.973,0,0,0,1.844-5.948A21.984,21.984,0,0,0,235.79,413.63Zm-92.8,7.569a21.759,21.759,0,0,0-1.843,5.948,21.765,21.765,0,0,0,3.307-5.277,22.029,22.029,0,0,0,1.843-5.948A22.056,22.056,0,0,0,142.986,421.2Zm140.442-13.181a21.76,21.76,0,0,0-1.843,5.949,21.766,21.766,0,0,0,3.307-5.277,22.03,22.03,0,0,0,1.843-5.948A22.035,22.035,0,0,0,283.428,408.018ZM220.435,298.8a21.821,21.821,0,0,0-1.844,5.948,21.761,21.761,0,0,0,3.309-5.276,22.031,22.031,0,0,0,1.843-5.949A21.974,21.974,0,0,0,220.435,298.8Zm-11.259-27.5a18.919,18.919,0,0,0,4.553,1.272,18.721,18.721,0,0,0-3.7-2.511Zm-49.308,86.449-.017-.017c-.234.485-.469.971-.686,1.473.017,0,.017.017.033.017a22.857,22.857,0,0,0,5.959,1.841A22.025,22.025,0,0,0,159.867,357.749ZM190.061,417.4a21.761,21.761,0,0,0-5.948-1.843,24.08,24.08,0,0,0,11.224,5.15A21.974,21.974,0,0,0,190.061,417.4Zm46.48-53.863a21.761,21.761,0,0,0-5.948-1.843A21.747,21.747,0,0,0,235.869,365a22.044,22.044,0,0,0,5.95,1.845A21.983,21.983,0,0,0,236.541,363.54ZM164.57,444.264a21.677,21.677,0,0,0,2.9,5.51,21.774,21.774,0,0,0-1.393-6.069,22.031,22.031,0,0,0-2.9-5.51A22.072,22.072,0,0,0,164.57,444.264Zm55.307-5.789a21.753,21.753,0,0,0,2.9,5.51,21.716,21.716,0,0,0-1.393-6.069,22,22,0,0,0-2.9-5.51A21.964,21.964,0,0,0,219.878,438.475Zm-10.374-48.3a21.78,21.78,0,0,0,2.9,5.51,21.741,21.741,0,0,0-1.393-6.071,22.017,22.017,0,0,0-2.9-5.508A21.966,21.966,0,0,0,209.5,390.176ZM186.394,323.05a21.782,21.782,0,0,0,2.9,5.51,21.711,21.711,0,0,0-1.393-6.071,22.054,22.054,0,0,0-2.9-5.51A21.98,21.98,0,0,0,186.394,323.05Zm73.183-92.285a21.726,21.726,0,0,0,2.9,5.51,21.774,21.774,0,0,0-1.393-6.069,22.05,22.05,0,0,0-2.9-5.51A21.967,21.967,0,0,0,259.577,230.765ZM242.1,260.991a21.78,21.78,0,0,0,5.51-2.9,21.725,21.725,0,0,0-6.071,1.393,22.015,22.015,0,0,0-5.508,2.9A21.98,21.98,0,0,0,242.1,260.991ZM260.784,436.8a21.753,21.753,0,0,0,5.51-2.9,21.719,21.719,0,0,0-6.069,1.393,22,22,0,0,0-5.51,2.9A21.966,21.966,0,0,0,260.784,436.8Zm-95.177-42.51a21.778,21.778,0,0,0,5.51-2.9,21.713,21.713,0,0,0-6.071,1.393,22.053,22.053,0,0,0-5.51,2.9A21.977,21.977,0,0,0,165.606,394.293Zm30.71,62.081a21.735,21.735,0,0,0,5.51-2.9,21.8,21.8,0,0,0-6.071,1.393,22.022,22.022,0,0,0-5.508,2.9A22.041,22.041,0,0,0,196.316,456.374Zm19.606-122.011a21.752,21.752,0,0,0,5.51-2.9,21.716,21.716,0,0,0-6.069,1.393,22,22,0,0,0-5.51,2.9A21.964,21.964,0,0,0,215.923,334.363Zm43.4,54.793a21.781,21.781,0,0,0,5.51-2.9,21.728,21.728,0,0,0-6.071,1.393,22.015,22.015,0,0,0-5.508,2.9A22.038,22.038,0,0,0,259.318,389.156Z" transform="translate(-136.873 -217.035)"/><g transform="translate(10.663 58.595)"><path class="j" d="M260.638,365.975c-7.53-9.345-15.551-18.279-23.6-27.19s-16.086-17.854-24.36-26.569c-4.675-4.926-9.321-9.88-14.167-14.642-.127-.126-.368.055-.251.2,7.513,9.333,15.507,18.309,23.479,27.259Q233.732,338.49,246,351.713c4.616,4.979,9.324,9.877,14.167,14.64C260.407,366.589,260.859,366.249,260.638,365.975Z" transform="translate(-109.072 -226.558)"/><path class="j" d="M219.809,266.4c-1.418,2.084-2.711,4.26-3.92,6.484.4-1.145.82-2.285,1.218-3.43,1.615-4.643,3.1-9.323,4.658-13.982.1-.291-.388-.487-.507-.2-1.642,4.03-3.351,8.031-4.946,12.084-1.575,4-3.068,8.037-4.6,12.054-3.1,8.108-6.176,16.212-9.035,24.408-1.619,4.641-3.122,9.3-4.476,14.028-.055.2.251.323.338.132,3.605-7.868,6.752-15.946,9.75-24.065q2.937-7.954,5.794-15.944c2.1-3.754,4.131-7.557,5.955-11.445A.131.131,0,0,0,219.809,266.4Z" transform="translate(-109.098 -255.128)"/><path class="j" d="M247.219,289.147c-.033-.049-1.133-.9-1.183-.947-3.6,3.147-7.5,5.892-11.214,8.854-1.975,1.59-16.637,13.223-21.658,17.457-11.9,10.042-23.5,20.47-34.847,31.148-5.674,5.339-11.248,10.8-16.754,16.3-5.557,5.54-11.1,11.1-16.369,16.922a.131.131,0,0,1-.2-.167c5.724-6.762,11.432-13.541,17.407-20.068a401.554,401.554,0,0,1,33.626-32.822q8.888-7.682,18.127-14.947c4.05-3.2,17.507-13.574,19.432-15.03,3.967-3,7.947-6.225,11.967-8.888.152-.1,1.819,1.987,1.87,2.019C247.554,289.1,247.3,289.3,247.219,289.147Z" transform="translate(-144.963 -233.682)"/></g></g></g></g></g><g transform="translate(110.873 649.687)"><g transform="translate(0 0)"><g transform="translate(53.822 74.745)"><rect class="n" width="39.617" height="6.183"/><rect class="n" width="39.617" height="4.079"/></g><g transform="translate(0 11.531)"><path class="n" d="M67.308,390.905c4.685,6.583,12.978,11.3,22.308,9.539a22.337,22.337,0,0,0,4.019-1.153,28.272,28.272,0,0,0,5.6-2.946L94.2,388.883a17.929,17.929,0,0,1-2.973,1.687c-9.433,4.278-15.407-3.16-16.58-4.859-5.431-7.631-7.375-25.063-1.873-31.768.363-.5,1.953-1.282,8.334.075,1.177.266,2.514.562,4.024.977a16.022,16.022,0,0,0,3.622.782l.161-4.481.439-4.471c-.412-.075-1.054-.259-1.893-.5a57.817,57.817,0,0,0-9.006-1.868c-4.693-.487-9.616.075-12.635,3.783C56.882,359.195,60.506,381.337,67.308,390.905Z" transform="translate(-60.511 -344.313)"/><path class="o" d="M81.837,370.942a17.929,17.929,0,0,1-2.973,1.687l2.405,8.72a28.274,28.274,0,0,0,5.6-2.946Z" transform="translate(-48.145 -326.371)"/><path class="n" d="M71.232,344.4l2.655,9.557c1.177.266,2.514.562,4.024.977a16.022,16.022,0,0,0,3.622.782l.161-4.481.439-4.471c-.412-.075-1.054-.259-1.893-.5A57.821,57.821,0,0,0,71.232,344.4Z" transform="translate(-53.287 -344.252)"/></g><path class="l" d="M178.411,337.423S173.657,377.8,165.449,394.8c-8.21,16.978-19.667,18.882-26.785,18.882h-25.9c-7.118,0-18.575-1.9-26.785-18.882-8.208-17.005-12.963-57.379-12.963-57.379Z" transform="translate(-52.085 -337.423)"/><path class="n" d="M171.255,355.976c-.377,1.721-.753,3.414-1.13,5.137H77.194c-.377-1.722-.753-3.416-1.13-5.137Z" transform="translate(-50.032 -324.923)"/><path class="n" d="M167.9,362.113c-1,3.818-2.07,7.475-3.254,10.7h-83.9c-1.183-3.227-2.26-6.884-3.254-10.7Z" transform="translate(-49.069 -320.788)"/></g></g></g></svg>