<svg xmlns="http://www.w3.org/2000/svg" width="124.019" height="229.832" viewBox="0 0 124.019 229.832"><defs><style>.a{fill:#2383c3;}.b{fill:#333;}.c{fill:#263238;}</style></defs><g transform="translate(-1630.698 -585.111)"><g transform="translate(1630.698 624.986)"><path class="a" d="M391.183,259.767c27.741,27.158,32.4,69.174,26.551,105.976-.151.835-1.442.608-1.442-.178,0-8.377.252-16.68.227-24.956-.151-.38-.278-.734-.431-1.114-7.238-5.265-13.895-11.212-18.021-19.362-4.631-9.112-6.453-19.389-10-28.905-.33-.912.642-.644,1.278-.175,16.874,12.445,22.253,25.839,27.1,43.733a148.842,148.842,0,0,0-2.936-27.867c-3.645-16.983-10.857-33.815-23.057-46.419C389.993,260.019,390.7,259.286,391.183,259.767Z" transform="translate(-360.8 -237.83)"/><path class="b" d="M398.082,272.63c-4.773.162-7.764,7.789-11.483,10.015-1.969,1.184-3.885,1.112-5.267-.827-3.686-5.145,1.372-11.492,6.125-15.039-3.4,1.4-6.221,3.854-9.886,4.55-2.223.407-3.948-.415-4.465-2.672-1.615-7.014,7.18-10.134,13.215-10.28-2.926-2.035-11.311-7.564-6.857-10.284,4.516-2.729,14.356,5.177,17.567,7.782,4.717,3.827,10.342,9.547,10.556,15.533C407.863,278.4,401.754,274.1,398.082,272.63Z" transform="translate(-372.912 -247.528)"/><path class="a" d="M396.425,270.945c-6.1-2.774-17.824,1.219-18.821-1.091-2.019-4.7,7.347-7.926,12.4-8.55-4.658-1.262-13.579-3.272-13.305-7.762.335-5.484,13.685-.768,20.442,4.413,8.514,6.529,8.458,12.826,7.05,14.087C402.264,273.774,397.433,271.4,396.425,270.945Z" transform="translate(-369.874 -244.666)"/></g><path class="a" d="M439,258.27c-28.754,26.082-35.005,67.89-30.562,104.887.119.842,1.419.662,1.448-.121.319-8.373.382-16.678.723-24.948.166-.373.3-.721.472-1.1,7.432-4.986,14.311-10.675,18.744-18.663,4.975-8.93,7.187-19.129,11.09-28.5.364-.9-.617-.669-1.271-.224-17.334,11.793-23.22,24.973-28.739,42.672A149.031,149.031,0,0,1,414.9,304.54c4.288-16.833,12.137-33.377,24.808-45.509C440.177,258.568,439.5,257.807,439,258.27Z" transform="translate(1285.26 385.964)"/><path class="b" d="M431.86,270.965c4.763.342,7.463,8.078,11.1,10.443,1.92,1.26,3.838,1.26,5.294-.626,3.877-5-.934-11.535-5.55-15.263,3.346,1.527,6.071,4.09,9.707,4.925,2.2.492,3.959-.265,4.562-2.5,1.882-6.947-6.79-10.4-12.815-10.774,3-1.922,11.591-7.129,7.243-10.015-4.407-2.9-14.542,4.627-17.848,7.108-4.86,3.645-10.7,9.147-11.14,15.12C421.868,276.353,428.136,272.288,431.86,270.965Z" transform="translate(1297.487 376.632)"/><path class="a" d="M430.6,269.257c6.2-2.54,17.765,1.895,18.848-.375,2.2-4.62-7.039-8.2-12.069-9.015,4.7-1.083,13.693-2.753,13.59-7.25-.126-5.493-13.646-1.287-20.595,3.632-8.755,6.2-8.939,12.494-7.58,13.808C424.659,271.86,429.577,269.676,430.6,269.257Z" transform="translate(1297.322 379.462)"/><g transform="translate(1648.039 585.111)"><path class="c" d="M418.562,339.889c-2.123,13.747-4.755,27.959-8.928,41.242a1.027,1.027,0,0,1-2.01-.406c1.889-12.71,5.332-25.184,7.221-37.893a190.953,190.953,0,0,0,2.208-38.9c-1.211-21.415-7.027-44.2-21-60.956-.306-.4.344-.959.661-.589,27.979,32.622,23.528,72.62,23.5,76.2,3.96-13.505,8.042-28.986,23.025-42.738.647-.593,1.15-.31,1.044.7-2.681,25.049-9.644,38.129-24.168,51.521C419.7,332.037,419.193,335.988,418.562,339.889Z" transform="translate(-371.746 -211.879)"/><path d="M406.585,260.255c-5.033-2.235-11.977,4.173-16.956,4.611-2.637.238-4.589-.8-5.047-3.512-1.235-7.192,7.205-11.23,13.925-12.521-4.231-.261-8.395.869-12.548-.254-2.509-.7-3.886-2.417-3.288-5.02,1.855-8.09,12.552-6.9,18.888-4.014-2.012-3.582-7.93-13.541-1.938-14.12,6.057-.559,12.289,12.6,14.307,16.914,2.969,6.347,5.927,15.113,3.133,21.431C413.831,271.161,409.658,263.624,406.585,260.255Z" transform="translate(-382.532 -225.407)"/><path class="a" d="M404.791,258.9c-4.934-5.95-19.106-7.708-18.978-10.607.27-5.893,11.612-4.525,17.172-2.626-4.195-3.654-12.442-10.23-9.9-14.751,3.108-5.521,14.585,6.091,18.989,14.868,5.547,11.059,2.318,17.565.222,18.165C409.426,264.773,405.606,259.88,404.791,258.9Z" transform="translate(-379.899 -222.136)"/></g><path d="M446.652,300.651l12.341,94.282H383.9c1.547-8.355,15.522-94.391,15.522-94.391Z" transform="translate(1266.609 420.009)"/></g></svg>