<svg xmlns="http://www.w3.org/2000/svg" width="78.478" height="83.71" viewBox="0 0 78.478 83.71"><defs><style>.a{fill:#1de8f1;}.b{fill:#00d0ff;}.c{fill:#0bf;}.d{fill:#ff0b69;}.e{fill:#dd025b;}.f{fill:#9e0a48;}.g{fill:#7986e8;}.h{fill:#6e77e5;}.i{fill:#4c5ce1;}</style></defs><g transform="translate(0)"><path class="a" d="M35.62,245.62l-17.809-4L16,235.81,35.62,226l19.62,9.81-2.044,5.927Z" transform="translate(-16 -189.05)"/><path class="b" d="M35.62,322.95,16,313.14V286l19.62,9.81,4.9,7.219V315.9Z" transform="translate(-16 -239.24)"/><path class="c" d="M155.62,313.14,136,322.95V295.81L155.62,286Z" transform="translate(-116.38 -239.24)"/><path class="d" d="M275.62,245.62l-17.809-4L256,235.81,275.62,226l19.62,9.81-2.044,5.927Z" transform="translate(-216.761 -189.05)"/><path class="e" d="M275.62,322.95,256,313.14V286l19.62,9.81,4.9,7.219V315.9Z" transform="translate(-216.761 -239.24)"/><path class="f" d="M395.62,313.14,376,322.95V295.81L395.62,286Z" transform="translate(-317.141 -239.24)"/><path class="g" d="M155.62,19.62l-17.809-4L136,9.81,155.62,0l19.62,9.81-2.044,5.927Z" transform="translate(-116.38 0)"/><path class="h" d="M155.62,96.95,136,87.14V60l19.62,9.81,4.9,7.056V89.9Z" transform="translate(-116.38 -50.19)"/><path class="i" d="M275.62,87.14,256,96.95V69.81L275.62,60Z" transform="translate(-216.761 -50.19)"/></g></svg>