<svg xmlns="http://www.w3.org/2000/svg" width="48.732" height="31.166" viewBox="0 0 48.732 31.166"><defs><style>.a{fill:#fff780;}.b{fill:#ffc02e;}.c{fill:#ffa73b;}</style></defs><g transform="translate(0 -92)"><path class="a" d="M70.339,165.01H39.263a1.434,1.434,0,0,1-1.186-.627c-4.1-6.013-4.415-17.579-4.439-19.3,0-.067,0-.135,0-.2a1.435,1.435,0,0,1,1.433-1.435h0a1.435,1.435,0,0,1,1.435,1.43c0,.01,0,.094,0,.245a7.605,7.605,0,0,0,15.206-.239,1.435,1.435,0,0,1,1.435-1.435h3.3a1.435,1.435,0,0,1,1.435,1.435,7.605,7.605,0,0,0,15.207.228c0-.144,0-.224,0-.233a1.435,1.435,0,0,1,1.435-1.43h0a1.435,1.435,0,0,1,1.432,1.435c0,.068,0,.136,0,.2-.024,1.717-.339,13.283-4.439,19.3A1.436,1.436,0,0,1,70.339,165.01Z" transform="translate(-30.435 -46.552)"/><path class="b" d="M275.735,143.449h0a1.435,1.435,0,0,0-1.435,1.43c0,.01,0,.09,0,.233a7.605,7.605,0,0,1-15.207-.228,1.435,1.435,0,0,0-1.435-1.435H256v21.56h15.538a1.435,1.435,0,0,0,1.186-.626c4.1-6.013,4.415-17.579,4.439-19.3,0-.067,0-.135,0-.2A1.436,1.436,0,0,0,275.735,143.449Z" transform="translate(-231.638 -46.552)"/><path class="b" d="M211.918,92a4.637,4.637,0,1,0,4.637,4.637A4.642,4.642,0,0,0,211.918,92Z" transform="translate(-187.552)"/><path class="c" d="M256,92v9.274A4.637,4.637,0,0,0,256,92Z" transform="translate(-231.638)"/><path class="b" d="M4.637,129.6a4.637,4.637,0,1,0,4.637,4.637A4.642,4.642,0,0,0,4.637,129.6Z" transform="translate(0 -34.019)"/><path class="c" d="M419.2,129.6a4.637,4.637,0,1,0,4.637,4.637A4.642,4.642,0,0,0,419.2,129.6Z" transform="translate(-375.108 -34.019)"/><path class="b" d="M110.183,365.113H79.107a1.435,1.435,0,0,1-1.435-1.435V359.4h33.946v4.28A1.435,1.435,0,0,1,110.183,365.113Z" transform="translate(-70.279 -241.947)"/><path class="c" d="M256,365.113h15.538a1.435,1.435,0,0,0,1.435-1.435V359.4H256Z" transform="translate(-231.638 -241.947)"/></g></svg>