<svg xmlns="http://www.w3.org/2000/svg" width="76.179" height="76.178" viewBox="0 0 76.179 76.178"><defs><style>.a{fill:#ff7038;}.b{fill:#ffde46;}.c{fill:#ff9d21;}.d{fill:#f5f0eb;}.e{fill:#ebe1dc;}.f{fill:#ffef7b;}.g{fill:#beda4b;}.h{fill:#14cd6e;}.i{fill:#ff4169;}.j{fill:#cf3160;}</style></defs><g transform="translate(0)"><path class="a" d="M397,197l2.976,46.868a2.23,2.23,0,0,0,.784-.142l.225-.052a17.885,17.885,0,0,0,7.477-3.481c3.749-3.081,5.649-7.6,5.649-13.435V197Z" transform="translate(-337.932 -167.689)"/><path class="b" d="M0,197v23.806a2.232,2.232,0,0,0,1.5,2.108l59.812,20.83a2.226,2.226,0,0,0,.734.124h0V197Z" transform="translate(0 -167.689)"/><path class="c" d="M237,234.672l26.047,9.071a2.225,2.225,0,0,0,.734.124h0V197H237Z" transform="translate(-201.738 -167.689)"/><path class="d" d="M0,260.619l62.044,21.607V277.5L0,255.893Z" transform="translate(0 -217.82)"/><path class="e" d="M237,343.156l26.782,9.327v-4.727L237,338.43Z" transform="translate(-201.738 -288.076)"/><path class="f" d="M63.177,42.309a2.232,2.232,0,0,0-1.87-.184C58.29,43.181,46.636,47.237,34.3,51.531c-14.042,4.887-28.562,9.94-32.8,11.424A2.232,2.232,0,0,0,1.5,67.17L40.47,80.742v11.1a5.208,5.208,0,1,0,10.415,0V84.369L61.307,88a2.231,2.231,0,0,0,1.87-.184c.531-.313,13-7.833,13-22.753,0-.616-.148-15.178-13-22.753Z" transform="translate(0 -35.751)"/><path class="b" d="M264.915,42.309a2.232,2.232,0,0,0-1.87-.184c-2.938,1.028-14.068,4.9-26.044,9.07V78.928l5.208,1.814v11.1a5.208,5.208,0,0,0,10.415,0V84.369L263.044,88a2.231,2.231,0,0,0,1.87-.184c.531-.313,13-7.833,13-22.753,0-.616-.148-15.178-13-22.753Z" transform="translate(-201.738 -35.751)"/><g transform="translate(49.771 17.32)"><circle class="c" cx="2.5" cy="2.5" r="2.5" transform="translate(8.979 -0.495)"/><circle class="c" cx="2.5" cy="2.5" r="2.5" transform="translate(11.979 9.505)"/><circle class="c" cx="2" cy="2" r="2" transform="translate(4.979 19.505)"/><ellipse class="c" cx="2.5" cy="2" rx="2.5" ry="2" transform="translate(-0.021 9.505)"/></g><path class="g" d="M190.181,13.392a2.232,2.232,0,0,1-2.232-2.232,7.358,7.358,0,0,0-4.089-6.617l-.628-.314a2.232,2.232,0,1,1,2-3.992l.628.314a11.8,11.8,0,0,1,6.557,10.609,2.232,2.232,0,0,1-2.232,2.232Z" transform="translate(-154.918 -0.001)"/><path class="h" d="M237,37.509a2.232,2.232,0,0,0,2.232-2.232A11.824,11.824,0,0,0,237,28.334Z" transform="translate(-201.738 -24.118)"/><path class="i" d="M181.671,79.342a9.671,9.671,0,1,1,9.671-9.671A9.682,9.682,0,0,1,181.671,79.342Z" transform="translate(-146.409 -51.073)"/><path class="j" d="M246.671,69.671A9.682,9.682,0,0,0,237,60V79.342A9.682,9.682,0,0,0,246.671,69.671Z" transform="translate(-201.738 -51.073)"/></g></svg>