<svg xmlns="http://www.w3.org/2000/svg" width="84.019" height="84.019" viewBox="0 0 84.019 84.019"><defs><style>.a{fill:#e6455a;}.b{fill:#b32437;}.c{fill:#cc7029;}.d{fill:#994a0f;}.e{fill:#e68945;}.f{fill:#463f3f;}.g{fill:#352c2c;}.h{fill:#fff7cc;}.i{fill:#ffe6b3;}.j{fill:#766e6e;}.k{fill:#5b5555;}</style></defs><path class="a" d="M180.769,286H166a14.769,14.769,0,0,0,29.538,0Z" transform="translate(-138.759 -239.068)"/><path class="b" d="M270.769,286H256v14.769A14.785,14.785,0,0,0,270.769,286Z" transform="translate(-213.99 -239.068)"/><path class="c" d="M24.779,79.423l-9.846-5.217C5.784,83.414,0,96.6,0,108.961V136.2a9.987,9.987,0,0,0,10.01,9.846,9.846,9.846,0,0,0,9.846-9.846V113.884l4.923-4.308Z" transform="translate(0 -62.029)"/><path class="d" d="M370.846,74.206,361,79.423v29.538l4.923,4.923V136.2a9.846,9.846,0,0,0,9.846,9.846,9.987,9.987,0,0,0,10.01-9.846V108.961C385.779,96.6,379.995,83.414,370.846,74.206Z" transform="translate(-301.76 -62.029)"/><path class="c" d="M269.437,2.554l-3.52,19.29,20.526,28.069v-.846c0-5.437,1.154-9.654,2.375-14.12,1.252-4.582,2.548-9.32,2.548-15.418V14.312C285.623,8.532,277.956,3.857,269.437,2.554Z" transform="translate(-222.28 -2.135)"/><path class="e" d="M112.9,2.576C104.377,3.887,96.7,8.594,91,14.33v5.217c0,6.1,1.3,10.836,2.548,15.418,1.221,4.466,2.375,8.683,2.375,14.12l20.5-26.935Z" transform="translate(-76.067 -2.153)"/><ellipse class="f" cx="2" cy="2.5" rx="2" ry="2.5" transform="translate(24.521 19.036)"/><ellipse class="g" cx="3" cy="2.5" rx="3" ry="2.5" transform="translate(53.521 19.036)"/><path class="h" d="M155.446,28.68v0a12.693,12.693,0,0,1-5.743-8.969L148.3.419a31.852,31.852,0,0,0-10.322,0s-.827,13.967-1.4,19.575A11.668,11.668,0,0,1,131,28.51a21.954,21.954,0,0,0-10,18.423v4.923a12.322,12.322,0,0,0,12.307,12.307,2.463,2.463,0,0,0,2.286-1.548l3.094-7.733a4.767,4.767,0,0,1,2-2.317l2.461-3.171,2.461,3.171a4.765,4.765,0,0,1,2,2.315l3.094,7.735A2.462,2.462,0,0,0,153,64.163a12.322,12.322,0,0,0,12.307-12.307V47.779a23.223,23.223,0,0,0-9.86-19.1Z" transform="translate(-101.144 0)"/><path class="i" d="M260.466,54.879l3.094,7.735a2.462,2.462,0,0,0,2.286,1.548,12.322,12.322,0,0,0,12.307-12.307V47.779a23.222,23.222,0,0,0-9.86-19.1v0a12.694,12.694,0,0,1-5.743-8.969l-1.4-19.29A33.961,33.961,0,0,0,256,0V49.394l2.462,3.171a4.765,4.765,0,0,1,2,2.315Z" transform="translate(-213.99 0)"/><path class="j" d="M243.461,241A2.46,2.46,0,0,0,241,243.461v10.555a4.625,4.625,0,0,1,4.923,0V243.461A2.46,2.46,0,0,0,243.461,241Z" transform="translate(-201.452 -201.452)"/><path class="k" d="M258.461,243.461A2.46,2.46,0,0,0,256,241v12.307a4.773,4.773,0,0,1,2.462.709Z" transform="translate(-213.99 -201.452)"/><g transform="translate(34.625 32.164)"><path class="f" d="M219.615,196.008h-2.461c-3.914-.058-6.154.942-6.154,4.92a7.384,7.384,0,1,0,14.769,0C225.769,196.924,223.529,195.984,219.615,196.008Z" transform="translate(-211 -196.006)"/><path class="g" d="M263.384,200.937c0-4-2.24-4.944-6.154-4.92H256v12.3A7.393,7.393,0,0,0,263.384,200.937Z" transform="translate(-248.615 -196.015)"/></g></svg>