<svg xmlns="http://www.w3.org/2000/svg" xmlns:xlink="http://www.w3.org/1999/xlink" width="2520.546" height="688.771" viewBox="0 0 2520.546 688.771"><defs><style>.a,.b{fill:#e4f3ff;}.b,.f{fill-rule:evenodd;}.c{clip-path:url(#a);}.d{clip-path:url(#b);}.e,.f{fill:#c8e2f6;}.f{opacity:0.35;}</style><clipPath id="a"><rect class="a" width="1920" height="327" transform="translate(0 0.374)"/></clipPath><clipPath id="b"><rect class="a" width="899.955" height="90.289"/></clipPath></defs><g transform="translate(0 0)"><path class="b" d="M435.063,421.966c-18.774,0-34.138,17.818-34.138,39.593h0c0,39.734-28.027,72.246-62.283,72.246H-80.109c-44.5,0-80.911-42.234-80.911-93.851h0c0-51.618,36.411-93.849,80.911-93.849h2.127c8.932,0,16.237-8.479,16.237-18.836h0c0-10.357-7.3-18.835-16.237-18.835h-8.931c-21.709,0-39.472-20.6-39.472-45.784h0c0-25.153,17.722-45.739,39.4-45.784h38.515c18.774,0,34.137-17.819,34.137-39.6h0c0-39.735,28.028-72.246,62.283-72.246H366.227c44.5,0,80.909,42.234,80.909,93.851h0c0,51.616-36.409,93.85-80.909,93.85h0c-8.933,0-16.24,8.479-16.24,18.836h0c0,10.357,7.307,18.831,16.24,18.831h68.836C486.711,330.394,486.714,421.966,435.063,421.966Z" transform="translate(1429.127 154.966)"/><g transform="translate(0 0)"><g class="c" transform="translate(570.427 74.21)"><path class="a" d="M507.59-38.423C518.307-26.1,587.187-9.189,650.453-6.678,935.8,4.646,917.588,51.144,1063.633,98.281c122.35,34.952,281.311,22.047,344.216-19.466C1856.3-146.828,391.344-219.576,507.59-38.423Z" transform="translate(868.498 16.447)"/><g transform="translate(510 413.136)"><g class="d" transform="translate(0 0)"><path class="b" d="M374.089,714.853H331.624c-22.855,0-41.554,5.335-41.554,11.855h0c0,6.52,18.7,11.855,41.554,11.855H690.692c37.009,0,67.288-8.638,67.288-19.2h0c0-10.558-30.279-19.2-67.287-19.2h0c-15.648,0-28.45-3.652-28.45-8.116h0c0-4.464,12.8-8.117,28.451-8.117h34.24c16.269,0,29.58-3.8,29.58-8.439h0c0-4.641-13.311-8.439-29.58-8.439h-43.3c-6.333,0-11.516-1.479-11.516-3.285h0c0-1.807,5.183-3.285,11.516-3.285h7.633c4.371,0,7.947-1.021,7.947-2.267h0c0-1.247-3.576-2.267-7.947-2.267H639.184c-10.548,0-11.722,3.555-38.366,3.555H524.05c-5.7,0-10.371,1.332-10.371,2.958h0c0,1.627,4.667,2.958,10.371,2.958h9.959c8.265,0,15.027,1.929,15.027,4.287h0c0,2.358-6.762,4.287-15.027,4.287H519.021c-40.474,0-46.19,3.017-53.279,9.019s-43.9,6.486-43.9,6.486H371.5c-12.455,0-22.645,2.907-22.645,6.46h0c0,3.553,10.19,6.46,22.645,6.46h2.592c11.979,0,21.781,2.8,21.781,6.214h0c0,3.417-9.8,6.214-21.781,6.214Zm337.482-54.364c-4.39,0-7.948-1.015-7.948-2.267s3.558-2.267,7.948-2.267,7.948,1.015,7.948,2.267S715.96,660.489,711.571,660.489Z" transform="translate(354.517 -648.68)"/><path class="b" d="M-641.36,700.353h-42.465c-22.856,0-41.554,5.335-41.554,11.855h0c0,6.52,18.7,11.855,41.554,11.855h359.068c37.009,0,67.288-8.638,67.288-19.2h0c0-10.558-30.279-19.2-67.287-19.2h0c-15.648,0-28.45-3.653-28.45-8.117h0c0-4.464,12.8-8.117,28.451-8.117h34.24c16.269,0,29.579-3.8,29.579-8.438h0c0-4.641-13.31-8.439-29.579-8.439h-43.3c-6.334,0-11.516-1.478-11.516-3.285h0c0-1.807,5.182-3.285,11.516-3.285h7.633c4.37,0,7.947-1.02,7.947-2.267h0c0-1.247-3.577-2.267-7.947-2.267h-50.084c-10.548,0-11.723,3.555-38.366,3.555H-491.4c-5.705,0-10.371,1.332-10.371,2.959h0c0,1.627,4.667,2.959,10.371,2.959h9.959c8.265,0,15.027,1.929,15.027,4.287h0c0,2.358-6.762,4.287-15.027,4.287h-14.988c-40.474,0-46.191,3.017-53.279,9.019S-593.612,675-593.612,675h-50.34c-12.455,0-22.645,2.907-22.645,6.46h0c0,3.553,10.19,6.46,22.645,6.46h2.592c11.979,0,21.78,2.8,21.78,6.214h0c0,3.417-9.8,6.214-21.78,6.214Zm337.482-54.364c-4.39,0-7.948-1.015-7.948-2.267s3.558-2.267,7.948-2.267,7.948,1.015,7.948,2.267S-299.49,645.989-303.878,645.989Z" transform="translate(354.517 -638.316)"/><path class="b" d="M-99.207,420.292l-41.365-.4-1.075-.01c-22.843-.221-40.9-5.734-40.12-12.251h0c.776-6.517,20.1-11.667,42.941-11.445l121.243,1.175,20.881.2,216.737,2.1c36.988.359,66.222,9.285,64.965,19.837h0c-1.256,10.552-32.546,18.892-69.533,18.533h0c-15.639-.152-28.868,3.375-29.4,7.836h0c-.531,4.462,11.829,8.236,27.468,8.388l34.221.332c16.259.158,29.11,4.082,28.558,8.72h0c-.553,4.639-14.307,8.3-30.567,8.147l-43.273-.419c-6.33-.061-11.685,1.366-11.9,3.172h0c-.215,1.806,4.788,3.334,11.118,3.395l7.629.074c4.368.042,7.821,1.1,7.672,2.343h0c-.148,1.246-3.844,2.232-8.212,2.189l-28.59-.277-21.465-.208c-10.542-.1-11.293-3.667-37.921-3.924l-76.723-.744C38.38,477,33.875,475.625,34.069,474h0c.193-1.626,5.016-2.912,10.717-2.856l9.953.1c8.26.08,15.247-1.783,15.528-4.139h0c.281-2.356-6.248-4.35-14.508-4.43l-14.979-.145c-40.45-.392-45.8-3.463-52.175-9.53S-54.5,446.088-54.5,446.088l-50.311-.488c-12.447-.121-22.286-3.125-21.863-6.676h0c.423-3.551,10.953-6.358,23.4-6.237l2.59.025c11.973.116,22.1-2.584,22.508-6h0c.407-3.416-9.056-6.305-21.029-6.421Zm330.818,57.6c-4.387-.043-8.065.938-8.214,2.189s3.287,2.3,7.674,2.343,8.064-.938,8.213-2.189S236,477.936,231.611,477.893Z" transform="translate(354.517 -463.014)"/></g></g></g><path class="b" d="M850.33,345.5h94.061c50.624,0,92.043,31.294,92.043,69.54h0c0,38.247-41.419,69.54-92.043,69.54H149.045C67.069,484.576,0,433.9,0,371.972H0c0-61.934,67.069-112.605,149.043-112.605h0c34.661,0,63.018-21.424,63.018-47.61h0c0-26.187-28.359-47.612-63.02-47.612H73.2c-36.036,0-65.52-22.276-65.52-49.5h0c0-27.226,29.484-49.5,65.52-49.5h95.906c14.028,0,25.508-8.674,25.508-19.272h0c0-10.6-11.48-19.27-25.508-19.27H152.2c-9.682,0-17.6-5.986-17.6-13.3h0c0-7.315,7.921-13.3,17.6-13.3H263.137C286.5,0,289.1,20.853,348.118,20.853H518.162c12.635,0,22.972,7.812,22.972,17.354v0c0,9.544-10.337,17.354-22.972,17.354H496.1c-18.307,0-33.285,11.318-33.285,25.146v0c0,13.83,14.978,25.147,33.285,25.147h33.2c89.651,0,102.312,17.7,118.015,52.905s97.251,38.045,97.251,38.045h111.5c27.588,0,50.159,17.053,50.159,37.894h0c0,20.842-22.571,37.894-50.159,37.894H850.33c-26.534,0-48.245,16.4-48.245,36.45h0c0,20.047,21.712,36.449,48.245,36.449ZM102.8,26.6c9.724,0,17.6-5.956,17.6-13.3S112.521,0,102.8,0,85.192,5.956,85.192,13.3,93.075,26.6,102.8,26.6Z" transform="translate(0 0)"/></g></g><g transform="translate(559.297 52.332)"><g transform="translate(26.016)"><path class="e" d="M295.151,124.732a2.266,2.266,0,1,1-2.266-2.268A2.267,2.267,0,0,1,295.151,124.732Z" transform="translate(-290.619 -122.464)"/><path class="e" d="M307.009,124.732a2.266,2.266,0,1,1-2.266-2.268A2.267,2.267,0,0,1,307.009,124.732Z" transform="translate(-272.118 -122.464)"/><circle class="e" cx="2.266" cy="2.266" r="2.266" transform="translate(60.72 0.001)"/><path class="e" d="M330.725,124.732a2.266,2.266,0,1,1-2.266-2.268A2.267,2.267,0,0,1,330.725,124.732Z" transform="translate(-235.114 -122.464)"/><path class="e" d="M295.151,136.316a2.266,2.266,0,1,1-2.266-2.266A2.265,2.265,0,0,1,295.151,136.316Z" transform="translate(-290.619 -104.387)"/><path class="e" d="M307.009,136.316a2.266,2.266,0,1,1-2.266-2.266A2.265,2.265,0,0,1,307.009,136.316Z" transform="translate(-272.118 -104.387)"/><path class="e" d="M318.868,136.316a2.266,2.266,0,1,1-2.266-2.266A2.265,2.265,0,0,1,318.868,136.316Z" transform="translate(-253.615 -104.387)"/><path class="e" d="M330.725,136.316a2.266,2.266,0,1,1-2.266-2.266A2.265,2.265,0,0,1,330.725,136.316Z" transform="translate(-235.114 -104.387)"/><path class="e" d="M295.151,147.9a2.266,2.266,0,1,1-2.266-2.266A2.265,2.265,0,0,1,295.151,147.9Z" transform="translate(-290.619 -86.311)"/><path class="e" d="M307.009,147.9a2.266,2.266,0,1,1-2.266-2.266A2.265,2.265,0,0,1,307.009,147.9Z" transform="translate(-272.118 -86.311)"/><circle class="e" cx="2.266" cy="2.266" r="2.266" transform="translate(60.72 59.326)"/><path class="e" d="M330.725,147.9a2.266,2.266,0,1,1-2.266-2.266A2.265,2.265,0,0,1,330.725,147.9Z" transform="translate(-235.114 -86.311)"/><path class="e" d="M295.151,159.808a2.266,2.266,0,1,1-2.266-2.266A2.267,2.267,0,0,1,295.151,159.808Z" transform="translate(-290.619 -67.735)"/><path class="e" d="M307.009,159.808a2.266,2.266,0,1,1-2.266-2.266A2.267,2.267,0,0,1,307.009,159.808Z" transform="translate(-272.118 -67.735)"/><circle class="e" cx="2.266" cy="2.266" r="2.266" transform="translate(60.72 89.806)"/><path class="e" d="M330.725,159.808a2.266,2.266,0,1,1-2.266-2.266A2.267,2.267,0,0,1,330.725,159.808Z" transform="translate(-235.114 -67.735)"/><path class="e" d="M295.151,171.393a2.266,2.266,0,1,1-2.266-2.266A2.267,2.267,0,0,1,295.151,171.393Z" transform="translate(-290.619 -49.66)"/><path class="e" d="M307.009,171.393a2.266,2.266,0,1,1-2.266-2.266A2.267,2.267,0,0,1,307.009,171.393Z" transform="translate(-272.118 -49.66)"/><circle class="e" cx="2.266" cy="2.266" r="2.266" transform="translate(60.72 119.468)"/><path class="e" d="M330.725,171.393a2.266,2.266,0,1,1-2.266-2.266A2.267,2.267,0,0,1,330.725,171.393Z" transform="translate(-235.114 -49.66)"/><path class="e" d="M295.151,182.979a2.266,2.266,0,1,1-2.266-2.266A2.265,2.265,0,0,1,295.151,182.979Z" transform="translate(-290.619 -31.583)"/><path class="e" d="M307.009,182.979a2.266,2.266,0,1,1-2.266-2.266A2.265,2.265,0,0,1,307.009,182.979Z" transform="translate(-272.118 -31.583)"/><circle class="e" cx="2.266" cy="2.266" r="2.266" transform="translate(60.72 149.13)"/><path class="e" d="M330.725,182.979a2.266,2.266,0,1,1-2.266-2.266A2.265,2.265,0,0,1,330.725,182.979Z" transform="translate(-235.114 -31.583)"/><circle class="e" cx="2.266" cy="2.266" r="2.266" transform="translate(122.96 0.001)"/><circle class="e" cx="2.266" cy="2.266" r="2.266" transform="translate(153.32 0.001)"/><path class="e" d="M366.895,124.732a2.266,2.266,0,1,1-2.266-2.268A2.267,2.267,0,0,1,366.895,124.732Z" transform="translate(-178.683 -122.464)"/><path class="e" d="M378.755,124.732a2.267,2.267,0,1,1-2.268-2.268A2.269,2.269,0,0,1,378.755,124.732Z" transform="translate(-160.182 -122.464)"/><path class="e" d="M343.177,136.316a2.266,2.266,0,1,1-2.266-2.266A2.265,2.265,0,0,1,343.177,136.316Z" transform="translate(-215.687 -104.387)"/><path class="e" d="M355.037,136.316a2.266,2.266,0,1,1-2.266-2.266A2.265,2.265,0,0,1,355.037,136.316Z" transform="translate(-197.184 -104.387)"/><path class="e" d="M366.895,136.316a2.266,2.266,0,1,1-2.266-2.266A2.265,2.265,0,0,1,366.895,136.316Z" transform="translate(-178.683 -104.387)"/><path class="e" d="M378.755,136.316a2.267,2.267,0,1,1-2.268-2.266A2.267,2.267,0,0,1,378.755,136.316Z" transform="translate(-160.182 -104.387)"/><circle class="e" cx="2.266" cy="2.266" r="2.266" transform="translate(122.96 59.326)"/><circle class="e" cx="2.266" cy="2.266" r="2.266" transform="translate(153.32 59.326)"/><path class="e" d="M366.895,147.9a2.266,2.266,0,1,1-2.266-2.266A2.265,2.265,0,0,1,366.895,147.9Z" transform="translate(-178.683 -86.311)"/><path class="e" d="M378.755,147.9a2.267,2.267,0,1,1-2.268-2.266A2.267,2.267,0,0,1,378.755,147.9Z" transform="translate(-160.182 -86.311)"/><circle class="e" cx="2.266" cy="2.266" r="2.266" transform="translate(122.96 89.806)"/><circle class="e" cx="2.266" cy="2.266" r="2.266" transform="translate(153.32 89.806)"/><path class="e" d="M366.895,159.808a2.266,2.266,0,1,1-2.266-2.266A2.267,2.267,0,0,1,366.895,159.808Z" transform="translate(-178.683 -67.735)"/><path class="e" d="M378.755,159.808a2.267,2.267,0,1,1-2.268-2.266A2.269,2.269,0,0,1,378.755,159.808Z" transform="translate(-160.182 -67.735)"/><circle class="e" cx="2.266" cy="2.266" r="2.266" transform="translate(122.96 119.468)"/><circle class="e" cx="2.266" cy="2.266" r="2.266" transform="translate(153.32 119.468)"/><path class="e" d="M366.895,171.393a2.266,2.266,0,1,1-2.266-2.266A2.267,2.267,0,0,1,366.895,171.393Z" transform="translate(-178.683 -49.66)"/><path class="e" d="M378.755,171.393a2.267,2.267,0,1,1-2.268-2.266A2.269,2.269,0,0,1,378.755,171.393Z" transform="translate(-160.182 -49.66)"/><circle class="e" cx="2.266" cy="2.266" r="2.266" transform="translate(122.96 149.13)"/><circle class="e" cx="2.266" cy="2.266" r="2.266" transform="translate(153.32 149.13)"/><path class="e" d="M366.895,182.979a2.266,2.266,0,1,1-2.266-2.266A2.265,2.265,0,0,1,366.895,182.979Z" transform="translate(-178.683 -31.583)"/><path class="e" d="M378.755,182.979a2.267,2.267,0,1,1-2.268-2.266A2.267,2.267,0,0,1,378.755,182.979Z" transform="translate(-160.182 -31.583)"/><path class="e" d="M391.205,124.732a2.266,2.266,0,1,1-2.266-2.268A2.267,2.267,0,0,1,391.205,124.732Z" transform="translate(-140.753 -122.464)"/><path class="e" d="M403.064,124.732a2.266,2.266,0,1,1-2.266-2.268A2.267,2.267,0,0,1,403.064,124.732Z" transform="translate(-122.252 -122.464)"/><circle class="e" cx="2.266" cy="2.266" r="2.266" transform="translate(306.64 0.001)"/><path class="e" d="M391.205,136.316a2.266,2.266,0,1,1-2.266-2.266A2.265,2.265,0,0,1,391.205,136.316Z" transform="translate(-140.753 -104.387)"/><path class="e" d="M403.064,136.316a2.266,2.266,0,1,1-2.266-2.266A2.265,2.265,0,0,1,403.064,136.316Z" transform="translate(-122.252 -104.387)"/><path class="e" d="M414.924,136.316a2.267,2.267,0,1,1-2.268-2.266A2.267,2.267,0,0,1,414.924,136.316Z" transform="translate(-103.751 -104.387)"/><path class="e" d="M391.205,147.9a2.266,2.266,0,1,1-2.266-2.266A2.265,2.265,0,0,1,391.205,147.9Z" transform="translate(-140.753 -86.311)"/><path class="e" d="M403.064,147.9a2.266,2.266,0,1,1-2.266-2.266A2.265,2.265,0,0,1,403.064,147.9Z" transform="translate(-122.252 -86.311)"/><circle class="e" cx="2.266" cy="2.266" r="2.266" transform="translate(306.64 59.326)"/><path class="e" d="M391.205,159.808a2.266,2.266,0,1,1-2.266-2.266A2.267,2.267,0,0,1,391.205,159.808Z" transform="translate(-140.753 -67.735)"/><path class="e" d="M403.064,159.808a2.266,2.266,0,1,1-2.266-2.266A2.267,2.267,0,0,1,403.064,159.808Z" transform="translate(-122.252 -67.735)"/><circle class="e" cx="2.266" cy="2.266" r="2.266" transform="translate(306.64 89.806)"/><path class="e" d="M391.205,171.393a2.266,2.266,0,1,1-2.266-2.266A2.267,2.267,0,0,1,391.205,171.393Z" transform="translate(-140.753 -49.66)"/><path class="e" d="M403.064,171.393a2.266,2.266,0,1,1-2.266-2.266A2.267,2.267,0,0,1,403.064,171.393Z" transform="translate(-122.252 -49.66)"/><circle class="e" cx="2.266" cy="2.266" r="2.266" transform="translate(306.64 119.468)"/><path class="e" d="M391.205,182.979a2.266,2.266,0,1,1-2.266-2.266A2.265,2.265,0,0,1,391.205,182.979Z" transform="translate(-140.753 -31.583)"/><path class="e" d="M403.064,182.979a2.266,2.266,0,1,1-2.266-2.266A2.265,2.265,0,0,1,403.064,182.979Z" transform="translate(-122.252 -31.583)"/><circle class="e" cx="2.266" cy="2.266" r="2.266" transform="translate(306.64 149.13)"/></g><g transform="translate(1516.06 278.653)"><path class="e" d="M558.818,377.364a2.266,2.266,0,1,1-2.266-2.266A2.268,2.268,0,0,1,558.818,377.364Z" transform="translate(-554.286 -375.097)"/><circle class="e" cx="2.266" cy="2.266" r="2.266" transform="translate(30.358)"/><circle class="e" cx="2.266" cy="2.266" r="2.266" transform="translate(60.718)"/><circle class="e" cx="2.266" cy="2.266" r="2.266" transform="translate(91.079)"/><path class="e" d="M558.818,388.949a2.266,2.266,0,1,1-2.266-2.266A2.269,2.269,0,0,1,558.818,388.949Z" transform="translate(-554.286 -357.022)"/><circle class="e" cx="2.266" cy="2.266" r="2.266" transform="translate(30.358 29.662)"/><circle class="e" cx="2.266" cy="2.266" r="2.266" transform="translate(60.718 29.662)"/><circle class="e" cx="2.266" cy="2.266" r="2.266" transform="translate(91.079 29.662)"/><path class="e" d="M558.818,400.535a2.266,2.266,0,1,1-2.266-2.266A2.269,2.269,0,0,1,558.818,400.535Z" transform="translate(-554.286 -338.945)"/><circle class="e" cx="2.266" cy="2.266" r="2.266" transform="translate(30.358 59.324)"/><circle class="e" cx="2.266" cy="2.266" r="2.266" transform="translate(60.718 59.324)"/><circle class="e" cx="2.266" cy="2.266" r="2.266" transform="translate(91.079 59.324)"/><path class="e" d="M558.818,412.441a2.266,2.266,0,1,1-2.266-2.266A2.267,2.267,0,0,1,558.818,412.441Z" transform="translate(-554.286 -320.369)"/><circle class="e" cx="2.266" cy="2.266" r="2.266" transform="translate(30.358 89.805)"/><circle class="e" cx="2.266" cy="2.266" r="2.266" transform="translate(60.718 89.805)"/><circle class="e" cx="2.266" cy="2.266" r="2.266" transform="translate(91.079 89.805)"/><path class="e" d="M558.818,424.027a2.266,2.266,0,1,1-2.266-2.266A2.268,2.268,0,0,1,558.818,424.027Z" transform="translate(-554.286 -302.293)"/><circle class="e" cx="2.266" cy="2.266" r="2.266" transform="translate(30.358 119.467)"/><circle class="e" cx="2.266" cy="2.266" r="2.266" transform="translate(60.718 119.467)"/><circle class="e" cx="2.266" cy="2.266" r="2.266" transform="translate(91.079 119.467)"/><path class="e" d="M558.818,435.612a2.266,2.266,0,1,1-2.266-2.266A2.269,2.269,0,0,1,558.818,435.612Z" transform="translate(-554.286 -284.218)"/><circle class="e" cx="2.266" cy="2.266" r="2.266" transform="translate(30.358 149.129)"/><circle class="e" cx="2.266" cy="2.266" r="2.266" transform="translate(60.718 149.129)"/><circle class="e" cx="2.266" cy="2.266" r="2.266" transform="translate(91.079 149.129)"/><circle class="e" cx="2.266" cy="2.266" r="2.266" transform="translate(122.959)"/><path class="e" d="M618.7,377.364a2.266,2.266,0,1,1-2.266-2.266A2.267,2.267,0,0,1,618.7,377.364Z" transform="translate(-460.853 -375.097)"/><circle class="e" cx="2.266" cy="2.266" r="2.266" transform="translate(183.679)"/><circle class="e" cx="2.266" cy="2.266" r="2.266" transform="translate(214.039)"/><circle class="e" cx="2.266" cy="2.266" r="2.266" transform="translate(122.959 29.662)"/><path class="e" d="M618.7,388.949a2.266,2.266,0,1,1-2.266-2.266A2.267,2.267,0,0,1,618.7,388.949Z" transform="translate(-460.853 -357.022)"/><circle class="e" cx="2.266" cy="2.266" r="2.266" transform="translate(183.679 29.662)"/><circle class="e" cx="2.266" cy="2.266" r="2.266" transform="translate(214.039 29.662)"/><circle class="e" cx="2.266" cy="2.266" r="2.266" transform="translate(122.959 59.324)"/><path class="e" d="M618.7,400.535a2.266,2.266,0,1,1-2.266-2.266A2.267,2.267,0,0,1,618.7,400.535Z" transform="translate(-460.853 -338.945)"/><circle class="e" cx="2.266" cy="2.266" r="2.266" transform="translate(183.679 59.324)"/><circle class="e" cx="2.266" cy="2.266" r="2.266" transform="translate(214.039 59.324)"/><circle class="e" cx="2.266" cy="2.266" r="2.266" transform="translate(122.959 89.805)"/><path class="e" d="M618.7,412.441a2.266,2.266,0,1,1-2.266-2.266A2.265,2.265,0,0,1,618.7,412.441Z" transform="translate(-460.853 -320.369)"/><circle class="e" cx="2.266" cy="2.266" r="2.266" transform="translate(183.679 89.805)"/><circle class="e" cx="2.266" cy="2.266" r="2.266" transform="translate(214.039 89.805)"/><circle class="e" cx="2.266" cy="2.266" r="2.266" transform="translate(122.959 119.467)"/><path class="e" d="M618.7,424.027a2.266,2.266,0,1,1-2.266-2.266A2.267,2.267,0,0,1,618.7,424.027Z" transform="translate(-460.853 -302.293)"/><circle class="e" cx="2.266" cy="2.266" r="2.266" transform="translate(183.679 119.467)"/><circle class="e" cx="2.266" cy="2.266" r="2.266" transform="translate(214.039 119.467)"/><circle class="e" cx="2.266" cy="2.266" r="2.266" transform="translate(122.959 149.129)"/><path class="e" d="M618.7,435.612a2.266,2.266,0,1,1-2.266-2.266A2.267,2.267,0,0,1,618.7,435.612Z" transform="translate(-460.853 -284.218)"/><circle class="e" cx="2.266" cy="2.266" r="2.266" transform="translate(183.679 149.129)"/><circle class="e" cx="2.266" cy="2.266" r="2.266" transform="translate(214.039 149.129)"/><circle class="e" cx="2.266" cy="2.266" r="2.266" transform="translate(245.919)"/><circle class="e" cx="2.266" cy="2.266" r="2.266" transform="translate(276.279)"/><circle class="e" cx="2.266" cy="2.266" r="2.266" transform="translate(306.639)"/><circle class="e" cx="2.266" cy="2.266" r="2.266" transform="translate(245.919 29.662)"/><circle class="e" cx="2.266" cy="2.266" r="2.266" transform="translate(276.279 29.662)"/><circle class="e" cx="2.266" cy="2.266" r="2.266" transform="translate(306.639 29.662)"/><circle class="e" cx="2.266" cy="2.266" r="2.266" transform="translate(245.919 59.324)"/><circle class="e" cx="2.266" cy="2.266" r="2.266" transform="translate(276.279 59.324)"/><circle class="e" cx="2.266" cy="2.266" r="2.266" transform="translate(306.639 59.324)"/><circle class="e" cx="2.266" cy="2.266" r="2.266" transform="translate(245.919 89.805)"/><circle class="e" cx="2.266" cy="2.266" r="2.266" transform="translate(276.279 89.805)"/><circle class="e" cx="2.266" cy="2.266" r="2.266" transform="translate(306.639 89.805)"/><circle class="e" cx="2.266" cy="2.266" r="2.266" transform="translate(245.919 119.467)"/><circle class="e" cx="2.266" cy="2.266" r="2.266" transform="translate(276.279 119.467)"/><circle class="e" cx="2.266" cy="2.266" r="2.266" transform="translate(306.639 119.467)"/><circle class="e" cx="2.266" cy="2.266" r="2.266" transform="translate(245.919 149.129)"/><circle class="e" cx="2.266" cy="2.266" r="2.266" transform="translate(276.279 149.129)"/><circle class="e" cx="2.266" cy="2.266" r="2.266" transform="translate(306.639 149.129)"/></g><g transform="translate(0 346.033)"><path class="e" d="M559.066,377.488a2.39,2.39,0,1,1-2.39-2.39A2.393,2.393,0,0,1,559.066,377.488Z" transform="translate(-554.286 -375.097)"/><circle class="e" cx="2.39" cy="2.39" r="2.39" transform="translate(32.023)"/><circle class="e" cx="2.39" cy="2.39" r="2.39" transform="translate(64.047)"/><circle class="e" cx="2.39" cy="2.39" r="2.39" transform="translate(96.072)"/><path class="e" d="M559.066,389.073a2.39,2.39,0,1,1-2.39-2.39A2.393,2.393,0,0,1,559.066,389.073Z" transform="translate(-554.286 -355.396)"/><circle class="e" cx="2.39" cy="2.39" r="2.39" transform="translate(32.023 31.288)"/><circle class="e" cx="2.39" cy="2.39" r="2.39" transform="translate(64.047 31.288)"/><circle class="e" cx="2.39" cy="2.39" r="2.39" transform="translate(96.072 31.288)"/><path class="e" d="M559.066,400.659a2.39,2.39,0,1,1-2.39-2.39A2.393,2.393,0,0,1,559.066,400.659Z" transform="translate(-554.286 -335.693)"/><circle class="e" cx="2.39" cy="2.39" r="2.39" transform="translate(32.023 62.577)"/><circle class="e" cx="2.39" cy="2.39" r="2.39" transform="translate(64.047 62.577)"/><circle class="e" cx="2.39" cy="2.39" r="2.39" transform="translate(96.072 62.577)"/><path class="e" d="M559.066,412.565a2.39,2.39,0,1,1-2.39-2.39A2.391,2.391,0,0,1,559.066,412.565Z" transform="translate(-554.286 -315.446)"/><circle class="e" cx="2.39" cy="2.39" r="2.39" transform="translate(32.023 94.728)"/><circle class="e" cx="2.39" cy="2.39" r="2.39" transform="translate(64.047 94.728)"/><circle class="e" cx="2.39" cy="2.39" r="2.39" transform="translate(96.072 94.728)"/><path class="e" d="M559.066,424.151a2.39,2.39,0,1,1-2.39-2.39A2.393,2.393,0,0,1,559.066,424.151Z" transform="translate(-554.286 -295.743)"/><circle class="e" cx="2.39" cy="2.39" r="2.39" transform="translate(32.023 126.017)"/><circle class="e" cx="2.39" cy="2.39" r="2.39" transform="translate(64.047 126.017)"/><circle class="e" cx="2.39" cy="2.39" r="2.39" transform="translate(96.072 126.017)"/><path class="e" d="M559.066,435.736a2.39,2.39,0,1,1-2.39-2.39A2.393,2.393,0,0,1,559.066,435.736Z" transform="translate(-554.286 -276.042)"/><circle class="e" cx="2.39" cy="2.39" r="2.39" transform="translate(32.023 157.305)"/><circle class="e" cx="2.39" cy="2.39" r="2.39" transform="translate(64.047 157.305)"/><circle class="e" cx="2.39" cy="2.39" r="2.39" transform="translate(96.072 157.305)"/><circle class="e" cx="2.39" cy="2.39" r="2.39" transform="translate(129.7)"/><path class="e" d="M618.951,377.488a2.39,2.39,0,1,1-2.39-2.39A2.391,2.391,0,0,1,618.951,377.488Z" transform="translate(-452.447 -375.097)"/><circle class="e" cx="2.39" cy="2.39" r="2.39" transform="translate(193.749)"/><circle class="e" cx="2.39" cy="2.39" r="2.39" transform="translate(225.773)"/><circle class="e" cx="2.39" cy="2.39" r="2.39" transform="translate(129.7 31.288)"/><path class="e" d="M618.951,389.073a2.39,2.39,0,1,1-2.39-2.39A2.391,2.391,0,0,1,618.951,389.073Z" transform="translate(-452.447 -355.396)"/><circle class="e" cx="2.39" cy="2.39" r="2.39" transform="translate(193.749 31.288)"/><circle class="e" cx="2.39" cy="2.39" r="2.39" transform="translate(225.773 31.288)"/><circle class="e" cx="2.39" cy="2.39" r="2.39" transform="translate(129.7 62.577)"/><path class="e" d="M618.951,400.659a2.39,2.39,0,1,1-2.39-2.39A2.391,2.391,0,0,1,618.951,400.659Z" transform="translate(-452.447 -335.693)"/><circle class="e" cx="2.39" cy="2.39" r="2.39" transform="translate(193.749 62.577)"/><circle class="e" cx="2.39" cy="2.39" r="2.39" transform="translate(225.773 62.577)"/><circle class="e" cx="2.39" cy="2.39" r="2.39" transform="translate(129.7 94.728)"/><path class="e" d="M618.951,412.565a2.39,2.39,0,1,1-2.39-2.39A2.389,2.389,0,0,1,618.951,412.565Z" transform="translate(-452.447 -315.446)"/><circle class="e" cx="2.39" cy="2.39" r="2.39" transform="translate(193.749 94.728)"/><circle class="e" cx="2.39" cy="2.39" r="2.39" transform="translate(225.773 94.728)"/><circle class="e" cx="2.39" cy="2.39" r="2.39" transform="translate(129.7 126.017)"/><path class="e" d="M618.951,424.151a2.39,2.39,0,1,1-2.39-2.39A2.391,2.391,0,0,1,618.951,424.151Z" transform="translate(-452.447 -295.743)"/><circle class="e" cx="2.39" cy="2.39" r="2.39" transform="translate(193.749 126.017)"/><circle class="e" cx="2.39" cy="2.39" r="2.39" transform="translate(225.773 126.017)"/><circle class="e" cx="2.39" cy="2.39" r="2.39" transform="translate(129.7 157.305)"/><path class="e" d="M618.951,435.736a2.39,2.39,0,1,1-2.39-2.39A2.391,2.391,0,0,1,618.951,435.736Z" transform="translate(-452.447 -276.042)"/><circle class="e" cx="2.39" cy="2.39" r="2.39" transform="translate(193.749 157.305)"/><circle class="e" cx="2.39" cy="2.39" r="2.39" transform="translate(225.773 157.305)"/><circle class="e" cx="2.39" cy="2.39" r="2.39" transform="translate(259.401)"/><circle class="e" cx="2.39" cy="2.39" r="2.39" transform="translate(291.426)"/><circle class="e" cx="2.39" cy="2.39" r="2.39" transform="translate(323.451)"/><circle class="e" cx="2.39" cy="2.39" r="2.39" transform="translate(259.401 31.288)"/><circle class="e" cx="2.39" cy="2.39" r="2.39" transform="translate(291.426 31.288)"/><circle class="e" cx="2.39" cy="2.39" r="2.39" transform="translate(323.451 31.288)"/><circle class="e" cx="2.39" cy="2.39" r="2.39" transform="translate(259.401 62.577)"/><circle class="e" cx="2.39" cy="2.39" r="2.39" transform="translate(291.426 62.577)"/><circle class="e" cx="2.39" cy="2.39" r="2.39" transform="translate(323.451 62.577)"/><circle class="e" cx="2.39" cy="2.39" r="2.39" transform="translate(259.401 94.728)"/><circle class="e" cx="2.39" cy="2.39" r="2.39" transform="translate(291.426 94.728)"/><circle class="e" cx="2.39" cy="2.39" r="2.39" transform="translate(323.451 94.728)"/><circle class="e" cx="2.39" cy="2.39" r="2.39" transform="translate(259.401 126.017)"/><circle class="e" cx="2.39" cy="2.39" r="2.39" transform="translate(291.426 126.017)"/><circle class="e" cx="2.39" cy="2.39" r="2.39" transform="translate(323.451 126.017)"/><circle class="e" cx="2.39" cy="2.39" r="2.39" transform="translate(259.401 157.305)"/><circle class="e" cx="2.39" cy="2.39" r="2.39" transform="translate(291.426 157.305)"/><circle class="e" cx="2.39" cy="2.39" r="2.39" transform="translate(323.451 157.305)"/></g><path class="f" d="M494.773,511.318a2.908,2.908,0,1,1,5.816,0V524.4a2.908,2.908,0,1,1-5.816,0V511.318ZM474.94,521.943a2.91,2.91,0,1,1,4.113-4.117l9.254,9.254a2.909,2.909,0,0,1-4.113,4.116l-9.254-9.253Zm-6.51,21.539a2.911,2.911,0,1,1,0-5.823h13.086a2.912,2.912,0,0,1,0,5.823Zm10.623,19.832a2.909,2.909,0,1,1-4.113-4.116l9.254-9.254a2.909,2.909,0,0,1,4.113,4.114l-9.254,9.256Zm21.536,6.508a2.908,2.908,0,0,1-5.816,0V556.731a2.908,2.908,0,1,1,5.816,0v13.091ZM520.422,559.2a2.91,2.91,0,1,1-4.116,4.116l-9.255-9.256a2.91,2.91,0,0,1,4.116-4.114l9.255,9.254Zm6.51-21.539a2.911,2.911,0,0,1,0,5.823H513.844a2.911,2.911,0,0,1,0-5.823Zm-10.626-19.833a2.911,2.911,0,0,1,4.116,4.117l-9.255,9.253a2.91,2.91,0,0,1-4.116-4.116Z" transform="translate(1036.406 -482.036)"/><path class="f" d="M494.773,511.318a2.908,2.908,0,1,1,5.816,0V524.4a2.908,2.908,0,1,1-5.816,0V511.318ZM474.94,521.943a2.91,2.91,0,1,1,4.113-4.117l9.254,9.254a2.909,2.909,0,0,1-4.113,4.116l-9.254-9.253Zm-6.51,21.539a2.911,2.911,0,1,1,0-5.823h13.086a2.912,2.912,0,0,1,0,5.823Zm10.623,19.832a2.909,2.909,0,1,1-4.113-4.116l9.254-9.254a2.909,2.909,0,0,1,4.113,4.114l-9.254,9.256Zm21.536,6.508a2.908,2.908,0,0,1-5.816,0V556.731a2.908,2.908,0,1,1,5.816,0v13.091ZM520.422,559.2a2.91,2.91,0,1,1-4.116,4.116l-9.255-9.256a2.91,2.91,0,0,1,4.116-4.114l9.255,9.254Zm6.51-21.539a2.911,2.911,0,0,1,0,5.823H513.844a2.911,2.911,0,0,1,0-5.823Zm-10.626-19.833a2.911,2.911,0,0,1,4.116,4.117l-9.255,9.253a2.91,2.91,0,0,1-4.116-4.116Z" transform="translate(200.406 -201.579)"/><path class="f" d="M494.773,511.318a2.908,2.908,0,1,1,5.816,0V524.4a2.908,2.908,0,1,1-5.816,0V511.318ZM474.94,521.943a2.91,2.91,0,1,1,4.113-4.117l9.254,9.254a2.909,2.909,0,0,1-4.113,4.116l-9.254-9.253Zm-6.51,21.539a2.911,2.911,0,1,1,0-5.823h13.086a2.912,2.912,0,0,1,0,5.823Zm10.623,19.832a2.909,2.909,0,1,1-4.113-4.116l9.254-9.254a2.909,2.909,0,0,1,4.113,4.114l-9.254,9.256Zm21.536,6.508a2.908,2.908,0,0,1-5.816,0V556.731a2.908,2.908,0,1,1,5.816,0v13.091ZM520.422,559.2a2.91,2.91,0,1,1-4.116,4.116l-9.255-9.256a2.91,2.91,0,0,1,4.116-4.114l9.255,9.254Zm6.51-21.539a2.911,2.911,0,0,1,0,5.823H513.844a2.911,2.911,0,0,1,0-5.823Zm-10.626-19.833a2.911,2.911,0,0,1,4.116,4.117l-9.255,9.253a2.91,2.91,0,0,1-4.116-4.116Z" transform="translate(-315.594 63.626)"/><path class="f" d="M494.773,511.318a2.908,2.908,0,1,1,5.816,0V524.4a2.908,2.908,0,1,1-5.816,0V511.318ZM474.94,521.943a2.91,2.91,0,1,1,4.113-4.117l9.254,9.254a2.909,2.909,0,0,1-4.113,4.116l-9.254-9.253Zm-6.51,21.539a2.911,2.911,0,1,1,0-5.823h13.086a2.912,2.912,0,0,1,0,5.823Zm10.623,19.832a2.909,2.909,0,1,1-4.113-4.116l9.254-9.254a2.909,2.909,0,0,1,4.113,4.114l-9.254,9.256Zm21.536,6.508a2.908,2.908,0,0,1-5.816,0V556.731a2.908,2.908,0,1,1,5.816,0v13.091ZM520.422,559.2a2.91,2.91,0,1,1-4.116,4.116l-9.255-9.256a2.91,2.91,0,0,1,4.116-4.114l9.255,9.254Zm6.51-21.539a2.911,2.911,0,0,1,0,5.823H513.844a2.911,2.911,0,0,1,0-5.823Zm-10.626-19.833a2.911,2.911,0,0,1,4.116,4.117l-9.255,9.253a2.91,2.91,0,0,1-4.116-4.116Z" transform="translate(1431.406 -257.98)"/></g></svg>