<svg xmlns="http://www.w3.org/2000/svg" width="559.858" height="718.859" viewBox="0 0 559.858 718.859"><defs><style>.a,.o{fill:none;}.a,.c{stroke:#000;stroke-miterlimit:10;}.b{fill:#2383c3;}.c{fill:#dbdbdb;}.d{fill:#333;}.e{fill:#ebebeb;}.f{fill:#dd6a57;}.g{fill:#24669a;}.h{fill:#263238;}.i{fill:#d3766a;}.j{fill:#ffc727;}.k{opacity:0.1;}.l{isolation:isolate;}.m{fill:#ff6e4a;}.n{opacity:0.4;}.o{stroke:#f7a9a0;stroke-linecap:round;stroke-linejoin:round;stroke-width:0;}.p{fill:#f7a9a0;}.q{fill:#fff;}</style></defs><g transform="translate(-93.222 -33.209)"><g transform="translate(0 336.267)"><g transform="translate(93.222 28.385)"><path class="a" d="M69.843,500.833l64.541-50.339,94.023-8.057,83.856,22.226L385.368,401.2l102.4-14.712,76.56-51.508,35.409-80.78" transform="translate(-55.507 -245.316)"/><circle class="b" cx="8.907" cy="8.907" r="8.907" transform="translate(0 246.215)"/><circle class="b" cx="8.907" cy="8.907" r="8.907" transform="translate(69.551 196.271)"/><path class="b" d="M184.837,378.683a8.907,8.907,0,1,1-8.907-8.907A8.907,8.907,0,0,1,184.837,378.683Z" transform="translate(-3.03 -182.906)"/><circle class="b" cx="8.907" cy="8.907" r="8.907" transform="translate(247.431 210.645)"/><circle class="c" cx="8.907" cy="8.907" r="8.907" transform="translate(320.954 147.986)"/><circle class="b" cx="8.907" cy="8.907" r="8.907" transform="translate(423.357 131.508)"/><circle class="b" cx="8.907" cy="8.907" r="8.907" transform="translate(499.988 80.988)"/><circle class="b" cx="8.907" cy="8.907" r="8.907" transform="translate(535.745)"/></g></g><g transform="translate(116.92 534.302)"><path class="d" d="M75.922,576.359h536.16L566.4,504.631l-34.436-20.922L475.792,358.594H357.914l-13.069,23.612-8.894.572-24.2,31.207H186.039L159.573,450.6,130.59,469.735Z" transform="translate(-75.922 -358.594)"/><path class="e" d="M475,422.146h-.015l-36.321-32.664-28.044,32.93-24.253-32.93-42.258,71.99-25.1-43.339-19.545,38.408-15.1-14.437-22.64,54.163-31.064-52.86L213.763,467.47l-19.338-24.387-35.788,34.8-28.4-27.289,26.474-36.6H282.422l24.194-31.212,8.9-.578,13.074-23.6H446.466Z" transform="translate(-46.591 -358.592)"/><path d="M347.918,437.7l8.535,43.359,38.484,20.143Z" transform="translate(70.956 -315.874)"/><path d="M117.265,513.5l28.989-28.678,3.841-28.166Z" transform="translate(-53.597 -305.638)"/><path d="M198.627,529.567l42.949-98.862.725,72.263Z" transform="translate(-9.661 -319.653)"/><path d="M330.626,414.352l20.826,46.887-17.4-21.7Z" transform="translate(61.618 -328.484)"/></g><g transform="translate(239.193 33.209)"><g transform="translate(0 208.843)"><g transform="translate(77.391)"><g transform="translate(72.88 203.59)"><path class="f" d="M353.367,393.362c-3.208,1.036-94.687-.149-98.138-2.41-1.327-.835-1.931-14.174-2.2-30.313,0-.169,0-.337,0-.505-.063-3.326-.106-6.751-.111-10.223,0-.477,0-.956-.017-1.432l4.438-47.457,61.195.613-6.04,47.012-.069,1.862-.37,9.731-.035,1s34.812,16.116,38.348,19C353.872,383.113,356.578,392.341,353.367,393.362Z" transform="translate(-252.899 -301.022)"/><path class="e" d="M353.367,376.721c-3.208,1.036-94.687-.149-98.138-2.41-1.327-.835-1.931-14.174-2.2-30.313,0-.169,0-.337,0-.505-.063-3.326-.106-6.751-.111-10.223,0-.477,0-.956-.017-1.432l59.593.168-.069,1.862-.37,9.731-.035,1s34.812,16.116,38.348,19C353.872,366.473,356.578,375.7,353.367,376.721Z" transform="translate(-252.899 -284.381)"/><g transform="translate(0.126 58.964)"><path class="g" d="M353.332,372.633c-1.652.533-26.5.476-50.8-.014-4.883-.1-9.74-.209-14.371-.336-17.325-.476-31.641-1.189-32.97-2.057-1.315-.825-1.917-13.8-2.184-29.639,0-.223-.014-.448-.014-.671,0-.168,0-.35-.014-.517h.069l58.957.111-.028,1.009s34.816,16.107,38.343,18.99S356.537,371.612,353.332,372.633Z" transform="translate(-252.981 -339.263)"/><g transform="translate(6.33)"><path class="h" d="M350.114,359.042c-15.415-.577-77.647-1.457-92.93-.858-.123.006-.125.089,0,.1,15.266.907,77.5,1.281,92.927,1.013C350.436,359.29,350.439,359.054,350.114,359.042Z" transform="translate(-257.092 -329.227)"/><path class="h" d="M301.972,339.816c-6.054-1.21-13.487-.376-18.18,3.887-.182.166.055.422.253.362a85.319,85.319,0,0,1,17.893-3.482A.388.388,0,0,0,301.972,339.816Z" transform="translate(-242.708 -339.31)"/><path class="h" d="M304.794,341.568c-6.054-1.212-13.487-.376-18.18,3.887-.182.166.055.422.253.362a85.315,85.315,0,0,1,17.893-3.482A.388.388,0,0,0,304.794,341.568Z" transform="translate(-241.184 -338.365)"/><path class="h" d="M307.616,343.319c-6.054-1.212-13.487-.376-18.18,3.887-.182.165.055.422.253.362a85.314,85.314,0,0,1,17.893-3.482A.388.388,0,0,0,307.616,343.319Z" transform="translate(-239.66 -337.42)"/></g></g></g><path class="d" d="M341.624,431.838H269.835s15.589-141.7,15.07-144.39c-.265-1.384-13.167-20.879-28.505-43.674-8.578-12.764-17.912-26.547-26.211-38.791-13.714-20.208-24.615-36.161-24.615-36.161h70.292s9.46,11.419,21.859,27.581c17.548,22.9,40.989,55.291,51.722,78.212C357.786,292.415,341.624,431.838,341.624,431.838Z" transform="translate(-205.574 -168.821)"/><g transform="translate(73.933 36.059)"><path d="M308.236,271.449c-1.334-7.888-5.276-14.806-9.174-21.655-8.082-14.2-25.278-39.924-35.38-52.662q-1.929-2.432-3.875-4.853c-.088-.108-.271.008-.183.122,9.9,12.776,26.748,38,34.842,51.94,3.986,6.862,8.448,13.791,11.014,21.354,2.706,7.98,2.319,16.461,1.9,24.757q-1.3,25.678-3.1,51.33-1.823,25.925-4.175,51.81-.289,3.172-.579,6.345c-.063.682.605.748.673.055,1.655-17.191,3.479-34.226,4.768-51.45q1.943-26,3.35-52.03C308.762,288.216,309.631,279.7,308.236,271.449Z" transform="translate(-250.333 -192.236)"/><g transform="translate(0 215.231)"><path d="M312.781,332.476c-10.062-.211-7.172-.293-17.234-.39-4.925-.048-37.286-.328-41.888.433a.107.107,0,0,0,0,.2c4.6.762,36.963.48,41.888.433,10.062-.1,7.172-.179,17.234-.388A.146.146,0,0,0,312.781,332.476Z" transform="translate(-253.583 -331.997)"/></g></g><path d="M279,277.778c-18.389-28.379-73.427-108.957-73.427-108.957h36.832Z" transform="translate(-205.574 -168.821)"/></g><g transform="translate(0 262.604)"><path class="f" d="M156.783,432.821c3.22,1,94.682-1.12,98.11-3.414,1.317-.849,1.785-14.194,1.886-30.335l0-.505c.029-3.326,7.678-59.224,7.678-59.224l-59.786,1.22-6.915,58.714.046,1s-34.645,16.47-38.152,19.392C156.173,422.577,153.563,431.832,156.783,432.821Z" transform="translate(-155.32 -339.343)"/><path class="e" d="M156.783,416.147c3.22,1,94.682-1.12,98.11-3.414,1.317-.849,1.785-14.194,1.886-30.335l0-.505s1.331-11.2,1.341-11.673l-59.028,1.044L197.756,382.6l.046,1S163.157,400.074,159.65,403C156.173,405.9,153.563,415.159,156.783,416.147Z" transform="translate(-155.32 -322.669)"/><g transform="translate(0 59.224)"><path class="g" d="M156.783,412.054c3.22,1,94.682-1.12,98.11-3.414,1.317-.849,1.785-14.194,1.886-30.335l0-.505-59.022.71.046,1s-34.645,16.47-38.152,19.392C156.173,401.81,153.563,411.066,156.783,412.054Z" transform="translate(-155.32 -377.8)"/><g transform="translate(2.175 0.47)"><path class="h" d="M156.974,398.388c15.409-.738,77.628-2.253,92.916-1.81.123,0,.126.088,0,.1-15.257,1.064-77.487,2.074-92.913,1.965C156.653,398.637,156.649,398.4,156.974,398.388Z" transform="translate(-156.732 -368.173)"/><path class="h" d="M178.722,378.666c6.04-1.274,13.483-.514,18.218,3.7.183.163-.051.422-.249.365a85.376,85.376,0,0,0-17.927-3.3A.388.388,0,0,1,178.722,378.666Z" transform="translate(-145.024 -378.105)"/><path class="h" d="M175.918,380.446c6.04-1.274,13.483-.514,18.218,3.7.185.163-.051.422-.249.365a85.277,85.277,0,0,0-17.927-3.3A.388.388,0,0,1,175.918,380.446Z" transform="translate(-146.538 -377.144)"/><path class="h" d="M173.114,382.226c6.041-1.274,13.483-.514,18.218,3.7.185.163-.051.422-.248.363a85.3,85.3,0,0,0-17.929-3.3A.388.388,0,0,1,173.114,382.226Z" transform="translate(-148.052 -376.183)"/></g></g></g><g transform="translate(39.085)"><path class="d" d="M289.3,168.821s-8.425,51.344-9,52.994c0,0-3.131,1.485-8.783,4.095L246.57,492.156l-65.87.266,36.712-323.6Z" transform="translate(-180.7 -168.821)"/><g transform="translate(4.416 21.883)"><path d="M242.764,371.291c-10.062-.168-7.173-.262-17.236-.316-4.925-.026-37.288-.171-41.885.611a.107.107,0,0,0,0,.2c4.6.742,36.965.323,41.888.254,10.064-.14,7.173-.209,17.234-.462A.146.146,0,0,0,242.764,371.291Z" transform="translate(-183.567 -81.555)"/><path d="M223.264,193.1c-2.566,36.68-3.659,53.028-6.654,89.676-3,36.774-6.582,73.512-11.019,110.142-2.479,20.465-5.167,49.282-8.136,69.682-.02.137.188.194.211.054,6.137-36.253,10.467-81.2,14.176-117.773s6.657-73.225,9.26-109.887c1.472-20.739,1.234-21.158,2.621-41.9C223.742,192.792,223.284,192.8,223.264,193.1Z" transform="translate(-176.069 -177.717)"/><g transform="translate(78.982 29.485)"><path d="M253.8,202.213a122.269,122.269,0,0,0-18.831,9.862.218.218,0,0,0,.2.388c6.356-3.088,12.844-6.06,19.019-9.493A.425.425,0,0,0,253.8,202.213Z" transform="translate(-234.854 -202.177)"/></g><path d="M249.058,183.136c-1.036,6.145-1.612,12.385-2.3,18.575-.166,1.486-.343,2.971-.505,4.457a8.668,8.668,0,0,1-1.066,3.907c-1.34,2.07-3.731,3.042-5.9,3.989-.251.109-.151.505.126.419,2.2-.69,4.639-1.6,6.262-3.313,1.974-2.091,1.911-5.253,2.218-7.942a171.832,171.832,0,0,0,1.446-20.062C249.338,183.01,249.085,182.974,249.058,183.136Z" transform="translate(-153.557 -183.031)"/><path d="M241.39,184.362c-.216,4.424-.712,8.852-1.08,13.267-.183,2.179-.336,4.363-.47,6.545-.137,2.219-.394,4.492-.323,6.714.006.149.243.186.27.029.363-2.1.414-4.287.588-6.413q.275-3.354.46-6.717c.249-4.472.371-8.971.773-13.432C241.621,184.217,241.4,184.22,241.39,184.362Z" transform="translate(-153.361 -182.37)"/></g></g><path class="h" d="M299.879,196.4l-26.995,3.43-40.541,5.15-30.758,3.9,4.548-40.065H278.02S287.48,180.24,299.879,196.4Z" transform="translate(-130.337 -168.821)"/></g><g transform="translate(10.41)"><g transform="translate(0 8.669)"><g transform="translate(4.69)"><path class="f" d="M245.887,155.636c-27.571,6.312-64.739,2.67-74.071-8.934-8.749-10.88-8.813-59.65-.8-82.467,1.746-4.971,38.509,7.021,37.479,12.559-2.412,12.97-6.742,42.25-2.707,47.266,3.593,4.468,25.07,10.39,45.007,14.6C274.994,143.765,256.873,153.12,245.887,155.636Z" transform="translate(-165.126 -25.761)"/><g transform="translate(4.078)"><path class="i" d="M173.583,54.08c-4.229,7.728-6.7,26.918-5.513,31.776S201.739,96,205.49,92.494s15.978-30.626,14.417-39.479S177.966,46.072,173.583,54.08Z" transform="translate(-167.773 -34.336)"/><g transform="translate(5.81)"><path class="i" d="M217.535,71.617c-4.038,2.344-4.489-3.756-4.489-3.756s-1.465,8.937-6.562,9.744c-4.914.765-5.2-6.622-5.227-7.15-.083.471-1.643,8.649-6.848,8.932-5.41.29-4.423-7.175-4.358-7.657-.217.422-3.18,5.946-7.184,5.264-6.878-1.178.311-15.514-1.694-20.8,0,0-9.34,2.375-9.627,2.387,0,0,6.56-13.78,13.837-16.085a4.874,4.874,0,0,1,5.726,2.121s1.625-4.677,5.715-5.03c2.1-.176,4.25,3.028,4.25,3.028s1.457-3.69,5.116-3.776c2.918-.079,4.62,3.146,4.62,3.146s3.045-2.894,6.052-2.005C222.934,41.759,226.174,66.589,217.535,71.617Z" transform="translate(-171.546 -38.838)"/><g transform="translate(18.021 3.532)"><path class="h" d="M197.269,41.217a.066.066,0,0,1,.125-.042c3.058,7.9,4,17.528,1.823,25.775-.072.269-.542.271-.521-.042A88.97,88.97,0,0,0,197.269,41.217Z" transform="translate(-175.677 -41.131)"/><path class="h" d="M190.756,41.239c-.02-.1.137-.131.174-.032,3.108,8.162,3.865,19.031.242,28.241-.125.316-.553.474-.437.1C192.68,63.241,192.486,49.147,190.756,41.239Z" transform="translate(-179.215 -41.122)"/><path class="h" d="M183.257,70.179c3.134-8.966,3.078-18.033,1.683-27.338-.018-.122.156-.134.2-.037,1.922,4.366,2.195,10.389,2.008,15.1a25.025,25.025,0,0,1-3.576,12.389C183.481,70.437,183.191,70.37,183.257,70.179Z" transform="translate(-183.248 -40.263)"/></g><path class="h" d="M210.309,61.774a28.383,28.383,0,0,1-1.771,4.91,9.543,9.543,0,0,1-3.065,3.938,3.147,3.147,0,0,1-2.2.5,4.573,4.573,0,0,1-2.122-.927,5.583,5.583,0,0,1-1.783-4.181l-.1-3.825-1.24,3.628a15.675,15.675,0,0,1-2.355,4.492,5.593,5.593,0,0,1-3.881,2.432,3.2,3.2,0,0,1-3.428-2.111,9.664,9.664,0,0,1-.313-4.84l.7-4.48L186.639,65.3a14.682,14.682,0,0,1-2.165,3.068,6.051,6.051,0,0,1-2.935,1.9,2.885,2.885,0,0,1-2.887-.946,6.381,6.381,0,0,1-.944-3.439,50.131,50.131,0,0,1,.621-7.837c.162-1.317.325-2.64.425-3.972a9.471,9.471,0,0,0-.317-3.967,10.154,10.154,0,0,1-.049,3.927c-.2,1.306-.46,2.6-.722,3.905a42.728,42.728,0,0,0-1.05,7.973,7.452,7.452,0,0,0,1,4.16,4.089,4.089,0,0,0,4.206,1.56,7.431,7.431,0,0,0,3.707-2.264,16.092,16.092,0,0,0,2.461-3.382l-1.417-.493a11.109,11.109,0,0,0,.313,5.721,4.633,4.633,0,0,0,1.994,2.424,5.24,5.24,0,0,0,3.035.634,7.071,7.071,0,0,0,4.914-3.078,16.944,16.944,0,0,0,2.513-4.983l-1.335-.2a6.659,6.659,0,0,0,2.476,5.053,5.609,5.609,0,0,0,2.684,1.009,4.051,4.051,0,0,0,2.774-.758,9.792,9.792,0,0,0,3.021-4.451A23.376,23.376,0,0,0,210.309,61.774Z" transform="translate(-168.809 -32.752)"/></g><g transform="translate(28.837 19.665)"><path class="i" d="M197.946,85.591s29.4-23.08,14.752-30.152c-4.354-2.1-24.742-5.536-25.51-1.454-.993,5.27,7.25,8.291,12.725,9.368,0,0-11.106,6.442-8.927,15.511A9.266,9.266,0,0,0,197.946,85.591Z" transform="translate(-186.172 -51.352)"/><path class="h" d="M214.207,56.361a19.528,19.528,0,0,0-5.2-2.33,42.54,42.54,0,0,0-5.562-1.331,65.577,65.577,0,0,0-11.411-1.09,10.716,10.716,0,0,0-3.012.411,4.037,4.037,0,0,0-1.521.836,2.88,2.88,0,0,0-.607.742,3.024,3.024,0,0,0-.314.895,4.808,4.808,0,0,0,.614,3.277,8.951,8.951,0,0,0,2.081,2.325,17.3,17.3,0,0,0,5.242,2.717,39.316,39.316,0,0,0,5.593,1.445l-.189-1.227a23.055,23.055,0,0,0-3.474,2.677,21.343,21.343,0,0,0-2.888,3.257,14.717,14.717,0,0,0-1.956,3.875,11.191,11.191,0,0,0-.564,4.246A12.628,12.628,0,0,1,192.034,73a15.282,15.282,0,0,1,2.193-3.533,20.4,20.4,0,0,1,2.931-2.948,21.984,21.984,0,0,1,3.4-2.333l1.492-.813-1.682-.413a41.77,41.77,0,0,1-5.342-1.56,16.853,16.853,0,0,1-4.762-2.533c-1.326-1.073-2.424-2.63-2.138-4.064.142-1.28,2.191-1.62,3.962-1.694a53.89,53.89,0,0,1,5.586.111c1.88.106,3.756.237,5.621.464C207,54.2,210.789,54.708,214.207,56.361Z" transform="translate(-186.499 -51.608)"/></g></g></g><g transform="translate(0 52.532)"><path class="j" d="M256.574,134.033c-11.872-3.733-44.863-9.607-47.806-16.095s1.571-38.488,1.571-38.488l-47.606-6.5s-4.523,54.4,10.273,70.566,55.18,12.8,71.008,9.4S276.324,140.243,256.574,134.033Z" transform="translate(-162.079 -72.95)"/><path class="g" d="M162.73,72.952s-4.518,54.4,10.272,70.558a20.294,20.294,0,0,0,2.1,2.01c16.193,13.86,58.746,14.109,73.88,10.863,10.119-2.176,15.52-10.213,16.541-14.859.591-2.613-1.819-5.253-8.952-7.491-11.867-3.727-44.862-9.6-47.8-16.095s1.568-38.488,1.568-38.488Z" transform="translate(-162.08 -72.949)"/><g transform="translate(0 0.616)"><g class="k"><path d="M229.571,115.966v6.7a19.924,19.924,0,0,1-2.033,3.234,16,16,0,0,1-1.078,1.294V113.81A10.818,10.818,0,0,1,229.571,115.966Z" transform="translate(-127.315 -51.502)"/><path d="M223.63,112.68v19.6c-.431.277-.878.524-1.34.77V112.28C222.752,112.4,223.2,112.542,223.63,112.68Z" transform="translate(-129.567 -52.328)"/><path d="M220.081,111.675V135.73c-.246.062-.493.123-.739.169-.724.154-1.525.308-2.372.447V110.89C218.048,111.167,219.08,111.414,220.081,111.675Z" transform="translate(-132.439 -53.078)"/><path d="M214.15,110.209v27.35H214c-.385.031-.785.077-1.186.108v-27.8C213.257,109.993,213.7,110.1,214.15,110.209Z" transform="translate(-134.686 -53.629)"/><path d="M210.6,109.331v29.4c-1.016.046-2.048.077-3.111.092V108.53c.693.185,1.4.37,2.094.539C209.923,109.161,210.262,109.238,210.6,109.331Z" transform="translate(-137.559 -54.353)"/><path d="M204.67,107.765v31.724c-.447.015-.893,0-1.34,0V107.38C203.761,107.519,204.223,107.642,204.67,107.765Z" transform="translate(-139.805 -54.974)"/><path d="M201.121,106.749v33.526c-1.032-.046-2.064-.092-3.111-.169V105.64C199,106.01,200.027,106.379,201.121,106.749Z" transform="translate(-142.678 -55.913)"/><path d="M193.84,103.63a13.4,13.4,0,0,0,1.34.816V140.79l-1.34-.139Z" transform="translate(-144.93 -56.999)"/><path d="M191.641,76.931V154.67c-1.047-.139-2.079-.308-3.111-.477V76.5Z" transform="translate(-147.797 -71.649)"/><path d="M185.7,76.115v77.416c-.447-.092-.893-.2-1.34-.308V75.93Z" transform="translate(-150.049 -71.957)"/><path d="M182.161,75.626v76.661c-1.063-.308-2.094-.647-3.111-1V75.21Z" transform="translate(-152.916 -72.346)"/><path d="M176.22,74.825v74.736c-.462-.2-.909-.416-1.34-.631V74.64Z" transform="translate(-155.168 -72.653)"/><path d="M172.671,74.341v71.9c-.554-.385-1.093-.816-1.6-1.247a14.384,14.384,0,0,1-1.509-1.386V73.91Z" transform="translate(-158.041 -73.048)"/><path d="M166.74,73.519v62.616c-.231-.539-.462-1.078-.678-1.648-.185-.447-.354-.893-.493-1.34a2.954,2.954,0,0,1-.169-.477V73.35Z" transform="translate(-160.287 -73.35)"/><path d="M162.111,82.41v8.023c-.031-1.6-.031-3.157-.031-4.651,0-.447,0-.893.015-1.34C162.1,83.75,162.1,83.072,162.111,82.41Z" transform="translate(-162.08 -68.458)"/></g><g class="k" transform="translate(0 1.386)"><path d="M243.235,125.83a23.05,23.05,0,0,1-4.9,1.833c-.246.062-.493.123-.739.169-.724.154-1.525.308-2.372.447-1.509.246-3.219.462-5.067.647v.015h-27.72l-1.494-.139-1.34-.139c-1.694-.169-3.388-.385-5.067-.631-1.047-.139-2.079-.308-3.111-.477q-2.587-.439-5.082-.97c-.447-.092-.893-.2-1.34-.308-.616-.139-1.247-.293-1.848-.447Z" transform="translate(-150.697 -46.397)"/><path d="M256.558,121.66a15.994,15.994,0,0,1-1.078,1.294V123H175.015c-.8-.431-1.571-.862-2.295-1.34Z" transform="translate(-156.334 -48.649)"/><path d="M262.644,118.1a8.814,8.814,0,0,1-.4,1.355H169.581a21.407,21.407,0,0,1-2.171-3.111h95.172A3.243,3.243,0,0,1,262.644,118.1Z" transform="translate(-159.202 -51.521)"/><path d="M254.722,112.858c.678.216,1.324.431,1.925.662H166c-.185-.447-.354-.893-.493-1.34h86.918a5.194,5.194,0,0,1,.524.154c.462.123.909.262,1.34.4A3.519,3.519,0,0,1,254.722,112.858Z" transform="translate(-160.228 -53.768)"/><path d="M233.064,109.971h-68.3c-.277-1.016-.524-2.064-.755-3.111h57.873c.862.277,1.756.539,2.68.8.431.139.893.262,1.34.385,1.663.477,3.357.939,5.067,1.386C231.662,109.617,232.371,109.8,233.064,109.971Z" transform="translate(-161.038 -56.641)"/><path d="M210.22,104.04H163.45c-.077-.447-.139-.893-.2-1.34h45.43A8.011,8.011,0,0,0,210.22,104.04Z" transform="translate(-161.448 -58.887)"/><path d="M207.64,100.491H162.918c-.108-1.032-.216-2.064-.308-3.111H207.5C207.516,98.5,207.563,99.536,207.64,100.491Z" transform="translate(-161.794 -61.76)"/><path d="M207.792,93.21c-.031.447-.046.893-.062,1.34H162.377c-.031-.447-.046-.893-.077-1.34Z" transform="translate(-161.961 -64.012)"/><path d="M208.464,87.9c-.092,1.032-.185,2.064-.262,3.111H162.187c-.031-1.047-.062-2.094-.077-3.111Z" transform="translate(-162.064 -66.879)"/><path d="M209.1,83.73c-.031.431-.077.878-.123,1.34H162.08c0-.447,0-.893.015-1.34Z" transform="translate(-162.08 -69.131)"/><path d="M210.065,78.42c-.123.816-.262,1.879-.416,3.111H162.14c.031-1.093.062-2.141.092-3.111Z" transform="translate(-162.048 -71.998)"/><path d="M187.062,75.59h-24.7c.015-.493.046-.955.077-1.34h14.815l4.389.6,1.34.185Z" transform="translate(-161.929 -74.25)"/></g></g><g transform="translate(3.943 10.189)"><path class="h" d="M164.769,79.566c1.716-.006,3.43.316,5.136.47s3.414.38,5.119.611c3.279.444,6.556.933,9.825,1.443s6.542,1.026,9.811,1.545c3.379.536,6.847.919,10.175,1.723a.12.12,0,0,1-.031.237c-3.414-.169-6.847-.787-10.236-1.229q-5.015-.656-10.032-1.326c-3.342-.45-6.685-.919-10.018-1.434-1.64-.253-3.269-.524-4.9-.844s-3.313-.5-4.91-.978C164.578,79.745,164.652,79.566,164.769,79.566Z" transform="translate(-164.64 -79.566)"/></g></g></g><g transform="translate(110.186)"><g transform="translate(1.544)"><path class="i" d="M240.7,133.748c15.477,23.673,44.772,46.836,59.544,44.954,13.849-1.765,47.731-36.844,57.792-58.836,2.191-4.791-32.6-21.66-35.706-16.957-7.261,11.014-24.455,35.106-30.84,35.92-5.687.724-25.264-9.91-42.541-20.713C227.97,105,234.529,124.314,240.7,133.748Z" transform="translate(-234.632 3.987)"/><g transform="translate(58.269)"><g transform="translate(13.332 63.287)"><path class="i" d="M330.237,138.011c-3.938,3.052-32.534-12.987-33.286-18.047a20.083,20.083,0,0,1,.39-5.105l-.014-.009s-2.222-11.185-7.38-19.834c-4.32-7.273-11.567-17.576-7.743-20.045,5.566-3.616,16.295,8.31,22.036,15.532,1.89-4.646,3.952-8.468,5.969-10.255,6.7-5.932,36.985,20.613,35.439,29.582C344.155,118.477,334.176,134.959,330.237,138.011Z" transform="translate(-281.126 -74.304)"/></g><g transform="translate(0)"><g class="l" transform="translate(3.342)"><g transform="translate(47.965 5.549)"><path class="m" d="M332.918,87.319,305.785,42.88a8.03,8.03,0,0,0,1.726,2.008,9.456,9.456,0,0,0,2.543,1.506c7.092,2.871,20.382-.343,39.629-9.582l27.133,44.44c-19.247,9.238-32.537,12.452-39.627,9.582a9.481,9.481,0,0,1-2.544-1.506A8.1,8.1,0,0,1,332.918,87.319Z" transform="translate(-305.785 -36.812)"/><g class="k"><path d="M332.918,87.319,305.785,42.88a8.03,8.03,0,0,0,1.726,2.008,9.456,9.456,0,0,0,2.543,1.506c7.092,2.871,20.382-.343,39.629-9.582l27.133,44.44c-19.247,9.238-32.537,12.452-39.627,9.582a9.481,9.481,0,0,1-2.544-1.506A8.1,8.1,0,0,1,332.918,87.319Z" transform="translate(-305.785 -36.812)"/></g></g><g transform="translate(45.039 4.736)"><path class="j" d="M331.018,80.724a16.941,16.941,0,0,1,1.494,3.5,16.3,16.3,0,0,0,1.432,3.377l-27.133-44.44a16.3,16.3,0,0,1-1.432-3.377,17.1,17.1,0,0,0-1.494-3.5C312.025,49.616,322.879,67.392,331.018,80.724Z" transform="translate(-303.885 -36.284)"/><g class="n"><path d="M331.018,80.724a16.941,16.941,0,0,1,1.494,3.5,16.3,16.3,0,0,0,1.432,3.377l-27.133-44.44a16.3,16.3,0,0,1-1.432-3.377,17.1,17.1,0,0,0-1.494-3.5C312.025,49.616,322.879,67.392,331.018,80.724Z" transform="translate(-303.885 -36.284)"/></g></g><path class="m" d="M319.678,37.945l27.133,44.44a8.524,8.524,0,0,0-2.01-2.275,10.166,10.166,0,0,0-2.512-1.446c-7.364-2.983-20.682.594-40.516,10.88L274.639,45.1c19.834-10.286,33.152-13.863,40.517-10.88a10.223,10.223,0,0,1,2.512,1.446A8.546,8.546,0,0,1,319.678,37.945Z" transform="translate(-274.639 -33.209)"/></g><rect class="h" width="2.477" height="289.046" transform="translate(0 7.788) rotate(-31.385)"/></g><g transform="translate(33.013 55.967)"><path class="i" d="M294.664,94.014c1.692,4.332,5.829-.142,5.829-.142s-4.4,7.874-.932,11.667c3.356,3.645,8.162-1.936,8.512-2.33-.23.417-4.086,7.759-.2,11.21,4.036,3.584,7.9-2.847,8.148-3.263-.092.464-1.21,6.608,2.333,8.559,6.092,3.349,9.385-12.285,14.225-15.158,0,0,5.807,7.646,6.023,7.832,0,0,3.436-14.81-.805-21.123a4.855,4.855,0,0,0-5.778-1.9s1.636-4.652-1.334-7.466c-1.529-1.44-5.191-.277-5.191-.277s1.153-3.779-1.645-6.117c-2.225-1.873-5.555-.414-5.555-.414s-.576-4.144-3.471-5.319C308.982,67.392,291.05,84.736,294.664,94.014Z" transform="translate(-293.754 -69.551)"/><g transform="translate(6.468 5.57)"><path class="h" d="M315.611,73.288a.065.065,0,0,0-.071-.109c-7.289,4.264-13.991,11.182-17.413,18.959-.112.254.253.548.43.291A88.625,88.625,0,0,1,315.611,73.288Z" transform="translate(-298.106 -73.168)"/><path class="h" d="M320.807,77.363c.075-.062-.026-.188-.116-.134-7.487,4.435-14.821,12.436-17.71,21.863-.1.323.136.713.277.35C305.655,93.318,314.551,82.452,320.807,77.363Z" transform="translate(-295.487 -70.982)"/><path class="h" d="M308.488,104.934c3.12-8.932,8.789-15.965,15.651-22.353.089-.083-.037-.2-.131-.151-4.209,2.21-8.157,6.736-10.932,10.52a24.93,24.93,0,0,0-4.9,11.875C308.154,105,308.422,105.125,308.488,104.934Z" transform="translate(-292.67 -68.173)"/></g><path class="h" d="M299.134,85.365c-.134.308.46.166.336.477-.524,1.306-3.006,9.436-.5,11.142,2.013,1.361,5.239-.4,6.212-1.558l2.45-2.921-1.286,3.6a15.657,15.657,0,0,0-.952,4.963,5.579,5.579,0,0,0,1.515,4.3,3.186,3.186,0,0,0,3.982.482,9.641,9.641,0,0,0,3.248-3.579l2.235-3.925-.824,4.421a14.638,14.638,0,0,0-.216,3.734,6.038,6.038,0,0,0,1.107,3.3,2.871,2.871,0,0,0,2.837,1.055,6.355,6.355,0,0,0,2.871-2.094,49.991,49.991,0,0,0,4.378-6.494c.693-1.126,1.386-2.259,2.133-3.359a9.417,9.417,0,0,1,2.709-2.9,10.169,10.169,0,0,0-2.4,3.091c-.656,1.141-1.257,2.315-1.86,3.491a42.614,42.614,0,0,1-4.127,6.868,7.417,7.417,0,0,1-3.362,2.62,4.075,4.075,0,0,1-4.246-1.394,7.388,7.388,0,0,1-1.485-4.064,16.065,16.065,0,0,1,.179-4.163l1.411.5a11.061,11.061,0,0,1-3.793,4.264,4.618,4.618,0,0,1-3.058.651,5.225,5.225,0,0,1-2.76-1.389,7.041,7.041,0,0,1-1.92-5.449,16.962,16.962,0,0,1,1.132-5.442l1.164.675c-1.287,1.435-4.68,3.795-8.068,2.074C294.1,95.444,298.262,86.879,299.134,85.365Z" transform="translate(-292.55 -61.011)"/><path class="h" d="M300.645,86.839a9.342,9.342,0,0,1-2.536,1.311,2.156,2.156,0,0,1-2.151-.4,4.382,4.382,0,0,1-1.04-2.27c-.179-.919-.32-1.9-.427-2.909a7.41,7.41,0,0,0-.584,3.02,4.35,4.35,0,0,0,1.167,3.117,3.087,3.087,0,0,0,1.694.744,3.209,3.209,0,0,0,1.716-.365A5,5,0,0,0,300.645,86.839Z" transform="translate(-293.906 -62.518)"/></g></g></g><g transform="translate(0 112.516)"><path class="g" d="M246,113.5c11.14,5.549,38.976,24.206,45.6,21.575s25.57-28.809,25.57-28.809l38.8,28.347s-34.482,42.315-56.355,43.694-48.619-29.066-57.659-42.5S227.472,104.275,246,113.5Z" transform="translate(-233.628 -106.271)"/><g transform="translate(0 0.876)"><g class="k" transform="translate(3.558)"><path d="M313.761,125.188s-.524.647-1.478,1.771c-.154.185-.323.37-.493.585v-3.8Z" transform="translate(-194.981 -97.714)"/><path d="M308.97,121.686v13.229c-.431.477-.878.955-1.34,1.463V120.7Z" transform="translate(-197.227 -99.356)"/><path d="M305.421,119.084v24.748c-.477.477-.955.97-1.448,1.463q-.809.832-1.663,1.663V116.82Z" transform="translate(-200.1 -101.451)"/><path d="M299.49,114.75v38.7c-.447.416-.893.816-1.34,1.232v-40.9Z" transform="translate(-202.347 -103.092)"/><path d="M295.941,112.154v49.08c-.986.8-1.971,1.617-2.957,2.4a.6.6,0,0,0-.154.123V109.89Z" transform="translate(-205.219 -105.193)"/><path d="M288.706,106.871h-.046v-.031Z" transform="translate(-207.471 -106.84)"/><path d="M290,108.88v59.213c-.447.308-.893.616-1.34.909V108.88Z" transform="translate(-207.471 -105.738)"/><path d="M286.461,109.64v62.093c-.139.077-.262.154-.4.231q-1.294.716-2.587,1.34c-.046.015-.077.046-.123.062V113.552h.108C284.551,112.135,285.568,110.81,286.461,109.64Z" transform="translate(-210.339 -105.328)"/><path d="M280.52,116.37v55.394c-.447.154-.893.277-1.34.385V117.972C279.627,117.448,280.073,116.909,280.52,116.37Z" transform="translate(-212.59 -101.694)"/><path d="M276.981,121.11v49.218a23.465,23.465,0,0,1-3.111-.123V124.19c.308-.277.631-.585.955-.893q.647-.624,1.34-1.34C276.442,121.68,276.7,121.4,276.981,121.11Z" transform="translate(-215.458 -99.134)"/><path d="M271.04,125.141V167.06c-.447-.108-.893-.246-1.34-.4V125.11A6.629,6.629,0,0,0,271.04,125.141Z" transform="translate(-217.71 -96.974)"/><path d="M267.491,124.663V165.6c-.724-.339-1.432-.693-2.156-1.063-.323-.169-.631-.339-.955-.508V123.4C265.473,123.877,266.505,124.309,267.491,124.663Z" transform="translate(-220.582 -97.898)"/><path d="M261.56,122.073v39.994c-.447-.293-.893-.6-1.34-.909V121.38c.277.154.554.293.832.431C261.221,121.9,261.39,121.981,261.56,122.073Z" transform="translate(-222.829 -98.988)"/><path d="M258.011,120.226v38.731c-1.047-.832-2.094-1.694-3.111-2.572V118.47C255.932,119.071,256.979,119.656,258.011,120.226Z" transform="translate(-225.702 -100.56)"/><path d="M252.08,116.865V153.1q-.67-.67-1.34-1.294V116.08c.231.139.447.262.678.4C251.633,116.6,251.864,116.727,252.08,116.865Z" transform="translate(-227.948 -101.85)"/><path d="M248.531,114.8v33.433c-.277-.293-.539-.585-.8-.878-.8-.862-1.555-1.725-2.31-2.572V113a.625.625,0,0,0,.139.077C246.513,113.631,247.5,114.2,248.531,114.8Z" transform="translate(-230.821 -103.514)"/><path d="M242.59,111.432v28.413c-.477-.585-.924-1.17-1.34-1.725V110.77c.216.092.431.2.647.308C242.128,111.186,242.359,111.309,242.59,111.432Z" transform="translate(-233.073 -104.718)"/><path d="M239.051,109.663v21.914c-.385-.631-.77-1.278-1.14-1.925l-.739-1.34c-.431-.8-.847-1.6-1.232-2.4V109.386A8.493,8.493,0,0,1,239.051,109.663Z" transform="translate(-235.94 -105.49)"/></g><g class="k" transform="translate(0 0.031)"><path d="M295.969,150.11q-1.294.716-2.587,1.34H267.757l-.6-.277c-.724-.339-1.432-.693-2.156-1.063Z" transform="translate(-216.69 -83.505)"/><path d="M312.354,144.79a.6.6,0,0,0-.154.123c-1.309,1.032-2.633,2.033-3.958,2.988H261.1c-1.4-.986-2.787-2.033-4.143-3.111Z" transform="translate(-221.031 -86.378)"/><path d="M322.513,140.62c-.493.447-1,.893-1.509,1.34H253.6c-.493-.447-.97-.893-1.448-1.34Z" transform="translate(-223.629 -88.63)"/><path d="M333.884,135.31q-.809.832-1.663,1.663c-.477.477-.97.955-1.478,1.448H249.831c-.724-.739-1.417-1.494-2.11-2.233-.277-.293-.539-.585-.8-.878Z" transform="translate(-226.453 -91.497)"/><path d="M341.993,131.14c-.416.431-.832.878-1.263,1.34H244.419c-.385-.447-.755-.909-1.109-1.34Z" transform="translate(-228.402 -93.749)"/><path d="M351.433,125.83c-.154.185-.323.37-.493.585-.616.708-1.355,1.555-2.2,2.526H241.523c-.832-1.109-1.571-2.156-2.233-3.111Z" transform="translate(-230.573 -96.616)"/><path d="M276.426,123H237.479l-.739-1.34h36.991c.169.092.339.169.508.262C274.978,122.291,275.717,122.661,276.426,123Z" transform="translate(-231.95 -98.868)"/><path d="M329.376,123H274.49q.647-.624,1.34-1.34h51.713Z" transform="translate(-211.565 -98.868)"/><path d="M265.667,119.451H235.56a31.471,31.471,0,0,1-1.17-3.111h25.857c.216.123.447.246.662.385C262.464,117.618,264.066,118.542,265.667,119.451Z" transform="translate(-233.219 -101.741)"/><path d="M318.482,119.451h-40.1c.4-.477.816-.97,1.232-1.463.447-.524.893-1.063,1.34-1.6v-.046h33.279l1,.739,3.111,2.264Z" transform="translate(-209.464 -101.741)"/><path d="M251.925,113.52H233.676a7.9,7.9,0,0,1-.031-1.34h15.862c.724.385,1.478.816,2.279,1.263A.624.624,0,0,0,251.925,113.52Z" transform="translate(-233.63 -103.987)"/><path d="M304.952,113.52H282.73c.323-.416.647-.816.955-1.2v-.139H303.12Z" transform="translate(-207.115 -103.987)"/><path d="M290.129,106.86v3.111H285.94c1.016-1.34,1.8-2.418,2.325-3.111Z" transform="translate(-205.382 -106.86)"/></g></g><g transform="translate(79.745 9.668)"><path class="h" d="M318.474,136.194c-1.23-1.194-2.687-2.153-4.024-3.226s-2.723-2.093-4.11-3.111c-2.669-1.956-5.37-3.875-8.077-5.775s-5.422-3.8-8.139-5.7c-2.8-1.957-5.569-4.087-8.522-5.817a.12.12,0,0,0-.143.192c2.578,2.245,5.478,4.183,8.225,6.215q4.068,3.008,8.144,6.006c2.721,1.993,5.453,3.975,8.211,5.917,1.355.955,2.718,1.891,4.112,2.789s2.732,1.939,4.213,2.7C318.49,136.454,318.559,136.276,318.474,136.194Z" transform="translate(-285.412 -112.549)"/></g><path class="h" d="M281.088,171.67c-16.617-8.978-32.571-27.735-39.147-37.5-5.775-8.593-10.072-19.081-7.577-23.131,1-1.663,3.157-2.248,6.822-1.155Z" transform="translate(-233.624 -104.62)"/></g></g><g transform="translate(59.569 117.304)"><path class="g" d="M296.8,223.119c-1.312,1.674-95.434,8.484-95.953,7.942-1.412-1.472,14.071-99.341,33.715-117.568,4.224-3.919,21.455-4.594,23.878-3.841,2.743.839,11.222,13.1,15.409,23.28C282.233,153.308,297.944,221.65,296.8,223.119Z" transform="translate(-200.761 -109.379)"/><g transform="translate(0.014)"><g class="k" transform="translate(3.942)"><path d="M261.56,173.961v18.187q-.6.092-1.34.185V167.97c.123.57.262,1.14.385,1.694.108.462.2.909.293,1.34C261.129,172.02,261.36,173.006,261.56,173.961Z" transform="translate(-172.609 -77.741)"/><path d="M256.748,153.464c.431,1.648.847,3.311,1.263,4.959v46.154c-.97.092-2.017.2-3.111.323V146.38c.062.216.123.447.169.662q.67,2.518,1.34,5.082C256.517,152.571,256.64,153.017,256.748,153.464Z" transform="translate(-175.482 -89.4)"/><path d="M250.817,132.1c.416,1.309.847,2.68,1.263,4.1v77.031c-.277.031-.57.046-.847.077l-.493.046V131.84A1.3,1.3,0,0,1,250.817,132.1Z" transform="translate(-177.729 -97.252)"/><path d="M248.531,125.027v95.726c-1.016.092-2.048.185-3.111.262V118.99c.77,1.355,1.509,2.741,2.187,4.112q.347.67.647,1.34A5.028,5.028,0,0,1,248.531,125.027Z" transform="translate(-180.601 -104.191)"/><path d="M241.8,113.3c.262.354.524.708.785,1.093V224.923c-.447.031-.893.062-1.34.108V112.58C241.435,112.811,241.62,113.057,241.8,113.3Z" transform="translate(-182.853 -107.652)"/><path d="M239.051,109.58V227.175c-1.032.077-2.064.169-3.111.246V109.38A18.586,18.586,0,0,1,239.051,109.58Z" transform="translate(-185.721 -109.38)"/><path d="M233.11,109.51V227.751c-.447.046-.893.077-1.34.108V109.618C232.217,109.572,232.663,109.541,233.11,109.51Z" transform="translate(-187.972 -109.31)"/><path d="M229.571,110V227.979l-3.111.231V110.647C227.446,110.4,228.493,110.185,229.571,110Z" transform="translate(-190.84 -109.045)"/><path d="M223.63,111.7V227.677l-1.34.092V112.886a6.1,6.1,0,0,1,.447-.447,2.447,2.447,0,0,1,.2-.2A5.145,5.145,0,0,1,223.63,111.7Z" transform="translate(-193.092 -108.127)"/><path d="M220.081,117.02V225.267c-1.047.077-2.094.154-3.111.216V123.057c.647-1.4,1.309-2.726,1.956-3.973C219.311,118.375,219.7,117.682,220.081,117.02Z" transform="translate(-195.964 -105.254)"/><path d="M214.15,129.13V219.3l-1.34.092V133.042c.092-.277.185-.554.277-.816Q213.6,130.655,214.15,129.13Z" transform="translate(-198.211 -98.715)"/><path d="M210.6,142.72v69.67c-.6.031-1.17.077-1.74.108l-1.371.092V154.1h.2c.416-1.694.832-3.388,1.263-5.082.262-1.032.524-2.079.8-3.111C210.031,144.845,210.308,143.783,210.6,142.72Z" transform="translate(-201.084 -91.376)"/><path d="M204.67,165.82v34.588c-.477.031-.924.046-1.34.077V172.842c.046-.216.077-.447.123-.678.077-.431.169-.893.246-1.34C204.008,169.193,204.331,167.529,204.67,165.82Z" transform="translate(-203.33 -78.902)"/></g><g class="k" transform="translate(0 4.312)"><path d="M212.489,188.03l-1.371.092c-1.925.123-3.619.216-5.067.293-.477.031-.924.046-1.34.077a30.711,30.711,0,0,1-3.865.092c-.062-.062-.077-.246-.077-.554Z" transform="translate(-200.77 -71.221)"/><path d="M296.659,183.521a10.635,10.635,0,0,1-3.142.662q-.6.092-1.34.185c-1.417.169-3.126.37-5.082.585-.97.092-2.017.2-3.111.323-1.586.154-3.28.308-5.067.477-.277.031-.57.046-.847.077H201.04c.108-.939.246-1.971.416-3.111h95.234A1.579,1.579,0,0,1,296.659,183.521Z" transform="translate(-200.624 -74.088)"/><path d="M295.5,179.89H201.79c.062-.431.139-.878.2-1.34h93.262C295.345,179.012,295.437,179.459,295.5,179.89Z" transform="translate(-200.219 -76.34)"/><path d="M293.874,176.351H202.46c.185-1,.354-2.048.554-3.111h90.2C293.443,174.318,293.674,175.365,293.874,176.351Z" transform="translate(-199.857 -79.208)"/><path d="M291.575,170.41H203.41c.077-.431.169-.893.246-1.34h87.626C291.39,169.532,291.483,169.979,291.575,170.41Z" transform="translate(-199.344 -81.459)"/><path d="M289.7,166.861H204.21c.2-1.016.4-2.064.616-3.111h84.13C289.2,164.8,289.449,165.844,289.7,166.861Z" transform="translate(-198.912 -84.332)"/><path d="M287.156,160.93H205.29l.277-1.34h81.281C286.956,160.037,287.064,160.483,287.156,160.93Z" transform="translate(-198.329 -86.579)"/><path d="M285.115,157.381H206.19c.231-1.032.462-2.064.708-3.111h77.447C284.607,155.317,284.853,156.349,285.115,157.381Z" transform="translate(-197.843 -89.451)"/><path d="M282.393,151.45H207.41c.046-.169.092-.339.123-.493v-.847h74.521C282.162,150.557,282.285,151,282.393,151.45Z" transform="translate(-197.184 -91.698)"/><path d="M280.158,147.9H208.44c.262-1.032.524-2.079.8-3.111h70.085c.231.8.447,1.632.662,2.449C280.05,147.454,280.112,147.685,280.158,147.9Z" transform="translate(-196.628 -94.571)"/><path d="M277.194,141.96H209.85q.162-.67.37-1.34h66.605C276.932,141.067,277.071,141.513,277.194,141.96Z" transform="translate(-195.867 -96.822)"/><path d="M274.74,138.421H211.03c.308-1.047.631-2.094.955-3.111h61.846C274.124,136.326,274.432,137.358,274.74,138.421Z" transform="translate(-195.23 -99.69)"/><path d="M271.359,132.48H212.7a5.212,5.212,0,0,1,.169-.524c.092-.277.185-.554.277-.816h57.8c.108.354.231.708.339,1.078A1.3,1.3,0,0,1,271.359,132.48Z" transform="translate(-194.328 -101.942)"/><path d="M268.471,128.941H214.14c.385-1.047.77-2.094,1.186-3.111h52.006C267.7,126.785,268.071,127.832,268.471,128.941Z" transform="translate(-193.55 -104.809)"/><path d="M264,123H216.26c.185-.462.385-.909.585-1.34h46.508Q263.7,122.33,264,123Z" transform="translate(-192.405 -107.061)"/><path d="M259.543,119.451h-41.3c.385-.708.77-1.4,1.155-2.064.2-.354.4-.708.616-1.047h37.653C258.3,117.341,258.927,118.388,259.543,119.451Z" transform="translate(-191.336 -109.934)"/><path d="M252.334,113.52H221.75c.277-.323.554-.616.832-.893a6.1,6.1,0,0,1,.447-.447h28.29c.154.2.308.4.462.616C251.965,113.027,252.15,113.273,252.334,113.52Z" transform="translate(-189.441 -112.18)"/></g></g><g transform="translate(51.875 15.056)"><path class="d" d="M234.446,127.074l3.763-7.917,5.979,5.667-.93,6.126-5.432,1.093Z" transform="translate(-234.446 -119.157)"/><path class="d" d="M236.641,127.907s1.806,39.065,16.025,54.672c14,15.363,35.961,12.168,35.961,12.168l18.238-8.582-15.049-10.755s-16.617,0-27.2-8.142c-10.384-7.991-22.543-40.453-22.543-40.453Z" transform="translate(-233.26 -115.022)"/></g></g><g transform="translate(80.853 46.008)"><g transform="translate(13.617 53.29)"><path class="i" d="M245.238,128.653c-4.816,2.127-14.89-3.964-19.463-9.566-.313-.385-.494-5.014-.981-10.628-.31-3.406-.733-7.192-1.371-10.617-.134-.7,22.456,1.227,22.456,1.227a55.524,55.524,0,0,0,.37,13.54,7.911,7.911,0,0,0,.408,1.377c.02.065.052.139.075.228C247.665,116.8,249.891,126.594,245.238,128.653Z" transform="translate(-223.424 -97.688)"/><path class="h" d="M246.444,114.212a13.8,13.8,0,0,1-2.187.524c-11.319,1.848-17.926-11.2-20.3-17.032,4.05-.139,21.637,1.355,21.637,1.355a55.194,55.194,0,0,0,.37,13.552,7.129,7.129,0,0,0,.4,1.371A2.009,2.009,0,0,1,246.444,114.212Z" transform="translate(-223.134 -97.684)"/></g><g transform="translate(6.516 12.475)"><path class="i" d="M219.022,85.86c-1.475,7.966,5.119,29.747,11.159,34.083,8.756,6.288,21.833,5.5,26.856-4.74,4.87-9.924-4.226-38.157-10.855-41.968C236.418,67.622,221.2,74.093,219.022,85.86Z" transform="translate(-218.813 -71.185)"/></g><path class="o" d="M225.823,102.75l0-.009" transform="translate(-208.512 -41.669)"/><g transform="translate(20.783 28.919)"><g transform="translate(2.788 8.95)"><path class="h" d="M232.063,88.439c-.028-.051-.094.1-.074.165.484,1.455.793,3.2-.391,4.086-.037.028-.011.1.037.079C233.189,92.058,232.755,89.74,232.063,88.439Z" transform="translate(-228.974 -87.267)"/><path class="h" d="M231.209,87.7c-2.416.524-1.192,5.318,1.047,4.833C234.46,92.058,233.235,87.264,231.209,87.7Z" transform="translate(-229.888 -87.675)"/></g><g transform="translate(14.823 5.574)"><path class="h" d="M237.707,86.773c0-.059.134.042.148.1.333,1.5.964,3.155,2.433,3.306.046,0,.062.08.009.086C238.6,90.455,237.781,88.245,237.707,86.773Z" transform="translate(-237.7 -84.795)"/><path class="h" d="M238.64,85.571c2.342-.792,3.753,3.952,1.583,4.685C238.087,90.978,236.676,86.235,238.64,85.571Z" transform="translate(-237.703 -85.482)"/></g><path class="h" d="M229.736,87.987a19.176,19.176,0,0,0,1.689-1.127c.644-.44,1.2-.725,1.5-1.48a1.047,1.047,0,0,0-.477-1.186,2.6,2.6,0,0,0-2.6.388,3.813,3.813,0,0,0-1.72,2.141A1.117,1.117,0,0,0,229.736,87.987Z" transform="translate(-228.077 -80.718)"/><path class="h" d="M240.68,84.638a19.014,19.014,0,0,1-2.031-.008,3.286,3.286,0,0,1-2.071-.4,1.048,1.048,0,0,1-.257-1.252,2.593,2.593,0,0,1,2.382-1.112,3.8,3.8,0,0,1,2.616.835A1.116,1.116,0,0,1,240.68,84.638Z" transform="translate(-223.683 -81.863)"/><path class="h" d="M233.588,97.5c.444.257.921.645,1.471.553a4.056,4.056,0,0,0,1.5-.782.053.053,0,0,1,.083.06,2.059,2.059,0,0,1-1.679,1.287,1.628,1.628,0,0,1-1.5-1.015C233.417,97.522,233.522,97.462,233.588,97.5Z" transform="translate(-225.175 -73.548)"/><g transform="translate(8.782 1.33)"><path class="h" d="M233.836,100.5a5.215,5.215,0,0,0,3.949,1.388,6.577,6.577,0,0,0,1.842-.382,1.85,1.85,0,0,0,.336-.128c.106-.042.2-.079.313-.134a.381.381,0,0,0,.214-.408l0-.011a.844.844,0,0,0-.052-.148l0-.012-.037-.129c-.26-1.15-.816-2.861-.816-2.861.471.1,2.847.516,2.661-.072-1.559-4.869-3.293-10.286-5.872-14.8a.142.142,0,0,0-.26.108c1.312,4.739,3.45,9.215,4.843,13.955a9.131,9.131,0,0,0-2.572-.114c-.151.088,1.132,3.286,1.207,3.813a.2.2,0,0,1,0,.057c-1.859.736-3.454.527-5.649-.288C233.808,100.277,233.715,100.407,233.836,100.5Z" transform="translate(-233.78 -82.726)"/></g><g transform="translate(8.647 19.033)"><path class="h" d="M238.863,95.084a6.191,6.191,0,0,1-2.036,2.387,2.787,2.787,0,0,1-1.634.448c-1.264-.065-1.523-1.158-1.5-2.145a6.646,6.646,0,0,1,.237-1.552A8.018,8.018,0,0,0,238.863,95.084Z" transform="translate(-233.692 -94.222)"/><path class="p" d="M236.827,96.934a2.787,2.787,0,0,1-1.634.448c-1.264-.065-1.523-1.158-1.5-2.145A2.877,2.877,0,0,1,236.827,96.934Z" transform="translate(-233.692 -93.684)"/></g></g><path class="h" d="M254.034,84.293c-6.265,7.732-19.453,2.77-19.453,2.77a8.924,8.924,0,0,1-7.072,8s2.409,13.778-1.106,14.795c-5.362,1.555-12.409-16.115-11.783-20.185s4.893-6.332,4.893-6.332-.488-2.866,2.067-6.376c2.823-3.882,16.55-3.862,16.55-3.862a12.244,12.244,0,0,1,1.934-5.318,3.447,3.447,0,0,1,4.891-.976,8.252,8.252,0,0,0-.308,3.665c.528,4.086,3.711,3.135,2.633-.393a5.739,5.739,0,0,0-2.325-3.272c.886-2.778,3.228-4.294,5.154-3.519C253.606,64.693,259.247,77.868,254.034,84.293Z" transform="translate(-214.582 -63.084)"/><g transform="translate(3.641 39.996)"><path class="i" d="M226.845,93.8s-5.98-6.5-9-4.277,2.151,12.12,6.165,13.031a3.923,3.923,0,0,0,4.928-2.789Z" transform="translate(-216.946 -89.056)"/><path class="h" d="M218.558,91.176a.053.053,0,0,0-.006.1c2.824.727,4.569,3.023,5.9,5.467a2.167,2.167,0,0,0-3.291-.157c-.062.06.02.16.092.134a2.413,2.413,0,0,1,2.744.482,11.629,11.629,0,0,1,1.545,1.959c.157.223.573.037.445-.226l-.031-.06C225.57,95.454,222.272,91.028,218.558,91.176Z" transform="translate(-216.102 -87.913)"/></g><g transform="translate(11.166 69.372)"><path class="g" d="M247.821,109.149l-3.773,13.726-18.2-14.744-4.013,5.855s18.964,24.561,18.928,23.357l4.118-11.929,8.706,6.979-2.889-19.686Z" transform="translate(-221.832 -108.131)"/><path class="h" d="M252.421,120.955c-.587-3.234-1.086-6.508-1.82-9.711-.026-.114-.213-.145-.226-.006-.294,3.222,2.013,15.577,2.339,18.566l-.037-.031c-.365-.3-8.028-6.1-8.083-5.986-.969,1.93-4,10.621-4.184,11.4-3-3.9-14.408-18.032-17.847-21.654a.113.113,0,0,0-.182.136c2.733,4.17,17.87,23.225,18.06,23.145a127.977,127.977,0,0,0,4.29-12.6c1.334,1.3,9.157,7.936,9.126,7.447A103.46,103.46,0,0,0,252.421,120.955Z" transform="translate(-221.548 -106.503)"/></g></g></g></g><g transform="translate(377.402 54.717)"><path class="q" d="M300.37,75.166a25.212,25.212,0,0,1-42.134,15.951l-12.617,1.851,6.312-10.906a25.221,25.221,0,1,1,48.439-6.9Z" transform="translate(-244.768 -47.097)"/><path class="h" d="M300.668,75.244a25.388,25.388,0,0,1-5.09,12.784,28.11,28.11,0,0,1-2.287,2.632,28.3,28.3,0,0,1-2.661,2.253,24.813,24.813,0,0,1-6.083,3.386,25.13,25.13,0,0,1-6.79,1.62,24.864,24.864,0,0,1-3.5.066,22.147,22.147,0,0,1-3.49-.363,25.434,25.434,0,0,1-12.477-6.16l.3.092-12.6,1.934-.915.142.464-.807,6.275-10.929-.029.433a25.5,25.5,0,0,1,1.554-22.478,25.782,25.782,0,0,1,7.9-8.41,25.657,25.657,0,0,1,22.167-2.985,25.77,25.77,0,0,1,9.727,5.963A25.37,25.37,0,0,1,300.668,75.244Zm0,0a24.948,24.948,0,0,0-28.6-27.292,24.8,24.8,0,0,0-10.415,4.113,26.01,26.01,0,0,0-7.546,8.231,24.9,24.9,0,0,0-3.2,10.671,25.224,25.224,0,0,0,1.774,10.986l.092.225-.122.206L246.3,93.272l-.451-.667,12.628-1.768.176-.025.123.117a24.852,24.852,0,0,0,12.077,6.22,21.819,21.819,0,0,0,3.42.416,24.352,24.352,0,0,0,3.451-.006,24.8,24.8,0,0,0,6.736-1.483,23.486,23.486,0,0,0,6.083-3.277,28.439,28.439,0,0,0,2.663-2.224,27.893,27.893,0,0,0,2.295-2.606A25.347,25.347,0,0,0,300.668,75.244Z" transform="translate(-245.066 -47.175)"/><path class="m" d="M266.744,83.067l-10.771-10.9,3.619-3.575,6.292,6.369,13.072-20.494,4.289,2.735Z" transform="translate(-239.177 -43.239)"/></g></g></svg>