<svg xmlns="http://www.w3.org/2000/svg" width="552.71" height="743.353" viewBox="0 0 552.71 743.353"><defs><style>.a{fill:#263238;}.b{fill:#ff6e4a;}.c,.d{opacity:0.1;}.e{fill:#ff994d;}.f{fill:#d3766a;}.g{fill:#333;}.h{fill:#eb9481;}.i{fill:#24669a;}.j{fill:#1f74a3;}.k{fill:#2383c3;}.l{fill:#e587b4;}.m{fill:none;stroke:#263238;stroke-miterlimit:10;}</style></defs><g transform="translate(-102.644 -52.975)"><g transform="translate(123.258 52.975)"><g transform="translate(144.04 1.738)"><path class="a" d="M361.7,71.768c21.847,37.46,14.452,89.593-30.892,124.761-41.244,31.989-103.113,27.3-126.152.821-24.448-28.1-14.942-67.09,10.21-79.6,24.292-12.089,49.607-5.613,65.52-20.153C288,90.635,293.27,74,304.076,63.227,316.131,51.213,347.663,47.7,361.7,71.768Z" transform="translate(-190.44 -53.901)"/><path class="a" d="M213.623,194.072c16.8,5.609,35.147,6.18,52.6,2.858,17.509-3.395,33.994-11.35,48.122-22.154,14.107-10.825,25.881-25.091,32.484-41.709a98.96,98.96,0,0,0,5.666-52.313,103.726,103.726,0,0,1-7.162,51.694,97.058,97.058,0,0,1-13.454,22.441,106.128,106.128,0,0,1-18.833,18.192A127.314,127.314,0,0,1,290.7,186.829a113.577,113.577,0,0,1-50.985,10.926A101.14,101.14,0,0,1,213.623,194.072Z" transform="translate(-170.144 -30.395)"/><path class="a" d="M199.571,118.666a51.705,51.705,0,0,1,14.289-7.819,69.2,69.2,0,0,1,15.785-3.8c5.448-.625,10.879-1.4,16.311-2.38a71.25,71.25,0,0,0,15.969-4.632,46.2,46.2,0,0,0,7.4-4,32.024,32.024,0,0,0,6.123-5.827c3.561-4.33,6.309-9.115,9.242-13.7a64.38,64.38,0,0,1,10.133-12.68,44.928,44.928,0,0,1,13.662-8.8,42.794,42.794,0,0,0-14.341,8.036,64.07,64.07,0,0,0-10.8,12.545c-3.162,4.5-5.93,9.248-9.39,13.351a29.98,29.98,0,0,1-5.8,5.407,43.878,43.878,0,0,1-7.083,3.711c-9.863,4.387-20.873,5.563-31.65,7.337a69.592,69.592,0,0,0-15.949,4.456A48.619,48.619,0,0,0,199.571,118.666Z" transform="translate(-182.446 -52.914)"/></g><g transform="translate(0 84.101)"><g transform="translate(7.702)"><path class="b" d="M117.957,427.07c-4.977-9.823,77.68-116.908,150.062-206.194.03-.032.06-.066.058-.1,32.666-40.288,60.871-81.632,82.209-104.714,13.563-14.671,25.982-18.246,29.624-18.246,12.035,0,43.883,8.126,38.726,72.954-3.9,49.031-13.916,100.712-2.431,154.843,11.485,54.1,41.166,103.842,71.369,125.783,30.187,21.924,74.85,23.917,70.164,23.512-1.444-.124-7.41,7.984-22.665,13.58-18.7,6.86-47.78,8.73-61.22,15.174-27.484,13.18-49.787,43.341-91.283,46.852-43.712,3.7-90.844-25.708-133.755-42.278C196.7,488.115,160.9,511.816,117.957,427.07Z" transform="translate(-117.743 -97.818)"/><g class="c" transform="translate(-78)"><g transform="translate(79)"><path d="M117.957,427.07c-4.977-9.823,77.68-116.908,150.062-206.194.03-.032.06-.066.058-.1,32.666-40.288,60.871-81.632,82.209-104.714,13.563-14.671,25.982-18.246,29.624-18.246,12.035,0,43.883,8.126,38.726,72.954-3.9,49.031-13.916,100.712-2.431,154.843,11.485,54.1,41.166,103.842,71.369,125.783,30.187,21.924,74.85,23.917,70.164,23.512-1.444-.124-7.41,7.984-22.665,13.58-18.7,6.86-47.78,8.73-61.22,15.174-27.484,13.18-49.787,43.341-91.283,46.852-43.712,3.7-90.844-25.708-133.755-42.278C196.7,488.115,160.9,511.816,117.957,427.07Z" transform="translate(-117.743 -97.818)"/></g></g><path class="d" d="M224.352,390.386c-6.433-2.813-12.79-5.514-19.073-7.933-13.578-5.232-26.031-7.5-37.809-9.49,0,0,54.34-112.437,88.233-130.211C274.238,233.033,241.849,279.86,224.352,390.386Z" transform="translate(-74.21 27.969)"/><path class="d" d="M369.644,349.252c-10.052,1.913-19.317,3.9-25.374,6.808a136.33,136.33,0,0,0-19.748,12.19c-33.726-38.176-54.821-67.176-58.645-98.629C263.424,249.447,306.24,330.7,369.644,349.252Z" transform="translate(11.85 49.786)"/><path class="d" d="M224.961,369.01c-5.833-2.494-11.646-5.1-17.441-7.708,12.864-40.142,16.5-80.156,20.836-77.043C233.082,287.654,228.356,338.516,224.961,369.01Z" transform="translate(-39.149 65.249)"/></g><path class="e" d="M183.359,525.252s-45.32-23.154-69.515-87.59c-2.356-6.27,15.594-66.349,37.758-98.044s49.691-46.933,84.132-77.86,100.934-133.973,124.6-152.587c16.267-12.8,23.175-11.3,23.175-11.3s-20.87,13.392-29.791,24.476c-35.264,43.823-76.212,139.627-93.269,159.514-20.823,24.274-45.794,49.793-57.607,73.716C189.606,382.372,180.238,500.565,183.359,525.252Z" transform="translate(-113.636 -97.818)"/></g><g transform="translate(190.93 215.988)"><g transform="translate(61.782)"><g transform="translate(47.841 389.292)"><path class="f" d="M422.86,511.513c-4.734,1.547-143.483.289-148.592-3.029-1.964-1.227,8.273-132.767,8.273-132.767l88.288.574-9.193,88.017s51.486,23.606,56.722,27.846C423.55,496.376,427.593,509.988,422.86,511.513Z" transform="translate(-273.787 -375.717)"/><path class="a" d="M422.969,464.068c-4.726,1.538-143.489.281-148.59-3.038-.619-.375-.97-13.713,1.018-31.113,25.206,3.9,115.164,16.56,122.1,12.359,4.839-2.926.469-7.352-3.563-10.315,11.534,5.57,22.3,10.934,24.531,12.753C423.663,448.933,427.7,462.548,422.969,464.068Z" transform="translate(-273.894 -328.27)"/></g><path class="g" d="M390.962,624.868H293.69S312,417.752,311.238,413.785c-.971-5.082-6.716-28.079-14.36-58.121-2.4-9.4-4.979-19.484-7.665-29.937-7.252-28.265-15.249-59.155-22.213-86.035-10.454-40.267-18.616-71.549-18.616-71.549h82.44s9.608,30.455,21.716,70.083c19.731,64.4,46.094,153.039,48.7,174.589C405.454,447.607,390.962,624.868,390.962,624.868Z" transform="translate(-248.385 -168.142)"/><g transform="translate(16.828 20.648)"><g transform="translate(34.039 418.775)"><path class="a" d="M362.91,403.154c-14.855-.309-10.589-.429-25.446-.574-7.271-.069-55.051-.486-61.844.64a.158.158,0,0,0,0,.3c6.793,1.125,54.573.709,61.844.639,14.857-.144,10.591-.264,25.446-.574A.217.217,0,0,0,362.91,403.154Z" transform="translate(-275.508 -402.447)"/></g><path d="M321.685,390.261c-3.19-14.062-7.954-27.842-12.1-41.644q-12.645-42.068-25.446-84.089-6.386-21.014-12.83-42.011-3.263-10.6-6.56-21.189c-2.166-6.9-4.629-13.749-6.581-20.714-.8-2.834-1.23-1.277-.212,2.32,2.052,7.256,4.077,14.52,6.193,21.755q6.282,21.5,12.648,42.975,12.648,42.748,25.519,85.429,6.422,21.408,12.877,42.809a175.437,175.437,0,0,1,5.257,20.707,95.384,95.384,0,0,1,.859,22.153c-.932,14.883-2.656,29.744-4.03,44.59q-2.065,22.32-4.132,44.637c-2.74,29.611-4.208,39.144-6.873,68.762-.339,3.753-.668,7.507-.956,11.266-.1,1.257,1.8,1.161,1.937-.049,3.2-29.279,4.385-38.578,7.134-67.9q4.1-43.772,8.2-87.543c.685-7.325,1.465-14.666,1.47-22.032A90.832,90.832,0,0,0,321.685,390.261Z" transform="translate(-257.358 -179.152)"/></g><path d="M321.465,168.142c-5.724,44.277-16.633,127.295-24.587,187.522-18.595-72.975-48.493-187.522-48.493-187.522Z" transform="translate(-248.385 -168.142)"/></g><g transform="translate(5.988 390.912)"><path class="f" d="M367.756,512.377c-4.734,1.547-143.483.289-148.592-3.029-1.964-1.227,2.179-132.767,2.179-132.767l88.288.576-3.1,88.016s51.486,23.608,56.722,27.846C368.447,497.24,372.49,510.852,367.756,512.377Z" transform="translate(-218.633 -376.581)"/><path class="a" d="M367.76,464.932c-4.726,1.538-143.489.281-148.59-3.038-.619-.375-.638-13.372-.375-31.113,25.206,3.9,116.558,16.56,123.5,12.359,4.839-2.926.469-7.352-3.563-10.315,11.534,5.57,22.3,10.934,24.531,12.753C368.454,449.8,372.486,463.412,367.76,464.932Z" transform="translate(-218.635 -329.134)"/></g><path class="g" d="M357,168.142s-1.9,39.442-10.93,70.683c-.724,2.582-1.51,5.124-2.355,7.562,0,0-9.4,3.41-23.762,12.211,0,0-.951,31.736-1.9,67.129-1.054,39.566-2.149,83.7-1.922,93.059.827,35.02-3.434,205.689-3.434,205.689l-97.254.394s16.637-193.15,16.513-205.98c-.186-20.62,4.711-111.758,8.492-178.225,2.314-40.95,4.216-72.521,4.216-72.521Z" transform="translate(-215.442 -168.142)"/><path class="a" d="M306.32,402.476c-14.857-.246-10.591-.386-25.45-.465-7.271-.039-55.053-.253-61.84.9a.158.158,0,0,0,0,.3c6.8,1.1,54.577.476,61.848.375,14.857-.206,10.589-.308,25.444-.681A.217.217,0,0,0,306.32,402.476Z" transform="translate(-212.399 36.557)"/><path d="M246.421,175.818c-1.789,54.258-3.685,108.522-6.112,162.757C237.873,393,234.593,447.4,230.039,501.683c-2.545,30.331-4,51.1-7.271,81.36-.021.2.289.276.317.069,7.082-53.823,10.082-98.48,13.565-152.645s5.842-108.4,7.687-162.637c1.046-30.678,1.844-61.366,2.761-92.05C247.111,175.345,246.436,175.385,246.421,175.818Z" transform="translate(-209.029 -161.724)"/><g transform="translate(104.347 75.842)"><path class="a" d="M299.047,208.635c-9.683,3.846-18.957,9.1-27.8,14.563a.321.321,0,0,0,.293.572c9.383-4.559,18.961-8.948,28.081-14.017A.628.628,0,0,0,299.047,208.635Z" transform="translate(-271.081 -208.582)"/></g><path class="a" d="M294.545,190.831c-.641,3.456-1.482,6.877-2.226,10.313-.7,3.224-1.217,6.513-2.069,9.7a16.5,16.5,0,0,1-4.518,8.13c-1.264,1.176-2.657,2.215-4.006,3.293-.728.579-1.512,1.136-2.267,1.725.1-.456.176-.921.259-1.392.231-1.311.452-2.622.673-3.935q.732-4.366,1.4-8.745c.876-5.735,1.684-11.532,2.881-17.211a.185.185,0,0,0-.358-.088c-1.429,5.626-3.006,11.193-4.252,16.868-.61,2.783-2.787,16.524-2.884,17.5-.1,1-.182,2.01-.218,3.019a11.961,11.961,0,0,0,0,3.085c.058.251.36.21.467.041l.015.009a12.129,12.129,0,0,0,.874-2.986c.251-.981.474-1.977.651-2.973.062-.36.113-.73.163-1.1,1.354-.821,2.614-1.909,3.878-2.826,1.365-.986,2.755-1.949,4.043-3.034a15.484,15.484,0,0,0,4.934-7.712,56.079,56.079,0,0,0,1.618-9.874c.437-3.9.758-7.83,1.3-11.721C294.935,190.689,294.59,190.595,294.545,190.831Z" transform="translate(-161.686 -148.4)"/></g><g transform="translate(150.792)"><g transform="translate(127.869 42.929)"><path class="h" d="M269.6,127.187c27.252,43.649,95.418,107.633,113.752,95.729,22.546-14.636,15.821-84.67,15.587-96.686-.163-8.393-61.848,2.07-58.708,10.489,1.9,5.1,3.451,11.759,2.194,11.134-3.944-1.958-12.263-12.609-49.669-38.069C271.911,95.6,251.557,98.29,269.6,127.187Z" transform="translate(-261.86 -53.48)"/><g transform="translate(61.732)"><path class="f" d="M351.661,75.961c-6.155-.908-8.965,4.891-8.965,4.891a13.271,13.271,0,0,0-8.46-3.143c-5.463.21-7.53,8.867-7.53,8.867a16.363,16.363,0,0,0-9.452-1.892c-5.208.726-8.539,9.165-8.539,9.165a14.351,14.351,0,0,0-9.36,3.569c-6.675,6.356-3.846,20.144-2.138,28.927s14.782,32.1,16.823,36.79l56.465-10.48s3.544-41.565.069-51.608C367.648,92.589,358.572,76.979,351.661,75.961Z" transform="translate(-295.138 -75.865)"/><g transform="translate(13.373 5.107)"><path class="a" d="M321.222,78.69c5.272,8.248,7.817,17.6,10.887,26.8a.167.167,0,0,1-.319.1c-2.948-9.18-7.68-17.655-10.988-26.7A.236.236,0,0,1,321.222,78.69Z" transform="translate(-286.057 -78.588)"/><path class="a" d="M312.671,81.669a25.477,25.477,0,0,1,2.232,6.286q.956,3.418,1.793,6.862c1.123,4.6,2.142,9.225,3.023,13.876.039.206-.266.317-.319.1-1.127-4.582-2.324-9.146-3.642-13.676q-.99-3.4-2.035-6.785a30.365,30.365,0,0,1-1.667-6.466A.338.338,0,0,1,312.671,81.669Z" transform="translate(-293.702 -76.02)"/><path class="a" d="M302.526,85.579c1.054,1.613,1.3,3.912,1.708,5.769q.7,3.159,1.439,6.309c.983,4.2,1.967,8.4,3.1,12.565.056.206-.261.311-.319.1-1.168-4.225-2.395-8.434-3.524-12.668q-.835-3.12-1.632-6.249c-.454-1.772-1.221-3.938-.981-5.788A.118.118,0,0,1,302.526,85.579Z" transform="translate(-302.269 -72.511)"/></g></g><g transform="translate(0 46.738)"><path class="i" d="M340.189,141.209l62.5-11.384s5.924,97.338-24.011,97.333c-24.024,0-86.5-60.751-107.408-94.612s-2.192-38.478,21.759-24.037c19.529,11.772,41.471,32.1,48.06,37.49Z" transform="translate(-262.219 -100.786)"/><path class="j" d="M305.133,133.846l66.5-5.925-1.949-13.253L303.05,127.219Z" transform="translate(-226.48 -88.633)"/><path class="i" d="M384.8,225.6a12.553,12.553,0,0,1-6.114,1.557c-24.024,0-86.495-60.745-107.406-94.615-14.553-23.555-9.921-32.951,2.307-31.638Z" transform="translate(-262.222 -100.786)"/><path class="a" d="M304.278,124.894l1.528,5.971,1.452,5.971,2.933,11.915q1.477,5.95,3.081,11.862c.542,1.967,1.082,3.942,1.716,5.883.533,1.98,1.243,3.9,1.845,5.87a75.108,75.108,0,0,1-4.938-11.322c-1.407-3.878-2.491-7.856-3.524-11.84-.981-4-1.847-8.017-2.521-12.076S304.569,129,304.278,124.894Z" transform="translate(-225.405 -79.681)"/><path class="a" d="M363.575,121.72c-9.677.615-19.33,1.866-28.96,2.991q-7.191.838-14.37,1.757c-4.869.628-9.722,1.429-14.606,1.911-.188.019-.18.313.006.293,4.94-.529,9.91-.765,14.857-1.2,4.8-.426,9.589-.925,14.377-1.467,9.6-1.088,19.249-2.181,28.743-3.995C363.783,121.975,363.738,121.709,363.575,121.72Z" transform="translate(-224.333 -82.46)"/></g></g><g transform="translate(62.245 87.16)"><path class="i" d="M366.218,274.73,357.9,247.879l-5.864-39.658s12.359-22.22,4.831-37.96c-3.8-7.972-36.89-57.442-50.683-67.191-12.939-9.146-31.425,1.046-38.262,8.426-26.344,28.428-32.051,98.36-40.687,174.467l92.543-7.479,9.09-19.9,8.468,18.479Z" transform="translate(-227.23 -99.449)"/><path class="a" d="M306.184,153.445c-.88-3.4-2.761-6.376-4.557-9.356-.651-1.08-2.115-3.316-3.865-5.93a38.146,38.146,0,0,0-1.686-3.7,60.542,60.542,0,0,1-2.8-5.456.146.146,0,1,0-.264.12,57.355,57.355,0,0,1,2.367,5.5c-2.946-4.353-6.046-8.852-7.376-10.681-.113-.152-.366.007-.249.154,2.824,3.6,12.113,19.426,14.362,23.439a27.2,27.2,0,0,1,3.357,12.959,59.027,59.027,0,0,1-1.643,13.925c-.111.386.276.568.428.2a37.781,37.781,0,0,0,2.446-10.369A30.443,30.443,0,0,0,306.184,153.445Z" transform="translate(-174.272 -78.065)"/></g><g transform="translate(0 91.45)"><path class="h" d="M306.84,121.994c-8.364,12.914-49.5,64.592-50.946,69.453s11.078,15.641,11.011,17.618c-.28,8.053-14.685,62.394-21.913,57.351-9.516-6.639-54.682-54.453-50.419-76.892s91.684-80.574,105.755-85.971S315.1,109.25,306.84,121.994Z" transform="translate(-193.822 -101.373)"/><path class="i" d="M224.93,248.953l39.108-43.812s-7.262-10.525-7.224-12.083,36.031-44.2,49.886-67.485,8.184-30.5-18.291-17.226-90.673,63.052-93.9,79.319C189.589,212.468,224.93,248.953,224.93,248.953Z" transform="translate(-194.04 -101.737)"/><path class="k" d="M207.13,201.43l10.476,10.5,37.3-51.318-4.3-5.925Z" transform="translate(-182.581 -55.385)"/><path class="a" d="M246.776,155.468c-3.537,3.012-6.609,6.69-9.8,10.062-3.215,3.4-6.346,6.883-9.5,10.345-6.318,6.945-12.483,13.964-18.411,21.243a.147.147,0,0,0,.212.2c6.7-6.671,13.115-13.557,19.443-20.585,3.134-3.481,6.281-6.947,9.349-10.486,3-3.462,6.311-6.847,8.921-10.619C247.094,155.492,246.884,155.374,246.776,155.468Z" transform="translate(-180.913 -54.729)"/><path class="a" d="M254.932,131.876c-1.545,1.382-3.1,2.74-4.692,4.072-.189.158-.371.323-.559.482q4.1-5.584,8.064-11.251c.062-.088-.082-.193-.152-.111A328.425,328.425,0,0,0,234.936,154.5c-.092.139.126.3.234.173,4.409-4.989,8.543-10.221,12.537-15.56q1.491-1.294,2.9-2.691c1.489-1.478,3-2.918,4.539-4.345C255.285,131.949,255.071,131.75,254.932,131.876Z" transform="translate(-158.258 -81.338)"/><g transform="translate(37.251 103.565)"><path class="h" d="M262.778,235.605c5.279-5.321-4.013-8.5-4.013-8.5s14.476,1.347,17.8-6.243c3.181-7.322-8.179-10.763-8.989-11.02.767.066,14.1.955,16.652-7.016,2.644-8.286-9.353-9.78-10.127-9.874.743-.165,10.527-2.53,11.089-9.025.958-11.164-27.619-6.8-35.014-12.053,0,0,0-14.48.137-14.919,0,0-2.046,6.058-6.714,8.43-5.786,2.943-11.11,5.03-13.017,8.464a8.216,8.216,0,0,0,.973,9.754s-7.924.628-10.131,6.84c-1.123,3.192,2.982,7.83,2.982,7.83s-6.324.767-7.942,6.414c-1.305,4.5,3.016,8.454,3.016,8.454s-5.729,3.554-5.57,8.588C214.208,231.886,251.468,246.987,262.778,235.605Z" transform="translate(-213.903 -156.959)"/><g transform="translate(5.998 27.002)"><path class="a" d="M217.264,187.314a.105.105,0,0,0-.114.176c11.041,7.957,25.609,13.316,39.3,13.282.45,0,.643-.731.148-.825C242.479,197.284,230.163,193.794,217.264,187.314Z" transform="translate(-217.102 -157.399)"/><path class="a" d="M219.472,179c-.141-.071-.259.159-.122.257,11.421,8.137,28,13.721,43.772,11.825.542-.066.962-.666.334-.64C252.87,190.905,231.055,184.889,219.472,179Z" transform="translate(-215.186 -164.68)"/><path class="a" d="M266.8,179.842c-15.2,1.232-29.26-2.53-43.15-8.471-.18-.077-.272.188-.139.293,6,4.758,15.251,7.622,22.636,9.242a40.2,40.2,0,0,0,20.7-.533C267.111,180.292,267.124,179.816,266.8,179.842Z" transform="translate(-211.547 -171.357)"/></g><path class="a" d="M218.657,212.53c-2.738-2.324-4.915-5.5-4.109-9.257a7.241,7.241,0,0,1,2.778-4.237c1.725-1.3,4.417-1.485,5.7-1.677-2.541-2.834-4.051-6.873-2.23-10.48a7.153,7.153,0,0,1,4.028-3.293,23.3,23.3,0,0,1,6.106-.951,8.4,8.4,0,0,1-3.179-6.832c.107-3.027,1.894-5.375,4.295-7.072,2.759-1.952,6.056-2.877,9.156-4.128a21.9,21.9,0,0,0,4.632-2.31,9.586,9.586,0,0,0,3.357-4.445c.137-.317.174-.019.071.246a11.9,11.9,0,0,1-1.838,3.344,15.338,15.338,0,0,1-2.886,2.809c-2.612,1.958-5.754,2.928-8.6,4.473a13.019,13.019,0,0,0-5.969,5.881,7.766,7.766,0,0,0,1.324,8.064c.109.1.068.306-.159.332a22.34,22.34,0,0,0-5.277,1.682,7.615,7.615,0,0,0-3.318,3.1c-1.472,3.149-.611,7.052,1.452,9.842.073.1-3.2.715-5.384,2.584a7.2,7.2,0,0,0-2.093,3.5,8.591,8.591,0,0,0,2.622,8.642.182.182,0,0,1,.054.113l0,.006a.175.175,0,0,1,.006.075.162.162,0,0,1-.049.118h0c-.019.022-1.812,1.213-1.909,1.238-.058.015-.064-.062-.03-.107A14.4,14.4,0,0,1,218.657,212.53Z" transform="translate(-213.487 -156.301)"/></g></g><g transform="translate(99.469)"><g transform="translate(13.833 52.922)"><path class="f" d="M254.557,118.87c.536,2.189,16.734,15.909,26.76,15.33,3.263-.2-2.571-17.653-2.571-17.653l.281-1.324L282.958,96.7,261.095,83l-3.158-1.81s-.741,5.141-1.6,11.549c-.043.3-.084.595-.124.913-.058.362-.118.7-.156,1.041-.141.956-.279,1.934-.4,2.909-.092.743-.188,1.463-.257,2.247-.09.784-.159,1.545-.251,2.329C254.433,109.926,254.341,117.94,254.557,118.87Z" transform="translate(-254.454 -81.193)"/><path class="a" d="M255.459,92.742a37.99,37.99,0,0,0,22.689,22.481L282.079,96.7,260.215,83l-3.158-1.81S256.316,86.334,255.459,92.742Z" transform="translate(-253.575 -81.193)"/></g><path class="f" d="M311.8,92.206c4.557,32.927-14.651,39.375-21.751,40.35-6.446.883-28.508,3.078-36.443-29.2s5.936-44.808,20.572-47.61S307.24,59.279,311.8,92.206Z" transform="translate(-243.392 -51.069)"/><g transform="translate(32.133 32.538)"><path class="a" d="M279.873,73.775a22.092,22.092,0,0,1-2.273-.321,3.719,3.719,0,0,1-2.256-.771,1.184,1.184,0,0,1-.1-1.44,2.939,2.939,0,0,1,2.839-.88,4.315,4.315,0,0,1,2.8,1.339A1.262,1.262,0,0,1,279.873,73.775Z" transform="translate(-254.725 -70.324)"/><path class="a" d="M266.371,75.971a21.758,21.758,0,0,0,2.29.174,3.717,3.717,0,0,0,2.369-.268,1.184,1.184,0,0,0,.4-1.386,2.934,2.934,0,0,0-2.582-1.468,4.325,4.325,0,0,0-3.023.705A1.263,1.263,0,0,0,266.371,75.971Z" transform="translate(-263.243 -67.991)"/><g transform="translate(0 11.604)"><g transform="translate(3.13)"><path class="a" d="M269.356,77.678c-.026-.084-.167.122-.156.216.278,2.247.216,4.867-1.755,5.8-.06.03-.043.143.03.126C269.932,83.243,269.979,79.762,269.356,77.678Z" transform="translate(-264.544 -75.508)"/><path class="a" d="M268.465,76.512c-3.65.054-3.271,7.352.111,7.3C271.9,83.762,271.526,76.465,268.465,76.512Z" transform="translate(-265.881 -76.512)"/></g><path class="a" d="M268.514,76.779c-.615.446-1.2,1.208-1.967,1.322-.883.135-1.594-.595-2.215-1.3-.064-.073-.124-.006-.12.092.052,1.4.664,2.806,2.174,2.935,1.378.12,2.3-1.168,2.571-2.594C269.008,76.972,268.762,76.6,268.514,76.779Z" transform="translate(-264.212 -76.319)"/></g><g transform="translate(21.243 9.205)"><g transform="translate(0 0.336)"><path class="a" d="M275.631,76.739c.013-.086.182.1.182.193.028,2.264.443,4.852,2.521,5.512.066.021.064.135-.013.128C275.809,82.332,275.3,78.889,275.631,76.739Z" transform="translate(-275.539 -74.269)"/><path class="a" d="M277.53,75.431c3.625-.435,4.231,6.845.874,7.25C275.1,83.079,274.492,75.8,277.53,75.431Z" transform="translate(-275.523 -75.412)"/></g><path class="a" d="M277.6,75.94c.608.339,1.234.992,1.926.981.8-.015,1.324-.851,1.77-1.649.047-.083.109-.026.118.069.156,1.388-.184,2.877-1.5,3.256-1.2.345-2.194-.775-2.642-2.134C277.194,76.212,277.357,75.805,277.6,75.94Z" transform="translate(-274.037 -75.233)"/></g><path class="a" d="M269.623,86.9c.546.527,1.092,1.253,1.913,1.317a5.959,5.959,0,0,0,2.431-.585.078.078,0,0,1,.1.114A3.045,3.045,0,0,1,271.2,89a2.407,2.407,0,0,1-1.793-1.99C269.372,86.875,269.544,86.824,269.623,86.9Z" transform="translate(-259.668 -55.844)"/><g transform="translate(11.125 0.347)"><path class="a" d="M277.9,92.453s.681,3.344.784,4.934c.008.15-.371.244-.91.311-.026.009-.039.021-.064.006a7.578,7.578,0,0,1-7.526-2.357c-.12-.148.071-.326.223-.236a11.415,11.415,0,0,0,7.033,1.54c.084-.448-1.358-5.688-1.106-5.722a13.871,13.871,0,0,1,3.666.587c-1.217-7.007-3.546-13.76-4.655-20.755a.217.217,0,0,1,.409-.129c2.944,6.907,4.522,14.94,5.964,22.141C281.9,93.67,278.552,92.684,277.9,92.453Z" transform="translate(-270.144 -70.509)"/></g><g transform="translate(10.767 24.828)"><path class="a" d="M277.73,85.056a9.273,9.273,0,0,1-3.145,3.492,4.19,4.19,0,0,1-2.466.6c-1.889-.15-2.232-1.8-2.157-3.274a9.955,9.955,0,0,1,.418-2.314A12.015,12.015,0,0,0,277.73,85.056Z" transform="translate(-269.953 -83.563)"/><path class="l" d="M274.585,87.475a4.19,4.19,0,0,1-2.466.6c-1.889-.15-2.232-1.8-2.157-3.274C271.932,84.656,274.083,85.623,274.585,87.475Z" transform="translate(-269.953 -82.49)"/></g></g><path class="a" d="M257.674,102.9c7.912-.334,7.211-12.8,7.211-12.8s8.931-1.275,8.848-15.789c0,0,4.764,8.52,17.018,9.675,2.594.246-6.38-5.984-6.38-5.984s10.823,8.83,29.83,4.291c1.345-.321-2.586-20.416-18-26.549s-28.78-1.517-37.61,8.458c0,0-10.772,5.651-11.474,16.164S254.6,103.029,257.674,102.9Z" transform="translate(-247.078 -52.975)"/><g transform="translate(1.901 44.129)"><path class="f" d="M262.021,84.176s-7.774-9.992-12.344-7.168,1.643,17.565,7.269,19.339a5.622,5.622,0,0,0,7.369-3.4Z" transform="translate(-248.092 -76.505)"/><path class="a" d="M249.978,79a.077.077,0,0,0-.022.15c3.952,1.371,6.17,4.855,7.789,8.5-1.225-1.373-2.832-2.078-4.681-.61-.1.077.008.229.116.2a3.46,3.46,0,0,1,3.862,1.011,16.687,16.687,0,0,1,1.977,2.982c.2.338.814.12.662-.272-.011-.028-.026-.058-.038-.088C259.488,85.939,255.3,79.229,249.978,79Z" transform="translate(-246.507 -74.319)"/></g></g><g transform="translate(136.416 106.903)"><line class="m" x2="27.462" y2="139.394"/><g transform="translate(11.226 32.206)"><path class="a" d="M277.157,128.9a2.221,2.221,0,1,1-2.642-1.7A2.222,2.222,0,0,1,277.157,128.9Z" transform="translate(-272.765 -127.149)"/><path class="a" d="M279.274,140.911a2.22,2.22,0,1,1-2.641-1.7A2.219,2.219,0,0,1,279.274,140.911Z" transform="translate(-270.911 -116.634)"/><path class="a" d="M281.393,152.922a2.221,2.221,0,1,1-2.642-1.7A2.223,2.223,0,0,1,281.393,152.922Z" transform="translate(-269.058 -106.119)"/><path class="a" d="M283.509,164.934a2.22,2.22,0,1,1-2.641-1.7A2.22,2.22,0,0,1,283.509,164.934Z" transform="translate(-267.204 -95.603)"/><path class="a" d="M285.626,176.945a2.221,2.221,0,1,1-2.641-1.7A2.222,2.222,0,0,1,285.626,176.945Z" transform="translate(-265.35 -85.089)"/></g></g><g transform="translate(109.344 88.767)"><path class="i" d="M280.794,100.306l-3.079,15.536-21.391-14.893-3.98,6.823s23.027,25.725,22.89,24.394l3.606-13.572,10.225,7.042-4.794-21.612Z" transform="translate(-252.344 -100.306)"/><path class="a" d="M286.834,113.052c-.911-3.541-1.731-7.134-2.806-10.63-.038-.124-.248-.143-.249.011-.066,3.6,3.49,17.126,4.094,20.416l-.045-.03c-.428-.308-9.4-6.121-9.454-5.992-.917,2.221-3.578,12.11-3.721,12.991-3.646-4.088-17.447-18.85-21.554-22.591a.126.126,0,0,0-.191.165c3.37,4.407,21.706,24.332,21.911,24.227a142.3,142.3,0,0,0,3.743-14.334c1.585,1.337,10.8,8.066,10.729,7.528A115.348,115.348,0,0,0,286.834,113.052Z" transform="translate(-251.878 -98.54)"/></g><path class="e" d="M255.829,98.481c-2.352-2.708-4.94,4.272-.621,7.348,6.4,4.555,18.653,9.422,20.731,9.111s5.919-8.188,6.331-9.777-1.388-4.525-1.962-4.1-4.212,8.539-4.947,9.006S260.883,104.3,255.829,98.481Z" transform="translate(-142.528 -13.673)"/></g></g><g transform="translate(102.644 268.577)"><path class="b" d="M283.188,387.873l-10.506,1.943-2.348,11.075-2.348-11.075-10.506-1.948,10.461-2.556,2.393-10.461,2.393,10.461Z" transform="translate(32.903 13.202)"/><path class="b" d="M157.659,353.813l-10.506,1.942-2.348,11.075-2.348-11.075-10.506-1.948,10.461-2.556,2.393-10.461,2.393,10.461Z" transform="translate(-76.988 -16.615)"/><path class="b" d="M393.98,290.089l-10.506,1.942-2.348,11.075-2.348-11.075-10.506-1.948,10.461-2.556,2.393-10.461,2.393,10.461Z" transform="translate(129.893 -72.401)"/><path class="b" d="M181.663,180.959,171.157,182.9l-2.348,11.075L166.461,182.9l-10.506-1.948,10.461-2.556,2.393-10.461L171.2,178.4Z" transform="translate(-55.974 -167.936)"/><path class="b" d="M394.038,324.854l-5.872,1.086-1.312,6.19-1.312-6.19-5.872-1.089,5.847-1.429,1.338-5.847,1.337,5.847Z" transform="translate(139.871 -36.939)"/><path class="b" d="M221.571,342.164,215.7,343.25l-1.312,6.19-1.312-6.19-5.872-1.089,5.847-1.429,1.337-5.847,1.338,5.847Z" transform="translate(-11.111 -21.785)"/><path class="b" d="M322.966,364.439l-5.872,1.085-1.312,6.19-1.312-6.19-5.872-1.089,5.847-1.429,1.338-5.847,1.337,5.847Z" transform="translate(77.652 -2.284)"/><path class="b" d="M243.9,406l-5.872,1.086-1.312,6.19-1.312-6.19L229.533,406l5.847-1.429,1.337-5.847,1.338,5.847Z" transform="translate(8.437 34.1)"/><path class="b" d="M131.808,334.4l-5.872,1.086-1.312,6.19-1.312-6.19L117.44,334.4l5.847-1.428,1.338-5.847,1.337,5.847Z" transform="translate(-89.692 -28.578)"/><path class="b" d="M121.263,251.453l-5.872,1.086-1.312,6.19-1.312-6.19-5.872-1.089,5.847-1.429,1.337-5.847,1.338,5.847Z" transform="translate(-98.924 -101.195)"/><path class="b" d="M336.026,362.417a1.7,1.7,0,0,0,0,3.4A1.7,1.7,0,0,0,336.026,362.417Z" transform="translate(100.224 2.317)"/><path class="b" d="M397.247,257.274a1.7,1.7,0,0,0,0,3.4A1.7,1.7,0,0,0,397.247,257.274Z" transform="translate(153.819 -89.728)"/><path class="b" d="M148.719,195.722a1.7,1.7,0,0,0,0,3.4A1.7,1.7,0,0,0,148.719,195.722Z" transform="translate(-63.749 -143.612)"/><path class="b" d="M367.533,330.549a1.7,1.7,0,0,0,0,3.4A1.7,1.7,0,0,0,367.533,330.549Z" transform="translate(127.807 -25.581)"/><path class="b" d="M104.289,312.73a1.7,1.7,0,0,0,0,3.4A1.7,1.7,0,0,0,104.289,312.73Z" transform="translate(-102.644 -41.18)"/><path class="b" d="M122.434,229.69a1.206,1.206,0,0,0,0,2.41A1.206,1.206,0,0,0,122.434,229.69Z" transform="translate(-86.338 -113.875)"/><path class="b" d="M227.314,363.324a1.2,1.2,0,0,0,0,2.408A1.2,1.2,0,0,0,227.314,363.324Z" transform="translate(5.476 3.111)"/><path class="b" d="M384.363,232.156a1.2,1.2,0,0,0,0,2.408A1.2,1.2,0,0,0,384.363,232.156Z" transform="translate(142.961 -111.716)"/><path class="b" d="M163.972,361.041a1.2,1.2,0,0,0,0,2.408A1.2,1.2,0,0,0,163.972,361.041Z" transform="translate(-49.974 1.113)"/><path class="b" d="M275.981,355.763c-4.2,0-4.207,6.526,0,6.526S280.187,355.763,275.981,355.763Z" transform="translate(46.339 -3.508)"/><path class="b" d="M173.124,355.137c-4.2,0-4.207,6.527,0,6.527S177.33,355.137,173.124,355.137Z" transform="translate(-43.705 -4.056)"/><path class="b" d="M140.276,190.359c-4.2,0-4.207,6.528,0,6.528S144.483,190.359,140.276,190.359Z" transform="translate(-72.46 -148.307)"/><path class="b" d="M388.8,286.688c-4.2,0-4.207,6.528,0,6.528S393.009,286.688,388.8,286.688Z" transform="translate(145.106 -63.978)"/></g></g></svg>