<svg xmlns="http://www.w3.org/2000/svg" xmlns:xlink="http://www.w3.org/1999/xlink" width="1920" height="1356" viewBox="0 0 1920 1356"><defs><style>.a,.e{fill:#f9ebfd;}.b,.c{fill:#f1caef;}.c,.e{fill-rule:evenodd;}.d{clip-path:url(#a);}</style><clipPath id="a"><rect class="a" width="1920" height="1356"/></clipPath></defs><g transform="translate(66.157 30.944)"><g transform="translate(114.662 0)"><path class="b" d="M10.919,34.776a2.061,2.061,0,1,1,2.06,2.061A2.06,2.06,0,0,1,10.919,34.776Z" transform="translate(267.944 102.904)"/><path class="b" d="M54.322,34.776a2.06,2.06,0,1,1,2.06,2.061A2.06,2.06,0,0,1,54.322,34.776Z" transform="translate(196.932 102.904)"/><circle class="b" cx="2.061" cy="2.061" r="2.061" transform="translate(223.644 135.62)"/><path class="b" d="M141.126,34.776a2.061,2.061,0,1,1,2.06,2.061A2.06,2.06,0,0,1,141.126,34.776Z" transform="translate(54.908 102.904)"/><path class="b" d="M10.919,77.182a2.061,2.061,0,1,1,2.06,2.06A2.06,2.06,0,0,1,10.919,77.182Z" transform="translate(267.944 33.524)"/><path class="b" d="M54.322,77.182a2.06,2.06,0,1,1,2.06,2.06A2.06,2.06,0,0,1,54.322,77.182Z" transform="translate(196.932 33.524)"/><path class="b" d="M97.724,77.182a2.061,2.061,0,1,1,2.061,2.06A2.061,2.061,0,0,1,97.724,77.182Z" transform="translate(125.92 33.524)"/><path class="b" d="M141.126,77.182a2.061,2.061,0,1,1,2.06,2.06A2.06,2.06,0,0,1,141.126,77.182Z" transform="translate(54.908 33.524)"/><path class="b" d="M10.919,119.587a2.061,2.061,0,1,1,2.06,2.06A2.061,2.061,0,0,1,10.919,119.587Z" transform="translate(267.944 -35.856)"/><path class="b" d="M54.322,119.587a2.06,2.06,0,1,1,2.06,2.06A2.061,2.061,0,0,1,54.322,119.587Z" transform="translate(196.932 -35.856)"/><circle class="b" cx="2.061" cy="2.061" r="2.061" transform="translate(223.644 81.67)"/><path class="b" d="M141.126,119.587a2.061,2.061,0,1,1,2.06,2.06A2.061,2.061,0,0,1,141.126,119.587Z" transform="translate(54.908 -35.856)"/><path class="b" d="M10.919,163.16a2.061,2.061,0,1,1,2.06,2.061A2.06,2.06,0,0,1,10.919,163.16Z" transform="translate(267.944 -107.149)"/><path class="b" d="M54.322,163.16a2.06,2.06,0,1,1,2.06,2.061A2.06,2.06,0,0,1,54.322,163.16Z" transform="translate(196.932 -107.149)"/><circle class="b" cx="2.061" cy="2.061" r="2.061" transform="translate(223.644 53.951)"/><path class="b" d="M141.126,163.16a2.061,2.061,0,1,1,2.06,2.061A2.06,2.06,0,0,1,141.126,163.16Z" transform="translate(54.908 -107.149)"/><path class="b" d="M10.919,205.565a2.061,2.061,0,1,1,2.06,2.061A2.06,2.06,0,0,1,10.919,205.565Z" transform="translate(267.944 -176.53)"/><path class="b" d="M54.322,205.565a2.06,2.06,0,1,1,2.06,2.061A2.06,2.06,0,0,1,54.322,205.565Z" transform="translate(196.932 -176.53)"/><circle class="b" cx="2.061" cy="2.061" r="2.061" transform="translate(223.644 26.975)"/><path class="b" d="M141.126,205.565a2.061,2.061,0,1,1,2.06,2.061A2.06,2.06,0,0,1,141.126,205.565Z" transform="translate(54.908 -176.53)"/><path class="b" d="M10.919,247.97a2.061,2.061,0,1,1,2.06,2.061A2.06,2.06,0,0,1,10.919,247.97Z" transform="translate(267.944 -245.91)"/><path class="b" d="M54.322,247.97a2.06,2.06,0,1,1,2.06,2.061A2.06,2.06,0,0,1,54.322,247.97Z" transform="translate(196.932 -245.91)"/><circle class="b" cx="2.061" cy="2.061" r="2.061" transform="translate(223.644)"/><path class="b" d="M141.126,247.97a2.061,2.061,0,1,1,2.06,2.061A2.06,2.06,0,0,1,141.126,247.97Z" transform="translate(54.908 -245.91)"/><circle class="b" cx="2.061" cy="2.061" r="2.061" transform="translate(167.042 135.62)"/><circle class="b" cx="2.061" cy="2.061" r="2.061" transform="translate(139.432 135.62)"/><path class="b" d="M273.507,34.776a2.061,2.061,0,1,1,2.061,2.061A2.061,2.061,0,0,1,273.507,34.776Z" transform="translate(-161.685 102.904)"/><path class="b" d="M316.909,34.776a2.061,2.061,0,1,1,2.061,2.061A2.06,2.06,0,0,1,316.909,34.776Z" transform="translate(-232.697 102.904)"/><path class="b" d="M186.7,77.182a2.061,2.061,0,1,1,2.061,2.06A2.061,2.061,0,0,1,186.7,77.182Z" transform="translate(-19.66 33.524)"/><path class="b" d="M230.1,77.182a2.061,2.061,0,1,1,2.06,2.06A2.06,2.06,0,0,1,230.1,77.182Z" transform="translate(-90.672 33.524)"/><path class="b" d="M273.507,77.182a2.061,2.061,0,1,1,2.061,2.06A2.061,2.061,0,0,1,273.507,77.182Z" transform="translate(-161.685 33.524)"/><path class="b" d="M316.909,77.182a2.061,2.061,0,1,1,2.061,2.06A2.061,2.061,0,0,1,316.909,77.182Z" transform="translate(-232.697 33.524)"/><circle class="b" cx="2.061" cy="2.061" r="2.061" transform="translate(167.042 81.67)"/><circle class="b" cx="2.061" cy="2.061" r="2.061" transform="translate(139.432 81.67)"/><path class="b" d="M273.507,119.587a2.061,2.061,0,1,1,2.061,2.06A2.061,2.061,0,0,1,273.507,119.587Z" transform="translate(-161.685 -35.856)"/><path class="b" d="M316.909,119.587a2.061,2.061,0,1,1,2.061,2.06A2.061,2.061,0,0,1,316.909,119.587Z" transform="translate(-232.697 -35.856)"/><circle class="b" cx="2.061" cy="2.061" r="2.061" transform="translate(167.042 53.951)"/><circle class="b" cx="2.061" cy="2.061" r="2.061" transform="translate(139.432 53.951)"/><path class="b" d="M273.507,163.16a2.061,2.061,0,1,1,2.061,2.061A2.061,2.061,0,0,1,273.507,163.16Z" transform="translate(-161.685 -107.149)"/><path class="b" d="M316.909,163.16a2.061,2.061,0,1,1,2.061,2.061A2.06,2.06,0,0,1,316.909,163.16Z" transform="translate(-232.697 -107.149)"/><circle class="b" cx="2.061" cy="2.061" r="2.061" transform="translate(167.042 26.975)"/><circle class="b" cx="2.061" cy="2.061" r="2.061" transform="translate(139.432 26.975)"/><path class="b" d="M273.507,205.565a2.061,2.061,0,1,1,2.061,2.061A2.061,2.061,0,0,1,273.507,205.565Z" transform="translate(-161.685 -176.53)"/><path class="b" d="M316.909,205.565a2.061,2.061,0,1,1,2.061,2.061A2.06,2.06,0,0,1,316.909,205.565Z" transform="translate(-232.697 -176.53)"/><circle class="b" cx="2.061" cy="2.061" r="2.061" transform="translate(167.042)"/><circle class="b" cx="2.061" cy="2.061" r="2.061" transform="translate(139.432)"/><path class="b" d="M273.507,247.97a2.061,2.061,0,1,1,2.061,2.061A2.061,2.061,0,0,1,273.507,247.97Z" transform="translate(-161.685 -245.91)"/><path class="b" d="M316.909,247.97a2.061,2.061,0,1,1,2.061,2.061A2.06,2.06,0,0,1,316.909,247.97Z" transform="translate(-232.697 -245.91)"/><path class="b" d="M362.485,34.776a2.061,2.061,0,1,1,2.061,2.061A2.06,2.06,0,0,1,362.485,34.776Z" transform="translate(-307.265 102.904)"/><path class="b" d="M405.887,34.776a2.061,2.061,0,1,1,2.06,2.061A2.06,2.06,0,0,1,405.887,34.776Z" transform="translate(-378.277 102.904)"/><circle class="b" cx="2.061" cy="2.061" r="2.061" transform="translate(0 135.62)"/><path class="b" d="M362.485,77.182a2.061,2.061,0,1,1,2.061,2.06A2.061,2.061,0,0,1,362.485,77.182Z" transform="translate(-307.265 33.524)"/><path class="b" d="M405.887,77.182a2.061,2.061,0,1,1,2.06,2.06A2.06,2.06,0,0,1,405.887,77.182Z" transform="translate(-378.277 33.524)"/><path class="b" d="M449.29,77.182a2.061,2.061,0,1,1,2.061,2.06A2.061,2.061,0,0,1,449.29,77.182Z" transform="translate(-449.29 33.524)"/><path class="b" d="M362.485,119.587a2.061,2.061,0,1,1,2.061,2.06A2.061,2.061,0,0,1,362.485,119.587Z" transform="translate(-307.265 -35.856)"/><path class="b" d="M405.887,119.587a2.061,2.061,0,1,1,2.06,2.06A2.061,2.061,0,0,1,405.887,119.587Z" transform="translate(-378.277 -35.856)"/><circle class="b" cx="2.061" cy="2.061" r="2.061" transform="translate(0 81.67)"/><path class="b" d="M362.485,163.16a2.061,2.061,0,1,1,2.061,2.061A2.06,2.06,0,0,1,362.485,163.16Z" transform="translate(-307.265 -107.149)"/><path class="b" d="M405.887,163.16a2.061,2.061,0,1,1,2.06,2.061A2.06,2.06,0,0,1,405.887,163.16Z" transform="translate(-378.277 -107.149)"/><circle class="b" cx="2.061" cy="2.061" r="2.061" transform="translate(0 53.951)"/><path class="b" d="M362.485,205.565a2.061,2.061,0,1,1,2.061,2.061A2.06,2.06,0,0,1,362.485,205.565Z" transform="translate(-307.265 -176.53)"/><path class="b" d="M405.887,205.565a2.061,2.061,0,1,1,2.06,2.061A2.06,2.06,0,0,1,405.887,205.565Z" transform="translate(-378.277 -176.53)"/><circle class="b" cx="2.061" cy="2.061" r="2.061" transform="translate(0 26.975)"/><path class="b" d="M362.485,247.97a2.061,2.061,0,1,1,2.061,2.061A2.06,2.06,0,0,1,362.485,247.97Z" transform="translate(-307.265 -245.91)"/><path class="b" d="M405.887,247.97a2.061,2.061,0,1,1,2.06,2.061A2.06,2.06,0,0,1,405.887,247.97Z" transform="translate(-378.277 -245.91)"/><circle class="b" cx="2.061" cy="2.061" r="2.061" transform="translate(0)"/></g><g transform="translate(0 70.453)"><g transform="translate(764.782 1014.981)"><path class="b" d="M290.619,124.73A2.266,2.266,0,1,1,292.885,127,2.267,2.267,0,0,1,290.619,124.73Z" transform="translate(16.023 26.664)"/><path class="b" d="M302.477,124.73A2.266,2.266,0,1,1,304.743,127,2.267,2.267,0,0,1,302.477,124.73Z" transform="translate(-26.194 26.664)"/><circle class="b" cx="2.266" cy="2.266" r="2.266" transform="translate(245.922 149.129)"/><path class="b" d="M326.194,124.73A2.266,2.266,0,1,1,328.46,127,2.267,2.267,0,0,1,326.194,124.73Z" transform="translate(-110.632 26.664)"/><path class="b" d="M290.619,136.316a2.266,2.266,0,1,1,2.266,2.266A2.265,2.265,0,0,1,290.619,136.316Z" transform="translate(16.023 -14.582)"/><path class="b" d="M302.477,136.316a2.266,2.266,0,1,1,2.266,2.266A2.265,2.265,0,0,1,302.477,136.316Z" transform="translate(-26.194 -14.582)"/><path class="b" d="M314.336,136.316a2.266,2.266,0,1,1,2.266,2.266A2.265,2.265,0,0,1,314.336,136.316Z" transform="translate(-68.415 -14.582)"/><path class="b" d="M326.194,136.316a2.266,2.266,0,1,1,2.266,2.266A2.265,2.265,0,0,1,326.194,136.316Z" transform="translate(-110.632 -14.582)"/><path class="b" d="M290.619,147.9a2.266,2.266,0,1,1,2.266,2.266A2.265,2.265,0,0,1,290.619,147.9Z" transform="translate(16.023 -55.83)"/><path class="b" d="M302.477,147.9a2.266,2.266,0,1,1,2.266,2.266A2.265,2.265,0,0,1,302.477,147.9Z" transform="translate(-26.194 -55.83)"/><circle class="b" cx="2.266" cy="2.266" r="2.266" transform="translate(245.922 89.805)"/><path class="b" d="M326.194,147.9a2.266,2.266,0,1,1,2.266,2.266A2.265,2.265,0,0,1,326.194,147.9Z" transform="translate(-110.632 -55.83)"/><path class="b" d="M290.619,159.808a2.266,2.266,0,1,1,2.266,2.266A2.267,2.267,0,0,1,290.619,159.808Z" transform="translate(16.023 -98.218)"/><path class="b" d="M302.477,159.808a2.266,2.266,0,1,1,2.266,2.266A2.267,2.267,0,0,1,302.477,159.808Z" transform="translate(-26.194 -98.218)"/><circle class="b" cx="2.266" cy="2.266" r="2.266" transform="translate(245.922 59.324)"/><path class="b" d="M326.194,159.808a2.266,2.266,0,1,1,2.266,2.266A2.267,2.267,0,0,1,326.194,159.808Z" transform="translate(-110.632 -98.218)"/><path class="b" d="M290.619,171.4a2.266,2.266,0,1,1,2.266,2.266A2.267,2.267,0,0,1,290.619,171.4Z" transform="translate(16.023 -139.466)"/><path class="b" d="M302.477,171.4a2.266,2.266,0,1,1,2.266,2.266A2.267,2.267,0,0,1,302.477,171.4Z" transform="translate(-26.194 -139.466)"/><circle class="b" cx="2.266" cy="2.266" r="2.266" transform="translate(245.922 29.662)"/><path class="b" d="M326.194,171.4a2.266,2.266,0,1,1,2.266,2.266A2.267,2.267,0,0,1,326.194,171.4Z" transform="translate(-110.632 -139.466)"/><path class="b" d="M290.619,182.979a2.266,2.266,0,1,1,2.266,2.266A2.265,2.265,0,0,1,290.619,182.979Z" transform="translate(16.023 -180.712)"/><path class="b" d="M302.477,182.979a2.266,2.266,0,1,1,2.266,2.266A2.265,2.265,0,0,1,302.477,182.979Z" transform="translate(-26.194 -180.712)"/><circle class="b" cx="2.266" cy="2.266" r="2.266" transform="translate(245.922)"/><path class="b" d="M326.194,182.979a2.266,2.266,0,1,1,2.266,2.266A2.265,2.265,0,0,1,326.194,182.979Z" transform="translate(-110.632 -180.712)"/><circle class="b" cx="2.266" cy="2.266" r="2.266" transform="translate(183.681 149.129)"/><circle class="b" cx="2.266" cy="2.266" r="2.266" transform="translate(153.321 149.129)"/><path class="b" d="M362.363,124.73A2.266,2.266,0,1,1,364.629,127,2.267,2.267,0,0,1,362.363,124.73Z" transform="translate(-239.401 26.664)"/><path class="b" d="M374.221,124.73A2.267,2.267,0,1,1,376.489,127,2.269,2.269,0,0,1,374.221,124.73Z" transform="translate(-281.62 26.664)"/><path class="b" d="M338.646,136.316a2.266,2.266,0,1,1,2.266,2.266A2.265,2.265,0,0,1,338.646,136.316Z" transform="translate(-154.963 -14.582)"/><path class="b" d="M350.505,136.316a2.266,2.266,0,1,1,2.266,2.266A2.265,2.265,0,0,1,350.505,136.316Z" transform="translate(-197.184 -14.582)"/><path class="b" d="M362.363,136.316a2.266,2.266,0,1,1,2.266,2.266A2.265,2.265,0,0,1,362.363,136.316Z" transform="translate(-239.401 -14.582)"/><path class="b" d="M374.221,136.316a2.267,2.267,0,1,1,2.268,2.266A2.267,2.267,0,0,1,374.221,136.316Z" transform="translate(-281.62 -14.582)"/><circle class="b" cx="2.266" cy="2.266" r="2.266" transform="translate(183.681 89.805)"/><circle class="b" cx="2.266" cy="2.266" r="2.266" transform="translate(153.321 89.805)"/><path class="b" d="M362.363,147.9a2.266,2.266,0,1,1,2.266,2.266A2.265,2.265,0,0,1,362.363,147.9Z" transform="translate(-239.401 -55.83)"/><path class="b" d="M374.221,147.9a2.267,2.267,0,1,1,2.268,2.266A2.267,2.267,0,0,1,374.221,147.9Z" transform="translate(-281.62 -55.83)"/><circle class="b" cx="2.266" cy="2.266" r="2.266" transform="translate(183.681 59.324)"/><circle class="b" cx="2.266" cy="2.266" r="2.266" transform="translate(153.321 59.324)"/><path class="b" d="M362.363,159.808a2.266,2.266,0,1,1,2.266,2.266A2.267,2.267,0,0,1,362.363,159.808Z" transform="translate(-239.401 -98.218)"/><path class="b" d="M374.221,159.808a2.267,2.267,0,1,1,2.268,2.266A2.269,2.269,0,0,1,374.221,159.808Z" transform="translate(-281.62 -98.218)"/><circle class="b" cx="2.266" cy="2.266" r="2.266" transform="translate(183.681 29.662)"/><circle class="b" cx="2.266" cy="2.266" r="2.266" transform="translate(153.321 29.662)"/><path class="b" d="M362.363,171.4a2.266,2.266,0,1,1,2.266,2.266A2.267,2.267,0,0,1,362.363,171.4Z" transform="translate(-239.401 -139.466)"/><path class="b" d="M374.221,171.4a2.267,2.267,0,1,1,2.268,2.266A2.269,2.269,0,0,1,374.221,171.4Z" transform="translate(-281.62 -139.466)"/><circle class="b" cx="2.266" cy="2.266" r="2.266" transform="translate(183.681)"/><circle class="b" cx="2.266" cy="2.266" r="2.266" transform="translate(153.321)"/><path class="b" d="M362.363,182.979a2.266,2.266,0,1,1,2.266,2.266A2.265,2.265,0,0,1,362.363,182.979Z" transform="translate(-239.401 -180.712)"/><path class="b" d="M374.221,182.979a2.267,2.267,0,1,1,2.268,2.266A2.267,2.267,0,0,1,374.221,182.979Z" transform="translate(-281.62 -180.712)"/><path class="b" d="M386.674,124.73A2.266,2.266,0,1,1,388.94,127,2.267,2.267,0,0,1,386.674,124.73Z" transform="translate(-325.953 26.664)"/><path class="b" d="M398.532,124.73A2.266,2.266,0,1,1,400.8,127,2.267,2.267,0,0,1,398.532,124.73Z" transform="translate(-368.17 26.664)"/><circle class="b" cx="2.266" cy="2.266" r="2.266" transform="translate(0.001 149.129)"/><path class="b" d="M386.674,136.316a2.266,2.266,0,1,1,2.266,2.266A2.265,2.265,0,0,1,386.674,136.316Z" transform="translate(-325.953 -14.582)"/><path class="b" d="M398.532,136.316a2.266,2.266,0,1,1,2.266,2.266A2.265,2.265,0,0,1,398.532,136.316Z" transform="translate(-368.17 -14.582)"/><path class="b" d="M410.39,136.316a2.267,2.267,0,1,1,2.268,2.266A2.267,2.267,0,0,1,410.39,136.316Z" transform="translate(-410.39 -14.582)"/><path class="b" d="M386.674,147.9a2.266,2.266,0,1,1,2.266,2.266A2.265,2.265,0,0,1,386.674,147.9Z" transform="translate(-325.953 -55.83)"/><path class="b" d="M398.532,147.9a2.266,2.266,0,1,1,2.266,2.266A2.265,2.265,0,0,1,398.532,147.9Z" transform="translate(-368.17 -55.83)"/><circle class="b" cx="2.266" cy="2.266" r="2.266" transform="translate(0.001 89.805)"/><path class="b" d="M386.674,159.808a2.266,2.266,0,1,1,2.266,2.266A2.267,2.267,0,0,1,386.674,159.808Z" transform="translate(-325.953 -98.218)"/><path class="b" d="M398.532,159.808a2.266,2.266,0,1,1,2.266,2.266A2.267,2.267,0,0,1,398.532,159.808Z" transform="translate(-368.17 -98.218)"/><circle class="b" cx="2.266" cy="2.266" r="2.266" transform="translate(0.001 59.324)"/><path class="b" d="M386.674,171.4a2.266,2.266,0,1,1,2.266,2.266A2.267,2.267,0,0,1,386.674,171.4Z" transform="translate(-325.953 -139.466)"/><path class="b" d="M398.532,171.4a2.266,2.266,0,1,1,2.266,2.266A2.267,2.267,0,0,1,398.532,171.4Z" transform="translate(-368.17 -139.466)"/><circle class="b" cx="2.266" cy="2.266" r="2.266" transform="translate(0.001 29.662)"/><path class="b" d="M386.674,182.979a2.266,2.266,0,1,1,2.266,2.266A2.265,2.265,0,0,1,386.674,182.979Z" transform="translate(-325.953 -180.712)"/><path class="b" d="M398.532,182.979a2.266,2.266,0,1,1,2.266,2.266A2.265,2.265,0,0,1,398.532,182.979Z" transform="translate(-368.17 -180.712)"/><circle class="b" cx="2.266" cy="2.266" r="2.266" transform="translate(0.001)"/></g><path class="c" d="M1663.311,705.96a2.908,2.908,0,0,0-5.816,0v13.082a2.908,2.908,0,1,0,5.816,0V705.96Zm19.833,10.624a2.909,2.909,0,0,0-4.113-4.116l-9.255,9.253a2.91,2.91,0,0,0,4.113,4.117l9.255-9.254Zm6.51,21.537a2.911,2.911,0,1,0,0-5.823h-13.086a2.912,2.912,0,0,0,0,5.823Zm-10.623,19.835a2.909,2.909,0,0,0,4.113-4.116l-9.255-9.254a2.909,2.909,0,0,0-4.113,4.116l9.255,9.254Zm-21.536,6.508a2.908,2.908,0,0,0,5.816,0V751.372a2.908,2.908,0,0,0-5.816,0v13.092Zm-19.833-10.624a2.91,2.91,0,0,0,4.116,4.116l9.255-9.254a2.91,2.91,0,0,0-4.116-4.116l-9.255,9.254Zm-6.509-21.542a2.911,2.911,0,1,0,0,5.823h13.086a2.911,2.911,0,0,0,0-5.823Zm10.625-19.83a2.91,2.91,0,0,0-4.116,4.116l9.255,9.254a2.911,2.911,0,0,0,4.116-4.117Z" transform="translate(-1628.241 456.149)"/><path class="c" d="M1663.311,705.96a2.908,2.908,0,0,0-5.816,0v13.082a2.908,2.908,0,1,0,5.816,0V705.96Zm19.833,10.624a2.909,2.909,0,0,0-4.113-4.116l-9.255,9.253a2.91,2.91,0,0,0,4.113,4.117l9.255-9.254Zm6.51,21.537a2.911,2.911,0,1,0,0-5.823h-13.086a2.912,2.912,0,0,0,0,5.823Zm-10.623,19.835a2.909,2.909,0,0,0,4.113-4.116l-9.255-9.254a2.909,2.909,0,0,0-4.113,4.116l9.255,9.254Zm-21.536,6.508a2.908,2.908,0,0,0,5.816,0V751.372a2.908,2.908,0,0,0-5.816,0v13.092Zm-19.833-10.624a2.91,2.91,0,0,0,4.116,4.116l9.255-9.254a2.91,2.91,0,0,0-4.116-4.116l-9.255,9.254Zm-6.509-21.542a2.911,2.911,0,1,0,0,5.823h13.086a2.911,2.911,0,0,0,0-5.823Zm10.625-19.83a2.91,2.91,0,0,0-4.116,4.116l9.255,9.254a2.911,2.911,0,0,0,4.116-4.117Z" transform="translate(-22.241 -703.053)"/></g></g><g class="d"><path class="e" d="M417.671,1286.2H353.179c-34.71,0-63.109,57.086-63.109,126.853h0c0,69.77,28.4,126.854,63.109,126.854H898.5c56.206,0,102.191-92.434,102.191-205.409h0c0-112.979-45.985-205.413-102.19-205.413h0c-23.765,0-43.208-39.081-43.208-86.85h0c0-47.769,19.444-86.854,43.209-86.854h52c24.708,0,44.924-40.635,44.924-90.3h0c0-49.665-20.216-90.3-44.924-90.3H884.746c-9.618,0-17.49-15.822-17.49-35.155h0c0-19.333,7.872-35.152,17.49-35.152h11.592c6.638,0,12.069-10.92,12.069-24.263h0c0-13.343-5.431-24.263-12.069-24.263H820.275c-16.019,0-17.8,38.04-58.267,38.04H699.542c-8.663,0,26.075,14.253,26.075,31.66l-15.338-31.66c0,17.41-8.663,31.66,0,31.66l150.313,31.656c12.552,0-177.225,20.646-177.225,45.87v0c0,25.228-10.27,45.874-22.822,45.874H637.782c-61.469,0-70.15,32.289-80.916,96.509s-66.679,69.4-66.679,69.4H413.735c-18.916,0-34.391,31.107-34.391,69.126v0c0,38.019,15.476,69.126,34.391,69.126h3.937c18.193,0,33.079,29.923,33.079,66.491h0c0,36.569-14.886,66.489-33.079,66.489Zm512.54-581.723c-6.667,0-12.071-10.865-12.071-24.263s5.4-24.263,12.071-24.263,12.071,10.865,12.071,24.263S936.877,704.481,930.211,704.481Z" transform="translate(1407.753 -151.325)"/><path class="e" d="M-569.759,1325.089h-78.654c-42.334,0-76.966,61.921-76.966,137.6h0c0,75.68,34.632,137.6,76.966,137.6H16.652c68.548,0,124.631-100.263,124.631-222.809h0c0-122.548-56.083-222.808-124.629-222.808h0c-28.983,0-52.7-42.4-52.7-94.21h0c0-51.815,23.714-94.21,52.7-94.21H80.073c30.133,0,54.786-44.077,54.786-97.945h0c0-53.871-24.653-97.949-54.786-97.949H-.124c-11.732,0-21.33-17.159-21.33-38.133h0c0-20.971,9.6-38.13,21.33-38.13H14.014c8.094,0,14.719-11.844,14.719-26.318h0c0-14.474-6.625-26.318-14.719-26.318H-78.751c-19.537,0-21.713,41.262-71.061,41.262H-292c-10.567,0-19.209,15.457-19.209,34.342h0c0,18.884,8.644,34.341,19.209,34.341h18.446c15.308,0,27.833,22.391,27.833,49.756h0c0,27.365-12.525,49.76-27.833,49.76h-27.761c-74.966,0-85.555,35.023-98.683,104.683s-81.321,75.28-81.321,75.28h-93.24c-23.069,0-41.943,33.742-41.943,74.982v0c0,41.239,18.874,74.981,41.943,74.981h4.8c22.188,0,40.341,32.458,40.341,72.124h0c0,39.667-18.153,72.121-40.341,72.121Zm625.083-631c-8.131,0-14.721-11.782-14.721-26.318s6.59-26.318,14.721-26.318,14.721,11.785,14.721,26.318S63.451,694.091,55.324,694.091Z" transform="translate(603.043 -243.246)"/></g></svg>