<svg xmlns="http://www.w3.org/2000/svg" width="664.944" height="664.454" viewBox="0 0 664.944 664.454"><defs><style>.a,.m{fill:#333;}.a{stroke:rgba(0,0,0,0);stroke-miterlimit:10;}.b{fill:#263238;}.c{fill:#d3766a;}.d{fill:#24669a;}.e{fill:#fff;}.f,.j{opacity:0.1;}.g{fill:#ff9abb;}.h{fill:#1f74a3;}.i,.j{fill:#ff994d;}.k{fill:#ff6e4a;}.l{opacity:0.2;}</style></defs><g transform="translate(0 0.5)"><g transform="translate(132.698)"><path class="a" d="M531.745,663.457H0V0H531.745V663.456ZM30.209,118.371V589.7H501.535V118.371Z" transform="translate(531.745 663.456) rotate(180)"/><path d="M177.629,372.616h377.3V486.131Z" transform="translate(-147.419 172.47)"/></g><g transform="translate(0 97.617)"><g transform="translate(334.852 27.446)"><path class="b" d="M182.986,341.7a1.714,1.714,0,0,0,1.6,1.6c1.977-.112,4.347-.282,7.007-.46,4.089-17.021,9.1-30.78,8.009-25.521-1.587,7.607-2.086,18.323-1.127,25.038,3.086-.229,10.228-.826,13.806-1.125,1.642-29.242,5.785-51.311,6.214-44.723,1.728,26.561,4.4,34.822,7.418,43.623,33.307-2.81,76.928-6.971,108.4-10.657,1.552-16.248,2.48-33.737,3.186-32.616,5.457,8.355,8.322,21.128,9.727,31.074,10.011-1.247,17.988-2.423,22.817-3.386,0,0,.591-13.569.354-17.975a91.985,91.985,0,0,0-7.88-32.767c-4.779-10.62-11.813-19.628-18.581-28.923a1.043,1.043,0,0,0-.164-.2c0-.031-.027-.037-.053-.076a94.556,94.556,0,0,1-11.064-19.48.468.468,0,0,1-.074-.151,91.164,91.164,0,0,1-4.666-15.464c-4.022-19.288-17.209-34.7-36.194-37.44-38.861-28.026-71.7-9.794-78.875,16.552-.687,2.566-1.3,5.486-1.848,8.655l-.014.1c-2.061,11.721-3.31,26.746-4.754,38.421a.049.049,0,0,1-.01.067c.027.039.021.072-.02.131l0,.033a107.781,107.781,0,0,1-2.392,13.581C197.745,271.076,179.3,285.236,182.986,341.7Z" transform="translate(-174.63 -158.007)"/><path class="b" d="M181.919,167.43c12.839,4.687,21.409,12.872,25.144,26.848,2.174,8.146,3.791,16.16,8,23.566,4.347,7.643,10.418,13.583,16.632,19.5,9.876,9.4,17.174,19.086,20.329,32.867,3.2,14,4.723,30.808,1.681,44.653a.062.062,0,1,1-.121-.023c2.114-13.911-.227-32.483-4.462-46.214-4.654-15.082-14.665-23.644-25.142-34.2A64.921,64.921,0,0,1,206.7,204.659c-1.818-6.911-2.677-14.236-6.376-20.488-4.413-7.461-11.808-11.608-19.071-15.193A.843.843,0,0,1,181.919,167.43Z" transform="translate(-56.146 -149.043)"/><path class="b" d="M275.708,254.9c7.024-12.15,14.614-22.719,17.779-37.072,2.881-13.078,3.732-26.611,6.7-39.683a.162.162,0,1,1,.319.055c-4.184,23.073-2.619,45.6-14.471,66.093-6.441,11.134-12.976,21.527-16.5,34.334-3.707,13.455-4.276,27.034-2.783,41.1.053.491-.577.546-.683.082A90.277,90.277,0,0,1,275.708,254.9Z" transform="translate(-263.803 -138.87)"/></g><g transform="translate(267.284 190.899)"><g transform="translate(0 8.722)"><path class="c" d="M359.723,266.955C297.219,332.471,219.5,469.386,234.87,496.622,251.991,526.958,342.126,433.7,339.3,429.231c-2.4-3.793,28.739-86.234,51.364-146.526C413.265,222.469,375.178,250.754,359.723,266.955Z" transform="translate(-232.9 -245.98)"/><g transform="translate(50.235)"><path class="d" d="M231.664,345.5l89.751,16.158s22.405-63.592,26.848-98.9c2.491-19.787-9.138-20.6-23.77-10.085C273.285,289.48,231.664,345.5,231.664,345.5Z" transform="translate(-231.664 -245.98)"/><path class="e" d="M315.45,272.371a6.893,6.893,0,0,0,1.489,1.748,10.842,10.842,0,0,0,.994.781h.26a8.84,8.84,0,0,0,2.484-2.533,2.776,2.776,0,0,0,.172-2.648,1.323,1.323,0,0,0-1.17-.669,1.829,1.829,0,0,0-1.615,1.139,1.828,1.828,0,0,0-1.613-1.139,1.325,1.325,0,0,0-1.174.669A2.784,2.784,0,0,0,315.45,272.371Zm-27.745-2.243a3,3,0,0,1-.325,2.233A9.038,9.038,0,0,1,284.9,274.9h-.264a8.8,8.8,0,0,1-.994-.771,1.09,1.09,0,0,1-.223-.223C284.822,272.645,286.263,271.367,287.705,270.128Zm44.228-21.84a1.307,1.307,0,0,1,1.157-.669,1.525,1.525,0,0,1,.752.182v.02a12.542,12.542,0,0,1,1.7,5.116,5.509,5.509,0,0,1-.71.526h-.264c-.02-.02-.466-.323-.973-.771a6.925,6.925,0,0,1-1.5-1.746A2.791,2.791,0,0,1,331.933,248.288Zm-16.655,64.13a1.321,1.321,0,0,1,1.174-.669,1.828,1.828,0,0,1,1.613,1.139,1.829,1.829,0,0,1,1.615-1.139,1.319,1.319,0,0,1,1.17.669,2.776,2.776,0,0,1-.172,2.648,8.82,8.82,0,0,1-2.484,2.531h-.26a10.428,10.428,0,0,1-.994-.781,6.883,6.883,0,0,1-1.489-1.746A2.784,2.784,0,0,1,315.278,312.418Zm-33.3,0a1.321,1.321,0,0,1,1.174-.669,1.823,1.823,0,0,1,1.611,1.139,1.831,1.831,0,0,1,1.617-1.139,1.319,1.319,0,0,1,1.17.669,2.777,2.777,0,0,1-.172,2.648,8.82,8.82,0,0,1-2.484,2.531h-.26a10.43,10.43,0,0,1-.994-.781,6.882,6.882,0,0,1-1.489-1.746A2.784,2.784,0,0,1,281.979,312.418Zm-33.3,0a1.318,1.318,0,0,1,1.172-.669,1.824,1.824,0,0,1,1.613,1.139,1.832,1.832,0,0,1,1.617-1.139,1.319,1.319,0,0,1,1.17.669,2.776,2.776,0,0,1-.172,2.648A8.821,8.821,0,0,1,251.6,317.6h-.26a10.448,10.448,0,0,1-.994-.781,6.882,6.882,0,0,1-1.489-1.746A2.784,2.784,0,0,1,248.679,312.418Zm49.949-21.429a1.325,1.325,0,0,1,1.174-.669,1.823,1.823,0,0,1,1.611,1.139,1.834,1.834,0,0,1,1.617-1.139,1.323,1.323,0,0,1,1.17.669,2.776,2.776,0,0,1-.172,2.648,8.868,8.868,0,0,1-2.484,2.533h-.26a10.83,10.83,0,0,1-.994-.781,6.894,6.894,0,0,1-1.489-1.748A2.784,2.784,0,0,1,298.628,290.99Zm-33.3,0a1.322,1.322,0,0,1,1.172-.669,1.824,1.824,0,0,1,1.613,1.139,1.832,1.832,0,0,1,1.617-1.139,1.323,1.323,0,0,1,1.17.669,2.776,2.776,0,0,1-.172,2.648,8.868,8.868,0,0,1-2.484,2.533h-.26a10.83,10.83,0,0,1-.994-.781,6.9,6.9,0,0,1-1.489-1.748A2.784,2.784,0,0,1,265.329,290.99Zm16.651,64.126a1.338,1.338,0,0,1,1.178-.671,1.817,1.817,0,0,1,1.6,1.137,1.823,1.823,0,0,1,1.624-1.137,1.307,1.307,0,0,1,1.157.671,2.231,2.231,0,0,1,.264,1.237L281.92,355.3A.321.321,0,0,1,281.981,355.116Zm16.648-21.429a1.325,1.325,0,0,1,1.174-.669,1.823,1.823,0,0,1,1.611,1.139,1.834,1.834,0,0,1,1.617-1.139,1.323,1.323,0,0,1,1.17.669,2.776,2.776,0,0,1-.172,2.648,8.811,8.811,0,0,1-2.484,2.533h-.26a10.837,10.837,0,0,1-.994-.781,6.892,6.892,0,0,1-1.489-1.748A2.784,2.784,0,0,1,298.628,333.687Zm-33.3,0a1.322,1.322,0,0,1,1.172-.669,1.824,1.824,0,0,1,1.613,1.139,1.832,1.832,0,0,1,1.617-1.139,1.323,1.323,0,0,1,1.17.669,2.776,2.776,0,0,1-.172,2.648,8.812,8.812,0,0,1-2.484,2.533h-.26a10.837,10.837,0,0,1-.994-.781,6.892,6.892,0,0,1-1.489-1.748A2.784,2.784,0,0,1,265.329,333.687Zm-33.3,0a1.322,1.322,0,0,1,1.172-.669,1.824,1.824,0,0,1,1.613,1.139,1.832,1.832,0,0,1,1.617-1.139,1.323,1.323,0,0,1,1.17.669,2.776,2.776,0,0,1-.172,2.648,8.812,8.812,0,0,1-2.484,2.533h-.262a11.3,11.3,0,0,1-.992-.781,6.892,6.892,0,0,1-1.489-1.748A2.784,2.784,0,0,1,232.03,333.687Z" transform="translate(-218.811 -244.411)"/><g transform="translate(13.279 86.033)"><path class="b" d="M321.676,304.893c-13.6-3.631-50.782-12.406-75.689-14.955-.151-.014-.274.548-.129.585,20.4,5.243,61.768,12.768,75.632,15.2C321.751,305.773,321.931,304.961,321.676,304.893Z" transform="translate(-245.793 -289.938)"/></g><path class="f" d="M231.666,347.67l77.74,13.986s22.388-63.594,26.835-98.891c1.6-12.667-2.6-17.558-9.662-16.685Z" transform="translate(-219.647 -245.978)"/></g></g><g transform="translate(88.595)"><path class="d" d="M154.687,498.2H382.15s-20.693-158.684-93.967-242.126c-19.767-22.511-55.617-15.849-72.579-.613-4.231,3.807-10.081,10.5-16.5,18.738C183.7,294,158.533,341.538,156.18,354.4c-3.885,21.251,14.925,44.218,14.925,44.218Z" transform="translate(-152.916 -241.523)"/><path class="e" d="M272.024,272.369a6.893,6.893,0,0,0,1.489,1.748,10.837,10.837,0,0,0,.994.781h.26a8.839,8.839,0,0,0,2.484-2.533,2.776,2.776,0,0,0,.172-2.648,1.32,1.32,0,0,0-1.168-.669,1.829,1.829,0,0,0-1.617,1.139,1.826,1.826,0,0,0-1.613-1.139,1.325,1.325,0,0,0-1.174.669A2.784,2.784,0,0,0,272.024,272.369Zm-33.471-2.652a1.325,1.325,0,0,1,1.174-.669,1.828,1.828,0,0,1,1.613,1.139,1.829,1.829,0,0,1,1.615-1.139,1.323,1.323,0,0,1,1.17.669,2.776,2.776,0,0,1-.172,2.648,8.84,8.84,0,0,1-2.484,2.533h-.26a10.856,10.856,0,0,1-.994-.781,6.893,6.893,0,0,1-1.489-1.748A2.784,2.784,0,0,1,238.553,269.717Zm-33.3,0a1.325,1.325,0,0,1,1.174-.669,1.828,1.828,0,0,1,1.613,1.139,1.829,1.829,0,0,1,1.615-1.139,1.323,1.323,0,0,1,1.17.669,2.776,2.776,0,0,1-.172,2.648,8.84,8.84,0,0,1-2.484,2.533h-.26a10.842,10.842,0,0,1-.994-.781,6.893,6.893,0,0,1-1.489-1.748A2.784,2.784,0,0,1,205.254,269.717ZM255.2,248.29a1.325,1.325,0,0,1,1.174-.669,1.826,1.826,0,0,1,1.613,1.139,1.829,1.829,0,0,1,1.615-1.139,1.321,1.321,0,0,1,1.17.669,2.776,2.776,0,0,1-.172,2.648,8.869,8.869,0,0,1-2.484,2.533h-.26a11.066,11.066,0,0,1-.994-.783,6.883,6.883,0,0,1-1.489-1.746A2.784,2.784,0,0,1,255.2,248.29Zm-33.3,0a1.325,1.325,0,0,1,1.174-.669,1.828,1.828,0,0,1,1.613,1.139,1.829,1.829,0,0,1,1.615-1.139,1.323,1.323,0,0,1,1.17.669,2.776,2.776,0,0,1-.172,2.648,8.869,8.869,0,0,1-2.484,2.533h-.26a11.067,11.067,0,0,1-.994-.783,6.884,6.884,0,0,1-1.489-1.746A2.784,2.784,0,0,1,221.9,248.29Zm83.248,64.126a1.321,1.321,0,0,1,1.174-.669,1.826,1.826,0,0,1,1.613,1.139,1.829,1.829,0,0,1,1.617-1.139,1.316,1.316,0,0,1,1.168.669,2.776,2.776,0,0,1-.172,2.648,8.85,8.85,0,0,1-2.482,2.531h-.262a10.435,10.435,0,0,1-.994-.781,6.884,6.884,0,0,1-1.489-1.746A2.789,2.789,0,0,1,305.151,312.417Zm-33.3,0a1.321,1.321,0,0,1,1.174-.669,1.826,1.826,0,0,1,1.613,1.139,1.829,1.829,0,0,1,1.617-1.139,1.316,1.316,0,0,1,1.168.669,2.776,2.776,0,0,1-.172,2.648,8.82,8.82,0,0,1-2.484,2.531h-.26a10.424,10.424,0,0,1-.994-.781,6.883,6.883,0,0,1-1.489-1.746A2.784,2.784,0,0,1,271.852,312.417Zm-33.3,0a1.321,1.321,0,0,1,1.174-.669,1.828,1.828,0,0,1,1.613,1.139,1.829,1.829,0,0,1,1.615-1.139,1.319,1.319,0,0,1,1.17.669,2.776,2.776,0,0,1-.172,2.648,8.821,8.821,0,0,1-2.484,2.531h-.26a10.441,10.441,0,0,1-.994-.781,6.883,6.883,0,0,1-1.489-1.746A2.784,2.784,0,0,1,238.553,312.417Zm-33.3,0a1.321,1.321,0,0,1,1.174-.669,1.828,1.828,0,0,1,1.613,1.139,1.829,1.829,0,0,1,1.615-1.139,1.319,1.319,0,0,1,1.17.669,2.776,2.776,0,0,1-.172,2.648,8.82,8.82,0,0,1-2.484,2.531h-.26a10.428,10.428,0,0,1-.994-.781,6.883,6.883,0,0,1-1.489-1.746A2.784,2.784,0,0,1,205.254,312.417Zm-33.3,0a1.321,1.321,0,0,1,1.174-.669,1.823,1.823,0,0,1,1.611,1.139,1.831,1.831,0,0,1,1.617-1.139,1.319,1.319,0,0,1,1.17.669,2.777,2.777,0,0,1-.172,2.648,8.82,8.82,0,0,1-2.484,2.531h-.26a10.433,10.433,0,0,1-.994-.781,6.883,6.883,0,0,1-1.489-1.746A2.784,2.784,0,0,1,171.954,312.417ZM288.5,290.988a1.325,1.325,0,0,1,1.174-.669,1.826,1.826,0,0,1,1.613,1.139,1.829,1.829,0,0,1,1.617-1.139,1.32,1.32,0,0,1,1.168.669,2.776,2.776,0,0,1-.172,2.648,8.9,8.9,0,0,1-2.482,2.533h-.262a10.849,10.849,0,0,1-.994-.781,6.9,6.9,0,0,1-1.489-1.748A2.784,2.784,0,0,1,288.5,290.988Zm-33.3,0a1.325,1.325,0,0,1,1.174-.669,1.826,1.826,0,0,1,1.613,1.139,1.829,1.829,0,0,1,1.615-1.139,1.321,1.321,0,0,1,1.17.669,2.776,2.776,0,0,1-.172,2.648,8.868,8.868,0,0,1-2.484,2.533h-.26a10.843,10.843,0,0,1-.994-.781,6.893,6.893,0,0,1-1.489-1.748A2.784,2.784,0,0,1,255.2,290.988Zm-33.3,0a1.325,1.325,0,0,1,1.174-.669,1.828,1.828,0,0,1,1.613,1.139,1.829,1.829,0,0,1,1.615-1.139,1.323,1.323,0,0,1,1.17.669,2.776,2.776,0,0,1-.172,2.648,8.868,8.868,0,0,1-2.484,2.533h-.26a10.844,10.844,0,0,1-.994-.781,6.894,6.894,0,0,1-1.489-1.748A2.784,2.784,0,0,1,221.9,290.988Zm-33.3,0a1.325,1.325,0,0,1,1.174-.669,1.823,1.823,0,0,1,1.611,1.139,1.834,1.834,0,0,1,1.617-1.139,1.323,1.323,0,0,1,1.17.669,2.776,2.776,0,0,1-.172,2.648,8.868,8.868,0,0,1-2.484,2.533h-.26a10.836,10.836,0,0,1-.994-.781,6.894,6.894,0,0,1-1.489-1.748A2.784,2.784,0,0,1,188.6,290.988ZM338.46,355.114a1.3,1.3,0,0,1,1.157-.671,1.827,1.827,0,0,1,1.624,1.137c.039-.061.061-.141.1-.2.487,1.258.955,2.5,1.4,3.756v.02a10.6,10.6,0,0,1-1.38,1.137H341.1c-.02-.02-.468-.325-.994-.771a7.707,7.707,0,0,1-1.482-1.746A2.78,2.78,0,0,1,338.46,355.114Zm-33.309,0a1.325,1.325,0,0,1,1.174-.669,1.826,1.826,0,0,1,1.613,1.139,1.829,1.829,0,0,1,1.617-1.139,1.32,1.32,0,0,1,1.168.669,2.776,2.776,0,0,1-.172,2.648,8.9,8.9,0,0,1-2.482,2.533h-.262a10.856,10.856,0,0,1-.994-.781,6.892,6.892,0,0,1-1.489-1.748A2.789,2.789,0,0,1,305.151,355.114Zm-33.3,0a1.325,1.325,0,0,1,1.174-.669,1.826,1.826,0,0,1,1.613,1.139,1.829,1.829,0,0,1,1.617-1.139,1.32,1.32,0,0,1,1.168.669,2.776,2.776,0,0,1-.172,2.648,8.869,8.869,0,0,1-2.484,2.533h-.26a10.844,10.844,0,0,1-.994-.781,6.892,6.892,0,0,1-1.489-1.748A2.784,2.784,0,0,1,271.852,355.114Zm-33.3,0a1.325,1.325,0,0,1,1.174-.669,1.828,1.828,0,0,1,1.613,1.139,1.829,1.829,0,0,1,1.615-1.139,1.323,1.323,0,0,1,1.17.669,2.776,2.776,0,0,1-.172,2.648,8.87,8.87,0,0,1-2.484,2.533h-.26a10.863,10.863,0,0,1-.994-.781,6.892,6.892,0,0,1-1.489-1.748A2.784,2.784,0,0,1,238.553,355.114Zm-33.3,0a1.325,1.325,0,0,1,1.174-.669,1.828,1.828,0,0,1,1.613,1.139,1.829,1.829,0,0,1,1.615-1.139,1.323,1.323,0,0,1,1.17.669,2.776,2.776,0,0,1-.172,2.648,8.869,8.869,0,0,1-2.484,2.533h-.26a10.848,10.848,0,0,1-.994-.781,6.892,6.892,0,0,1-1.489-1.748A2.784,2.784,0,0,1,205.254,355.114Zm-33.3,0a1.325,1.325,0,0,1,1.174-.669,1.823,1.823,0,0,1,1.611,1.139,1.832,1.832,0,0,1,1.617-1.139,1.323,1.323,0,0,1,1.17.669,2.776,2.776,0,0,1-.172,2.648,8.869,8.869,0,0,1-2.484,2.533h-.26a10.853,10.853,0,0,1-.994-.781,6.892,6.892,0,0,1-1.489-1.748A2.784,2.784,0,0,1,171.954,355.114ZM321.8,333.685a1.325,1.325,0,0,1,1.174-.669,1.826,1.826,0,0,1,1.613,1.139,1.829,1.829,0,0,1,1.617-1.139,1.32,1.32,0,0,1,1.168.669,2.776,2.776,0,0,1-.172,2.648,8.841,8.841,0,0,1-2.482,2.533h-.262a10.686,10.686,0,0,1-.992-.781,6.813,6.813,0,0,1-1.489-1.748A2.784,2.784,0,0,1,321.8,333.685Zm-33.3,0a1.325,1.325,0,0,1,1.174-.669,1.826,1.826,0,0,1,1.613,1.139,1.829,1.829,0,0,1,1.617-1.139,1.32,1.32,0,0,1,1.168.669,2.776,2.776,0,0,1-.172,2.648,8.842,8.842,0,0,1-2.482,2.533h-.262a10.856,10.856,0,0,1-.994-.781,6.893,6.893,0,0,1-1.489-1.748A2.784,2.784,0,0,1,288.5,333.685Zm-33.3,0a1.325,1.325,0,0,1,1.174-.669,1.826,1.826,0,0,1,1.613,1.139,1.829,1.829,0,0,1,1.615-1.139,1.321,1.321,0,0,1,1.17.669,2.776,2.776,0,0,1-.172,2.648,8.812,8.812,0,0,1-2.484,2.533h-.26a10.85,10.85,0,0,1-.994-.781,6.891,6.891,0,0,1-1.489-1.748A2.784,2.784,0,0,1,255.2,333.685Zm-33.3,0a1.325,1.325,0,0,1,1.174-.669,1.828,1.828,0,0,1,1.613,1.139,1.829,1.829,0,0,1,1.615-1.139,1.323,1.323,0,0,1,1.17.669,2.776,2.776,0,0,1-.172,2.648,8.812,8.812,0,0,1-2.484,2.533h-.26a10.851,10.851,0,0,1-.994-.781,6.892,6.892,0,0,1-1.489-1.748A2.784,2.784,0,0,1,221.9,333.685Zm-33.3,0a1.325,1.325,0,0,1,1.174-.669,1.823,1.823,0,0,1,1.611,1.139,1.834,1.834,0,0,1,1.617-1.139,1.323,1.323,0,0,1,1.17.669,2.776,2.776,0,0,1-.172,2.648,8.812,8.812,0,0,1-2.484,2.533h-.26a10.844,10.844,0,0,1-.994-.781,6.892,6.892,0,0,1-1.489-1.748A2.784,2.784,0,0,1,188.6,333.685Zm-32.52-.615a1.164,1.164,0,0,1,.386-.063,1.857,1.857,0,0,1,1.624,1.137,1.854,1.854,0,0,1,1.622-1.137,1.332,1.332,0,0,1,1.159.671,2.791,2.791,0,0,1-.162,2.658,9.044,9.044,0,0,1-2.5,2.538h-.264c-.02-.041-.466-.325-.975-.793a6.63,6.63,0,0,1-1.5-1.746,3.618,3.618,0,0,1-.366-1.014V335.3ZM338.45,397.811a1.325,1.325,0,0,1,1.174-.669,1.714,1.714,0,0,0,3.229,0,1.32,1.32,0,0,1,1.168.669,2.776,2.776,0,0,1-.172,2.648,8.84,8.84,0,0,1-2.482,2.533h-.262a10.668,10.668,0,0,1-.992-.781,6.816,6.816,0,0,1-1.489-1.748A2.784,2.784,0,0,1,338.45,397.811Zm-33.3,0a1.325,1.325,0,0,1,1.174-.669,1.826,1.826,0,0,1,1.613,1.139,1.829,1.829,0,0,1,1.617-1.139,1.32,1.32,0,0,1,1.168.669,2.776,2.776,0,0,1-.172,2.648,8.841,8.841,0,0,1-2.482,2.533h-.262a10.849,10.849,0,0,1-.994-.781,6.894,6.894,0,0,1-1.489-1.748A2.789,2.789,0,0,1,305.151,397.811Zm-33.3,0a1.325,1.325,0,0,1,1.174-.669,1.826,1.826,0,0,1,1.613,1.139,1.829,1.829,0,0,1,1.617-1.139,1.32,1.32,0,0,1,1.168.669,2.776,2.776,0,0,1-.172,2.648,8.811,8.811,0,0,1-2.484,2.533h-.26a10.836,10.836,0,0,1-.994-.781,6.893,6.893,0,0,1-1.489-1.748A2.784,2.784,0,0,1,271.852,397.811Zm-33.3,0a1.325,1.325,0,0,1,1.174-.669,1.828,1.828,0,0,1,1.613,1.139,1.829,1.829,0,0,1,1.615-1.139,1.323,1.323,0,0,1,1.17.669,2.776,2.776,0,0,1-.172,2.648,8.812,8.812,0,0,1-2.484,2.533h-.26a10.855,10.855,0,0,1-.994-.781,6.893,6.893,0,0,1-1.489-1.748A2.784,2.784,0,0,1,238.553,397.811Zm-33.3,0a1.325,1.325,0,0,1,1.174-.669,1.828,1.828,0,0,1,1.613,1.139,1.829,1.829,0,0,1,1.615-1.139,1.323,1.323,0,0,1,1.17.669,2.776,2.776,0,0,1-.172,2.648,8.811,8.811,0,0,1-2.484,2.533h-.26a10.841,10.841,0,0,1-.994-.781,6.893,6.893,0,0,1-1.489-1.748A2.784,2.784,0,0,1,205.254,397.811Zm-33.3,0a1.325,1.325,0,0,1,1.174-.669,1.823,1.823,0,0,1,1.611,1.139,1.831,1.831,0,0,1,1.617-1.139,1.323,1.323,0,0,1,1.17.669,2.776,2.776,0,0,1-.172,2.648,8.811,8.811,0,0,1-2.484,2.533h-.26a10.846,10.846,0,0,1-.994-.781,6.893,6.893,0,0,1-1.489-1.748A2.784,2.784,0,0,1,171.954,397.811ZM321.8,376.384a1.325,1.325,0,0,1,1.174-.669,1.826,1.826,0,0,1,1.613,1.139,1.829,1.829,0,0,1,1.617-1.139,1.32,1.32,0,0,1,1.168.669,2.776,2.776,0,0,1-.172,2.648,8.9,8.9,0,0,1-2.482,2.532h-.262a10.879,10.879,0,0,1-.992-.783,6.8,6.8,0,0,1-1.489-1.746A2.784,2.784,0,0,1,321.8,376.384Zm-33.3,0a1.325,1.325,0,0,1,1.174-.669,1.826,1.826,0,0,1,1.613,1.139,1.829,1.829,0,0,1,1.617-1.139,1.32,1.32,0,0,1,1.168.669,2.776,2.776,0,0,1-.172,2.648,8.9,8.9,0,0,1-2.482,2.532h-.262a11.055,11.055,0,0,1-.994-.783,6.885,6.885,0,0,1-1.489-1.746A2.784,2.784,0,0,1,288.5,376.384Zm-33.3,0a1.325,1.325,0,0,1,1.174-.669,1.826,1.826,0,0,1,1.613,1.139,1.829,1.829,0,0,1,1.615-1.139,1.321,1.321,0,0,1,1.17.669,2.776,2.776,0,0,1-.172,2.648,8.867,8.867,0,0,1-2.484,2.532h-.26a11.049,11.049,0,0,1-.994-.783,6.883,6.883,0,0,1-1.489-1.746A2.784,2.784,0,0,1,255.2,376.384Zm-33.3,0a1.325,1.325,0,0,1,1.174-.669,1.828,1.828,0,0,1,1.613,1.139,1.829,1.829,0,0,1,1.615-1.139,1.323,1.323,0,0,1,1.17.669,2.776,2.776,0,0,1-.172,2.648,8.867,8.867,0,0,1-2.484,2.532h-.26a11.05,11.05,0,0,1-.994-.783,6.884,6.884,0,0,1-1.489-1.746A2.784,2.784,0,0,1,221.9,376.384Zm-33.3,0a1.325,1.325,0,0,1,1.174-.669,1.823,1.823,0,0,1,1.611,1.139,1.834,1.834,0,0,1,1.617-1.139,1.323,1.323,0,0,1,1.17.669,2.776,2.776,0,0,1-.172,2.648,8.867,8.867,0,0,1-2.484,2.532h-.26a11.042,11.042,0,0,1-.994-.783,6.883,6.883,0,0,1-1.489-1.746A2.784,2.784,0,0,1,188.6,376.384Zm-32.135-.669a1.825,1.825,0,0,1,1.624,1.137,1.822,1.822,0,0,1,1.622-1.137,1.335,1.335,0,0,1,1.159.669,2.756,2.756,0,0,1-.162,2.64,8.768,8.768,0,0,1-2.5,2.537h-.264c-.873-1.6-1.765-3.349-2.619-5.2A1.3,1.3,0,0,1,156.469,375.715Zm181.98,64.8a1.325,1.325,0,0,1,1.174-.669,1.714,1.714,0,0,0,3.229,0,1.32,1.32,0,0,1,1.168.669,2.776,2.776,0,0,1-.172,2.648,8.9,8.9,0,0,1-2.482,2.533h-.262a10.88,10.88,0,0,1-.992-.783,6.806,6.806,0,0,1-1.489-1.746A2.784,2.784,0,0,1,338.45,440.511Zm-33.3,0a1.325,1.325,0,0,1,1.174-.669,1.823,1.823,0,0,1,1.613,1.139,1.826,1.826,0,0,1,1.617-1.139,1.32,1.32,0,0,1,1.168.669,2.776,2.776,0,0,1-.172,2.648,8.9,8.9,0,0,1-2.482,2.533h-.262a11.068,11.068,0,0,1-.994-.783,6.884,6.884,0,0,1-1.489-1.746A2.789,2.789,0,0,1,305.151,440.511Zm-33.3,0a1.325,1.325,0,0,1,1.174-.669,1.823,1.823,0,0,1,1.613,1.139,1.826,1.826,0,0,1,1.617-1.139,1.32,1.32,0,0,1,1.168.669,2.776,2.776,0,0,1-.172,2.648,8.867,8.867,0,0,1-2.484,2.533h-.26a11.055,11.055,0,0,1-.994-.783,6.883,6.883,0,0,1-1.489-1.746A2.784,2.784,0,0,1,271.852,440.511Zm-33.3,0a1.325,1.325,0,0,1,1.174-.669,1.825,1.825,0,0,1,1.613,1.139,1.826,1.826,0,0,1,1.615-1.139,1.323,1.323,0,0,1,1.17.669,2.776,2.776,0,0,1-.172,2.648,8.868,8.868,0,0,1-2.484,2.533h-.26a11.075,11.075,0,0,1-.994-.783,6.883,6.883,0,0,1-1.489-1.746A2.784,2.784,0,0,1,238.553,440.511Zm-33.3,0a1.325,1.325,0,0,1,1.174-.669,1.825,1.825,0,0,1,1.613,1.139,1.826,1.826,0,0,1,1.615-1.139,1.323,1.323,0,0,1,1.17.669,2.776,2.776,0,0,1-.172,2.648,8.867,8.867,0,0,1-2.484,2.533h-.26a11.06,11.06,0,0,1-.994-.783,6.883,6.883,0,0,1-1.489-1.746A2.784,2.784,0,0,1,205.254,440.511Zm-33.3,0a1.325,1.325,0,0,1,1.174-.669,1.82,1.82,0,0,1,1.611,1.139,1.828,1.828,0,0,1,1.617-1.139,1.323,1.323,0,0,1,1.17.669,2.777,2.777,0,0,1-.172,2.648,8.867,8.867,0,0,1-2.484,2.533h-.26a11.065,11.065,0,0,1-.994-.783,6.883,6.883,0,0,1-1.489-1.746A2.784,2.784,0,0,1,171.954,440.511ZM355.1,419.082a1.325,1.325,0,0,1,1.174-.669,1.714,1.714,0,0,0,3.229,0,1.32,1.32,0,0,1,1.168.669,2.771,2.771,0,0,1-.172,2.648,8.9,8.9,0,0,1-2.482,2.533h-.262a10.67,10.67,0,0,1-.992-.781,6.816,6.816,0,0,1-1.489-1.748A2.785,2.785,0,0,1,355.1,419.082Zm-33.3,0a1.325,1.325,0,0,1,1.174-.669,1.826,1.826,0,0,1,1.613,1.139,1.829,1.829,0,0,1,1.617-1.139,1.32,1.32,0,0,1,1.168.669,2.776,2.776,0,0,1-.172,2.648,8.9,8.9,0,0,1-2.482,2.533h-.262a10.679,10.679,0,0,1-.992-.781,6.815,6.815,0,0,1-1.489-1.748A2.784,2.784,0,0,1,321.8,419.082Zm-33.3,0a1.325,1.325,0,0,1,1.174-.669,1.826,1.826,0,0,1,1.613,1.139,1.829,1.829,0,0,1,1.617-1.139,1.32,1.32,0,0,1,1.168.669,2.776,2.776,0,0,1-.172,2.648,8.9,8.9,0,0,1-2.482,2.533h-.262a10.849,10.849,0,0,1-.994-.781,6.9,6.9,0,0,1-1.489-1.748A2.784,2.784,0,0,1,288.5,419.082Zm-33.3,0a1.325,1.325,0,0,1,1.174-.669,1.826,1.826,0,0,1,1.613,1.139,1.829,1.829,0,0,1,1.615-1.139,1.321,1.321,0,0,1,1.17.669,2.776,2.776,0,0,1-.172,2.648,8.868,8.868,0,0,1-2.484,2.533h-.26a10.843,10.843,0,0,1-.994-.781,6.893,6.893,0,0,1-1.489-1.748A2.784,2.784,0,0,1,255.2,419.082Zm-33.3,0a1.325,1.325,0,0,1,1.174-.669,1.828,1.828,0,0,1,1.613,1.139,1.829,1.829,0,0,1,1.615-1.139,1.323,1.323,0,0,1,1.17.669,2.776,2.776,0,0,1-.172,2.648,8.868,8.868,0,0,1-2.484,2.533h-.26a10.844,10.844,0,0,1-.994-.781,6.894,6.894,0,0,1-1.489-1.748A2.784,2.784,0,0,1,221.9,419.082Zm-33.3,0a1.325,1.325,0,0,1,1.174-.669,1.823,1.823,0,0,1,1.611,1.139,1.834,1.834,0,0,1,1.617-1.139,1.323,1.323,0,0,1,1.17.669A2.776,2.776,0,0,1,194,421.73a8.868,8.868,0,0,1-2.484,2.533h-.26a10.836,10.836,0,0,1-.994-.781,6.894,6.894,0,0,1-1.489-1.748A2.784,2.784,0,0,1,188.6,419.082Zm-27.629.254a2.842,2.842,0,0,1-.262,2.394,1.869,1.869,0,0,1-.2.325Zm210.772,63.876a1.339,1.339,0,0,1,1.178-.669,1.791,1.791,0,0,1,1.6,1.137,2.371,2.371,0,0,1,.427-.609c.3,1.746.528,3.267.73,4.525a9.178,9.178,0,0,1-1.014.793h-.264a11.821,11.821,0,0,1-.994-.771,6.572,6.572,0,0,1-1.482-1.767A2.756,2.756,0,0,1,371.747,483.212Zm-33.3,0a1.325,1.325,0,0,1,1.174-.669,1.714,1.714,0,0,0,3.229,0,1.32,1.32,0,0,1,1.168.669,2.776,2.776,0,0,1-.172,2.648,8.9,8.9,0,0,1-2.482,2.533h-.262a10.675,10.675,0,0,1-.992-.781,6.817,6.817,0,0,1-1.489-1.748A2.784,2.784,0,0,1,338.45,483.208Zm-33.3,0a1.325,1.325,0,0,1,1.174-.669,1.826,1.826,0,0,1,1.613,1.139,1.829,1.829,0,0,1,1.617-1.139,1.32,1.32,0,0,1,1.168.669,2.776,2.776,0,0,1-.172,2.648,8.9,8.9,0,0,1-2.482,2.533h-.262a10.856,10.856,0,0,1-.994-.781,6.894,6.894,0,0,1-1.489-1.748A2.789,2.789,0,0,1,305.151,483.208Zm-33.3,0a1.325,1.325,0,0,1,1.174-.669,1.826,1.826,0,0,1,1.613,1.139,1.829,1.829,0,0,1,1.617-1.139,1.32,1.32,0,0,1,1.168.669,2.776,2.776,0,0,1-.172,2.648,8.869,8.869,0,0,1-2.484,2.533h-.26a10.844,10.844,0,0,1-.994-.781,6.894,6.894,0,0,1-1.489-1.748A2.784,2.784,0,0,1,271.852,483.208Zm-33.3,0a1.325,1.325,0,0,1,1.174-.669,1.828,1.828,0,0,1,1.613,1.139,1.829,1.829,0,0,1,1.615-1.139,1.323,1.323,0,0,1,1.17.669,2.776,2.776,0,0,1-.172,2.648,8.87,8.87,0,0,1-2.484,2.533h-.26a10.863,10.863,0,0,1-.994-.781,6.894,6.894,0,0,1-1.489-1.748A2.784,2.784,0,0,1,238.553,483.208Zm-33.3,0a1.325,1.325,0,0,1,1.174-.669,1.828,1.828,0,0,1,1.613,1.139,1.829,1.829,0,0,1,1.615-1.139,1.323,1.323,0,0,1,1.17.669,2.776,2.776,0,0,1-.172,2.648,8.869,8.869,0,0,1-2.484,2.533h-.26a10.848,10.848,0,0,1-.994-.781,6.894,6.894,0,0,1-1.489-1.748A2.784,2.784,0,0,1,205.254,483.208Zm-33.3,0a1.325,1.325,0,0,1,1.174-.669,1.823,1.823,0,0,1,1.611,1.139,1.832,1.832,0,0,1,1.617-1.139,1.323,1.323,0,0,1,1.17.669,2.776,2.776,0,0,1-.172,2.648,8.869,8.869,0,0,1-2.484,2.533h-.26a10.853,10.853,0,0,1-.994-.781,6.894,6.894,0,0,1-1.489-1.748A2.784,2.784,0,0,1,171.954,483.208ZM355.1,461.781a1.323,1.323,0,0,1,1.174-.671,1.714,1.714,0,0,0,3.229,0,1.318,1.318,0,0,1,1.168.671,2.767,2.767,0,0,1-.172,2.646,8.841,8.841,0,0,1-2.482,2.533h-.262a10.287,10.287,0,0,1-.992-.781,6.78,6.78,0,0,1-1.489-1.748A2.78,2.78,0,0,1,355.1,461.781Zm-33.3,0a1.323,1.323,0,0,1,1.174-.671,1.826,1.826,0,0,1,1.613,1.139,1.829,1.829,0,0,1,1.617-1.139,1.318,1.318,0,0,1,1.168.671,2.772,2.772,0,0,1-.172,2.646,8.841,8.841,0,0,1-2.482,2.533h-.262a10.3,10.3,0,0,1-.992-.781,6.78,6.78,0,0,1-1.489-1.748A2.78,2.78,0,0,1,321.8,461.781Zm-33.3,0a1.323,1.323,0,0,1,1.174-.671,1.826,1.826,0,0,1,1.613,1.139,1.829,1.829,0,0,1,1.617-1.139,1.318,1.318,0,0,1,1.168.671,2.772,2.772,0,0,1-.172,2.646,8.841,8.841,0,0,1-2.482,2.533h-.262a10.453,10.453,0,0,1-.994-.781,6.859,6.859,0,0,1-1.489-1.748A2.78,2.78,0,0,1,288.5,461.781Zm-33.3,0a1.323,1.323,0,0,1,1.174-.671,1.826,1.826,0,0,1,1.613,1.139,1.829,1.829,0,0,1,1.615-1.139,1.319,1.319,0,0,1,1.17.671,2.772,2.772,0,0,1-.172,2.646,8.812,8.812,0,0,1-2.484,2.533h-.26a10.448,10.448,0,0,1-.994-.781,6.857,6.857,0,0,1-1.489-1.748A2.779,2.779,0,0,1,255.2,461.781Zm-33.3,0a1.323,1.323,0,0,1,1.174-.671,1.828,1.828,0,0,1,1.613,1.139,1.829,1.829,0,0,1,1.615-1.139,1.321,1.321,0,0,1,1.17.671,2.772,2.772,0,0,1-.172,2.646,8.812,8.812,0,0,1-2.484,2.533h-.26a10.449,10.449,0,0,1-.994-.781,6.858,6.858,0,0,1-1.489-1.748A2.78,2.78,0,0,1,221.9,461.781Zm-33.3,0a1.323,1.323,0,0,1,1.174-.671,1.823,1.823,0,0,1,1.611,1.139,1.834,1.834,0,0,1,1.617-1.139,1.321,1.321,0,0,1,1.17.671,2.772,2.772,0,0,1-.172,2.646,8.812,8.812,0,0,1-2.484,2.533h-.26a10.442,10.442,0,0,1-.994-.781,6.857,6.857,0,0,1-1.489-1.748A2.779,2.779,0,0,1,188.6,461.781Zm-33.3,0a1.32,1.32,0,0,1,1.172-.671,1.824,1.824,0,0,1,1.613,1.139,1.832,1.832,0,0,1,1.617-1.139,1.321,1.321,0,0,1,1.17.671,2.772,2.772,0,0,1-.172,2.646,8.812,8.812,0,0,1-2.484,2.533h-.26a10.436,10.436,0,0,1-.994-.781,6.858,6.858,0,0,1-1.489-1.748A2.779,2.779,0,0,1,155.3,461.781Z" transform="translate(-147.148 -235.686)"/><path class="b" d="M250.431,335.829c2.108-8.77,6.971-16.773,11.256-24.613,4.523-8.277,9.271-16.419,14.144-24.492.172-.286.348-.574.521-.859.812-2.585,1.975-5.108,2.955-7.6,1.262-3.2,2.613-6.374,3.856-9.584a.1.1,0,0,1,.182.055c-1.018,3.345-2.03,6.684-3.251,9.964-.313.842-.624,1.7-.945,2.564,1.646-2.693,3.3-5.378,5-8.036,2.895-4.525,5.946-8.944,8.846-13.463a.1.1,0,0,1,.176.108c-4.646,7.934-9.109,15.976-13.743,23.918s-9.169,15.937-13.5,24.04q-3.223,6.03-6.245,12.16a103.244,103.244,0,0,0-5.222,11.857A38.275,38.275,0,0,0,254.3,356.2c2.8,8.964,7.784,17.106,12.532,25.138.194.327-.307.712-.544.4C256.336,368.647,246.3,353.015,250.431,335.829Z" transform="translate(-249.478 -224.111)"/></g><g transform="translate(0.943 191.389)"><g transform="translate(0 0.555)"><path class="c" d="M217.015,407.016c14.653,20.229,53.677,23.48,151.169,40.889,13.491,2.409,56.1-88.223,41.828-91.536-17.978-4.173-88.655-16.469-93.938-16.716C271.525,337.572,207.074,393.293,217.015,407.016Z" transform="translate(-215.988 -339.596)"/><g transform="translate(108.919 12.667)"><path class="c" d="M220.049,346.068s41.271,5.533,62.056,15.15c27.829,12.88,46.553,35.458,53.83,45.392,15.188,20.74,37.57,81.383,21.227,90.877-14.792,8.594-34.54-54.55-34.54-54.55s30.757,61.057,11.042,68.131S295.2,443.536,295.2,443.536s30.2,63.445,8.711,67.522c-16.237,3.083-37.027-63.531-37.027-63.531s25.576,54.71,9.017,58.6c-18.3,4.3-41.349-55.988-41.349-55.988-43.758,2.8-65.737-13.769-79.969-27.416C151.134,419.418,220.049,346.068,220.049,346.068Z" transform="translate(-154.455 -346.068)"/><g transform="translate(106.866 74.983)"><path class="b" d="M166.341,384.466c3.871,7.042,7.84,14.144,11.074,21.505s6.212,14.843,8.745,22.472c6.214,18.712,7.179,31.4,7.034,30.626-3.429-18.384-14.595-44.917-17.83-52.281-3.227-7.345-6.085-14.857-9.308-22.208C165.975,384.4,166.249,384.3,166.341,384.466Z" transform="translate(-114.325 -384.38)"/><path class="b" d="M181.258,390.177c4.554,9.2,9.414,18.176,13.565,27.586,4.13,9.363,7.23,18.609,10.7,28.232.268.742-.219.642-.517-.092-3.858-9.477-8.154-17.941-12.119-27.371-3.953-9.4-7.57-19.02-11.862-28.265C180.963,390.125,181.188,390.038,181.258,390.177Z" transform="translate(-156.036 -378.899)"/><path class="b" d="M197.611,393c7.682,13.712,12.825,28.825,17.517,43.77.233.744-.38.546-.663-.2-5.549-14.659-9.8-26.2-17.331-43.3C197.016,393,197.449,392.707,197.611,393Z" transform="translate(-197.114 -376.248)"/></g></g></g><path class="b" d="M265.524,350.847c6.488-4.1,24.836-13.745,42.887-11.074a.159.159,0,0,1-.008.317c-14.874-.07-36.121,7.559-42.733,11.021A.151.151,0,0,1,265.524,350.847Z" transform="translate(-208.456 -339.313)"/></g></g><g transform="translate(363.249)"><g transform="translate(0 32.508)"><g transform="translate(48.903 97.335)"><path class="c" d="M266.508,275.23c-.986,3.75-19.673,27.753-36.9,26.469-5.609-.429-4.642-31.152-4.642-31.152l-.448-2.284-6.236-31.982,38-22.932,5.484-3.022s1.129,8.862,2.423,19.912c.063.511.125,1.024.186,1.574.09.622.182,1.21.237,1.795.217,1.648.429,3.333.6,5.014.139,1.28.282,2.523.378,3.871.133,1.35.233,2.664.366,4.014C266.974,259.849,266.9,273.637,266.508,275.23Z" transform="translate(-218.282 -210.327)"/><path class="b" d="M265.51,230.239a65.357,65.357,0,0,1-39.668,38.024l-6.236-31.982,38-22.932,5.484-3.022S264.216,219.189,265.51,230.239Z" transform="translate(-219.607 -210.327)"/></g><path class="c" d="M215.523,226.263C206.3,282.7,239.066,294.6,251.237,296.57c11.05,1.793,48.9,6.492,63.9-48.69s-8.324-77.312-33.379-82.747S224.743,169.825,215.523,226.263Z" transform="translate(-213.909 -157.487)"/><g transform="translate(7.783 51.605)"><path class="b" d="M258.266,192.715a37.228,37.228,0,0,0,3.932-.382c1.507-.162,2.722-.139,3.934-1.155a2.034,2.034,0,0,0,.272-2.468c-1.1-1.587-2.99-1.846-4.813-1.722a7.413,7.413,0,0,0-4.912,2.09C255.277,190.386,256.484,192.723,258.266,192.715Z" transform="translate(-251.032 -186.961)"/><path class="b" d="M247.953,195.4a37.353,37.353,0,0,1-3.75-1.237c-1.435-.491-2.627-.734-3.586-1.992a2.038,2.038,0,0,1,.278-2.468c1.417-1.305,3.323-1.141,5.073-.622a7.418,7.418,0,0,1,4.333,3.12C251.382,193.784,249.689,195.8,247.953,195.4Z" transform="translate(-204.156 -185.302)"/><g transform="translate(33.867 20.023)"><g transform="translate(0)"><path class="b" d="M245.661,199.032c.049-.143.278.223.251.382-.644,3.84-.734,8.349,2.583,10.1.1.055.067.247-.061.211C244.256,208.551,244.436,202.568,245.661,199.032Z" transform="translate(-244.898 -195.462)"/><path class="b" d="M246.71,197.2c6.271.366,5.075,12.88-.734,12.539C240.261,209.4,241.455,196.89,246.71,197.2Z" transform="translate(-241.958 -197.192)"/></g><path class="b" d="M240.143,197.7c1.024.812,1.975,2.163,3.28,2.419,1.511.3,2.787-.9,3.9-2.069.117-.121.215,0,.2.164-.194,2.4-1.35,4.773-3.955,4.885-2.376.1-3.856-2.182-4.224-4.648C239.278,197.992,239.73,197.369,240.143,197.7Z" transform="translate(-232.996 -196.796)"/></g><g transform="translate(0 14.434)"><g transform="translate(3.731 0.948)"><path class="b" d="M262.831,197.1c-.018-.151-.319.157-.329.317-.217,3.889-1.121,8.308-4.742,9.287-.114.031-.119.227.014.219C262.108,206.692,263.248,200.814,262.831,197.1Z" transform="translate(-254.122 -192.682)"/><path class="b" d="M263.291,194.88c-6.2-1.022-7.784,11.449-2.043,12.395C266.9,208.2,268.485,195.735,263.291,194.88Z" transform="translate(-257.69 -194.821)"/></g><path class="b" d="M267.021,195.833c-1.071.536-2.2,1.613-3.384,1.54-1.376-.084-2.214-1.56-2.92-2.965-.072-.145-.184-.053-.209.112-.37,2.374.1,4.957,2.335,5.705,2.035.683,3.828-1.166,4.7-3.468C267.7,196.33,267.451,195.618,267.021,195.833Z" transform="translate(-260.394 -194.336)"/></g><path class="b" d="M254.484,214.719c-.977.863-1.969,2.071-3.386,2.12a10.284,10.284,0,0,1-4.132-1.188.137.137,0,0,0-.178.192,5.246,5.246,0,0,0,4.83,2.358c1.775-.219,2.722-1.7,3.229-3.286C254.92,214.692,254.624,214.592,254.484,214.719Z" transform="translate(-220.993 -160.446)"/><g transform="translate(10.473)"><path class="b" d="M255.225,224.679s-1.427,5.725-1.724,8.465c-.025.256,8.261,3,14.831-2.887.245-.219-.1-.568-.368-.423-3.9,2.264-7.964,2.519-12.262,2.129-.112-.781,2.771-9.721,2.341-9.8-1.483-.29-4.544.411-6.374.74,2.628-12.009,7.159-23.5,9.6-35.493a.376.376,0,0,0-.7-.254c-5.6,11.706-8.929,25.459-11.962,37.789C248.215,226.48,254.079,225.027,255.225,224.679Z" transform="translate(-248.589 -186.961)"/></g><g transform="translate(19.159 43.004)"><path class="b" d="M248.1,212.222a14.245,14.245,0,0,0,5.284,4.907,6.419,6.419,0,0,0,3.854.587c2.869-.487,3.169-3.053,2.852-5.3a15.344,15.344,0,0,0-.957-3.48A18.443,18.443,0,0,1,248.1,212.222Z" transform="translate(-248.105 -208.934)"/><path class="g" d="M248.1,215.427a6.419,6.419,0,0,0,3.854.587c2.869-.487,3.169-3.053,2.852-5.3C251.776,210.753,248.621,212.528,248.1,215.427Z" transform="translate(-242.82 -207.232)"/></g></g><g transform="translate(5.779)"><path class="b" d="M303.638,248.151c-10.8.951-12.626-23.787-12.626-23.787s-45.521-9.508-47.989-46.96c0,0-8.756,23.48-33.16,33.33,0,0,3.155-40.836,35.881-47.549,0,0,40.793-13.117,62.2,19.671S310.889,247.515,303.638,248.151Z" transform="translate(-209.863 -160.594)"/><path class="b" d="M228.619,167.771a40.6,40.6,0,0,0,1.4,17.108,42.286,42.286,0,0,0,8.075,15.393,36.04,36.04,0,0,0,2.975,3.212l1.531,1.566c.55.476,1.125.926,1.7,1.376,1.157.885,2.276,1.82,3.46,2.658,1.239.759,2.493,1.491,3.75,2.21.632.354,1.247.736,1.889,1.065l1.99.857,3.967,1.7c2.738.875,5.517,1.609,8.275,2.3-2.587-1.251-5.251-2.214-7.778-3.468l-3.723-1.99-1.855-.986c-.595-.37-1.157-.793-1.734-1.184-1.147-.8-2.294-1.593-3.46-2.351-1.1-.851-2.125-1.793-3.188-2.679l-1.589-1.341-1.427-1.507a34.966,34.966,0,0,1-2.775-3.077A48.506,48.506,0,0,1,231.9,184.26a50.572,50.572,0,0,1-2.262-8.073A49.008,49.008,0,0,1,228.619,167.771Z" transform="translate(-195.513 -153.724)"/></g><g transform="translate(87.241 78.596)"><g transform="translate(0)"><path class="c" d="M213.268,213.507S227.056,196.648,234.8,201.7s-3.566,30.142-13.315,32.955-12.53-6.159-12.53-6.159Z" transform="translate(-208.954 -200.752)"/><path class="b" d="M229.185,204.868a.131.131,0,0,1,.031.256c-6.852,2.192-10.817,8.093-13.751,14.3,2.163-2.311,4.957-3.454,8.075-.853.164.137-.023.4-.207.343-2.679-.789-4.68-.466-6.684,1.576a28.729,28.729,0,0,0-3.525,5.046c-.356.57-1.405.17-1.127-.5.02-.047.045-.1.067-.149C212.535,216.4,220.019,205.034,229.185,204.868Z" transform="translate(-206.762 -196.813)"/></g><g transform="translate(7.173 25.474)"><path class="e" d="M217.435,217.7a2.321,2.321,0,1,0,2.321-2.321A2.32,2.32,0,0,0,217.435,217.7Z" transform="translate(-217.435 -212.228)"/><ellipse class="e" cx="1.673" cy="1.673" rx="1.673" ry="1.673" transform="translate(5.71)"/></g><path class="h" d="M.6,0H5.3a.6.6,0,0,1,.6.6V1.845a.6.6,0,0,1-.6.6H.6a.6.6,0,0,1-.6-.6V.6A.6.6,0,0,1,.6,0Z" transform="translate(30.654 7.04) rotate(175.09)"/><rect class="h" width="5.899" height="2.447" rx="0.603" transform="translate(30.502 11.604) rotate(-172.678)"/></g><g transform="translate(90.717 43.04)"><path class="h" d="M228.263,187.473l3.245,5.179-16.616,15.019-7.052-11.688Zm-12.71,14.432,11.616-9.332-.726-1.223L213,197.824Z" transform="translate(-204.39 -177.906)"/><path class="h" d="M231.978,182.585l1.055,6.02-21.051,7.651-2.129-13.483Zm-17.211,8.58,14.275-4.267-.213-1.409-14.9.932Z" transform="translate(-209.852 -182.585)"/></g></g><g transform="translate(88.41)"><path class="b" d="M205.672,185.81c-4.361-1.626-8.5-25.975,7.51-37.573,15.767-11.424,36.513,1.65,27.911,21.6C235.658,182.45,214.894,189.247,205.672,185.81Z" transform="translate(-201.735 -143.984)"/><path class="b" d="M229.028,145.422a27.253,27.253,0,0,1,9.232,15.438,16.442,16.442,0,0,1-4.856,15.689c-4.2,4.106-10,6.406-15.906,7.78a50.866,50.866,0,0,1-9.136,1.121,25.191,25.191,0,0,1-9.22-1.016c2.7,1.742,5.993,2.288,9.154,2.715a41.1,41.1,0,0,0,9.668-.151c6.38-.906,12.9-3.229,17.836-7.94a19.117,19.117,0,0,0,5.273-8.735,19.322,19.322,0,0,0-.186-10.083A24.048,24.048,0,0,0,229.028,145.422Z" transform="translate(-195.205 -142.608)"/></g></g><g transform="translate(0 7.188)"><g transform="translate(0)"><g transform="translate(283.835 153.434)"><g transform="translate(0 21.637)"><path class="i" d="M312.806,319.669l-27.24-3.676,10.645-78.884,34.472,4.652Z" transform="translate(-285.557 -237.108)"/><path class="i" d="M330.69,241.761l-6.809,29.721-11.07,48.2L285.57,316l10.647-78.894Z" transform="translate(-285.57 -237.109)"/><path class="j" d="M324.1,241.761l-6.809,29.721L285.57,267.2l4.061-30.092Z" transform="translate(-278.984 -237.109)"/></g><rect class="i" width="43.278" height="32.875" transform="translate(8.269 0) rotate(7.685)"/></g><g transform="translate(85.938)"><g transform="translate(245.613 97.306)"><path class="i" d="M297.58,251.263,263.815,250.1l7.115-52.721L303.8,205.2Z" transform="translate(-263.815 -197.375)"/></g><path class="k" d="M492.376,229.8l-10.5,77.8-56.806-.849L288.644,337.026l25.214-186.845,123.519,65.376Z" transform="translate(-255.376 -145.241)"/><ellipse class="k" cx="30.452" cy="94.739" rx="30.452" ry="94.739" transform="translate(60.357 195.921) rotate(-172.314)"/><ellipse class="l" cx="24.932" cy="84.104" rx="24.932" ry="84.104" transform="matrix(-0.991, -0.134, 0.134, -0.991, 54.963, 182.817)"/><path class="k" d="M408.558,210.889c-.828,6.132-1.836,12.074-2.994,17.769a18.806,18.806,0,0,1-28.437-18.581l1.19-8.813a18.8,18.8,0,0,1,32.219-10.5C410.153,197.243,409.488,203.991,408.558,210.889Z" transform="translate(-346.373 -111.958)"/><g transform="translate(190.779 66.525)"><path class="k" d="M338.052,285.859l-65.3-2.257,13.758-101.955,63.558,15.132Z" transform="translate(-272.756 -181.647)"/><path class="l" d="M338.052,285.859l-65.3-2.257,13.758-101.955,63.558,15.132Z" transform="translate(-272.756 -181.647)"/></g><path class="l" d="M394.84,157.323c3.93,5.948,5.834,12.97,7.38,19.873a134.085,134.085,0,0,1,2.529,21.165c.245,3.55.16,7.108.207,10.663-.151,3.55-.2,7.108-.432,10.653-.3,3.539-.462,7.093-.865,10.621s-.75,7.063-1.235,10.582a233.405,233.405,0,0,1-9.381,41.537,121.138,121.138,0,0,1-8.469,19.57c-3.56,6.112-7.658,12.189-13.473,16.331,5.511-4.5,9.355-10.588,12.594-16.8a121.3,121.3,0,0,0,7.86-19.585A247.239,247.239,0,0,0,400.41,240.6a253.763,253.763,0,0,0,2.783-42.185,135,135,0,0,0-1.945-21.032C400.037,170.467,398.363,163.486,394.84,157.323Z" transform="translate(-329.34 -138.405)"/></g><g transform="translate(0 5.541)"><path class="m" d="M388.619,150.488c3.983,2.893,7.805,5.969,11.6,9.075,3.813,3.084,7.514,6.3,11.211,9.52,3.664,3.257,7.326,6.515,10.872,9.905l5.316,5.091c1.718,1.758,3.488,3.458,5.161,5.267-2.008-1.431-3.918-2.969-5.881-4.449l-5.725-4.625c-3.814-3.086-7.514-6.3-11.211-9.522-3.662-3.259-7.322-6.519-10.868-9.909C395.534,157.469,392,154.07,388.619,150.488Z" transform="translate(-305.51 -150.488)"/><path class="m" d="M459.11,223.176c-5.308,1.611-10.667,2.987-16.033,4.323-5.363,1.364-10.76,2.554-16.158,3.746-5.41,1.141-10.821,2.274-16.266,3.243l-8.173,1.442c-2.74.4-5.464.877-8.22,1.213,2.648-.83,5.327-1.517,7.991-2.28l8.042-2.049c5.361-1.36,10.759-2.554,16.158-3.742,5.41-1.137,10.819-2.272,16.266-3.237C448.16,224.845,453.609,223.89,459.11,223.176Z" transform="translate(-342.879 -80.914)"/><path class="m" d="M396.919,218.416c8.083-.967,16.18-1.689,24.279-2.374,8.1-.712,16.209-1.249,24.318-1.785,8.112-.483,16.225-.963,24.349-1.27l12.185-.452c4.067-.07,8.128-.217,12.2-.219-4.04.5-8.089.869-12.132,1.307L469.97,214.7c-8.1.708-16.207,1.247-24.316,1.779-8.112.481-16.225.961-24.349,1.266C413.183,218.072,405.059,218.366,396.919,218.416Z" transform="translate(-383.223 -91.309)"/><path class="m" d="M392.219,152.249c7.12,4.177,14.105,8.557,21.071,12.966,6.979,4.39,13.861,8.925,20.742,13.459,6.854,4.578,13.7,9.161,20.458,13.888l10.128,7.095c3.331,2.435,6.705,4.8,10,7.292-3.574-2.069-7.065-4.259-10.6-6.384l-10.471-6.578c-6.977-4.39-13.861-8.925-20.742-13.461-6.85-4.582-13.7-9.163-20.454-13.892C405.581,161.927,398.832,157.191,392.219,152.249Z" transform="translate(-354.391 -148.802)"/><path class="m" d="M508.92,204.291c-9.484-.916-18.933-2.075-28.377-3.268s-18.861-2.578-28.293-3.856c-9.406-1.456-18.824-2.818-28.216-4.364L409.95,190.44c-4.683-.869-9.377-1.662-14.048-2.6,4.744.434,9.471,1.014,14.205,1.515l14.172,1.75c9.445,1.2,18.861,2.574,28.293,3.86,9.4,1.462,18.824,2.816,28.216,4.368S499.569,202.467,508.92,204.291Z" transform="translate(-395.902 -114.731)"/></g></g><g transform="translate(251.376 194.176)"><path class="c" d="M326.788,279.047C356.429,327.559,406.571,432.3,387.5,470.363c-18.372,36.662-203.824-63.882-227.3-82.142-10.232-7.956,37.617-102.083,49.295-94.623,15.616,9.978,91.337,71.7,92.988,72.019,3.539.679-7-34.192-14.121-77.417C277.99,225.3,305.482,244.175,326.788,279.047Z" transform="translate(-65.966 -246.87)"/><g transform="translate(0 1.062)"><path class="c" d="M268.606,254.637c-6.954,8.183-1.033,17.595-1.033,17.595s-8.242,2.362-12.332,9.512c-4.685,8.189,6.1,19.125,6.1,19.125s-7.848,4.118-11.41,12.1c-3.7,8.289,5.611,20.877,5.611,20.877s-5.2,7.852-3.329,16.963c3.2,15.577,25.913,24.192,40.388,29.567,21.505,7.981,60.492,7.7,69.229,9l36.266-92.233s-57.605-43.175-75.48-47.265C307.556,246.434,276.413,245.452,268.606,254.637Z" transform="translate(-249.061 -247.413)"/><g transform="translate(6.611 23.583)"><path class="b" d="M290.278,259.467c16.89-.178,32.912,4.648,49.178,8.557a.29.29,0,0,1-.141.562c-16.133-4.075-32.865-4.895-49.125-8.32A.407.407,0,0,1,290.278,259.467Z" transform="translate(-277.158 -259.463)"/><path class="b" d="M295.491,274.168c3.82.076,7.607,1.411,11.244,2.48q5.874,1.723,11.684,3.648,11.637,3.837,23.073,8.255c.339.131.221.681-.141.562-7.737-2.536-15.51-4.957-23.347-7.167q-5.88-1.659-11.792-3.223c-3.662-.975-7.609-1.695-10.989-3.468A.584.584,0,0,1,295.491,274.168Z" transform="translate(-289.055 -245.387)"/><path class="b" d="M300.477,291.629c3.323-.068,6.911,1.679,10,2.771q5.267,1.858,10.553,3.66c7.046,2.4,14.094,4.8,21.22,6.952.356.108.219.667-.141.562-7.251-2.151-14.532-4.2-21.764-6.419q-5.328-1.632-10.637-3.323c-3.01-.957-6.879-1.812-9.369-3.854A.2.2,0,0,1,300.477,291.629Z" transform="translate(-300.278 -228.676)"/></g></g><path class="b" d="M180.008,345.667c12,5.864,24.112,11.477,36.493,16.5,12.283,4.981,24.785,9.512,37.419,13.52,7.083,2.249,14.23,4.408,21.417,6.3.2.053.106.342-.09.3a303.014,303.014,0,0,1-38.724-10.113q-9.471-3.22-18.722-7.065c-6.083-2.531-12.2-5.128-18.059-8.144-6.735-3.468-13.469-7.018-19.939-10.962C179.58,345.871,179.783,345.558,180.008,345.667Z" transform="translate(9.322 -152.328)"/><path class="b" d="M263.526,317.12c14.346,3.93,37.223,2.83,37.407,2.993,4.331,3.824,22.157,15.368,26.69,17.924.182.1.016.352-.166.27-9.819-4.468-22.081-11.154-27.255-16.092-20.3.693-30.43-2.8-36.748-4.652C263.031,317.439,263.1,317.005,263.526,317.12Z" transform="translate(-206.284 -179.648)"/></g><g transform="translate(470.282 191.172)"><path class="d" d="M264,359.48l-91.141,3.135s-13.064-66.148-12.4-101.731c.37-19.94,12-19.078,24.969-6.576C230.837,298.072,264,359.48,264,359.48Z" transform="translate(-160.423 -245.335)"/><path class="e" d="M204.484,261.008a3.007,3.007,0,0,0,.344.892,6.865,6.865,0,0,0,1.482,1.746,11.547,11.547,0,0,0,1,.771h.162C206.472,263.282,205.5,262.145,204.484,261.008Zm-33.137-1.769a1.325,1.325,0,0,1,1.174-.669,1.826,1.826,0,0,1,1.613,1.139,1.829,1.829,0,0,1,1.617-1.139,1.32,1.32,0,0,1,1.168.669,2.776,2.776,0,0,1-.172,2.648,8.838,8.838,0,0,1-2.484,2.533H174a10.831,10.831,0,0,1-.994-.781,6.892,6.892,0,0,1-1.489-1.748A2.784,2.784,0,0,1,171.347,259.238Zm67.784,46.627a5.131,5.131,0,0,1-1.014-1.278,2.355,2.355,0,0,1-.2-.468C238.319,304.709,238.726,305.3,239.132,305.866Zm-34.485-3.928a1.321,1.321,0,0,1,1.174-.669,1.826,1.826,0,0,1,1.613,1.139,1.829,1.829,0,0,1,1.617-1.139,1.316,1.316,0,0,1,1.168.669,2.776,2.776,0,0,1-.172,2.648,8.85,8.85,0,0,1-2.482,2.531H207.3a10.437,10.437,0,0,1-.994-.781,6.883,6.883,0,0,1-1.489-1.746A2.789,2.789,0,0,1,204.646,301.938Zm-33.3,0a1.321,1.321,0,0,1,1.174-.669,1.826,1.826,0,0,1,1.613,1.139,1.829,1.829,0,0,1,1.617-1.139,1.316,1.316,0,0,1,1.168.669,2.776,2.776,0,0,1-.172,2.648,8.82,8.82,0,0,1-2.484,2.531H174a10.424,10.424,0,0,1-.994-.781,6.883,6.883,0,0,1-1.489-1.746A2.784,2.784,0,0,1,171.347,301.938Zm53.109-16.411a1.484,1.484,0,0,1-.243.162h-.264a9.706,9.706,0,0,1-.994-.791,6.6,6.6,0,0,1-1.484-1.746,3.286,3.286,0,0,1-.405-2.03C222.245,282.583,223.361,284.065,224.457,285.527ZM188,280.509a1.325,1.325,0,0,1,1.174-.669,1.826,1.826,0,0,1,1.613,1.139,1.829,1.829,0,0,1,1.617-1.139,1.32,1.32,0,0,1,1.168.669,2.776,2.776,0,0,1-.172,2.648,8.9,8.9,0,0,1-2.482,2.533h-.262a10.844,10.844,0,0,1-.994-.781,6.9,6.9,0,0,1-1.489-1.748A2.784,2.784,0,0,1,188,280.509Zm49.958,64.126a1.3,1.3,0,0,1,1.157-.671,1.827,1.827,0,0,1,1.624,1.137,1.792,1.792,0,0,1,1.6-1.137,1.335,1.335,0,0,1,1.176.671,2.742,2.742,0,0,1-.162,2.638,1.838,1.838,0,0,1-.16.264l-4.811.182a4.591,4.591,0,0,1-.264-.427A2.78,2.78,0,0,1,237.955,344.635Zm-33.309,0a1.338,1.338,0,0,1,1.176-.671,1.8,1.8,0,0,1,1.6,1.137,1.848,1.848,0,0,1,1.622-1.137,1.364,1.364,0,0,1,1.178.671,2.815,2.815,0,0,1-.182,2.638,5.917,5.917,0,0,1-1.178,1.462l-2.781.1a6.567,6.567,0,0,1-1.258-1.542A2.793,2.793,0,0,1,204.646,344.635Zm-32.131-.671a1.822,1.822,0,0,1,1.622,1.137,1.8,1.8,0,0,1,1.6-1.137,1.338,1.338,0,0,1,1.176.671,2.709,2.709,0,0,1-.182,2.638,8.5,8.5,0,0,1-2.478,2.536H174c-.022-.02-.264-.182-.63-.466-.162-.894-.526-2.74-.994-5.359A.331.331,0,0,1,172.516,343.964Zm48.78-20.758a1.325,1.325,0,0,1,1.174-.669,1.826,1.826,0,0,1,1.613,1.139,1.829,1.829,0,0,1,1.617-1.139,1.32,1.32,0,0,1,1.168.669,2.776,2.776,0,0,1-.172,2.648,8.841,8.841,0,0,1-2.482,2.533h-.262a10.686,10.686,0,0,1-.992-.781,6.813,6.813,0,0,1-1.489-1.748A2.784,2.784,0,0,1,221.3,323.206Zm-33.3,0a1.325,1.325,0,0,1,1.174-.669,1.826,1.826,0,0,1,1.613,1.139,1.829,1.829,0,0,1,1.617-1.139,1.32,1.32,0,0,1,1.168.669,2.776,2.776,0,0,1-.172,2.648,8.841,8.841,0,0,1-2.482,2.533h-.262a10.851,10.851,0,0,1-.994-.781,6.893,6.893,0,0,1-1.489-1.748A2.784,2.784,0,0,1,188,323.206Z" transform="translate(-161.046 -232.669)"/><g transform="translate(14.961 98.665)"><path class="b" d="M166.36,299.9c13.982-1.642,52.035-5,77.051-3.955.149.006.192.579.043.6-20.942,2.268-62.96,3.789-77.032,4.214C166.158,300.765,166.1,299.935,166.36,299.9Z" transform="translate(-166.191 -295.748)"/></g><path class="b" d="M204.194,273.727c1.037,3.942,2.018,7.9,2.971,11.86-.049-.481-.115-.961-.164-1.442-.568-5.541-1.106-11.077-1.509-16.632-.01-.133.215-.161.233-.027,2.707,19.37,10.367,68.313,10.807,73.669.433-.055,4.584.1,5.556.059.207-.01.19.3-.008.317-.5.053-6.738.812-6.778.675-2.717-9.441-6.84-45.112-7.721-53.012-1.413-5.091-2.589-10.232-3.5-15.442A.055.055,0,0,1,204.194,273.727Z" transform="translate(-204.085 -224.218)"/></g></g></g><g transform="translate(275.366 11.754)"><g transform="translate(0)"><path class="k" d="M274.144,165.463c1.531,15.107,13.712,28.3,13.712,28.3s17.859-1.914,28.946-12.279c9.248-8.647,10.228-21.376,2.871-27-10.545-8.069-21.382,11.5-21.382,11.5s4.73-21.865-8.531-22.742C280.521,142.639,272.876,152.867,274.144,165.463Z" transform="translate(-248.327 -58.849)"/><path class="k" d="M272.976,109.038c.615,6.061,5.5,11.357,5.5,11.357s7.165-.769,11.614-4.928c3.711-3.47,4.1-8.578,1.153-10.835-4.231-3.237-8.58,4.617-8.58,4.617s1.9-8.774-3.423-9.126C275.534,99.878,272.467,103.983,272.976,109.038Z" transform="translate(-214.856 -100.113)"/><path class="k" d="M297.548,140.5c6.717,8.931,19.413,12.606,19.413,12.606s10.518-8.007,13.553-18.755c2.533-8.966-1.7-17.358-8.473-18.1-9.713-1.067-9.085,15.385-9.085,15.385s-5.347-15.571-14.031-11.074C292.872,123.7,291.954,133.052,297.548,140.5Z" transform="translate(-293.827 -84.711)"/></g></g></g></svg>