<svg xmlns="http://www.w3.org/2000/svg" width="2710.106" height="876.231" viewBox="0 0 2710.106 876.231"><defs><style>.a{fill:#eeebfd;}.a,.c{fill-rule:evenodd;}.b,.c{fill:#d3cdec;}</style></defs><path class="a" d="M1123.675,1280.7h92.211c49.629,0,90.233,56.587,90.233,125.745h0c0,69.16-40.6,125.745-90.233,125.745h-779.7c-80.364,0-146.113-91.625-146.113-203.615h0c0-111.991,65.75-203.617,146.111-203.617h0c33.979,0,61.778-38.74,61.778-86.091h0c0-47.352-27.8-86.095-61.78-86.095H361.83c-35.328,0-64.232-40.28-64.232-89.508h0c0-49.231,28.9-89.511,64.232-89.511h94.02c13.752,0,25.006-15.684,25.006-34.848h0c0-19.164-11.255-34.845-25.006-34.845H439.275c-9.491,0-17.257-10.824-17.257-24.051h0c0-13.227,7.765-24.051,17.257-24.051H548.031c22.9,0,25.454,37.708,83.31,37.708h166.7c12.386,0,22.52,14.126,22.52,31.38v0c0,17.258-10.134,31.38-22.52,31.38H776.415c-17.947,0-32.631,20.466-32.631,45.47v0c0,25.008,14.683,45.473,32.631,45.473h32.546c87.888,0,100.3,32.007,115.693,95.666s95.338,68.794,95.338,68.794H1129.3c27.045,0,49.173,30.835,49.173,68.522v0c0,37.687-22.127,68.521-49.173,68.521h-5.629c-26.012,0-47.3,29.662-47.3,65.911h0c0,36.249,21.285,65.907,47.3,65.907ZM390.845,704.056c9.533,0,17.259-10.769,17.259-24.051s-7.726-24.051-17.259-24.051-17.259,10.77-17.259,24.051S381.315,704.056,390.845,704.056Z" transform="translate(-290.07 -655.954)"/><path class="a" d="M851.9,556.77l91.684-.354,2.384-.009c50.628-.2,91.89,50.231,91.694,112.056h0c-.2,61.827-41.777,112.572-92.4,112.767l-268.728,1.038-46.284.179L149.861,784.3c-81.982.317-148.8-81.335-148.479-181.449h0C1.7,502.736,69.031,420.566,151.011,420.25h0c34.663-.134,63.131-34.875,63.265-77.206h0c.134-42.331-28.118-76.856-62.781-76.722l-75.848.293c-36.039.139-65.411-35.756-65.272-79.764h0c.139-44.011,29.739-80.134,65.778-80.273l95.913-.37c14.029-.054,25.554-14.12,25.608-31.251h0c.054-17.132-11.383-31.106-25.411-31.052l-16.908.065c-9.682.037-17.573-9.608-17.536-21.433h0c.037-11.824,7.99-21.532,17.672-21.569L218.861.723,266.438.539C289.8.449,292.3,34.148,351.319,33.92l170.055-.657c12.635-.049,22.934,12.539,22.885,27.964v0c-.049,15.428-10.427,28.093-23.062,28.142l-22.061.085c-18.308.071-33.345,18.424-33.416,40.777v0c-.071,22.356,14.851,40.593,33.159,40.522l33.2-.128c89.657-.346,102.229,28.218,117.752,85.066s97.063,61.124,97.063,61.124l111.512-.431c27.59-.107,50.076,27.372,49.969,61.063v0c-.107,33.691-22.766,61.344-50.357,61.45l-5.742.022c-26.535.1-48.332,26.7-48.435,59.108h0c-.1,32.406,21.527,58.836,48.062,58.733ZM105.952,44.16c9.725-.038,17.637-9.7,17.674-21.569S115.813,1.121,106.088,1.159s-17.637,9.7-17.674,21.569S96.23,44.2,105.952,44.16Z" transform="matrix(-1, 0.017, -0.017, -1, 2711.497, 820.091)"/><g transform="translate(123.846 45.756)"><g transform="translate(0 582.823)"><g transform="translate(1322.084)"><path class="b" d="M558.818,377.364a2.266,2.266,0,1,0-2.266,2.266A2.268,2.268,0,0,0,558.818,377.364Z" transform="translate(-554.286 -225.968)"/><ellipse class="b" cx="2.266" cy="2.266" rx="2.266" ry="2.266" transform="translate(30.358 149.13)"/><ellipse class="b" cx="2.266" cy="2.266" rx="2.266" ry="2.266" transform="translate(60.719 149.13)"/><ellipse class="b" cx="2.266" cy="2.266" rx="2.266" ry="2.266" transform="translate(91.079 149.13)"/><path class="b" d="M558.818,388.951a2.266,2.266,0,1,0-2.266,2.266A2.269,2.269,0,0,0,558.818,388.951Z" transform="translate(-554.286 -267.216)"/><ellipse class="b" cx="2.266" cy="2.266" rx="2.266" ry="2.266" transform="translate(30.358 119.468)"/><ellipse class="b" cx="2.266" cy="2.266" rx="2.266" ry="2.266" transform="translate(60.719 119.468)"/><ellipse class="b" cx="2.266" cy="2.266" rx="2.266" ry="2.266" transform="translate(91.079 119.468)"/><path class="b" d="M558.818,400.537a2.266,2.266,0,1,0-2.266,2.266A2.269,2.269,0,0,0,558.818,400.537Z" transform="translate(-554.286 -308.464)"/><ellipse class="b" cx="2.266" cy="2.266" rx="2.266" ry="2.266" transform="translate(30.358 89.806)"/><ellipse class="b" cx="2.266" cy="2.266" rx="2.266" ry="2.266" transform="translate(60.719 89.806)"/><ellipse class="b" cx="2.266" cy="2.266" rx="2.266" ry="2.266" transform="translate(91.079 89.806)"/><path class="b" d="M558.818,412.441a2.266,2.266,0,1,0-2.266,2.266A2.267,2.267,0,0,0,558.818,412.441Z" transform="translate(-554.286 -350.85)"/><ellipse class="b" cx="2.266" cy="2.266" rx="2.266" ry="2.266" transform="translate(30.358 59.325)"/><ellipse class="b" cx="2.266" cy="2.266" rx="2.266" ry="2.266" transform="translate(60.719 59.325)"/><ellipse class="b" cx="2.266" cy="2.266" rx="2.266" ry="2.266" transform="translate(91.079 59.325)"/><path class="b" d="M558.818,424.027a2.266,2.266,0,1,0-2.266,2.266A2.268,2.268,0,0,0,558.818,424.027Z" transform="translate(-554.286 -392.098)"/><ellipse class="b" cx="2.266" cy="2.266" rx="2.266" ry="2.266" transform="translate(30.358 29.663)"/><ellipse class="b" cx="2.266" cy="2.266" rx="2.266" ry="2.266" transform="translate(60.719 29.663)"/><ellipse class="b" cx="2.266" cy="2.266" rx="2.266" ry="2.266" transform="translate(91.079 29.663)"/><path class="b" d="M558.818,435.614a2.266,2.266,0,1,0-2.266,2.266A2.269,2.269,0,0,0,558.818,435.614Z" transform="translate(-554.286 -433.346)"/><ellipse class="b" cx="2.266" cy="2.266" rx="2.266" ry="2.266" transform="translate(30.358 0.001)"/><ellipse class="b" cx="2.266" cy="2.266" rx="2.266" ry="2.266" transform="translate(60.719 0.001)"/><ellipse class="b" cx="2.266" cy="2.266" rx="2.266" ry="2.266" transform="translate(91.079 0.001)"/><ellipse class="b" cx="2.266" cy="2.266" rx="2.266" ry="2.266" transform="translate(122.959 149.13)"/><path class="b" d="M618.7,377.364a2.266,2.266,0,1,0-2.266,2.266A2.267,2.267,0,0,0,618.7,377.364Z" transform="translate(-460.853 -225.968)"/><ellipse class="b" cx="2.266" cy="2.266" rx="2.266" ry="2.266" transform="translate(183.679 149.13)"/><ellipse class="b" cx="2.266" cy="2.266" rx="2.266" ry="2.266" transform="translate(214.039 149.13)"/><ellipse class="b" cx="2.266" cy="2.266" rx="2.266" ry="2.266" transform="translate(122.959 119.468)"/><path class="b" d="M618.7,388.951a2.266,2.266,0,1,0-2.266,2.266A2.267,2.267,0,0,0,618.7,388.951Z" transform="translate(-460.853 -267.216)"/><ellipse class="b" cx="2.266" cy="2.266" rx="2.266" ry="2.266" transform="translate(183.679 119.468)"/><ellipse class="b" cx="2.266" cy="2.266" rx="2.266" ry="2.266" transform="translate(214.039 119.468)"/><ellipse class="b" cx="2.266" cy="2.266" rx="2.266" ry="2.266" transform="translate(122.959 89.806)"/><path class="b" d="M618.7,400.537a2.266,2.266,0,1,0-2.266,2.266A2.267,2.267,0,0,0,618.7,400.537Z" transform="translate(-460.853 -308.464)"/><ellipse class="b" cx="2.266" cy="2.266" rx="2.266" ry="2.266" transform="translate(183.679 89.806)"/><ellipse class="b" cx="2.266" cy="2.266" rx="2.266" ry="2.266" transform="translate(214.039 89.806)"/><ellipse class="b" cx="2.266" cy="2.266" rx="2.266" ry="2.266" transform="translate(122.959 59.325)"/><path class="b" d="M618.7,412.441a2.266,2.266,0,1,0-2.266,2.266A2.265,2.265,0,0,0,618.7,412.441Z" transform="translate(-460.853 -350.85)"/><ellipse class="b" cx="2.266" cy="2.266" rx="2.266" ry="2.266" transform="translate(183.679 59.325)"/><ellipse class="b" cx="2.266" cy="2.266" rx="2.266" ry="2.266" transform="translate(214.039 59.325)"/><ellipse class="b" cx="2.266" cy="2.266" rx="2.266" ry="2.266" transform="translate(122.959 29.663)"/><path class="b" d="M618.7,424.027a2.266,2.266,0,1,0-2.266,2.266A2.267,2.267,0,0,0,618.7,424.027Z" transform="translate(-460.853 -392.098)"/><ellipse class="b" cx="2.266" cy="2.266" rx="2.266" ry="2.266" transform="translate(183.679 29.663)"/><ellipse class="b" cx="2.266" cy="2.266" rx="2.266" ry="2.266" transform="translate(214.039 29.663)"/><ellipse class="b" cx="2.266" cy="2.266" rx="2.266" ry="2.266" transform="translate(122.959 0.001)"/><path class="b" d="M618.7,435.614a2.266,2.266,0,1,0-2.266,2.266A2.267,2.267,0,0,0,618.7,435.614Z" transform="translate(-460.853 -433.346)"/><ellipse class="b" cx="2.266" cy="2.266" rx="2.266" ry="2.266" transform="translate(183.679 0.001)"/><ellipse class="b" cx="2.266" cy="2.266" rx="2.266" ry="2.266" transform="translate(214.039 0.001)"/><ellipse class="b" cx="2.266" cy="2.266" rx="2.266" ry="2.266" transform="translate(245.919 149.13)"/><ellipse class="b" cx="2.266" cy="2.266" rx="2.266" ry="2.266" transform="translate(276.279 149.13)"/><ellipse class="b" cx="2.266" cy="2.266" rx="2.266" ry="2.266" transform="translate(306.639 149.13)"/><ellipse class="b" cx="2.266" cy="2.266" rx="2.266" ry="2.266" transform="translate(245.919 119.468)"/><ellipse class="b" cx="2.266" cy="2.266" rx="2.266" ry="2.266" transform="translate(276.279 119.468)"/><ellipse class="b" cx="2.266" cy="2.266" rx="2.266" ry="2.266" transform="translate(306.639 119.468)"/><ellipse class="b" cx="2.266" cy="2.266" rx="2.266" ry="2.266" transform="translate(245.919 89.806)"/><ellipse class="b" cx="2.266" cy="2.266" rx="2.266" ry="2.266" transform="translate(276.279 89.806)"/><ellipse class="b" cx="2.266" cy="2.266" rx="2.266" ry="2.266" transform="translate(306.639 89.806)"/><ellipse class="b" cx="2.266" cy="2.266" rx="2.266" ry="2.266" transform="translate(245.919 59.325)"/><ellipse class="b" cx="2.266" cy="2.266" rx="2.266" ry="2.266" transform="translate(276.279 59.325)"/><ellipse class="b" cx="2.266" cy="2.266" rx="2.266" ry="2.266" transform="translate(306.639 59.325)"/><ellipse class="b" cx="2.266" cy="2.266" rx="2.266" ry="2.266" transform="translate(245.919 29.663)"/><ellipse class="b" cx="2.266" cy="2.266" rx="2.266" ry="2.266" transform="translate(276.279 29.663)"/><ellipse class="b" cx="2.266" cy="2.266" rx="2.266" ry="2.266" transform="translate(306.639 29.663)"/><ellipse class="b" cx="2.266" cy="2.266" rx="2.266" ry="2.266" transform="translate(245.919 0.001)"/><ellipse class="b" cx="2.266" cy="2.266" rx="2.266" ry="2.266" transform="translate(276.279 0.001)"/><ellipse class="b" cx="2.266" cy="2.266" rx="2.266" ry="2.266" transform="translate(306.639 0.001)"/></g><g transform="translate(0 47.169)"><path class="b" d="M42.422,358.94a2.266,2.266,0,1,0-2.266,2.266A2.265,2.265,0,0,0,42.422,358.94Z" transform="translate(-37.889 -207.544)"/><path class="b" d="M54.28,358.94a2.266,2.266,0,1,0-2.266,2.266A2.265,2.265,0,0,0,54.28,358.94Z" transform="translate(-19.388 -207.544)"/><path class="b" d="M66.139,358.94a2.266,2.266,0,1,0-2.266,2.266A2.267,2.267,0,0,0,66.139,358.94Z" transform="translate(-0.886 -207.544)"/><path class="b" d="M78,358.94a2.266,2.266,0,1,0-2.266,2.266A2.265,2.265,0,0,0,78,358.94Z" transform="translate(17.615 -207.544)"/><ellipse class="b" cx="2.266" cy="2.266" rx="2.266" ry="2.266" transform="translate(0 119.467)"/><path class="b" d="M54.28,370.526a2.266,2.266,0,1,0-2.266,2.266A2.265,2.265,0,0,0,54.28,370.526Z" transform="translate(-19.388 -248.793)"/><path class="b" d="M66.139,370.526a2.266,2.266,0,1,0-2.266,2.266A2.267,2.267,0,0,0,66.139,370.526Z" transform="translate(-0.886 -248.793)"/><ellipse class="b" cx="2.266" cy="2.266" rx="2.266" ry="2.266" transform="translate(91.08 119.467)"/><path class="b" d="M42.422,382.112a2.266,2.266,0,1,0-2.266,2.266A2.265,2.265,0,0,0,42.422,382.112Z" transform="translate(-37.889 -290.042)"/><path class="b" d="M54.28,382.112a2.266,2.266,0,1,0-2.266,2.266A2.265,2.265,0,0,0,54.28,382.112Z" transform="translate(-19.388 -290.042)"/><path class="b" d="M66.139,382.112a2.266,2.266,0,1,0-2.266,2.266A2.267,2.267,0,0,0,66.139,382.112Z" transform="translate(-0.886 -290.042)"/><path class="b" d="M78,382.112a2.266,2.266,0,1,0-2.266,2.266A2.265,2.265,0,0,0,78,382.112Z" transform="translate(17.615 -290.042)"/><path class="b" d="M42.422,394.017a2.266,2.266,0,1,0-2.266,2.266A2.265,2.265,0,0,0,42.422,394.017Z" transform="translate(-37.889 -332.426)"/><path class="b" d="M54.28,394.017a2.266,2.266,0,1,0-2.266,2.266A2.265,2.265,0,0,0,54.28,394.017Z" transform="translate(-19.388 -332.426)"/><path class="b" d="M66.139,394.017a2.266,2.266,0,1,0-2.266,2.266A2.267,2.267,0,0,0,66.139,394.017Z" transform="translate(-0.886 -332.426)"/><path class="b" d="M78,394.017a2.266,2.266,0,1,0-2.266,2.266A2.265,2.265,0,0,0,78,394.017Z" transform="translate(17.615 -332.426)"/><ellipse class="b" cx="2.266" cy="2.266" rx="2.266" ry="2.266" transform="translate(0 29.662)"/><path class="b" d="M54.28,405.6a2.266,2.266,0,1,0-2.266,2.266A2.265,2.265,0,0,0,54.28,405.6Z" transform="translate(-19.388 -373.674)"/><path class="b" d="M66.139,405.6a2.266,2.266,0,1,0-2.266,2.266A2.267,2.267,0,0,0,66.139,405.6Z" transform="translate(-0.886 -373.674)"/><ellipse class="b" cx="2.266" cy="2.266" rx="2.266" ry="2.266" transform="translate(91.08 29.662)"/><path class="b" d="M42.422,417.189a2.266,2.266,0,1,0-2.266,2.266A2.265,2.265,0,0,0,42.422,417.189Z" transform="translate(-37.889 -414.923)"/><path class="b" d="M54.28,417.189a2.266,2.266,0,1,0-2.266,2.266A2.265,2.265,0,0,0,54.28,417.189Z" transform="translate(-19.388 -414.923)"/><path class="b" d="M66.139,417.189a2.266,2.266,0,1,0-2.266,2.266A2.267,2.267,0,0,0,66.139,417.189Z" transform="translate(-0.886 -414.923)"/><path class="b" d="M78,417.189a2.266,2.266,0,1,0-2.266,2.266A2.265,2.265,0,0,0,78,417.189Z" transform="translate(17.615 -414.923)"/><path class="b" d="M90.449,358.94a2.266,2.266,0,1,0-2.266,2.266A2.265,2.265,0,0,0,90.449,358.94Z" transform="translate(37.043 -207.544)"/><path class="b" d="M102.309,358.94a2.267,2.267,0,1,0-2.266,2.266A2.267,2.267,0,0,0,102.309,358.94Z" transform="translate(55.544 -207.544)"/><path class="b" d="M114.166,358.94a2.266,2.266,0,1,0-2.266,2.266A2.265,2.265,0,0,0,114.166,358.94Z" transform="translate(74.046 -207.544)"/><path class="b" d="M126.024,358.94a2.266,2.266,0,1,0-2.266,2.266A2.265,2.265,0,0,0,126.024,358.94Z" transform="translate(92.547 -207.544)"/><path class="b" d="M90.449,370.526a2.266,2.266,0,1,0-2.266,2.266A2.265,2.265,0,0,0,90.449,370.526Z" transform="translate(37.043 -248.793)"/><ellipse class="b" cx="2.266" cy="2.266" rx="2.266" ry="2.266" transform="translate(153.32 119.467)"/><ellipse class="b" cx="2.266" cy="2.266" rx="2.266" ry="2.266" transform="translate(183.68 119.467)"/><path class="b" d="M126.024,370.526a2.266,2.266,0,1,0-2.266,2.266A2.265,2.265,0,0,0,126.024,370.526Z" transform="translate(92.547 -248.793)"/><path class="b" d="M90.449,382.112a2.266,2.266,0,1,0-2.266,2.266A2.265,2.265,0,0,0,90.449,382.112Z" transform="translate(37.043 -290.042)"/><path class="b" d="M102.309,382.112a2.267,2.267,0,1,0-2.266,2.266A2.267,2.267,0,0,0,102.309,382.112Z" transform="translate(55.544 -290.042)"/><path class="b" d="M114.166,382.112a2.266,2.266,0,1,0-2.266,2.266A2.265,2.265,0,0,0,114.166,382.112Z" transform="translate(74.046 -290.042)"/><path class="b" d="M126.024,382.112a2.266,2.266,0,1,0-2.266,2.266A2.265,2.265,0,0,0,126.024,382.112Z" transform="translate(92.547 -290.042)"/><path class="b" d="M90.449,394.017a2.266,2.266,0,1,0-2.266,2.266A2.265,2.265,0,0,0,90.449,394.017Z" transform="translate(37.043 -332.426)"/><path class="b" d="M102.309,394.017a2.267,2.267,0,1,0-2.266,2.266A2.267,2.267,0,0,0,102.309,394.017Z" transform="translate(55.544 -332.426)"/><path class="b" d="M114.166,394.017a2.266,2.266,0,1,0-2.266,2.266A2.265,2.265,0,0,0,114.166,394.017Z" transform="translate(74.046 -332.426)"/><path class="b" d="M126.024,394.017a2.266,2.266,0,1,0-2.266,2.266A2.265,2.265,0,0,0,126.024,394.017Z" transform="translate(92.547 -332.426)"/><path class="b" d="M90.449,405.6a2.266,2.266,0,1,0-2.266,2.266A2.265,2.265,0,0,0,90.449,405.6Z" transform="translate(37.043 -373.674)"/><ellipse class="b" cx="2.266" cy="2.266" rx="2.266" ry="2.266" transform="translate(153.32 29.662)"/><ellipse class="b" cx="2.266" cy="2.266" rx="2.266" ry="2.266" transform="translate(183.68 29.662)"/><path class="b" d="M126.024,405.6a2.266,2.266,0,1,0-2.266,2.266A2.265,2.265,0,0,0,126.024,405.6Z" transform="translate(92.547 -373.674)"/><path class="b" d="M90.449,417.189a2.266,2.266,0,1,0-2.266,2.266A2.265,2.265,0,0,0,90.449,417.189Z" transform="translate(37.043 -414.923)"/><path class="b" d="M102.309,417.189a2.267,2.267,0,1,0-2.266,2.266A2.267,2.267,0,0,0,102.309,417.189Z" transform="translate(55.544 -414.923)"/><path class="b" d="M114.166,417.189a2.266,2.266,0,1,0-2.266,2.266A2.265,2.265,0,0,0,114.166,417.189Z" transform="translate(74.046 -414.923)"/><path class="b" d="M126.024,417.189a2.266,2.266,0,1,0-2.266,2.266A2.265,2.265,0,0,0,126.024,417.189Z" transform="translate(92.547 -414.923)"/><path class="b" d="M138.478,358.94a2.267,2.267,0,1,0-2.266,2.266A2.267,2.267,0,0,0,138.478,358.94Z" transform="translate(111.975 -207.544)"/><path class="b" d="M150.335,358.94a2.266,2.266,0,1,0-2.266,2.266A2.265,2.265,0,0,0,150.335,358.94Z" transform="translate(130.478 -207.544)"/><path class="b" d="M162.193,358.94a2.266,2.266,0,1,0-2.266,2.266A2.265,2.265,0,0,0,162.193,358.94Z" transform="translate(148.979 -207.544)"/><path class="b" d="M138.478,370.526a2.267,2.267,0,1,0-2.266,2.266A2.267,2.267,0,0,0,138.478,370.526Z" transform="translate(111.975 -248.793)"/><path class="b" d="M150.335,370.526a2.266,2.266,0,1,0-2.266,2.266A2.265,2.265,0,0,0,150.335,370.526Z" transform="translate(130.478 -248.793)"/><path class="b" d="M162.193,370.526a2.266,2.266,0,1,0-2.266,2.266A2.265,2.265,0,0,0,162.193,370.526Z" transform="translate(148.979 -248.793)"/><path class="b" d="M138.478,382.112a2.267,2.267,0,1,0-2.266,2.266A2.267,2.267,0,0,0,138.478,382.112Z" transform="translate(111.975 -290.042)"/><path class="b" d="M150.335,382.112a2.266,2.266,0,1,0-2.266,2.266A2.265,2.265,0,0,0,150.335,382.112Z" transform="translate(130.478 -290.042)"/><path class="b" d="M162.193,382.112a2.266,2.266,0,1,0-2.266,2.266A2.265,2.265,0,0,0,162.193,382.112Z" transform="translate(148.979 -290.042)"/><path class="b" d="M138.478,394.017a2.267,2.267,0,1,0-2.266,2.266A2.267,2.267,0,0,0,138.478,394.017Z" transform="translate(111.975 -332.426)"/><path class="b" d="M150.335,394.017a2.266,2.266,0,1,0-2.266,2.266A2.265,2.265,0,0,0,150.335,394.017Z" transform="translate(130.478 -332.426)"/><path class="b" d="M162.193,394.017a2.266,2.266,0,1,0-2.266,2.266A2.265,2.265,0,0,0,162.193,394.017Z" transform="translate(148.979 -332.426)"/><path class="b" d="M138.478,405.6a2.267,2.267,0,1,0-2.266,2.266A2.267,2.267,0,0,0,138.478,405.6Z" transform="translate(111.975 -373.674)"/><path class="b" d="M150.335,405.6a2.266,2.266,0,1,0-2.266,2.266A2.265,2.265,0,0,0,150.335,405.6Z" transform="translate(130.478 -373.674)"/><path class="b" d="M162.193,405.6a2.266,2.266,0,1,0-2.266,2.266A2.265,2.265,0,0,0,162.193,405.6Z" transform="translate(148.979 -373.674)"/><path class="b" d="M138.478,417.189a2.267,2.267,0,1,0-2.266,2.266A2.267,2.267,0,0,0,138.478,417.189Z" transform="translate(111.975 -414.923)"/><path class="b" d="M150.335,417.189a2.266,2.266,0,1,0-2.266,2.266A2.265,2.265,0,0,0,150.335,417.189Z" transform="translate(130.478 -414.923)"/><path class="b" d="M162.193,417.189a2.266,2.266,0,1,0-2.266,2.266A2.265,2.265,0,0,0,162.193,417.189Z" transform="translate(148.979 -414.923)"/></g></g><path class="c" d="M1657.5,705.96a2.908,2.908,0,0,1,5.816,0v13.082a2.908,2.908,0,1,1-5.816,0V705.96Zm-19.833,10.624a2.909,2.909,0,1,1,4.113-4.116l9.255,9.253a2.91,2.91,0,1,1-4.113,4.117l-9.255-9.254Zm-6.51,21.537a2.911,2.911,0,1,1,0-5.823h13.086a2.912,2.912,0,0,1,0,5.823Zm10.623,19.835a2.909,2.909,0,0,1-4.113-4.116l9.255-9.254a2.909,2.909,0,0,1,4.113,4.116l-9.255,9.254Zm21.536,6.508a2.908,2.908,0,0,1-5.816,0V751.372a2.908,2.908,0,0,1,5.816,0v13.092Zm19.833-10.624a2.91,2.91,0,0,1-4.116,4.116l-9.255-9.254a2.91,2.91,0,0,1,4.116-4.116l9.255,9.254Zm6.509-21.542a2.911,2.911,0,1,1,0,5.823h-13.086a2.911,2.911,0,0,1,0-5.823Zm-10.625-19.83a2.91,2.91,0,0,1,4.116,4.116l-9.255,9.254a2.911,2.911,0,0,1-4.116-4.117Z" transform="translate(-1535.569 -703.053)"/><path class="c" d="M1657.5,705.96a2.908,2.908,0,0,1,5.816,0v13.082a2.908,2.908,0,1,1-5.816,0V705.96Zm-19.833,10.624a2.909,2.909,0,1,1,4.113-4.116l9.255,9.253a2.91,2.91,0,1,1-4.113,4.117l-9.255-9.254Zm-6.51,21.537a2.911,2.911,0,1,1,0-5.823h13.086a2.912,2.912,0,0,1,0,5.823Zm10.623,19.835a2.909,2.909,0,0,1-4.113-4.116l9.255-9.254a2.909,2.909,0,0,1,4.113,4.116l-9.255,9.254Zm21.536,6.508a2.908,2.908,0,0,1-5.816,0V751.372a2.908,2.908,0,0,1,5.816,0v13.092Zm19.833-10.624a2.91,2.91,0,0,1-4.116,4.116l-9.255-9.254a2.91,2.91,0,0,1,4.116-4.116l9.255,9.254Zm6.509-21.542a2.911,2.911,0,1,1,0,5.823h-13.086a2.911,2.911,0,0,1,0-5.823Zm-10.625-19.83a2.91,2.91,0,0,1,4.116,4.116l-9.255,9.254a2.911,2.911,0,0,1-4.116-4.117Z" transform="translate(35.431 -660.465)"/></g></svg>