<svg xmlns="http://www.w3.org/2000/svg" width="595.556" height="576.091" viewBox="0 0 595.556 576.091"><defs><style>.a{fill:#e67f6e;}.b,.g{fill:#d3766a;}.c{fill:#fff;}.d{fill:#24669a;}.e{fill:#1c262a;}.f{fill:#333;}.g{stroke:rgba(0,0,0,0);stroke-miterlimit:10;}.h{fill:#e6e6e6;}.i{fill:#ffba11;}.j{fill:#ec84ad;}.k{fill:#1f74a3;opacity:0.5;}.l{fill:#ff994d;}.m{fill:#ff6e4a;}</style></defs><g transform="translate(-763.347 -9743.376)"><g transform="translate(851.316 9743.376)"><g transform="translate(92.618 179.106)"><g transform="translate(0 0.002)"><g transform="translate(47.977)"><path class="a" d="M281.767,42.863s-9.579,85.437-16.141,140.9c-1.189,10.01-2.275,19.054-3.2,26.422-1.237,9.962-2.163,16.907-2.586,19.166-.375,1.924-.247,9.6-.168,20.4.048,6.067.064,13.115-.016,20.683-.343,29.232-.263,67.971-.192,92.254.064,13.842-.471,22.99-.471,22.99H192.881s-.192-8.9-.343-22.99c-.423-38.2-.678-114.5,3.321-154.861,5.548-56.053,23.4-164.967,23.4-164.967Z" transform="translate(-192.312 -42.863)"/></g><g transform="translate(0 293.566)"><path class="b" d="M187.907,181.9c3.584,1.189,106.016.894,109.911-1.581,1.477-.926,2.307-15.861,2.794-33.918.112-3.9.183-7.911.247-12.014.08-4.845.144-9.755.176-14.512.128-21.393-.176-40.232-.176-40.232H234.181l.032,40.232.016,14.512.343,12.014s-39.162,17.665-43.146,20.842C187.468,170.408,184.331,180.722,187.907,181.9Z" transform="translate(-186.027 -79.639)"/><path class="c" d="M187.907,146.7c3.584,1.189,106.016.894,109.911-1.581,1.477-.926,2.307-15.861,2.794-33.918.112-3.9.183-7.911.247-12.014.08-4.845.144-9.755.176-14.512H234.213l.016,14.512.343,12.014s-39.162,17.665-43.146,20.842C187.468,135.216,184.331,145.53,187.907,146.7Z" transform="translate(-186.027 -44.447)"/><g transform="translate(0 45.042)"><path class="d" d="M187.87,134.266c2.339.766,104.4,2.459,110.526-1.6,1.788-1.181,2.666-23.07,3.073-46.187H234.464l.343,12.086s-39.386,17.753-43.393,20.954C187.431,122.715,184.286,133.06,187.87,134.266Z" transform="translate(-186.302 -76.9)"/><g transform="translate(2.762)"><g transform="translate(0 17.331)"><path class="e" d="M186.923,92.35c17.266-.479,86.938-.758,104.044.088.136,0,.136.1,0,.1-17.107.846-86.778.559-104.044.088C186.556,92.622,186.556,92.358,186.923,92.35Z" transform="translate(-186.647 -56.435)"/><path class="e" d="M192.379,87.966c6.785-1.293,15.1-.271,20.308,4.558.2.184-.064.471-.287.4a95.8,95.8,0,0,0-19.988-4.1A.432.432,0,0,1,192.379,87.966Z" transform="translate(-149.086 -87.453)"/><path class="e" d="M191.77,88.338c6.785-1.293,15.1-.271,20.308,4.558.2.184-.072.471-.287.4a95.766,95.766,0,0,0-20-4.1A.432.432,0,0,1,191.77,88.338Z" transform="translate(-153.37 -84.855)"/><path class="e" d="M191.152,88.71c6.793-1.293,15.1-.271,20.308,4.558.208.184-.064.471-.287.4a95.7,95.7,0,0,0-19.988-4.1A.432.432,0,0,1,191.152,88.71Z" transform="translate(-157.654 -82.258)"/><path class="e" d="M190.539,89.082c6.793-1.293,15.1-.271,20.308,4.558.2.184-.064.471-.287.4a95.7,95.7,0,0,0-19.988-4.1A.432.432,0,0,1,190.539,89.082Z" transform="translate(-161.934 -79.66)"/></g><g transform="translate(29.714)"><path class="e" d="M194.426,97.115c4.813,3.728,11.08,5.229,16.691,7.3a.844.844,0,0,0,1.062-.854.182.182,0,0,0,.16-.247,36.271,36.271,0,0,0-10.5-15.534c-2.842-2.371-7.823-4.015-10.481-.327C188.838,90.936,191.616,94.943,194.426,97.115Zm-1.748-5.46c-1.213-7.456,6.8-3.56,8.821-1.724a36.974,36.974,0,0,1,3.616,3.88,107.56,107.56,0,0,1,6.338,8.933c-2.7-1.181-5.476-2.123-8.206-3.2C199.982,98.256,193.357,95.758,192.678,91.655Z" transform="translate(-190.37 -85.282)"/><path class="e" d="M217.231,89.205c-1.652-4.231-6.881-3.888-10.234-2.3a36.366,36.366,0,0,0-14.049,12.421.183.183,0,0,0,.1.279.839.839,0,0,0,.814,1.086c5.955-.591,12.389-.487,17.985-2.89C215.107,96.4,218.8,93.212,217.231,89.205ZM202.7,97.946c-2.922.367-5.843.583-8.749,1.054a109.07,109.07,0,0,1,8.366-7.072,40.261,40.261,0,0,1,4.462-2.858c2.419-1.269,11.152-3.033,8.11,3.88C213.215,96.757,206.183,97.515,202.7,97.946Z" transform="translate(-172.607 -81.595)"/></g></g></g></g><path class="f" d="M281.767,42.863s-9.579,85.437-16.141,140.9c-1.189,10.01-2.275,19.054-3.2,26.422-1.237,9.962-2.163,16.907-2.586,19.166-.375,1.924-.247,9.6-.168,20.4.048,6.067.064,13.115-.016,20.683-.343,29.232-.263,67.971-.192,92.254H192.538c-.423-38.2-.678-114.5,3.321-154.861,5.548-56.053,23.4-164.967,23.4-164.967Z" transform="translate(-144.335 -42.863)"/><path class="e" d="M228.205,249.754c-.072-10.8-.2-18.48.176-20.4,2.506-13.211,21.928-186.488,21.928-186.488H196.818Z" transform="translate(-112.869 -42.863)"/></g><g transform="translate(74.928)"><path class="a" d="M467.5,228.8s-2.243.91-6.266,2.443c-3.512,1.365-8.406,3.2-14.345,5.348-.75.248-1.517.535-2.315.814l-.423.16-1.461.511c-40.711,14.448-120.856,39.4-157.5,26.742C248.78,252.231,196.638,42.178,195.688,42.864c-.048.032,88.806,0,88.806,0s16.516,42.611,2.427,69.424c-1.3,2.475,31.547,89.955,51.416,87.553,15.518-1.876,58.783-18.112,86.084-26.51q2.311-.706,4.454-1.365c1.74-.535,3.4-1.054,4.965-1.525l.08-.032c3.337-1.014,6.2-1.908,8.461-2.6,3.616-1.11,5.708-1.748,5.708-1.748Z" transform="translate(-195.688 -42.863)"/><g transform="translate(209.805 108.863)"><path class="b" d="M351.982,161.309c.072-3.776-30.405-101.562-33.926-104.555-1.325-1.141-15.829,2.475-33.223,7.336-3.76,1.038-7.7,1.972-11.559,3.3-4.861,1.644-51.3,16.8-51.3,16.8L241.065,148.7l36.767-12.525,15.079-5.125,11.383-3.864s28.426,32.21,32.625,35.075C341.118,165.116,351.9,165.076,351.982,161.309Z" transform="translate(-221.971 -56.214)"/><path class="c" d="M319.765,161.309c.072-3.776-30.405-101.562-33.926-104.555-1.325-1.141-15.829,2.475-33.223,7.336-3.76,1.038-7.7,1.972-11.559,3.3-4.861,1.644-9.819,3.049-14.472,4.758,5.8,19.11,14.017,46.913,19.03,64.036l15.079-5.125,11.383-3.864S300.5,159.4,304.7,162.267C308.9,165.116,319.685,165.076,319.765,161.309Z" transform="translate(-189.753 -56.214)"/><g transform="translate(51.096)"><path class="d" d="M307.511,161.851c.08-3.792-30.565-102.121-34.109-105.138-1.628-1.389-22.814,4.255-45.029,10.681l19.749,64.028,11.447-3.887s28.569,32.4,32.808,35.283C296.607,165.682,307.431,165.642,307.511,161.851Z" transform="translate(-228.372 -56.5)"/><g transform="translate(7.366 5.604)"><g transform="translate(17.57)"><path class="e" d="M264.5,156.765c-5.54-16.356-26.35-82.851-30.581-99.447-.04-.136.056-.16.1-.032,5.843,16.093,26.111,82.763,30.749,99.4C264.864,157.036,264.616,157.108,264.5,156.765Z" transform="translate(-214.668 -57.202)"/><path class="e" d="M234.818,84.091c-3.233-6.107-4.71-14.353-1.637-20.747.12-.255.471-.08.471.152a95.5,95.5,0,0,0,1.98,20.316A.436.436,0,0,1,234.818,84.091Z" transform="translate(-231.496 -15.197)"/><path class="e" d="M235.352,84.562c-3.233-6.107-4.71-14.353-1.628-20.747.12-.247.471-.072.471.152a95.505,95.505,0,0,0,1.972,20.316A.435.435,0,0,1,235.352,84.562Z" transform="translate(-227.752 -11.869)"/><path class="e" d="M235.891,85.046c-3.233-6.115-4.71-14.353-1.637-20.755.12-.247.471-.072.471.16A95.413,95.413,0,0,0,236.7,84.758.433.433,0,0,1,235.891,85.046Z" transform="translate(-224.004 -8.545)"/><path class="e" d="M236.427,85.517c-3.233-6.107-4.71-14.353-1.637-20.747.12-.247.471-.08.471.152a95.5,95.5,0,0,0,1.972,20.316A.431.431,0,0,1,236.427,85.517Z" transform="translate(-220.261 -5.216)"/></g><g transform="translate(0 41.122)"><path class="e" d="M243.883,65.164a1.01,1.01,0,0,0-.926-.231c-.064-.1-.16-.16-.279-.08-.16.112-.335.239-.487.359l-.1.064-.192.144c-.231.168-.463.359-.7.567a36.512,36.512,0,0,0-5.356,5.4,33.965,33.965,0,0,0-2.083,2.834,31.812,31.812,0,0,0-2.842,5.253C229.5,82.893,229.4,88.13,233.7,89.583c4.071,1.381,7.081-2.459,8.334-5.779,1.541-4.111,1.772-8.573,1.884-12.98v-.048c.016-.032.016-.048,0-.064.064-1.692.08-3.369.168-5.013A.641.641,0,0,0,243.883,65.164Zm-1.916,6.322c-.064,1.062-.136,2.115-.216,3.177-.271,3.5-.694,10.561-4.422,12.413-6.769,3.369-5.4-5.436-4.247-7.911a38.671,38.671,0,0,1,2.634-4.614c.263-.423.551-.83.83-1.237l.048-.064c1.708-2.427,3.616-4.686,5.484-6.985.1-.112.192-.239.263-.343l.048-.048-.016.152a2.164,2.164,0,0,0-.032.319c-.168,1.708-.279,3.4-.375,5.093Z" transform="translate(-224.077 -45.159)"/><path class="e" d="M249.133,82.423l-.032-.064c-.75-1.812-1.477-3.712-2.227-5.588A37.092,37.092,0,0,0,241.063,66.1c-1.916-2.259-5.093-4.422-8.022-3.544a4.918,4.918,0,0,0-1.772.926c-3.56,2.818-1.692,7.727.814,10.449a32.216,32.216,0,0,0,6.035,5.077,36.477,36.477,0,0,0,8.3,4.175c.3.1.583.2.878.279a1.963,1.963,0,0,0,.263.08l.112.032c.144.048.271.088.407.12a.189.189,0,0,0,.255-.168A.851.851,0,0,0,249.133,82.423Zm-2.012.192a103.756,103.756,0,0,1-8.868-5.692l-1.03-.8a33.9,33.9,0,0,1-3.009-2.634c-1.74-1.74-5.4-8.3-.551-8.9a7.348,7.348,0,0,1,1.868.016c4.119.471,6.921,6.977,8.366,10.17,1.157,2.57,2.179,5.173,3.417,7.7a2.978,2.978,0,0,0,.176.359Z" transform="translate(-229.295 -62.354)"/></g></g></g></g><path class="f" d="M446.89,236.593c-.75.248-1.517.535-2.315.814l-.423.16-1.461.511c-40.711,14.448-120.856,39.4-157.5,26.742C248.78,252.231,196.638,42.178,195.688,42.864c-.048.032,88.806,0,88.806,0s16.516,42.611,2.427,69.424c-1.3,2.475,31.547,89.955,51.416,87.553,15.518-1.876,58.783-18.112,86.084-26.51q2.311-.706,4.454-1.365Z" transform="translate(-195.688 -42.863)"/></g></g><g transform="translate(0 0)"><g transform="translate(161.618)"><path class="e" d="M195.673,118.079a.893.893,0,0,0,.79.854c.982-.064,2.155-.152,3.472-.247,2.028-9.044,4.518-16.364,3.975-13.57a47.632,47.632,0,0,0-.559,13.315c1.525-.12,5.069-.439,6.841-.6.814-15.542,2.866-27.276,3.073-23.772.862,14.113,2.187,18.512,3.68,23.189,16.508-1.493,38.125-3.712,53.714-5.668.774-8.637,1.229-17.937,1.581-17.338,2.706,4.438,4.127,11.231,4.822,16.516,4.957-.663,8.916-1.285,11.3-1.8,0,0,.3-7.216.176-9.555a51.668,51.668,0,0,0-3.9-17.418c-2.371-5.652-5.851-10.441-9.2-15.382l-.088-.1-.024-.04a51.771,51.771,0,0,1-5.484-10.353l-.032-.08a51.407,51.407,0,0,1-2.315-8.222c-2-10.258-8.525-18.448-17.937-19.908-19.254-14.9-35.53-5.2-39.083,8.8-.343,1.357-.646,2.914-.918,4.6l-.008.048c-1.022,6.234-1.644,14.225-2.355,20.427l-.008.04c.016.016.016.032-.008.064v.024a61.644,61.644,0,0,1-1.189,7.216C202.985,80.537,193.845,88.065,195.673,118.079Z" transform="translate(-191.533 -20.426)"/><path class="e" d="M203.248,21.677c6.362,2.491,10.609,6.841,12.461,14.273,1.078,4.335,1.876,8.589,3.967,12.533,2.155,4.063,5.165,7.216,8.238,10.361,4.893,5,8.517,10.146,10.074,17.474,1.589,7.44,2.347,16.38.838,23.74a.033.033,0,1,1-.064-.016c1.046-7.392-.112-17.266-2.211-24.57-2.307-8.014-7.264-12.565-12.461-18.176a35.244,35.244,0,0,1-8.557-15.829c-.9-3.672-1.325-7.567-3.161-10.888-2.187-3.967-5.851-6.17-9.451-8.078C202.433,22.244,202.769,21.485,203.248,21.677Z" transform="translate(-140.922 -11.903)"/><path class="e" d="M200.842,63.911c3.48-6.466,7.248-12.078,8.813-19.709,1.429-6.953,1.852-14.153,3.321-21.1a.081.081,0,1,1,.16.024c-2.075,12.269-1.3,24.243-7.176,35.139-3.193,5.923-6.426,11.447-8.174,18.256A61.887,61.887,0,0,0,196.4,98.372c.024.263-.287.287-.343.04A51.089,51.089,0,0,1,200.842,63.911Z" transform="translate(-194.945 -2.227)"/></g><g transform="translate(0 18.809)"><path class="b" d="M319.747,72.086c-13.874,13.467-65.185,38.492-83.489,32.074-11.934-4.191-46.171-37.662-52.924-47.528-7.895-11.559,16.692-33.974,23.6-29.5,8.629,5.588,35.411,34.78,43.529,39.434,4.67,2.674,37.494-8.054,69.065-14.616C331.753,49.4,328.025,64.056,319.747,72.086Z" transform="translate(-125.196 3.509)"/><g transform="translate(46.314 13.932)"><path class="b" d="M216.384,53.3s-20.619-14.56-21.872-14.919c-1.269-.351-1.836,1.4-2.339,2.77a13.834,13.834,0,0,0-.1,2.634c.032,4.151-.072,11.487-5.244,10.593-6.8-1.173-6.586-17.665-6.147-20.228a8.026,8.026,0,0,1,1.708-2.993c2.618-3.249,7.791-7.3,12.772-6.538,6.833,1.046,13.163,5.221,18.919,8.446Z" transform="translate(-180.501 -24.527)"/><path class="e" d="M214.728,53.3s-20.619-14.56-21.872-14.919c-1.269-.351-1.836,1.4-2.339,2.77a13.836,13.836,0,0,0-.1,2.634c-3.456-4.486-7.264-9.451-9.683-12.628,2.618-3.249,7.791-7.3,12.772-6.538,6.833,1.046,13.163,5.221,18.919,8.446Z" transform="translate(-178.845 -24.527)"/></g><path class="g" d="M39.674,71.141C38.82,69.936,29.911,60.844,23.19,54c-2.306-2.332-4.375-4.383-5.828-5.739-5.7-5.333-7.135-10.146-7.879-15.415C8.764,27.6-2.793,16.6,5.891,15.782c4.3-.4,8.162,3.31,11.2,7.023,3.105,3.792,5.363,7.583,6.383,7,.385-.224.663-.943.854-1.965.807-4.374.057-14.176-.383-14.176-.815-.008-3.7-.041-7.2-.351C12.125,12.885,6.427,11.974,3.017,10,1.158,8.918-.016,7.538,0,5.75.024,2.525,7.08,2.277,15.415,1.263,26.774-.143,40.791-1.244,45.31,2.947,51.976,9.134,54.936,22.521,56.276,26.4c1.358,3.888,9.62,14.512,9.62,14.512C60.179,60.815,43.281,71.3,40.128,71.3A.535.535,0,0,1,39.674,71.141Z" transform="translate(32.801 5.045)"/><path class="f" d="M177.306,23.56s14.951,5.109,30.661,9.707,47.384,21.353,47.552,22.7-34.884-8.98-49.723-15.342-29.447-13.754-29.447-13.754Z" transform="translate(-163.184 -17.349)"/><path class="h" d="M177.623,23.524l10.459,3.047-2.2,5.469-9.62-4.754Z" transform="translate(-163.77 -17.597)"/><path class="f" d="M188.039,28.454a8.555,8.555,0,0,0-7.073-3.385c-4.366-.04-6.194-2.251-6.194-2.251s2.969,10.042,11.91,9.4Z" transform="translate(-174.188 -22.53)"/><path class="i" d="M174.979,22.783c.615.04,2.339,2.091,4.694,2.291,2.211.184,1.381,6.777-.822,4.606C176.352,27.213,173.846,22.711,174.979,22.783Z" transform="translate(-174.699 -22.782)"/><path class="e" d="M190.56,30.819c-.016-.2-.144-.168-.176.064-.08.726-.479,3.959-1.229,3.959-1.3,0-5.875-6.474-8.27-8.861-.128-.128-.319.04-.192.152.679.607,2.706,3.44,3.217,4.111.99,1.309,3.72,5.508,5.356,5.508C190.369,35.752,190.632,31.625,190.56,30.819Z" transform="translate(-133.133 -0.763)"/><g transform="translate(147.702 54.101)"><path class="d" d="M193.2,39.4s3.64,11.367,6.937,21.7c2.57,8.182,4.957,15.718,5.117,16.524a252.144,252.144,0,0,0,35.618-23.78c15.071-12.245,13.5-22.5,4.774-24.083a15.315,15.315,0,0,0-4.055-.128C229.57,30.746,193.2,39.4,193.2,39.4Z" transform="translate(-193.202 -29.559)"/><g transform="translate(10.082 7.661)"><path class="c" d="M201.832,35.061h-1.237a2.272,2.272,0,0,1-2.275-2.267,1.489,1.489,0,0,0-1.485-1.493h-1.3v-.782h1.3a2.272,2.272,0,0,1,2.267,2.275,1.489,1.489,0,0,0,1.493,1.485h1.237Z" transform="translate(-187.001 -30.519)"/><path class="c" d="M195.016,34.966l-.551-.559.87-.87a2.279,2.279,0,0,1,3.217,0,1.518,1.518,0,0,0,2.107,0l.918-.918.559.551-.926.926a2.33,2.33,0,0,1-3.209,0,1.5,1.5,0,0,0-2.115,0Z" transform="translate(-194.465 -15.856)"/></g><path class="f" d="M194.071,60.924c2.57,8.182,4.957,15.718,5.117,16.524a252.143,252.143,0,0,0,35.618-23.78c15.071-12.245,13.5-22.5,4.774-24.083Z" transform="translate(-187.134 -29.38)"/></g></g><g transform="translate(143.942 70.796)"><path class="d" d="M331.531,263.132h-138.8l.8-4.981,17.378-108.73.24-1.421,8.166-51.12s-7.176-10.864-5.005-20.675c1.1-4.965,12.6-24.8,18.623-32.84a60.534,60.534,0,0,1,6.442-7.615c6.673-6.226,15.638-7.073,22.08-6.131h.016a19.048,19.048,0,0,1,3.321.83C274,33.618,285.336,44.394,291.4,60.726c2.115,5.676,4.215,12.285,6.29,19.605v.016c.088.359.184.718.3,1.078,6.067,21.768,11.862,49.476,16.859,76.664,2.842,15.374,5.42,30.589,7.663,44.463l.287,1.828C328.195,237.9,331.531,263.132,331.531,263.132Z" transform="translate(-192.731 -29.294)"/><g transform="translate(5.149 13.655)"><path class="c" d="M206.982,47.591h-1.237a2.272,2.272,0,0,1-2.267-2.275,1.5,1.5,0,0,0-1.493-1.493h-1.3v-.782h1.3a2.279,2.279,0,0,1,2.275,2.275,1.482,1.482,0,0,0,1.485,1.485h1.237Z" transform="translate(-142.348 53.037)"/><path class="c" d="M209.421,56.317h-1.229a2.279,2.279,0,0,1-2.275-2.275,1.5,1.5,0,0,0-1.493-1.493h-1.3v-.782h1.3a2.279,2.279,0,0,1,2.275,2.275,1.5,1.5,0,0,0,1.493,1.493h1.229Z" transform="translate(-125.317 113.967)"/><path class="c" d="M212.458,48.062h-1.229a2.279,2.279,0,0,1-2.275-2.275,1.489,1.489,0,0,0-1.493-1.485h-1.3v-.79h1.3a2.279,2.279,0,0,1,2.275,2.275,1.5,1.5,0,0,0,1.493,1.493h1.229Z" transform="translate(-104.111 56.326)"/><path class="c" d="M204.7,43.624h-1.237a2.279,2.279,0,0,1-2.275-2.275,1.489,1.489,0,0,0-1.485-1.493h-1.3v-.782h1.3a2.279,2.279,0,0,1,2.275,2.275,1.489,1.489,0,0,0,1.485,1.493H204.7Z" transform="translate(-158.317 25.337)"/><path class="c" d="M201.832,39.953h-1.237a2.279,2.279,0,0,1-2.275-2.275,1.489,1.489,0,0,0-1.485-1.493h-1.3V35.4h1.3a2.272,2.272,0,0,1,2.267,2.275,1.489,1.489,0,0,0,1.493,1.485h1.237Z" transform="translate(-178.308 -0.296)"/><path class="c" d="M209.473,43.524h-1.229a2.279,2.279,0,0,1-2.275-2.275,1.5,1.5,0,0,0-1.493-1.493h-1.3v-.782h1.3a2.279,2.279,0,0,1,2.275,2.275,1.5,1.5,0,0,0,1.493,1.493h1.229Z" transform="translate(-124.954 24.639)"/><path class="c" d="M206.646,38.53h-1.229a2.279,2.279,0,0,1-2.275-2.275,1.5,1.5,0,0,0-1.493-1.493h-1.3V33.98h1.3a2.279,2.279,0,0,1,2.275,2.275,1.489,1.489,0,0,0,1.493,1.485h1.229Z" transform="translate(-144.694 -10.232)"/><path class="c" d="M203.522,51.242h-1.237a2.279,2.279,0,0,1-2.275-2.275,1.489,1.489,0,0,0-1.485-1.493h-1.3v-.782h1.3a2.279,2.279,0,0,1,2.275,2.275,1.482,1.482,0,0,0,1.485,1.485h1.237Z" transform="translate(-166.507 78.53)"/><path class="c" d="M207.486,59.425h-1.229a2.279,2.279,0,0,1-2.275-2.275,1.5,1.5,0,0,0-1.493-1.493h-1.3v-.782h1.3a2.279,2.279,0,0,1,2.275,2.275,1.5,1.5,0,0,0,1.493,1.493h1.229Z" transform="translate(-138.828 135.668)"/><path class="c" d="M212.636,62.21h-1.229a2.274,2.274,0,0,1-2.275-2.275,1.5,1.5,0,0,0-1.493-1.493h-1.3V57.66h1.3a2.279,2.279,0,0,1,2.275,2.275,1.5,1.5,0,0,0,1.493,1.493h1.229Z" transform="translate(-102.868 155.115)"/><path class="c" d="M201.815,60.269h-1.229a2.274,2.274,0,0,1-2.275-2.275,1.5,1.5,0,0,0-1.493-1.493h-1.3v-.782h1.3a2.279,2.279,0,0,1,2.275,2.275,1.489,1.489,0,0,0,1.493,1.485h1.229Z" transform="translate(-178.426 141.562)"/><path class="c" d="M206.167,54.941h-1.229a2.279,2.279,0,0,1-2.275-2.275,1.489,1.489,0,0,0-1.493-1.485h-1.3v-.79h1.3a2.279,2.279,0,0,1,2.275,2.275,1.5,1.5,0,0,0,1.493,1.493h1.229Z" transform="translate(-148.038 104.359)"/><path class="c" d="M201.413,55.722h-1.229a2.279,2.279,0,0,1-2.275-2.275,1.489,1.489,0,0,0-1.485-1.493h-1.3v-.782h1.3a2.279,2.279,0,0,1,2.275,2.275,1.489,1.489,0,0,0,1.485,1.493h1.229Z" transform="translate(-181.178 109.812)"/><path class="c" d="M208.352,51.347h-1.229a2.279,2.279,0,0,1-2.275-2.275,1.5,1.5,0,0,0-1.493-1.493h-1.3V46.8h1.3a2.279,2.279,0,0,1,2.275,2.275,1.5,1.5,0,0,0,1.493,1.493h1.229Z" transform="translate(-132.782 79.263)"/><path class="c" d="M214.422,57.23h-1.229a2.279,2.279,0,0,1-2.275-2.275,1.5,1.5,0,0,0-1.493-1.493h-1.3V52.68h1.3a2.279,2.279,0,0,1,2.275,2.275,1.489,1.489,0,0,0,1.493,1.485h1.229Z" transform="translate(-90.398 120.342)"/><path class="c" d="M198.431,43.914l-.551-.551.87-.878a2.34,2.34,0,0,1,3.217,0,1.489,1.489,0,0,0,2.108,0l.918-.918.559.559-.926.918a2.269,2.269,0,0,1-3.209,0,1.5,1.5,0,0,0-2.115,0Z" transform="translate(-161.927 42.745)"/><path class="c" d="M196.676,40.966l-.559-.551.87-.87a2.324,2.324,0,0,1,3.217,0,1.5,1.5,0,0,0,2.107,0l.918-.926.559.559-.918.918a2.279,2.279,0,0,1-3.217,0,1.519,1.519,0,0,0-2.107,0Z" transform="translate(-174.237 22.16)"/><path class="c" d="M205.571,49.046l-.559-.551.878-.87a2.262,2.262,0,0,1,3.209,0,1.534,1.534,0,0,0,2.107,0l.926-.926.551.559-.918.918a2.324,2.324,0,0,1-3.217,0,1.489,1.489,0,0,0-2.107,0Z" transform="translate(-112.127 78.579)"/><path class="c" d="M201.12,39.491l-.559-.559.878-.87a2.33,2.33,0,0,1,3.209,0,1.519,1.519,0,0,0,2.107,0l.926-.918.551.551-.918.926a2.332,2.332,0,0,1-3.217,0,1.489,1.489,0,0,0-2.107,0Z" transform="translate(-143.207 11.861)"/><path class="c" d="M200.089,33.344l-.551-.551.87-.87a2.279,2.279,0,0,1,3.217,0,1.489,1.489,0,0,0,2.107,0L206.65,31l.559.551-.926.918a2.269,2.269,0,0,1-3.209,0,1.513,1.513,0,0,0-2.115,0Z" transform="translate(-150.35 -31.005)"/><path class="c" d="M198.091,36.693l-.559-.551.87-.87a2.279,2.279,0,0,1,3.217,0,1.489,1.489,0,0,0,2.107,0l.926-.918.551.551-.918.918a2.279,2.279,0,0,1-3.217,0,1.5,1.5,0,0,0-2.107,0Z" transform="translate(-164.357 -7.62)"/><path class="c" d="M201.575,46.249h-.782V45.02a2.279,2.279,0,0,1,2.275-2.275,1.5,1.5,0,0,0,1.493-1.493v-1.3h.782v1.3a2.279,2.279,0,0,1-2.275,2.275,1.5,1.5,0,0,0-1.493,1.493Z" transform="translate(-141.587 31.461)"/><path class="c" d="M200.525,54h-.782V52.775a2.279,2.279,0,0,1,2.275-2.275,1.489,1.489,0,0,0,1.485-1.493v-1.3h.79v1.3a2.279,2.279,0,0,1-2.275,2.275,1.5,1.5,0,0,0-1.493,1.493Z" transform="translate(-148.918 85.61)"/><path class="c" d="M205.99,59.774h-.782V58.545a2.279,2.279,0,0,1,2.275-2.275,1.5,1.5,0,0,0,1.493-1.493v-1.3h.782v1.3a2.279,2.279,0,0,1-2.275,2.275,1.5,1.5,0,0,0-1.493,1.493Z" transform="translate(-110.759 125.9)"/><path class="c" d="M209.764,63.535h-.782V62.306a2.279,2.279,0,0,1,2.275-2.275,1.489,1.489,0,0,0,1.485-1.493v-1.3h.782v1.3a2.272,2.272,0,0,1-2.267,2.275,1.5,1.5,0,0,0-1.493,1.493Z" transform="translate(-84.407 152.161)"/><path class="c" d="M208.393,52.637h-.79V51.408a2.279,2.279,0,0,1,2.275-2.275,1.489,1.489,0,0,0,1.493-1.485v-1.3h.782v1.3a2.272,2.272,0,0,1-2.275,2.267,1.489,1.489,0,0,0-1.485,1.493Z" transform="translate(-94.035 76.121)"/><path class="c" d="M196.25,54.274h-.782V53.045a2.279,2.279,0,0,1,2.275-2.275,1.494,1.494,0,0,0,1.493-1.485v-1.3h.782v1.3a2.272,2.272,0,0,1-2.275,2.267,1.5,1.5,0,0,0-1.493,1.493Z" transform="translate(-178.769 87.552)"/><path class="c" d="M196.486,47.323H195.7V46.094a2.279,2.279,0,0,1,2.275-2.275,1.489,1.489,0,0,0,1.485-1.493v-1.3h.79v1.3a2.279,2.279,0,0,1-2.275,2.275,1.5,1.5,0,0,0-1.493,1.493Z" transform="translate(-177.121 38.96)"/><path class="c" d="M199.024,42.8h-.782V41.571a2.279,2.279,0,0,1,2.275-2.275A1.5,1.5,0,0,0,202.01,37.8V36.5h.782v1.3a2.279,2.279,0,0,1-2.275,2.275,1.5,1.5,0,0,0-1.493,1.493Z" transform="translate(-159.399 7.378)"/><path class="c" d="M198.064,38.251h-.782V37.014a2.279,2.279,0,0,1,2.275-2.275,1.489,1.489,0,0,0,1.493-1.485v-1.3h.782v1.3a2.279,2.279,0,0,1-2.275,2.275,1.489,1.489,0,0,0-1.493,1.485Z" transform="translate(-166.102 -24.386)"/><path class="c" d="M198.343,49.793h-.782V48.564a2.272,2.272,0,0,1,2.267-2.275,1.5,1.5,0,0,0,1.493-1.493v-1.3h.782v1.3a2.274,2.274,0,0,1-2.275,2.275,1.494,1.494,0,0,0-1.485,1.493Z" transform="translate(-164.154 56.207)"/><path class="c" d="M204.461,50.733h-.782V49.5a2.279,2.279,0,0,1,2.275-2.275,1.5,1.5,0,0,0,1.493-1.493v-1.3h.782v1.3a2.279,2.279,0,0,1-2.275,2.275,1.5,1.5,0,0,0-1.493,1.493Z" transform="translate(-121.435 62.771)"/><path class="c" d="M198.806,58.586h-.782V57.349a2.272,2.272,0,0,1,2.275-2.267,1.5,1.5,0,0,0,1.493-1.493v-1.3h.782v1.3a2.279,2.279,0,0,1-2.275,2.275,1.489,1.489,0,0,0-1.493,1.485Z" transform="translate(-160.921 117.604)"/><path class="c" d="M194.471,60.669h-.782V59.44a2.279,2.279,0,0,1,2.275-2.275,1.5,1.5,0,0,0,1.493-1.493v-1.3h.782v1.3a2.279,2.279,0,0,1-2.275,2.275,1.5,1.5,0,0,0-1.493,1.493Z" transform="translate(-191.191 132.149)"/><path class="c" d="M200.138,63.021h-.79V61.792a2.279,2.279,0,0,1,2.275-2.275,1.5,1.5,0,0,0,1.493-1.493V56.731h.782v1.293a2.279,2.279,0,0,1-2.275,2.275,1.489,1.489,0,0,0-1.485,1.493Z" transform="translate(-151.676 148.628)"/><path class="c" d="M206.51,55.2h-.782V53.962A2.265,2.265,0,0,1,208,51.695a1.5,1.5,0,0,0,1.493-1.493V48.9h.782v1.3A2.279,2.279,0,0,1,208,52.477a1.482,1.482,0,0,0-1.485,1.485Z" transform="translate(-107.128 93.955)"/><path class="c" d="M203.6,44.026l-.559-.551.918-.918a2.279,2.279,0,0,1,3.217,0,1.5,1.5,0,0,0,2.107,0l.87-.878.559.559-.87.87a2.279,2.279,0,0,1-3.217,0,1.489,1.489,0,0,0-2.107,0Z" transform="translate(-125.911 43.527)"/><path class="c" d="M200.106,47.536l-.559-.551.926-.926a2.269,2.269,0,0,1,3.209,0,1.528,1.528,0,0,0,2.115,0l.87-.87.551.559-.87.87a2.332,2.332,0,0,1-3.217,0,1.489,1.489,0,0,0-2.107,0Z" transform="translate(-150.287 68.035)"/><path class="c" d="M197.688,52.3l-.559-.551.926-.926a2.269,2.269,0,0,1,3.209,0,1.5,1.5,0,0,0,2.115,0l.87-.87.551.559-.87.87a2.279,2.279,0,0,1-3.217,0,1.489,1.489,0,0,0-2.107,0Z" transform="translate(-167.171 101.293)"/><path class="c" d="M198.726,57.248l-.551-.559.918-.918a2.279,2.279,0,0,1,3.217,0,1.489,1.489,0,0,0,2.107,0l.87-.87.551.559-.87.87a2.34,2.34,0,0,1-3.217,0,1.489,1.489,0,0,0-2.107,0Z" transform="translate(-159.867 135.85)"/><path class="c" d="M202.125,60.145l-.551-.559.918-.918a2.279,2.279,0,0,1,3.217,0,1.489,1.489,0,0,0,2.108,0l.87-.87.551.559-.87.87a2.332,2.332,0,0,1-3.217,0,1.489,1.489,0,0,0-2.107,0Z" transform="translate(-136.133 156.078)"/><path class="c" d="M203.4,51.8l-.551-.551.918-.918a2.279,2.279,0,0,1,3.217,0,1.5,1.5,0,0,0,2.107,0l.87-.87.551.551-.87.87a2.324,2.324,0,0,1-3.217,0,1.5,1.5,0,0,0-2.107,0Z" transform="translate(-127.196 97.879)"/><path class="c" d="M204.271,58.316l-.551-.551.918-.926a2.34,2.34,0,0,1,3.217,0,1.489,1.489,0,0,0,2.107,0l.87-.87.551.551-.87.878a2.279,2.279,0,0,1-3.217,0,1.518,1.518,0,0,0-2.107,0Z" transform="translate(-121.149 143.307)"/><path class="c" d="M207.911,57.91l-.559-.559.918-.918a2.279,2.279,0,0,1,3.217,0,1.519,1.519,0,0,0,2.107,0l.87-.87.559.551-.87.87a2.324,2.324,0,0,1-3.217,0,1.5,1.5,0,0,0-2.107,0Z" transform="translate(-95.788 140.472)"/><path class="c" d="M208.195,51.8l-.551-.551.918-.918a2.324,2.324,0,0,1,3.217,0,1.5,1.5,0,0,0,2.107,0l.87-.87.551.551-.87.87a2.279,2.279,0,0,1-3.217,0,1.489,1.489,0,0,0-2.107,0Z" transform="translate(-93.749 97.879)"/><path class="c" d="M206.633,53.773l-.559-.551.918-.918a2.279,2.279,0,0,1,3.217,0,1.526,1.526,0,0,0,2.107,0l.87-.87.559.551-.87.87a2.272,2.272,0,0,1-3.217,0,1.489,1.489,0,0,0-2.107,0Z" transform="translate(-104.712 111.641)"/><path class="c" d="M201.208,55.277l-.551-.559.918-.918a2.324,2.324,0,0,1,3.217,0,1.5,1.5,0,0,0,2.107,0l.87-.87.559.551-.878.87a2.279,2.279,0,0,1-3.217,0,1.5,1.5,0,0,0-2.107,0Z" transform="translate(-142.536 122.087)"/><path class="c" d="M196.223,55.951l-.551-.551.918-.918a2.324,2.324,0,0,1,3.217,0,1.489,1.489,0,0,0,2.107,0l.87-.87.551.551-.87.87a2.324,2.324,0,0,1-3.217,0,1.534,1.534,0,0,0-2.107,0Z" transform="translate(-177.344 126.849)"/><path class="c" d="M197.078,60.409l-.559-.551.918-.918a2.279,2.279,0,0,1,3.217,0,1.489,1.489,0,0,0,2.107,0l.87-.87.559.551-.87.87a2.279,2.279,0,0,1-3.217,0,1.489,1.489,0,0,0-2.107,0Z" transform="translate(-171.43 157.978)"/><path class="c" d="M193.935,59.824l-.559-.551.918-.918a2.279,2.279,0,0,1,3.217,0,1.5,1.5,0,0,0,2.107,0l.878-.87.551.551-.87.87a2.279,2.279,0,0,1-3.217,0,1.5,1.5,0,0,0-2.107,0Z" transform="translate(-193.376 153.893)"/><path class="c" d="M195.824,47.641l-.551-.551.918-.918a2.279,2.279,0,0,1,3.217,0,1.5,1.5,0,0,0,2.107,0l.87-.87.551.551-.87.87a2.324,2.324,0,0,1-3.217,0,1.489,1.489,0,0,0-2.107,0Z" transform="translate(-180.13 68.824)"/></g><path class="f" d="M268.5,262.122H245.606L201.758,29.439c9.212,3.169,20.547,13.946,26.606,30.278,2.115,5.676,4.215,12.285,6.29,19.605v.016c.088.359.184.718.3,1.078,6.067,21.768,11.862,49.476,16.859,76.664,2.842,15.374,5.42,30.589,7.663,44.463l.287,1.828C265.163,236.889,268.5,262.122,268.5,262.122Z" transform="translate(-129.7 -28.285)"/></g><g transform="translate(215.585 73.721)"><g transform="translate(9.077 7.556)"><g transform="translate(46.929 124.229)"><path class="b" d="M232.334,98.751c2.834,6.394,1.277,17.154,6.45,16.54,4.6-.551,4.957-8.11,4.957-8.11s2.355,8.645,7.136,6.649,3.48-10.369,3.48-10.369,1.636,7.288,6.266,4.957,4.813-9.651,4.813-9.651,1.9,1.764,4.43-1.357c3.616-4.462.854-16.572-2.084-22.551S249.657,49.147,247.27,46.17L208.722,64.713s.319,13.051,1.293,19.653,10.2,27.444,15.526,25.5-1.445-16.548-2.315-20.491-.112-4.805,1.66-3.337C226.052,86.993,231.081,95.917,232.334,98.751Z" transform="translate(-208.722 -46.17)"/><g transform="translate(26.871 27.51)"><path class="e" d="M220.069,74.84c-.247-10.569-2.187-15.151-7.951-23.82-.112-.168.112-.375.248-.208,6.418,7.975,9.675,13.371,8.222,24.043C220.516,75.374,220.085,75.343,220.069,74.84Z" transform="translate(-212.088 -41.698)"/><path class="e" d="M222.009,75.847c-1.221-10.952-3.281-15.941-8.653-25.464-.072-.128.144-.271.231-.144,6.051,8.9,9.18,14.353,8.964,25.464C222.535,76.207,222.064,76.35,222.009,75.847Z" transform="translate(-203.339 -45.611)"/><path class="e" d="M224.923,74.6c-1.948-10.521-3.975-16.085-10.369-24.658a.2.2,0,0,1,.3-.255c7.376,8.11,9.954,15.031,10.385,24.818C225.267,75.175,225.043,75.262,224.923,74.6Z" transform="translate(-195.174 -49.616)"/></g></g><path class="b" d="M208.351,32.169c29.783,30.916,75.658,113.176,81.031,124.416,3.648,7.623-36.217,27.8-37.917,22.247-2.179-7.1-36.185-87.608-45.461-120.7C200.887,39.888,202.2,25.783,208.351,32.169Z" transform="translate(-202.843 -30.607)"/></g><path class="d" d="M202.784,42.554c1.98,11.287,15.414,48.909,15.414,48.909l24.714-5.931.431-.088,15.75-3.776s-30.19-35.235-44.343-46.1C200.613,24.721,200.549,29.846,202.784,42.554Z" transform="translate(-201.706 -29.661)"/><path class="c" d="M212.351,39.953h-1.229a2.279,2.279,0,0,1-2.275-2.275,1.5,1.5,0,0,0-1.493-1.493h-1.293V35.4h1.293a2.279,2.279,0,0,1,2.275,2.275,1.489,1.489,0,0,0,1.493,1.485h1.229Z" transform="translate(-171.296 10.434)"/><path class="c" d="M204.622,35.634l-.551-.551.87-.87a2.279,2.279,0,0,1,3.217,0,1.534,1.534,0,0,0,2.107,0l.918-.918.559.551-.918.918a2.324,2.324,0,0,1-3.217,0,1.5,1.5,0,0,0-2.107,0Z" transform="translate(-185.192 -4.285)"/><path class="c" d="M204.067,41.348h-.782V40.119a2.279,2.279,0,0,1,2.275-2.275,1.489,1.489,0,0,0,1.485-1.493V35.058h.79v1.293a2.279,2.279,0,0,1-2.275,2.275,1.5,1.5,0,0,0-1.493,1.493Z" transform="translate(-190.68 8.025)"/><path class="c" d="M202.951,37.856h-.79V36.627a2.279,2.279,0,0,1,2.275-2.275,1.5,1.5,0,0,0,1.493-1.493v-1.3h.782v1.3a2.279,2.279,0,0,1-2.275,2.275,1.489,1.489,0,0,0-1.485,1.493Z" transform="translate(-198.528 -16.414)"/></g><g transform="translate(178.61 0.217)"><path class="b" d="M243.041,39.469c.327-.718-19.653,17.242-36.137,14.049-8.214-1.589-9.763-19.908-8.8-20.1C211.949,30.656,225.112,23.1,243.041,39.469Z" transform="translate(-191.633 41.045)"/><g transform="translate(16.859 45.662)"><path class="b" d="M218.057,54.423c-.615,1.573-9.882,11-17.25,9.587-2.4-.463-.447-13.682-.447-13.682l-.08-1.006L199.186,35.2l17.546-8,2.514-1.03s.048,3.88.056,8.717v.687c.008.271.016.535.016.79.008.718.016,1.453.008,2.2-.008.559-.008,1.1-.032,1.684-.008.591-.032,1.165-.04,1.756A92.231,92.231,0,0,1,218.057,54.423Z" transform="translate(-199.186 -26.173)"/><path class="e" d="M219.3,34.89a28.428,28.428,0,0,1-19.022,14.432L199.186,35.2l17.546-8,2.514-1.03S219.294,30.053,219.3,34.89Z" transform="translate(-199.186 -26.173)"/></g><path class="b" d="M198.447,46.464c-5.747,24.179,8.078,30.358,13.3,31.587,4.734,1.126,20.994,4.335,29.208-19.11s-1.2-33.774-11.894-36.911S204.2,22.293,198.447,46.464Z" transform="translate(-197.074 -16.313)"/><g transform="translate(3.617 25.13)"><path class="e" d="M198.707,26a15.284,15.284,0,0,0,1.708-.072,2.8,2.8,0,0,0,1.74-.415.871.871,0,0,0,.168-1.062,2.173,2.173,0,0,0-2.044-.854,3.191,3.191,0,0,0-2.179.79A.941.941,0,0,0,198.707,26Z" transform="translate(-195.61 -23.601)"/><path class="e" d="M202.847,26.954a16.272,16.272,0,0,1-1.6-.623,2.824,2.824,0,0,1-1.509-.95.888.888,0,0,1,.176-1.062,2.184,2.184,0,0,1,2.219-.152,3.2,3.2,0,0,1,1.8,1.453A.938.938,0,0,1,202.847,26.954Z" transform="translate(-182.867 -21.222)"/><g transform="translate(15.247 9.915)"><path class="e" d="M199.875,25.036c.032-.056.12.1.1.176-.367,1.652-.511,3.608.886,4.438.048.032.024.112-.024.1C199.053,29.139,199.268,26.545,199.875,25.036Z" transform="translate(-199.437 -23.575)"/><path class="e" d="M201.577,24.852c2.706.3,1.9,5.708-.607,5.428C198.5,30,199.3,24.6,201.577,24.852Z" transform="translate(-199.319 -24.843)"/><path class="e" d="M200.163,24.94c.431.375.806.982,1.373,1.126.647.16,1.229-.335,1.74-.814.048-.048.088.008.08.08-.136,1.038-.694,2.036-1.828,2.028-1.03-.008-1.621-1.038-1.724-2.115C199.78,25.044,200,24.789,200.163,24.94Z" transform="translate(-196.891 -24.484)"/></g><g transform="translate(0 6.445)"><g transform="translate(1.477 0.6)"><path class="e" d="M200.343,24.75c0-.064-.144.064-.152.128-.184,1.684-.671,3.584-2.267,3.927-.048.008-.056.088,0,.088C199.808,28.9,200.438,26.371,200.343,24.75Z" transform="translate(-196.504 -22.742)"/><path class="e" d="M200.306,24.528c-2.666-.583-3.64,4.79-1.173,5.332C201.567,30.395,202.541,25.023,200.306,24.528Z" transform="translate(-197.712 -24.483)"/></g><path class="e" d="M200.408,25.2c-.471.208-.99.647-1.5.591-.6-.064-.926-.726-1.2-1.349-.032-.072-.08-.032-.1.04-.215,1.022-.072,2.155.886,2.53.862.343,1.684-.423,2.115-1.4C200.7,25.436,200.6,25.125,200.408,25.2Z" transform="translate(-197.527 -24.408)"/></g><path class="e" d="M202.1,26.635c-.439.351-.9.854-1.517.846a4.569,4.569,0,0,1-1.764-.615c-.048-.024-.112.032-.08.08a2.266,2.266,0,0,0,2.043,1.133,1.788,1.788,0,0,0,1.477-1.349C202.288,26.635,202.168,26.588,202.1,26.635Z" transform="translate(-189.149 -2.543)"/><g transform="translate(4.067 0.768)"><path class="e" d="M200.906,39.861s-.742,2.435-.934,3.616c-.016.112.255.208.654.3l.048.008a5.661,5.661,0,0,0,5.771-1.213.124.124,0,0,0-.152-.192,8.53,8.53,0,0,1-5.348.639c-.024-.335,1.421-4.135,1.237-4.175a10.2,10.2,0,0,0-2.77.176c1.4-5.133,3.624-9.986,4.949-15.111a.163.163,0,0,0-.3-.128c-2.682,4.925-4.43,10.792-6.019,16.045C197.841,40.475,200.4,39.98,200.906,39.861Z" transform="translate(-198.036 -23.697)"/></g><g transform="translate(6.896 19.375)"><path class="e" d="M198.391,26.611a6.945,6.945,0,0,0,2.091,2.818,3.1,3.1,0,0,0,1.8.631c1.413.024,1.788-1.181,1.836-2.283a7.66,7.66,0,0,0-.144-1.748A8.986,8.986,0,0,1,198.391,26.611Z" transform="translate(-198.391 -26.028)"/><path class="j" d="M198.653,27.952a3.1,3.1,0,0,0,1.8.631c1.413.024,1.788-1.181,1.836-2.283A3.222,3.222,0,0,0,198.653,27.952Z" transform="translate(-196.562 -24.551)"/></g></g><path class="e" d="M238.668,63.169c-2.778-.631-8.813-9.555-6.809-23.141,0,0-.958,12.325-.335,14.257s-3.369-5.013-1.9-16c0,0-6.777,3.369-12.173,3.967s-8.549.024-8.861-.407,7.687-1.573,10.13-3.608c0,0-14.784,4.119-21.194,3.56-.734-.064.87-15.263,11.7-20.036s25.2,4.678,28.705,9.387c0,0,4.774,1.5,8.9,9.619S241.661,63.847,238.668,63.169Z" transform="translate(-194.987 -20.453)"/><g transform="translate(37.263 38.598)"><path class="b" d="M204.081,30.261s6.5-6.881,9.7-4.454-2.483,12.956-6.8,13.874a4.2,4.2,0,0,1-5.236-3.057Z" transform="translate(-201.742 -25.288)"/><path class="e" d="M210.125,25.732a.056.056,0,0,1,.008.112c-3.041.734-4.941,3.169-6.4,5.771,1.006-.934,2.251-1.341,3.52-.12.072.064-.016.168-.1.144a2.586,2.586,0,0,0-2.945.471,12.1,12.1,0,0,0-1.684,2.083c-.176.232-.615.024-.479-.255l.04-.064C202.549,30.21,206.149,25.517,210.125,25.732Z" transform="translate(-199.795 -22.236)"/></g></g></g></g><g transform="translate(763.347 9761.154)"><path class="k" d="M251.383,28.723c-8.35,20.284-31.419,102.544-16.316,158.134,13.163,48.47,43.736,73.823,57.618,82.029,20.4,12.062,42.092,19.733,41.214,24.323s-22.271-5.34-23.245-3.568,46.562,47.52,131.065,56.852c130.626,14.432,207.338-32.529,218.626-34.556s-42.619,63.1-82.2,78.285c-9.1,3.5,24.051-5.468,46.546-18.943,8.453-5.069-14.816,63.166-92.558,80.033-14.959,3.249,17.33,3.057,28.865,1.708s-33.271,30.892-149.728,21.609c-90.61-7.216-175.033-77.91-209.7-155.875-3.9-8.773-11.95-3.041-14.52-9.244-5.484-13.235-2.946-38.851-5.628-43.912s-11.463,0-14.145-13.411S166.057,198.535,187.762,134c2.57-7.647-.974-5.061-5.612,1.772s-10.122,12.908-15.3,12.652-2.427-19.222,19.446-54.154C223.851,34.286,258.966,10.3,251.383,28.723Z" transform="translate(-157.201 -22.653)"/><path class="k" d="M186.673,60.512c.216-6.394,24.905-3.241,22.67,5.324S186.37,69.2,186.673,60.512Z" transform="translate(-3.143 218.05)"/><path class="k" d="M215.649,84.908c1.517,5.995,23.1,1.828,21.385-6.25S213.829,77.7,215.649,84.908Z" transform="translate(198.441 343.391)"/><path class="k" d="M168.3,39.337c-4.119-.535-6.945,8.334-2,9.986S173.692,40.032,168.3,39.337Z" transform="translate(-163.678 93.687)"/><path class="k" d="M227.921,72.585c3.105,4.031,24.69-9.2,15.749-15.47C237.421,52.732,224.808,68.554,227.921,72.585Z" transform="translate(281.504 212.674)"/></g><g transform="translate(780.564 9786.111)"><path class="c" d="M222.213,82.543l-8.559,1.582-1.913,9.022-1.913-9.022-8.559-1.587,8.522-2.082,1.949-8.522,1.95,8.522Z" transform="translate(81.586 296.497)"/><path class="c" d="M196.5,66.177l-8.559,1.582-1.913,9.022-1.913-9.022-8.559-1.587,8.522-2.083,1.949-8.522,1.949,8.522Z" transform="translate(-97.973 182.22)"/><path class="c" d="M191.056,36.388,182.5,37.971l-1.913,9.022-1.913-9.022-8.559-1.587,8.522-2.082,1.949-8.522,1.949,8.522Z" transform="translate(-135.968 -25.779)"/><path class="c" d="M234.357,66.9l-4.784.884L228.5,72.828l-1.069-5.043-4.784-.887,4.763-1.164,1.09-4.763,1.089,4.763Z" transform="translate(230.883 219.953)"/><path class="c" d="M201.348,70.214l-4.784.884-1.069,5.043L194.426,71.1l-4.784-.887,4.763-1.164,1.089-4.763,1.09,4.763Z" transform="translate(0.395 243.087)"/><path class="c" d="M226.843,77.863l-4.784.884-1.069,5.043-1.069-5.043-4.784-.887L219.9,76.7l1.09-4.763,1.089,4.763Z" transform="translate(178.414 296.497)"/><path class="c" d="M207.626,82.432l-4.784.884-1.069,5.043L200.7,83.317l-4.784-.887,4.763-1.164,1.09-4.763,1.089,4.763Z" transform="translate(44.237 328.4)"/><path class="c" d="M184.482,66.9l-4.784.884-1.069,5.043-1.069-5.043-4.784-.887,4.763-1.164,1.089-4.763,1.089,4.763Z" transform="translate(-117.367 219.953)"/><path class="c" d="M183.749,49.19l-4.784.884L177.9,55.117l-1.069-5.043-4.784-.887,4.763-1.164,1.09-4.763,1.089,4.763Z" transform="translate(-122.486 96.285)"/><path class="c" d="M206.971,66.57a1.386,1.386,0,0,0,0,2.77A1.386,1.386,0,0,0,206.971,66.57Z" transform="translate(112.055 259.044)"/><path class="c" d="M170.153,33.862a1.39,1.39,0,0,0,0,2.778A1.39,1.39,0,0,0,170.153,33.862Z" transform="translate(-145.052 30.659)"/><path class="c" d="M217.894,67.037a1.386,1.386,0,0,0,0,2.77A1.386,1.386,0,0,0,217.894,67.037Z" transform="translate(188.325 262.305)"/><path class="c" d="M171.286,58.216a1.39,1.39,0,0,0,0,2.778A1.39,1.39,0,0,0,171.286,58.216Z" transform="translate(-137.141 200.712)"/><path class="c" d="M166.781,47.583a.978.978,0,0,0,0,1.956A.978.978,0,0,0,166.781,47.583Z" transform="translate(-165.835 126.467)"/><path class="c" d="M194.214,69.728a.983.983,0,0,0,0,1.964A.983.983,0,0,0,194.214,69.728Z" transform="translate(25.716 281.095)"/><path class="c" d="M182.091,69.291a.983.983,0,0,0,0,1.964A.983.983,0,0,0,182.091,69.291Z" transform="translate(-58.933 278.044)"/><path class="c" d="M204.35,68.28c-3.417,0-3.425,5.324,0,5.324S207.782,68.28,204.35,68.28Z" transform="translate(85.18 270.984)"/><path class="c" d="M185.085,68.161c-3.425,0-3.425,5.316,0,5.316S188.509,68.161,185.085,68.161Z" transform="translate(-49.362 270.153)"/></g><g transform="translate(904.489 9774.654)"><g transform="translate(0 111.182)"><path class="l" d="M198.187,52.39a8.487,8.487,0,1,1-6.753-9.93A8.481,8.481,0,0,1,198.187,52.39Z" transform="translate(-181.36 2.154)"/><rect class="l" width="6.485" height="42.682" transform="translate(18.45 11.307) rotate(10.767)"/><path class="l" d="M201.866,51.508a8.491,8.491,0,1,1-6.761-9.922A8.5,8.5,0,0,1,201.866,51.508Z" transform="translate(-155.727 -3.965)"/><rect class="l" width="6.485" height="42.682" transform="translate(47.756 4.308) rotate(10.767)"/><path class="l" d="M220.27,42.346,183.538,53.653l1.066-5.606L221.336,36.74Z" transform="translate(-166.154 -36.74)"/><path class="l" d="M220.018,43.67,183.286,54.976l1.066-5.606,36.732-11.307Z" transform="translate(-167.911 -27.497)"/></g><g transform="translate(291.06 0)"><g transform="translate(0)"><path class="l" d="M244.052,24.243a8.492,8.492,0,1,1-6.761-9.93A8.493,8.493,0,0,1,244.052,24.243Z" transform="translate(-227.217 28.459)"/><rect class="l" width="6.485" height="42.682" transform="translate(18.452 9.462) rotate(10.767)"/><rect class="l" width="6.485" height="12.338" transform="translate(42.145 2.783) rotate(10.767)"/><path class="l" d="M260.218,14.428,229.4,23.889l1.066-5.606,30.823-9.462Z" transform="translate(-212.009 -8.822)"/><path class="l" d="M259.967,15.751l-30.824,9.462,1.066-5.606,30.824-9.462Z" transform="translate(-213.766 0.422)"/></g></g></g><g transform="translate(1188.797 9925.302)"><path class="l" d="M276.091,80.393c-7.943,17.522-20.709,17.135-24.215,21.37a88.876,88.876,0,0,0-5.407,8.531l-19.02-6.073a85.42,85.42,0,0,0,.537-10.086c-.4-5.479-11.036-12.565-7.338-31.445,2.417-12.41,17.44-28.424,37.57-22S281.3,68.871,276.091,80.393Z" transform="translate(-204.934 -24.049)"/><g transform="translate(26.443 50.729)"><rect class="f" width="32.309" height="1.014" transform="translate(0 32.164) rotate(-82.819)"/><rect class="f" width="32.31" height="1.014" transform="translate(9.409 34.969) rotate(-61.684)"/><path class="f" d="M231.218,59.779a3.151,3.151,0,0,1-.94-.145c-1.487-.475-2.618-2.143-3.171-4.689-.026-.108-.046-.222-.067-.341a2.376,2.376,0,0,1-1.921.362c-2.851-.909-2.117-7.142-2.086-7.411l.5.062c-.005.062-.713,6.083,1.74,6.868a2.07,2.07,0,0,0,1.673-.439c-.423-2.856-.062-6.306,1.255-7.509a1.554,1.554,0,0,1,1.565-.351c1.255.4,1.653,1.637,1.095,3.383A10.487,10.487,0,0,1,227.5,54.3c.031.181.067.356.1.532.3,1.369,1.064,3.749,2.83,4.312,1.183.382,2.665-.17,4.178-1.549.129-.119.258-.238.382-.362a8.207,8.207,0,0,1-.119-5.645c.671-2.112,1.885-3.171,3.166-2.763A1.4,1.4,0,0,1,239,49.951c.377,1.73-1.2,5.071-3.4,7.4a2.856,2.856,0,0,0,1.658,1.394c1.74.558,4.612-3.114,5.567-4.57l.423.274c-.145.232-3.682,5.572-6.14,4.782a3.345,3.345,0,0,1-1.864-1.523c-.1.093-.191.181-.289.269A5.99,5.99,0,0,1,231.218,59.779Zm6.3-10.525c-1,0-1.771,1.281-2.159,2.494a8.206,8.206,0,0,0,.005,5.1c2.009-2.179,3.481-5.262,3.15-6.791a.921.921,0,0,0-.625-.749A1.206,1.206,0,0,0,237.514,49.254Zm-8.252-2.639a1.024,1.024,0,0,0-.713.3c-1.048.95-1.513,3.945-1.141,6.8a9.98,9.98,0,0,0,2.969-4.3c.274-.847.532-2.329-.764-2.742A1.062,1.062,0,0,0,229.261,46.615Z" transform="translate(-218.642 -46.108)"/></g><g transform="translate(15.689 78.649)"><rect class="f" width="24.636" height="4.814" transform="translate(4.866 0) rotate(17.705)"/><rect class="f" width="24.636" height="4.814" transform="translate(3.165 5.328) rotate(17.705)"/><rect class="f" width="24.636" height="4.814" transform="translate(1.464 10.657) rotate(17.705)"/></g><g transform="translate(0 0)"><rect class="m" width="7.989" height="1.014" transform="translate(55.002 8.697) rotate(-72.326)"/><rect class="m" width="1.013" height="7.989" transform="translate(34.119 0.216) rotate(-12.293)"/><rect class="m" width="1.014" height="7.989" transform="translate(13.495 11.119) rotate(-42.295)"/><rect class="m" width="1.014" height="7.989" transform="translate(1.086 30.873) rotate(-72.295)"/><rect class="m" width="7.989" height="1.014" transform="translate(0 53.194) rotate(-12.292)"/><rect class="m" width="1.015" height="7.989" transform="translate(68.683 71.957) rotate(-42.293)"/><rect class="m" width="1.014" height="7.989" transform="translate(79.299 55.966) rotate(-72.295)"/><rect class="m" width="7.989" height="1.014" transform="matrix(0.977, -0.213, 0.213, 0.977, 80.281, 35.818)"/><rect class="m" width="7.988" height="1.014" transform="matrix(0.739, -0.674, 0.674, 0.739, 71.277, 18.873)"/></g></g></g></svg>