<svg xmlns="http://www.w3.org/2000/svg" width="2705.869" height="847" viewBox="0 0 2705.869 847"><defs><style>.a{fill:#f2f1ff;}.b{fill:#eeebfd;}.b,.d{fill-rule:evenodd;}.c,.d{fill:#d3cdec;}</style></defs><g transform="translate(0 150)"><rect class="a" width="1920" height="547" transform="translate(568.869)"/><path class="b" d="M472.514,1044.561H380.3c-49.629,0-90.233,35.2-90.233,78.217h0c0,43.02,40.6,78.217,90.233,78.217h779.7c80.364,0,146.113-56.994,146.113-126.654h0c0-69.662-65.75-126.656-146.111-126.656h0c-33.979,0-61.778-24.1-61.778-53.551h0c0-29.454,27.8-53.553,61.78-53.553h74.351c35.328,0,64.232-25.055,64.232-55.676h0c0-30.623-28.9-55.678-64.232-55.678h-94.02c-13.752,0-25.006-9.756-25.006-21.677h0c0-11.92,11.255-21.675,25.006-21.675h16.575c9.491,0,17.257-6.733,17.257-14.96h0c0-8.228-7.765-14.961-17.257-14.961H1048.158c-22.9,0-25.454,23.455-83.31,23.455h-166.7c-12.386,0-22.52,8.787-22.52,19.519v0c0,10.735,10.134,19.52,22.52,19.52h21.626c17.947,0,32.631,12.73,32.631,28.283v0c0,15.556-14.683,28.285-32.631,28.285H787.229c-87.888,0-100.3,19.909-115.693,59.507S576.2,877.319,576.2,877.319H466.886c-27.045,0-49.173,19.181-49.173,42.623v0c0,23.442,22.127,42.622,49.173,42.622h5.629c26.012,0,47.3,18.451,47.3,41h0c0,22.548-21.285,41-47.3,41Zm732.829-358.686c-9.533,0-17.259-6.7-17.259-14.96s7.726-14.961,17.259-14.961,17.259,6.7,17.259,14.961S1214.875,685.875,1205.344,685.875Z" transform="translate(1399.75 -655.954)"/><path class="b" d="M850.1,135.031l91.67-.43,2.383-.011c50.62-.238,92.23-30.715,92.468-67.726h0c.238-37.012-40.984-67.1-91.6-66.862L676.327,1.263,630.05,1.48,149.734,3.734C67.764,4.119.386,53.469,0,113.4H0c-.385,59.934,66.364,108.654,148.331,108.269h0c34.658-.163,62.879,20.436,62.717,45.777h0c-.163,25.341-28.653,46.208-63.31,46.371l-75.836.356c-36.033.169-65.653,21.864-65.823,48.209h0c-.169,26.347,29.174,47.765,65.208,47.6l95.9-.45c14.027-.066,25.452,8.274,25.386,18.53h0c-.066,10.256-11.6,18.7-25.626,18.768l-16.906.079c-9.681.045-17.639,5.875-17.684,12.954h0c-.045,7.079,7.838,12.834,17.519,12.789l63.358-.3,47.571-.223c23.362-.11,26.092-20.3,85.1-20.579l170.029-.8c12.633-.059,23.019-7.667,23.078-16.9v0c.059-9.236-10.229-16.745-22.862-16.686l-22.058.1c-18.306.086-33.212-10.8-33.126-24.177v0c.086-13.383,15.133-24.406,33.439-24.492l33.2-.156c89.644-.421,102.414-17.609,118.334-51.751s97.479-37.273,97.479-37.273l111.5-.523c27.586-.129,50.261-16.738,50.391-36.906h0c.13-20.169-22.334-36.565-49.92-36.435l-5.741.027c-26.531.125-48.14-15.647-48.015-35.047h0c.125-19.4,21.936-35.374,48.468-35.5ZM100.645,447.137c9.723-.046,17.567,5.681,17.521,12.789S110.2,472.834,100.48,472.88,82.913,467.2,82.959,460.091,90.924,447.183,100.645,447.137Z" transform="matrix(1, 0.017, -0.017, 1, 8.253, 27.061)"/><g transform="translate(854.026 45.756)"><g transform="translate(94.741 251.632)"><g transform="translate(0)"><path class="c" d="M554.286,377.364a2.266,2.266,0,1,1,2.266,2.266A2.268,2.268,0,0,1,554.286,377.364Z" transform="translate(-247.647 -225.968)"/><circle class="c" cx="2.266" cy="2.266" r="2.266" transform="translate(276.281 149.13)"/><circle class="c" cx="2.266" cy="2.266" r="2.266" transform="translate(245.92 149.13)"/><circle class="c" cx="2.266" cy="2.266" r="2.266" transform="translate(215.56 149.13)"/><path class="c" d="M554.286,388.951a2.266,2.266,0,1,1,2.266,2.266A2.269,2.269,0,0,1,554.286,388.951Z" transform="translate(-247.647 -267.216)"/><circle class="c" cx="2.266" cy="2.266" r="2.266" transform="translate(276.281 119.468)"/><circle class="c" cx="2.266" cy="2.266" r="2.266" transform="translate(245.92 119.468)"/><circle class="c" cx="2.266" cy="2.266" r="2.266" transform="translate(215.56 119.468)"/><path class="c" d="M554.286,400.537a2.266,2.266,0,1,1,2.266,2.266A2.269,2.269,0,0,1,554.286,400.537Z" transform="translate(-247.647 -308.464)"/><circle class="c" cx="2.266" cy="2.266" r="2.266" transform="translate(276.281 89.806)"/><circle class="c" cx="2.266" cy="2.266" r="2.266" transform="translate(245.92 89.806)"/><circle class="c" cx="2.266" cy="2.266" r="2.266" transform="translate(215.56 89.806)"/><path class="c" d="M554.286,412.441a2.266,2.266,0,1,1,2.266,2.266A2.267,2.267,0,0,1,554.286,412.441Z" transform="translate(-247.647 -350.85)"/><circle class="c" cx="2.266" cy="2.266" r="2.266" transform="translate(276.281 59.325)"/><circle class="c" cx="2.266" cy="2.266" r="2.266" transform="translate(245.92 59.325)"/><circle class="c" cx="2.266" cy="2.266" r="2.266" transform="translate(215.56 59.325)"/><path class="c" d="M554.286,424.027a2.266,2.266,0,1,1,2.266,2.266A2.268,2.268,0,0,1,554.286,424.027Z" transform="translate(-247.647 -392.098)"/><circle class="c" cx="2.266" cy="2.266" r="2.266" transform="translate(276.281 29.663)"/><circle class="c" cx="2.266" cy="2.266" r="2.266" transform="translate(245.92 29.663)"/><circle class="c" cx="2.266" cy="2.266" r="2.266" transform="translate(215.56 29.663)"/><path class="c" d="M554.286,435.614a2.266,2.266,0,1,1,2.266,2.266A2.269,2.269,0,0,1,554.286,435.614Z" transform="translate(-247.647 -433.346)"/><circle class="c" cx="2.266" cy="2.266" r="2.266" transform="translate(276.281 0.001)"/><circle class="c" cx="2.266" cy="2.266" r="2.266" transform="translate(245.92 0.001)"/><circle class="c" cx="2.266" cy="2.266" r="2.266" transform="translate(215.56 0.001)"/><circle class="c" cx="2.266" cy="2.266" r="2.266" transform="translate(183.68 149.13)"/><path class="c" d="M614.171,377.364a2.266,2.266,0,1,1,2.266,2.266A2.267,2.267,0,0,1,614.171,377.364Z" transform="translate(-460.85 -225.968)"/><circle class="c" cx="2.266" cy="2.266" r="2.266" transform="translate(122.96 149.13)"/><circle class="c" cx="2.266" cy="2.266" r="2.266" transform="translate(92.6 149.13)"/><circle class="c" cx="2.266" cy="2.266" r="2.266" transform="translate(183.68 119.468)"/><path class="c" d="M614.171,388.951a2.266,2.266,0,1,1,2.266,2.266A2.267,2.267,0,0,1,614.171,388.951Z" transform="translate(-460.85 -267.216)"/><circle class="c" cx="2.266" cy="2.266" r="2.266" transform="translate(122.96 119.468)"/><circle class="c" cx="2.266" cy="2.266" r="2.266" transform="translate(92.6 119.468)"/><circle class="c" cx="2.266" cy="2.266" r="2.266" transform="translate(183.68 89.806)"/><path class="c" d="M614.171,400.537a2.266,2.266,0,1,1,2.266,2.266A2.267,2.267,0,0,1,614.171,400.537Z" transform="translate(-460.85 -308.464)"/><circle class="c" cx="2.266" cy="2.266" r="2.266" transform="translate(122.96 89.806)"/><circle class="c" cx="2.266" cy="2.266" r="2.266" transform="translate(92.6 89.806)"/><circle class="c" cx="2.266" cy="2.266" r="2.266" transform="translate(183.68 59.325)"/><path class="c" d="M614.171,412.441a2.266,2.266,0,1,1,2.266,2.266A2.265,2.265,0,0,1,614.171,412.441Z" transform="translate(-460.85 -350.85)"/><circle class="c" cx="2.266" cy="2.266" r="2.266" transform="translate(122.96 59.325)"/><circle class="c" cx="2.266" cy="2.266" r="2.266" transform="translate(92.6 59.325)"/><circle class="c" cx="2.266" cy="2.266" r="2.266" transform="translate(183.68 29.663)"/><path class="c" d="M614.171,424.027a2.266,2.266,0,1,1,2.266,2.266A2.267,2.267,0,0,1,614.171,424.027Z" transform="translate(-460.85 -392.098)"/><circle class="c" cx="2.266" cy="2.266" r="2.266" transform="translate(122.96 29.663)"/><circle class="c" cx="2.266" cy="2.266" r="2.266" transform="translate(92.6 29.663)"/><circle class="c" cx="2.266" cy="2.266" r="2.266" transform="translate(183.68 0.001)"/><path class="c" d="M614.171,435.614a2.266,2.266,0,1,1,2.266,2.266A2.267,2.267,0,0,1,614.171,435.614Z" transform="translate(-460.85 -433.346)"/><circle class="c" cx="2.266" cy="2.266" r="2.266" transform="translate(122.96 0.001)"/><circle class="c" cx="2.266" cy="2.266" r="2.266" transform="translate(92.6 0.001)"/><circle class="c" cx="2.266" cy="2.266" r="2.266" transform="translate(60.72 149.13)"/><circle class="c" cx="2.266" cy="2.266" r="2.266" transform="translate(30.36 149.13)"/><circle class="c" cx="2.266" cy="2.266" r="2.266" transform="translate(0 149.13)"/><circle class="c" cx="2.266" cy="2.266" r="2.266" transform="translate(60.72 119.468)"/><circle class="c" cx="2.266" cy="2.266" r="2.266" transform="translate(30.36 119.468)"/><circle class="c" cx="2.266" cy="2.266" r="2.266" transform="translate(0 119.468)"/><circle class="c" cx="2.266" cy="2.266" r="2.266" transform="translate(60.72 89.806)"/><circle class="c" cx="2.266" cy="2.266" r="2.266" transform="translate(30.36 89.806)"/><circle class="c" cx="2.266" cy="2.266" r="2.266" transform="translate(0 89.806)"/><circle class="c" cx="2.266" cy="2.266" r="2.266" transform="translate(60.72 59.325)"/><circle class="c" cx="2.266" cy="2.266" r="2.266" transform="translate(30.36 59.325)"/><circle class="c" cx="2.266" cy="2.266" r="2.266" transform="translate(0 59.325)"/><circle class="c" cx="2.266" cy="2.266" r="2.266" transform="translate(60.72 29.663)"/><circle class="c" cx="2.266" cy="2.266" r="2.266" transform="translate(30.36 29.663)"/><circle class="c" cx="2.266" cy="2.266" r="2.266" transform="translate(0 29.663)"/><circle class="c" cx="2.266" cy="2.266" r="2.266" transform="translate(60.72 0.001)"/><circle class="c" cx="2.266" cy="2.266" r="2.266" transform="translate(30.36 0.001)"/><circle class="c" cx="2.266" cy="2.266" r="2.266" transform="translate(0 0.001)"/></g><g transform="translate(1322.084 47.169)"><path class="c" d="M37.89,358.94a2.266,2.266,0,1,1,2.266,2.266A2.265,2.265,0,0,1,37.89,358.94Z" transform="translate(268.749 -207.544)"/><path class="c" d="M49.748,358.94a2.266,2.266,0,1,1,2.266,2.266A2.265,2.265,0,0,1,49.748,358.94Z" transform="translate(226.532 -207.544)"/><path class="c" d="M61.607,358.94a2.266,2.266,0,1,1,2.266,2.266A2.267,2.267,0,0,1,61.607,358.94Z" transform="translate(184.312 -207.544)"/><path class="c" d="M73.465,358.94a2.266,2.266,0,1,1,2.266,2.266A2.265,2.265,0,0,1,73.465,358.94Z" transform="translate(142.095 -207.544)"/><circle class="c" cx="2.266" cy="2.266" r="2.266" transform="translate(306.639 119.467)"/><path class="c" d="M49.748,370.526a2.266,2.266,0,1,1,2.266,2.266A2.265,2.265,0,0,1,49.748,370.526Z" transform="translate(226.532 -248.793)"/><path class="c" d="M61.607,370.526a2.266,2.266,0,1,1,2.266,2.266A2.267,2.267,0,0,1,61.607,370.526Z" transform="translate(184.312 -248.793)"/><circle class="c" cx="2.266" cy="2.266" r="2.266" transform="translate(215.559 119.467)"/><path class="c" d="M37.89,382.112a2.266,2.266,0,1,1,2.266,2.266A2.265,2.265,0,0,1,37.89,382.112Z" transform="translate(268.749 -290.042)"/><path class="c" d="M49.748,382.112a2.266,2.266,0,1,1,2.266,2.266A2.265,2.265,0,0,1,49.748,382.112Z" transform="translate(226.532 -290.042)"/><path class="c" d="M61.607,382.112a2.266,2.266,0,1,1,2.266,2.266A2.267,2.267,0,0,1,61.607,382.112Z" transform="translate(184.312 -290.042)"/><path class="c" d="M73.465,382.112a2.266,2.266,0,1,1,2.266,2.266A2.265,2.265,0,0,1,73.465,382.112Z" transform="translate(142.095 -290.042)"/><path class="c" d="M37.89,394.017a2.266,2.266,0,1,1,2.266,2.266A2.265,2.265,0,0,1,37.89,394.017Z" transform="translate(268.749 -332.426)"/><path class="c" d="M49.748,394.017a2.266,2.266,0,1,1,2.266,2.266A2.265,2.265,0,0,1,49.748,394.017Z" transform="translate(226.532 -332.426)"/><path class="c" d="M61.607,394.017a2.266,2.266,0,1,1,2.266,2.266A2.267,2.267,0,0,1,61.607,394.017Z" transform="translate(184.312 -332.426)"/><path class="c" d="M73.465,394.017a2.266,2.266,0,1,1,2.266,2.266A2.265,2.265,0,0,1,73.465,394.017Z" transform="translate(142.095 -332.426)"/><circle class="c" cx="2.266" cy="2.266" r="2.266" transform="translate(306.639 29.662)"/><path class="c" d="M49.748,405.6a2.266,2.266,0,1,1,2.266,2.266A2.265,2.265,0,0,1,49.748,405.6Z" transform="translate(226.532 -373.674)"/><path class="c" d="M61.607,405.6a2.266,2.266,0,1,1,2.266,2.266A2.267,2.267,0,0,1,61.607,405.6Z" transform="translate(184.312 -373.674)"/><circle class="c" cx="2.266" cy="2.266" r="2.266" transform="translate(215.559 29.662)"/><path class="c" d="M37.89,417.189a2.266,2.266,0,1,1,2.266,2.266A2.265,2.265,0,0,1,37.89,417.189Z" transform="translate(268.749 -414.923)"/><path class="c" d="M49.748,417.189a2.266,2.266,0,1,1,2.266,2.266A2.265,2.265,0,0,1,49.748,417.189Z" transform="translate(226.532 -414.923)"/><path class="c" d="M61.607,417.189a2.266,2.266,0,1,1,2.266,2.266A2.267,2.267,0,0,1,61.607,417.189Z" transform="translate(184.312 -414.923)"/><path class="c" d="M73.465,417.189a2.266,2.266,0,1,1,2.266,2.266A2.265,2.265,0,0,1,73.465,417.189Z" transform="translate(142.095 -414.923)"/><path class="c" d="M85.917,358.94a2.266,2.266,0,1,1,2.266,2.266A2.265,2.265,0,0,1,85.917,358.94Z" transform="translate(97.763 -207.544)"/><path class="c" d="M97.775,358.94a2.267,2.267,0,1,1,2.266,2.266A2.267,2.267,0,0,1,97.775,358.94Z" transform="translate(55.543 -207.544)"/><path class="c" d="M109.634,358.94a2.266,2.266,0,1,1,2.266,2.266A2.265,2.265,0,0,1,109.634,358.94Z" transform="translate(13.325 -207.544)"/><path class="c" d="M121.492,358.94a2.266,2.266,0,1,1,2.266,2.266A2.265,2.265,0,0,1,121.492,358.94Z" transform="translate(-28.892 -207.544)"/><path class="c" d="M85.917,370.526a2.266,2.266,0,1,1,2.266,2.266A2.265,2.265,0,0,1,85.917,370.526Z" transform="translate(97.763 -248.793)"/><circle class="c" cx="2.266" cy="2.266" r="2.266" transform="translate(153.319 119.467)"/><circle class="c" cx="2.266" cy="2.266" r="2.266" transform="translate(122.959 119.467)"/><path class="c" d="M121.492,370.526a2.266,2.266,0,1,1,2.266,2.266A2.265,2.265,0,0,1,121.492,370.526Z" transform="translate(-28.892 -248.793)"/><path class="c" d="M85.917,382.112a2.266,2.266,0,1,1,2.266,2.266A2.265,2.265,0,0,1,85.917,382.112Z" transform="translate(97.763 -290.042)"/><path class="c" d="M97.775,382.112a2.267,2.267,0,1,1,2.266,2.266A2.267,2.267,0,0,1,97.775,382.112Z" transform="translate(55.543 -290.042)"/><path class="c" d="M109.634,382.112a2.266,2.266,0,1,1,2.266,2.266A2.265,2.265,0,0,1,109.634,382.112Z" transform="translate(13.325 -290.042)"/><path class="c" d="M121.492,382.112a2.266,2.266,0,1,1,2.266,2.266A2.265,2.265,0,0,1,121.492,382.112Z" transform="translate(-28.892 -290.042)"/><path class="c" d="M85.917,394.017a2.266,2.266,0,1,1,2.266,2.266A2.265,2.265,0,0,1,85.917,394.017Z" transform="translate(97.763 -332.426)"/><path class="c" d="M97.775,394.017a2.267,2.267,0,1,1,2.266,2.266A2.267,2.267,0,0,1,97.775,394.017Z" transform="translate(55.543 -332.426)"/><path class="c" d="M109.634,394.017a2.266,2.266,0,1,1,2.266,2.266A2.265,2.265,0,0,1,109.634,394.017Z" transform="translate(13.325 -332.426)"/><path class="c" d="M121.492,394.017a2.266,2.266,0,1,1,2.266,2.266A2.265,2.265,0,0,1,121.492,394.017Z" transform="translate(-28.892 -332.426)"/><path class="c" d="M85.917,405.6a2.266,2.266,0,1,1,2.266,2.266A2.265,2.265,0,0,1,85.917,405.6Z" transform="translate(97.763 -373.674)"/><circle class="c" cx="2.266" cy="2.266" r="2.266" transform="translate(153.319 29.662)"/><circle class="c" cx="2.266" cy="2.266" r="2.266" transform="translate(122.959 29.662)"/><path class="c" d="M121.492,405.6a2.266,2.266,0,1,1,2.266,2.266A2.265,2.265,0,0,1,121.492,405.6Z" transform="translate(-28.892 -373.674)"/><path class="c" d="M85.917,417.189a2.266,2.266,0,1,1,2.266,2.266A2.265,2.265,0,0,1,85.917,417.189Z" transform="translate(97.763 -414.923)"/><path class="c" d="M97.775,417.189a2.267,2.267,0,1,1,2.266,2.266A2.267,2.267,0,0,1,97.775,417.189Z" transform="translate(55.543 -414.923)"/><path class="c" d="M109.634,417.189a2.266,2.266,0,1,1,2.266,2.266A2.265,2.265,0,0,1,109.634,417.189Z" transform="translate(13.325 -414.923)"/><path class="c" d="M121.492,417.189a2.266,2.266,0,1,1,2.266,2.266A2.265,2.265,0,0,1,121.492,417.189Z" transform="translate(-28.892 -414.923)"/><path class="c" d="M133.944,358.94a2.267,2.267,0,1,1,2.266,2.266A2.267,2.267,0,0,1,133.944,358.94Z" transform="translate(-73.226 -207.544)"/><path class="c" d="M145.8,358.94a2.266,2.266,0,1,1,2.266,2.266A2.265,2.265,0,0,1,145.8,358.94Z" transform="translate(-115.444 -207.544)"/><path class="c" d="M157.661,358.94a2.266,2.266,0,1,1,2.266,2.266A2.265,2.265,0,0,1,157.661,358.94Z" transform="translate(-157.661 -207.544)"/><path class="c" d="M133.944,370.526a2.267,2.267,0,1,1,2.266,2.266A2.267,2.267,0,0,1,133.944,370.526Z" transform="translate(-73.226 -248.793)"/><path class="c" d="M145.8,370.526a2.266,2.266,0,1,1,2.266,2.266A2.265,2.265,0,0,1,145.8,370.526Z" transform="translate(-115.444 -248.793)"/><path class="c" d="M157.661,370.526a2.266,2.266,0,1,1,2.266,2.266A2.265,2.265,0,0,1,157.661,370.526Z" transform="translate(-157.661 -248.793)"/><path class="c" d="M133.944,382.112a2.267,2.267,0,1,1,2.266,2.266A2.267,2.267,0,0,1,133.944,382.112Z" transform="translate(-73.226 -290.042)"/><path class="c" d="M145.8,382.112a2.266,2.266,0,1,1,2.266,2.266A2.265,2.265,0,0,1,145.8,382.112Z" transform="translate(-115.444 -290.042)"/><path class="c" d="M157.661,382.112a2.266,2.266,0,1,1,2.266,2.266A2.265,2.265,0,0,1,157.661,382.112Z" transform="translate(-157.661 -290.042)"/><path class="c" d="M133.944,394.017a2.267,2.267,0,1,1,2.266,2.266A2.267,2.267,0,0,1,133.944,394.017Z" transform="translate(-73.226 -332.426)"/><path class="c" d="M145.8,394.017a2.266,2.266,0,1,1,2.266,2.266A2.265,2.265,0,0,1,145.8,394.017Z" transform="translate(-115.444 -332.426)"/><path class="c" d="M157.661,394.017a2.266,2.266,0,1,1,2.266,2.266A2.265,2.265,0,0,1,157.661,394.017Z" transform="translate(-157.661 -332.426)"/><path class="c" d="M133.944,405.6a2.267,2.267,0,1,1,2.266,2.266A2.267,2.267,0,0,1,133.944,405.6Z" transform="translate(-73.226 -373.674)"/><path class="c" d="M145.8,405.6a2.266,2.266,0,1,1,2.266,2.266A2.265,2.265,0,0,1,145.8,405.6Z" transform="translate(-115.444 -373.674)"/><path class="c" d="M157.661,405.6a2.266,2.266,0,1,1,2.266,2.266A2.265,2.265,0,0,1,157.661,405.6Z" transform="translate(-157.661 -373.674)"/><path class="c" d="M133.944,417.189a2.267,2.267,0,1,1,2.266,2.266A2.267,2.267,0,0,1,133.944,417.189Z" transform="translate(-73.226 -414.923)"/><path class="c" d="M145.8,417.189a2.266,2.266,0,1,1,2.266,2.266A2.265,2.265,0,0,1,145.8,417.189Z" transform="translate(-115.444 -414.923)"/><path class="c" d="M157.661,417.189a2.266,2.266,0,1,1,2.266,2.266A2.265,2.265,0,0,1,157.661,417.189Z" transform="translate(-157.661 -414.923)"/></g></g><path class="d" d="M1663.311,705.96a2.908,2.908,0,0,0-5.816,0v13.082a2.908,2.908,0,1,0,5.816,0V705.96Zm19.833,10.624a2.909,2.909,0,0,0-4.113-4.116l-9.255,9.253a2.91,2.91,0,0,0,4.113,4.117l9.255-9.254Zm6.51,21.537a2.911,2.911,0,1,0,0-5.823h-13.086a2.912,2.912,0,0,0,0,5.823Zm-10.623,19.835a2.909,2.909,0,0,0,4.113-4.116l-9.255-9.254a2.909,2.909,0,0,0-4.113,4.116l9.255,9.254Zm-21.536,6.508a2.908,2.908,0,0,0,5.816,0V751.372a2.908,2.908,0,0,0-5.816,0v13.092Zm-19.833-10.624a2.91,2.91,0,0,0,4.116,4.116l9.255-9.254a2.91,2.91,0,0,0-4.116-4.116l-9.255,9.254Zm-6.509-21.542a2.911,2.911,0,1,0,0,5.823h13.086a2.911,2.911,0,0,0,0-5.823Zm10.625-19.83a2.91,2.91,0,0,0-4.116,4.116l9.255,9.254a2.911,2.911,0,0,0,4.116-4.117Z" transform="translate(-57.241 -703.053)"/><path class="d" d="M1663.311,705.96a2.908,2.908,0,0,0-5.816,0v13.082a2.908,2.908,0,1,0,5.816,0V705.96Zm19.833,10.624a2.909,2.909,0,0,0-4.113-4.116l-9.255,9.253a2.91,2.91,0,0,0,4.113,4.117l9.255-9.254Zm6.51,21.537a2.911,2.911,0,1,0,0-5.823h-13.086a2.912,2.912,0,0,0,0,5.823Zm-10.623,19.835a2.909,2.909,0,0,0,4.113-4.116l-9.255-9.254a2.909,2.909,0,0,0-4.113,4.116l9.255,9.254Zm-21.536,6.508a2.908,2.908,0,0,0,5.816,0V751.372a2.908,2.908,0,0,0-5.816,0v13.092Zm-19.833-10.624a2.91,2.91,0,0,0,4.116,4.116l9.255-9.254a2.91,2.91,0,0,0-4.116-4.116l-9.255,9.254Zm-6.509-21.542a2.911,2.911,0,1,0,0,5.823h13.086a2.911,2.911,0,0,0,0-5.823Zm10.625-19.83a2.91,2.91,0,0,0-4.116,4.116l9.255,9.254a2.911,2.911,0,0,0,4.116-4.117Z" transform="translate(-1628.241 -633.053)"/></g></g></svg>