<svg xmlns="http://www.w3.org/2000/svg" width="704.649" height="587.339" viewBox="0 0 704.649 587.339"><defs><style>.a{fill:#29383e;}.b{fill:#1c262a;}.c{fill:#d3d3d2;}.d{fill:#e6e6e6;}.e{fill:#fff;}.f,.n{fill:none;}.f{stroke:#fff;stroke-miterlimit:10;stroke-width:0.949px;}.g{fill:#ff6e4a;}.h{fill:#d35343;}.i{fill:#24669a;}.j{fill:#d3766a;}.k{fill:#ec82aa;}.l{fill:#333;}.m{fill:#030504;opacity:0.1;}.n{stroke:#ec82aa;stroke-linecap:round;stroke-linejoin:round;stroke-width:0;}</style></defs><g transform="translate(-1266.086 -10071.161)"><g transform="translate(1440.6 10071.161)"><path class="a" d="M328.957,36.1,430.616,22.816v411.03L328.957,447.131Z" transform="translate(-23.982 -22.816)"/><path class="b" d="M304.2,36.1,405.862,22.816v411.03L304.2,447.131Z" transform="translate(-202.546 -22.816)"/><path class="b" d="M418.239,36.1,316.58,22.816v411.03l101.659,13.285Z" transform="translate(-113.264 -22.816)"/><path class="a" d="M393.485,36.1,291.826,22.816v411.03l101.659,13.285Z" transform="translate(-291.826 -22.816)"/><g transform="translate(9.701 10.123)"><path class="c" d="M328.957,35.965l91.957-11.917V415.466l-91.957,11.917Z" transform="translate(-33.684 -24.048)"/><path class="c" d="M304.2,36.7,405.861,24.048V415.466L304.2,428.117Z" transform="translate(-212.246 -24.048)"/><path class="d" d="M418.239,36.01,316.58,24.093V415.51l101.659,11.917Z" transform="translate(-122.965 -23.725)"/><path class="d" d="M384.965,36.7,293.007,24.048V415.466l91.957,12.652Z" transform="translate(-293.007 -24.048)"/><g transform="translate(0.002)"><path class="e" d="M374.223,26.169l-8.215,28.084-1.936,6.627L343.8,130.1l-1.191,2.748-5.931-2.246-43.666-16.476v-7.366l46.024,17.383L367.944,25.3Z" transform="translate(-293.006 -14.99)"/><path class="e" d="M409.364,24.312l-3.735,2.26-6.477,3.906L358.588,54.962,353.079,58.3,325.432,74.982l-.36-.112-20.884-6.836L301.31,67.1l1.737-6.7,3.077,1,18.6,6.083.347-.209,67.751-40.9.012-.014h.012l6.812-.837,3.574-.446h.025Z" transform="translate(-233.122 -22.145)"/><path class="e" d="M464.872,25.916l-5.286,22.057-1.787,7.45-29.27,121.709-1.613,6.752-.025.084-21.716-8.44-7.519-3.111-15.089-6.222-1.874-.781-3.052-4.827L309.007,52.06l-1.588-2.511,5.063-4.046,2.035,3.223,30.315,47.936,4.082,6.459,35.724,56.488,38.021,15.178,19.629-81.5L444.038,86,458.63,25.176Z" transform="translate(-189.051 -15.909)"/><path class="e" d="M406.428,94.105l-3.772,5.539-.918-.8L342.114,47.522l-1.725-1.479L336.667,43.7l-5.423-3.4L314.53,29.8l-1.489-.935,2-4.018,3.574-.446h.025l2.37,1.493,21.107,13.281,1.861,1.172,59.512,51.215Z" transform="translate(-148.501 -21.471)"/><path class="e" d="M447.78,97.131v7.548L431.624,97.1l-5.795-2.72L354.182,60.774,329.3,36.946l-4.07-3.893,4.021-5.315,1.837,1.758,26.38,25.265Z" transform="translate(-60.555 2.568)"/><path class="e" d="M338.167,233.974l-6.013-1.717L376.556,35.5l6.013,1.715Z" transform="translate(-10.623 58.539)"/><path class="e" d="M509.124,56.514v7.3L433.406,90.346l-6.018,2.107h-.012l-8.7,3.055-93.326,87.278-8.624-1.018,32.188-30.093,6.477-6.069,28.379-26.535,5.112-4.771,26.778-25.042,28.043-9.822,6.949-2.441Z" transform="translate(-121.899 210.152)"/><path class="e" d="M381.794,73.5,321.581,50.166l1.987-6.608,58.963,22.857,53.591-5.64.579,6.946Z" transform="translate(-86.892 116.694)"/><path class="e" d="M317.267,99.21l-5.573-3.067,30.543-70.164,5.573,3.067Z" transform="translate(-158.208 -10.121)"/><path class="e" d="M527.854,103.887l-.819,6.906-7.011-1.046-34.645-5.2L384.646,69.4l-91.638,10.17V72.553l62.006-6.878,8.152-.893,22.112-2.455.608.209,57.539,20.076,6.5,2.26,36.792,12.835,39.782,5.971Z" transform="translate(-293.006 252.08)"/><path class="e" d="M315.058,106.9l-22.05,50.754V141.737L336.674,41.261l1.551-3.571,5.572,3.069-1.191,2.748-24.569,56.558Z" transform="translate(-293.006 74.356)"/><path class="e" d="M364.2,129.535l-4.269,5.064-4.914-5.26L293.008,63.128V53.5l48.232,51.522,4.951,5.274,16.975,18.15Z" transform="translate(-293.006 188.416)"/><path class="e" d="M367.776,83.115l-72.331-3.744.285-6.969,71.264,3.689,101.146-34.6,1.806,6.673Z" transform="translate(-275.429 101.772)"/><path class="f" d="M302.152,47.635" transform="translate(-227.045 146.099)"/><path class="e" d="M304.562,167.342l-5.872-2.253,36.182-119.2,5.872,2.253Z" transform="translate(-252.021 133.497)"/><path class="f" d="M328.957,60.881" transform="translate(-33.685 241.65)"/><path class="e" d="M379.831,55.04v7.031l-42.487-5.3-2.692-.335.682-6.934,3.549.446Z" transform="translate(7.394 159.561)"/><path class="e" d="M372.813,221.473,318.346,44.921l5.863-2.286,54.467,176.553Z" transform="translate(-110.229 110.028)"/><path class="e" d="M315.79,143.462l-4.63-4.643,42.557-53.66,49.234-30.393,2.986,6.114L357.638,90.7Z" transform="translate(-162.065 197.542)"/><g transform="translate(0 9.268)"><path class="e" d="M464.872,25.916l-5.286,22.057-1.787,7.45-29.27,121.709-1.613,6.752-.025.084-21.716-8.44-7.519-3.111-15.089-6.222-1.874-.781-3.052-4.827L309.007,52.06l-1.588-2.511,5.063-4.046,2.035,3.223,30.315,47.936,4.082,6.459,35.724,56.488,38.021,15.178,19.629-81.5L444.038,86,458.63,25.176Z" transform="translate(-189.051 -25.176)"/><path class="e" d="M381.794,73.5,321.581,50.166l1.987-6.608,58.963,22.857,53.591-5.64.579,6.946Z" transform="translate(-86.892 107.426)"/><path class="e" d="M527.854,103.89l-.814,6.909-7.021-1.053-34.641-5.2L445.514,90.635h-.028L404.863,76.453,384.643,69.4,293.008,79.57V72.549l62.008-6.866,8.158-.9,22.1-2.457.618.211,18.97,6.628,38.558,13.452,6.5,2.261h.014l.1.042,36.69,12.792,39.78,5.968Z" transform="translate(-293.008 242.811)"/><path class="e" d="M378.682,219.194l-5.87,2.275L350.88,150.39v-.014l-2.064-6.67L318.823,46.5v-.014l-.477-1.559.73-.281,5.139-2.008,2.148,6.965L356.4,146.978Z" transform="translate(-110.234 100.758)"/><path class="e" d="M405.941,60.861v.014l-3.23,1.994L357.638,90.685,319,139.41l-3.2,4.044-4.634-4.634,1.32-1.671,41.24-52,46.927-28.968,2.3-1.418Z" transform="translate(-162.066 188.279)"/></g><path class="e" d="M380.856,158.971l-6.6.851-43-93.835h-.012l-1.191-2.609,5.522-3.195,1.7,3.7Z" transform="translate(-25.768 236.618)"/><path class="d" d="M316.788,107.066l52.837-18.071L335.1,34.4l-29.029,9.756Z" transform="translate(-198.802 50.602)"/><path class="d" d="M330.752,113.224l30.174-3.175L374.705,50,342.189,34.749Z" transform="translate(-20.734 53.144)"/><path class="d" d="M399.781,106.344,331.886,76.1V32.847l67.9-8.8Z" transform="translate(-12.556 -24.048)"/><path class="d" d="M305.175,40.146l16.9-10.2L337.21,53.951l-26.972,9.225Z" transform="translate(-205.239 18.492)"/><path class="c" d="M318.611,74.735l27.55-17.006,14.754,47.84-19.73,18.448-22.574-3.388Z" transform="translate(-108.314 218.913)"/><path class="c" d="M318.4,37.117V24.3l54.73,6.462L362.5,75.069Z" transform="translate(-109.843 -22.232)"/><path class="c" d="M294.259,87.442,329.4,124.979l22.708-75.133-40.734-2.1Z" transform="translate(-283.979 146.88)"/><path class="c" d="M294.186,87.874v-61.1L343.834,33.9,324.679,99.391Z" transform="translate(-284.507 -4.401)"/><path class="c" d="M294.186,37.762l49.648,7.131,3.951-13.309-53.6-7.374Z" transform="translate(-284.507 -22.878)"/><path class="d" d="M305.465,122.271V65.012l36.411,12.773V117.74Z" transform="translate(-203.145 271.449)"/><path class="c" d="M293.953,68.314l28.307-3.141v50.191l-28.31-3.895Z" transform="translate(-286.205 272.605)"/><path class="d" d="M365.05,148.064l-31.578-68.9,54.865-19.227,0,85.108Z" transform="translate(-1.111 234.815)"/><path class="c" d="M362.135,84.5V49.724L330.643,38.7,323.211,69.7Z" transform="translate(-75.134 81.662)"/><path class="g" d="M410.9,82.033l30.042,97.383-2.292,1.4-3.223,1.981v.015L390.348,210.64,351.806,259.4l-4.524,5.721h-.03l-40.627-14.178v-7.289l38.557,13.454,41.248-52,46.925-28.977-30-97.206.015-.015.237-1.833.724-5.4v-.044l24.069,9.58,10.363-43.081,5.869,2.292L432.612,90.464Z" transform="translate(-194.773 77.595)"/></g></g><path class="b" d="M367.626,54.008c-1.175-11.852-9.339-23.647-23.7-23.647-14.332,0-22.5,11.795-23.68,23.647-1.815,18.292,10.522,34.858,23.68,49.971C357.1,88.866,369.442,72.3,367.626,54.008Zm-23.7,13.158a12.977,12.977,0,1,1,12.994-12.977A12.973,12.973,0,0,1,343.93,67.166Z" transform="translate(-88.072 31.615)"/><path class="b" d="M351.274,78.744C350.1,66.892,341.935,55.1,327.578,55.1c-14.332,0-22.505,11.795-23.68,23.647-1.815,18.292,10.522,34.858,23.68,49.98C340.753,113.6,353.089,97.036,351.274,78.744ZM327.578,91.9a12.973,12.973,0,1,1,12.994-12.977A12.973,12.973,0,0,1,327.578,91.9Z" transform="translate(-206.029 210.05)"/></g><g transform="translate(1692.74 10133.576)"><g transform="translate(106.131 1.074)"><path class="b" d="M339.305,149.337a27.433,27.433,0,0,0,6.064,8.654c10.987,10.623,23.854,14.964,36.16,14.757a50.47,50.47,0,0,0,11.824-1.595,51.526,51.526,0,0,0,23.391-13.113,43.86,43.86,0,0,0,7.768-10.13,104.264,104.264,0,0,0,12.129-62.436c-.049-.4-.089-.807-.138-1.211-.01-.128-.039-.276-.049-.414l-.039-.207c-.059-.522-.138-1.044-.217-1.575A103.951,103.951,0,0,0,430.065,58.9l-.04-.1c-1.073-2.688-2.235-5.267-3.514-7.748a82.176,82.176,0,0,0-4.834-8.319c-7.079-10.632-25.429-15.8-37.145-7.019-7.906,5.907-10.987,14.245-12.838,23.037-.443,2.077-.807,4.174-1.161,6.281-.423,2.55-.817,5.11-1.251,7.61-.265,1.516-.551,3-.876,4.47l-.049.236c-1.949,8.88-3.741,16.451-10.091,22.84-5.552,5.552-11.784,10.662-15.89,17.475C337.365,125.975,334.579,138.586,339.305,149.337Z" transform="translate(-331.116 -31.259)"/><path class="b" d="M336.915,112.211c1.368-8.28,6.045-15.063,12.05-20.714,3.741-3.524,7.768-6.763,10.9-10.879a51.485,51.485,0,0,0,7.019-13.192c4.174-11.1,5.769-22.968,10.042-34.034a.111.111,0,0,1,.207.079c-5.956,16.874-6.409,36.7-18.833,50.681-5.887,6.635-13.34,11.568-17.366,19.729-3.889,7.886-4.725,17.347-.157,25.134,4.666,7.945,13.094,12.414,21.668,14.925.276.079.158.571-.128.5C347.311,140.967,334.2,128.642,336.915,112.211Z" transform="translate(-333.943 -13.025)"/><path class="b" d="M340.722,155.183a64.652,64.652,0,0,0,8.417,1.172c9.1.679,18.676-.541,26.67-4.43a39.007,39.007,0,0,0,7.3-4.578c6.507-5.09,11.292-11.942,14.757-19.572,4.4-9.658,6.694-20.536,7.708-30.578a118.958,118.958,0,0,0-1-31.218c-.63-3.81-1.457-7.6-2.461-11.322a110.747,110.747,0,0,0-8.24-21.452c-.118-.207-.453-.059-.345.148.207.433.4.866.6,1.3.591,1.26,1.142,2.52,1.674,3.79a118.227,118.227,0,0,1,7.984,27.221c.1.532.177,1.053.246,1.585l.039.207c.01.128.039.276.049.413.108.7.2,1.408.285,2.117,2.52,20.251.266,42.746-9.412,60.841-.3.541-.59,1.083-.906,1.615-5.06,8.742-12.533,16.155-22.092,19.769a43.554,43.554,0,0,1-11.026,2.55c-6.646.719-13.389.236-20.182-.128A.277.277,0,0,0,340.722,155.183Z" transform="translate(-299.258 -14.925)"/><path class="b" d="M352.995,84.09c3.4-2.737,7.147-5.09,10.258-8.171,3.633-3.6,5.641-8.181,7.3-12.936,3.367-9.618,6.262-19.453,8.988-29.269.01-.049.089-.02.079.03-2.52,9.225-4.834,18.469-7.777,27.575-1.3,4.036-2.668,8.152-5.06,11.686a35.9,35.9,0,0,1-8.161,7.984c-6.783,5.208-13.2,10.691-17.455,18.252-4.538,8.092-5.936,17.809-2,26.433.039.079-.089.128-.128.049C331.405,110.248,340.826,93.885,352.995,84.09Z" transform="translate(-336.29 -9.773)"/></g><g transform="translate(179.277 60.138)"><path class="h" d="M357.686,39.878c11.056,6.517,52.05,47.541,54.6,72.242,2.845,27.605-12.611,68.894-15.919,73.334-4.283,5.74-39.429-7.108-38.651-16.008.965-11.1,15.043-48.053,13.862-54.7-1.792-10.052-16.363-44.066-25.833-65.331C340.241,37.052,349.18,34.847,357.686,39.878Z" transform="translate(-340.804 -36.31)"/><g transform="translate(0 125.614)"><g transform="translate(0 7.521)"><path class="h" d="M399.283,66.79c-.955,3.456-7.128,25.715-10.062,31.257s-12.562,20.891-17.042,19.069-2.018-6.537-2.018-6.537-5.08,5.828-9.421,3.593-.276-9.461-.276-9.461-5.661,5.612-9.825,3.062,1.132-9.106,1.132-9.106-4.932,5.365-7.482,1.821c-3.072-4.253,7.157-13.133,9.943-19.493.63-1.447,10.741-30.214,10.741-30.214Z" transform="translate(-343.72 -50.782)"/><g transform="translate(8.325 28.429)"><path class="b" d="M344.746,73.884c7.492-6.547,9.648-10.7,12.453-20.093.049-.187.335-.148.3.049-1.91,9.451-3.849,15.053-12.454,20.428C344.617,74.524,344.381,74.2,344.746,73.884Z" transform="translate(-344.566 -53.67)"/><path class="b" d="M345.559,75.789c7.2-7.472,9.569-11.971,13.231-21.59.049-.128.285-.059.246.079-2.806,9.737-4.873,15.289-13.045,21.816C345.627,76.389,345.233,76.133,345.559,75.789Z" transform="translate(-336.853 -49.588)"/><path class="b" d="M346.71,77.038c6.449-7.748,9.254-12.562,11.617-22.348a.184.184,0,0,1,.364.059c-1.437,10.219-4.9,16.254-11.725,22.456C346.5,77.629,346.306,77.52,346.71,77.038Z" transform="translate(-327.53 -45.974)"/></g></g><g transform="translate(3.804)"><path class="h" d="M358.74,50.018S350.51,59.4,347.8,64.313s-6.044,26.945-1.329,27.94c6.084,1.28,10.524-11.056,11.9-17.386,0,0,14.088,2.983,19.188-5.188S358.74,50.018,358.74,50.018Z" transform="translate(-344.106 -50.018)"/><path class="b" d="M344.545,74.093c6.4-2.845,7.679-11.262,9.48-17.3a.572.572,0,0,1,.886-.335c5.986.847,14.679.315,19.03-4.361.128-.138.345.029.226.177-3.977,5.651-12.483,6.872-18.981,5.523-1.742,6.212-3.4,14.61-10.613,16.352C344.535,74.162,344.505,74.113,344.545,74.093Z" transform="translate(-340.395 -32.056)"/></g></g><g transform="translate(2.588)"><path class="i" d="M414.324,129.371c-1.309,19.916-7.472,42.412-7.472,42.412L358.3,154.662s12.395-31.435,12.7-36.6c.424-7.512-9.894-31.435-20.664-54.422C341.6,45.01,341.384,34.25,352.764,38a45.639,45.639,0,0,1,9.884,5.06c20.891,13.379,45.375,46.507,50.573,66.443C414.629,114.9,414.806,121.968,414.324,129.371Z" transform="translate(-343.983 -37.259)"/><g transform="translate(3.642 4.995)"><path class="e" d="M346.874,39.783a.876.876,0,1,1-.876-.876A.878.878,0,0,1,346.874,39.783Z" transform="translate(-337.551 -27.674)"/><path class="e" d="M348.412,39.783a.876.876,0,1,1-.876-.876A.878.878,0,0,1,348.412,39.783Z" transform="translate(-323.948 -27.674)"/><path class="e" d="M346.105,38.642a.876.876,0,1,1-.876-.876A.878.878,0,0,1,346.105,38.642Z" transform="translate(-344.353 -37.766)"/><path class="e" d="M348.412,42.09a.876.876,0,1,1-.876-.876A.878.878,0,0,1,348.412,42.09Z" transform="translate(-323.948 -7.269)"/><path class="e" d="M349.95,42.09a.876.876,0,1,1-.876-.876A.872.872,0,0,1,349.95,42.09Z" transform="translate(-310.344 -7.269)"/><path class="e" d="M347.643,40.949a.876.876,0,1,1-.876-.876A.878.878,0,0,1,347.643,40.949Z" transform="translate(-330.75 -17.361)"/><path class="e" d="M349.181,40.949a.876.876,0,1,1-.876-.876A.878.878,0,0,1,349.181,40.949Z" transform="translate(-317.146 -17.361)"/><circle class="e" cx="0.877" cy="0.877" r="0.877" transform="translate(22.714 56.66)"/><path class="e" d="M349.95,44.4a.876.876,0,0,1-1.753,0,.876.876,0,0,1,1.753,0Z" transform="translate(-310.344 13.136)"/><path class="e" d="M351.5,44.4a.881.881,0,1,1-.876-.876A.872.872,0,0,1,351.5,44.4Z" transform="translate(-296.741 13.136)"/><path class="e" d="M347.643,43.256a.876.876,0,1,1-.876-.876A.878.878,0,0,1,347.643,43.256Z" transform="translate(-330.75 3.044)"/><path class="e" d="M349.181,43.256a.876.876,0,1,1-.876-.876A.878.878,0,0,1,349.181,43.256Z" transform="translate(-317.146 3.044)"/><path class="e" d="M350.719,43.256a.876.876,0,1,1-.876-.876A.872.872,0,0,1,350.719,43.256Z" transform="translate(-303.543 3.044)"/><circle class="e" cx="0.877" cy="0.877" r="0.877" transform="translate(22.714 79.373)"/><path class="e" d="M349.95,46.7a.876.876,0,1,1-.876-.876A.874.874,0,0,1,349.95,46.7Z" transform="translate(-310.344 33.541)"/><path class="e" d="M351.5,46.7a.881.881,0,1,1-.876-.876A.88.88,0,0,1,351.5,46.7Z" transform="translate(-296.741 33.541)"/><path class="e" d="M349.181,45.563a.876.876,0,1,1-.876-.876A.878.878,0,0,1,349.181,45.563Z" transform="translate(-317.146 23.449)"/><path class="e" d="M350.719,45.563a.876.876,0,1,1-.876-.876A.872.872,0,0,1,350.719,45.563Z" transform="translate(-303.543 23.449)"/><path class="e" d="M352.258,45.563a.876.876,0,1,1-.876-.876A.878.878,0,0,1,352.258,45.563Z" transform="translate(-289.931 23.449)"/><path class="e" d="M348.412,49.012a.876.876,0,1,1-.876-.876A.878.878,0,0,1,348.412,49.012Z" transform="translate(-323.948 53.955)"/><path class="e" d="M349.95,49.012a.876.876,0,1,1-.876-.876A.872.872,0,0,1,349.95,49.012Z" transform="translate(-310.344 53.955)"/><path class="e" d="M351.5,49.012a.881.881,0,1,1-.876-.876A.878.878,0,0,1,351.5,49.012Z" transform="translate(-296.741 53.955)"/><path class="e" d="M349.181,47.87a.876.876,0,1,1-.876-.876A.878.878,0,0,1,349.181,47.87Z" transform="translate(-317.146 43.854)"/><path class="e" d="M350.719,47.87a.876.876,0,1,1-.876-.876A.872.872,0,0,1,350.719,47.87Z" transform="translate(-303.543 43.854)"/><path class="e" d="M352.258,47.87a.876.876,0,1,1-.876-.876A.878.878,0,0,1,352.258,47.87Z" transform="translate(-289.931 43.854)"/><path class="e" d="M351.5,51.319a.881.881,0,1,1-.876-.876A.878.878,0,0,1,351.5,51.319Z" transform="translate(-296.741 74.36)"/><path class="e" d="M349.181,50.177a.876.876,0,1,1-.876-.876A.878.878,0,0,1,349.181,50.177Z" transform="translate(-317.146 64.259)"/><path class="e" d="M350.719,50.177a.876.876,0,1,1-.876-.876A.872.872,0,0,1,350.719,50.177Z" transform="translate(-303.543 64.259)"/><path class="e" d="M352.258,50.177a.876.876,0,1,1-.876-.876A.878.878,0,0,1,352.258,50.177Z" transform="translate(-289.931 64.259)"/></g></g><path class="b" d="M414.324,129.371c-1.309,19.916-7.472,42.412-7.472,42.412L358.3,154.662s12.395-31.435,12.7-36.6c.424-7.512-9.894-31.435-20.664-54.422C341.6,45.01,341.384,34.25,352.764,38Z" transform="translate(-341.395 -37.259)"/></g><g transform="translate(146.664)"><g transform="translate(18.022 36.751)"><path class="j" d="M363.1,60.9c-.266,1.546-6.94,11.9-13.93,12-2.284.03-3-12.395-3-12.395l-.256-.906-3.672-12.68L356.749,36.3l2.1-1.418s.778,3.534,1.693,7.945l.138.63c.059.246.118.482.158.719.147.66.3,1.329.423,2,.108.512.207,1,.3,1.546s.187,1.073.3,1.615A84.3,84.3,0,0,1,363.1,60.9Z" transform="translate(-342.238 -34.883)"/><path class="b" d="M360.539,42.828A26.5,26.5,0,0,1,345.91,59.6l-3.672-12.68L356.749,36.3l2.1-1.418S359.624,38.417,360.539,42.828Z" transform="translate(-342.238 -34.883)"/></g><path class="j" d="M341.7,55.127c-5.375,22.535,7.4,28.511,12.375,29.456,4.45.837,19.562,4.056,27.241-17.8s-1.1-31.484-11.065-34.408S347.088,32.593,341.7,55.127Z" transform="translate(-340.408 -28.478)"/><g transform="translate(0.476 20.578)"><path class="b" d="M341.524,35.551c.542,0,1.053-.089,1.595-.138a2.524,2.524,0,0,0,1.595-.453.819.819,0,0,0,.128-.994,2.062,2.062,0,0,0-1.949-.719,3.012,3.012,0,0,0-2,.817A.883.883,0,0,0,341.524,35.551Z" transform="translate(-338.824 -33.24)"/><path class="b" d="M345.01,36.134a13.634,13.634,0,0,1-1.516-.5,2.58,2.58,0,0,1-1.457-.8.832.832,0,0,1,.108-1,2.052,2.052,0,0,1,2.058-.256,3,3,0,0,1,1.752,1.26A.877.877,0,0,1,345.01,36.134Z" transform="translate(-327.552 -31.647)"/><g transform="translate(12.843 8.559)"><path class="b" d="M342.092,34.267c.019-.059.108.089.1.158-.285,1.555-.335,3.377.995,4.105.039.02.029.1-.02.079C341.472,38.117,341.58,35.695,342.092,34.267Z" transform="translate(-341.76 -32.837)"/><path class="b" d="M343.638,34.113c2.531.187,1.989,5.247-.364,5.08C340.96,39.025,341.5,33.965,343.638,34.113Z" transform="translate(-341.672 -34.11)"/><path class="b" d="M342.353,34.18c.4.335.787.886,1.309,1,.61.128,1.142-.354,1.595-.827.05-.049.089,0,.079.069-.089.975-.571,1.93-1.624,1.959-.965.03-1.556-.9-1.684-1.9C342,34.3,342.185,34.052,342.353,34.18Z" transform="translate(-339.421 -33.803)"/></g><g transform="translate(0 6.181)"><g transform="translate(1.482 0.425)"><path class="b" d="M342.883,34.109c-.01-.059-.128.059-.138.128-.108,1.575-.492,3.357-1.959,3.741-.049.01-.049.089,0,.089C342.539,37.988,343.031,35.616,342.883,34.109Z" transform="translate(-339.342 -32.3)"/><path class="b" d="M342.907,33.939c-2.5-.443-3.209,4.6-.886,5.011C344.3,39.353,345,34.313,342.907,33.939Z" transform="translate(-340.606 -33.911)"/></g><path class="b" d="M343.146,34.507c-.443.217-.906.64-1.379.61-.561-.039-.9-.65-1.171-1.221-.029-.059-.079-.02-.089.049-.158.955.02,2.008.925,2.323.817.286,1.556-.453,1.92-1.388C343.411,34.714,343.313,34.419,343.146,34.507Z" transform="translate(-340.456 -33.868)"/></g><path class="b" d="M344.405,35.506c-.315.423-.611.985-1.172,1.122a4.138,4.138,0,0,1-1.733-.138c-.049-.01-.1.049-.059.089a2.129,2.129,0,0,0,2.117.541,1.672,1.672,0,0,0,1-1.565C344.582,35.457,344.454,35.447,344.405,35.506Z" transform="translate(-331.861 -13.525)"/><g transform="translate(3.529 0.678)"><path class="b" d="M343.49,48.489s-.6,2.3-.728,3.406c-.01.108.246.187.62.246l.039.01a5.286,5.286,0,0,0,5.336-1.349c.089-.1-.039-.226-.148-.177a7.963,7.963,0,0,1-4.952.807c-.049-.315,1.162-3.908.984-3.938a9.277,9.277,0,0,0-2.57.266c1.113-4.834,2.993-9.441,4.037-14.265a.155.155,0,0,0-.285-.108c-2.314,4.7-3.721,10.219-5,15.181C340.664,49.188,343.027,48.626,343.49,48.489Z" transform="translate(-340.814 -33.309)"/></g><g transform="translate(6.234 17.964)"><path class="b" d="M341.089,35.971a6.523,6.523,0,0,0,2.136,2.51,2.864,2.864,0,0,0,1.723.473c1.329-.069,1.6-1.221,1.575-2.254a7.008,7.008,0,0,0-.256-1.634A8.4,8.4,0,0,1,341.089,35.971Z" transform="translate(-341.089 -35.065)"/><path class="k" d="M341.306,37.03a2.864,2.864,0,0,0,1.723.473c1.329-.069,1.6-1.221,1.575-2.254A3.038,3.038,0,0,0,341.306,37.03Z" transform="translate(-339.169 -33.613)"/></g></g><path class="b" d="M377.945,68.7c-2.491-.5-8.043-8.319-6.527-20.458,0,0-.61,11-.02,12.7s-3.091-4.4-2.018-14.2c0,0-5.956,3.141-10.741,3.78s-7.61.2-7.9-.187,6.8-1.555,8.939-3.416c0,0-13.064,3.967-18.784,3.6-.66-.039.463-13.6,10-18.065s22.515,3.643,25.734,7.768c0,0,4.282,1.231,8.122,8.368S380.614,69.24,377.945,68.7Z" transform="translate(-337.419 -31.15)"/></g><g transform="translate(78.895 150.902)"><g transform="translate(90.219)"><g transform="translate(5.32)"><path class="l" d="M437.727,341.646l-36.337,7.236L377.6,353.628s-24.445-99.817-28.58-142.918c-3.928-40.866-9.717-105.438-1.988-164.232h46c3.908,6.823,23,31.139,12.946,69.8-1.417,5.474,1.811,55.21,6.921,88.978C417.683,236.6,437.727,341.646,437.727,341.646Z" transform="translate(-343.228 -46.478)"/><path d="M401.39,348.882,377.6,353.628s-24.445-99.817-28.58-142.918c-3.928-40.866-9.717-105.438-1.988-164.232h16.254C370.969,102.19,393.012,288.337,401.39,348.882Z" transform="translate(-343.228 -46.478)"/></g><g transform="translate(0 253.446)"><g transform="translate(2.669)"><path class="e" d="M441.281,122.559c.59,3.761,1.152,7.472,1.673,11.076q.487,3.367.916,6.547c1.88,13.606,2.933,24.1,1.89,25.035-3.19,2.894-97.228,19.385-100.713,18.873s-2.225-10.475.916-14.029c1.91-2.156,14.925-11.292,24.829-18.115l.039-.029c6.379-4.381,11.46-7.817,11.46-7.817l-2.205-11-10.14-50.022,62.938-10.859S437.49,98.084,441.281,122.559Z" transform="translate(-342.959 -72.222)"/></g><g transform="translate(0 13.192)"><g transform="translate(29.937 30.469)"><g transform="translate(3.546 20.59)"><path class="b" d="M346.257,83.55c5.218-3.721,12.611-6.094,18.863-4.046.246.079.128.414-.079.443a88.986,88.986,0,0,0-18.42,4.312A.4.4,0,0,1,346.257,83.55Z" transform="translate(-346.089 -78.748)"/></g><g transform="translate(2.658 15.445)"><path class="b" d="M346.169,83.023c5.218-3.721,12.611-6.084,18.863-4.046.246.079.128.423-.089.443a89.026,89.026,0,0,0-18.41,4.312A.4.4,0,0,1,346.169,83.023Z" transform="translate(-345.999 -78.226)"/></g><g transform="translate(1.772 10.296)"><path class="b" d="M346.08,82.5c5.218-3.721,12.611-6.084,18.863-4.046.246.079.128.423-.089.453a88.024,88.024,0,0,0-18.42,4.312A.406.406,0,0,1,346.08,82.5Z" transform="translate(-345.909 -77.703)"/></g><g transform="translate(0.886 5.149)"><path class="b" d="M345.99,81.985c5.217-3.721,12.6-6.094,18.863-4.056.246.079.128.423-.089.453a88.02,88.02,0,0,0-18.42,4.312A.4.4,0,0,1,345.99,81.985Z" transform="translate(-345.819 -77.18)"/></g><path class="b" d="M345.9,81.462c5.208-3.721,12.6-6.094,18.862-4.056.236.079.128.423-.088.453a88.645,88.645,0,0,0-18.42,4.312A.4.4,0,0,1,345.9,81.462Z" transform="translate(-345.729 -76.657)"/></g><path class="i" d="M448.4,153.778c-2.245,3.18-49.648,11.558-79.871,16.185-13.862,2.117-24.091,3.465-24.691,3.141-1.9-1.044-1.752-10.947,4.213-18.292,3.308-4.076,20.271-15.634,28.087-20.881,2.452-1.624,4-2.638,4-2.638l-6.744-31.848-1.457-6.872-1.516-7.167c1.959-.01,68.619-11.843,68.619-11.843s.463,2.806,1.191,7.364c.335,2,.709,4.351,1.122,6.95C444.808,110.027,450.754,150.431,448.4,153.778Z" transform="translate(-342.065 -73.562)"/><rect class="b" width="109.009" height="6.1" transform="translate(0 98.439) rotate(-9.783)"/><path class="m" d="M415.138,81.26,347.179,92.828l-1.457-6.872L414.016,74.31C414.351,76.308,414.725,78.661,415.138,81.26Z" transform="translate(-315.851 -66.946)"/></g><path class="b" d="M376.15,79.695l-7.62,36.032c-13.862,2.117-24.091,3.446-24.691,3.121-1.9-1.024-1.753-10.928,4.2-18.282C351.351,96.48,368.324,84.932,376.15,79.695Z" transform="translate(-342.065 -6.124)"/></g></g><g transform="translate(0 0.01)"><g transform="translate(46.96)"><path class="l" d="M414.4,114.182c-.01.039-8.339,61.383-11.361,92.276-.758,7.7-1.654,94.57-1.654,113.659V333.88c-.01,17.612-.01,30.145-.01,30.145H338.966s-.01-.581-.029-1.674c-.01-.591-.03-1.3-.03-2.166-.029-.876-.039-1.88-.059-3.042-.01-.669-.03-1.4-.039-2.156-.079-5.257-.187-12.533-.325-21.019-.059-4.342-.118-8.988-.177-13.852C337.824,282.332,351.115,78.465,364,46.479h67.053S442.091,84.057,414.4,114.182Z" transform="translate(-338.293 -46.479)"/><g transform="translate(12.206 1.267)"><path d="M375.182,51.927c-4.971,2.8-9.914,5.641-14.885,8.447-2.451,1.378-4.942,2.668-7.423,4-2.52,1.359-5.159,2.5-7.63,3.938a.147.147,0,0,0,.118.266,51.537,51.537,0,0,0,8.348-2.855,77.505,77.505,0,0,0,7.65-3.623,65.974,65.974,0,0,0,14.019-9.924C375.517,52.045,375.34,51.839,375.182,51.927Z" transform="translate(-289.646 0.254)"/><path d="M364.435,46.857A510.706,510.706,0,0,0,353.468,106c-2.481,20.1-4.125,40.334-5.956,60.507-3.672,40.59-6.852,81.259-7.768,122.027-.521,22.811-.079,45.67,1.359,68.451a.143.143,0,0,0,.285-.01c-1.221-40.5.089-81.092,2.668-121.525,1.3-20.349,2.943-40.679,4.735-60.989,1.772-20.1,3.475-40.216,5.523-60.29a547.068,547.068,0,0,1,10.77-67.152A.334.334,0,0,0,364.435,46.857Z" transform="translate(-339.533 -46.608)"/></g></g><g transform="translate(0 273.648)"><g transform="translate(3.188)"><path class="e" d="M440.6,125.291c-.059,3.82-.138,7.571-.237,11.2q-.088,3.4-.207,6.606c-.463,13.734-1.211,24.248-2.392,25-3.643,2.3-99.108,2.579-102.456,1.487-3.337-1.112-.413-10.7,3.288-13.674,2.245-1.792,16.618-8.585,27.546-13.625l.039-.029c7.029-3.229,12.621-5.759,12.621-5.759l-.305-11.2-1.487-51.016h63.863S441.024,100.531,440.6,125.291Z" transform="translate(-333.847 -74.275)"/></g><g transform="translate(0 13.743)"><g transform="translate(40.17 20.747)"><g transform="translate(0 20.891)"><path class="b" d="M337.831,82.545c5.779-2.786,13.468-3.859,19.286-.788.217.118.049.433-.167.433A87.962,87.962,0,0,0,338.067,83.3.4.4,0,0,1,337.831,82.545Z" transform="translate(-337.604 -79.9)"/></g><g transform="translate(0 15.666)"><path class="b" d="M337.831,82.011c5.779-2.776,13.468-3.859,19.286-.788.217.118.049.443-.167.433a88.606,88.606,0,0,0-18.883,1.122A.407.407,0,0,1,337.831,82.011Z" transform="translate(-337.604 -79.37)"/></g><g transform="translate(0 10.445)"><path class="b" d="M337.831,81.484c5.779-2.786,13.468-3.859,19.286-.788.217.118.049.433-.167.423a88.609,88.609,0,0,0-18.883,1.122A.4.4,0,0,1,337.831,81.484Z" transform="translate(-337.604 -78.839)"/></g><g transform="translate(0 5.221)"><path class="b" d="M337.831,80.95c5.779-2.776,13.468-3.859,19.286-.788.217.118.049.443-.167.433a88.61,88.61,0,0,0-18.883,1.122A.407.407,0,0,1,337.831,80.95Z" transform="translate(-337.604 -78.309)"/></g><path class="b" d="M337.831,80.423c5.779-2.786,13.468-3.859,19.286-.787.217.118.049.433-.167.423a88.61,88.61,0,0,0-18.883,1.122A.4.4,0,0,1,337.831,80.423Z" transform="translate(-337.604 -77.778)"/></g><path class="i" d="M444.917,75.671s-.02,2.678-.049,7.029c-.02,2.018-.059,4.391-.1,7.049-.335,22.308-1.329,63.637-4.243,66.551-4,4.017-104.611,2.619-106.314,1.27-1.694-1.319.137-11.066,7.236-17.307,5.2-4.519,35.628-17.711,35.628-17.711l-1.24-32.8-.276-7.049-.266-7.029C377.243,75.986,444.917,75.671,444.917,75.671Z" transform="translate(-332.643 -75.671)"/><rect class="b" width="109.009" height="6.1" transform="translate(0 80.521)"/><path class="m" d="M407.191,76.385c-.02,2.018-.059,4.391-.1,7.049H338.159l-.276-7.049Z" transform="translate(-294.967 -69.356)"/></g></g></g></g><g transform="translate(141.678 59.867)"><path class="i" d="M346.074,104.077,339.9,144.293l95.919-.63s-18.912-76.6-39.006-100.7c-7.374-8.831-22.328-6.783-30.007,1.575-8.063,8.772-23.568,28.5-25.537,39.458C339.556,93.671,346.074,104.077,346.074,104.077Z" transform="translate(-339.901 -37.231)"/><g transform="translate(5.976 5.267)"><path class="e" d="M343.8,39.783a.876.876,0,1,1-.876-.876A.878.878,0,0,1,343.8,39.783Z" transform="translate(-326.905 -27.674)"/><path class="e" d="M345.336,39.783a.876.876,0,1,1-.876-.876A.878.878,0,0,1,345.336,39.783Z" transform="translate(-313.301 -27.674)"/><path class="e" d="M346.874,39.783a.876.876,0,1,1-.876-.876A.878.878,0,0,1,346.874,39.783Z" transform="translate(-299.698 -27.674)"/><path class="e" d="M344.567,38.642a.876.876,0,1,1-.876-.876A.878.878,0,0,1,344.567,38.642Z" transform="translate(-320.103 -37.766)"/><path class="e" d="M346.105,38.642a.876.876,0,1,1-.876-.876A.878.878,0,0,1,346.105,38.642Z" transform="translate(-306.499 -37.766)"/><path class="e" d="M342.26,42.09a.876.876,0,1,1-.876-.876A.878.878,0,0,1,342.26,42.09Z" transform="translate(-340.508 -7.269)"/><path class="e" d="M343.8,42.09a.876.876,0,1,1-.876-.876A.878.878,0,0,1,343.8,42.09Z" transform="translate(-326.905 -7.269)"/><path class="e" d="M345.336,42.09a.876.876,0,1,1-.876-.876A.878.878,0,0,1,345.336,42.09Z" transform="translate(-313.301 -7.269)"/><path class="e" d="M346.874,42.09a.876.876,0,1,1-.876-.876A.878.878,0,0,1,346.874,42.09Z" transform="translate(-299.698 -7.269)"/><path class="e" d="M348.412,42.09a.876.876,0,1,1-.876-.876A.878.878,0,0,1,348.412,42.09Z" transform="translate(-286.094 -7.269)"/><path class="e" d="M343.029,40.949a.876.876,0,1,1-.876-.876A.878.878,0,0,1,343.029,40.949Z" transform="translate(-333.706 -17.361)"/><path class="e" d="M344.567,40.949a.876.876,0,1,1-.876-.876A.878.878,0,0,1,344.567,40.949Z" transform="translate(-320.103 -17.361)"/><path class="e" d="M346.105,40.949a.876.876,0,1,1-.876-.876A.878.878,0,0,1,346.105,40.949Z" transform="translate(-306.499 -17.361)"/><path class="e" d="M347.643,40.949a.876.876,0,1,1-.876-.876A.878.878,0,0,1,347.643,40.949Z" transform="translate(-292.896 -17.361)"/><path class="e" d="M342.26,44.4a.876.876,0,1,1-.876-.876A.872.872,0,0,1,342.26,44.4Z" transform="translate(-340.508 13.136)"/><path class="e" d="M343.8,44.4a.876.876,0,1,1-.876-.876A.872.872,0,0,1,343.8,44.4Z" transform="translate(-326.905 13.136)"/><circle class="e" cx="0.877" cy="0.877" r="0.877" transform="translate(30.283 56.66)"/><path class="e" d="M346.874,44.4a.876.876,0,1,1-.876-.876A.872.872,0,0,1,346.874,44.4Z" transform="translate(-299.698 13.136)"/><circle class="e" cx="0.877" cy="0.877" r="0.877" transform="translate(60.568 56.66)"/><path class="e" d="M349.95,44.4a.876.876,0,0,1-1.753,0,.876.876,0,0,1,1.753,0Z" transform="translate(-272.491 13.136)"/><path class="e" d="M343.029,43.256a.876.876,0,1,1-.876-.876A.878.878,0,0,1,343.029,43.256Z" transform="translate(-333.706 3.044)"/><path class="e" d="M344.567,43.256a.876.876,0,1,1-.876-.876A.878.878,0,0,1,344.567,43.256Z" transform="translate(-320.103 3.044)"/><path class="e" d="M346.105,43.256a.876.876,0,1,1-.876-.876A.878.878,0,0,1,346.105,43.256Z" transform="translate(-306.499 3.044)"/><path class="e" d="M347.643,43.256a.876.876,0,1,1-.876-.876A.878.878,0,0,1,347.643,43.256Z" transform="translate(-292.896 3.044)"/><path class="e" d="M349.181,43.256a.876.876,0,1,1-.876-.876A.878.878,0,0,1,349.181,43.256Z" transform="translate(-279.293 3.044)"/><path class="e" d="M342.26,46.7a.876.876,0,1,1-.876-.876A.88.88,0,0,1,342.26,46.7Z" transform="translate(-340.508 33.541)"/><path class="e" d="M343.8,46.7a.876.876,0,1,1-.876-.876A.88.88,0,0,1,343.8,46.7Z" transform="translate(-326.905 33.541)"/><circle class="e" cx="0.877" cy="0.877" r="0.877" transform="translate(30.283 79.373)"/><path class="e" d="M346.874,46.7a.876.876,0,1,1-.876-.876A.88.88,0,0,1,346.874,46.7Z" transform="translate(-299.698 33.541)"/><circle class="e" cx="0.877" cy="0.877" r="0.877" transform="translate(60.568 79.373)"/><path class="e" d="M349.95,46.7a.876.876,0,1,1-.876-.876A.874.874,0,0,1,349.95,46.7Z" transform="translate(-272.491 33.541)"/><path class="e" d="M343.029,45.563a.876.876,0,1,1-.876-.876A.878.878,0,0,1,343.029,45.563Z" transform="translate(-333.706 23.449)"/><path class="e" d="M344.567,45.563a.876.876,0,1,1-.876-.876A.878.878,0,0,1,344.567,45.563Z" transform="translate(-320.103 23.449)"/><path class="e" d="M346.105,45.563a.876.876,0,1,1-.876-.876A.878.878,0,0,1,346.105,45.563Z" transform="translate(-306.499 23.449)"/><path class="e" d="M347.643,45.563a.876.876,0,1,1-.876-.876A.878.878,0,0,1,347.643,45.563Z" transform="translate(-292.896 23.449)"/><path class="e" d="M349.181,45.563a.876.876,0,1,1-.876-.876A.878.878,0,0,1,349.181,45.563Z" transform="translate(-279.293 23.449)"/><path class="e" d="M343.029,47.87a.876.876,0,1,1-.876-.876A.878.878,0,0,1,343.029,47.87Z" transform="translate(-333.706 43.854)"/><path class="e" d="M344.567,47.87a.876.876,0,1,1-.876-.876A.878.878,0,0,1,344.567,47.87Z" transform="translate(-320.103 43.854)"/><path class="e" d="M346.105,47.87a.876.876,0,1,1-.876-.876A.878.878,0,0,1,346.105,47.87Z" transform="translate(-306.499 43.854)"/><path class="e" d="M347.643,47.87a.876.876,0,1,1-.876-.876A.878.878,0,0,1,347.643,47.87Z" transform="translate(-292.896 43.854)"/><path class="e" d="M349.181,47.87a.876.876,0,1,1-.876-.876A.878.878,0,0,1,349.181,47.87Z" transform="translate(-279.293 43.854)"/><path class="e" d="M350.719,47.87a.876.876,0,1,1-.876-.876A.872.872,0,0,1,350.719,47.87Z" transform="translate(-265.689 43.854)"/></g><path class="b" d="M428.719,48.318c-2.786-.276-5.612-.246-8.408-.315-2.865-.059-5.74-.128-8.6-.177-5.73-.118-11.46-.177-17.189-.236-11.538-.118-23.076-.394-34.614.01-3.249.118-6.507.207-9.747.345s-6.5.414-9.746.492c-.187,0-.177.246.01.246,2.943-.03,5.9.128,8.84.167,2.786.039,5.582.059,8.368.1,5.73.059,11.469.049,17.2.02,11.45-.049,22.909-.246,34.359-.3,3.259-.02,6.507-.02,9.756-.02s6.518.138,9.747-.089C428.837,48.554,428.886,48.338,428.719,48.318Z" transform="translate(-336.591 52.601)"/></g><g transform="translate(0 34.967)"><path class="j" d="M452.2,55.414c-6.478,10.564-31.671,36.495-50.593,41.516-16.5,4.381-56.441-12.336-68.963-19.207-4.686-2.57,8.979-42.166,14.354-40.246,7.226,2.579,45.661,24.661,49.726,23.342s34.743-15.092,41.919-18.449C454.98,34.72,461.94,39.544,452.2,55.414Z" transform="translate(-270.89 -10.756)"/><path class="j" d="M403.049,62.289s-20.832-11.066-25.173-13.576c-8.693-5.021-44.686-14.383-49.146-14s-8.9,9.057,20.733,19.887c0,0-6.36,13.025-2.481,19,2.52,3.889,12.473,18.124,17.1,19.926,5.257,2.038,23.185,8.142,23.185,8.142Z" transform="translate(-325.51 -34.702)"/><g transform="translate(11.317 17.667)"><path class="j" d="M363.11,41.593c-.374.03-18.587-5.661-25.193-5.05s-11.44,9.737-11.253,12.227,3.81,17.9,10.415,17.416,1.743-12.168,1.891-13.556.276-3.16,1.526-3.121S364.331,58.3,364.331,58.3Z" transform="translate(-326.659 -36.496)"/></g><g transform="translate(9.496 23.672)"><path class="j" d="M362.915,42.193c-.374.03-18.577-5.651-25.183-5.041s-11.44,9.727-11.253,12.227,3.81,17.888,10.416,17.406,1.743-12.158,1.891-13.547.275-3.16,1.526-3.121S364.146,58.9,364.146,58.9Z" transform="translate(-326.474 -37.106)"/></g><g transform="translate(10.95 30.55)"><path class="j" d="M361.678,39.568c-.374.079-19.217-2.875-25.656-1.3s-9.894,11.3-9.343,13.743,6.389,17.14,12.857,15.693-.059-12.286-.118-13.675-.2-3.17,1.053-3.318,24.858,5.2,24.858,5.2Z" transform="translate(-326.622 -37.805)"/></g><path class="j" d="M357.578,40.662c-6.2-1.2-13.231-3.072-19.759-1.969s-10.672,10.573-10.307,13.054,5.169,17.544,11.715,16.569.817-12.257.857-13.655.029-3.18,1.289-3.229,24.426,6.95,24.426,6.95Z" transform="translate(-307.999 -2.364)"/><g transform="translate(10.89 16.294)"><path class="b" d="M352.855,37.726c-4.213-1.093-5.74-1.467-10.081-1.349a47.737,47.737,0,0,0-6.37.591c-1.093.187-6.448,1.1-8.969,2.747-.187.118-.226.335-.04.246,2.235-1.044,7.926-1.831,8.959-1.93,2.146-.217,4.292-.394,6.458-.512a74.214,74.214,0,0,1,10.032.305A.05.05,0,0,0,352.855,37.726Z" transform="translate(-320.791 -36.357)"/><path class="b" d="M358.147,37.5a90.339,90.339,0,0,0-17.337-.059,20.383,20.383,0,0,0-8.27,2.333c-1.181.66-5.05,3.239-5.867,4.952-.1.2.108.335.236.167.916-1.181,5.5-3.771,6.793-4.3a30.763,30.763,0,0,1,8.7-2.067,125.466,125.466,0,0,1,15.614-.758C358.117,37.762,358.728,37.546,358.147,37.5Z" transform="translate(-326.339 -30.181)"/><path class="b" d="M357.322,37.715a118.309,118.309,0,0,0-17.5,1.6c-3.081.66-6.2,1.368-8.506,3.643a17.911,17.911,0,0,0-4.686,7.856c-.059.177.177.305.256.138a21.715,21.715,0,0,1,5.277-6.951c2.491-2.156,5.681-3.081,8.851-3.721,7.128-1.447,9.166-1.388,16.382-2.008C358.336,38.2,358.2,37.715,357.322,37.715Z" transform="translate(-326.616 -24.345)"/><path class="b" d="M348.663,38.648c-2.215.423-8.1,1.6-10.278,2.176-1.93.492-4,.906-5.562,2.205a17.247,17.247,0,0,0-3.308,4.351,13.113,13.113,0,0,0-2.067,5.2c-.493,4.194,3.071,7.3,5.05,10.6a.146.146,0,0,0,.246-.158c-1.024-1.723-1.89-3.564-2.747-5.375a8.33,8.33,0,0,1-.985-5.661,15.2,15.2,0,0,1,2.323-4.745c.964-1.487,1.949-3.121,3.574-3.958a28.164,28.164,0,0,1,5.582-1.713c1.89-.5,5.484-1.428,7.384-1.871C351.814,38.8,352.926,37.821,348.663,38.648Z" transform="translate(-319.671 -18.859)"/><path class="b" d="M350.034,45.137a40.882,40.882,0,0,1-10.377-1.221,25.961,25.961,0,0,1-4.253-1.674,11.739,11.739,0,0,1-3.79-2.57c-.118-.138-.325.079-.2.217a22.24,22.24,0,0,0,3,2.934,22.091,22.091,0,0,1-5.838,2.481c-.177.03-.1.276.049.285a6.489,6.489,0,0,0,1.851-.108,7.98,7.98,0,0,0,1.831-.66,13.565,13.565,0,0,0,2.55-1.674,14.016,14.016,0,0,0,4.234,1.8,30.488,30.488,0,0,0,10.938.413A.113.113,0,0,0,350.034,45.137Z" transform="translate(-310.133 -7.42)"/></g><g transform="translate(61.639 21.798)"><path class="i" d="M342.7,36.916,331.771,92.244s49.342,13.921,66.315,10.79,41.378-24.2,52.67-41.122,7.266-25.981-15.328-16.136-37.322,15.151-39.7,15.545S342.7,36.916,342.7,36.916Z" transform="translate(-331.771 -36.916)"/><g transform="translate(2.727 8.368)"><path class="e" d="M334.57,39.783a.876.876,0,1,1-.876-.876A.878.878,0,0,1,334.57,39.783Z" transform="translate(-325.247 -27.674)"/><path class="e" d="M336.107,39.783a.876.876,0,1,1-.876-.876A.878.878,0,0,1,336.107,39.783Z" transform="translate(-311.643 -27.674)"/><path class="e" d="M337.645,39.783a.876.876,0,1,1-.876-.876A.872.872,0,0,1,337.645,39.783Z" transform="translate(-298.039 -27.674)"/><path class="e" d="M342.26,39.783a.876.876,0,1,1-.876-.876A.878.878,0,0,1,342.26,39.783Z" transform="translate(-257.221 -27.674)"/><path class="e" d="M343.8,39.783a.876.876,0,1,1-.876-.876A.878.878,0,0,1,343.8,39.783Z" transform="translate(-243.617 -27.674)"/><path class="e" d="M345.336,39.783a.876.876,0,1,1-.876-.876A.878.878,0,0,1,345.336,39.783Z" transform="translate(-230.014 -27.674)"/><path class="e" d="M335.338,38.642a.876.876,0,1,1-.876-.876A.878.878,0,0,1,335.338,38.642Z" transform="translate(-318.445 -37.766)"/><path class="e" d="M344.567,38.642a.876.876,0,1,1-.876-.876A.878.878,0,0,1,344.567,38.642Z" transform="translate(-236.815 -37.766)"/><path class="e" d="M346.105,38.642a.876.876,0,1,1-.876-.876A.878.878,0,0,1,346.105,38.642Z" transform="translate(-223.212 -37.766)"/><path class="e" d="M334.57,42.09a.876.876,0,1,1-.876-.876A.878.878,0,0,1,334.57,42.09Z" transform="translate(-325.247 -7.269)"/><path class="e" d="M336.107,42.09a.876.876,0,1,1-.876-.876A.878.878,0,0,1,336.107,42.09Z" transform="translate(-311.643 -7.269)"/><path class="e" d="M337.645,42.09a.876.876,0,1,1-.876-.876A.872.872,0,0,1,337.645,42.09Z" transform="translate(-298.039 -7.269)"/><path class="e" d="M339.184,42.09a.876.876,0,1,1-.876-.876A.878.878,0,0,1,339.184,42.09Z" transform="translate(-284.427 -7.269)"/><path class="e" d="M340.722,42.09a.876.876,0,1,1-.876-.876A.878.878,0,0,1,340.722,42.09Z" transform="translate(-270.824 -7.269)"/><path class="e" d="M342.26,42.09a.876.876,0,1,1-.876-.876A.878.878,0,0,1,342.26,42.09Z" transform="translate(-257.221 -7.269)"/><path class="e" d="M343.8,42.09a.876.876,0,1,1-.876-.876A.878.878,0,0,1,343.8,42.09Z" transform="translate(-243.617 -7.269)"/><path class="e" d="M335.338,40.949a.876.876,0,1,1-.876-.876A.878.878,0,0,1,335.338,40.949Z" transform="translate(-318.445 -17.361)"/><path class="e" d="M336.877,40.949a.876.876,0,1,1-.876-.876A.872.872,0,0,1,336.877,40.949Z" transform="translate(-304.841 -17.361)"/><path class="e" d="M338.424,40.949a.881.881,0,1,1-.886-.876A.88.88,0,0,1,338.424,40.949Z" transform="translate(-291.238 -17.361)"/><path class="e" d="M339.953,40.949a.876.876,0,1,1-.876-.876A.878.878,0,0,1,339.953,40.949Z" transform="translate(-277.626 -17.361)"/><path class="e" d="M341.491,40.949a.876.876,0,1,1-.876-.876A.878.878,0,0,1,341.491,40.949Z" transform="translate(-264.022 -17.361)"/><path class="e" d="M343.029,40.949a.876.876,0,1,1-.876-.876A.878.878,0,0,1,343.029,40.949Z" transform="translate(-250.419 -17.361)"/><path class="e" d="M344.567,40.949a.876.876,0,1,1-.876-.876A.878.878,0,0,1,344.567,40.949Z" transform="translate(-236.815 -17.361)"/><path class="e" d="M339.184,44.4a.876.876,0,1,1-.876-.876A.872.872,0,0,1,339.184,44.4Z" transform="translate(-284.427 13.136)"/><path class="e" d="M333.8,43.256a.876.876,0,1,1-.876-.876A.878.878,0,0,1,333.8,43.256Z" transform="translate(-332.048 3.044)"/><path class="e" d="M335.338,43.256a.876.876,0,1,1-.876-.876A.878.878,0,0,1,335.338,43.256Z" transform="translate(-318.445 3.044)"/><path class="e" d="M336.877,43.256A.876.876,0,1,1,336,42.38.872.872,0,0,1,336.877,43.256Z" transform="translate(-304.841 3.044)"/><path class="e" d="M338.424,43.256a.881.881,0,1,1-.886-.876A.88.88,0,0,1,338.424,43.256Z" transform="translate(-291.238 3.044)"/><path class="e" d="M339.953,43.256a.876.876,0,1,1-.876-.876A.878.878,0,0,1,339.953,43.256Z" transform="translate(-277.626 3.044)"/><path class="e" d="M341.491,43.256a.876.876,0,1,1-.876-.876A.878.878,0,0,1,341.491,43.256Z" transform="translate(-264.022 3.044)"/></g><g transform="translate(8.86 9.882)"><path class="b" d="M343.334,38.03c-1.8,7.492-3.663,14.974-5.474,22.466-.886,3.682-1.792,7.344-2.638,11.036-.876,3.82-1.88,7.659-2.55,11.519-.01.059.079.108.108.039,1.437-3.485,2.53-7.187,3.613-10.8,1.112-3.7,2.077-7.423,2.963-11.184,1.8-7.6,3.17-15.279,4.263-23.007C343.639,37.912,343.373,37.843,343.334,38.03Z" transform="translate(-332.671 -37.92)"/><path class="b" d="M365.607,41.4c-4.44,2.412-8.88,5-13.143,7.709-4.312,2.766-8.23,5.946-12.276,9.077-.148.108-.01.345.148.246,4.282-2.737,8.683-5.237,12.867-8.122.492-.335.975-.689,1.457-1.024,1.1-.286,2.186-.669,3.259-1.014a24.513,24.513,0,0,0,2.451-.916,23.36,23.36,0,0,1,2.51-1.063c.177-.049.089-.335-.089-.276a27.09,27.09,0,0,1-2.648.6,18.605,18.605,0,0,0-2.5.729l-.423.148c2.835-1.979,5.671-3.948,8.476-5.946C365.784,41.477,365.705,41.339,365.607,41.4Z" transform="translate(-266.744 -7.283)"/></g></g></g><g transform="translate(176.942 29.542)"><path class="j" d="M345.668,38.78s6.065-6.409,9.038-4.145-2.323,12.08-6.34,12.926a3.925,3.925,0,0,1-4.883-2.855Z" transform="translate(-343.483 -34.151)"/><path class="b" d="M351.259,34.488c.059,0,.059.089,0,.108-2.826.679-4.608,2.944-5.966,5.365a2.156,2.156,0,0,1,3.279-.108c.069.059-.019.167-.089.138a2.394,2.394,0,0,0-2.746.443,11.435,11.435,0,0,0-1.575,1.93c-.157.226-.571.03-.443-.236l.039-.049C344.19,38.663,347.547,34.282,351.259,34.488Z" transform="translate(-341.621 -31.228)"/></g></g><g transform="translate(1266.086 10120.561)"><g transform="translate(0 178.26)"><g transform="translate(30.48)"><g transform="translate(66.236 247.017)"><path class="j" d="M398.518,169.043c-3.367,1.142-99.915,1.487-103.607-.827-1.408-.876-2.274-14.935-2.845-31.947-.118-3.682-.227-7.472-.315-11.331l-7.827-51.5,64.543-.413,6.094,51.508-.246,11.331s37.026,16.4,40.807,19.375C398.873,158.214,401.9,167.911,398.518,169.043Z" transform="translate(-283.924 -73.026)"/><path class="e" d="M391.486,122.767c-3.367,1.142-99.915,1.487-103.607-.827-1.7-1.073-2.639-21.6-3.16-43.278l62.81-.4-.246,11.331s37.026,16.4,40.807,19.375C391.841,111.937,394.864,121.634,391.486,122.767Z" transform="translate(-276.893 -26.75)"/><g transform="translate(8.142 45.991)"><path class="i" d="M391.2,112.586c-3.367,1.142-99.915,1.487-103.607-.827-1.408-.876-2.275-14.935-2.845-31.947l62.249-.4s37.026,16.4,40.807,19.375C391.558,101.757,394.58,111.454,391.2,112.586Z" transform="translate(-284.751 -62.56)"/><g transform="translate(6.175)"><g transform="translate(0 18.433)"><path class="b" d="M383.133,82.54c-16.185-.345-81.506-.187-97.533.7-.128.01-.128.1.01.108,16.028.689,81.348,0,97.533-.541C383.478,82.786,383.478,82.54,383.133,82.54Z" transform="translate(-284.254 -54.796)"/><path class="b" d="M306.507,81.034a13.005,13.005,0,0,0-9.678,3.987,12.6,12.6,0,0,0-3.584,8.654c0,.1.177.1.2,0a15.04,15.04,0,0,1,13.064-12.444A.1.1,0,0,0,306.507,81.034Z" transform="translate(-215.848 -66.689)"/><path class="b" d="M307.908,79.571c-6.478-.059-13.98,2.245-17.987,7.561-.148.207.137.423.335.325a89.707,89.707,0,0,1,17.77-7.088A.407.407,0,0,0,307.908,79.571Z" transform="translate(-245.553 -79.57)"/><path class="b" d="M308.421,79.768c-6.478-.069-13.98,2.245-17.987,7.551-.158.207.137.423.335.325a88.85,88.85,0,0,1,17.77-7.078A.408.408,0,0,0,308.421,79.768Z" transform="translate(-241.055 -77.828)"/><path class="b" d="M308.93,79.964c-6.478-.069-13.98,2.245-17.987,7.561-.158.2.137.423.325.315a89.927,89.927,0,0,1,17.77-7.078A.407.407,0,0,0,308.93,79.964Z" transform="translate(-236.553 -76.094)"/><path class="b" d="M309.443,80.16c-6.488-.069-13.99,2.245-18,7.561-.148.207.148.423.335.325a89.124,89.124,0,0,1,17.77-7.088A.407.407,0,0,0,309.443,80.16Z" transform="translate(-232.055 -74.361)"/><path class="b" d="M290.8,80.9c-7.275.049-7.206,11.341.069,11.3S298.076,80.857,290.8,80.9Z" transform="translate(-285.378 -67.841)"/></g><path class="b" d="M306.117,78.824c-3.288-2.707-7.4-.039-9.421,2.8a33.975,33.975,0,0,0-5.828,16.589.169.169,0,0,0,.207.177.787.787,0,0,0,1.161.522c4.608-3.209,9.924-6.064,13.4-10.583C307.673,85.676,309.228,81.384,306.117,78.824Zm-7.9,13.793c-2.225,1.634-4.519,3.15-6.675,4.863a101.687,101.687,0,0,1,3.613-9.609,35.352,35.352,0,0,1,2.353-4.381c1.4-2.146,7.738-7.581,8.408-.541C306.285,86.838,300.87,90.677,298.222,92.617Z" transform="translate(-236.822 -77.698)"/><path class="b" d="M295.493,90.1c5.651.847,11.459-.778,17-1.654a.786.786,0,0,0,.473-1.181.166.166,0,0,0,.019-.276,33.941,33.941,0,0,0-15.692-7.915c-3.416-.64-8.24.285-8.732,4.519C288.1,87.6,292.2,89.609,295.493,90.1Zm-3.919-3.672c-4.4-5.543,3.928-6.015,6.429-5.444a37.762,37.762,0,0,1,4.725,1.526A102.544,102.544,0,0,1,312,86.931c-2.747.266-5.444.768-8.181,1.132C300.563,88.5,294,89.491,291.575,86.429Z" transform="translate(-257.533 -67.139)"/></g></g></g><path class="l" d="M419.927,342l-78,1.4s-10.613-69-17.6-111.956c-2.638-16.126-4.735-28.58-5.572-32.33C316.733,190.154,277.2,48.033,277.2,48.033l56.716-.079,19.355-.02s-1.23,23.756-.5,26.266C362.876,108.589,383.55,169.6,390,190.853,399.9,223.557,419.927,342,419.927,342Z" transform="translate(-277.196 -47.935)"/><g transform="translate(9.813 8.97)"><g transform="translate(59.937 273.006)"><path d="M350.164,76.714c-11.2-.089-50.888-.532-65.8.857-.108.01-.108.2.01.217,5.129.738,54.6-.413,65.8-.768A.153.153,0,1,0,350.164,76.714Z" transform="translate(-284.281 -76.577)"/></g><path d="M334.39,263.167q-4.046-26.758-9.018-53.389c-1.644-8.732-3.426-17.445-5.7-26.04-2.3-8.693-5.188-17.219-8.112-25.715-5.828-16.9-11.43-33.876-16.638-50.977Q287.11,81.426,280.263,55.5c-.581-2.186-1.162-4.371-1.782-6.557-.059-.177-.315-.089-.285.089,1.782,8.713,4.076,17.337,6.281,25.941q3.337,12.921,7.029,25.734,7.428,25.754,16.126,51.115c2.894,8.427,5.887,16.815,8.447,25.351,2.56,8.516,4.558,17.179,6.34,25.892,3.6,17.671,6.655,35.461,9.51,53.261,2.865,17.9,5.257,35.855,7.65,53.822.3,2.274.6,4.548.886,6.832.089.64,1.093.63,1.024-.03C339.558,298.973,337.087,281.045,334.39,263.167Z" transform="translate(-278.193 -48.846)"/></g><path d="M333.912,47.937l-9.589,183.488c-2.638-16.126-4.735-28.58-5.572-32.33C316.733,190.136,277.2,48.016,277.2,48.016Z" transform="translate(-277.196 -47.917)"/></g><g transform="translate(4.234 262.129)"><path class="j" d="M381.335,171.877c-3.406,1.044-102.426-1.634-106.069-4.027a1.475,1.475,0,0,1-.374-.591c-1.083-2.963.995-15.545.9-30.992,0-.286.227-5.129.542-12.021.856-17.967,2.4-49.687,2.4-49.687l64.562,1.309L339.012,125.9l-.994,11.627s36.593,17.4,40.265,20.448C381.955,161.048,384.732,170.834,381.335,171.877Z" transform="translate(-274.097 -74.561)"/><path class="e" d="M381.335,127.237c-3.406,1.044-102.426-1.634-106.069-4.027a1.476,1.476,0,0,1-.374-.591c-1.083-2.963.995-15.545.9-30.992,0-.286.227-5.129.542-12.021l62.682,1.654-.994,11.627s36.593,17.4,40.265,20.448C381.955,116.408,384.732,126.194,381.335,127.237Z" transform="translate(-274.097 -29.921)"/><g transform="translate(0 46.393)"><path class="i" d="M381.769,116.419c-3.4,1.053-102.436-1.615-106.059-4.027-1.388-.906-1.93-14.088.512-31.563l62.239,1.25s36.574,17.386,40.266,20.458S385.165,115.376,381.769,116.419Z" transform="translate(-274.53 -65.505)"/><g transform="translate(7.329)"><g transform="translate(0 18.31)"><path class="b" d="M372.986,85.817c-16.165-.768-81.466-2.353-97.514-1.88-.128,0-.128.089,0,.1,16.008,1.112,81.319,2.166,97.514,2.048C373.321,86.083,373.33,85.837,372.986,85.817Z" transform="translate(-274.376 -57.101)"/><path class="b" d="M296.7,82.686a13.048,13.048,0,0,0-9.776,3.731,12.608,12.608,0,0,0-3.81,8.555c0,.1.177.108.2.01,1.063-6.311,6.951-11.745,13.379-12.089A.1.1,0,0,0,296.7,82.686Z" transform="translate(-205.954 -67.586)"/><path class="b" d="M298.029,81.151c-6.468-.236-14.029,1.88-18.174,7.078-.168.207.128.433.315.335a89.47,89.47,0,0,1,17.957-6.606A.411.411,0,0,0,298.029,81.151Z" transform="translate(-235.195 -81.133)"/><path class="b" d="M298.538,81.361c-6.478-.236-14.039,1.871-18.183,7.078-.158.2.128.423.325.335a89.208,89.208,0,0,1,17.948-6.616A.406.406,0,0,0,298.538,81.361Z" transform="translate(-230.743 -79.276)"/><path class="b" d="M299.041,81.572c-6.478-.246-14.038,1.871-18.183,7.078-.158.2.128.423.325.325A89.853,89.853,0,0,1,299.14,82.37.407.407,0,0,0,299.041,81.572Z" transform="translate(-226.294 -77.42)"/><path class="b" d="M299.544,81.78c-6.468-.236-14.029,1.88-18.183,7.078-.158.207.128.433.325.335a89.478,89.478,0,0,1,17.957-6.606A.412.412,0,0,0,299.544,81.78Z" transform="translate(-221.845 -75.57)"/><path class="b" d="M280.851,82.308c-7.275-.138-7.512,11.154-.237,11.3S288.126,82.456,280.851,82.308Z" transform="translate(-275.275 -70.752)"/></g><path class="b" d="M296.57,80.481c-3.219-2.8-7.413-.227-9.5,2.55a33.993,33.993,0,0,0-6.261,16.421.166.166,0,0,0,.2.187.787.787,0,0,0,1.152.551c4.686-3.081,10.081-5.8,13.675-10.229C297.938,87.382,299.612,83.129,296.57,80.481ZM288.3,94.067c-2.265,1.575-4.6,3.022-6.8,4.676,1.23-3.2,2.323-6.439,3.869-9.51a37.244,37.244,0,0,1,2.471-4.312c1.457-2.107,7.935-7.374,8.417-.315C296.521,88.494,291.008,92.186,288.3,94.067Z" transform="translate(-226.333 -79.273)"/><path class="b" d="M285.293,91.606c5.622,1,11.469-.473,17.032-1.2a.793.793,0,0,0,.512-1.171.171.171,0,0,0,.029-.276,34,34,0,0,0-15.486-8.329c-3.4-.729-8.24.069-8.851,4.292C277.959,88.909,282.015,91.025,285.293,91.606Zm-3.83-3.771c-4.253-5.661,4.1-5.917,6.577-5.277a35.758,35.758,0,0,1,4.686,1.654,102.565,102.565,0,0,1,9.156,4.666c-2.757.187-5.474.61-8.21.906C290.4,90.139,283.817,90.956,281.463,87.836Z" transform="translate(-246.963 -69.4)"/></g></g></g><path class="l" d="M350.447,356.463H274.1S290.679,119.852,288,106.591c-4.39-21.718-1.457-46.655,8.811-58.656h67.9s1.349,19.06-5.661,30.44c0,0-6.37,4.027-9.471,5.8Z" transform="translate(-274.1 -47.935)"/><g transform="translate(6.997 12.244)"><path d="M337.013,78.666c-10.573-.276-7.531-.345-18.1-.5-5.178-.079-39.173-.551-44.016.217a.113.113,0,0,0,0,.217c4.834.827,38.838.709,44.006.689,10.583-.049,7.541-.148,18.115-.315A.153.153,0,0,0,337.013,78.666Z" transform="translate(-274.811 205.283)"/><g transform="translate(62.994 0.588)"><path d="M300.4,50.76a130.909,130.909,0,0,0-19.089,11.312.223.223,0,0,0,.227.384C288,58.882,294.6,55.417,300.855,51.509A.437.437,0,0,0,300.4,50.76Z" transform="translate(-281.209 -36.214)"/><path d="M283.372,51.051a31.214,31.214,0,0,0-.916,4.017,8.544,8.544,0,0,0-.207,3.229c.05.207.335.2.433.039a11.161,11.161,0,0,0,1.053-3.239c.325-1.25.679-2.491.965-3.741A.683.683,0,0,0,283.372,51.051Z" transform="translate(-272.833 -37.479)"/><path d="M282.839,56.274q.266-1.7.561-3.4c.216-1.172.5-2.343.63-3.524.02-.187.315-.128.285.059-.177,1.132-.2,2.3-.285,3.456s-.207,2.294-.315,3.446c-.216,2.136-.581,4.292-1,6.409a7.614,7.614,0,0,0,3.121-1.3,5.967,5.967,0,0,0,1.664-3.259c.335-1.3.621-2.619.975-3.908a25.459,25.459,0,0,0,.995-4.342c.02-.187.315-.138.285.059a47,47,0,0,1-1.723,9.146c-.394,1.172-.65,2.363-1.713,3.022a9.82,9.82,0,0,1-3.8,1.122c-.148.079-.374.03-.364-.177A65.7,65.7,0,0,1,282.839,56.274Z" transform="translate(-272.9 -49.238)"/></g><path d="M289.042,94.224c-.492-4.991-1.3-9.943-1.841-14.925A92.473,92.473,0,0,1,289,49.411c.039-.177-.246-.256-.285-.069-1.654,8.683-3.1,17.356-2.668,26.237.433,8.8,1.988,17.475,2.136,26.3.137,8.939-.561,17.868-1.132,26.778l-1.733,26.886c-2.314,36.022-4.45,72.064-6.645,108.1q-.916,15.092-1.762,30.175c-.591,10.239-1.309,20.477-1.683,30.726-.039.886,1.28.817,1.359-.03,1.526-18.075,2.412-36.229,3.564-54.334,1.142-17.918,2.2-35.845,3.288-53.773s2.166-35.845,3.239-53.773c.532-8.959,1.034-17.927,1.555-26.886.512-8.929,1.172-17.859,1.3-26.8A131.1,131.1,0,0,0,289.042,94.224Z" transform="translate(-271.112 -48.689)"/><path d="M298.439,49.28a.155.155,0,0,0-.276-.03c-.551.965-.453,2.56-.64,3.662a25.815,25.815,0,0,1-.926,3.948,15.729,15.729,0,0,1-4.076,6.852c-4.273,4-9.993,5.474-15.515,6.832-.207.049-.128.325.059.345a25.1,25.1,0,0,0,9.618-1.506,20.142,20.142,0,0,0,7.423-4.164,13.861,13.861,0,0,0,4.016-7.256,24.427,24.427,0,0,0,.453-4.4c.029-.709.029-1.418.029-2.126A5.458,5.458,0,0,0,298.439,49.28Z" transform="translate(-256.468 -49.179)"/></g></g><g transform="translate(11.473)"><g transform="translate(62.224 14.09)"><path class="j" d="M284.951,100.643c6.99,8.644,42.855,36.879,74.25,32.98,12.985-1.615,20.852-31.74,22.574-42.825,3.082-19.739,7.522-61.274,0-59.483-9.382,2.225-32.025,66.945-38.7,67.585-10.721,1.014-28.53-6.724-51.075-9.914C280.392,87.343,279.576,93.988,284.951,100.643Z" transform="translate(-280.066 -31.259)"/><g transform="translate(0 56.572)"><path class="l" d="M286.638,53.046c8.624,11.213,36.071,28.727,36.071,28.727l3.151-8.309L336.3,46.017s-24.6-6.133-40.689-8.545a34.19,34.19,0,0,0-5.73-.463C279.707,37.078,279.215,43.408,286.638,53.046Z" transform="translate(-281.586 -37.006)"/><path class="b" d="M286.638,53.043c8.624,11.213,36.071,28.727,36.071,28.727l3.151-8.309c-10.495-10.77-26.68-27.083-35.983-36.455C279.707,37.075,279.215,43.405,286.638,53.043Z" transform="translate(-281.586 -37.002)"/><path d="M285.252,67.892c1.7-5.031,9.412-25.39,11.371-29.672.137-.305.354-.3.255.029-4.735,15.191-9.5,24.839-11.42,29.692C285.41,68.069,285.213,68.02,285.252,67.892Z" transform="translate(-249.199 -28.233)"/></g></g><g transform="translate(147.625 8.426)"><path class="j" d="M328.861,39.653c1.792,4.814-4.9,4.184-4.9,4.184s9.422,3.229,9.353,8.91c-.069,5.474-8.132,4.42-8.713,4.351.492.177,9.077,3.377,8.417,9.067-.679,5.927-8.594,3.475-9.106,3.318.423.315,5.868,4.548,4.391,8.762-2.55,7.246-16.766-3.2-22.87-2l.9,9.9c-.02.325-.039.669-.079.975l-5.04.7a65.288,65.288,0,0,0-5.178-8.88c-2.323-3.613-4.45-7.108-4.676-9.786a5.625,5.625,0,0,1,3.357-5.818s-4.774-2.629-4.4-7.128c.2-2.314,4.066-4.046,4.066-4.046s-3.731-2.264-3.15-6.252c.453-3.18,4.263-4.43,4.263-4.43s-2.58-3.83-1.063-6.931C297.476,28.3,325,29.365,328.861,39.653Z" transform="translate(-290.019 -30.684)"/><path class="j" d="M304.028,35.445l1.319,8.595c-.02.325-.039.669-.079.975C303.949,56.06,291.88,63.621,290.5,55.765c-1.063-5.976,6.508-12.966,4.539-18.932h.01Z" transform="translate(-289.04 11.427)"/><g transform="translate(0 9.397)"><path class="b" d="M290.947,32.756a.075.075,0,0,1-.02-.148c9.136-1.861,19.739-1.1,28.284,2.776.285.128.2.64-.138.561C309.5,33.632,300.831,32.343,290.947,32.756Z" transform="translate(-284.907 -31.638)"/><path class="b" d="M290.765,33.767c-.108.01-.118-.167,0-.187,9.422-1.871,21.354-.689,30.667,4.942.325.2.414.689.03.492C314.984,35.746,299.665,33.353,290.765,33.767Z" transform="translate(-286.547 -21.751)"/><path class="b" d="M320.2,41.643c-9.146-5.05-18.991-6.665-29.338-6.872-.138,0-.118-.187-.01-.217,5.09-1.28,11.676-.463,16.747.6a27.58,27.58,0,0,1,12.778,6.163C320.516,41.446,320.4,41.752,320.2,41.643Z" transform="translate(-285.788 -11.621)"/><path class="b" d="M306.549,51.928c-.325-1.723-.561-3.367-.876-5.1-.029-.167-.285-.108-.285.049,0,2.461.3,4.863.364,7.325a22.294,22.294,0,0,1-1.024,7.462,17.112,17.112,0,0,1-3.16,5.749c-1.457,1.733-3.5,3.652-5.887,3.771-2.51.118-3.81-1.979-3.741-4.273s1.487-4.322,2.55-6.281a24.033,24.033,0,0,0,2.658-6.655,9.279,9.279,0,0,0-1.231-6.055c-.64-1.3-1.319-2.579-1.988-3.859a15.74,15.74,0,0,1-1.516-3.347c-.551-2.314.463-5.474,2.786-6.448A.146.146,0,1,0,295.08,34a8,8,0,0,0-4.125,4.4c-.827,2.2.089,4.371,1.1,6.3q1.019,1.949,2.058,3.879a8.076,8.076,0,0,1,1.359,4.351c-.217,2.914-1.969,5.74-3.318,8.25-1.142,2.126-2.186,4.44-1.822,6.911a5.2,5.2,0,0,0,3.643,4.5c4.863,1.309,9.215-4.017,11.056-7.846a19.4,19.4,0,0,0,1.939-8.437A23.429,23.429,0,0,0,306.549,51.928Z" transform="translate(-290.26 -10.929)"/><path class="b" d="M304.346,37.521a13.09,13.09,0,0,0-3.318-1.5,15.625,15.625,0,0,0-3.6-.738,9.134,9.134,0,0,0-3.387.276,6.216,6.216,0,0,0-2.658,1.7.144.144,0,0,0,.148.236,24.264,24.264,0,0,1,2.914-.591,17.51,17.51,0,0,1,3.121-.276,18.169,18.169,0,0,1,3.337.394c1.123.217,2.215.591,3.348.738A.135.135,0,0,0,304.346,37.521Z" transform="translate(-280.694 0.229)"/><path class="b" d="M293.8,36.842c-.158-.108-.325-.217-.483-.335a7.165,7.165,0,0,1-.915-.807c-.3-.305-.591-.61-.867-.935-.138-.167-.3-.335-.443-.492a2.7,2.7,0,0,1-.236-.236,2.786,2.786,0,0,1-.216-.335c-.1-.158-.355,0-.246.158a3.966,3.966,0,0,1,.217.335c.049.108.079.226.128.335a5.4,5.4,0,0,0,.305.64,5.771,5.771,0,0,0,.837,1.172,3.614,3.614,0,0,0,1.1.778,2.261,2.261,0,0,0,.62.187,1.061,1.061,0,0,0,.581-.039l.029-.118A1.8,1.8,0,0,0,293.8,36.842Z" transform="translate(-289.342 -13.967)"/></g></g><path class="i" d="M371.5,158.753c-1.7,1.506-24.583,2.087-47.935,2.067-8.85-.01-17.79-.108-25.646-.286-14.334-.305-22.171-.669-22.6-1.339-1.2-1.811,17.485-64.887,29.594-88.072,7.689-14.728,13.645-22.19,18.508-26.4,2.934-2.54,3.977-3.977,6.251-5.05,1.211-.561,2.363-1.034,3.456-1.565,5.533-2.678,20.851-.1,23.244,1.162,2.717,1.408,10.18,15.752,11.686,27.4S372.982,157.434,371.5,158.753Z" transform="translate(-275.265 33.014)"/><path class="m" d="M275.435,56.353h94.924c-.02-2.461-.049-5.415-.128-8.723h-92.4Z" transform="translate(-273.765 127.627)"/><g transform="translate(45.474 79.244)"><g transform="translate(2.681 3.634)"><path class="j" d="M280.248,44.512c-1.664,16.53,19.847,70.312,31.927,79.783,17.957,14.1,57.248,23.746,68.786,26.217,5.031,1.083,12.946-41.457,7.59-42.707-11.725-2.727-48.82-7.748-52.138-10.18s-24.317-28.53-33.906-43.76C289.63,33.437,281.085,36.154,280.248,44.512Z" transform="translate(-280.157 -38.247)"/><g transform="translate(95.154 59.231)"><path class="j" d="M324.623,96.037c2.973-4.184-3.662-5.287-3.662-5.287s9.933-.719,11.331-6.212c1.329-5.306-6.734-6.36-7.315-6.448.532-.039,9.638-.935,10.475-6.606.857-5.9-7.413-5.562-7.955-5.543.482-.2,6.832-2.885,6.488-7.344-.6-7.649-18.853-1.428-24.445-4.145V44.263c-1.841,2.382-4.135,3.928-6.783,6.35-3.18,2.894-5.907,4.755-6.813,7.295a5.627,5.627,0,0,0,1.753,6.478s-5.287,1.319-6.084,5.759c-.4,2.284,2.894,4.962,2.894,4.962s-4.194,1.221-4.656,5.228c-.374,3.19,2.983,5.375,2.983,5.375s-3.475,3.042-2.8,6.429C291.377,98.971,318.253,105.006,324.623,96.037Z" transform="translate(-289.822 -44.263)"/><g transform="translate(3.396 20.317)"><path class="b" d="M290.266,48.518a.075.075,0,0,0-.059.138c8.358,4.135,18.8,6.133,28.058,4.578.305-.059.355-.571,0-.581C308.429,52.436,299.717,51.452,290.266,48.518Z" transform="translate(-290.167 -26.965)"/><path class="b" d="M290.384,47.4c-.108-.029-.158.138-.059.187,8.634,4.223,20.467,6.143,30.913,3.091.364-.1.581-.551.158-.463C314.287,51.713,298.87,50.089,290.384,47.4Z" transform="translate(-289.242 -36.854)"/><path class="b" d="M320.884,47.226c-10.14,2.54-20.064,1.565-30.115-.9-.138-.029-.167.158-.059.217,4.588,2.54,11.154,3.446,16.333,3.712a27.5,27.5,0,0,0,13.931-2.678C321.14,47.5,321.1,47.177,320.884,47.226Z" transform="translate(-285.945 -46.327)"/></g></g></g><path class="l" d="M298.782,47.846c-14.472-17.691-21.855-10.229-17.789,9.786,3.8,18.725,12.02,40.768,12.02,40.768l32.075-18.43S308.047,59.168,298.782,47.846Z" transform="translate(-279.884 -37.877)"/><path d="M282.39,39.443c1.94,2.314,3.938,4.568,5.927,6.823-.542-1.172-1.034-2.363-1.477-3.584a.049.049,0,0,1,.089-.039c.433.935.906,1.841,1.329,2.786.207.443.413.9.62,1.339l.138.3c1.545,1.762,3.091,3.524,4.6,5.336,1.792,2.156,3.524,4.351,5.267,6.547,1.8,2.264,3.554,4.952,5.444,7.138.158.2-2.845,1.664-3.121,1.841s-.5-.089-.2-.207c.286-.108,2.628-1.782,2.658-1.811-1.743-2.215-3.731-4.233-5.552-6.389-1.8-2.146-3.613-4.283-5.376-6.468-3.574-4.44-6.891-9.077-10.445-13.537C282.253,39.453,282.341,39.394,282.39,39.443Z" transform="translate(-258.678 -24.188)"/><path d="M280.763,47.179c.571.945,1.181,1.88,1.7,2.865l.64,1.211q-1.521-5.316-2.993-10.642c-.019-.039.049-.069.059-.03,1.93,5.73,3.879,11.45,5.71,17.209,1.742,5.493,3.771,11.036,4.942,16.687a20.842,20.842,0,0,1,3.042-1.28,14.4,14.4,0,0,1-3.308,1.9c-2.274-5.434-3.879-11.686-5.562-17.327-.472-1.585-.925-3.18-1.388-4.775-.443-.945-.965-1.861-1.467-2.776-.542-.965-.995-1.989-1.477-2.983C280.635,47.179,280.734,47.12,280.763,47.179Z" transform="translate(-277.892 -14.114)"/><path d="M281.269,58.3c4.43-2.924,23.008-14.265,27.192-16.451.286-.158.453-.01.168.187-13.055,9.087-22.742,13.773-27.231,16.431C281.279,58.533,281.161,58.375,281.269,58.3Z" transform="translate(-268.012 -3.366)"/></g><g transform="translate(53.271)"><g transform="translate(7.463 49.23)"><path class="j" d="M298.5,72.331c-5.474.817-13.98-8.171-17.041-15.122-.207-.482.9-5.218,1.979-11.036.63-3.544,1.26-7.492,1.575-11.144.059-.748,2.491.847,2.491.847l4.627,1.546,15.289,5.129S304.516,50,304,56.362a9.61,9.61,0,0,0,.03,1.516c0,.069.02.158.02.246C304.27,61.009,303.787,71.553,298.5,72.331Z" transform="translate(-281.434 -34.829)"/><path class="b" d="M299.872,56.257c0,.069.019.158.019.246a14.962,14.962,0,0,1-2.363-.069C282.151,54.771,281.9,35.012,281.9,35.012l6.064.788,15.289,5.129s-2.9,7.453-3.416,13.812A9.6,9.6,0,0,0,299.872,56.257Z" transform="translate(-277.272 -33.208)"/></g><g transform="translate(5.879 12.177)"><path class="j" d="M281.642,45.6c-1.92,8.289,3.987,31.464,10.12,36.3,8.9,7.01,22.663,6.793,28.413-3.721,5.582-10.189-2.649-40.246-9.422-44.558C300.761,27.265,284.487,33.339,281.642,45.6Z" transform="translate(-281.274 -31.065)"/></g><path class="n" d="M282.278,36.218v-.01" transform="translate(-266.511 26.601)"/><g transform="translate(24.328 30.27)"><g transform="translate(2.708 8.843)"><path class="b" d="M284.392,33.946c-.02-.059-.1.1-.079.167.433,1.546.679,3.4-.61,4.273-.039.02-.01.1.039.079C285.406,37.8,285.061,35.344,284.392,33.946Z" transform="translate(-281.109 -32.637)"/><path class="b" d="M284.9,33.82c-2.56.443-1.5,5.533.876,5.129C288.113,38.545,287.05,33.455,284.9,33.82Z" transform="translate(-283.422 -33.801)"/></g><g transform="translate(14.959 5.907)"><path class="b" d="M284.667,33.722c0-.059.138.049.148.118.285,1.585.866,3.357,2.4,3.584.05.01.059.089.01.089C285.435,37.631,284.677,35.278,284.667,33.722Z" transform="translate(-284.667 -31.713)"/><path class="b" d="M285.729,33.573c2.5-.719,3.761,4.332,1.447,4.991C284.9,39.224,283.642,34.183,285.729,33.573Z" transform="translate(-284.666 -33.503)"/></g><path class="b" d="M284.846,37.307a19.252,19.252,0,0,0,1.831-1.1c.689-.433,1.289-.7,1.644-1.477a1.107,1.107,0,0,0-.443-1.27,2.72,2.72,0,0,0-2.747.286,4,4,0,0,0-1.91,2.166A1.172,1.172,0,0,0,284.846,37.307Z" transform="translate(-283.148 -30.355)"/><path class="b" d="M289.083,35.907a19.389,19.389,0,0,1-2.136-.1,3.4,3.4,0,0,1-2.146-.522,1.091,1.091,0,0,1-.216-1.329,2.739,2.739,0,0,1,2.55-1.053,4.011,4.011,0,0,1,2.707,1A1.164,1.164,0,0,1,289.083,35.907Z" transform="translate(-271.624 -32.903)"/><path class="b" d="M283.983,35.493a2.428,2.428,0,0,0,1.517.65,4.326,4.326,0,0,0,1.614-.748.058.058,0,0,1,.089.069,2.177,2.177,0,0,1-1.822,1.27,1.731,1.731,0,0,1-1.535-1.132C283.806,35.513,283.914,35.454,283.983,35.493Z" transform="translate(-277.048 -10.949)"/><g transform="translate(7.554 0.933)"><path class="b" d="M283.965,51.549a5.51,5.51,0,0,0,4.086,1.634A6.614,6.614,0,0,0,290,52.868a2.244,2.244,0,0,0,.364-.118c.108-.039.207-.069.335-.118a.4.4,0,0,0,.236-.423V52.2l-.049-.158v-.01l-.029-.138c-.227-1.221-.729-3.042-.729-3.042.492.128,2.963.669,2.8.049-1.408-5.188-2.973-10.957-5.464-15.821-.079-.157-.335-.069-.285.1,1.162,5.041,3.19,9.845,4.43,14.885a9.33,9.33,0,0,0-2.688-.246c-.167.089,1.034,3.5,1.083,4.066v.059c-1.978.679-3.642.384-5.916-.571C283.956,51.3,283.847,51.441,283.965,51.549Z" transform="translate(-283.915 -32.998)"/></g><g transform="translate(7.367 19.435)"><path class="b" d="M289.322,35.783a6.494,6.494,0,0,1-2.136,2.51,3,3,0,0,1-1.713.473c-1.329-.069-1.6-1.221-1.575-2.254a6.62,6.62,0,0,1,.246-1.634A8.4,8.4,0,0,0,289.322,35.783Z" transform="translate(-283.896 -34.877)"/><path class="k" d="M287.186,36.844a3,3,0,0,1-1.713.473c-1.329-.069-1.6-1.221-1.575-2.254A3.006,3.006,0,0,1,287.186,36.844Z" transform="translate(-283.896 -33.428)"/></g></g><path class="b" d="M321.263,51.791c-6.97,7.364-19.985,1.29-19.985,1.29a9.1,9.1,0,0,1-7.817,7.571s1.369,14.2-2.284,14.944c-5.572,1.162-11.351-17.347-10.4-21.442s5.474-6.045,5.474-6.045-.276-2.953,2.6-6.32c3.17-3.731,17.13-2.629,17.13-2.629a12.449,12.449,0,0,1,2.382-5.257,3.51,3.51,0,0,1,5.051-.6,8.28,8.28,0,0,0-.6,3.7c.207,4.194,3.525,3.475,2.7-.2a5.82,5.82,0,0,0-2.1-3.5c1.112-2.757,3.613-4.115,5.513-3.18C322.365,31.835,327.071,45.667,321.263,51.791Z" transform="translate(-280.676 -29.828)"/><g transform="translate(2.279 40.149)"><path class="j" d="M291.207,39.24s-5.966-7.108-9.235-4.913,1.684,12.828,5.858,13.97a4.129,4.129,0,0,0,5.306-2.7Z" transform="translate(-280.908 -33.906)"/><path class="b" d="M281.216,34.255a.055.055,0,0,0-.01.108c2.924.9,4.647,3.387,5.936,6.015-.935-.965-2.136-1.437-3.445-.315-.069.059.01.167.088.148a2.527,2.527,0,0,1,2.855.63,12.013,12.013,0,0,1,1.536,2.126c.148.246.6.069.473-.217l-.029-.059C288.373,39.079,285.124,34.275,281.216,34.255Z" transform="translate(-278.655 -30.822)"/></g></g></g></g><g transform="translate(1905.99 10096.465)"><g transform="translate(0 0)"><path class="e" d="M351.1,60.772a18.254,18.254,0,0,1-3.12-10.079c0-12.771,14.03-23.127,31.322-23.127s31.3,10.356,31.3,23.127-14.014,23.127-31.3,23.127A37.607,37.607,0,0,1,357.7,67.415l-10.784,2.747Z" transform="translate(-346.592 -26.94)"/><path class="b" d="M347.366,70.78l-.214-.245L357.9,67.628l.143-.04.142.1a36.759,36.759,0,0,0,18.868,6.057,41.618,41.618,0,0,0,9.968-.7,35.993,35.993,0,0,0,9.462-3.08,29.082,29.082,0,0,0,8.029-5.748,20.207,20.207,0,0,0,4.98-8.329,16.482,16.482,0,0,0-.135-9.588,20.162,20.162,0,0,0-5.107-8.242A32.675,32.675,0,0,0,386.693,29.4a41.645,41.645,0,0,0-19.778,1.259c-6.334,1.987-12.28,5.883-15.8,11.591a17.92,17.92,0,0,0-2.652,9.525,18.592,18.592,0,0,0,2.93,9.541Zm.736-18.994a18.38,18.38,0,0,1,2.447-9.865,24.647,24.647,0,0,1,6.9-7.569,33.33,33.33,0,0,1,9.121-4.7A42.787,42.787,0,0,1,376.646,27.6a43.312,43.312,0,0,1,10.269.507,34.026,34.026,0,0,1,18.361,8.923,21.8,21.8,0,0,1,5.519,8.82,17.889,17.889,0,0,1,.1,10.435,21.7,21.7,0,0,1-5.384,8.9,30.321,30.321,0,0,1-8.44,5.97,40.258,40.258,0,0,1-20.071,3.666,37.186,37.186,0,0,1-19.208-6.572l.285.055-10.823,2.581-.372.087.158-.333,4.355-9.319A18.328,18.328,0,0,1,348.1,51.785Z" transform="translate(-346.875 -27.486)"/></g><g transform="translate(14.949 20.499)"><path class="b" d="M352.429,33.321a3.246,3.246,0,1,0,3.246-3.246A3.247,3.247,0,0,0,352.429,33.321Z" transform="translate(-323.403 -30.075)"/><path class="b" d="M350.6,33.321a3.246,3.246,0,1,0,3.246-3.246A3.252,3.252,0,0,0,350.6,33.321Z" transform="translate(-336.083 -30.075)"/><path class="b" d="M348.763,33.321a3.246,3.246,0,1,0,3.246-3.246A3.252,3.252,0,0,0,348.763,33.321Z" transform="translate(-348.763 -30.075)"/></g></g></g></svg>