<svg xmlns="http://www.w3.org/2000/svg" xmlns:xlink="http://www.w3.org/1999/xlink" width="2220" height="809" viewBox="0 0 2220 809"><defs><style>.a,.f{fill:#ddfafd;}.b{fill:#ebfdff;}.c,.d{fill:#b5e9eb;}.d,.f{fill-rule:evenodd;}.e{clip-path:url(#a);}</style><clipPath id="a"><rect class="a" width="1920" height="519.688" transform="translate(0 0)"/></clipPath></defs><g transform="translate(150 40)"><rect class="b" width="1920" height="509" transform="translate(0 110)"/><g transform="translate(0 110)"><g transform="translate(78.887 32.395)"><g transform="translate(1493 92.631)"><path class="c" d="M295.151,124.732a2.266,2.266,0,1,1-2.266-2.268A2.267,2.267,0,0,1,295.151,124.732Z" transform="translate(-290.619 -122.464)"/><path class="c" d="M307.009,124.732a2.266,2.266,0,1,1-2.266-2.268A2.267,2.267,0,0,1,307.009,124.732Z" transform="translate(-272.118 -122.464)"/><circle class="c" cx="2.266" cy="2.266" r="2.266" transform="translate(60.72 0.001)"/><path class="c" d="M330.725,124.732a2.266,2.266,0,1,1-2.266-2.268A2.267,2.267,0,0,1,330.725,124.732Z" transform="translate(-235.114 -122.464)"/><path class="c" d="M295.151,136.316a2.266,2.266,0,1,1-2.266-2.266A2.265,2.265,0,0,1,295.151,136.316Z" transform="translate(-290.619 -104.387)"/><path class="c" d="M307.009,136.316a2.266,2.266,0,1,1-2.266-2.266A2.265,2.265,0,0,1,307.009,136.316Z" transform="translate(-272.118 -104.387)"/><path class="c" d="M318.868,136.316a2.266,2.266,0,1,1-2.266-2.266A2.265,2.265,0,0,1,318.868,136.316Z" transform="translate(-253.615 -104.387)"/><path class="c" d="M330.725,136.316a2.266,2.266,0,1,1-2.266-2.266A2.265,2.265,0,0,1,330.725,136.316Z" transform="translate(-235.114 -104.387)"/><path class="c" d="M295.151,147.9a2.266,2.266,0,1,1-2.266-2.266A2.265,2.265,0,0,1,295.151,147.9Z" transform="translate(-290.619 -86.311)"/><path class="c" d="M307.009,147.9a2.266,2.266,0,1,1-2.266-2.266A2.265,2.265,0,0,1,307.009,147.9Z" transform="translate(-272.118 -86.311)"/><circle class="c" cx="2.266" cy="2.266" r="2.266" transform="translate(60.72 59.326)"/><path class="c" d="M330.725,147.9a2.266,2.266,0,1,1-2.266-2.266A2.265,2.265,0,0,1,330.725,147.9Z" transform="translate(-235.114 -86.311)"/><path class="c" d="M295.151,159.808a2.266,2.266,0,1,1-2.266-2.266A2.267,2.267,0,0,1,295.151,159.808Z" transform="translate(-290.619 -67.735)"/><path class="c" d="M307.009,159.808a2.266,2.266,0,1,1-2.266-2.266A2.267,2.267,0,0,1,307.009,159.808Z" transform="translate(-272.118 -67.735)"/><circle class="c" cx="2.266" cy="2.266" r="2.266" transform="translate(60.72 89.806)"/><path class="c" d="M330.725,159.808a2.266,2.266,0,1,1-2.266-2.266A2.267,2.267,0,0,1,330.725,159.808Z" transform="translate(-235.114 -67.735)"/><path class="c" d="M295.151,171.393a2.266,2.266,0,1,1-2.266-2.266A2.267,2.267,0,0,1,295.151,171.393Z" transform="translate(-290.619 -49.66)"/><path class="c" d="M307.009,171.393a2.266,2.266,0,1,1-2.266-2.266A2.267,2.267,0,0,1,307.009,171.393Z" transform="translate(-272.118 -49.66)"/><circle class="c" cx="2.266" cy="2.266" r="2.266" transform="translate(60.72 119.468)"/><path class="c" d="M330.725,171.393a2.266,2.266,0,1,1-2.266-2.266A2.267,2.267,0,0,1,330.725,171.393Z" transform="translate(-235.114 -49.66)"/><path class="c" d="M295.151,182.979a2.266,2.266,0,1,1-2.266-2.266A2.265,2.265,0,0,1,295.151,182.979Z" transform="translate(-290.619 -31.583)"/><path class="c" d="M307.009,182.979a2.266,2.266,0,1,1-2.266-2.266A2.265,2.265,0,0,1,307.009,182.979Z" transform="translate(-272.118 -31.583)"/><circle class="c" cx="2.266" cy="2.266" r="2.266" transform="translate(60.72 149.13)"/><path class="c" d="M330.725,182.979a2.266,2.266,0,1,1-2.266-2.266A2.265,2.265,0,0,1,330.725,182.979Z" transform="translate(-235.114 -31.583)"/><circle class="c" cx="2.266" cy="2.266" r="2.266" transform="translate(122.96 0.001)"/><circle class="c" cx="2.266" cy="2.266" r="2.266" transform="translate(153.32 0.001)"/><path class="c" d="M366.895,124.732a2.266,2.266,0,1,1-2.266-2.268A2.267,2.267,0,0,1,366.895,124.732Z" transform="translate(-178.683 -122.464)"/><path class="c" d="M378.755,124.732a2.267,2.267,0,1,1-2.268-2.268A2.269,2.269,0,0,1,378.755,124.732Z" transform="translate(-160.182 -122.464)"/><path class="c" d="M343.177,136.316a2.266,2.266,0,1,1-2.266-2.266A2.265,2.265,0,0,1,343.177,136.316Z" transform="translate(-215.687 -104.387)"/><path class="c" d="M355.037,136.316a2.266,2.266,0,1,1-2.266-2.266A2.265,2.265,0,0,1,355.037,136.316Z" transform="translate(-197.184 -104.387)"/><path class="c" d="M366.895,136.316a2.266,2.266,0,1,1-2.266-2.266A2.265,2.265,0,0,1,366.895,136.316Z" transform="translate(-178.683 -104.387)"/><path class="c" d="M378.755,136.316a2.267,2.267,0,1,1-2.268-2.266A2.267,2.267,0,0,1,378.755,136.316Z" transform="translate(-160.182 -104.387)"/><circle class="c" cx="2.266" cy="2.266" r="2.266" transform="translate(122.96 59.326)"/><circle class="c" cx="2.266" cy="2.266" r="2.266" transform="translate(153.32 59.326)"/><path class="c" d="M366.895,147.9a2.266,2.266,0,1,1-2.266-2.266A2.265,2.265,0,0,1,366.895,147.9Z" transform="translate(-178.683 -86.311)"/><path class="c" d="M378.755,147.9a2.267,2.267,0,1,1-2.268-2.266A2.267,2.267,0,0,1,378.755,147.9Z" transform="translate(-160.182 -86.311)"/><circle class="c" cx="2.266" cy="2.266" r="2.266" transform="translate(122.96 89.806)"/><circle class="c" cx="2.266" cy="2.266" r="2.266" transform="translate(153.32 89.806)"/><path class="c" d="M366.895,159.808a2.266,2.266,0,1,1-2.266-2.266A2.267,2.267,0,0,1,366.895,159.808Z" transform="translate(-178.683 -67.735)"/><path class="c" d="M378.755,159.808a2.267,2.267,0,1,1-2.268-2.266A2.269,2.269,0,0,1,378.755,159.808Z" transform="translate(-160.182 -67.735)"/><circle class="c" cx="2.266" cy="2.266" r="2.266" transform="translate(122.96 119.468)"/><circle class="c" cx="2.266" cy="2.266" r="2.266" transform="translate(153.32 119.468)"/><path class="c" d="M366.895,171.393a2.266,2.266,0,1,1-2.266-2.266A2.267,2.267,0,0,1,366.895,171.393Z" transform="translate(-178.683 -49.66)"/><path class="c" d="M378.755,171.393a2.267,2.267,0,1,1-2.268-2.266A2.269,2.269,0,0,1,378.755,171.393Z" transform="translate(-160.182 -49.66)"/><circle class="c" cx="2.266" cy="2.266" r="2.266" transform="translate(122.96 149.13)"/><circle class="c" cx="2.266" cy="2.266" r="2.266" transform="translate(153.32 149.13)"/><path class="c" d="M366.895,182.979a2.266,2.266,0,1,1-2.266-2.266A2.265,2.265,0,0,1,366.895,182.979Z" transform="translate(-178.683 -31.583)"/><path class="c" d="M378.755,182.979a2.267,2.267,0,1,1-2.268-2.266A2.267,2.267,0,0,1,378.755,182.979Z" transform="translate(-160.182 -31.583)"/><path class="c" d="M391.205,124.732a2.266,2.266,0,1,1-2.266-2.268A2.267,2.267,0,0,1,391.205,124.732Z" transform="translate(-140.753 -122.464)"/><path class="c" d="M403.064,124.732a2.266,2.266,0,1,1-2.266-2.268A2.267,2.267,0,0,1,403.064,124.732Z" transform="translate(-122.252 -122.464)"/><circle class="c" cx="2.266" cy="2.266" r="2.266" transform="translate(306.64 0.001)"/><path class="c" d="M391.205,136.316a2.266,2.266,0,1,1-2.266-2.266A2.265,2.265,0,0,1,391.205,136.316Z" transform="translate(-140.753 -104.387)"/><path class="c" d="M403.064,136.316a2.266,2.266,0,1,1-2.266-2.266A2.265,2.265,0,0,1,403.064,136.316Z" transform="translate(-122.252 -104.387)"/><path class="c" d="M414.924,136.316a2.267,2.267,0,1,1-2.268-2.266A2.267,2.267,0,0,1,414.924,136.316Z" transform="translate(-103.751 -104.387)"/><path class="c" d="M391.205,147.9a2.266,2.266,0,1,1-2.266-2.266A2.265,2.265,0,0,1,391.205,147.9Z" transform="translate(-140.753 -86.311)"/><path class="c" d="M403.064,147.9a2.266,2.266,0,1,1-2.266-2.266A2.265,2.265,0,0,1,403.064,147.9Z" transform="translate(-122.252 -86.311)"/><circle class="c" cx="2.266" cy="2.266" r="2.266" transform="translate(306.64 59.326)"/><path class="c" d="M391.205,159.808a2.266,2.266,0,1,1-2.266-2.266A2.267,2.267,0,0,1,391.205,159.808Z" transform="translate(-140.753 -67.735)"/><path class="c" d="M403.064,159.808a2.266,2.266,0,1,1-2.266-2.266A2.267,2.267,0,0,1,403.064,159.808Z" transform="translate(-122.252 -67.735)"/><circle class="c" cx="2.266" cy="2.266" r="2.266" transform="translate(306.64 89.806)"/><path class="c" d="M391.205,171.393a2.266,2.266,0,1,1-2.266-2.266A2.267,2.267,0,0,1,391.205,171.393Z" transform="translate(-140.753 -49.66)"/><path class="c" d="M403.064,171.393a2.266,2.266,0,1,1-2.266-2.266A2.267,2.267,0,0,1,403.064,171.393Z" transform="translate(-122.252 -49.66)"/><circle class="c" cx="2.266" cy="2.266" r="2.266" transform="translate(306.64 119.468)"/><path class="c" d="M391.205,182.979a2.266,2.266,0,1,1-2.266-2.266A2.265,2.265,0,0,1,391.205,182.979Z" transform="translate(-140.753 -31.583)"/><path class="c" d="M403.064,182.979a2.266,2.266,0,1,1-2.266-2.266A2.265,2.265,0,0,1,403.064,182.979Z" transform="translate(-122.252 -31.583)"/><circle class="c" cx="2.266" cy="2.266" r="2.266" transform="translate(306.64 149.13)"/></g><g transform="translate(0 333.631)"><path class="c" d="M295.151,124.732a2.266,2.266,0,1,1-2.266-2.268A2.267,2.267,0,0,1,295.151,124.732Z" transform="translate(-290.619 -122.464)"/><path class="c" d="M307.009,124.732a2.266,2.266,0,1,1-2.266-2.268A2.267,2.267,0,0,1,307.009,124.732Z" transform="translate(-272.118 -122.464)"/><circle class="c" cx="2.266" cy="2.266" r="2.266" transform="translate(60.72 0.001)"/><path class="c" d="M330.725,124.732a2.266,2.266,0,1,1-2.266-2.268A2.267,2.267,0,0,1,330.725,124.732Z" transform="translate(-235.114 -122.464)"/><path class="c" d="M295.151,136.316a2.266,2.266,0,1,1-2.266-2.266A2.265,2.265,0,0,1,295.151,136.316Z" transform="translate(-290.619 -104.387)"/><path class="c" d="M307.009,136.316a2.266,2.266,0,1,1-2.266-2.266A2.265,2.265,0,0,1,307.009,136.316Z" transform="translate(-272.118 -104.387)"/><path class="c" d="M318.868,136.316a2.266,2.266,0,1,1-2.266-2.266A2.265,2.265,0,0,1,318.868,136.316Z" transform="translate(-253.615 -104.387)"/><path class="c" d="M330.725,136.316a2.266,2.266,0,1,1-2.266-2.266A2.265,2.265,0,0,1,330.725,136.316Z" transform="translate(-235.114 -104.387)"/><path class="c" d="M295.151,147.9a2.266,2.266,0,1,1-2.266-2.266A2.265,2.265,0,0,1,295.151,147.9Z" transform="translate(-290.619 -86.311)"/><path class="c" d="M307.009,147.9a2.266,2.266,0,1,1-2.266-2.266A2.265,2.265,0,0,1,307.009,147.9Z" transform="translate(-272.118 -86.311)"/><circle class="c" cx="2.266" cy="2.266" r="2.266" transform="translate(60.72 59.326)"/><path class="c" d="M330.725,147.9a2.266,2.266,0,1,1-2.266-2.266A2.265,2.265,0,0,1,330.725,147.9Z" transform="translate(-235.114 -86.311)"/><path class="c" d="M295.151,159.808a2.266,2.266,0,1,1-2.266-2.266A2.267,2.267,0,0,1,295.151,159.808Z" transform="translate(-290.619 -67.735)"/><path class="c" d="M307.009,159.808a2.266,2.266,0,1,1-2.266-2.266A2.267,2.267,0,0,1,307.009,159.808Z" transform="translate(-272.118 -67.735)"/><circle class="c" cx="2.266" cy="2.266" r="2.266" transform="translate(60.72 89.806)"/><path class="c" d="M330.725,159.808a2.266,2.266,0,1,1-2.266-2.266A2.267,2.267,0,0,1,330.725,159.808Z" transform="translate(-235.114 -67.735)"/><path class="c" d="M295.151,171.393a2.266,2.266,0,1,1-2.266-2.266A2.267,2.267,0,0,1,295.151,171.393Z" transform="translate(-290.619 -49.66)"/><path class="c" d="M307.009,171.393a2.266,2.266,0,1,1-2.266-2.266A2.267,2.267,0,0,1,307.009,171.393Z" transform="translate(-272.118 -49.66)"/><circle class="c" cx="2.266" cy="2.266" r="2.266" transform="translate(60.72 119.468)"/><path class="c" d="M330.725,171.393a2.266,2.266,0,1,1-2.266-2.266A2.267,2.267,0,0,1,330.725,171.393Z" transform="translate(-235.114 -49.66)"/><path class="c" d="M295.151,182.979a2.266,2.266,0,1,1-2.266-2.266A2.265,2.265,0,0,1,295.151,182.979Z" transform="translate(-290.619 -31.583)"/><path class="c" d="M307.009,182.979a2.266,2.266,0,1,1-2.266-2.266A2.265,2.265,0,0,1,307.009,182.979Z" transform="translate(-272.118 -31.583)"/><circle class="c" cx="2.266" cy="2.266" r="2.266" transform="translate(60.72 149.13)"/><path class="c" d="M330.725,182.979a2.266,2.266,0,1,1-2.266-2.266A2.265,2.265,0,0,1,330.725,182.979Z" transform="translate(-235.114 -31.583)"/><circle class="c" cx="2.266" cy="2.266" r="2.266" transform="translate(122.96 0.001)"/><circle class="c" cx="2.266" cy="2.266" r="2.266" transform="translate(153.32 0.001)"/><path class="c" d="M366.895,124.732a2.266,2.266,0,1,1-2.266-2.268A2.267,2.267,0,0,1,366.895,124.732Z" transform="translate(-178.683 -122.464)"/><path class="c" d="M378.755,124.732a2.267,2.267,0,1,1-2.268-2.268A2.269,2.269,0,0,1,378.755,124.732Z" transform="translate(-160.182 -122.464)"/><path class="c" d="M343.177,136.316a2.266,2.266,0,1,1-2.266-2.266A2.265,2.265,0,0,1,343.177,136.316Z" transform="translate(-215.687 -104.387)"/><path class="c" d="M355.037,136.316a2.266,2.266,0,1,1-2.266-2.266A2.265,2.265,0,0,1,355.037,136.316Z" transform="translate(-197.184 -104.387)"/><path class="c" d="M366.895,136.316a2.266,2.266,0,1,1-2.266-2.266A2.265,2.265,0,0,1,366.895,136.316Z" transform="translate(-178.683 -104.387)"/><path class="c" d="M378.755,136.316a2.267,2.267,0,1,1-2.268-2.266A2.267,2.267,0,0,1,378.755,136.316Z" transform="translate(-160.182 -104.387)"/><circle class="c" cx="2.266" cy="2.266" r="2.266" transform="translate(122.96 59.326)"/><circle class="c" cx="2.266" cy="2.266" r="2.266" transform="translate(153.32 59.326)"/><path class="c" d="M366.895,147.9a2.266,2.266,0,1,1-2.266-2.266A2.265,2.265,0,0,1,366.895,147.9Z" transform="translate(-178.683 -86.311)"/><path class="c" d="M378.755,147.9a2.267,2.267,0,1,1-2.268-2.266A2.267,2.267,0,0,1,378.755,147.9Z" transform="translate(-160.182 -86.311)"/><circle class="c" cx="2.266" cy="2.266" r="2.266" transform="translate(122.96 89.806)"/><circle class="c" cx="2.266" cy="2.266" r="2.266" transform="translate(153.32 89.806)"/><path class="c" d="M366.895,159.808a2.266,2.266,0,1,1-2.266-2.266A2.267,2.267,0,0,1,366.895,159.808Z" transform="translate(-178.683 -67.735)"/><path class="c" d="M378.755,159.808a2.267,2.267,0,1,1-2.268-2.266A2.269,2.269,0,0,1,378.755,159.808Z" transform="translate(-160.182 -67.735)"/><circle class="c" cx="2.266" cy="2.266" r="2.266" transform="translate(122.96 119.468)"/><circle class="c" cx="2.266" cy="2.266" r="2.266" transform="translate(153.32 119.468)"/><path class="c" d="M366.895,171.393a2.266,2.266,0,1,1-2.266-2.266A2.267,2.267,0,0,1,366.895,171.393Z" transform="translate(-178.683 -49.66)"/><path class="c" d="M378.755,171.393a2.267,2.267,0,1,1-2.268-2.266A2.269,2.269,0,0,1,378.755,171.393Z" transform="translate(-160.182 -49.66)"/><circle class="c" cx="2.266" cy="2.266" r="2.266" transform="translate(122.96 149.13)"/><circle class="c" cx="2.266" cy="2.266" r="2.266" transform="translate(153.32 149.13)"/><path class="c" d="M366.895,182.979a2.266,2.266,0,1,1-2.266-2.266A2.265,2.265,0,0,1,366.895,182.979Z" transform="translate(-178.683 -31.583)"/><path class="c" d="M378.755,182.979a2.267,2.267,0,1,1-2.268-2.266A2.267,2.267,0,0,1,378.755,182.979Z" transform="translate(-160.182 -31.583)"/><path class="c" d="M391.205,124.732a2.266,2.266,0,1,1-2.266-2.268A2.267,2.267,0,0,1,391.205,124.732Z" transform="translate(-140.753 -122.464)"/><path class="c" d="M403.064,124.732a2.266,2.266,0,1,1-2.266-2.268A2.267,2.267,0,0,1,403.064,124.732Z" transform="translate(-122.252 -122.464)"/><circle class="c" cx="2.266" cy="2.266" r="2.266" transform="translate(306.64 0.001)"/><path class="c" d="M391.205,136.316a2.266,2.266,0,1,1-2.266-2.266A2.265,2.265,0,0,1,391.205,136.316Z" transform="translate(-140.753 -104.387)"/><path class="c" d="M403.064,136.316a2.266,2.266,0,1,1-2.266-2.266A2.265,2.265,0,0,1,403.064,136.316Z" transform="translate(-122.252 -104.387)"/><path class="c" d="M414.924,136.316a2.267,2.267,0,1,1-2.268-2.266A2.267,2.267,0,0,1,414.924,136.316Z" transform="translate(-103.751 -104.387)"/><path class="c" d="M391.205,147.9a2.266,2.266,0,1,1-2.266-2.266A2.265,2.265,0,0,1,391.205,147.9Z" transform="translate(-140.753 -86.311)"/><path class="c" d="M403.064,147.9a2.266,2.266,0,1,1-2.266-2.266A2.265,2.265,0,0,1,403.064,147.9Z" transform="translate(-122.252 -86.311)"/><circle class="c" cx="2.266" cy="2.266" r="2.266" transform="translate(306.64 59.326)"/><path class="c" d="M391.205,159.808a2.266,2.266,0,1,1-2.266-2.266A2.267,2.267,0,0,1,391.205,159.808Z" transform="translate(-140.753 -67.735)"/><path class="c" d="M403.064,159.808a2.266,2.266,0,1,1-2.266-2.266A2.267,2.267,0,0,1,403.064,159.808Z" transform="translate(-122.252 -67.735)"/><circle class="c" cx="2.266" cy="2.266" r="2.266" transform="translate(306.64 89.806)"/><path class="c" d="M391.205,171.393a2.266,2.266,0,1,1-2.266-2.266A2.267,2.267,0,0,1,391.205,171.393Z" transform="translate(-140.753 -49.66)"/><path class="c" d="M403.064,171.393a2.266,2.266,0,1,1-2.266-2.266A2.267,2.267,0,0,1,403.064,171.393Z" transform="translate(-122.252 -49.66)"/><circle class="c" cx="2.266" cy="2.266" r="2.266" transform="translate(306.64 119.468)"/><path class="c" d="M391.205,182.979a2.266,2.266,0,1,1-2.266-2.266A2.265,2.265,0,0,1,391.205,182.979Z" transform="translate(-140.753 -31.583)"/><path class="c" d="M403.064,182.979a2.266,2.266,0,1,1-2.266-2.266A2.265,2.265,0,0,1,403.064,182.979Z" transform="translate(-122.252 -31.583)"/><circle class="c" cx="2.266" cy="2.266" r="2.266" transform="translate(306.64 149.13)"/></g><path class="d" d="M494.773,511.318a2.908,2.908,0,1,1,5.816,0V524.4a2.908,2.908,0,1,1-5.816,0V511.318ZM474.94,521.943a2.91,2.91,0,1,1,4.113-4.117l9.254,9.254a2.909,2.909,0,0,1-4.113,4.116l-9.254-9.253Zm-6.51,21.539a2.911,2.911,0,1,1,0-5.823h13.086a2.912,2.912,0,0,1,0,5.823Zm10.623,19.832a2.909,2.909,0,1,1-4.113-4.116l9.254-9.254a2.909,2.909,0,0,1,4.113,4.114l-9.254,9.256Zm21.536,6.508a2.908,2.908,0,0,1-5.816,0V556.731a2.908,2.908,0,1,1,5.816,0v13.091ZM520.422,559.2a2.91,2.91,0,1,1-4.116,4.116l-9.255-9.256a2.91,2.91,0,0,1,4.116-4.114l9.255,9.254Zm6.51-21.539a2.911,2.911,0,0,1,0,5.823H513.844a2.911,2.911,0,0,1,0-5.823Zm-10.626-19.833a2.911,2.911,0,0,1,4.116,4.117l-9.255,9.253a2.91,2.91,0,0,1-4.116-4.116Z" transform="translate(-154.61 -508.405)"/></g><g transform="translate(0 0)"><g class="e" transform="translate(0 0)"><path class="f" d="M469.319,994.966h-90.6c-48.76,0-88.653,30.707-88.653,68.234h0c0,37.529,39.893,68.234,88.653,68.234h766.05c78.956,0,143.555-49.72,143.555-110.49h0c0-60.771-64.6-110.491-143.553-110.491h0c-33.384,0-60.7-21.022-60.7-46.717h0c0-25.7,27.314-46.719,60.7-46.719h73.049c34.709,0,63.107-21.857,63.107-48.571h0c0-26.715-28.4-48.572-63.107-48.572H1125.45c-13.511,0-24.569-8.511-24.569-18.91h0c0-10.4,11.058-18.908,24.569-18.908h16.285c9.325,0,16.954-5.874,16.954-13.051h0c0-7.177-7.629-13.051-16.954-13.051H1034.884c-22.5,0-25.008,20.462-81.851,20.462H865.281c-12.169,0,36.629,7.667,36.629,17.03l-21.546-17.03c0,9.365-12.169,17.03,0,17.03l211.154,17.028c17.633,0-248.959,11.105-248.959,24.674v0c0,13.57-14.426,24.676-32.059,24.676H778.523c-86.349,0-98.544,17.368-113.668,51.912s-93.669,37.331-93.669,37.331H463.79c-26.572,0-48.312,16.733-48.312,37.183v0c0,20.45,21.74,37.183,48.312,37.183h5.53c25.556,0,46.468,16.1,46.468,35.766h0c0,19.67-20.912,35.764-46.468,35.764Zm720-312.909c-9.366,0-16.957-5.844-16.957-13.051s7.591-13.051,16.957-13.051,16.957,5.844,16.957,13.051S1198.681,682.056,1189.317,682.056Z" transform="translate(1085.118 -614.084)"/><path class="f" d="M-546.13,980.466h-90.6c-48.762,0-88.653,30.707-88.653,68.234h0c0,37.53,39.891,68.234,88.653,68.234h766.05c78.956,0,143.555-49.72,143.555-110.49h0c0-60.771-64.6-110.49-143.553-110.49h0c-33.384,0-60.7-21.023-60.7-46.718h0c0-25.7,27.314-46.719,60.7-46.719h73.049c34.709,0,63.1-21.858,63.1-48.571h0c0-26.715-28.4-48.572-63.1-48.572H110c-13.513,0-24.569-8.509-24.569-18.91h0c0-10.4,11.055-18.908,24.569-18.908h16.285c9.323,0,16.954-5.874,16.954-13.051h0c0-7.177-7.631-13.051-16.954-13.051H19.435c-22.5,0-25.01,20.462-81.852,20.462H-226.2c-12.171,0-22.126,7.665-22.126,17.03h0c0,9.365,9.957,17.03,22.126,17.03h21.247c17.633,0,32.059,11.1,32.059,24.674h0c0,13.57-14.426,24.675-32.059,24.675h-31.976c-86.349,0-98.546,17.368-113.667,51.912s-93.669,37.331-93.669,37.331h-107.4c-26.572,0-48.312,16.733-48.312,37.183v0c0,20.45,21.74,37.183,48.312,37.183h5.53c25.557,0,46.466,16.1,46.466,35.766h0c0,19.67-20.91,35.764-46.466,35.764Zm720-312.909c-9.366,0-16.957-5.842-16.957-13.051s7.591-13.051,16.957-13.051,16.957,5.844,16.957,13.051S183.23,667.556,173.868,667.556Z" transform="translate(-65.832 -623.394)"/></g></g></g></g></svg>