<svg xmlns="http://www.w3.org/2000/svg" width="564.579" height="327.46" viewBox="0 0 564.579 327.46"><defs><style>.a{fill:none;stroke:#333;stroke-miterlimit:10;stroke-dasharray:8;}.b{fill:#24669a;}.b,.c,.d{stroke:#707070;}.c{fill:#222221;opacity:0.2;}.d{fill:#263238;}</style></defs><g transform="translate(129.436 -4335.842)"><path class="a" d="M0,272.2a342.2,342.2,0,0,0,30.549-46.1c8.135-14.742,15.178-30.072,23.555-44.677,21.736-37.892,53.72-71.4,94.486-87.095s90.818-10.779,122.967,18.8c18.7,17.2,30.117,41.052,37.178,65.465,3.07,10.611,5.4,21.939,2.6,32.625l-.086.32c-4.693,17.081-30.076,14.378-31.018-3.31-.75-14.106,4.387-29.059,13.105-40.474,13.853-18.135,34.739-29.3,55.161-39.489S390.1,107.914,405.418,91c21.8-24.073,28.366-60.873,16.229-91" transform="translate(295.639 4663.069) rotate(-173)"/><g transform="matrix(-0.985, 0.174, -0.174, -0.985, 434.647, 4411.302)"><g transform="translate(0 0)"><path class="b" d="M102.459,30.837,113.687,0,90.117,18.408,0,51.09Z" transform="translate(0 21.041)"/><path class="c" d="M102.459,30.837,113.687,0,90.117,18.408,0,51.09Z" transform="translate(0 21.041)"/><path class="d" d="M0,11.223,26.6,0,3.025,18.408Z" transform="translate(87.092 21.041)"/><path class="b" d="M90.117,39.449,0,72.132,73.916,0Z" transform="translate(0 0)"/><path class="b" d="M102.459,0l37.451,24.179L0,20.254Z" transform="translate(0 51.878)"/></g></g></g></svg>